<?xml version="1.0" encoding="UTF-8" standalone="no"?>
<!DOCTYPE svg PUBLIC "-//W3C//DTD SVG 1.0//EN"
 "http://www.w3.org/TR/2001/REC-SVG-20010904/DTD/svg10.dtd" [
 <!ATTLIST svg xmlns:xlink CDATA #FIXED "http://www.w3.org/1999/xlink">
]>
<!-- Generated by Graphviz version 2.14.1 (Fri Nov  9 08:19:38 GMT 2007)
     For user: (asakyurek) Alper Sinan Akyurek -->
<!-- Title: S2Sim/TerraswarmLibrary/ClientConnectionRequest.h Pages: 1 -->
<svg width="306pt" height="274pt"
 viewBox="0.00 0.00 306.00 274.00" xmlns="http://www.w3.org/2000/svg" xmlns:xlink="http://www.w3.org/1999/xlink">
<g id="graph0" class="graph" transform="scale(1 1) rotate(0) translate(4 270)">
<title>S2Sim/TerraswarmLibrary/ClientConnectionRequest.h</title>
<polygon style="fill:white;stroke:white;" points="-4,4 -4,-270 302,-270 302,4 -4,4"/>
<!-- Node1 -->
<g id="node1" class="node"><title>Node1</title>
<polygon style="fill:#bfbfbf;stroke:black;" points="52,-232 52,-266 220,-266 220,-232 52,-232"/>
<text text-anchor="start" x="60" y="-252" style="font-family:Arial;font-size:10.00;">S2Sim/TerraswarmLibrary</text>
<text text-anchor="middle" x="136" y="-239" style="font-family:Arial;font-size:10.00;">/ClientConnectionRequest.h</text>
</g>
<!-- Node2 -->
<g id="node3" class="node"><title>Node2</title>
<a xlink:href="_message_header_8h.html" target="_top" xlink:title="MessageHeader.h">
<polygon style="fill:white;stroke:black;" points="0,-116 0,-137 113,-137 113,-116 0,-116"/>
<text text-anchor="middle" x="56" y="-123" style="font-family:Arial;font-size:10.00;">MessageHeader.h</text>
</a>
</g>
<!-- Node1&#45;&gt;Node2 -->
<g id="edge2" class="edge"><title>Node1&#45;&gt;Node2</title>
<path style="fill:none;stroke:midnightblue;" d="M110,-232C98,-223 84,-210 75,-196 66,-181 61,-162 59,-147"/>
<polygon style="fill:midnightblue;stroke:midnightblue;" points="62.3933,-146.119 57,-137 55.5292,-147.492 62.3933,-146.119"/>
</g>
<!-- Node7 -->
<g id="node13" class="node"><title>Node7</title>
<a xlink:href="_message_ender_8h.html" target="_top" xlink:title="MessageEnder.h">
<polygon style="fill:white;stroke:black;" points="84,-174 84,-195 188,-195 188,-174 84,-174"/>
<text text-anchor="middle" x="136" y="-181" style="font-family:Arial;font-size:10.00;">MessageEnder.h</text>
</a>
</g>
<!-- Node1&#45;&gt;Node7 -->
<g id="edge12" class="edge"><title>Node1&#45;&gt;Node7</title>
<path style="fill:none;stroke:midnightblue;" d="M136,-232C136,-224 136,-214 136,-205"/>
<polygon style="fill:midnightblue;stroke:midnightblue;" points="139.5,-205 136,-195 132.5,-205 139.5,-205"/>
</g>
<!-- Node8 -->
<g id="node17" class="node"><title>Node8</title>
<polygon style="fill:white;stroke:#bfbfbf;" points="206,-174 206,-195 252,-195 252,-174 206,-174"/>
<text text-anchor="middle" x="229" y="-181" style="font-family:Arial;font-size:10.00;">string</text>
</g>
<!-- Node1&#45;&gt;Node8 -->
<g id="edge18" class="edge"><title>Node1&#45;&gt;Node8</title>
<path style="fill:none;stroke:midnightblue;" d="M161,-232C175,-222 192,-210 206,-201"/>
<polygon style="fill:midnightblue;stroke:midnightblue;" points="208.1,-203.8 214,-195 203.9,-198.2 208.1,-203.8"/>
</g>
<!-- Node3 -->
<g id="node5" class="node"><title>Node3</title>
<a xlink:href="_network_byte_accessor_8h.html" target="_top" xlink:title="NetworkByteAccessor.h">
<polygon style="fill:white;stroke:black;" points="70,-58 70,-79 211,-79 211,-58 70,-58"/>
<text text-anchor="middle" x="140" y="-65" style="font-family:Arial;font-size:10.00;">NetworkByteAccessor.h</text>
</a>
</g>
<!-- Node2&#45;&gt;Node3 -->
<g id="edge4" class="edge"><title>Node2&#45;&gt;Node3</title>
<path style="fill:none;stroke:midnightblue;" d="M72,-116C85,-107 103,-94 118,-85"/>
<polygon style="fill:midnightblue;stroke:midnightblue;" points="120.1,-87.8 126,-79 115.9,-82.2 120.1,-87.8"/>
</g>
<!-- Node6 -->
<g id="node11" class="node"><title>Node6</title>
<polygon style="fill:white;stroke:#bfbfbf;" points="12,-58 12,-79 53,-79 53,-58 12,-58"/>
<text text-anchor="middle" x="32" y="-65" style="font-family:Arial;font-size:10.00;">map</text>
</g>
<!-- Node2&#45;&gt;Node6 -->
<g id="edge10" class="edge"><title>Node2&#45;&gt;Node6</title>
<path style="fill:none;stroke:midnightblue;" d="M51,-116C48,-108 44,-97 40,-88"/>
<polygon style="fill:midnightblue;stroke:midnightblue;" points="43.2598,-86.7166 36,-79 36.8631,-89.5596 43.2598,-86.7166"/>
</g>
<!-- Node4 -->
<g id="node7" class="node"><title>Node4</title>
<polygon style="fill:white;stroke:#bfbfbf;" points="44,-0 44,-21 100,-21 100,-0 44,-0"/>
<text text-anchor="middle" x="72" y="-7" style="font-family:Arial;font-size:10.00;">string.h</text>
</g>
<!-- Node3&#45;&gt;Node4 -->
<g id="edge6" class="edge"><title>Node3&#45;&gt;Node4</title>
<path style="fill:none;stroke:midnightblue;" d="M127,-58C117,-49 103,-37 92,-27"/>
<polygon style="fill:midnightblue;stroke:midnightblue;" points="94.1,-24.2 84,-21 89.9,-29.8 94.1,-24.2"/>
</g>
<!-- Node5 -->
<g id="node9" class="node"><title>Node5</title>
<a xlink:href="_compile_time_checker_library_8h.html" target="_top" xlink:title="CompileTimeCheckerLibrary.h">
<polygon style="fill:white;stroke:black;" points="118,-0 118,-21 299,-21 299,-0 118,-0"/>
<text text-anchor="middle" x="208" y="-7" style="font-family:Arial;font-size:10.00;">CompileTimeCheckerLibrary.h</text>
</a>
</g>
<!-- Node3&#45;&gt;Node5 -->
<g id="edge8" class="edge"><title>Node3&#45;&gt;Node5</title>
<path style="fill:none;stroke:midnightblue;" d="M153,-58C163,-49 177,-37 188,-27"/>
<polygon style="fill:midnightblue;stroke:midnightblue;" points="190.1,-29.8 196,-21 185.9,-24.2 190.1,-29.8"/>
</g>
<!-- Node7&#45;&gt;Node2 -->
<g id="edge14" class="edge"><title>Node7&#45;&gt;Node2</title>
<path style="fill:none;stroke:midnightblue;" d="M121,-174C109,-165 92,-153 78,-143"/>
<polygon style="fill:midnightblue;stroke:midnightblue;" points="80.1,-140.2 70,-137 75.9,-145.8 80.1,-140.2"/>
</g>
<!-- Node7&#45;&gt;Node3 -->
<g id="edge16" class="edge"><title>Node7&#45;&gt;Node3</title>
<path style="fill:none;stroke:midnightblue;" d="M136,-174C137,-155 138,-114 140,-89"/>
<polygon style="fill:midnightblue;stroke:midnightblue;" points="143.5,-89 140,-79 136.5,-89 143.5,-89"/>
</g>
</g>
</svg>
