<?xml version="1.0" encoding="UTF-8" standalone="no"?>
<!DOCTYPE svg PUBLIC "-//W3C//DTD SVG 1.0//EN"
 "http://www.w3.org/TR/2001/REC-SVG-20010904/DTD/svg10.dtd" [
 <!ATTLIST svg xmlns:xlink CDATA #FIXED "http://www.w3.org/1999/xlink">
]>
<!-- Generated by Graphviz version 2.14.1 (Fri Nov  9 08:19:38 GMT 2007)
     For user: (asakyurek) Alper Sinan Akyurek -->
<!-- Title: S2Sim/TerraswarmLibrary/CompileTimeCheckerLibrary.h Pages: 1 -->
<svg width="1449pt" height="682pt"
 viewBox="0.00 0.00 1449.00 682.00" xmlns="http://www.w3.org/2000/svg" xmlns:xlink="http://www.w3.org/1999/xlink">
<g id="graph0" class="graph" transform="scale(1 1) rotate(0) translate(4 678)">
<title>S2Sim/TerraswarmLibrary/CompileTimeCheckerLibrary.h</title>
<polygon style="fill:white;stroke:white;" points="-4,4 -4,-678 1445,-678 1445,4 -4,4"/>
<!-- Node1 -->
<g id="node1" class="node"><title>Node1</title>
<polygon style="fill:#bfbfbf;stroke:black;" points="847,-640 847,-674 1031,-674 1031,-640 847,-640"/>
<text text-anchor="start" x="855" y="-660" style="font-family:Arial;font-size:10.00;">S2Sim/TerraswarmLibrary</text>
<text text-anchor="middle" x="939" y="-647" style="font-family:Arial;font-size:10.00;">/CompileTimeCheckerLibrary.h</text>
</g>
<!-- Node2 -->
<g id="node3" class="node"><title>Node2</title>
<a xlink:href="_network_byte_accessor_8h.html" target="_top" xlink:title="S2Sim/TerraswarmLibrary\l/NetworkByteAccessor.h">
<polygon style="fill:white;stroke:black;" points="795,-570 795,-604 948,-604 948,-570 795,-570"/>
<text text-anchor="start" x="803" y="-590" style="font-family:Arial;font-size:10.00;">S2Sim/TerraswarmLibrary</text>
<text text-anchor="middle" x="871" y="-577" style="font-family:Arial;font-size:10.00;">/NetworkByteAccessor.h</text>
</a>
</g>
<!-- Node1&#45;&gt;Node2 -->
<g id="edge2" class="edge"><title>Node1&#45;&gt;Node2</title>
<path style="fill:none;stroke:midnightblue;" d="M915,-632C906,-623 896,-613 888,-604"/>
<polygon style="fill:midnightblue;stroke:midnightblue;" points="912.781,-634.779 922,-640 918.049,-630.169 912.781,-634.779"/>
</g>
<!-- Node32 -->
<g id="node88" class="node"><title>Node32</title>
<a xlink:href="_terraswarm_library_2main_8cpp.html" target="_top" xlink:title="S2Sim/TerraswarmLibrary\l/main.cpp">
<polygon style="fill:white;stroke:black;" points="949,-500 949,-534 1102,-534 1102,-500 949,-500"/>
<text text-anchor="start" x="957" y="-520" style="font-family:Arial;font-size:10.00;">S2Sim/TerraswarmLibrary</text>
<text text-anchor="middle" x="1025" y="-507" style="font-family:Arial;font-size:10.00;">/main.cpp</text>
</a>
</g>
<!-- Node1&#45;&gt;Node32 -->
<g id="edge114" class="edge"><title>Node1&#45;&gt;Node32</title>
<path style="fill:none;stroke:midnightblue;" d="M955,-631C973,-603 1000,-558 1014,-534"/>
<polygon style="fill:midnightblue;stroke:midnightblue;" points="951.797,-629.559 950,-640 957.916,-632.958 951.797,-629.559"/>
</g>
<!-- Node3 -->
<g id="node5" class="node"><title>Node3</title>
<a xlink:href="_message_header_8h.html" target="_top" xlink:title="S2Sim/TerraswarmLibrary\l/MessageHeader.h">
<polygon style="fill:white;stroke:black;" points="779,-500 779,-534 932,-534 932,-500 779,-500"/>
<text text-anchor="start" x="787" y="-520" style="font-family:Arial;font-size:10.00;">S2Sim/TerraswarmLibrary</text>
<text text-anchor="middle" x="855" y="-507" style="font-family:Arial;font-size:10.00;">/MessageHeader.h</text>
</a>
</g>
<!-- Node2&#45;&gt;Node3 -->
<g id="edge4" class="edge"><title>Node2&#45;&gt;Node3</title>
<path style="fill:none;stroke:midnightblue;" d="M864,-560C862,-551 860,-542 859,-534"/>
<polygon style="fill:midnightblue;stroke:midnightblue;" points="860.774,-561.427 867,-570 867.479,-559.416 860.774,-561.427"/>
</g>
<!-- Node17 -->
<g id="node44" class="node"><title>Node17</title>
<a xlink:href="_message_ender_8h.html" target="_top" xlink:title="S2Sim/TerraswarmLibrary\l/MessageEnder.h">
<polygon style="fill:white;stroke:black;" points="637,-430 637,-464 790,-464 790,-430 637,-430"/>
<text text-anchor="start" x="645" y="-450" style="font-family:Arial;font-size:10.00;">S2Sim/TerraswarmLibrary</text>
<text text-anchor="middle" x="713" y="-437" style="font-family:Arial;font-size:10.00;">/MessageEnder.h</text>
</a>
</g>
<!-- Node2&#45;&gt;Node17 -->
<g id="edge110" class="edge"><title>Node2&#45;&gt;Node17</title>
<path style="fill:none;stroke:midnightblue;" d="M818,-566C802,-557 784,-547 770,-534 748,-513 731,-483 721,-464"/>
<polygon style="fill:midnightblue;stroke:midnightblue;" points="816.44,-569.137 827,-570 819.283,-562.74 816.44,-569.137"/>
</g>
<!-- Node2&#45;&gt;Node32 -->
<g id="edge112" class="edge"><title>Node2&#45;&gt;Node32</title>
<path style="fill:none;stroke:midnightblue;" d="M918,-566C940,-556 966,-544 987,-534"/>
<polygon style="fill:midnightblue;stroke:midnightblue;" points="916.717,-562.74 909,-570 919.56,-569.137 916.717,-562.74"/>
</g>
<!-- Node4 -->
<g id="node7" class="node"><title>Node4</title>
<a xlink:href="_client_manager_8h.html" target="_top" xlink:title="S2Sim/ClientManager.h">
<polygon style="fill:white;stroke:black;" points="761,-296 761,-317 904,-317 904,-296 761,-296"/>
<text text-anchor="middle" x="832" y="-303" style="font-family:Arial;font-size:10.00;">S2Sim/ClientManager.h</text>
</a>
</g>
<!-- Node3&#45;&gt;Node4 -->
<g id="edge6" class="edge"><title>Node3&#45;&gt;Node4</title>
<path style="fill:none;stroke:midnightblue;" d="M865,-490C876,-458 890,-403 874,-360 869,-343 854,-327 844,-317"/>
<polygon style="fill:midnightblue;stroke:midnightblue;" points="861.521,-489.416 862,-500 868.226,-491.427 861.521,-489.416"/>
</g>
<!-- Node15 -->
<g id="node39" class="node"><title>Node15</title>
<a xlink:href="_client_connection_request_8h.html" target="_top" xlink:title="S2Sim/TerraswarmLibrary\l/ClientConnectionRequest.h">
<polygon style="fill:white;stroke:black;" points="1261,-360 1261,-394 1429,-394 1429,-360 1261,-360"/>
<text text-anchor="start" x="1269" y="-380" style="font-family:Arial;font-size:10.00;">S2Sim/TerraswarmLibrary</text>
<text text-anchor="middle" x="1345" y="-367" style="font-family:Arial;font-size:10.00;">/ClientConnectionRequest.h</text>
</a>
</g>
<!-- Node3&#45;&gt;Node15 -->
<g id="edge48" class="edge"><title>Node3&#45;&gt;Node15</title>
<path style="fill:none;stroke:midnightblue;" d="M942,-500C1026,-483 1050,-487 1129,-464 1194,-444 1266,-413 1308,-394"/>
<polygon style="fill:midnightblue;stroke:midnightblue;" points="941.119,-496.607 932,-502 942.492,-503.471 941.119,-496.607"/>
</g>
<!-- Node3&#45;&gt;Node17 -->
<g id="edge54" class="edge"><title>Node3&#45;&gt;Node17</title>
<path style="fill:none;stroke:midnightblue;" d="M811,-495C791,-485 767,-474 748,-464"/>
<polygon style="fill:midnightblue;stroke:midnightblue;" points="809.559,-498.203 820,-500 812.958,-492.084 809.559,-498.203"/>
</g>
<!-- Node18 -->
<g id="node47" class="node"><title>Node18</title>
<a xlink:href="_client_connection_response_8h.html" target="_top" xlink:title="S2Sim/TerraswarmLibrary\l/ClientConnectionResponse.h">
<polygon style="fill:white;stroke:black;" points="9,-360 9,-394 185,-394 185,-360 9,-360"/>
<text text-anchor="start" x="17" y="-380" style="font-family:Arial;font-size:10.00;">S2Sim/TerraswarmLibrary</text>
<text text-anchor="middle" x="97" y="-367" style="font-family:Arial;font-size:10.00;">/ClientConnectionResponse.h</text>
</a>
</g>
<!-- Node3&#45;&gt;Node18 -->
<g id="edge96" class="edge"><title>Node3&#45;&gt;Node18</title>
<path style="fill:none;stroke:midnightblue;" d="M769,-506C695,-497 586,-481 491,-464 377,-443 246,-413 168,-394"/>
<polygon style="fill:midnightblue;stroke:midnightblue;" points="768.701,-509.488 779,-507 769.398,-502.522 768.701,-509.488"/>
</g>
<!-- Node20 -->
<g id="node52" class="node"><title>Node20</title>
<a xlink:href="_client_data_8h.html" target="_top" xlink:title="S2Sim/TerraswarmLibrary\l/ClientData.h">
<polygon style="fill:white;stroke:black;" points="203,-360 203,-394 356,-394 356,-360 203,-360"/>
<text text-anchor="start" x="211" y="-380" style="font-family:Arial;font-size:10.00;">S2Sim/TerraswarmLibrary</text>
<text text-anchor="middle" x="279" y="-367" style="font-family:Arial;font-size:10.00;">/ClientData.h</text>
</a>
</g>
<!-- Node3&#45;&gt;Node20 -->
<g id="edge98" class="edge"><title>Node3&#45;&gt;Node20</title>
<path style="fill:none;stroke:midnightblue;" d="M771,-498C729,-488 675,-475 628,-464 530,-440 417,-412 347,-394"/>
<polygon style="fill:midnightblue;stroke:midnightblue;" points="770.508,-501.471 781,-500 771.881,-494.607 770.508,-501.471"/>
</g>
<!-- Node22 -->
<g id="node57" class="node"><title>Node22</title>
<a xlink:href="_demand_negotiation_8h.html" target="_top" xlink:title="S2Sim/TerraswarmLibrary\l/DemandNegotiation.h">
<polygon style="fill:white;stroke:black;" points="543,-360 543,-394 696,-394 696,-360 543,-360"/>
<text text-anchor="start" x="551" y="-380" style="font-family:Arial;font-size:10.00;">S2Sim/TerraswarmLibrary</text>
<text text-anchor="middle" x="619" y="-367" style="font-family:Arial;font-size:10.00;">/DemandNegotiation.h</text>
</a>
</g>
<!-- Node3&#45;&gt;Node22 -->
<g id="edge100" class="edge"><title>Node3&#45;&gt;Node22</title>
<path style="fill:none;stroke:midnightblue;" d="M844,-491C835,-471 819,-445 798,-430 781,-417 736,-404 696,-394"/>
<polygon style="fill:midnightblue;stroke:midnightblue;" points="840.74,-492.283 848,-500 847.137,-489.44 840.74,-492.283"/>
</g>
<!-- Node24 -->
<g id="node62" class="node"><title>Node24</title>
<a xlink:href="_get_price_8h.html" target="_top" xlink:title="S2Sim/TerraswarmLibrary\l/GetPrice.h">
<polygon style="fill:white;stroke:black;" points="713,-360 713,-394 866,-394 866,-360 713,-360"/>
<text text-anchor="start" x="721" y="-380" style="font-family:Arial;font-size:10.00;">S2Sim/TerraswarmLibrary</text>
<text text-anchor="middle" x="789" y="-367" style="font-family:Arial;font-size:10.00;">/GetPrice.h</text>
</a>
</g>
<!-- Node3&#45;&gt;Node24 -->
<g id="edge102" class="edge"><title>Node3&#45;&gt;Node24</title>
<path style="fill:none;stroke:midnightblue;" d="M851,-490C848,-472 841,-448 831,-430 825,-417 815,-404 806,-394"/>
<polygon style="fill:midnightblue;stroke:midnightblue;" points="847.607,-490.881 853,-500 854.471,-489.508 847.607,-490.881"/>
</g>
<!-- Node27 -->
<g id="node69" class="node"><title>Node27</title>
<a xlink:href="_price_proposal_8h.html" target="_top" xlink:title="S2Sim/TerraswarmLibrary\l/PriceProposal.h">
<polygon style="fill:white;stroke:black;" points="921,-360 921,-394 1074,-394 1074,-360 921,-360"/>
<text text-anchor="start" x="929" y="-380" style="font-family:Arial;font-size:10.00;">S2Sim/TerraswarmLibrary</text>
<text text-anchor="middle" x="997" y="-367" style="font-family:Arial;font-size:10.00;">/PriceProposal.h</text>
</a>
</g>
<!-- Node3&#45;&gt;Node27 -->
<g id="edge106" class="edge"><title>Node3&#45;&gt;Node27</title>
<path style="fill:none;stroke:midnightblue;" d="M942,-499C1004,-486 1077,-470 1082,-464 1092,-452 1090,-443 1082,-430 1073,-414 1058,-402 1042,-394"/>
<polygon style="fill:midnightblue;stroke:midnightblue;" points="941.119,-495.607 932,-501 942.492,-502.471 941.119,-495.607"/>
</g>
<!-- Node29 -->
<g id="node74" class="node"><title>Node29</title>
<a xlink:href="_set_current_price_8h.html" target="_top" xlink:title="S2Sim/TerraswarmLibrary\l/SetCurrentPrice.h">
<polygon style="fill:white;stroke:black;" points="1091,-360 1091,-394 1244,-394 1244,-360 1091,-360"/>
<text text-anchor="start" x="1099" y="-380" style="font-family:Arial;font-size:10.00;">S2Sim/TerraswarmLibrary</text>
<text text-anchor="middle" x="1167" y="-367" style="font-family:Arial;font-size:10.00;">/SetCurrentPrice.h</text>
</a>
</g>
<!-- Node3&#45;&gt;Node29 -->
<g id="edge108" class="edge"><title>Node3&#45;&gt;Node29</title>
<path style="fill:none;stroke:midnightblue;" d="M942,-499C1009,-485 1092,-468 1099,-464 1127,-446 1147,-414 1158,-394"/>
<polygon style="fill:midnightblue;stroke:midnightblue;" points="941.119,-495.607 932,-501 942.492,-502.471 941.119,-495.607"/>
</g>
<!-- Node31 -->
<g id="node83" class="node"><title>Node31</title>
<a xlink:href="_message_header_8cpp.html" target="_top" xlink:title="S2Sim/TerraswarmLibrary\l/MessageHeader.cpp">
<polygon style="fill:white;stroke:black;" points="921,-430 921,-464 1074,-464 1074,-430 921,-430"/>
<text text-anchor="start" x="929" y="-450" style="font-family:Arial;font-size:10.00;">S2Sim/TerraswarmLibrary</text>
<text text-anchor="middle" x="997" y="-437" style="font-family:Arial;font-size:10.00;">/MessageHeader.cpp</text>
</a>
</g>
<!-- Node3&#45;&gt;Node31 -->
<g id="edge104" class="edge"><title>Node3&#45;&gt;Node31</title>
<path style="fill:none;stroke:midnightblue;" d="M899,-495C919,-485 943,-474 962,-464"/>
<polygon style="fill:midnightblue;stroke:midnightblue;" points="897.042,-492.084 890,-500 900.441,-498.203 897.042,-492.084"/>
</g>
<!-- Node5 -->
<g id="node9" class="node"><title>Node5</title>
<a xlink:href="_client_manager_8cpp.html" target="_top" xlink:title="S2Sim/ClientManager.cpp">
<polygon style="fill:white;stroke:black;" points="456,-232 456,-253 612,-253 612,-232 456,-232"/>
<text text-anchor="middle" x="534" y="-239" style="font-family:Arial;font-size:10.00;">S2Sim/ClientManager.cpp</text>
</a>
</g>
<!-- Node4&#45;&gt;Node5 -->
<g id="edge8" class="edge"><title>Node4&#45;&gt;Node5</title>
<path style="fill:none;stroke:midnightblue;" d="M771,-294C715,-282 632,-264 581,-253"/>
<polygon style="fill:midnightblue;stroke:midnightblue;" points="770.508,-297.471 781,-296 771.881,-290.607 770.508,-297.471"/>
</g>
<!-- Node6 -->
<g id="node11" class="node"><title>Node6</title>
<a xlink:href="_connection_manager_8h.html" target="_top" xlink:title="S2Sim/ConnectionManager.h">
<polygon style="fill:white;stroke:black;" points="630,-232 630,-253 804,-253 804,-232 630,-232"/>
<text text-anchor="middle" x="717" y="-239" style="font-family:Arial;font-size:10.00;">S2Sim/ConnectionManager.h</text>
</a>
</g>
<!-- Node4&#45;&gt;Node6 -->
<g id="edge10" class="edge"><title>Node4&#45;&gt;Node6</title>
<path style="fill:none;stroke:midnightblue;" d="M798,-291C775,-280 747,-264 730,-253"/>
<polygon style="fill:midnightblue;stroke:midnightblue;" points="796.559,-294.203 807,-296 799.958,-288.084 796.559,-294.203"/>
</g>
<!-- Node7 -->
<g id="node14" class="node"><title>Node7</title>
<a xlink:href="_control_manager_8h.html" target="_top" xlink:title="S2Sim/ControlManager.h">
<polygon style="fill:white;stroke:black;" points="692,-174 692,-195 843,-195 843,-174 692,-174"/>
<text text-anchor="middle" x="767" y="-181" style="font-family:Arial;font-size:10.00;">S2Sim/ControlManager.h</text>
</a>
</g>
<!-- Node4&#45;&gt;Node7 -->
<g id="edge46" class="edge"><title>Node4&#45;&gt;Node7</title>
<path style="fill:none;stroke:midnightblue;" d="M830,-286C827,-270 823,-248 813,-232 805,-217 791,-204 780,-195"/>
<polygon style="fill:midnightblue;stroke:midnightblue;" points="826.522,-286.398 831,-296 833.488,-285.701 826.522,-286.398"/>
</g>
<!-- Node8 -->
<g id="node16" class="node"><title>Node8</title>
<a xlink:href="_system_manager_8h.html" target="_top" xlink:title="S2Sim/SystemManager.h">
<polygon style="fill:white;stroke:black;" points="804,-116 804,-137 955,-137 955,-116 804,-116"/>
<text text-anchor="middle" x="879" y="-123" style="font-family:Arial;font-size:10.00;">S2Sim/SystemManager.h</text>
</a>
</g>
<!-- Node4&#45;&gt;Node8 -->
<g id="edge44" class="edge"><title>Node4&#45;&gt;Node8</title>
<path style="fill:none;stroke:midnightblue;" d="M833,-286C839,-247 861,-166 873,-137"/>
<polygon style="fill:midnightblue;stroke:midnightblue;" points="829.529,-285.508 831,-296 836.393,-286.881 829.529,-285.508"/>
</g>
<!-- Node6&#45;&gt;Node4 -->
<g id="edge12" class="edge"><title>Node6&#45;&gt;Node4</title>
<path style="fill:none;stroke:midnightblue;" d="M749,-258C771,-270 799,-286 817,-296"/>
<polygon style="fill:midnightblue;stroke:midnightblue;" points="750.441,-254.797 740,-253 747.042,-260.916 750.441,-254.797"/>
</g>
<!-- Node6&#45;&gt;Node7 -->
<g id="edge14" class="edge"><title>Node6&#45;&gt;Node7</title>
<path style="fill:none;stroke:midnightblue;" d="M734,-224C742,-214 752,-203 758,-195"/>
<polygon style="fill:midnightblue;stroke:midnightblue;" points="730.951,-222.169 727,-232 736.219,-226.779 730.951,-222.169"/>
</g>
<!-- Node10 -->
<g id="node23" class="node"><title>Node10</title>
<a xlink:href="main_8cpp.html" target="_top" xlink:title="S2Sim/main.cpp">
<polygon style="fill:white;stroke:black;" points="504,-0 504,-21 608,-21 608,-0 504,-0"/>
<text text-anchor="middle" x="556" y="-7" style="font-family:Arial;font-size:10.00;">S2Sim/main.cpp</text>
</a>
</g>
<!-- Node6&#45;&gt;Node10 -->
<g id="edge42" class="edge"><title>Node6&#45;&gt;Node10</title>
<path style="fill:none;stroke:midnightblue;" d="M627,-230C564,-221 489,-207 479,-196 433,-139 514,-51 545,-21"/>
<polygon style="fill:midnightblue;stroke:midnightblue;" points="626.508,-233.471 637,-232 627.881,-226.607 626.508,-233.471"/>
</g>
<!-- Node14 -->
<g id="node34" class="node"><title>Node14</title>
<a xlink:href="_connection_manager_8cpp.html" target="_top" xlink:title="S2Sim/ConnectionManager.cpp">
<polygon style="fill:white;stroke:black;" points="488,-174 488,-195 675,-195 675,-174 488,-174"/>
<text text-anchor="middle" x="581" y="-181" style="font-family:Arial;font-size:10.00;">S2Sim/ConnectionManager.cpp</text>
</a>
</g>
<!-- Node6&#45;&gt;Node14 -->
<g id="edge40" class="edge"><title>Node6&#45;&gt;Node14</title>
<path style="fill:none;stroke:midnightblue;" d="M682,-228C658,-217 626,-204 605,-195"/>
<polygon style="fill:midnightblue;stroke:midnightblue;" points="680.44,-231.137 691,-232 683.283,-224.74 680.44,-231.137"/>
</g>
<!-- Node7&#45;&gt;Node8 -->
<g id="edge16" class="edge"><title>Node7&#45;&gt;Node8</title>
<path style="fill:none;stroke:midnightblue;" d="M792,-169C811,-159 836,-146 855,-137"/>
<polygon style="fill:midnightblue;stroke:midnightblue;" points="790.042,-166.084 783,-174 793.441,-172.203 790.042,-166.084"/>
</g>
<!-- Node7&#45;&gt;Node10 -->
<g id="edge38" class="edge"><title>Node7&#45;&gt;Node10</title>
<path style="fill:none;stroke:midnightblue;" d="M701,-172C663,-163 621,-151 606,-138 571,-106 560,-45 557,-21"/>
<polygon style="fill:midnightblue;stroke:midnightblue;" points="700.508,-175.471 711,-174 701.881,-168.607 700.508,-175.471"/>
</g>
<!-- Node13 -->
<g id="node31" class="node"><title>Node13</title>
<a xlink:href="_control_manager_8cpp.html" target="_top" xlink:title="S2Sim/ControlManager.cpp">
<polygon style="fill:white;stroke:black;" points="622,-116 622,-137 786,-137 786,-116 622,-116"/>
<text text-anchor="middle" x="704" y="-123" style="font-family:Arial;font-size:10.00;">S2Sim/ControlManager.cpp</text>
</a>
</g>
<!-- Node7&#45;&gt;Node13 -->
<g id="edge36" class="edge"><title>Node7&#45;&gt;Node13</title>
<path style="fill:none;stroke:midnightblue;" d="M748,-167C737,-157 724,-145 715,-137"/>
<polygon style="fill:midnightblue;stroke:midnightblue;" points="745.454,-169.404 755,-174 750.404,-164.454 745.454,-169.404"/>
</g>
<!-- Node8&#45;&gt;Node4 -->
<g id="edge32" class="edge"><title>Node8&#45;&gt;Node4</title>
<path style="fill:none;stroke:midnightblue;" d="M878,-147C872,-185 850,-266 838,-296"/>
<polygon style="fill:midnightblue;stroke:midnightblue;" points="881.471,-147.492 880,-137 874.607,-146.119 881.471,-147.492"/>
</g>
<!-- Node8&#45;&gt;Node7 -->
<g id="edge30" class="edge"><title>Node8&#45;&gt;Node7</title>
<path style="fill:none;stroke:midnightblue;" d="M856,-142C838,-152 813,-165 794,-174"/>
<polygon style="fill:midnightblue;stroke:midnightblue;" points="857.958,-144.916 865,-137 854.559,-138.797 857.958,-144.916"/>
</g>
<!-- Node9 -->
<g id="node18" class="node"><title>Node9</title>
<a xlink:href="_matlab_manager_8h.html" target="_top" xlink:title="S2Sim/MatlabManager.h">
<polygon style="fill:white;stroke:black;" points="805,-58 805,-79 953,-79 953,-58 805,-58"/>
<text text-anchor="middle" x="879" y="-65" style="font-family:Arial;font-size:10.00;">S2Sim/MatlabManager.h</text>
</a>
</g>
<!-- Node8&#45;&gt;Node9 -->
<g id="edge18" class="edge"><title>Node8&#45;&gt;Node9</title>
<path style="fill:none;stroke:midnightblue;" d="M873,-106C872,-96 873,-86 874,-79"/>
<polygon style="fill:midnightblue;stroke:midnightblue;" points="869.522,-106.398 874,-116 876.488,-105.701 869.522,-106.398"/>
</g>
<!-- Node12 -->
<g id="node29" class="node"><title>Node12</title>
<a xlink:href="_system_manager_8cpp.html" target="_top" xlink:title="S2Sim/SystemManager.cpp">
<polygon style="fill:white;stroke:black;" points="623,-58 623,-79 787,-79 787,-58 623,-58"/>
<text text-anchor="middle" x="705" y="-65" style="font-family:Arial;font-size:10.00;">S2Sim/SystemManager.cpp</text>
</a>
</g>
<!-- Node8&#45;&gt;Node12 -->
<g id="edge34" class="edge"><title>Node8&#45;&gt;Node12</title>
<path style="fill:none;stroke:midnightblue;" d="M836,-113C805,-102 763,-88 735,-79"/>
<polygon style="fill:midnightblue;stroke:midnightblue;" points="835.416,-116.479 846,-116 837.427,-109.774 835.416,-116.479"/>
</g>
<!-- Node9&#45;&gt;Node4 -->
<g id="edge20" class="edge"><title>Node9&#45;&gt;Node4</title>
<path style="fill:none;stroke:midnightblue;" d="M923,-83C939,-90 955,-101 963,-116 968,-124 967,-128 963,-138 940,-207 873,-271 845,-296"/>
<polygon style="fill:midnightblue;stroke:midnightblue;" points="924.56,-79.8631 914,-79 921.717,-86.2598 924.56,-79.8631"/>
</g>
<!-- Node9&#45;&gt;Node7 -->
<g id="edge24" class="edge"><title>Node9&#45;&gt;Node7</title>
<path style="fill:none;stroke:midnightblue;" d="M799,-80C723,-92 620,-108 613,-116 607,-123 608,-130 613,-138 625,-153 669,-166 707,-174"/>
<polygon style="fill:midnightblue;stroke:midnightblue;" points="799.398,-83.4778 809,-79 798.701,-76.5125 799.398,-83.4778"/>
</g>
<!-- Node9&#45;&gt;Node8 -->
<g id="edge22" class="edge"><title>Node9&#45;&gt;Node8</title>
<path style="fill:none;stroke:midnightblue;" d="M885,-89C886,-98 885,-108 884,-116"/>
<polygon style="fill:midnightblue;stroke:midnightblue;" points="888.478,-88.6021 884,-79 881.512,-89.2987 888.478,-88.6021"/>
</g>
<!-- Node9&#45;&gt;Node10 -->
<g id="edge26" class="edge"><title>Node9&#45;&gt;Node10</title>
<path style="fill:none;stroke:midnightblue;" d="M807,-56C747,-45 662,-30 608,-20"/>
<polygon style="fill:midnightblue;stroke:midnightblue;" points="806.508,-59.4708 817,-58 807.881,-52.6067 806.508,-59.4708"/>
</g>
<!-- Node11 -->
<g id="node25" class="node"><title>Node11</title>
<a xlink:href="_matlab_manager_8cpp.html" target="_top" xlink:title="S2Sim/MatlabManager.cpp">
<polygon style="fill:white;stroke:black;" points="799,-0 799,-21 960,-21 960,-0 799,-0"/>
<text text-anchor="middle" x="879" y="-7" style="font-family:Arial;font-size:10.00;">S2Sim/MatlabManager.cpp</text>
</a>
</g>
<!-- Node9&#45;&gt;Node11 -->
<g id="edge28" class="edge"><title>Node9&#45;&gt;Node11</title>
<path style="fill:none;stroke:midnightblue;" d="M879,-48C879,-38 879,-28 879,-21"/>
<polygon style="fill:midnightblue;stroke:midnightblue;" points="875.5,-48 879,-58 882.5,-48 875.5,-48"/>
</g>
<!-- Node15&#45;&gt;Node4 -->
<g id="edge50" class="edge"><title>Node15&#45;&gt;Node4</title>
<path style="fill:none;stroke:midnightblue;" d="M1251,-360C1100,-338 1060,-347 912,-324 901,-322 888,-320 876,-317"/>
<polygon style="fill:midnightblue;stroke:midnightblue;" points="1250.7,-363.488 1261,-361 1251.4,-356.522 1250.7,-363.488"/>
</g>
<!-- Node16 -->
<g id="node42" class="node"><title>Node16</title>
<a xlink:href="_client_connection_request_8cpp.html" target="_top" xlink:title="S2Sim/TerraswarmLibrary\l/ClientConnectionRequest.cpp">
<polygon style="fill:white;stroke:black;" points="1261,-290 1261,-324 1442,-324 1442,-290 1261,-290"/>
<text text-anchor="start" x="1269" y="-310" style="font-family:Arial;font-size:10.00;">S2Sim/TerraswarmLibrary</text>
<text text-anchor="middle" x="1351" y="-297" style="font-family:Arial;font-size:10.00;">/ClientConnectionRequest.cpp</text>
</a>
</g>
<!-- Node15&#45;&gt;Node16 -->
<g id="edge52" class="edge"><title>Node15&#45;&gt;Node16</title>
<path style="fill:none;stroke:midnightblue;" d="M1347,-350C1348,-341 1348,-332 1349,-324"/>
<polygon style="fill:midnightblue;stroke:midnightblue;" points="1343.51,-349.701 1346,-360 1350.48,-350.398 1343.51,-349.701"/>
</g>
<!-- Node17&#45;&gt;Node15 -->
<g id="edge56" class="edge"><title>Node17&#45;&gt;Node15</title>
<path style="fill:none;stroke:midnightblue;" d="M800,-439C930,-428 1167,-406 1252,-394 1255,-394 1258,-393 1261,-393"/>
<polygon style="fill:midnightblue;stroke:midnightblue;" points="799.602,-435.522 790,-440 800.299,-442.488 799.602,-435.522"/>
</g>
<!-- Node17&#45;&gt;Node18 -->
<g id="edge58" class="edge"><title>Node17&#45;&gt;Node18</title>
<path style="fill:none;stroke:midnightblue;" d="M627,-440C523,-431 346,-414 194,-394 191,-394 188,-393 185,-393"/>
<polygon style="fill:midnightblue;stroke:midnightblue;" points="626.701,-443.488 637,-441 627.398,-436.522 626.701,-443.488"/>
</g>
<!-- Node17&#45;&gt;Node20 -->
<g id="edge64" class="edge"><title>Node17&#45;&gt;Node20</title>
<path style="fill:none;stroke:midnightblue;" d="M627,-435C556,-425 454,-409 364,-394 361,-394 359,-393 356,-392"/>
<polygon style="fill:midnightblue;stroke:midnightblue;" points="626.701,-438.488 637,-436 627.398,-431.522 626.701,-438.488"/>
</g>
<!-- Node17&#45;&gt;Node22 -->
<g id="edge70" class="edge"><title>Node17&#45;&gt;Node22</title>
<path style="fill:none;stroke:midnightblue;" d="M682,-424C669,-414 654,-403 642,-394"/>
<polygon style="fill:midnightblue;stroke:midnightblue;" points="679.9,-426.8 690,-430 684.1,-421.2 679.9,-426.8"/>
</g>
<!-- Node17&#45;&gt;Node24 -->
<g id="edge76" class="edge"><title>Node17&#45;&gt;Node24</title>
<path style="fill:none;stroke:midnightblue;" d="M740,-423C750,-413 761,-403 770,-394"/>
<polygon style="fill:midnightblue;stroke:midnightblue;" points="737.221,-420.781 732,-430 741.831,-426.049 737.221,-420.781"/>
</g>
<!-- Node26 -->
<g id="node67" class="node"><title>Node26</title>
<a xlink:href="_message_ender_8cpp.html" target="_top" xlink:title="S2Sim/TerraswarmLibrary\l/MessageEnder.cpp">
<polygon style="fill:white;stroke:black;" points="373,-360 373,-394 526,-394 526,-360 373,-360"/>
<text text-anchor="start" x="381" y="-380" style="font-family:Arial;font-size:10.00;">S2Sim/TerraswarmLibrary</text>
<text text-anchor="middle" x="449" y="-367" style="font-family:Arial;font-size:10.00;">/MessageEnder.cpp</text>
</a>
</g>
<!-- Node17&#45;&gt;Node26 -->
<g id="edge82" class="edge"><title>Node17&#45;&gt;Node26</title>
<path style="fill:none;stroke:midnightblue;" d="M639,-427C600,-417 552,-404 514,-394"/>
<polygon style="fill:midnightblue;stroke:midnightblue;" points="638.416,-430.479 649,-430 640.427,-423.774 638.416,-430.479"/>
</g>
<!-- Node17&#45;&gt;Node27 -->
<g id="edge84" class="edge"><title>Node17&#45;&gt;Node27</title>
<path style="fill:none;stroke:midnightblue;" d="M792,-428C834,-417 886,-404 928,-394"/>
<polygon style="fill:midnightblue;stroke:midnightblue;" points="791.119,-424.607 782,-430 792.492,-431.471 791.119,-424.607"/>
</g>
<!-- Node17&#45;&gt;Node29 -->
<g id="edge90" class="edge"><title>Node17&#45;&gt;Node29</title>
<path style="fill:none;stroke:midnightblue;" d="M800,-436C875,-426 986,-410 1082,-394 1085,-393 1088,-393 1091,-392"/>
<polygon style="fill:midnightblue;stroke:midnightblue;" points="799.602,-432.522 790,-437 800.299,-439.488 799.602,-432.522"/>
</g>
<!-- Node18&#45;&gt;Node4 -->
<g id="edge60" class="edge"><title>Node18&#45;&gt;Node4</title>
<path style="fill:none;stroke:midnightblue;" d="M195,-360C443,-331 509,-357 752,-324 765,-322 778,-320 791,-317"/>
<polygon style="fill:midnightblue;stroke:midnightblue;" points="194.602,-356.522 185,-361 195.299,-363.488 194.602,-356.522"/>
</g>
<!-- Node19 -->
<g id="node50" class="node"><title>Node19</title>
<a xlink:href="_client_connection_response_8cpp.html" target="_top" xlink:title="S2Sim/TerraswarmLibrary\l/ClientConnectionResponse.cpp">
<polygon style="fill:white;stroke:black;" points="0,-290 0,-324 189,-324 189,-290 0,-290"/>
<text text-anchor="start" x="8" y="-310" style="font-family:Arial;font-size:10.00;">S2Sim/TerraswarmLibrary</text>
<text text-anchor="middle" x="94" y="-297" style="font-family:Arial;font-size:10.00;">/ClientConnectionResponse.cpp</text>
</a>
</g>
<!-- Node18&#45;&gt;Node19 -->
<g id="edge62" class="edge"><title>Node18&#45;&gt;Node19</title>
<path style="fill:none;stroke:midnightblue;" d="M95,-350C95,-341 95,-332 95,-324"/>
<polygon style="fill:midnightblue;stroke:midnightblue;" points="91.5222,-350.398 96,-360 98.4875,-349.701 91.5222,-350.398"/>
</g>
<!-- Node20&#45;&gt;Node4 -->
<g id="edge66" class="edge"><title>Node20&#45;&gt;Node4</title>
<path style="fill:none;stroke:midnightblue;" d="M366,-360C538,-335 584,-350 752,-324 764,-322 776,-320 788,-317"/>
<polygon style="fill:midnightblue;stroke:midnightblue;" points="365.602,-356.522 356,-361 366.299,-363.488 365.602,-356.522"/>
</g>
<!-- Node21 -->
<g id="node55" class="node"><title>Node21</title>
<a xlink:href="_client_data_8cpp.html" target="_top" xlink:title="S2Sim/TerraswarmLibrary\l/ClientData.cpp">
<polygon style="fill:white;stroke:black;" points="206,-290 206,-324 359,-324 359,-290 206,-290"/>
<text text-anchor="start" x="214" y="-310" style="font-family:Arial;font-size:10.00;">S2Sim/TerraswarmLibrary</text>
<text text-anchor="middle" x="282" y="-297" style="font-family:Arial;font-size:10.00;">/ClientData.cpp</text>
</a>
</g>
<!-- Node20&#45;&gt;Node21 -->
<g id="edge68" class="edge"><title>Node20&#45;&gt;Node21</title>
<path style="fill:none;stroke:midnightblue;" d="M281,-350C281,-341 281,-332 281,-324"/>
<polygon style="fill:midnightblue;stroke:midnightblue;" points="277.512,-349.701 280,-360 284.478,-350.398 277.512,-349.701"/>
</g>
<!-- Node22&#45;&gt;Node4 -->
<g id="edge72" class="edge"><title>Node22&#45;&gt;Node4</title>
<path style="fill:none;stroke:midnightblue;" d="M681,-357C720,-343 770,-327 801,-317"/>
<polygon style="fill:midnightblue;stroke:midnightblue;" points="679.573,-353.774 671,-360 681.584,-360.479 679.573,-353.774"/>
</g>
<!-- Node23 -->
<g id="node60" class="node"><title>Node23</title>
<a xlink:href="_demand_negotiation_8cpp.html" target="_top" xlink:title="S2Sim/TerraswarmLibrary\l/DemandNegotiation.cpp">
<polygon style="fill:white;stroke:black;" points="421,-290 421,-324 574,-324 574,-290 421,-290"/>
<text text-anchor="start" x="429" y="-310" style="font-family:Arial;font-size:10.00;">S2Sim/TerraswarmLibrary</text>
<text text-anchor="middle" x="497" y="-297" style="font-family:Arial;font-size:10.00;">/DemandNegotiation.cpp</text>
</a>
</g>
<!-- Node22&#45;&gt;Node23 -->
<g id="edge74" class="edge"><title>Node22&#45;&gt;Node23</title>
<path style="fill:none;stroke:midnightblue;" d="M580,-355C563,-345 543,-333 527,-324"/>
<polygon style="fill:midnightblue;stroke:midnightblue;" points="578.559,-358.203 589,-360 581.958,-352.084 578.559,-358.203"/>
</g>
<!-- Node24&#45;&gt;Node4 -->
<g id="edge78" class="edge"><title>Node24&#45;&gt;Node4</title>
<path style="fill:none;stroke:midnightblue;" d="M805,-351C812,-340 820,-326 826,-317"/>
<polygon style="fill:midnightblue;stroke:midnightblue;" points="801.797,-349.559 800,-360 807.916,-352.958 801.797,-349.559"/>
</g>
<!-- Node25 -->
<g id="node65" class="node"><title>Node25</title>
<a xlink:href="_get_price_8cpp.html" target="_top" xlink:title="S2Sim/TerraswarmLibrary\l/GetPrice.cpp">
<polygon style="fill:white;stroke:black;" points="591,-290 591,-324 744,-324 744,-290 591,-290"/>
<text text-anchor="start" x="599" y="-310" style="font-family:Arial;font-size:10.00;">S2Sim/TerraswarmLibrary</text>
<text text-anchor="middle" x="667" y="-297" style="font-family:Arial;font-size:10.00;">/GetPrice.cpp</text>
</a>
</g>
<!-- Node24&#45;&gt;Node25 -->
<g id="edge80" class="edge"><title>Node24&#45;&gt;Node25</title>
<path style="fill:none;stroke:midnightblue;" d="M750,-355C733,-345 713,-333 697,-324"/>
<polygon style="fill:midnightblue;stroke:midnightblue;" points="748.559,-358.203 759,-360 751.958,-352.084 748.559,-358.203"/>
</g>
<!-- Node27&#45;&gt;Node4 -->
<g id="edge86" class="edge"><title>Node27&#45;&gt;Node4</title>
<path style="fill:none;stroke:midnightblue;" d="M948,-356C917,-343 880,-327 856,-317"/>
<polygon style="fill:midnightblue;stroke:midnightblue;" points="946.44,-359.137 957,-360 949.283,-352.74 946.44,-359.137"/>
</g>
<!-- Node28 -->
<g id="node72" class="node"><title>Node28</title>
<a xlink:href="_price_proposal_8cpp.html" target="_top" xlink:title="S2Sim/TerraswarmLibrary\l/PriceProposal.cpp">
<polygon style="fill:white;stroke:black;" points="921,-290 921,-324 1074,-324 1074,-290 921,-290"/>
<text text-anchor="start" x="929" y="-310" style="font-family:Arial;font-size:10.00;">S2Sim/TerraswarmLibrary</text>
<text text-anchor="middle" x="997" y="-297" style="font-family:Arial;font-size:10.00;">/PriceProposal.cpp</text>
</a>
</g>
<!-- Node27&#45;&gt;Node28 -->
<g id="edge88" class="edge"><title>Node27&#45;&gt;Node28</title>
<path style="fill:none;stroke:midnightblue;" d="M997,-350C997,-341 997,-332 997,-324"/>
<polygon style="fill:midnightblue;stroke:midnightblue;" points="993.5,-350 997,-360 1000.5,-350 993.5,-350"/>
</g>
<!-- Node29&#45;&gt;Node4 -->
<g id="edge92" class="edge"><title>Node29&#45;&gt;Node4</title>
<path style="fill:none;stroke:midnightblue;" d="M1081,-359C1031,-348 968,-335 912,-324 902,-322 891,-319 880,-317"/>
<polygon style="fill:midnightblue;stroke:midnightblue;" points="1080.51,-362.471 1091,-361 1081.88,-355.607 1080.51,-362.471"/>
</g>
<!-- Node30 -->
<g id="node77" class="node"><title>Node30</title>
<a xlink:href="_set_current_price_8cpp.html" target="_top" xlink:title="S2Sim/TerraswarmLibrary\l/SetCurrentPrice.cpp">
<polygon style="fill:white;stroke:black;" points="1091,-290 1091,-324 1244,-324 1244,-290 1091,-290"/>
<text text-anchor="start" x="1099" y="-310" style="font-family:Arial;font-size:10.00;">S2Sim/TerraswarmLibrary</text>
<text text-anchor="middle" x="1167" y="-297" style="font-family:Arial;font-size:10.00;">/SetCurrentPrice.cpp</text>
</a>
</g>
<!-- Node29&#45;&gt;Node30 -->
<g id="edge94" class="edge"><title>Node29&#45;&gt;Node30</title>
<path style="fill:none;stroke:midnightblue;" d="M1167,-350C1167,-341 1167,-332 1167,-324"/>
<polygon style="fill:midnightblue;stroke:midnightblue;" points="1163.5,-350 1167,-360 1170.5,-350 1163.5,-350"/>
</g>
</g>
</svg>
