<?xml version="1.0" encoding="UTF-8" standalone="no"?>
<!DOCTYPE svg PUBLIC "-//W3C//DTD SVG 1.0//EN"
 "http://www.w3.org/TR/2001/REC-SVG-20010904/DTD/svg10.dtd" [
 <!ATTLIST svg xmlns:xlink CDATA #FIXED "http://www.w3.org/1999/xlink">
]>
<!-- Generated by Graphviz version 2.14.1 (Fri Nov  9 08:19:38 GMT 2007)
     For user: (asakyurek) Alper Sinan Akyurek -->
<!-- Title: ControlNotificationHandler Pages: 1 -->
<svg width="956pt" height="233pt"
 viewBox="0.00 0.00 956.00 233.00" xmlns="http://www.w3.org/2000/svg" xmlns:xlink="http://www.w3.org/1999/xlink">
<g id="graph0" class="graph" transform="scale(1 1) rotate(0) translate(4 229)">
<title>ControlNotificationHandler</title>
<polygon style="fill:white;stroke:white;" points="-4,4 -4,-229 952,-229 952,4 -4,4"/>
<!-- Node1 -->
<g id="node1" class="node"><title>Node1</title>
<polygon style="fill:#bfbfbf;stroke:black;" points="0,-144 0,-165 162,-165 162,-144 0,-144"/>
<text text-anchor="middle" x="81" y="-151" style="font-family:Arial;font-size:10.00;">ControlNotificationHandler</text>
</g>
<!-- Node2 -->
<g id="node3" class="node"><title>Node2</title>
<a xlink:href="_log_print_8h.html#a7e0c5f42cad5bc3a44134fb9c9a7a052" target="_top" xlink:title="LogPrint">
<polygon style="fill:white;stroke:black;" points="856,-113 856,-134 916,-134 916,-113 856,-113"/>
<text text-anchor="middle" x="886" y="-120" style="font-family:Arial;font-size:10.00;">LogPrint</text>
</a>
</g>
<!-- Node1&#45;&gt;Node2 -->
<g id="edge2" class="edge"><title>Node1&#45;&gt;Node2</title>
<path style="fill:none;stroke:midnightblue;" d="M135,-165C255,-185 550,-225 788,-171 815,-165 843,-151 862,-139"/>
<polygon style="fill:midnightblue;stroke:midnightblue;" points="863.958,-141.916 871,-134 860.559,-135.797 863.958,-141.916"/>
</g>
<!-- Node3 -->
<g id="node5" class="node"><title>Node3</title>
<a xlink:href="_control_manager_8cpp.html#a63bfd4667c9c70297f25ae5e5176818e" target="_top" xlink:title="GetControlManager">
<polygon style="fill:white;stroke:black;" points="639,-141 639,-162 762,-162 762,-141 639,-141"/>
<text text-anchor="middle" x="700" y="-148" style="font-family:Arial;font-size:10.00;">GetControlManager</text>
</a>
</g>
<!-- Node1&#45;&gt;Node3 -->
<g id="edge4" class="edge"><title>Node1&#45;&gt;Node3</title>
<path style="fill:none;stroke:midnightblue;" d="M162,-155C284,-154 512,-153 629,-152"/>
<polygon style="fill:midnightblue;stroke:midnightblue;" points="629,-155.5 639,-152 629,-148.5 629,-155.5"/>
</g>
<!-- Node4 -->
<g id="node7" class="node"><title>Node4</title>
<a xlink:href="class_control_manager.html#a67d548535b36a78e315a0aa5f9f8e6c8" target="_top" xlink:title="ControlManager::SetClient">
<polygon style="fill:white;stroke:black;" points="198,-99 198,-120 358,-120 358,-99 198,-99"/>
<text text-anchor="middle" x="278" y="-106" style="font-family:Arial;font-size:10.00;">ControlManager::SetClient</text>
</a>
</g>
<!-- Node1&#45;&gt;Node4 -->
<g id="edge6" class="edge"><title>Node1&#45;&gt;Node4</title>
<path style="fill:none;stroke:midnightblue;" d="M129,-144C159,-138 196,-129 225,-122"/>
<polygon style="fill:midnightblue;stroke:midnightblue;" points="225.881,-125.393 235,-120 224.508,-118.529 225.881,-125.393"/>
</g>
<!-- Node5 -->
<g id="node9" class="node"><title>Node5</title>
<a xlink:href="class_threaded_t_c_p_connected_client.html#ae8f981925319c228443e0ef78ef0ae67" target="_top" xlink:title="ThreadedTCPConnectedClient\l::SetNotificationCallback">
<polygon style="fill:white;stroke:black;" points="394,-93 394,-127 576,-127 576,-93 394,-93"/>
<text text-anchor="start" x="402" y="-113" style="font-family:Arial;font-size:10.00;">ThreadedTCPConnectedClient</text>
<text text-anchor="middle" x="485" y="-100" style="font-family:Arial;font-size:10.00;">::SetNotificationCallback</text>
</a>
</g>
<!-- Node4&#45;&gt;Node5 -->
<g id="edge8" class="edge"><title>Node4&#45;&gt;Node5</title>
<path style="fill:none;stroke:midnightblue;" d="M358,-110C367,-110 375,-110 384,-110"/>
<polygon style="fill:midnightblue;stroke:midnightblue;" points="384,-113.5 394,-110 384,-106.5 384,-113.5"/>
</g>
<!-- Node6 -->
<g id="node11" class="node"><title>Node6</title>
<a xlink:href="_control_manager_8h.html#a295ee31280dd699294f5787580750ce4" target="_top" xlink:title="ControlReceiveHandler">
<polygon style="fill:white;stroke:black;" points="414,-54 414,-75 556,-75 556,-54 414,-54"/>
<text text-anchor="middle" x="485" y="-61" style="font-family:Arial;font-size:10.00;">ControlReceiveHandler</text>
</a>
</g>
<!-- Node4&#45;&gt;Node6 -->
<g id="edge10" class="edge"><title>Node4&#45;&gt;Node6</title>
<path style="fill:none;stroke:midnightblue;" d="M326,-99C347,-94 372,-89 394,-84 404,-82 416,-80 426,-77"/>
<polygon style="fill:midnightblue;stroke:midnightblue;" points="426.881,-80.3933 436,-75 425.508,-73.5292 426.881,-80.3933"/>
</g>
<!-- Node6&#45;&gt;Node2 -->
<g id="edge12" class="edge"><title>Node6&#45;&gt;Node2</title>
<path style="fill:none;stroke:midnightblue;" d="M554,-75C573,-78 593,-81 612,-84 695,-95 792,-110 846,-118"/>
<polygon style="fill:midnightblue;stroke:midnightblue;" points="845.701,-121.488 856,-119 846.398,-114.522 845.701,-121.488"/>
</g>
<!-- Node6&#45;&gt;Node3 -->
<g id="edge14" class="edge"><title>Node6&#45;&gt;Node3</title>
<path style="fill:none;stroke:midnightblue;" d="M554,-75C562,-77 569,-80 576,-84 597,-95 593,-108 612,-121 623,-128 635,-133 647,-138"/>
<polygon style="fill:midnightblue;stroke:midnightblue;" points="646.416,-141.479 657,-141 648.427,-134.774 646.416,-141.479"/>
</g>
<!-- Node7 -->
<g id="node15" class="node"><title>Node7</title>
<a xlink:href="class_control_manager.html#a2dc55da1b01fd175b3d885c68b8a7524" target="_top" xlink:title="ControlManager::ProcessData">
<polygon style="fill:white;stroke:black;" points="612,-54 612,-75 788,-75 788,-54 612,-54"/>
<text text-anchor="middle" x="700" y="-61" style="font-family:Arial;font-size:10.00;">ControlManager::ProcessData</text>
</a>
</g>
<!-- Node6&#45;&gt;Node7 -->
<g id="edge16" class="edge"><title>Node6&#45;&gt;Node7</title>
<path style="fill:none;stroke:midnightblue;" d="M556,-65C571,-65 586,-65 602,-65"/>
<polygon style="fill:midnightblue;stroke:midnightblue;" points="602,-68.5001 612,-65 602,-61.5001 602,-68.5001"/>
</g>
<!-- Node7&#45;&gt;Node2 -->
<g id="edge20" class="edge"><title>Node7&#45;&gt;Node2</title>
<path style="fill:none;stroke:midnightblue;" d="M732,-75C749,-80 770,-87 788,-93 805,-98 808,-99 824,-105 831,-107 839,-109 846,-112"/>
<polygon style="fill:midnightblue;stroke:midnightblue;" points="845.416,-115.479 856,-115 847.427,-108.774 845.416,-115.479"/>
</g>
<!-- Node8 -->
<g id="node17" class="node"><title>Node8</title>
<a xlink:href="_log_print_8h.html#a46ea30a62534f8ce32cd39454e459b23" target="_top" xlink:title="WarningPrint">
<polygon style="fill:white;stroke:black;" points="844,-75 844,-96 929,-96 929,-75 844,-75"/>
<text text-anchor="middle" x="886" y="-82" style="font-family:Arial;font-size:10.00;">WarningPrint</text>
</a>
</g>
<!-- Node7&#45;&gt;Node8 -->
<g id="edge18" class="edge"><title>Node7&#45;&gt;Node8</title>
<path style="fill:none;stroke:midnightblue;" d="M788,-75C803,-77 819,-78 834,-80"/>
<polygon style="fill:midnightblue;stroke:midnightblue;" points="833.701,-83.4875 844,-81 834.398,-76.5222 833.701,-83.4875"/>
</g>
<!-- Node9 -->
<g id="node20" class="node"><title>Node9</title>
<a xlink:href="_log_print_8h.html#af783a2ea2c57c5f51f905a24f3f5a835" target="_top" xlink:title="ErrorPrint">
<polygon style="fill:white;stroke:black;" points="854,-37 854,-58 919,-58 919,-37 854,-37"/>
<text text-anchor="middle" x="886" y="-44" style="font-family:Arial;font-size:10.00;">ErrorPrint</text>
</a>
</g>
<!-- Node7&#45;&gt;Node9 -->
<g id="edge22" class="edge"><title>Node7&#45;&gt;Node9</title>
<path style="fill:none;stroke:midnightblue;" d="M788,-57C807,-55 827,-54 844,-52"/>
<polygon style="fill:midnightblue;stroke:midnightblue;" points="844.398,-55.4778 854,-51 843.701,-48.5125 844.398,-55.4778"/>
</g>
<!-- Node10 -->
<g id="node22" class="node"><title>Node10</title>
<a xlink:href="_system_manager_8cpp.html#a97e64f74d188d41051488578800d20cd" target="_top" xlink:title="GetSystemManager">
<polygon style="fill:white;stroke:black;" points="825,1 825,-20 948,-20 948,1 825,1"/>
<text text-anchor="middle" x="886" y="-6" style="font-family:Arial;font-size:10.00;">GetSystemManager</text>
</a>
</g>
<!-- Node7&#45;&gt;Node10 -->
<g id="edge24" class="edge"><title>Node7&#45;&gt;Node10</title>
<path style="fill:none;stroke:midnightblue;" d="M738,-54C768,-45 811,-33 842,-23"/>
<polygon style="fill:midnightblue;stroke:midnightblue;" points="843.427,-26.2259 852,-20 841.416,-19.5212 843.427,-26.2259"/>
</g>
</g>
</svg>
