<?xml version="1.0" encoding="UTF-8" standalone="no"?>
<!DOCTYPE svg PUBLIC "-//W3C//DTD SVG 1.0//EN"
 "http://www.w3.org/TR/2001/REC-SVG-20010904/DTD/svg10.dtd" [
 <!ATTLIST svg xmlns:xlink CDATA #FIXED "http://www.w3.org/1999/xlink">
]>
<!-- Generated by Graphviz version 2.14.1 (Fri Nov  9 08:19:38 GMT 2007)
     For user: (asakyurek) Alper Sinan Akyurek -->
<!-- Title: ConnectionNotificationHandler Pages: 1 -->
<svg width="716pt" height="307pt"
 viewBox="0.00 0.00 716.00 307.00" xmlns="http://www.w3.org/2000/svg" xmlns:xlink="http://www.w3.org/1999/xlink">
<g id="graph0" class="graph" transform="scale(1 1) rotate(0) translate(4 303)">
<title>ConnectionNotificationHandler</title>
<polygon style="fill:white;stroke:white;" points="-4,4 -4,-303 712,-303 712,4 -4,4"/>
<!-- Node1 -->
<g id="node1" class="node"><title>Node1</title>
<polygon style="fill:#bfbfbf;stroke:black;" points="1,-177 1,-198 186,-198 186,-177 1,-177"/>
<text text-anchor="middle" x="93" y="-184" style="font-family:Arial;font-size:10.00;">ConnectionNotificationHandler</text>
</g>
<!-- Node2 -->
<g id="node3" class="node"><title>Node2</title>
<a xlink:href="_log_print_8h.html#a7e0c5f42cad5bc3a44134fb9c9a7a052" target="_top" xlink:title="LogPrint">
<polygon style="fill:white;stroke:black;" points="635,-175 635,-196 695,-196 695,-175 635,-175"/>
<text text-anchor="middle" x="665" y="-182" style="font-family:Arial;font-size:10.00;">LogPrint</text>
</a>
</g>
<!-- Node1&#45;&gt;Node2 -->
<g id="edge2" class="edge"><title>Node1&#45;&gt;Node2</title>
<path style="fill:none;stroke:midnightblue;" d="M106,-198C129,-215 176,-247 222,-259 380,-299 433,-284 586,-231 607,-224 627,-211 642,-202"/>
<polygon style="fill:midnightblue;stroke:midnightblue;" points="644.621,-204.459 651,-196 640.738,-198.635 644.621,-204.459"/>
</g>
<!-- Node3 -->
<g id="node5" class="node"><title>Node3</title>
<a xlink:href="_connection_manager_8cpp.html#ab88124ce7a3bf1d2892d0e9763d1af30" target="_top" xlink:title="GetConnectionManager">
<polygon style="fill:white;stroke:black;" points="440,-179 440,-200 586,-200 586,-179 440,-179"/>
<text text-anchor="middle" x="513" y="-186" style="font-family:Arial;font-size:10.00;">GetConnectionManager</text>
</a>
</g>
<!-- Node1&#45;&gt;Node3 -->
<g id="edge4" class="edge"><title>Node1&#45;&gt;Node3</title>
<path style="fill:none;stroke:midnightblue;" d="M186,-188C259,-189 359,-189 430,-190"/>
<polygon style="fill:midnightblue;stroke:midnightblue;" points="430,-193.5 440,-190 430,-186.5 430,-193.5"/>
</g>
<!-- Node4 -->
<g id="node7" class="node"><title>Node4</title>
<a xlink:href="class_connection_manager.html#a54968c1176475aa513538691b75aedc9" target="_top" xlink:title="Incoming connection handler. ">
<polygon style="fill:white;stroke:black;" points="247,-216 247,-250 380,-250 380,-216 247,-216"/>
<text text-anchor="start" x="255" y="-236" style="font-family:Arial;font-size:10.00;">ConnectionManager::</text>
<text text-anchor="middle" x="313" y="-223" style="font-family:Arial;font-size:10.00;">IncomingConnection</text>
</a>
</g>
<!-- Node1&#45;&gt;Node4 -->
<g id="edge6" class="edge"><title>Node1&#45;&gt;Node4</title>
<path style="fill:none;stroke:midnightblue;" d="M142,-198C170,-203 205,-210 237,-217"/>
<polygon style="fill:midnightblue;stroke:midnightblue;" points="236.508,-220.471 247,-219 237.881,-213.607 236.508,-220.471"/>
</g>
<!-- Node5 -->
<g id="node10" class="node"><title>Node5</title>
<a xlink:href="class_threaded_t_c_p_connected_client.html#ae8f981925319c228443e0ef78ef0ae67" target="_top" xlink:title="ThreadedTCPConnectedClient\l::SetNotificationCallback">
<polygon style="fill:white;stroke:black;" points="222,-126 222,-160 404,-160 404,-126 222,-126"/>
<text text-anchor="start" x="230" y="-146" style="font-family:Arial;font-size:10.00;">ThreadedTCPConnectedClient</text>
<text text-anchor="middle" x="313" y="-133" style="font-family:Arial;font-size:10.00;">::SetNotificationCallback</text>
</a>
</g>
<!-- Node1&#45;&gt;Node5 -->
<g id="edge10" class="edge"><title>Node1&#45;&gt;Node5</title>
<path style="fill:none;stroke:midnightblue;" d="M147,-177C169,-173 196,-167 221,-162"/>
<polygon style="fill:midnightblue;stroke:midnightblue;" points="221.881,-165.393 231,-160 220.508,-158.529 221.881,-165.393"/>
</g>
<!-- Node6 -->
<g id="node12" class="node"><title>Node6</title>
<a xlink:href="_connection_manager_8cpp.html#a2e30244a123626dc9199117c06d257ab" target="_top" xlink:title="Wrapper callback method for reception notification. ">
<polygon style="fill:white;stroke:black;" points="231,-87 231,-108 396,-108 396,-87 231,-87"/>
<text text-anchor="middle" x="313" y="-94" style="font-family:Arial;font-size:10.00;">ConnectionReceiveHandler</text>
</a>
</g>
<!-- Node1&#45;&gt;Node6 -->
<g id="edge12" class="edge"><title>Node1&#45;&gt;Node6</title>
<path style="fill:none;stroke:midnightblue;" d="M109,-177C133,-161 179,-132 222,-117 229,-114 236,-112 243,-110"/>
<polygon style="fill:midnightblue;stroke:midnightblue;" points="243.881,-113.393 253,-108 242.508,-106.529 243.881,-113.393"/>
</g>
<!-- Node4&#45;&gt;Node2 -->
<g id="edge8" class="edge"><title>Node4&#45;&gt;Node2</title>
<path style="fill:none;stroke:midnightblue;" d="M380,-231C436,-228 517,-222 586,-209 599,-207 613,-203 625,-199"/>
<polygon style="fill:midnightblue;stroke:midnightblue;" points="626.427,-202.226 635,-196 624.416,-195.521 626.427,-202.226"/>
</g>
<!-- Node6&#45;&gt;Node2 -->
<g id="edge14" class="edge"><title>Node6&#45;&gt;Node2</title>
<path style="fill:none;stroke:midnightblue;" d="M396,-91C452,-90 526,-94 586,-119 612,-129 635,-151 649,-167"/>
<polygon style="fill:midnightblue;stroke:midnightblue;" points="646.781,-169.779 656,-175 652.049,-165.169 646.781,-169.779"/>
</g>
<!-- Node6&#45;&gt;Node3 -->
<g id="edge18" class="edge"><title>Node6&#45;&gt;Node3</title>
<path style="fill:none;stroke:midnightblue;" d="M387,-108C393,-110 399,-113 404,-117 428,-133 417,-154 440,-171 442,-172 444,-173 446,-174"/>
<polygon style="fill:midnightblue;stroke:midnightblue;" points="444.559,-177.203 455,-179 447.958,-171.084 444.559,-177.203"/>
</g>
<!-- Node7 -->
<g id="node15" class="node"><title>Node7</title>
<a xlink:href="_log_print_8h.html#a46ea30a62534f8ce32cd39454e459b23" target="_top" xlink:title="WarningPrint">
<polygon style="fill:white;stroke:black;" points="623,-28 623,-49 708,-49 708,-28 623,-28"/>
<text text-anchor="middle" x="665" y="-35" style="font-family:Arial;font-size:10.00;">WarningPrint</text>
</a>
</g>
<!-- Node6&#45;&gt;Node7 -->
<g id="edge16" class="edge"><title>Node6&#45;&gt;Node7</title>
<path style="fill:none;stroke:midnightblue;" d="M379,-87C447,-76 550,-58 613,-48"/>
<polygon style="fill:midnightblue;stroke:midnightblue;" points="613.881,-51.3933 623,-46 612.508,-44.5292 613.881,-51.3933"/>
</g>
<!-- Node8 -->
<g id="node18" class="node"><title>Node8</title>
<a xlink:href="class_connection_manager.html#a64473b0369ab91daf3a2da6b8ef576d0" target="_top" xlink:title="Broken connection handler. ">
<polygon style="fill:white;stroke:black;" points="447,-0 447,-34 580,-34 580,-0 447,-0"/>
<text text-anchor="start" x="455" y="-20" style="font-family:Arial;font-size:10.00;">ConnectionManager::</text>
<text text-anchor="middle" x="513" y="-7" style="font-family:Arial;font-size:10.00;">BrokenConnection</text>
</a>
</g>
<!-- Node6&#45;&gt;Node8 -->
<g id="edge20" class="edge"><title>Node6&#45;&gt;Node8</title>
<path style="fill:none;stroke:midnightblue;" d="M340,-87C371,-74 423,-54 462,-38"/>
<polygon style="fill:midnightblue;stroke:midnightblue;" points="463.283,-41.2598 471,-34 460.44,-34.8631 463.283,-41.2598"/>
</g>
<!-- Node9 -->
<g id="node21" class="node"><title>Node9</title>
<a xlink:href="class_connection_manager.html#a4657b51054ad28143f1bddd1f5cc282c" target="_top" xlink:title="New message processor. ">
<polygon style="fill:white;stroke:black;" points="447,-128 447,-162 580,-162 580,-128 447,-128"/>
<text text-anchor="start" x="455" y="-148" style="font-family:Arial;font-size:10.00;">ConnectionManager::</text>
<text text-anchor="middle" x="513" y="-135" style="font-family:Arial;font-size:10.00;">IncomingMessage</text>
</a>
</g>
<!-- Node6&#45;&gt;Node9 -->
<g id="edge24" class="edge"><title>Node6&#45;&gt;Node9</title>
<path style="fill:none;stroke:midnightblue;" d="M365,-108C378,-111 391,-114 404,-117 416,-119 427,-122 439,-125"/>
<polygon style="fill:midnightblue;stroke:midnightblue;" points="438.416,-128.479 449,-128 440.427,-121.774 438.416,-128.479"/>
</g>
<!-- Node8&#45;&gt;Node7 -->
<g id="edge22" class="edge"><title>Node8&#45;&gt;Node7</title>
<path style="fill:none;stroke:midnightblue;" d="M580,-27C591,-28 602,-30 613,-31"/>
<polygon style="fill:midnightblue;stroke:midnightblue;" points="612.508,-34.4708 623,-33 613.881,-27.6067 612.508,-34.4708"/>
</g>
<!-- Node9&#45;&gt;Node2 -->
<g id="edge26" class="edge"><title>Node9&#45;&gt;Node2</title>
<path style="fill:none;stroke:midnightblue;" d="M576,-162C592,-166 610,-171 625,-175"/>
<polygon style="fill:midnightblue;stroke:midnightblue;" points="624.416,-178.479 635,-178 626.427,-171.774 624.416,-178.479"/>
</g>
</g>
</svg>
