<?xml version="1.0" encoding="UTF-8" standalone="no"?>
<!DOCTYPE svg PUBLIC "-//W3C//DTD SVG 1.0//EN"
 "http://www.w3.org/TR/2001/REC-SVG-20010904/DTD/svg10.dtd" [
 <!ATTLIST svg xmlns:xlink CDATA #FIXED "http://www.w3.org/1999/xlink">
]>
<!-- Generated by Graphviz version 2.14.1 (Fri Nov  9 08:19:38 GMT 2007)
     For user: (asakyurek) Alper Sinan Akyurek -->
<!-- Title: GetControlManager Pages: 1 -->
<svg width="1046pt" height="350pt"
 viewBox="0.00 0.00 1046.00 350.00" xmlns="http://www.w3.org/2000/svg" xmlns:xlink="http://www.w3.org/1999/xlink">
<g id="graph0" class="graph" transform="scale(1 1) rotate(0) translate(4 346)">
<title>GetControlManager</title>
<polygon style="fill:white;stroke:white;" points="-4,4 -4,-346 1042,-346 1042,4 -4,4"/>
<!-- Node1 -->
<g id="node1" class="node"><title>Node1</title>
<polygon style="fill:#bfbfbf;stroke:black;" points="1,-135 1,-156 124,-156 124,-135 1,-135"/>
<text text-anchor="middle" x="62" y="-142" style="font-family:Arial;font-size:10.00;">GetControlManager</text>
</g>
<!-- Node2 -->
<g id="node3" class="node"><title>Node2</title>
<a xlink:href="class_client_manager.html#a4fa8fc5731587276f5e6be92563474fa" target="_top" xlink:title="Handles the broken connection case. ">
<polygon style="fill:white;stroke:black;" points="183,-308 183,-342 348,-342 348,-308 183,-308"/>
<text text-anchor="start" x="191" y="-328" style="font-family:Arial;font-size:10.00;">ClientManager::Connection</text>
<text text-anchor="middle" x="265" y="-315" style="font-family:Arial;font-size:10.00;">Broken</text>
</a>
</g>
<!-- Node1&#45;&gt;Node2 -->
<g id="edge2" class="edge"><title>Node1&#45;&gt;Node2</title>
<path style="fill:none;stroke:midnightblue;" d="M69,-166C82,-198 112,-264 160,-299 167,-304 175,-308 183,-311"/>
<polygon style="fill:midnightblue;stroke:midnightblue;" points="71.9636,-163.985 65,-156 65.4643,-166.585 71.9636,-163.985"/>
</g>
<!-- Node3 -->
<g id="node5" class="node"><title>Node3</title>
<a xlink:href="class_client_manager.html#a6d544b4d20cd3b906b6a033c8d70e4a5" target="_top" xlink:title="Processes an asynchronous client connection request. ">
<polygon style="fill:white;stroke:black;" points="178,-256 178,-290 352,-290 352,-256 178,-256"/>
<text text-anchor="start" x="186" y="-276" style="font-family:Arial;font-size:10.00;">ClientManager::ProcessClient</text>
<text text-anchor="middle" x="265" y="-263" style="font-family:Arial;font-size:10.00;">ConnectionRequest</text>
</a>
</g>
<!-- Node1&#45;&gt;Node3 -->
<g id="edge4" class="edge"><title>Node1&#45;&gt;Node3</title>
<path style="fill:none;stroke:midnightblue;" d="M75,-164C92,-187 124,-226 160,-247 166,-250 173,-253 180,-256"/>
<polygon style="fill:midnightblue;stroke:midnightblue;" points="77.8,-161.9 69,-156 72.2,-166.1 77.8,-161.9"/>
</g>
<!-- Node5 -->
<g id="node9" class="node"><title>Node5</title>
<a xlink:href="class_client_manager.html#a841299387a1dcd268266a3c0cfe2a95c" target="_top" xlink:title="Processes the price signal request. ">
<polygon style="fill:white;stroke:black;" points="185,-204 185,-238 346,-238 346,-204 185,-204"/>
<text text-anchor="start" x="193" y="-224" style="font-family:Arial;font-size:10.00;">ClientManager::ProcessGet</text>
<text text-anchor="middle" x="265" y="-211" style="font-family:Arial;font-size:10.00;">Price</text>
</a>
</g>
<!-- Node1&#45;&gt;Node5 -->
<g id="edge8" class="edge"><title>Node1&#45;&gt;Node5</title>
<path style="fill:none;stroke:midnightblue;" d="M88,-161C108,-172 135,-186 160,-195 169,-198 179,-201 189,-204"/>
<polygon style="fill:midnightblue;stroke:midnightblue;" points="89.4414,-157.797 79,-156 86.0418,-163.916 89.4414,-157.797"/>
</g>
<!-- Node6 -->
<g id="node12" class="node"><title>Node6</title>
<a xlink:href="class_client_manager.html#ad8841acd386513f41ab0872c67593ff4" target="_top" xlink:title="Processes the demand negotiation response. ">
<polygon style="fill:white;stroke:black;" points="171,-152 171,-186 360,-186 360,-152 171,-152"/>
<text text-anchor="start" x="179" y="-172" style="font-family:Arial;font-size:10.00;">ClientManager::ProcessDemand</text>
<text text-anchor="middle" x="265" y="-159" style="font-family:Arial;font-size:10.00;">Negotiation</text>
</a>
</g>
<!-- Node1&#45;&gt;Node6 -->
<g id="edge12" class="edge"><title>Node1&#45;&gt;Node6</title>
<path style="fill:none;stroke:midnightblue;" d="M134,-154C146,-156 158,-157 171,-158"/>
<polygon style="fill:midnightblue;stroke:midnightblue;" points="134.299,-150.512 124,-153 133.602,-157.478 134.299,-150.512"/>
</g>
<!-- Node7 -->
<g id="node15" class="node"><title>Node7</title>
<a xlink:href="_control_manager_8cpp.html#a5f09b25cf454170e17d1aa3c2707273a" target="_top" xlink:title="ControlNotificationHandler">
<polygon style="fill:white;stroke:black;" points="642,-94 642,-115 804,-115 804,-94 642,-94"/>
<text text-anchor="middle" x="723" y="-101" style="font-family:Arial;font-size:10.00;">ControlNotificationHandler</text>
</a>
</g>
<!-- Node1&#45;&gt;Node7 -->
<g id="edge16" class="edge"><title>Node1&#45;&gt;Node7</title>
<path style="fill:none;stroke:midnightblue;" d="M134,-141C258,-134 512,-118 642,-110"/>
<polygon style="fill:midnightblue;stroke:midnightblue;" points="133.602,-137.522 124,-142 134.299,-144.488 133.602,-137.522"/>
</g>
<!-- Node9 -->
<g id="node19" class="node"><title>Node9</title>
<a xlink:href="_control_manager_8h.html#a295ee31280dd699294f5787580750ce4" target="_top" xlink:title="ControlReceiveHandler">
<polygon style="fill:white;stroke:black;" points="194,-75 194,-96 336,-96 336,-75 194,-75"/>
<text text-anchor="middle" x="265" y="-82" style="font-family:Arial;font-size:10.00;">ControlReceiveHandler</text>
</a>
</g>
<!-- Node1&#45;&gt;Node9 -->
<g id="edge20" class="edge"><title>Node1&#45;&gt;Node9</title>
<path style="fill:none;stroke:midnightblue;" d="M98,-131C117,-124 140,-116 160,-110 178,-105 197,-100 215,-96"/>
<polygon style="fill:midnightblue;stroke:midnightblue;" points="96.7166,-127.74 89,-135 99.5596,-134.137 96.7166,-127.74"/>
</g>
<!-- Node11 -->
<g id="node24" class="node"><title>Node11</title>
<a xlink:href="main_8cpp.html#a3c04138a5bfe5d72780bb7e82a18e627" target="_top" xlink:title="main">
<polygon style="fill:white;stroke:black;" points="484,-18 484,-39 528,-39 528,-18 484,-18"/>
<text text-anchor="middle" x="506" y="-25" style="font-family:Arial;font-size:10.00;">main</text>
</a>
</g>
<!-- Node1&#45;&gt;Node11 -->
<g id="edge26" class="edge"><title>Node1&#45;&gt;Node11</title>
<path style="fill:none;stroke:midnightblue;" d="M79,-128C97,-109 128,-80 160,-67 219,-43 417,-33 484,-30"/>
<polygon style="fill:midnightblue;stroke:midnightblue;" points="76.5962,-125.454 72,-135 81.546,-130.404 76.5962,-125.454"/>
</g>
<!-- Node12 -->
<g id="node26" class="node"><title>Node12</title>
<a xlink:href="class_system_manager.html#a87443d7e75b0f170535d315c27237253" target="_top" xlink:title="SystemManager::AdvanceTimeStep">
<polygon style="fill:white;stroke:black;" points="160,1 160,-20 370,-20 370,1 160,1"/>
<text text-anchor="middle" x="265" y="-6" style="font-family:Arial;font-size:10.00;">SystemManager::AdvanceTimeStep</text>
</a>
</g>
<!-- Node1&#45;&gt;Node12 -->
<g id="edge28" class="edge"><title>Node1&#45;&gt;Node12</title>
<path style="fill:none;stroke:midnightblue;" d="M73,-126C90,-101 122,-56 160,-34 171,-28 182,-23 194,-20"/>
<polygon style="fill:midnightblue;stroke:midnightblue;" points="69.7969,-124.559 68,-135 75.916,-127.958 69.7969,-124.559"/>
</g>
<!-- Node4 -->
<g id="node7" class="node"><title>Node4</title>
<a xlink:href="class_client_manager.html#abf05d2ac88337dfd02e0b7986ee1e18c" target="_top" xlink:title="Called when a message is received. ">
<polygon style="fill:white;stroke:black;" points="407,-210 407,-231 606,-231 606,-210 407,-210"/>
<text text-anchor="middle" x="506" y="-217" style="font-family:Arial;font-size:10.00;">ClientManager::MessageReceived</text>
</a>
</g>
<!-- Node3&#45;&gt;Node4 -->
<g id="edge6" class="edge"><title>Node3&#45;&gt;Node4</title>
<path style="fill:none;stroke:midnightblue;" d="M354,-254C390,-246 430,-237 460,-231"/>
<polygon style="fill:midnightblue;stroke:midnightblue;" points="353.119,-250.607 344,-256 354.492,-257.471 353.119,-250.607"/>
</g>
<!-- Node5&#45;&gt;Node4 -->
<g id="edge10" class="edge"><title>Node5&#45;&gt;Node4</title>
<path style="fill:none;stroke:midnightblue;" d="M356,-221C373,-221 390,-221 407,-221"/>
<polygon style="fill:midnightblue;stroke:midnightblue;" points="356,-217.5 346,-221 356,-224.5 356,-217.5"/>
</g>
<!-- Node6&#45;&gt;Node4 -->
<g id="edge14" class="edge"><title>Node6&#45;&gt;Node4</title>
<path style="fill:none;stroke:midnightblue;" d="M354,-188C388,-196 426,-204 455,-210"/>
<polygon style="fill:midnightblue;stroke:midnightblue;" points="354.492,-184.529 344,-186 353.119,-191.393 354.492,-184.529"/>
</g>
<!-- Node8 -->
<g id="node17" class="node"><title>Node8</title>
<a xlink:href="class_control_manager.html#ab81bac3e592705b7ca4b23ce473fe26e" target="_top" xlink:title="ControlManager::ControlManager">
<polygon style="fill:white;stroke:black;" points="840,-94 840,-115 1038,-115 1038,-94 840,-94"/>
<text text-anchor="middle" x="939" y="-101" style="font-family:Arial;font-size:10.00;">ControlManager::ControlManager</text>
</a>
</g>
<!-- Node7&#45;&gt;Node8 -->
<g id="edge18" class="edge"><title>Node7&#45;&gt;Node8</title>
<path style="fill:none;stroke:midnightblue;" d="M814,-105C823,-105 831,-105 840,-105"/>
<polygon style="fill:midnightblue;stroke:midnightblue;" points="814,-101.5 804,-105 814,-108.5 814,-101.5"/>
</g>
<!-- Node10 -->
<g id="node21" class="node"><title>Node10</title>
<a xlink:href="class_control_manager.html#a67d548535b36a78e315a0aa5f9f8e6c8" target="_top" xlink:title="ControlManager::SetClient">
<polygon style="fill:white;stroke:black;" points="426,-75 426,-96 586,-96 586,-75 426,-75"/>
<text text-anchor="middle" x="506" y="-82" style="font-family:Arial;font-size:10.00;">ControlManager::SetClient</text>
</a>
</g>
<!-- Node9&#45;&gt;Node10 -->
<g id="edge22" class="edge"><title>Node9&#45;&gt;Node10</title>
<path style="fill:none;stroke:midnightblue;" d="M346,-86C372,-86 400,-86 426,-86"/>
<polygon style="fill:midnightblue;stroke:midnightblue;" points="346,-82.5001 336,-86 346,-89.5001 346,-82.5001"/>
</g>
<!-- Node10&#45;&gt;Node7 -->
<g id="edge24" class="edge"><title>Node10&#45;&gt;Node7</title>
<path style="fill:none;stroke:midnightblue;" d="M596,-94C611,-95 627,-96 642,-98"/>
<polygon style="fill:midnightblue;stroke:midnightblue;" points="596.299,-90.5125 586,-93 595.602,-97.4778 596.299,-90.5125"/>
</g>
<!-- Node12&#45;&gt;Node11 -->
<g id="edge30" class="edge"><title>Node12&#45;&gt;Node11</title>
<path style="fill:none;stroke:midnightblue;" d="M380,-19C420,-22 460,-25 484,-27"/>
<polygon style="fill:midnightblue;stroke:midnightblue;" points="380.299,-15.5125 370,-18 379.602,-22.4778 380.299,-15.5125"/>
</g>
</g>
</svg>
