<?xml version="1.0" encoding="UTF-8" standalone="no"?>
<!DOCTYPE svg PUBLIC "-//W3C//DTD SVG 1.0//EN"
 "http://www.w3.org/TR/2001/REC-SVG-20010904/DTD/svg10.dtd" [
 <!ATTLIST svg xmlns:xlink CDATA #FIXED "http://www.w3.org/1999/xlink">
]>
<!-- Generated by Graphviz version 2.14.1 (Fri Nov  9 08:19:38 GMT 2007)
     For user: (asakyurek) Alper Sinan Akyurek -->
<!-- Title: S2Sim/ConnectionManager.h Pages: 1 -->
<svg width="1703pt" height="610pt"
 viewBox="0.00 0.00 1703.00 610.00" xmlns="http://www.w3.org/2000/svg" xmlns:xlink="http://www.w3.org/1999/xlink">
<g id="graph0" class="graph" transform="scale(1 1) rotate(0) translate(4 606)">
<title>S2Sim/ConnectionManager.h</title>
<polygon style="fill:white;stroke:white;" points="-4,4 -4,-606 1699,-606 1699,4 -4,4"/>
<!-- Node1 -->
<g id="node1" class="node"><title>Node1</title>
<polygon style="fill:#bfbfbf;stroke:black;" points="1315,-580 1315,-601 1489,-601 1489,-580 1315,-580"/>
<text text-anchor="middle" x="1402" y="-587" style="font-family:Arial;font-size:10.00;">S2Sim/ConnectionManager.h</text>
</g>
<!-- Node2 -->
<g id="node3" class="node"><title>Node2</title>
<a xlink:href="_client_manager_8h.html" target="_top" xlink:title="ClientManager.h">
<polygon style="fill:white;stroke:black;" points="1055,-522 1055,-543 1161,-543 1161,-522 1055,-522"/>
<text text-anchor="middle" x="1108" y="-529" style="font-family:Arial;font-size:10.00;">ClientManager.h</text>
</a>
</g>
<!-- Node1&#45;&gt;Node2 -->
<g id="edge2" class="edge"><title>Node1&#45;&gt;Node2</title>
<path style="fill:none;stroke:midnightblue;" d="M1341,-580C1289,-570 1214,-555 1164,-545"/>
<polygon style="fill:midnightblue;stroke:midnightblue;" points="1164.49,-541.529 1154,-543 1163.12,-548.393 1164.49,-541.529"/>
</g>
<!-- Node7 -->
<g id="node13" class="node"><title>Node7</title>
<polygon style="fill:white;stroke:#bfbfbf;" points="478,-290 478,-311 519,-311 519,-290 478,-290"/>
<text text-anchor="middle" x="498" y="-297" style="font-family:Arial;font-size:10.00;">map</text>
</g>
<!-- Node1&#45;&gt;Node7 -->
<g id="edge148" class="edge"><title>Node1&#45;&gt;Node7</title>
<path style="fill:none;stroke:midnightblue;" d="M1315,-587C1031,-574 151,-530 110,-486 0,-366 360,-316 468,-304"/>
<polygon style="fill:midnightblue;stroke:midnightblue;" points="468.398,-307.478 478,-303 467.701,-300.512 468.398,-307.478"/>
</g>
<!-- Node20 -->
<g id="node58" class="node"><title>Node20</title>
<a xlink:href="_threaded_t_c_p_server_8h.html" target="_top" xlink:title="ThreadedTCPServer.h">
<polygon style="fill:white;stroke:black;" points="1287,-290 1287,-311 1422,-311 1422,-290 1287,-290"/>
<text text-anchor="middle" x="1354" y="-297" style="font-family:Arial;font-size:10.00;">ThreadedTCPServer.h</text>
</a>
</g>
<!-- Node1&#45;&gt;Node20 -->
<g id="edge142" class="edge"><title>Node1&#45;&gt;Node20</title>
<path style="fill:none;stroke:midnightblue;" d="M1415,-580C1438,-558 1482,-509 1468,-464 1449,-403 1399,-346 1372,-318"/>
<polygon style="fill:midnightblue;stroke:midnightblue;" points="1374.55,-315.596 1365,-311 1369.6,-320.546 1374.55,-315.596"/>
</g>
<!-- Node25 -->
<g id="node70" class="node"><title>Node25</title>
<a xlink:href="_threaded_t_c_p_connected_client_8h.html" target="_top" xlink:title="ThreadedTCPConnectedClient.h">
<polygon style="fill:white;stroke:black;" points="1265,-174 1265,-195 1457,-195 1457,-174 1265,-174"/>
<text text-anchor="middle" x="1361" y="-181" style="font-family:Arial;font-size:10.00;">ThreadedTCPConnectedClient.h</text>
</a>
</g>
<!-- Node1&#45;&gt;Node25 -->
<g id="edge144" class="edge"><title>Node1&#45;&gt;Node25</title>
<path style="fill:none;stroke:midnightblue;" d="M1425,-580C1490,-547 1675,-453 1691,-428 1695,-419 1692,-415 1691,-406 1680,-351 1684,-328 1645,-290 1591,-237 1507,-210 1445,-197"/>
<polygon style="fill:midnightblue;stroke:midnightblue;" points="1445.49,-193.529 1435,-195 1444.12,-200.393 1445.49,-193.529"/>
</g>
<!-- Node29 -->
<g id="node93" class="node"><title>Node29</title>
<a xlink:href="_log_print_8h.html" target="_top" xlink:title="LogPrint.h">
<polygon style="fill:white;stroke:black;" points="1566,-290 1566,-311 1636,-311 1636,-290 1566,-290"/>
<text text-anchor="middle" x="1601" y="-297" style="font-family:Arial;font-size:10.00;">LogPrint.h</text>
</a>
</g>
<!-- Node1&#45;&gt;Node29 -->
<g id="edge146" class="edge"><title>Node1&#45;&gt;Node29</title>
<path style="fill:none;stroke:midnightblue;" d="M1489,-584C1545,-577 1609,-565 1627,-544 1681,-477 1634,-365 1612,-320"/>
<polygon style="fill:midnightblue;stroke:midnightblue;" points="1614.92,-318.042 1607,-311 1608.8,-321.441 1614.92,-318.042"/>
</g>
<!-- Node30 -->
<g id="node105" class="node"><title>Node30</title>
<polygon style="fill:white;stroke:#bfbfbf;" points="1550,-522 1550,-543 1619,-543 1619,-522 1550,-522"/>
<text text-anchor="middle" x="1584" y="-529" style="font-family:Arial;font-size:10.00;">algorithm</text>
</g>
<!-- Node1&#45;&gt;Node30 -->
<g id="edge150" class="edge"><title>Node1&#45;&gt;Node30</title>
<path style="fill:none;stroke:midnightblue;" d="M1437,-580C1467,-570 1510,-556 1542,-546"/>
<polygon style="fill:midnightblue;stroke:midnightblue;" points="1543.43,-549.226 1552,-543 1541.42,-542.521 1543.43,-549.226"/>
</g>
<!-- Node2&#45;&gt;Node1 -->
<g id="edge66" class="edge"><title>Node2&#45;&gt;Node1</title>
<path style="fill:none;stroke:midnightblue;" d="M1161,-543C1212,-552 1288,-567 1341,-578"/>
<polygon style="fill:midnightblue;stroke:midnightblue;" points="1340.51,-581.471 1351,-580 1341.88,-574.607 1340.51,-581.471"/>
</g>
<!-- Node3 -->
<g id="node5" class="node"><title>Node3</title>
<a xlink:href="_message_header_8h.html" target="_top" xlink:title="MessageHeader.h">
<polygon style="fill:white;stroke:black;" points="496,-348 496,-369 609,-369 609,-348 496,-348"/>
<text text-anchor="middle" x="552" y="-355" style="font-family:Arial;font-size:10.00;">MessageHeader.h</text>
</a>
</g>
<!-- Node2&#45;&gt;Node3 -->
<g id="edge4" class="edge"><title>Node2&#45;&gt;Node3</title>
<path style="fill:none;stroke:midnightblue;" d="M1105,-522C1099,-507 1088,-479 1070,-464 1002,-407 744,-377 619,-365"/>
<polygon style="fill:midnightblue;stroke:midnightblue;" points="619.299,-361.512 609,-364 618.602,-368.478 619.299,-361.512"/>
</g>
<!-- Node8 -->
<g id="node15" class="node"><title>Node8</title>
<a xlink:href="_client_connection_request_8h.html" target="_top" xlink:title="ClientConnectionRequest.h">
<polygon style="fill:white;stroke:black;" points="693,-464 693,-485 858,-485 858,-464 693,-464"/>
<text text-anchor="middle" x="775" y="-471" style="font-family:Arial;font-size:10.00;">ClientConnectionRequest.h</text>
</a>
</g>
<!-- Node2&#45;&gt;Node8 -->
<g id="edge14" class="edge"><title>Node2&#45;&gt;Node8</title>
<path style="fill:none;stroke:midnightblue;" d="M1055,-524C997,-514 906,-498 843,-487"/>
<polygon style="fill:midnightblue;stroke:midnightblue;" points="843.492,-483.529 833,-485 842.119,-490.393 843.492,-483.529"/>
</g>
<!-- Node11 -->
<g id="node24" class="node"><title>Node11</title>
<a xlink:href="_client_connection_response_8h.html" target="_top" xlink:title="ClientConnectionResponse.h">
<polygon style="fill:white;stroke:black;" points="375,-464 375,-485 548,-485 548,-464 375,-464"/>
<text text-anchor="middle" x="461" y="-471" style="font-family:Arial;font-size:10.00;">ClientConnectionResponse.h</text>
</a>
</g>
<!-- Node2&#45;&gt;Node11 -->
<g id="edge26" class="edge"><title>Node2&#45;&gt;Node11</title>
<path style="fill:none;stroke:midnightblue;" d="M1055,-529C958,-521 747,-505 558,-486"/>
<polygon style="fill:midnightblue;stroke:midnightblue;" points="558.299,-482.512 548,-485 557.602,-489.478 558.299,-482.512"/>
</g>
<!-- Node12 -->
<g id="node28" class="node"><title>Node12</title>
<a xlink:href="_set_current_price_8h.html" target="_top" xlink:title="SetCurrentPrice.h">
<polygon style="fill:white;stroke:black;" points="565,-464 565,-485 676,-485 676,-464 565,-464"/>
<text text-anchor="middle" x="620" y="-471" style="font-family:Arial;font-size:10.00;">SetCurrentPrice.h</text>
</a>
</g>
<!-- Node2&#45;&gt;Node12 -->
<g id="edge32" class="edge"><title>Node2&#45;&gt;Node12</title>
<path style="fill:none;stroke:midnightblue;" d="M1055,-528C976,-520 824,-505 686,-486"/>
<polygon style="fill:midnightblue;stroke:midnightblue;" points="686.299,-482.512 676,-485 685.602,-489.478 686.299,-482.512"/>
</g>
<!-- Node13 -->
<g id="node32" class="node"><title>Node13</title>
<a xlink:href="_price_proposal_8h.html" target="_top" xlink:title="PriceProposal.h">
<polygon style="fill:white;stroke:black;" points="875,-464 875,-485 973,-485 973,-464 875,-464"/>
<text text-anchor="middle" x="924" y="-471" style="font-family:Arial;font-size:10.00;">PriceProposal.h</text>
</a>
</g>
<!-- Node2&#45;&gt;Node13 -->
<g id="edge38" class="edge"><title>Node2&#45;&gt;Node13</title>
<path style="fill:none;stroke:midnightblue;" d="M1073,-522C1042,-512 998,-498 966,-488"/>
<polygon style="fill:midnightblue;stroke:midnightblue;" points="966.584,-484.521 956,-485 964.573,-491.226 966.584,-484.521"/>
</g>
<!-- Node14 -->
<g id="node36" class="node"><title>Node14</title>
<a xlink:href="_client_data_8h.html" target="_top" xlink:title="ClientData.h">
<polygon style="fill:white;stroke:black;" points="273,-464 273,-485 357,-485 357,-464 273,-464"/>
<text text-anchor="middle" x="315" y="-471" style="font-family:Arial;font-size:10.00;">ClientData.h</text>
</a>
</g>
<!-- Node2&#45;&gt;Node14 -->
<g id="edge44" class="edge"><title>Node2&#45;&gt;Node14</title>
<path style="fill:none;stroke:midnightblue;" d="M1055,-532C935,-530 631,-521 367,-485"/>
<polygon style="fill:midnightblue;stroke:midnightblue;" points="367.299,-481.512 357,-484 366.602,-488.478 367.299,-481.512"/>
</g>
<!-- Node15 -->
<g id="node41" class="node"><title>Node15</title>
<a xlink:href="_get_price_8h.html" target="_top" xlink:title="GetPrice.h">
<polygon style="fill:white;stroke:black;" points="991,-464 991,-485 1062,-485 1062,-464 991,-464"/>
<text text-anchor="middle" x="1026" y="-471" style="font-family:Arial;font-size:10.00;">GetPrice.h</text>
</a>
</g>
<!-- Node2&#45;&gt;Node15 -->
<g id="edge52" class="edge"><title>Node2&#45;&gt;Node15</title>
<path style="fill:none;stroke:midnightblue;" d="M1092,-522C1080,-513 1062,-501 1048,-491"/>
<polygon style="fill:midnightblue;stroke:midnightblue;" points="1050.1,-488.2 1040,-485 1045.9,-493.8 1050.1,-488.2"/>
</g>
<!-- Node16 -->
<g id="node45" class="node"><title>Node16</title>
<a xlink:href="_demand_negotiation_8h.html" target="_top" xlink:title="DemandNegotiation.h">
<polygon style="fill:white;stroke:black;" points="119,-464 119,-485 256,-485 256,-464 119,-464"/>
<text text-anchor="middle" x="187" y="-471" style="font-family:Arial;font-size:10.00;">DemandNegotiation.h</text>
</a>
</g>
<!-- Node2&#45;&gt;Node16 -->
<g id="edge58" class="edge"><title>Node2&#45;&gt;Node16</title>
<path style="fill:none;stroke:midnightblue;" d="M1055,-532C923,-528 570,-515 266,-486"/>
<polygon style="fill:midnightblue;stroke:midnightblue;" points="266.299,-482.512 256,-485 265.602,-489.478 266.299,-482.512"/>
</g>
<!-- Node17 -->
<g id="node51" class="node"><title>Node17</title>
<a xlink:href="_matlab_manager_8h.html" target="_top" xlink:title="MatlabManager.h">
<polygon style="fill:white;stroke:black;" points="1349,-464 1349,-485 1460,-485 1460,-464 1349,-464"/>
<text text-anchor="middle" x="1404" y="-471" style="font-family:Arial;font-size:10.00;">MatlabManager.h</text>
</a>
</g>
<!-- Node2&#45;&gt;Node17 -->
<g id="edge68" class="edge"><title>Node2&#45;&gt;Node17</title>
<path style="fill:none;stroke:midnightblue;" d="M1161,-523C1212,-513 1289,-498 1343,-487"/>
<polygon style="fill:midnightblue;stroke:midnightblue;" points="1343.88,-490.393 1353,-485 1342.51,-483.529 1343.88,-490.393"/>
</g>
<!-- Node2&#45;&gt;Node25 -->
<g id="edge138" class="edge"><title>Node2&#45;&gt;Node25</title>
<path style="fill:none;stroke:midnightblue;" d="M1111,-522C1116,-501 1127,-456 1127,-417 1127,-417 1127,-417 1127,-301 1127,-259 1246,-218 1314,-198"/>
<polygon style="fill:midnightblue;stroke:midnightblue;" points="1315.43,-201.226 1324,-195 1313.42,-194.521 1315.43,-201.226"/>
</g>
<!-- Node27 -->
<g id="node80" class="node"><title>Node27</title>
<a xlink:href="_system_manager_8h.html" target="_top" xlink:title="SystemManager.h">
<polygon style="fill:white;stroke:black;" points="1193,-406 1193,-427 1307,-427 1307,-406 1193,-406"/>
<text text-anchor="middle" x="1250" y="-413" style="font-family:Arial;font-size:10.00;">SystemManager.h</text>
</a>
</g>
<!-- Node2&#45;&gt;Node27 -->
<g id="edge136" class="edge"><title>Node2&#45;&gt;Node27</title>
<path style="fill:none;stroke:midnightblue;" d="M1119,-522C1132,-513 1153,-499 1170,-486 1191,-470 1211,-448 1227,-434"/>
<polygon style="fill:midnightblue;stroke:midnightblue;" points="1229.78,-436.219 1235,-427 1225.17,-430.951 1229.78,-436.219"/>
</g>
<!-- Node2&#45;&gt;Node29 -->
<g id="edge140" class="edge"><title>Node2&#45;&gt;Node29</title>
<path style="fill:none;stroke:midnightblue;" d="M1161,-528C1247,-520 1412,-503 1468,-486 1520,-469 1544,-472 1577,-428 1601,-396 1603,-348 1602,-321"/>
<polygon style="fill:midnightblue;stroke:midnightblue;" points="1605.5,-321 1602,-311 1598.5,-321 1605.5,-321"/>
</g>
<!-- Node4 -->
<g id="node7" class="node"><title>Node4</title>
<a xlink:href="_network_byte_accessor_8h.html" target="_top" xlink:title="NetworkByteAccessor.h">
<polygon style="fill:white;stroke:black;" points="536,-290 536,-311 677,-311 677,-290 536,-290"/>
<text text-anchor="middle" x="606" y="-297" style="font-family:Arial;font-size:10.00;">NetworkByteAccessor.h</text>
</a>
</g>
<!-- Node3&#45;&gt;Node4 -->
<g id="edge6" class="edge"><title>Node3&#45;&gt;Node4</title>
<path style="fill:none;stroke:midnightblue;" d="M562,-348C570,-339 581,-328 590,-318"/>
<polygon style="fill:midnightblue;stroke:midnightblue;" points="592.404,-320.546 597,-311 587.454,-315.596 592.404,-320.546"/>
</g>
<!-- Node3&#45;&gt;Node7 -->
<g id="edge12" class="edge"><title>Node3&#45;&gt;Node7</title>
<path style="fill:none;stroke:midnightblue;" d="M542,-348C534,-339 523,-328 514,-318"/>
<polygon style="fill:midnightblue;stroke:midnightblue;" points="516.546,-315.596 507,-311 511.596,-320.546 516.546,-315.596"/>
</g>
<!-- Node5 -->
<g id="node9" class="node"><title>Node5</title>
<polygon style="fill:white;stroke:#bfbfbf;" points="381,-0 381,-21 437,-21 437,-0 381,-0"/>
<text text-anchor="middle" x="409" y="-7" style="font-family:Arial;font-size:10.00;">string.h</text>
</g>
<!-- Node4&#45;&gt;Node5 -->
<g id="edge8" class="edge"><title>Node4&#45;&gt;Node5</title>
<path style="fill:none;stroke:midnightblue;" d="M606,-290C606,-269 606,-223 606,-185 606,-185 606,-185 606,-127 606,-53 505,-26 447,-16"/>
<polygon style="fill:midnightblue;stroke:midnightblue;" points="447.492,-12.5292 437,-14 446.119,-19.3933 447.492,-12.5292"/>
</g>
<!-- Node6 -->
<g id="node11" class="node"><title>Node6</title>
<a xlink:href="_compile_time_checker_library_8h.html" target="_top" xlink:title="CompileTimeCheckerLibrary.h">
<polygon style="fill:white;stroke:black;" points="398,-232 398,-253 579,-253 579,-232 398,-232"/>
<text text-anchor="middle" x="488" y="-239" style="font-family:Arial;font-size:10.00;">CompileTimeCheckerLibrary.h</text>
</a>
</g>
<!-- Node4&#45;&gt;Node6 -->
<g id="edge10" class="edge"><title>Node4&#45;&gt;Node6</title>
<path style="fill:none;stroke:midnightblue;" d="M584,-290C565,-281 538,-267 517,-257"/>
<polygon style="fill:midnightblue;stroke:midnightblue;" points="518.56,-253.863 508,-253 515.717,-260.26 518.56,-253.863"/>
</g>
<!-- Node8&#45;&gt;Node3 -->
<g id="edge16" class="edge"><title>Node8&#45;&gt;Node3</title>
<path style="fill:none;stroke:midnightblue;" d="M765,-464C750,-449 722,-422 693,-406 666,-391 634,-380 607,-372"/>
<polygon style="fill:midnightblue;stroke:midnightblue;" points="607.584,-368.521 597,-369 605.573,-375.226 607.584,-368.521"/>
</g>
<!-- Node9 -->
<g id="node18" class="node"><title>Node9</title>
<a xlink:href="_message_ender_8h.html" target="_top" xlink:title="MessageEnder.h">
<polygon style="fill:white;stroke:black;" points="580,-406 580,-427 684,-427 684,-406 580,-406"/>
<text text-anchor="middle" x="632" y="-413" style="font-family:Arial;font-size:10.00;">MessageEnder.h</text>
</a>
</g>
<!-- Node8&#45;&gt;Node9 -->
<g id="edge18" class="edge"><title>Node8&#45;&gt;Node9</title>
<path style="fill:none;stroke:midnightblue;" d="M748,-464C724,-454 691,-441 666,-431"/>
<polygon style="fill:midnightblue;stroke:midnightblue;" points="667.56,-427.863 657,-427 664.717,-434.26 667.56,-427.863"/>
</g>
<!-- Node10 -->
<g id="node22" class="node"><title>Node10</title>
<polygon style="fill:white;stroke:#bfbfbf;" points="752,-406 752,-427 798,-427 798,-406 752,-406"/>
<text text-anchor="middle" x="775" y="-413" style="font-family:Arial;font-size:10.00;">string</text>
</g>
<!-- Node8&#45;&gt;Node10 -->
<g id="edge24" class="edge"><title>Node8&#45;&gt;Node10</title>
<path style="fill:none;stroke:midnightblue;" d="M775,-464C775,-456 775,-446 775,-437"/>
<polygon style="fill:midnightblue;stroke:midnightblue;" points="778.5,-437 775,-427 771.5,-437 778.5,-437"/>
</g>
<!-- Node9&#45;&gt;Node3 -->
<g id="edge20" class="edge"><title>Node9&#45;&gt;Node3</title>
<path style="fill:none;stroke:midnightblue;" d="M617,-406C605,-397 588,-385 574,-375"/>
<polygon style="fill:midnightblue;stroke:midnightblue;" points="576.1,-372.2 566,-369 571.9,-377.8 576.1,-372.2"/>
</g>
<!-- Node9&#45;&gt;Node4 -->
<g id="edge22" class="edge"><title>Node9&#45;&gt;Node4</title>
<path style="fill:none;stroke:midnightblue;" d="M630,-406C627,-392 622,-368 617,-348 616,-339 613,-329 611,-321"/>
<polygon style="fill:midnightblue;stroke:midnightblue;" points="614.393,-320.119 609,-311 607.529,-321.492 614.393,-320.119"/>
</g>
<!-- Node11&#45;&gt;Node3 -->
<g id="edge28" class="edge"><title>Node11&#45;&gt;Node3</title>
<path style="fill:none;stroke:midnightblue;" d="M470,-464C486,-444 519,-402 538,-377"/>
<polygon style="fill:midnightblue;stroke:midnightblue;" points="540.8,-379.1 544,-369 535.2,-374.9 540.8,-379.1"/>
</g>
<!-- Node11&#45;&gt;Node9 -->
<g id="edge30" class="edge"><title>Node11&#45;&gt;Node9</title>
<path style="fill:none;stroke:midnightblue;" d="M494,-464C522,-454 563,-440 592,-430"/>
<polygon style="fill:midnightblue;stroke:midnightblue;" points="593.427,-433.226 602,-427 591.416,-426.521 593.427,-433.226"/>
</g>
<!-- Node12&#45;&gt;Node3 -->
<g id="edge34" class="edge"><title>Node12&#45;&gt;Node3</title>
<path style="fill:none;stroke:midnightblue;" d="M605,-464C594,-455 580,-442 571,-428 562,-413 557,-394 555,-379"/>
<polygon style="fill:midnightblue;stroke:midnightblue;" points="558.393,-378.119 553,-369 551.529,-379.492 558.393,-378.119"/>
</g>
<!-- Node12&#45;&gt;Node9 -->
<g id="edge36" class="edge"><title>Node12&#45;&gt;Node9</title>
<path style="fill:none;stroke:midnightblue;" d="M622,-464C624,-456 626,-446 628,-437"/>
<polygon style="fill:midnightblue;stroke:midnightblue;" points="631.471,-437.492 630,-427 624.607,-436.119 631.471,-437.492"/>
</g>
<!-- Node13&#45;&gt;Node3 -->
<g id="edge40" class="edge"><title>Node13&#45;&gt;Node3</title>
<path style="fill:none;stroke:midnightblue;" d="M909,-464C888,-448 847,-421 807,-406 790,-399 689,-382 619,-370"/>
<polygon style="fill:midnightblue;stroke:midnightblue;" points="619.492,-366.529 609,-368 618.119,-373.393 619.492,-366.529"/>
</g>
<!-- Node13&#45;&gt;Node9 -->
<g id="edge42" class="edge"><title>Node13&#45;&gt;Node9</title>
<path style="fill:none;stroke:midnightblue;" d="M875,-465C825,-456 747,-440 692,-429"/>
<polygon style="fill:midnightblue;stroke:midnightblue;" points="692.492,-425.529 682,-427 691.119,-432.393 692.492,-425.529"/>
</g>
<!-- Node14&#45;&gt;Node3 -->
<g id="edge46" class="edge"><title>Node14&#45;&gt;Node3</title>
<path style="fill:none;stroke:midnightblue;" d="M338,-464C381,-443 474,-397 522,-374"/>
<polygon style="fill:midnightblue;stroke:midnightblue;" points="523.958,-376.916 531,-369 520.559,-370.797 523.958,-376.916"/>
</g>
<!-- Node14&#45;&gt;Node5 -->
<g id="edge50" class="edge"><title>Node14&#45;&gt;Node5</title>
<path style="fill:none;stroke:midnightblue;" d="M298,-464C271,-445 225,-406 225,-359 225,-359 225,-359 225,-127 225,-58 317,-29 371,-17"/>
<polygon style="fill:midnightblue;stroke:midnightblue;" points="371.881,-20.3933 381,-15 370.508,-13.5292 371.881,-20.3933"/>
</g>
<!-- Node14&#45;&gt;Node9 -->
<g id="edge48" class="edge"><title>Node14&#45;&gt;Node9</title>
<path style="fill:none;stroke:midnightblue;" d="M357,-466C360,-465 363,-465 366,-464 436,-450 516,-436 570,-427"/>
<polygon style="fill:midnightblue;stroke:midnightblue;" points="570.881,-430.393 580,-425 569.508,-423.529 570.881,-430.393"/>
</g>
<!-- Node15&#45;&gt;Node3 -->
<g id="edge54" class="edge"><title>Node15&#45;&gt;Node3</title>
<path style="fill:none;stroke:midnightblue;" d="M1002,-464C968,-449 904,-421 846,-406 841,-404 704,-383 619,-370"/>
<polygon style="fill:midnightblue;stroke:midnightblue;" points="619.492,-366.529 609,-368 618.119,-373.393 619.492,-366.529"/>
</g>
<!-- Node15&#45;&gt;Node9 -->
<g id="edge56" class="edge"><title>Node15&#45;&gt;Node9</title>
<path style="fill:none;stroke:midnightblue;" d="M991,-466C988,-465 985,-464 982,-464 882,-445 765,-430 694,-423"/>
<polygon style="fill:midnightblue;stroke:midnightblue;" points="694.299,-419.512 684,-422 693.602,-426.478 694.299,-419.512"/>
</g>
<!-- Node16&#45;&gt;Node3 -->
<g id="edge60" class="edge"><title>Node16&#45;&gt;Node3</title>
<path style="fill:none;stroke:midnightblue;" d="M222,-464C290,-442 439,-395 510,-372"/>
<polygon style="fill:midnightblue;stroke:midnightblue;" points="511.427,-375.226 520,-369 509.416,-368.521 511.427,-375.226"/>
</g>
<!-- Node16&#45;&gt;Node5 -->
<g id="edge64" class="edge"><title>Node16&#45;&gt;Node5</title>
<path style="fill:none;stroke:midnightblue;" d="M187,-464C187,-443 187,-397 187,-359 187,-359 187,-359 187,-127 187,-45 307,-21 371,-14"/>
<polygon style="fill:midnightblue;stroke:midnightblue;" points="371.398,-17.4778 381,-13 370.701,-10.5125 371.398,-17.4778"/>
</g>
<!-- Node16&#45;&gt;Node9 -->
<g id="edge62" class="edge"><title>Node16&#45;&gt;Node9</title>
<path style="fill:none;stroke:midnightblue;" d="M256,-465C259,-465 261,-464 264,-464 372,-449 497,-433 570,-424"/>
<polygon style="fill:midnightblue;stroke:midnightblue;" points="570.398,-427.478 580,-423 569.701,-420.512 570.398,-427.478"/>
</g>
<!-- Node18 -->
<g id="node53" class="node"><title>Node18</title>
<polygon style="fill:white;stroke:#bfbfbf;" points="1574,-0 1574,-21 1638,-21 1638,-0 1574,-0"/>
<text text-anchor="middle" x="1606" y="-7" style="font-family:Arial;font-size:10.00;">iostream</text>
</g>
<!-- Node17&#45;&gt;Node18 -->
<g id="edge70" class="edge"><title>Node17&#45;&gt;Node18</title>
<path style="fill:none;stroke:midnightblue;" d="M1456,-464C1535,-446 1677,-406 1677,-359 1677,-359 1677,-359 1677,-127 1677,-87 1646,-49 1625,-28"/>
<polygon style="fill:midnightblue;stroke:midnightblue;" points="1627.55,-25.5962 1618,-21 1622.6,-30.546 1627.55,-25.5962"/>
</g>
<!-- Node19 -->
<g id="node55" class="node"><title>Node19</title>
<a xlink:href="_semaphore_8h.html" target="_top" xlink:title="Semaphore.h">
<polygon style="fill:white;stroke:black;" points="1500,-116 1500,-137 1590,-137 1590,-116 1500,-116"/>
<text text-anchor="middle" x="1545" y="-123" style="font-family:Arial;font-size:10.00;">Semaphore.h</text>
</a>
</g>
<!-- Node17&#45;&gt;Node19 -->
<g id="edge72" class="edge"><title>Node17&#45;&gt;Node19</title>
<path style="fill:none;stroke:midnightblue;" d="M1417,-464C1427,-455 1440,-442 1448,-428 1505,-330 1533,-197 1541,-147"/>
<polygon style="fill:midnightblue;stroke:midnightblue;" points="1544.47,-147.492 1543,-137 1537.61,-146.119 1544.47,-147.492"/>
</g>
<!-- Node17&#45;&gt;Node20 -->
<g id="edge76" class="edge"><title>Node17&#45;&gt;Node20</title>
<path style="fill:none;stroke:midnightblue;" d="M1401,-464C1393,-435 1371,-358 1360,-321"/>
<polygon style="fill:midnightblue;stroke:midnightblue;" points="1363.23,-319.573 1357,-311 1356.52,-321.584 1363.23,-319.573"/>
</g>
<!-- Node17&#45;&gt;Node25 -->
<g id="edge104" class="edge"><title>Node17&#45;&gt;Node25</title>
<path style="fill:none;stroke:midnightblue;" d="M1411,-464C1424,-444 1449,-400 1449,-359 1449,-359 1449,-359 1449,-301 1449,-258 1411,-221 1384,-201"/>
<polygon style="fill:midnightblue;stroke:midnightblue;" points="1386.1,-198.2 1376,-195 1381.9,-203.8 1386.1,-198.2"/>
</g>
<!-- Node17&#45;&gt;Node27 -->
<g id="edge106" class="edge"><title>Node17&#45;&gt;Node27</title>
<path style="fill:none;stroke:midnightblue;" d="M1369,-464C1343,-454 1307,-441 1281,-431"/>
<polygon style="fill:midnightblue;stroke:midnightblue;" points="1282.56,-427.863 1272,-427 1279.72,-434.26 1282.56,-427.863"/>
</g>
<!-- Node19&#45;&gt;Node18 -->
<g id="edge74" class="edge"><title>Node19&#45;&gt;Node18</title>
<path style="fill:none;stroke:midnightblue;" d="M1551,-116C1562,-97 1583,-55 1596,-30"/>
<polygon style="fill:midnightblue;stroke:midnightblue;" points="1599.2,-31.4414 1601,-21 1593.08,-28.0418 1599.2,-31.4414"/>
</g>
<!-- Node21 -->
<g id="node60" class="node"><title>Node21</title>
<a xlink:href="_thread_base_8h.html" target="_top" xlink:title="ThreadBase.h">
<polygon style="fill:white;stroke:black;" points="1354,-116 1354,-137 1445,-137 1445,-116 1354,-116"/>
<text text-anchor="middle" x="1399" y="-123" style="font-family:Arial;font-size:10.00;">ThreadBase.h</text>
</a>
</g>
<!-- Node20&#45;&gt;Node21 -->
<g id="edge78" class="edge"><title>Node20&#45;&gt;Node21</title>
<path style="fill:none;stroke:midnightblue;" d="M1373,-290C1399,-273 1446,-239 1466,-196 1469,-187 1470,-182 1466,-174 1459,-160 1446,-150 1433,-142"/>
<polygon style="fill:midnightblue;stroke:midnightblue;" points="1434.44,-138.797 1424,-137 1431.04,-144.916 1434.44,-138.797"/>
</g>
<!-- Node22 -->
<g id="node62" class="node"><title>Node22</title>
<a xlink:href="_t_c_p_server_8h.html" target="_top" xlink:title="TCPServer.h">
<polygon style="fill:white;stroke:black;" points="1017,-232 1017,-253 1099,-253 1099,-232 1017,-232"/>
<text text-anchor="middle" x="1058" y="-239" style="font-family:Arial;font-size:10.00;">TCPServer.h</text>
</a>
</g>
<!-- Node20&#45;&gt;Node22 -->
<g id="edge80" class="edge"><title>Node20&#45;&gt;Node22</title>
<path style="fill:none;stroke:midnightblue;" d="M1298,-290C1244,-280 1162,-263 1109,-253"/>
<polygon style="fill:midnightblue;stroke:midnightblue;" points="1109.49,-249.529 1099,-251 1108.12,-256.393 1109.49,-249.529"/>
</g>
<!-- Node20&#45;&gt;Node25 -->
<g id="edge102" class="edge"><title>Node20&#45;&gt;Node25</title>
<path style="fill:none;stroke:midnightblue;" d="M1355,-290C1356,-271 1358,-230 1360,-205"/>
<polygon style="fill:midnightblue;stroke:midnightblue;" points="1363.5,-205 1360,-195 1356.5,-205 1363.5,-205"/>
</g>
<!-- Node23 -->
<g id="node64" class="node"><title>Node23</title>
<a xlink:href="_socket_base_8h.html" target="_top" xlink:title="SocketBase.h">
<polygon style="fill:white;stroke:black;" points="1193,-58 1193,-79 1282,-79 1282,-58 1193,-58"/>
<text text-anchor="middle" x="1237" y="-65" style="font-family:Arial;font-size:10.00;">SocketBase.h</text>
</a>
</g>
<!-- Node22&#45;&gt;Node23 -->
<g id="edge82" class="edge"><title>Node22&#45;&gt;Node23</title>
<path style="fill:none;stroke:midnightblue;" d="M1086,-232C1122,-216 1183,-184 1218,-138 1228,-124 1233,-104 1235,-89"/>
<polygon style="fill:midnightblue;stroke:midnightblue;" points="1238.49,-89.2987 1236,-79 1231.52,-88.6021 1238.49,-89.2987"/>
</g>
<!-- Node24 -->
<g id="node67" class="node"><title>Node24</title>
<a xlink:href="_i_p_address_8h.html" target="_top" xlink:title="IPAddress.h">
<polygon style="fill:white;stroke:black;" points="1005,-58 1005,-79 1082,-79 1082,-58 1005,-58"/>
<text text-anchor="middle" x="1043" y="-65" style="font-family:Arial;font-size:10.00;">IPAddress.h</text>
</a>
</g>
<!-- Node22&#45;&gt;Node24 -->
<g id="edge86" class="edge"><title>Node22&#45;&gt;Node24</title>
<path style="fill:none;stroke:midnightblue;" d="M1057,-232C1055,-203 1048,-126 1045,-89"/>
<polygon style="fill:midnightblue;stroke:midnightblue;" points="1048.48,-88.6021 1044,-79 1041.51,-89.2987 1048.48,-88.6021"/>
</g>
<!-- Node22&#45;&gt;Node25 -->
<g id="edge90" class="edge"><title>Node22&#45;&gt;Node25</title>
<path style="fill:none;stroke:midnightblue;" d="M1099,-234C1104,-234 1109,-233 1113,-232 1175,-220 1246,-206 1296,-197"/>
<polygon style="fill:midnightblue;stroke:midnightblue;" points="1296.88,-200.393 1306,-195 1295.51,-193.529 1296.88,-200.393"/>
</g>
<!-- Node23&#45;&gt;Node18 -->
<g id="edge84" class="edge"><title>Node23&#45;&gt;Node18</title>
<path style="fill:none;stroke:midnightblue;" d="M1282,-62C1354,-51 1494,-28 1564,-18"/>
<polygon style="fill:midnightblue;stroke:midnightblue;" points="1564.88,-21.3933 1574,-16 1563.51,-14.5292 1564.88,-21.3933"/>
</g>
<!-- Node24&#45;&gt;Node5 -->
<g id="edge88" class="edge"><title>Node24&#45;&gt;Node5</title>
<path style="fill:none;stroke:midnightblue;" d="M1005,-66C892,-55 561,-25 447,-15"/>
<polygon style="fill:midnightblue;stroke:midnightblue;" points="447.299,-11.5125 437,-14 446.602,-18.4778 447.299,-11.5125"/>
</g>
<!-- Node25&#45;&gt;Node19 -->
<g id="edge100" class="edge"><title>Node25&#45;&gt;Node19</title>
<path style="fill:none;stroke:midnightblue;" d="M1396,-174C1427,-164 1471,-150 1503,-140"/>
<polygon style="fill:midnightblue;stroke:midnightblue;" points="1504.43,-143.226 1513,-137 1502.42,-136.521 1504.43,-143.226"/>
</g>
<!-- Node25&#45;&gt;Node21 -->
<g id="edge98" class="edge"><title>Node25&#45;&gt;Node21</title>
<path style="fill:none;stroke:midnightblue;" d="M1368,-174C1373,-166 1381,-155 1387,-146"/>
<polygon style="fill:midnightblue;stroke:midnightblue;" points="1390.2,-147.441 1392,-137 1384.08,-144.042 1390.2,-147.441"/>
</g>
<!-- Node26 -->
<g id="node72" class="node"><title>Node26</title>
<a xlink:href="_t_c_p_connected_client_8h.html" target="_top" xlink:title="TCPConnectedClient.h">
<polygon style="fill:white;stroke:black;" points="1071,-116 1071,-137 1210,-137 1210,-116 1071,-116"/>
<text text-anchor="middle" x="1140" y="-123" style="font-family:Arial;font-size:10.00;">TCPConnectedClient.h</text>
</a>
</g>
<!-- Node25&#45;&gt;Node26 -->
<g id="edge92" class="edge"><title>Node25&#45;&gt;Node26</title>
<path style="fill:none;stroke:midnightblue;" d="M1319,-174C1282,-164 1227,-149 1188,-139"/>
<polygon style="fill:midnightblue;stroke:midnightblue;" points="1188.49,-135.529 1178,-137 1187.12,-142.393 1188.49,-135.529"/>
</g>
<!-- Node26&#45;&gt;Node23 -->
<g id="edge94" class="edge"><title>Node26&#45;&gt;Node23</title>
<path style="fill:none;stroke:midnightblue;" d="M1159,-116C1174,-107 1195,-94 1211,-84"/>
<polygon style="fill:midnightblue;stroke:midnightblue;" points="1212.96,-86.916 1220,-79 1209.56,-80.7969 1212.96,-86.916"/>
</g>
<!-- Node26&#45;&gt;Node24 -->
<g id="edge96" class="edge"><title>Node26&#45;&gt;Node24</title>
<path style="fill:none;stroke:midnightblue;" d="M1121,-116C1106,-107 1085,-94 1069,-84"/>
<polygon style="fill:midnightblue;stroke:midnightblue;" points="1070.44,-80.7969 1060,-79 1067.04,-86.916 1070.44,-80.7969"/>
</g>
<!-- Node27&#45;&gt;Node2 -->
<g id="edge110" class="edge"><title>Node27&#45;&gt;Node2</title>
<path style="fill:none;stroke:midnightblue;" d="M1246,-427C1236,-441 1211,-467 1188,-486 1174,-497 1157,-508 1143,-517"/>
<polygon style="fill:midnightblue;stroke:midnightblue;" points="1141.04,-514.084 1134,-522 1144.44,-520.203 1141.04,-514.084"/>
</g>
<!-- Node27&#45;&gt;Node7 -->
<g id="edge108" class="edge"><title>Node27&#45;&gt;Node7</title>
<path style="fill:none;stroke:midnightblue;" d="M1193,-413C1072,-403 779,-376 529,-312"/>
<polygon style="fill:midnightblue;stroke:midnightblue;" points="529.584,-308.521 519,-309 527.573,-315.226 529.584,-308.521"/>
</g>
<!-- Node27&#45;&gt;Node17 -->
<g id="edge112" class="edge"><title>Node27&#45;&gt;Node17</title>
<path style="fill:none;stroke:midnightblue;" d="M1282,-427C1308,-436 1344,-450 1371,-460"/>
<polygon style="fill:midnightblue;stroke:midnightblue;" points="1369.44,-463.137 1380,-464 1372.28,-456.74 1369.44,-463.137"/>
</g>
<!-- Node28 -->
<g id="node85" class="node"><title>Node28</title>
<a xlink:href="_control_manager_8h.html" target="_top" xlink:title="ControlManager.h">
<polygon style="fill:white;stroke:black;" points="1235,-348 1235,-369 1349,-369 1349,-348 1235,-348"/>
<text text-anchor="middle" x="1292" y="-355" style="font-family:Arial;font-size:10.00;">ControlManager.h</text>
</a>
</g>
<!-- Node27&#45;&gt;Node28 -->
<g id="edge114" class="edge"><title>Node27&#45;&gt;Node28</title>
<path style="fill:none;stroke:midnightblue;" d="M1253,-406C1258,-397 1265,-386 1273,-377"/>
<polygon style="fill:midnightblue;stroke:midnightblue;" points="1276.05,-378.831 1280,-369 1270.78,-374.221 1276.05,-378.831"/>
</g>
<!-- Node27&#45;&gt;Node29 -->
<g id="edge134" class="edge"><title>Node27&#45;&gt;Node29</title>
<path style="fill:none;stroke:midnightblue;" d="M1283,-406C1348,-385 1491,-338 1560,-314"/>
<polygon style="fill:midnightblue;stroke:midnightblue;" points="1561.43,-317.226 1570,-311 1559.42,-310.521 1561.43,-317.226"/>
</g>
<!-- Node28&#45;&gt;Node1 -->
<g id="edge124" class="edge"><title>Node28&#45;&gt;Node1</title>
<path style="fill:none;stroke:midnightblue;" d="M1298,-369C1303,-378 1311,-393 1316,-406 1329,-440 1325,-451 1340,-486 1353,-517 1374,-551 1388,-572"/>
<polygon style="fill:midnightblue;stroke:midnightblue;" points="1385.2,-574.1 1394,-580 1390.8,-569.9 1385.2,-574.1"/>
</g>
<!-- Node28&#45;&gt;Node2 -->
<g id="edge126" class="edge"><title>Node28&#45;&gt;Node2</title>
<path style="fill:none;stroke:midnightblue;" d="M1252,-369C1230,-376 1203,-388 1184,-406 1154,-433 1162,-451 1141,-486 1135,-495 1128,-505 1122,-514"/>
<polygon style="fill:midnightblue;stroke:midnightblue;" points="1119.2,-511.9 1116,-522 1124.8,-516.1 1119.2,-511.9"/>
</g>
<!-- Node28&#45;&gt;Node17 -->
<g id="edge120" class="edge"><title>Node28&#45;&gt;Node17</title>
<path style="fill:none;stroke:midnightblue;" d="M1306,-369C1318,-378 1335,-392 1349,-406 1364,-421 1379,-441 1390,-456"/>
<polygon style="fill:midnightblue;stroke:midnightblue;" points="1387.2,-458.1 1396,-464 1392.8,-453.9 1387.2,-458.1"/>
</g>
<!-- Node28&#45;&gt;Node20 -->
<g id="edge118" class="edge"><title>Node28&#45;&gt;Node20</title>
<path style="fill:none;stroke:midnightblue;" d="M1304,-348C1313,-339 1325,-328 1335,-318"/>
<polygon style="fill:midnightblue;stroke:midnightblue;" points="1337.78,-320.219 1343,-311 1333.17,-314.951 1337.78,-320.219"/>
</g>
<!-- Node28&#45;&gt;Node25 -->
<g id="edge122" class="edge"><title>Node28&#45;&gt;Node25</title>
<path style="fill:none;stroke:midnightblue;" d="M1286,-348C1279,-334 1271,-309 1278,-290 1290,-254 1321,-221 1341,-202"/>
<polygon style="fill:midnightblue;stroke:midnightblue;" points="1343.78,-204.219 1349,-195 1339.17,-198.951 1343.78,-204.219"/>
</g>
<!-- Node28&#45;&gt;Node27 -->
<g id="edge116" class="edge"><title>Node28&#45;&gt;Node27</title>
<path style="fill:none;stroke:midnightblue;" d="M1290,-369C1286,-377 1278,-388 1270,-398"/>
<polygon style="fill:midnightblue;stroke:midnightblue;" points="1267.2,-395.9 1264,-406 1272.8,-400.1 1267.2,-395.9"/>
</g>
<!-- Node28&#45;&gt;Node29 -->
<g id="edge128" class="edge"><title>Node28&#45;&gt;Node29</title>
<path style="fill:none;stroke:midnightblue;" d="M1349,-348C1408,-338 1501,-320 1556,-310"/>
<polygon style="fill:midnightblue;stroke:midnightblue;" points="1556.88,-313.393 1566,-308 1555.51,-306.529 1556.88,-313.393"/>
</g>
<!-- Node29&#45;&gt;Node18 -->
<g id="edge130" class="edge"><title>Node29&#45;&gt;Node18</title>
<path style="fill:none;stroke:midnightblue;" d="M1607,-290C1618,-270 1639,-225 1639,-185 1639,-185 1639,-185 1639,-127 1639,-91 1625,-53 1615,-30"/>
<polygon style="fill:midnightblue;stroke:midnightblue;" points="1618.26,-28.7166 1611,-21 1611.86,-31.5596 1618.26,-28.7166"/>
</g>
<!-- Node29&#45;&gt;Node19 -->
<g id="edge132" class="edge"><title>Node29&#45;&gt;Node19</title>
<path style="fill:none;stroke:midnightblue;" d="M1597,-290C1588,-261 1563,-184 1551,-147"/>
<polygon style="fill:midnightblue;stroke:midnightblue;" points="1554.23,-145.573 1548,-137 1547.52,-147.584 1554.23,-145.573"/>
</g>
</g>
</svg>
