<?xml version="1.0" encoding="UTF-8" standalone="no"?>
<!DOCTYPE svg PUBLIC "-//W3C//DTD SVG 1.0//EN"
 "http://www.w3.org/TR/2001/REC-SVG-20010904/DTD/svg10.dtd" [
 <!ATTLIST svg xmlns:xlink CDATA #FIXED "http://www.w3.org/1999/xlink">
]>
<!-- Generated by Graphviz version 2.14.1 (Fri Nov  9 08:19:38 GMT 2007)
     For user: (asakyurek) Alper Sinan Akyurek -->
<!-- Title: ErrorPrint Pages: 1 -->
<svg width="1192pt" height="332pt"
 viewBox="0.00 0.00 1192.00 332.00" xmlns="http://www.w3.org/2000/svg" xmlns:xlink="http://www.w3.org/1999/xlink">
<g id="graph0" class="graph" transform="scale(1 1) rotate(0) translate(4 328)">
<title>ErrorPrint</title>
<polygon style="fill:white;stroke:white;" points="-4,4 -4,-328 1188,-328 1188,4 -4,4"/>
<!-- Node1 -->
<g id="node1" class="node"><title>Node1</title>
<polygon style="fill:#bfbfbf;stroke:black;" points="1,-151 1,-172 66,-172 66,-151 1,-151"/>
<text text-anchor="middle" x="33" y="-158" style="font-family:Arial;font-size:10.00;">ErrorPrint</text>
</g>
<!-- Node2 -->
<g id="node3" class="node"><title>Node2</title>
<a xlink:href="class_control_manager.html#a2dc55da1b01fd175b3d885c68b8a7524" target="_top" xlink:title="ControlManager::ProcessData">
<polygon style="fill:white;stroke:black;" points="118,-303 118,-324 294,-324 294,-303 118,-303"/>
<text text-anchor="middle" x="206" y="-310" style="font-family:Arial;font-size:10.00;">ControlManager::ProcessData</text>
</a>
</g>
<!-- Node1&#45;&gt;Node2 -->
<g id="edge2" class="edge"><title>Node1&#45;&gt;Node2</title>
<path style="fill:none;stroke:midnightblue;" d="M37,-182C45,-212 65,-267 102,-295 107,-298 112,-301 118,-304"/>
<polygon style="fill:midnightblue;stroke:midnightblue;" points="40.3933,-181.119 35,-172 33.5292,-182.492 40.3933,-181.119"/>
</g>
<!-- Node7 -->
<g id="node13" class="node"><title>Node7</title>
<a xlink:href="class_control_manager.html#a927449c3a4ba8a5bdc23e3747d5bb077" target="_top" xlink:title="ControlManager::GetClientName">
<polygon style="fill:white;stroke:black;" points="109,-265 109,-286 303,-286 303,-265 109,-265"/>
<text text-anchor="middle" x="206" y="-272" style="font-family:Arial;font-size:10.00;">ControlManager::GetClientName</text>
</a>
</g>
<!-- Node1&#45;&gt;Node7 -->
<g id="edge12" class="edge"><title>Node1&#45;&gt;Node7</title>
<path style="fill:none;stroke:midnightblue;" d="M41,-181C52,-203 73,-239 102,-257 107,-260 112,-263 118,-265"/>
<polygon style="fill:midnightblue;stroke:midnightblue;" points="44.2598,-179.717 37,-172 37.8631,-182.56 44.2598,-179.717"/>
</g>
<!-- Node8 -->
<g id="node15" class="node"><title>Node8</title>
<a xlink:href="_log_print_8h.html#a15fcf3e40285c82d9253581f3dda2e66" target="_top" xlink:title="ErrorPrint">
<polygon style="fill:white;stroke:black;" points="174,-227 174,-248 239,-248 239,-227 174,-227"/>
<text text-anchor="middle" x="206" y="-234" style="font-family:Arial;font-size:10.00;">ErrorPrint</text>
</a>
</g>
<!-- Node1&#45;&gt;Node8 -->
<g id="edge14" class="edge"><title>Node1&#45;&gt;Node8</title>
<path style="fill:none;stroke:midnightblue;" d="M49,-179C62,-192 82,-209 102,-219 125,-229 153,-234 174,-236"/>
<polygon style="fill:midnightblue;stroke:midnightblue;" points="51.546,-176.596 42,-172 46.5962,-181.546 51.546,-176.596"/>
</g>
<!-- Node9 -->
<g id="node17" class="node"><title>Node9</title>
<a xlink:href="class_matlab_manager.html#a7219113b7bc0744fe8faa94d599fe826" target="_top" xlink:title="MatlabManager::ProcessData">
<polygon style="fill:white;stroke:black;" points="120,-189 120,-210 293,-210 293,-189 120,-189"/>
<text text-anchor="middle" x="206" y="-196" style="font-family:Arial;font-size:10.00;">MatlabManager::ProcessData</text>
</a>
</g>
<!-- Node1&#45;&gt;Node9 -->
<g id="edge16" class="edge"><title>Node1&#45;&gt;Node9</title>
<path style="fill:none;stroke:midnightblue;" d="M76,-174C84,-177 93,-179 102,-181 115,-184 129,-187 142,-189"/>
<polygon style="fill:midnightblue;stroke:midnightblue;" points="76.584,-170.521 66,-171 74.5725,-177.226 76.584,-170.521"/>
</g>
<!-- Node14 -->
<g id="node27" class="node"><title>Node14</title>
<a xlink:href="class_matlab_manager.html#a1c967acc77ef8db3113e83a5325b5729" target="_top" xlink:title="MatlabManager::IsClientPresent">
<polygon style="fill:white;stroke:black;" points="113,-151 113,-172 300,-172 300,-151 113,-151"/>
<text text-anchor="middle" x="206" y="-158" style="font-family:Arial;font-size:10.00;">MatlabManager::IsClientPresent</text>
</a>
</g>
<!-- Node1&#45;&gt;Node14 -->
<g id="edge26" class="edge"><title>Node1&#45;&gt;Node14</title>
<path style="fill:none;stroke:midnightblue;" d="M76,-162C88,-162 100,-162 113,-162"/>
<polygon style="fill:midnightblue;stroke:midnightblue;" points="76,-158.5 66,-162 76,-165.5 76,-158.5"/>
</g>
<!-- Node15 -->
<g id="node29" class="node"><title>Node15</title>
<a xlink:href="class_matlab_manager.html#a2967a226a9c6a9ed22998cad67afed3c" target="_top" xlink:title="MatlabManager::SetWattage">
<polygon style="fill:white;stroke:black;" points="121,-113 121,-134 292,-134 292,-113 121,-113"/>
<text text-anchor="middle" x="206" y="-120" style="font-family:Arial;font-size:10.00;">MatlabManager::SetWattage</text>
</a>
</g>
<!-- Node1&#45;&gt;Node15 -->
<g id="edge28" class="edge"><title>Node1&#45;&gt;Node15</title>
<path style="fill:none;stroke:midnightblue;" d="M76,-150C85,-147 93,-145 102,-143 116,-140 131,-137 145,-134"/>
<polygon style="fill:midnightblue;stroke:midnightblue;" points="75.1194,-146.607 66,-152 76.4922,-153.471 75.1194,-146.607"/>
</g>
<!-- Node18 -->
<g id="node35" class="node"><title>Node18</title>
<a xlink:href="class_matlab_manager.html#afc7fd3eb3469eb7be2af5b857e6f45e1" target="_top" xlink:title="MatlabManager::GetWattage">
<polygon style="fill:white;stroke:black;" points="120,-75 120,-96 292,-96 292,-75 120,-75"/>
<text text-anchor="middle" x="206" y="-82" style="font-family:Arial;font-size:10.00;">MatlabManager::GetWattage</text>
</a>
</g>
<!-- Node1&#45;&gt;Node18 -->
<g id="edge34" class="edge"><title>Node1&#45;&gt;Node18</title>
<path style="fill:none;stroke:midnightblue;" d="M50,-144C63,-130 82,-114 102,-105 110,-101 118,-98 127,-96"/>
<polygon style="fill:midnightblue;stroke:midnightblue;" points="47.5962,-141.454 43,-151 52.546,-146.404 47.5962,-141.454"/>
</g>
<!-- Node19 -->
<g id="node37" class="node"><title>Node19</title>
<a xlink:href="class_matlab_manager.html#ab741bd4f6545e11dd7dd28548c5229dd" target="_top" xlink:title="MatlabManager::GetVoltage">
<polygon style="fill:white;stroke:black;" points="122,-37 122,-58 290,-58 290,-37 122,-37"/>
<text text-anchor="middle" x="206" y="-44" style="font-family:Arial;font-size:10.00;">MatlabManager::GetVoltage</text>
</a>
</g>
<!-- Node1&#45;&gt;Node19 -->
<g id="edge36" class="edge"><title>Node1&#45;&gt;Node19</title>
<path style="fill:none;stroke:midnightblue;" d="M42,-142C53,-120 73,-84 102,-67 108,-63 115,-60 122,-58"/>
<polygon style="fill:midnightblue;stroke:midnightblue;" points="38.8631,-140.44 38,-151 45.2598,-143.283 38.8631,-140.44"/>
</g>
<!-- Node20 -->
<g id="node39" class="node"><title>Node20</title>
<a xlink:href="class_matlab_manager.html#a55151e4e7f68cad7a8b18c93e9f0e0b1" target="_top" xlink:title="MatlabManager::AdvanceTimeStep">
<polygon style="fill:white;stroke:black;" points="103,1 103,-20 310,-20 310,1 103,1"/>
<text text-anchor="middle" x="206" y="-6" style="font-family:Arial;font-size:10.00;">MatlabManager::AdvanceTimeStep</text>
</a>
</g>
<!-- Node1&#45;&gt;Node20 -->
<g id="edge38" class="edge"><title>Node1&#45;&gt;Node20</title>
<path style="fill:none;stroke:midnightblue;" d="M37,-141C45,-111 65,-57 102,-29 107,-25 112,-23 118,-20"/>
<polygon style="fill:midnightblue;stroke:midnightblue;" points="33.5292,-140.508 35,-151 40.3933,-141.881 33.5292,-140.508"/>
</g>
<!-- Node3 -->
<g id="node5" class="node"><title>Node3</title>
<a xlink:href="_control_manager_8h.html#a295ee31280dd699294f5787580750ce4" target="_top" xlink:title="ControlReceiveHandler">
<polygon style="fill:white;stroke:black;" points="380,-303 380,-324 522,-324 522,-303 380,-303"/>
<text text-anchor="middle" x="451" y="-310" style="font-family:Arial;font-size:10.00;">ControlReceiveHandler</text>
</a>
</g>
<!-- Node2&#45;&gt;Node3 -->
<g id="edge4" class="edge"><title>Node2&#45;&gt;Node3</title>
<path style="fill:none;stroke:midnightblue;" d="M304,-314C329,-314 356,-314 380,-314"/>
<polygon style="fill:midnightblue;stroke:midnightblue;" points="304,-310.5 294,-314 304,-317.5 304,-310.5"/>
</g>
<!-- Node4 -->
<g id="node7" class="node"><title>Node4</title>
<a xlink:href="class_control_manager.html#a67d548535b36a78e315a0aa5f9f8e6c8" target="_top" xlink:title="ControlManager::SetClient">
<polygon style="fill:white;stroke:black;" points="592,-303 592,-324 752,-324 752,-303 592,-303"/>
<text text-anchor="middle" x="672" y="-310" style="font-family:Arial;font-size:10.00;">ControlManager::SetClient</text>
</a>
</g>
<!-- Node3&#45;&gt;Node4 -->
<g id="edge6" class="edge"><title>Node3&#45;&gt;Node4</title>
<path style="fill:none;stroke:midnightblue;" d="M532,-314C552,-314 573,-314 592,-314"/>
<polygon style="fill:midnightblue;stroke:midnightblue;" points="532,-310.5 522,-314 532,-317.5 532,-310.5"/>
</g>
<!-- Node5 -->
<g id="node9" class="node"><title>Node5</title>
<a xlink:href="_control_manager_8cpp.html#a5f09b25cf454170e17d1aa3c2707273a" target="_top" xlink:title="ControlNotificationHandler">
<polygon style="fill:white;stroke:black;" points="788,-303 788,-324 950,-324 950,-303 788,-303"/>
<text text-anchor="middle" x="869" y="-310" style="font-family:Arial;font-size:10.00;">ControlNotificationHandler</text>
</a>
</g>
<!-- Node4&#45;&gt;Node5 -->
<g id="edge8" class="edge"><title>Node4&#45;&gt;Node5</title>
<path style="fill:none;stroke:midnightblue;" d="M762,-314C771,-314 779,-314 788,-314"/>
<polygon style="fill:midnightblue;stroke:midnightblue;" points="762,-310.5 752,-314 762,-317.5 762,-310.5"/>
</g>
<!-- Node6 -->
<g id="node11" class="node"><title>Node6</title>
<a xlink:href="class_control_manager.html#ab81bac3e592705b7ca4b23ce473fe26e" target="_top" xlink:title="ControlManager::ControlManager">
<polygon style="fill:white;stroke:black;" points="986,-303 986,-324 1184,-324 1184,-303 986,-303"/>
<text text-anchor="middle" x="1085" y="-310" style="font-family:Arial;font-size:10.00;">ControlManager::ControlManager</text>
</a>
</g>
<!-- Node5&#45;&gt;Node6 -->
<g id="edge10" class="edge"><title>Node5&#45;&gt;Node6</title>
<path style="fill:none;stroke:midnightblue;" d="M960,-314C969,-314 977,-314 986,-314"/>
<polygon style="fill:midnightblue;stroke:midnightblue;" points="960,-310.5 950,-314 960,-317.5 960,-310.5"/>
</g>
<!-- Node10 -->
<g id="node19" class="node"><title>Node10</title>
<a xlink:href="_matlab_manager_8h.html#adde5ef25c1ac7d9ccf067e4bc4894675" target="_top" xlink:title="MatlabReceiveHandler">
<polygon style="fill:white;stroke:black;" points="382,-189 382,-210 521,-210 521,-189 382,-189"/>
<text text-anchor="middle" x="451" y="-196" style="font-family:Arial;font-size:10.00;">MatlabReceiveHandler</text>
</a>
</g>
<!-- Node9&#45;&gt;Node10 -->
<g id="edge18" class="edge"><title>Node9&#45;&gt;Node10</title>
<path style="fill:none;stroke:midnightblue;" d="M303,-200C329,-200 357,-200 382,-200"/>
<polygon style="fill:midnightblue;stroke:midnightblue;" points="303,-196.5 293,-200 303,-203.5 303,-196.5"/>
</g>
<!-- Node11 -->
<g id="node21" class="node"><title>Node11</title>
<a xlink:href="class_matlab_manager.html#ad5ff9f0aacdecada53a107e83b9e3712" target="_top" xlink:title="MatlabManager::SetClient">
<polygon style="fill:white;stroke:black;" points="594,-189 594,-210 751,-210 751,-189 594,-189"/>
<text text-anchor="middle" x="672" y="-196" style="font-family:Arial;font-size:10.00;">MatlabManager::SetClient</text>
</a>
</g>
<!-- Node10&#45;&gt;Node11 -->
<g id="edge20" class="edge"><title>Node10&#45;&gt;Node11</title>
<path style="fill:none;stroke:midnightblue;" d="M531,-200C551,-200 573,-200 594,-200"/>
<polygon style="fill:midnightblue;stroke:midnightblue;" points="531,-196.5 521,-200 531,-203.5 531,-196.5"/>
</g>
<!-- Node12 -->
<g id="node23" class="node"><title>Node12</title>
<a xlink:href="_matlab_manager_8cpp.html#aa340f269e04280ce987b3a8325f27580" target="_top" xlink:title="MatlabNotificationHandler">
<polygon style="fill:white;stroke:black;" points="790,-189 790,-210 949,-210 949,-189 790,-189"/>
<text text-anchor="middle" x="869" y="-196" style="font-family:Arial;font-size:10.00;">MatlabNotificationHandler</text>
</a>
</g>
<!-- Node11&#45;&gt;Node12 -->
<g id="edge22" class="edge"><title>Node11&#45;&gt;Node12</title>
<path style="fill:none;stroke:midnightblue;" d="M761,-200C771,-200 780,-200 790,-200"/>
<polygon style="fill:midnightblue;stroke:midnightblue;" points="761,-196.5 751,-200 761,-203.5 761,-196.5"/>
</g>
<!-- Node13 -->
<g id="node25" class="node"><title>Node13</title>
<a xlink:href="class_matlab_manager.html#a319d996a8872d9cdba8cf335520af258" target="_top" xlink:title="MatlabManager::MatlabManager">
<polygon style="fill:white;stroke:black;" points="989,-189 989,-210 1181,-210 1181,-189 989,-189"/>
<text text-anchor="middle" x="1085" y="-196" style="font-family:Arial;font-size:10.00;">MatlabManager::MatlabManager</text>
</a>
</g>
<!-- Node12&#45;&gt;Node13 -->
<g id="edge24" class="edge"><title>Node12&#45;&gt;Node13</title>
<path style="fill:none;stroke:midnightblue;" d="M959,-200C969,-200 979,-200 989,-200"/>
<polygon style="fill:midnightblue;stroke:midnightblue;" points="959,-196.5 949,-200 959,-203.5 959,-196.5"/>
</g>
<!-- Node16 -->
<g id="node31" class="node"><title>Node16</title>
<a xlink:href="class_system_manager.html#a87443d7e75b0f170535d315c27237253" target="_top" xlink:title="SystemManager::AdvanceTimeStep">
<polygon style="fill:white;stroke:black;" points="346,-56 346,-77 556,-77 556,-56 346,-56"/>
<text text-anchor="middle" x="451" y="-63" style="font-family:Arial;font-size:10.00;">SystemManager::AdvanceTimeStep</text>
</a>
</g>
<!-- Node15&#45;&gt;Node16 -->
<g id="edge30" class="edge"><title>Node15&#45;&gt;Node16</title>
<path style="fill:none;stroke:midnightblue;" d="M281,-111C291,-109 300,-107 310,-105 347,-96 388,-85 416,-77"/>
<polygon style="fill:midnightblue;stroke:midnightblue;" points="280.119,-107.607 271,-113 281.492,-114.471 280.119,-107.607"/>
</g>
<!-- Node17 -->
<g id="node33" class="node"><title>Node17</title>
<a xlink:href="main_8cpp.html#a3c04138a5bfe5d72780bb7e82a18e627" target="_top" xlink:title="main">
<polygon style="fill:white;stroke:black;" points="650,-56 650,-77 694,-77 694,-56 650,-56"/>
<text text-anchor="middle" x="672" y="-63" style="font-family:Arial;font-size:10.00;">main</text>
</a>
</g>
<!-- Node16&#45;&gt;Node17 -->
<g id="edge32" class="edge"><title>Node16&#45;&gt;Node17</title>
<path style="fill:none;stroke:midnightblue;" d="M566,-67C598,-67 630,-67 650,-67"/>
<polygon style="fill:midnightblue;stroke:midnightblue;" points="566,-63.5001 556,-67 566,-70.5001 566,-63.5001"/>
</g>
<!-- Node20&#45;&gt;Node16 -->
<g id="edge40" class="edge"><title>Node20&#45;&gt;Node16</title>
<path style="fill:none;stroke:midnightblue;" d="M275,-22C287,-24 299,-27 310,-29 345,-37 385,-48 413,-56"/>
<polygon style="fill:midnightblue;stroke:midnightblue;" points="275.492,-18.5292 265,-20 274.119,-25.3933 275.492,-18.5292"/>
</g>
</g>
</svg>
