<?xml version="1.0" encoding="UTF-8" standalone="no"?>
<!DOCTYPE svg PUBLIC "-//W3C//DTD SVG 1.0//EN"
 "http://www.w3.org/TR/2001/REC-SVG-20010904/DTD/svg10.dtd" [
 <!ATTLIST svg xmlns:xlink CDATA #FIXED "http://www.w3.org/1999/xlink">
]>
<!-- Generated by Graphviz version 2.14.1 (Fri Nov  9 08:19:38 GMT 2007)
     For user: (asakyurek) Alper Sinan Akyurek -->
<!-- Title: LogPrint Pages: 1 -->
<svg width="1226pt" height="1419pt"
 viewBox="0.00 0.00 1226.00 1419.00" xmlns="http://www.w3.org/2000/svg" xmlns:xlink="http://www.w3.org/1999/xlink">
<g id="graph0" class="graph" transform="scale(1 1) rotate(0) translate(4 1415)">
<title>LogPrint</title>
<polygon style="fill:white;stroke:white;" points="-4,4 -4,-1415 1222,-1415 1222,4 -4,4"/>
<!-- Node1 -->
<g id="node1" class="node"><title>Node1</title>
<polygon style="fill:#bfbfbf;stroke:black;" points="0,-684 0,-705 60,-705 60,-684 0,-684"/>
<text text-anchor="middle" x="30" y="-691" style="font-family:Arial;font-size:10.00;">LogPrint</text>
</g>
<!-- Node2 -->
<g id="node3" class="node"><title>Node2</title>
<a xlink:href="class_client_manager.html#abf05d2ac88337dfd02e0b7986ee1e18c" target="_top" xlink:title="Called when a message is received. ">
<polygon style="fill:white;stroke:black;" points="587,-1224 587,-1245 786,-1245 786,-1224 587,-1224"/>
<text text-anchor="middle" x="686" y="-1231" style="font-family:Arial;font-size:10.00;">ClientManager::MessageReceived</text>
</a>
</g>
<!-- Node1&#45;&gt;Node2 -->
<g id="edge2" class="edge"><title>Node1&#45;&gt;Node2</title>
<path style="fill:none;stroke:midnightblue;" d="M30,-715C34,-817 52,-1266 96,-1306 180,-1380 542,-1279 653,-1245"/>
<polygon style="fill:midnightblue;stroke:midnightblue;" points="33.5001,-715 30,-705 26.5001,-715 33.5001,-715"/>
</g>
<!-- Node3 -->
<g id="node5" class="node"><title>Node3</title>
<a xlink:href="class_client_manager.html#a6d544b4d20cd3b906b6a033c8d70e4a5" target="_top" xlink:title="Processes an asynchronous client connection request. ">
<polygon style="fill:white;stroke:black;" points="358,-1218 358,-1252 532,-1252 532,-1218 358,-1218"/>
<text text-anchor="start" x="366" y="-1238" style="font-family:Arial;font-size:10.00;">ClientManager::ProcessClient</text>
<text text-anchor="middle" x="445" y="-1225" style="font-family:Arial;font-size:10.00;">ConnectionRequest</text>
</a>
</g>
<!-- Node1&#45;&gt;Node3 -->
<g id="edge4" class="edge"><title>Node1&#45;&gt;Node3</title>
<path style="fill:none;stroke:midnightblue;" d="M31,-715C36,-807 60,-1181 96,-1216 133,-1250 267,-1248 358,-1242"/>
<polygon style="fill:midnightblue;stroke:midnightblue;" points="34.5001,-715 31,-705 27.5001,-715 34.5001,-715"/>
</g>
<!-- Node4 -->
<g id="node8" class="node"><title>Node4</title>
<a xlink:href="class_client_manager.html#a1dd815fe845945ae8966b3a3f449ba0e" target="_top" xlink:title="Processes the consumption information. ">
<polygon style="fill:white;stroke:black;" points="345,-1352 345,-1373 545,-1373 545,-1352 345,-1352"/>
<text text-anchor="middle" x="445" y="-1359" style="font-family:Arial;font-size:10.00;">ClientManager::ProcessClientData</text>
</a>
</g>
<!-- Node1&#45;&gt;Node4 -->
<g id="edge8" class="edge"><title>Node1&#45;&gt;Node4</title>
<path style="fill:none;stroke:midnightblue;" d="M30,-715C34,-820 51,-1294 96,-1339 130,-1372 254,-1374 345,-1370"/>
<polygon style="fill:midnightblue;stroke:midnightblue;" points="33.5001,-715 30,-705 26.5001,-715 33.5001,-715"/>
</g>
<!-- Node5 -->
<g id="node11" class="node"><title>Node5</title>
<a xlink:href="class_client_manager.html#a841299387a1dcd268266a3c0cfe2a95c" target="_top" xlink:title="Processes the price signal request. ">
<polygon style="fill:white;stroke:black;" points="365,-986 365,-1020 526,-1020 526,-986 365,-986"/>
<text text-anchor="start" x="373" y="-1006" style="font-family:Arial;font-size:10.00;">ClientManager::ProcessGet</text>
<text text-anchor="middle" x="445" y="-993" style="font-family:Arial;font-size:10.00;">Price</text>
</a>
</g>
<!-- Node1&#45;&gt;Node5 -->
<g id="edge12" class="edge"><title>Node1&#45;&gt;Node5</title>
<path style="fill:none;stroke:midnightblue;" d="M32,-715C36,-775 55,-948 96,-984 136,-1017 275,-1015 365,-1009"/>
<polygon style="fill:midnightblue;stroke:midnightblue;" points="35.4778,-714.602 31,-705 28.5125,-715.299 35.4778,-714.602"/>
</g>
<!-- Node6 -->
<g id="node14" class="node"><title>Node6</title>
<a xlink:href="class_client_manager.html#ad8841acd386513f41ab0872c67593ff4" target="_top" xlink:title="Processes the demand negotiation response. ">
<polygon style="fill:white;stroke:black;" points="351,-889 351,-923 540,-923 540,-889 351,-889"/>
<text text-anchor="start" x="359" y="-909" style="font-family:Arial;font-size:10.00;">ClientManager::ProcessDemand</text>
<text text-anchor="middle" x="445" y="-896" style="font-family:Arial;font-size:10.00;">Negotiation</text>
</a>
</g>
<!-- Node1&#45;&gt;Node6 -->
<g id="edge16" class="edge"><title>Node1&#45;&gt;Node6</title>
<path style="fill:none;stroke:midnightblue;" d="M34,-715C40,-746 58,-806 96,-837 101,-841 252,-870 354,-889"/>
<polygon style="fill:midnightblue;stroke:midnightblue;" points="37.3933,-714.119 32,-705 30.5292,-715.492 37.3933,-714.119"/>
</g>
<!-- Node7 -->
<g id="node17" class="node"><title>Node7</title>
<a xlink:href="class_client_manager.html#adb64a2ee5d0eb7b1a4bdedcd0e3b92f5" target="_top" xlink:title="ClientManager::SetCurrent\lPrice">
<polygon style="fill:white;stroke:black;" points="120,-1173 120,-1207 281,-1207 281,-1173 120,-1173"/>
<text text-anchor="start" x="128" y="-1193" style="font-family:Arial;font-size:10.00;">ClientManager::SetCurrent</text>
<text text-anchor="middle" x="200" y="-1180" style="font-family:Arial;font-size:10.00;">Price</text>
</a>
</g>
<!-- Node1&#45;&gt;Node7 -->
<g id="edge20" class="edge"><title>Node1&#45;&gt;Node7</title>
<path style="fill:none;stroke:midnightblue;" d="M32,-715C38,-801 65,-1130 96,-1164 103,-1171 111,-1177 120,-1180"/>
<polygon style="fill:midnightblue;stroke:midnightblue;" points="35.4778,-714.602 31,-705 28.5125,-715.299 35.4778,-714.602"/>
</g>
<!-- Node8 -->
<g id="node19" class="node"><title>Node8</title>
<a xlink:href="class_client_manager.html#ae297765312b5f2f93f7b8ec700ad2fbb" target="_top" xlink:title="ClientManager::PriceProposal">
<polygon style="fill:white;stroke:black;" points="113,-1134 113,-1155 287,-1155 287,-1134 113,-1134"/>
<text text-anchor="middle" x="200" y="-1141" style="font-family:Arial;font-size:10.00;">ClientManager::PriceProposal</text>
</a>
</g>
<!-- Node1&#45;&gt;Node8 -->
<g id="edge22" class="edge"><title>Node1&#45;&gt;Node8</title>
<path style="fill:none;stroke:midnightblue;" d="M32,-715C39,-797 67,-1096 96,-1126 101,-1131 107,-1135 113,-1138"/>
<polygon style="fill:midnightblue;stroke:midnightblue;" points="35.4778,-714.602 31,-705 28.5125,-715.299 35.4778,-714.602"/>
</g>
<!-- Node9 -->
<g id="node21" class="node"><title>Node9</title>
<a xlink:href="_connection_manager_8cpp.html#a510f5a0926d162b7f546fcf5b8f054e8" target="_top" xlink:title="ConnectionNotificationHandler">
<polygon style="fill:white;stroke:black;" points="594,-759 594,-780 779,-780 779,-759 594,-759"/>
<text text-anchor="middle" x="686" y="-766" style="font-family:Arial;font-size:10.00;">ConnectionNotificationHandler</text>
</a>
</g>
<!-- Node1&#45;&gt;Node9 -->
<g id="edge24" class="edge"><title>Node1&#45;&gt;Node9</title>
<path style="fill:none;stroke:midnightblue;" d="M36,-715C44,-741 63,-785 96,-804 188,-855 507,-803 634,-780"/>
<polygon style="fill:midnightblue;stroke:midnightblue;" points="39.2259,-713.573 33,-705 32.5212,-715.584 39.2259,-713.573"/>
</g>
<!-- Node11 -->
<g id="node25" class="node"><title>Node11</title>
<a xlink:href="_connection_manager_8h.html#a2e30244a123626dc9199117c06d257ab" target="_top" xlink:title="Wrapper callback method for reception notification. ">
<polygon style="fill:white;stroke:black;" points="363,-759 363,-780 528,-780 528,-759 363,-759"/>
<text text-anchor="middle" x="445" y="-766" style="font-family:Arial;font-size:10.00;">ConnectionReceiveHandler</text>
</a>
</g>
<!-- Node1&#45;&gt;Node11 -->
<g id="edge28" class="edge"><title>Node1&#45;&gt;Node11</title>
<path style="fill:none;stroke:midnightblue;" d="M68,-708C77,-712 87,-715 96,-717 146,-729 276,-747 363,-759"/>
<polygon style="fill:midnightblue;stroke:midnightblue;" points="68.584,-704.521 58,-705 66.5725,-711.226 68.584,-704.521"/>
</g>
<!-- Node12 -->
<g id="node28" class="node"><title>Node12</title>
<a xlink:href="class_connection_manager.html#a54968c1176475aa513538691b75aedc9" target="_top" xlink:title="Incoming connection handler. ">
<polygon style="fill:white;stroke:black;" points="379,-700 379,-734 512,-734 512,-700 379,-700"/>
<text text-anchor="start" x="387" y="-720" style="font-family:Arial;font-size:10.00;">ConnectionManager::</text>
<text text-anchor="middle" x="445" y="-707" style="font-family:Arial;font-size:10.00;">IncomingConnection</text>
</a>
</g>
<!-- Node1&#45;&gt;Node12 -->
<g id="edge32" class="edge"><title>Node1&#45;&gt;Node12</title>
<path style="fill:none;stroke:midnightblue;" d="M70,-697C142,-701 292,-709 379,-714"/>
<polygon style="fill:midnightblue;stroke:midnightblue;" points="70,-693.5 60,-697 70,-700.5 70,-693.5"/>
</g>
<!-- Node13 -->
<g id="node31" class="node"><title>Node13</title>
<a xlink:href="class_connection_manager.html#a4657b51054ad28143f1bddd1f5cc282c" target="_top" xlink:title="New message processor. ">
<polygon style="fill:white;stroke:black;" points="134,-761 134,-795 267,-795 267,-761 134,-761"/>
<text text-anchor="start" x="142" y="-781" style="font-family:Arial;font-size:10.00;">ConnectionManager::</text>
<text text-anchor="middle" x="200" y="-768" style="font-family:Arial;font-size:10.00;">IncomingMessage</text>
</a>
</g>
<!-- Node1&#45;&gt;Node13 -->
<g id="edge36" class="edge"><title>Node1&#45;&gt;Node13</title>
<path style="fill:none;stroke:midnightblue;" d="M48,-712C61,-723 78,-737 96,-747 108,-753 121,-758 134,-762"/>
<polygon style="fill:midnightblue;stroke:midnightblue;" points="49.8306,-708.951 40,-705 45.221,-714.219 49.8306,-708.951"/>
</g>
<!-- Node14 -->
<g id="node34" class="node"><title>Node14</title>
<a xlink:href="class_connection_manager.html#afc67553cf1eff6ab251a5dd2a313e863" target="_top" xlink:title="ConnectionManager::\lDeleteClient">
<polygon style="fill:white;stroke:black;" points="134,-1083 134,-1117 267,-1117 267,-1083 134,-1083"/>
<text text-anchor="start" x="142" y="-1103" style="font-family:Arial;font-size:10.00;">ConnectionManager::</text>
<text text-anchor="middle" x="200" y="-1090" style="font-family:Arial;font-size:10.00;">DeleteClient</text>
</a>
</g>
<!-- Node1&#45;&gt;Node14 -->
<g id="edge40" class="edge"><title>Node1&#45;&gt;Node14</title>
<path style="fill:none;stroke:midnightblue;" d="M30,-715C33,-787 47,-1021 96,-1074 106,-1084 120,-1091 134,-1095"/>
<polygon style="fill:midnightblue;stroke:midnightblue;" points="33.5001,-715 30,-705 26.5001,-715 33.5001,-715"/>
</g>
<!-- Node16 -->
<g id="node39" class="node"><title>Node16</title>
<a xlink:href="_control_manager_8cpp.html#a5f09b25cf454170e17d1aa3c2707273a" target="_top" xlink:title="ControlNotificationHandler">
<polygon style="fill:white;stroke:black;" points="822,-627 822,-648 984,-648 984,-627 822,-627"/>
<text text-anchor="middle" x="903" y="-634" style="font-family:Arial;font-size:10.00;">ControlNotificationHandler</text>
</a>
</g>
<!-- Node1&#45;&gt;Node16 -->
<g id="edge46" class="edge"><title>Node1&#45;&gt;Node16</title>
<path style="fill:none;stroke:midnightblue;" d="M70,-692C205,-683 640,-656 822,-643"/>
<polygon style="fill:midnightblue;stroke:midnightblue;" points="69.6021,-688.522 60,-693 70.2987,-695.488 69.6021,-688.522"/>
</g>
<!-- Node18 -->
<g id="node43" class="node"><title>Node18</title>
<a xlink:href="_control_manager_8h.html#a295ee31280dd699294f5787580750ce4" target="_top" xlink:title="ControlReceiveHandler">
<polygon style="fill:white;stroke:black;" points="374,-608 374,-629 516,-629 516,-608 374,-608"/>
<text text-anchor="middle" x="445" y="-615" style="font-family:Arial;font-size:10.00;">ControlReceiveHandler</text>
</a>
</g>
<!-- Node1&#45;&gt;Node18 -->
<g id="edge50" class="edge"><title>Node1&#45;&gt;Node18</title>
<path style="fill:none;stroke:midnightblue;" d="M47,-677C60,-665 78,-650 96,-643 188,-608 301,-607 374,-612"/>
<polygon style="fill:midnightblue;stroke:midnightblue;" points="44.5962,-674.454 40,-684 49.546,-679.404 44.5962,-674.454"/>
</g>
<!-- Node20 -->
<g id="node48" class="node"><title>Node20</title>
<a xlink:href="class_control_manager.html#a2dc55da1b01fd175b3d885c68b8a7524" target="_top" xlink:title="ControlManager::ProcessData">
<polygon style="fill:white;stroke:black;" points="112,-570 112,-591 288,-591 288,-570 112,-570"/>
<text text-anchor="middle" x="200" y="-577" style="font-family:Arial;font-size:10.00;">ControlManager::ProcessData</text>
</a>
</g>
<!-- Node1&#45;&gt;Node20 -->
<g id="edge56" class="edge"><title>Node1&#45;&gt;Node20</title>
<path style="fill:none;stroke:midnightblue;" d="M39,-675C50,-654 70,-622 96,-605 105,-599 115,-594 125,-591"/>
<polygon style="fill:midnightblue;stroke:midnightblue;" points="35.8631,-673.44 35,-684 42.2598,-676.283 35.8631,-673.44"/>
</g>
<!-- Node21 -->
<g id="node51" class="node"><title>Node21</title>
<a xlink:href="class_control_manager.html#a0d5212df17307aef87d42add3aa6cc7a" target="_top" xlink:title="ControlManager::MakeDecision">
<polygon style="fill:white;stroke:black;" points="108,-494 108,-515 293,-515 293,-494 108,-494"/>
<text text-anchor="middle" x="200" y="-501" style="font-family:Arial;font-size:10.00;">ControlManager::MakeDecision</text>
</a>
</g>
<!-- Node1&#45;&gt;Node21 -->
<g id="edge60" class="edge"><title>Node1&#45;&gt;Node21</title>
<path style="fill:none;stroke:midnightblue;" d="M32,-674C37,-638 52,-566 96,-529 103,-523 111,-519 119,-515"/>
<polygon style="fill:midnightblue;stroke:midnightblue;" points="28.5125,-673.701 31,-684 35.4778,-674.398 28.5125,-673.701"/>
</g>
<!-- Node22 -->
<g id="node53" class="node"><title>Node22</title>
<a xlink:href="class_system_manager.html#a87443d7e75b0f170535d315c27237253" target="_top" xlink:title="SystemManager::AdvanceTimeStep">
<polygon style="fill:white;stroke:black;" points="340,-418 340,-439 550,-439 550,-418 340,-418"/>
<text text-anchor="middle" x="445" y="-425" style="font-family:Arial;font-size:10.00;">SystemManager::AdvanceTimeStep</text>
</a>
</g>
<!-- Node1&#45;&gt;Node22 -->
<g id="edge120" class="edge"><title>Node1&#45;&gt;Node22</title>
<path style="fill:none;stroke:midnightblue;" d="M32,-674C40,-620 60,-476 96,-448 133,-419 251,-418 340,-422"/>
<polygon style="fill:midnightblue;stroke:midnightblue;" points="28.5125,-673.701 31,-684 35.4778,-674.398 28.5125,-673.701"/>
</g>
<!-- Node23 -->
<g id="node55" class="node"><title>Node23</title>
<a xlink:href="main_8cpp.html#a3c04138a5bfe5d72780bb7e82a18e627" target="_top" xlink:title="main">
<polygon style="fill:white;stroke:black;" points="664,-475 664,-496 708,-496 708,-475 664,-475"/>
<text text-anchor="middle" x="686" y="-482" style="font-family:Arial;font-size:10.00;">main</text>
</a>
</g>
<!-- Node1&#45;&gt;Node23 -->
<g id="edge84" class="edge"><title>Node1&#45;&gt;Node23</title>
<path style="fill:none;stroke:midnightblue;" d="M34,-674C41,-643 59,-589 96,-562 120,-544 559,-499 664,-488"/>
<polygon style="fill:midnightblue;stroke:midnightblue;" points="30.5292,-673.508 32,-684 37.3933,-674.881 30.5292,-673.508"/>
</g>
<!-- Node24 -->
<g id="node57" class="node"><title>Node24</title>
<a xlink:href="class_control_manager.html#aa4398a05586d9b711aa6101334deefe1" target="_top" xlink:title="ControlManager::ClientPrice\lRequest">
<polygon style="fill:white;stroke:black;" points="116,-941 116,-975 284,-975 284,-941 116,-941"/>
<text text-anchor="start" x="124" y="-961" style="font-family:Arial;font-size:10.00;">ControlManager::ClientPrice</text>
<text text-anchor="middle" x="200" y="-948" style="font-family:Arial;font-size:10.00;">Request</text>
</a>
</g>
<!-- Node1&#45;&gt;Node24 -->
<g id="edge66" class="edge"><title>Node1&#45;&gt;Node24</title>
<path style="fill:none;stroke:midnightblue;" d="M33,-715C41,-766 64,-900 96,-932 102,-937 109,-942 116,-945"/>
<polygon style="fill:midnightblue;stroke:midnightblue;" points="36.3933,-714.119 31,-705 29.5292,-715.492 36.3933,-714.119"/>
</g>
<!-- Node25 -->
<g id="node60" class="node"><title>Node25</title>
<a xlink:href="class_control_manager.html#a5b551f560431d0bb0bcf6c338bac8eb3" target="_top" xlink:title="ControlManager::ClientDemand\lNegotiation">
<polygon style="fill:white;stroke:black;" points="106,-889 106,-923 295,-923 295,-889 106,-889"/>
<text text-anchor="start" x="114" y="-909" style="font-family:Arial;font-size:10.00;">ControlManager::ClientDemand</text>
<text text-anchor="middle" x="200" y="-896" style="font-family:Arial;font-size:10.00;">Negotiation</text>
</a>
</g>
<!-- Node1&#45;&gt;Node25 -->
<g id="edge70" class="edge"><title>Node1&#45;&gt;Node25</title>
<path style="fill:none;stroke:midnightblue;" d="M32,-715C36,-753 50,-831 96,-875 102,-881 109,-885 117,-889"/>
<polygon style="fill:midnightblue;stroke:midnightblue;" points="35.4778,-714.602 31,-705 28.5125,-715.299 35.4778,-714.602"/>
</g>
<!-- Node26 -->
<g id="node63" class="node"><title>Node26</title>
<a xlink:href="class_control_manager.html#a56df538a5380c9091123a5a8a5e0fe86" target="_top" xlink:title="ControlManager::Register\lClient">
<polygon style="fill:white;stroke:black;" points="123,-1263 123,-1297 277,-1297 277,-1263 123,-1263"/>
<text text-anchor="start" x="131" y="-1283" style="font-family:Arial;font-size:10.00;">ControlManager::Register</text>
<text text-anchor="middle" x="200" y="-1270" style="font-family:Arial;font-size:10.00;">Client</text>
</a>
</g>
<!-- Node1&#45;&gt;Node26 -->
<g id="edge74" class="edge"><title>Node1&#45;&gt;Node26</title>
<path style="fill:none;stroke:midnightblue;" d="M32,-715C37,-810 61,-1207 96,-1249 103,-1257 113,-1263 123,-1268"/>
<polygon style="fill:midnightblue;stroke:midnightblue;" points="35.4778,-714.602 31,-705 28.5125,-715.299 35.4778,-714.602"/>
</g>
<!-- Node27 -->
<g id="node66" class="node"><title>Node27</title>
<a xlink:href="class_control_manager.html#ac3c913a01fe2e5e5467ad3d140c8e9a2" target="_top" xlink:title="ControlManager::UnRegister\lClient">
<polygon style="fill:white;stroke:black;" points="116,-1031 116,-1065 285,-1065 285,-1031 116,-1031"/>
<text text-anchor="start" x="124" y="-1051" style="font-family:Arial;font-size:10.00;">ControlManager::UnRegister</text>
<text text-anchor="middle" x="200" y="-1038" style="font-family:Arial;font-size:10.00;">Client</text>
</a>
</g>
<!-- Node1&#45;&gt;Node27 -->
<g id="edge78" class="edge"><title>Node1&#45;&gt;Node27</title>
<path style="fill:none;stroke:midnightblue;" d="M32,-715C36,-779 55,-972 96,-1017 102,-1023 108,-1028 116,-1032"/>
<polygon style="fill:midnightblue;stroke:midnightblue;" points="35.4778,-714.602 31,-705 28.5125,-715.299 35.4778,-714.602"/>
</g>
<!-- Node28 -->
<g id="node69" class="node"><title>Node28</title>
<a xlink:href="_log_print_8h.html#ad42404ba6013340b27b37b0aea79b658" target="_top" xlink:title="LogPrint">
<polygon style="fill:white;stroke:black;" points="170,-456 170,-477 230,-477 230,-456 170,-456"/>
<text text-anchor="middle" x="200" y="-463" style="font-family:Arial;font-size:10.00;">LogPrint</text>
</a>
</g>
<!-- Node1&#45;&gt;Node28 -->
<g id="edge82" class="edge"><title>Node1&#45;&gt;Node28</title>
<path style="fill:none;stroke:midnightblue;" d="M34,-674C43,-626 67,-511 96,-486 116,-468 147,-464 170,-464"/>
<polygon style="fill:midnightblue;stroke:midnightblue;" points="30.5292,-673.508 32,-684 37.3933,-674.881 30.5292,-673.508"/>
</g>
<!-- Node29 -->
<g id="node72" class="node"><title>Node29</title>
<a xlink:href="_matlab_manager_8cpp.html#aa340f269e04280ce987b3a8325f27580" target="_top" xlink:title="MatlabNotificationHandler">
<polygon style="fill:white;stroke:black;" points="824,-171 824,-192 983,-192 983,-171 824,-171"/>
<text text-anchor="middle" x="903" y="-178" style="font-family:Arial;font-size:10.00;">MatlabNotificationHandler</text>
</a>
</g>
<!-- Node1&#45;&gt;Node29 -->
<g id="edge86" class="edge"><title>Node1&#45;&gt;Node29</title>
<path style="fill:none;stroke:midnightblue;" d="M31,-674C34,-603 49,-381 96,-334 163,-267 212,-313 304,-296 507,-258 747,-212 851,-192"/>
<polygon style="fill:midnightblue;stroke:midnightblue;" points="27.5125,-673.701 30,-684 34.4778,-674.398 27.5125,-673.701"/>
</g>
<!-- Node30 -->
<g id="node74" class="node"><title>Node30</title>
<a xlink:href="class_matlab_manager.html#a319d996a8872d9cdba8cf335520af258" target="_top" xlink:title="MatlabManager::MatlabManager">
<polygon style="fill:white;stroke:black;" points="1023,-124 1023,-145 1215,-145 1215,-124 1023,-124"/>
<text text-anchor="middle" x="1119" y="-131" style="font-family:Arial;font-size:10.00;">MatlabManager::MatlabManager</text>
</a>
</g>
<!-- Node1&#45;&gt;Node30 -->
<g id="edge96" class="edge"><title>Node1&#45;&gt;Node30</title>
<path style="fill:none;stroke:midnightblue;" d="M30,-674C34,-572 55,-146 96,-106 209,-0 290,-87 445,-87 445,-87 445,-87 686,-87 820,-87 975,-110 1058,-124"/>
<polygon style="fill:midnightblue;stroke:midnightblue;" points="26.5001,-674 30,-684 33.5001,-674 26.5001,-674"/>
</g>
<!-- Node31 -->
<g id="node76" class="node"><title>Node31</title>
<a xlink:href="_matlab_manager_8h.html#adde5ef25c1ac7d9ccf067e4bc4894675" target="_top" xlink:title="MatlabReceiveHandler">
<polygon style="fill:white;stroke:black;" points="376,-171 376,-192 515,-192 515,-171 376,-171"/>
<text text-anchor="middle" x="445" y="-178" style="font-family:Arial;font-size:10.00;">MatlabReceiveHandler</text>
</a>
</g>
<!-- Node1&#45;&gt;Node31 -->
<g id="edge90" class="edge"><title>Node1&#45;&gt;Node31</title>
<path style="fill:none;stroke:midnightblue;" d="M32,-674C39,-591 66,-289 96,-258 162,-190 213,-240 304,-220 341,-211 382,-200 410,-192"/>
<polygon style="fill:midnightblue;stroke:midnightblue;" points="28.5125,-673.701 31,-684 35.4778,-674.398 28.5125,-673.701"/>
</g>
<!-- Node33 -->
<g id="node82" class="node"><title>Node33</title>
<a xlink:href="class_matlab_manager.html#a7219113b7bc0744fe8faa94d599fe826" target="_top" xlink:title="MatlabManager::ProcessData">
<polygon style="fill:white;stroke:black;" points="114,-114 114,-135 287,-135 287,-114 114,-114"/>
<text text-anchor="middle" x="200" y="-121" style="font-family:Arial;font-size:10.00;">MatlabManager::ProcessData</text>
</a>
</g>
<!-- Node1&#45;&gt;Node33 -->
<g id="edge98" class="edge"><title>Node1&#45;&gt;Node33</title>
<path style="fill:none;stroke:midnightblue;" d="M31,-674C36,-577 59,-182 96,-144 101,-139 107,-134 114,-131"/>
<polygon style="fill:midnightblue;stroke:midnightblue;" points="27.5001,-674 31,-684 34.5001,-674 27.5001,-674"/>
</g>
<!-- Node34 -->
<g id="node85" class="node"><title>Node34</title>
<a xlink:href="class_matlab_manager.html#a1c967acc77ef8db3113e83a5325b5729" target="_top" xlink:title="MatlabManager::IsClientPresent">
<polygon style="fill:white;stroke:black;" points="107,-266 107,-287 294,-287 294,-266 107,-266"/>
<text text-anchor="middle" x="200" y="-273" style="font-family:Arial;font-size:10.00;">MatlabManager::IsClientPresent</text>
</a>
</g>
<!-- Node1&#45;&gt;Node34 -->
<g id="edge102" class="edge"><title>Node1&#45;&gt;Node34</title>
<path style="fill:none;stroke:midnightblue;" d="M30,-674C33,-599 46,-355 96,-301 101,-295 108,-291 115,-287"/>
<polygon style="fill:midnightblue;stroke:midnightblue;" points="26.5001,-674 30,-684 33.5001,-674 26.5001,-674"/>
</g>
<!-- Node35 -->
<g id="node87" class="node"><title>Node35</title>
<a xlink:href="class_matlab_manager.html#a2967a226a9c6a9ed22998cad67afed3c" target="_top" xlink:title="MatlabManager::SetWattage">
<polygon style="fill:white;stroke:black;" points="115,-380 115,-401 286,-401 286,-380 115,-380"/>
<text text-anchor="middle" x="200" y="-387" style="font-family:Arial;font-size:10.00;">MatlabManager::SetWattage</text>
</a>
</g>
<!-- Node1&#45;&gt;Node35 -->
<g id="edge104" class="edge"><title>Node1&#45;&gt;Node35</title>
<path style="fill:none;stroke:midnightblue;" d="M32,-674C39,-615 59,-452 96,-415 102,-409 109,-405 116,-401"/>
<polygon style="fill:midnightblue;stroke:midnightblue;" points="28.5125,-673.701 31,-684 35.4778,-674.398 28.5125,-673.701"/>
</g>
<!-- Node36 -->
<g id="node90" class="node"><title>Node36</title>
<a xlink:href="class_matlab_manager.html#afc7fd3eb3469eb7be2af5b857e6f45e1" target="_top" xlink:title="MatlabManager::GetWattage">
<polygon style="fill:white;stroke:black;" points="114,-190 114,-211 286,-211 286,-190 114,-190"/>
<text text-anchor="middle" x="200" y="-197" style="font-family:Arial;font-size:10.00;">MatlabManager::GetWattage</text>
</a>
</g>
<!-- Node1&#45;&gt;Node36 -->
<g id="edge108" class="edge"><title>Node1&#45;&gt;Node36</title>
<path style="fill:none;stroke:midnightblue;" d="M32,-674C38,-587 65,-258 96,-225 101,-219 108,-215 115,-211"/>
<polygon style="fill:midnightblue;stroke:midnightblue;" points="28.5125,-673.701 31,-684 35.4778,-674.398 28.5125,-673.701"/>
</g>
<!-- Node37 -->
<g id="node92" class="node"><title>Node37</title>
<a xlink:href="class_matlab_manager.html#ab741bd4f6545e11dd7dd28548c5229dd" target="_top" xlink:title="MatlabManager::GetVoltage">
<polygon style="fill:white;stroke:black;" points="116,-152 116,-173 284,-173 284,-152 116,-152"/>
<text text-anchor="middle" x="200" y="-159" style="font-family:Arial;font-size:10.00;">MatlabManager::GetVoltage</text>
</a>
</g>
<!-- Node1&#45;&gt;Node37 -->
<g id="edge110" class="edge"><title>Node1&#45;&gt;Node37</title>
<path style="fill:none;stroke:midnightblue;" d="M32,-674C37,-581 62,-218 96,-182 102,-176 108,-171 116,-168"/>
<polygon style="fill:midnightblue;stroke:midnightblue;" points="28.5125,-673.701 31,-684 35.4778,-674.398 28.5125,-673.701"/>
</g>
<!-- Node38 -->
<g id="node94" class="node"><title>Node38</title>
<a xlink:href="class_matlab_manager.html#a55151e4e7f68cad7a8b18c93e9f0e0b1" target="_top" xlink:title="MatlabManager::AdvanceTimeStep">
<polygon style="fill:white;stroke:black;" points="97,-342 97,-363 304,-363 304,-342 97,-342"/>
<text text-anchor="middle" x="200" y="-349" style="font-family:Arial;font-size:10.00;">MatlabManager::AdvanceTimeStep</text>
</a>
</g>
<!-- Node1&#45;&gt;Node38 -->
<g id="edge112" class="edge"><title>Node1&#45;&gt;Node38</title>
<path style="fill:none;stroke:midnightblue;" d="M32,-674C36,-608 53,-414 96,-372 100,-369 104,-366 108,-363"/>
<polygon style="fill:midnightblue;stroke:midnightblue;" points="28.5125,-673.701 31,-684 35.4778,-674.398 28.5125,-673.701"/>
</g>
<!-- Node39 -->
<g id="node97" class="node"><title>Node39</title>
<a xlink:href="class_system_manager.html#abaf36dbd2e75a773f2ddc40ac82e5f3b" target="_top" xlink:title="SystemManager::RegisterData">
<polygon style="fill:white;stroke:black;" points="110,-1390 110,-1411 290,-1411 290,-1390 110,-1390"/>
<text text-anchor="middle" x="200" y="-1397" style="font-family:Arial;font-size:10.00;">SystemManager::RegisterData</text>
</a>
</g>
<!-- Node1&#45;&gt;Node39 -->
<g id="edge116" class="edge"><title>Node1&#45;&gt;Node39</title>
<path style="fill:none;stroke:midnightblue;" d="M30,-715C34,-823 52,-1325 96,-1377 101,-1382 107,-1387 113,-1390"/>
<polygon style="fill:midnightblue;stroke:midnightblue;" points="33.5001,-715 30,-705 26.5001,-715 33.5001,-715"/>
</g>
<!-- Node3&#45;&gt;Node2 -->
<g id="edge6" class="edge"><title>Node3&#45;&gt;Node2</title>
<path style="fill:none;stroke:midnightblue;" d="M542,-1235C557,-1235 572,-1235 587,-1235"/>
<polygon style="fill:midnightblue;stroke:midnightblue;" points="542,-1231.5 532,-1235 542,-1238.5 542,-1231.5"/>
</g>
<!-- Node4&#45;&gt;Node2 -->
<g id="edge10" class="edge"><title>Node4&#45;&gt;Node2</title>
<path style="fill:none;stroke:midnightblue;" d="M522,-1349C531,-1347 541,-1343 550,-1339 603,-1314 654,-1266 676,-1245"/>
<polygon style="fill:midnightblue;stroke:midnightblue;" points="520.573,-1345.77 512,-1352 522.584,-1352.48 520.573,-1345.77"/>
</g>
<!-- Node5&#45;&gt;Node2 -->
<g id="edge14" class="edge"><title>Node5&#45;&gt;Node2</title>
<path style="fill:none;stroke:midnightblue;" d="M506,-1024C522,-1032 538,-1040 550,-1051 614,-1103 664,-1193 680,-1224"/>
<polygon style="fill:midnightblue;stroke:midnightblue;" points="507.56,-1020.86 497,-1020 504.717,-1027.26 507.56,-1020.86"/>
</g>
<!-- Node6&#45;&gt;Node2 -->
<g id="edge18" class="edge"><title>Node6&#45;&gt;Node2</title>
<path style="fill:none;stroke:midnightblue;" d="M488,-928C509,-941 532,-958 550,-977 623,-1058 670,-1185 682,-1224"/>
<polygon style="fill:midnightblue;stroke:midnightblue;" points="489.441,-924.797 479,-923 486.042,-930.916 489.441,-924.797"/>
</g>
<!-- Node10 -->
<g id="node23" class="node"><title>Node10</title>
<a xlink:href="class_connection_manager.html#a7928f3e95b4e88b01c11eaf3e8089ee7" target="_top" xlink:title="ConnectionManager::\lConnectionManager">
<polygon style="fill:white;stroke:black;" points="837,-753 837,-787 970,-787 970,-753 837,-753"/>
<text text-anchor="start" x="845" y="-773" style="font-family:Arial;font-size:10.00;">ConnectionManager::</text>
<text text-anchor="middle" x="903" y="-760" style="font-family:Arial;font-size:10.00;">ConnectionManager</text>
</a>
</g>
<!-- Node9&#45;&gt;Node10 -->
<g id="edge26" class="edge"><title>Node9&#45;&gt;Node10</title>
<path style="fill:none;stroke:midnightblue;" d="M789,-770C805,-770 822,-770 837,-770"/>
<polygon style="fill:midnightblue;stroke:midnightblue;" points="789,-766.5 779,-770 789,-773.5 789,-766.5"/>
</g>
<!-- Node11&#45;&gt;Node9 -->
<g id="edge30" class="edge"><title>Node11&#45;&gt;Node9</title>
<path style="fill:none;stroke:midnightblue;" d="M538,-770C556,-770 576,-770 594,-770"/>
<polygon style="fill:midnightblue;stroke:midnightblue;" points="538,-766.5 528,-770 538,-773.5 538,-766.5"/>
</g>
<!-- Node12&#45;&gt;Node9 -->
<g id="edge34" class="edge"><title>Node12&#45;&gt;Node9</title>
<path style="fill:none;stroke:midnightblue;" d="M522,-734C559,-742 603,-752 636,-759"/>
<polygon style="fill:midnightblue;stroke:midnightblue;" points="522.492,-730.529 512,-732 521.119,-737.393 522.492,-730.529"/>
</g>
<!-- Node13&#45;&gt;Node11 -->
<g id="edge38" class="edge"><title>Node13&#45;&gt;Node11</title>
<path style="fill:none;stroke:midnightblue;" d="M277,-776C305,-775 335,-774 363,-773"/>
<polygon style="fill:midnightblue;stroke:midnightblue;" points="277,-772.5 267,-776 277,-779.5 277,-772.5"/>
</g>
<!-- Node14&#45;&gt;Node3 -->
<g id="edge44" class="edge"><title>Node14&#45;&gt;Node3</title>
<path style="fill:none;stroke:midnightblue;" d="M277,-1115C286,-1118 296,-1122 304,-1126 354,-1150 403,-1194 428,-1218"/>
<polygon style="fill:midnightblue;stroke:midnightblue;" points="277.584,-1111.52 267,-1112 275.573,-1118.23 277.584,-1111.52"/>
</g>
<!-- Node15 -->
<g id="node36" class="node"><title>Node15</title>
<a xlink:href="class_client_manager.html#a4fa8fc5731587276f5e6be92563474fa" target="_top" xlink:title="Handles the broken connection case. ">
<polygon style="fill:white;stroke:black;" points="363,-1060 363,-1094 528,-1094 528,-1060 363,-1060"/>
<text text-anchor="start" x="371" y="-1080" style="font-family:Arial;font-size:10.00;">ClientManager::Connection</text>
<text text-anchor="middle" x="445" y="-1067" style="font-family:Arial;font-size:10.00;">Broken</text>
</a>
</g>
<!-- Node14&#45;&gt;Node15 -->
<g id="edge42" class="edge"><title>Node14&#45;&gt;Node15</title>
<path style="fill:none;stroke:midnightblue;" d="M277,-1093C305,-1090 335,-1088 363,-1085"/>
<polygon style="fill:midnightblue;stroke:midnightblue;" points="276.602,-1089.52 267,-1094 277.299,-1096.49 276.602,-1089.52"/>
</g>
<!-- Node17 -->
<g id="node41" class="node"><title>Node17</title>
<a xlink:href="class_control_manager.html#ab81bac3e592705b7ca4b23ce473fe26e" target="_top" xlink:title="ControlManager::ControlManager">
<polygon style="fill:white;stroke:black;" points="1020,-627 1020,-648 1218,-648 1218,-627 1020,-627"/>
<text text-anchor="middle" x="1119" y="-634" style="font-family:Arial;font-size:10.00;">ControlManager::ControlManager</text>
</a>
</g>
<!-- Node16&#45;&gt;Node17 -->
<g id="edge48" class="edge"><title>Node16&#45;&gt;Node17</title>
<path style="fill:none;stroke:midnightblue;" d="M994,-638C1003,-638 1011,-638 1020,-638"/>
<polygon style="fill:midnightblue;stroke:midnightblue;" points="994,-634.5 984,-638 994,-641.5 994,-634.5"/>
</g>
<!-- Node19 -->
<g id="node45" class="node"><title>Node19</title>
<a xlink:href="class_control_manager.html#a67d548535b36a78e315a0aa5f9f8e6c8" target="_top" xlink:title="ControlManager::SetClient">
<polygon style="fill:white;stroke:black;" points="606,-608 606,-629 766,-629 766,-608 606,-608"/>
<text text-anchor="middle" x="686" y="-615" style="font-family:Arial;font-size:10.00;">ControlManager::SetClient</text>
</a>
</g>
<!-- Node18&#45;&gt;Node19 -->
<g id="edge52" class="edge"><title>Node18&#45;&gt;Node19</title>
<path style="fill:none;stroke:midnightblue;" d="M526,-619C552,-619 580,-619 606,-619"/>
<polygon style="fill:midnightblue;stroke:midnightblue;" points="526,-615.5 516,-619 526,-622.5 526,-615.5"/>
</g>
<!-- Node19&#45;&gt;Node16 -->
<g id="edge54" class="edge"><title>Node19&#45;&gt;Node16</title>
<path style="fill:none;stroke:midnightblue;" d="M776,-627C791,-628 807,-629 822,-631"/>
<polygon style="fill:midnightblue;stroke:midnightblue;" points="776.299,-623.512 766,-626 775.602,-630.478 776.299,-623.512"/>
</g>
<!-- Node20&#45;&gt;Node18 -->
<g id="edge58" class="edge"><title>Node20&#45;&gt;Node18</title>
<path style="fill:none;stroke:midnightblue;" d="M275,-593C307,-597 343,-603 375,-608"/>
<polygon style="fill:midnightblue;stroke:midnightblue;" points="275.492,-589.529 265,-591 274.119,-596.393 275.492,-589.529"/>
</g>
<!-- Node21&#45;&gt;Node22 -->
<g id="edge62" class="edge"><title>Node21&#45;&gt;Node22</title>
<path style="fill:none;stroke:midnightblue;" d="M281,-492C289,-490 296,-488 304,-486 348,-473 397,-452 424,-439"/>
<polygon style="fill:midnightblue;stroke:midnightblue;" points="280.119,-488.607 271,-494 281.492,-495.471 280.119,-488.607"/>
</g>
<!-- Node22&#45;&gt;Node23 -->
<g id="edge64" class="edge"><title>Node22&#45;&gt;Node23</title>
<path style="fill:none;stroke:midnightblue;" d="M498,-441C549,-453 626,-472 664,-481"/>
<polygon style="fill:midnightblue;stroke:midnightblue;" points="498.492,-437.529 488,-439 497.119,-444.393 498.492,-437.529"/>
</g>
<!-- Node24&#45;&gt;Node5 -->
<g id="edge68" class="edge"><title>Node24&#45;&gt;Node5</title>
<path style="fill:none;stroke:midnightblue;" d="M294,-975C317,-979 342,-985 365,-988"/>
<polygon style="fill:midnightblue;stroke:midnightblue;" points="294.492,-971.529 284,-973 293.119,-978.393 294.492,-971.529"/>
</g>
<!-- Node25&#45;&gt;Node6 -->
<g id="edge72" class="edge"><title>Node25&#45;&gt;Node6</title>
<path style="fill:none;stroke:midnightblue;" d="M305,-906C320,-906 336,-906 351,-906"/>
<polygon style="fill:midnightblue;stroke:midnightblue;" points="305,-902.5 295,-906 305,-909.5 305,-902.5"/>
</g>
<!-- Node26&#45;&gt;Node3 -->
<g id="edge76" class="edge"><title>Node26&#45;&gt;Node3</title>
<path style="fill:none;stroke:midnightblue;" d="M287,-1264C310,-1260 335,-1255 358,-1251"/>
<polygon style="fill:midnightblue;stroke:midnightblue;" points="286.119,-1260.61 277,-1266 287.492,-1267.47 286.119,-1260.61"/>
</g>
<!-- Node27&#45;&gt;Node15 -->
<g id="edge80" class="edge"><title>Node27&#45;&gt;Node15</title>
<path style="fill:none;stroke:midnightblue;" d="M295,-1059C317,-1062 341,-1064 363,-1067"/>
<polygon style="fill:midnightblue;stroke:midnightblue;" points="295.299,-1055.51 285,-1058 294.602,-1062.48 295.299,-1055.51"/>
</g>
<!-- Node29&#45;&gt;Node30 -->
<g id="edge88" class="edge"><title>Node29&#45;&gt;Node30</title>
<path style="fill:none;stroke:midnightblue;" d="M964,-169C999,-161 1041,-152 1073,-145"/>
<polygon style="fill:midnightblue;stroke:midnightblue;" points="963.119,-165.607 954,-171 964.492,-172.471 963.119,-165.607"/>
</g>
<!-- Node32 -->
<g id="node78" class="node"><title>Node32</title>
<a xlink:href="class_matlab_manager.html#ad5ff9f0aacdecada53a107e83b9e3712" target="_top" xlink:title="MatlabManager::SetClient">
<polygon style="fill:white;stroke:black;" points="608,-171 608,-192 765,-192 765,-171 608,-171"/>
<text text-anchor="middle" x="686" y="-178" style="font-family:Arial;font-size:10.00;">MatlabManager::SetClient</text>
</a>
</g>
<!-- Node31&#45;&gt;Node32 -->
<g id="edge92" class="edge"><title>Node31&#45;&gt;Node32</title>
<path style="fill:none;stroke:midnightblue;" d="M525,-182C552,-182 581,-182 608,-182"/>
<polygon style="fill:midnightblue;stroke:midnightblue;" points="525,-178.5 515,-182 525,-185.5 525,-178.5"/>
</g>
<!-- Node32&#45;&gt;Node29 -->
<g id="edge94" class="edge"><title>Node32&#45;&gt;Node29</title>
<path style="fill:none;stroke:midnightblue;" d="M775,-182C791,-182 808,-182 824,-182"/>
<polygon style="fill:midnightblue;stroke:midnightblue;" points="775,-178.5 765,-182 775,-185.5 775,-178.5"/>
</g>
<!-- Node33&#45;&gt;Node31 -->
<g id="edge100" class="edge"><title>Node33&#45;&gt;Node31</title>
<path style="fill:none;stroke:midnightblue;" d="M272,-137C283,-139 293,-142 304,-144 340,-152 380,-163 408,-171"/>
<polygon style="fill:midnightblue;stroke:midnightblue;" points="272.492,-133.529 262,-135 271.119,-140.393 272.492,-133.529"/>
</g>
<!-- Node35&#45;&gt;Node22 -->
<g id="edge106" class="edge"><title>Node35&#45;&gt;Node22</title>
<path style="fill:none;stroke:midnightblue;" d="M275,-403C307,-407 343,-413 375,-418"/>
<polygon style="fill:midnightblue;stroke:midnightblue;" points="275.492,-399.529 265,-401 274.119,-406.393 275.492,-399.529"/>
</g>
<!-- Node38&#45;&gt;Node22 -->
<g id="edge114" class="edge"><title>Node38&#45;&gt;Node22</title>
<path style="fill:none;stroke:midnightblue;" d="M278,-365C287,-367 296,-369 304,-372 347,-384 395,-405 422,-418"/>
<polygon style="fill:midnightblue;stroke:midnightblue;" points="278.492,-361.529 268,-363 277.119,-368.393 278.492,-361.529"/>
</g>
<!-- Node39&#45;&gt;Node4 -->
<g id="edge118" class="edge"><title>Node39&#45;&gt;Node4</title>
<path style="fill:none;stroke:midnightblue;" d="M281,-1389C314,-1384 351,-1378 381,-1373"/>
<polygon style="fill:midnightblue;stroke:midnightblue;" points="280.602,-1385.52 271,-1390 281.299,-1392.49 280.602,-1385.52"/>
</g>
</g>
</svg>
