<?xml version="1.0" encoding="UTF-8" standalone="no"?>
<!DOCTYPE svg PUBLIC "-//W3C//DTD SVG 1.0//EN"
 "http://www.w3.org/TR/2001/REC-SVG-20010904/DTD/svg10.dtd" [
 <!ATTLIST svg xmlns:xlink CDATA #FIXED "http://www.w3.org/1999/xlink">
]>
<!-- Generated by Graphviz version 2.14.1 (Fri Nov  9 08:19:38 GMT 2007)
     For user: (asakyurek) Alper Sinan Akyurek -->
<!-- Title: S2Sim/MatlabManager.h Pages: 1 -->
<svg width="767pt" height="320pt"
 viewBox="0.00 0.00 767.00 320.00" xmlns="http://www.w3.org/2000/svg" xmlns:xlink="http://www.w3.org/1999/xlink">
<g id="graph0" class="graph" transform="scale(1 1) rotate(0) translate(4 316)">
<title>S2Sim/MatlabManager.h</title>
<polygon style="fill:white;stroke:white;" points="-4,4 -4,-316 763,-316 763,4 -4,4"/>
<!-- Node1 -->
<g id="node1" class="node"><title>Node1</title>
<polygon style="fill:#bfbfbf;stroke:black;" points="295,-290 295,-311 443,-311 443,-290 295,-290"/>
<text text-anchor="middle" x="369" y="-297" style="font-family:Arial;font-size:10.00;">S2Sim/MatlabManager.h</text>
</g>
<!-- Node2 -->
<g id="node3" class="node"><title>Node2</title>
<a xlink:href="_client_manager_8h.html" target="_top" xlink:title="S2Sim/ClientManager.h">
<polygon style="fill:white;stroke:black;" points="135,-232 135,-253 278,-253 278,-232 135,-232"/>
<text text-anchor="middle" x="206" y="-239" style="font-family:Arial;font-size:10.00;">S2Sim/ClientManager.h</text>
</a>
</g>
<!-- Node1&#45;&gt;Node2 -->
<g id="edge2" class="edge"><title>Node1&#45;&gt;Node2</title>
<path style="fill:none;stroke:midnightblue;" d="M328,-287C299,-276 260,-262 234,-253"/>
<polygon style="fill:midnightblue;stroke:midnightblue;" points="327.416,-290.479 338,-290 329.427,-283.774 327.416,-290.479"/>
</g>
<!-- Node5 -->
<g id="node10" class="node"><title>Node5</title>
<a xlink:href="_control_manager_8h.html" target="_top" xlink:title="S2Sim/ControlManager.h">
<polygon style="fill:white;stroke:black;" points="323,-116 323,-137 474,-137 474,-116 323,-116"/>
<text text-anchor="middle" x="398" y="-123" style="font-family:Arial;font-size:10.00;">S2Sim/ControlManager.h</text>
</a>
</g>
<!-- Node1&#45;&gt;Node5 -->
<g id="edge36" class="edge"><title>Node1&#45;&gt;Node5</title>
<path style="fill:none;stroke:midnightblue;" d="M400,-285C428,-267 471,-236 490,-196 503,-167 465,-148 434,-137"/>
<polygon style="fill:midnightblue;stroke:midnightblue;" points="398.042,-282.084 391,-290 401.441,-288.203 398.042,-282.084"/>
</g>
<!-- Node6 -->
<g id="node12" class="node"><title>Node6</title>
<a xlink:href="_system_manager_8h.html" target="_top" xlink:title="S2Sim/SystemManager.h">
<polygon style="fill:white;stroke:black;" points="7,-58 7,-79 158,-79 158,-58 7,-58"/>
<text text-anchor="middle" x="82" y="-65" style="font-family:Arial;font-size:10.00;">S2Sim/SystemManager.h</text>
</a>
</g>
<!-- Node1&#45;&gt;Node6 -->
<g id="edge34" class="edge"><title>Node1&#45;&gt;Node6</title>
<path style="fill:none;stroke:midnightblue;" d="M285,-293C222,-286 143,-273 117,-254 64,-216 64,-180 68,-116 69,-103 70,-89 74,-79"/>
<polygon style="fill:midnightblue;stroke:midnightblue;" points="284.701,-296.488 295,-294 285.398,-289.522 284.701,-296.488"/>
</g>
<!-- Node9 -->
<g id="node21" class="node"><title>Node9</title>
<a xlink:href="main_8cpp.html" target="_top" xlink:title="S2Sim/main.cpp">
<polygon style="fill:white;stroke:black;" points="481,-58 481,-79 585,-79 585,-58 481,-58"/>
<text text-anchor="middle" x="533" y="-65" style="font-family:Arial;font-size:10.00;">S2Sim/main.cpp</text>
</a>
</g>
<!-- Node1&#45;&gt;Node9 -->
<g id="edge38" class="edge"><title>Node1&#45;&gt;Node9</title>
<path style="fill:none;stroke:midnightblue;" d="M411,-286C429,-278 449,-268 465,-254 519,-206 530,-111 532,-79"/>
<polygon style="fill:midnightblue;stroke:midnightblue;" points="409.717,-282.74 402,-290 412.56,-289.137 409.717,-282.74"/>
</g>
<!-- Node11 -->
<g id="node31" class="node"><title>Node11</title>
<a xlink:href="_matlab_manager_8cpp.html" target="_top" xlink:title="S2Sim/MatlabManager.cpp">
<polygon style="fill:white;stroke:black;" points="599,-232 599,-253 760,-253 760,-232 599,-232"/>
<text text-anchor="middle" x="679" y="-239" style="font-family:Arial;font-size:10.00;">S2Sim/MatlabManager.cpp</text>
</a>
</g>
<!-- Node1&#45;&gt;Node11 -->
<g id="edge40" class="edge"><title>Node1&#45;&gt;Node11</title>
<path style="fill:none;stroke:midnightblue;" d="M438,-288C495,-277 573,-262 625,-253"/>
<polygon style="fill:midnightblue;stroke:midnightblue;" points="437.119,-284.607 428,-290 438.492,-291.471 437.119,-284.607"/>
</g>
<!-- Node3 -->
<g id="node5" class="node"><title>Node3</title>
<a xlink:href="_client_manager_8cpp.html" target="_top" xlink:title="S2Sim/ClientManager.cpp">
<polygon style="fill:white;stroke:black;" points="311,-174 311,-195 467,-195 467,-174 311,-174"/>
<text text-anchor="middle" x="389" y="-181" style="font-family:Arial;font-size:10.00;">S2Sim/ClientManager.cpp</text>
</a>
</g>
<!-- Node2&#45;&gt;Node3 -->
<g id="edge4" class="edge"><title>Node2&#45;&gt;Node3</title>
<path style="fill:none;stroke:midnightblue;" d="M251,-229C284,-218 328,-204 357,-195"/>
<polygon style="fill:midnightblue;stroke:midnightblue;" points="249.573,-225.774 241,-232 251.584,-232.479 249.573,-225.774"/>
</g>
<!-- Node4 -->
<g id="node7" class="node"><title>Node4</title>
<a xlink:href="_connection_manager_8h.html" target="_top" xlink:title="S2Sim/ConnectionManager.h">
<polygon style="fill:white;stroke:black;" points="119,-174 119,-195 293,-195 293,-174 119,-174"/>
<text text-anchor="middle" x="206" y="-181" style="font-family:Arial;font-size:10.00;">S2Sim/ConnectionManager.h</text>
</a>
</g>
<!-- Node2&#45;&gt;Node4 -->
<g id="edge6" class="edge"><title>Node2&#45;&gt;Node4</title>
<path style="fill:none;stroke:midnightblue;" d="M200,-222C199,-212 200,-202 201,-195"/>
<polygon style="fill:midnightblue;stroke:midnightblue;" points="196.522,-222.398 201,-232 203.488,-221.701 196.522,-222.398"/>
</g>
<!-- Node2&#45;&gt;Node5 -->
<g id="edge32" class="edge"><title>Node2&#45;&gt;Node5</title>
<path style="fill:none;stroke:midnightblue;" d="M288,-239C358,-235 452,-224 476,-196 495,-172 455,-150 425,-137"/>
<polygon style="fill:midnightblue;stroke:midnightblue;" points="287.602,-235.522 278,-240 288.299,-242.488 287.602,-235.522"/>
</g>
<!-- Node2&#45;&gt;Node6 -->
<g id="edge30" class="edge"><title>Node2&#45;&gt;Node6</title>
<path style="fill:none;stroke:midnightblue;" d="M148,-228C130,-221 113,-210 101,-196 73,-160 72,-102 77,-79"/>
<polygon style="fill:midnightblue;stroke:midnightblue;" points="146.44,-231.137 157,-232 149.283,-224.74 146.44,-231.137"/>
</g>
<!-- Node4&#45;&gt;Node2 -->
<g id="edge8" class="edge"><title>Node4&#45;&gt;Node2</title>
<path style="fill:none;stroke:midnightblue;" d="M212,-205C213,-214 212,-224 211,-232"/>
<polygon style="fill:midnightblue;stroke:midnightblue;" points="215.478,-204.602 211,-195 208.512,-205.299 215.478,-204.602"/>
</g>
<!-- Node4&#45;&gt;Node5 -->
<g id="edge10" class="edge"><title>Node4&#45;&gt;Node5</title>
<path style="fill:none;stroke:midnightblue;" d="M253,-171C287,-160 334,-146 365,-137"/>
<polygon style="fill:midnightblue;stroke:midnightblue;" points="251.573,-167.774 243,-174 253.584,-174.479 251.573,-167.774"/>
</g>
<!-- Node4&#45;&gt;Node9 -->
<g id="edge28" class="edge"><title>Node4&#45;&gt;Node9</title>
<path style="fill:none;stroke:midnightblue;" d="M299,-172C373,-162 466,-148 482,-138 505,-124 521,-95 529,-79"/>
<polygon style="fill:midnightblue;stroke:midnightblue;" points="298.119,-168.607 289,-174 299.492,-175.471 298.119,-168.607"/>
</g>
<!-- Node10 -->
<g id="node23" class="node"><title>Node10</title>
<a xlink:href="_connection_manager_8cpp.html" target="_top" xlink:title="S2Sim/ConnectionManager.cpp">
<polygon style="fill:white;stroke:black;" points="119,-116 119,-137 306,-137 306,-116 119,-116"/>
<text text-anchor="middle" x="212" y="-123" style="font-family:Arial;font-size:10.00;">S2Sim/ConnectionManager.cpp</text>
</a>
</g>
<!-- Node4&#45;&gt;Node10 -->
<g id="edge26" class="edge"><title>Node4&#45;&gt;Node10</title>
<path style="fill:none;stroke:midnightblue;" d="M208,-164C209,-154 210,-144 211,-137"/>
<polygon style="fill:midnightblue;stroke:midnightblue;" points="204.512,-163.701 207,-174 211.478,-164.398 204.512,-163.701"/>
</g>
<!-- Node5&#45;&gt;Node6 -->
<g id="edge12" class="edge"><title>Node5&#45;&gt;Node6</title>
<path style="fill:none;stroke:midnightblue;" d="M322,-114C264,-103 183,-88 132,-79"/>
<polygon style="fill:midnightblue;stroke:midnightblue;" points="321.508,-117.471 332,-116 322.881,-110.607 321.508,-117.471"/>
</g>
<!-- Node8 -->
<g id="node19" class="node"><title>Node8</title>
<a xlink:href="_control_manager_8cpp.html" target="_top" xlink:title="S2Sim/ControlManager.cpp">
<polygon style="fill:white;stroke:black;" points="299,-58 299,-79 463,-79 463,-58 299,-58"/>
<text text-anchor="middle" x="381" y="-65" style="font-family:Arial;font-size:10.00;">S2Sim/ControlManager.cpp</text>
</a>
</g>
<!-- Node5&#45;&gt;Node8 -->
<g id="edge22" class="edge"><title>Node5&#45;&gt;Node8</title>
<path style="fill:none;stroke:midnightblue;" d="M392,-106C389,-97 386,-86 384,-79"/>
<polygon style="fill:midnightblue;stroke:midnightblue;" points="388.774,-107.427 395,-116 395.479,-105.416 388.774,-107.427"/>
</g>
<!-- Node5&#45;&gt;Node9 -->
<g id="edge24" class="edge"><title>Node5&#45;&gt;Node9</title>
<path style="fill:none;stroke:midnightblue;" d="M433,-112C457,-101 489,-88 510,-79"/>
<polygon style="fill:midnightblue;stroke:midnightblue;" points="431.717,-108.74 424,-116 434.56,-115.137 431.717,-108.74"/>
</g>
<!-- Node6&#45;&gt;Node1 -->
<g id="edge14" class="edge"><title>Node6&#45;&gt;Node1</title>
<path style="fill:none;stroke:midnightblue;" d="M88,-89C87,-97 87,-107 86,-116 82,-180 82,-216 135,-254 160,-272 236,-285 295,-293"/>
<polygon style="fill:midnightblue;stroke:midnightblue;" points="91.5001,-89 88,-79 84.5001,-89 91.5001,-89"/>
</g>
<!-- Node6&#45;&gt;Node2 -->
<g id="edge18" class="edge"><title>Node6&#45;&gt;Node2</title>
<path style="fill:none;stroke:midnightblue;" d="M87,-89C91,-116 95,-165 119,-196 133,-213 155,-225 173,-232"/>
<polygon style="fill:midnightblue;stroke:midnightblue;" points="90.4778,-88.6021 86,-79 83.5125,-89.2987 90.4778,-88.6021"/>
</g>
<!-- Node6&#45;&gt;Node5 -->
<g id="edge16" class="edge"><title>Node6&#45;&gt;Node5</title>
<path style="fill:none;stroke:midnightblue;" d="M152,-81C210,-91 290,-106 343,-116"/>
<polygon style="fill:midnightblue;stroke:midnightblue;" points="152.492,-77.5292 142,-79 151.119,-84.3933 152.492,-77.5292"/>
</g>
<!-- Node7 -->
<g id="node17" class="node"><title>Node7</title>
<a xlink:href="_system_manager_8cpp.html" target="_top" xlink:title="S2Sim/SystemManager.cpp">
<polygon style="fill:white;stroke:black;" points="0,-0 0,-21 164,-21 164,-0 0,-0"/>
<text text-anchor="middle" x="82" y="-7" style="font-family:Arial;font-size:10.00;">S2Sim/SystemManager.cpp</text>
</a>
</g>
<!-- Node6&#45;&gt;Node7 -->
<g id="edge20" class="edge"><title>Node6&#45;&gt;Node7</title>
<path style="fill:none;stroke:midnightblue;" d="M82,-48C82,-38 82,-28 82,-21"/>
<polygon style="fill:midnightblue;stroke:midnightblue;" points="78.5001,-48 82,-58 85.5001,-48 78.5001,-48"/>
</g>
</g>
</svg>
