<?xml version="1.0" encoding="UTF-8" standalone="no"?>
<!DOCTYPE svg PUBLIC "-//W3C//DTD SVG 1.0//EN"
 "http://www.w3.org/TR/2001/REC-SVG-20010904/DTD/svg10.dtd" [
 <!ATTLIST svg xmlns:xlink CDATA #FIXED "http://www.w3.org/1999/xlink">
]>
<!-- Generated by Graphviz version 2.14.1 (Fri Nov  9 08:19:38 GMT 2007)
     For user: (asakyurek) Alper Sinan Akyurek -->
<!-- Title: S2Sim/MatlabManager.cpp Pages: 1 -->
<svg width="1569pt" height="610pt"
 viewBox="0.00 0.00 1569.00 610.00" xmlns="http://www.w3.org/2000/svg" xmlns:xlink="http://www.w3.org/1999/xlink">
<g id="graph0" class="graph" transform="scale(1 1) rotate(0) translate(4 606)">
<title>S2Sim/MatlabManager.cpp</title>
<polygon style="fill:white;stroke:white;" points="-4,4 -4,-606 1565,-606 1565,4 -4,4"/>
<!-- Node1 -->
<g id="node1" class="node"><title>Node1</title>
<polygon style="fill:#bfbfbf;stroke:black;" points="377,-580 377,-601 538,-601 538,-580 377,-580"/>
<text text-anchor="middle" x="457" y="-587" style="font-family:Arial;font-size:10.00;">S2Sim/MatlabManager.cpp</text>
</g>
<!-- Node2 -->
<g id="node3" class="node"><title>Node2</title>
<a xlink:href="_matlab_manager_8h.html" target="_top" xlink:title="MatlabManager.h">
<polygon style="fill:white;stroke:black;" points="402,-522 402,-543 513,-543 513,-522 402,-522"/>
<text text-anchor="middle" x="457" y="-529" style="font-family:Arial;font-size:10.00;">MatlabManager.h</text>
</a>
</g>
<!-- Node1&#45;&gt;Node2 -->
<g id="edge2" class="edge"><title>Node1&#45;&gt;Node2</title>
<path style="fill:none;stroke:midnightblue;" d="M457,-580C457,-572 457,-562 457,-553"/>
<polygon style="fill:midnightblue;stroke:midnightblue;" points="460.5,-553 457,-543 453.5,-553 460.5,-553"/>
</g>
<!-- Node3 -->
<g id="node5" class="node"><title>Node3</title>
<polygon style="fill:white;stroke:#bfbfbf;" points="265,-0 265,-21 329,-21 329,-0 265,-0"/>
<text text-anchor="middle" x="297" y="-7" style="font-family:Arial;font-size:10.00;">iostream</text>
</g>
<!-- Node2&#45;&gt;Node3 -->
<g id="edge4" class="edge"><title>Node2&#45;&gt;Node3</title>
<path style="fill:none;stroke:midnightblue;" d="M402,-530C311,-524 135,-511 78,-486 36,-466 0,-463 0,-417 0,-417 0,-417 0,-127 0,-72 173,-33 255,-18"/>
<polygon style="fill:midnightblue;stroke:midnightblue;" points="255.881,-21.3933 265,-16 254.508,-14.5292 255.881,-21.3933"/>
</g>
<!-- Node4 -->
<g id="node7" class="node"><title>Node4</title>
<a xlink:href="_semaphore_8h.html" target="_top" xlink:title="Semaphore.h">
<polygon style="fill:white;stroke:black;" points="368,-116 368,-137 458,-137 458,-116 368,-116"/>
<text text-anchor="middle" x="413" y="-123" style="font-family:Arial;font-size:10.00;">Semaphore.h</text>
</a>
</g>
<!-- Node2&#45;&gt;Node4 -->
<g id="edge6" class="edge"><title>Node2&#45;&gt;Node4</title>
<path style="fill:none;stroke:midnightblue;" d="M402,-529C288,-520 38,-491 38,-417 38,-417 38,-417 38,-301 38,-269 37,-255 57,-232 101,-182 132,-193 195,-174 211,-168 299,-150 358,-138"/>
<polygon style="fill:midnightblue;stroke:midnightblue;" points="358.881,-141.393 368,-136 357.508,-134.529 358.881,-141.393"/>
</g>
<!-- Node5 -->
<g id="node10" class="node"><title>Node5</title>
<a xlink:href="_threaded_t_c_p_server_8h.html" target="_top" xlink:title="ThreadedTCPServer.h">
<polygon style="fill:white;stroke:black;" points="87,-290 87,-311 222,-311 222,-290 87,-290"/>
<text text-anchor="middle" x="154" y="-297" style="font-family:Arial;font-size:10.00;">ThreadedTCPServer.h</text>
</a>
</g>
<!-- Node2&#45;&gt;Node5 -->
<g id="edge10" class="edge"><title>Node2&#45;&gt;Node5</title>
<path style="fill:none;stroke:midnightblue;" d="M433,-522C386,-499 276,-441 202,-370 187,-355 174,-335 165,-320"/>
<polygon style="fill:midnightblue;stroke:midnightblue;" points="167.916,-318.042 160,-311 161.797,-321.441 167.916,-318.042"/>
</g>
<!-- Node11 -->
<g id="node23" class="node"><title>Node11</title>
<a xlink:href="_threaded_t_c_p_connected_client_8h.html" target="_top" xlink:title="ThreadedTCPConnectedClient.h">
<polygon style="fill:white;stroke:black;" points="204,-174 204,-195 396,-195 396,-174 204,-174"/>
<text text-anchor="middle" x="300" y="-181" style="font-family:Arial;font-size:10.00;">ThreadedTCPConnectedClient.h</text>
</a>
</g>
<!-- Node2&#45;&gt;Node11 -->
<g id="edge38" class="edge"><title>Node2&#45;&gt;Node11</title>
<path style="fill:none;stroke:midnightblue;" d="M460,-522C467,-492 483,-409 460,-348 445,-312 360,-235 320,-201"/>
<polygon style="fill:midnightblue;stroke:midnightblue;" points="322.1,-198.2 312,-195 317.9,-203.8 322.1,-198.2"/>
</g>
<!-- Node13 -->
<g id="node33" class="node"><title>Node13</title>
<a xlink:href="_system_manager_8h.html" target="_top" xlink:title="SystemManager.h">
<polygon style="fill:white;stroke:black;" points="507,-464 507,-485 621,-485 621,-464 507,-464"/>
<text text-anchor="middle" x="564" y="-471" style="font-family:Arial;font-size:10.00;">SystemManager.h</text>
</a>
</g>
<!-- Node2&#45;&gt;Node13 -->
<g id="edge40" class="edge"><title>Node2&#45;&gt;Node13</title>
<path style="fill:none;stroke:midnightblue;" d="M472,-522C488,-513 511,-499 531,-489"/>
<polygon style="fill:midnightblue;stroke:midnightblue;" points="532.283,-492.26 540,-485 529.44,-485.863 532.283,-492.26"/>
</g>
<!-- Node4&#45;&gt;Node3 -->
<g id="edge8" class="edge"><title>Node4&#45;&gt;Node3</title>
<path style="fill:none;stroke:midnightblue;" d="M402,-116C388,-102 365,-78 345,-58 335,-48 324,-37 315,-28"/>
<polygon style="fill:midnightblue;stroke:midnightblue;" points="317.546,-25.5962 308,-21 312.596,-30.546 317.546,-25.5962"/>
</g>
<!-- Node6 -->
<g id="node12" class="node"><title>Node6</title>
<a xlink:href="_thread_base_8h.html" target="_top" xlink:title="ThreadBase.h">
<polygon style="fill:white;stroke:black;" points="104,-116 104,-137 195,-137 195,-116 104,-116"/>
<text text-anchor="middle" x="149" y="-123" style="font-family:Arial;font-size:10.00;">ThreadBase.h</text>
</a>
</g>
<!-- Node5&#45;&gt;Node6 -->
<g id="edge12" class="edge"><title>Node5&#45;&gt;Node6</title>
<path style="fill:none;stroke:midnightblue;" d="M155,-290C156,-280 157,-266 157,-254 159,-216 154,-172 151,-147"/>
<polygon style="fill:midnightblue;stroke:midnightblue;" points="154.478,-146.602 150,-137 147.512,-147.299 154.478,-146.602"/>
</g>
<!-- Node7 -->
<g id="node14" class="node"><title>Node7</title>
<a xlink:href="_t_c_p_server_8h.html" target="_top" xlink:title="TCPServer.h">
<polygon style="fill:white;stroke:black;" points="66,-232 66,-253 148,-253 148,-232 66,-232"/>
<text text-anchor="middle" x="107" y="-239" style="font-family:Arial;font-size:10.00;">TCPServer.h</text>
</a>
</g>
<!-- Node5&#45;&gt;Node7 -->
<g id="edge14" class="edge"><title>Node5&#45;&gt;Node7</title>
<path style="fill:none;stroke:midnightblue;" d="M145,-290C138,-282 129,-270 121,-261"/>
<polygon style="fill:midnightblue;stroke:midnightblue;" points="123.8,-258.9 115,-253 118.2,-263.1 123.8,-258.9"/>
</g>
<!-- Node5&#45;&gt;Node11 -->
<g id="edge36" class="edge"><title>Node5&#45;&gt;Node11</title>
<path style="fill:none;stroke:midnightblue;" d="M167,-290C184,-276 213,-251 238,-232 252,-222 266,-210 278,-201"/>
<polygon style="fill:midnightblue;stroke:midnightblue;" points="280.1,-203.8 286,-195 275.9,-198.2 280.1,-203.8"/>
</g>
<!-- Node8 -->
<g id="node16" class="node"><title>Node8</title>
<a xlink:href="_socket_base_8h.html" target="_top" xlink:title="SocketBase.h">
<polygon style="fill:white;stroke:black;" points="154,-58 154,-79 243,-79 243,-58 154,-58"/>
<text text-anchor="middle" x="198" y="-65" style="font-family:Arial;font-size:10.00;">SocketBase.h</text>
</a>
</g>
<!-- Node7&#45;&gt;Node8 -->
<g id="edge16" class="edge"><title>Node7&#45;&gt;Node8</title>
<path style="fill:none;stroke:midnightblue;" d="M92,-232C81,-223 68,-210 62,-196 49,-163 42,-144 62,-116 72,-102 111,-89 144,-81"/>
<polygon style="fill:midnightblue;stroke:midnightblue;" points="145.427,-84.2259 154,-78 143.416,-77.5212 145.427,-84.2259"/>
</g>
<!-- Node9 -->
<g id="node19" class="node"><title>Node9</title>
<a xlink:href="_i_p_address_8h.html" target="_top" xlink:title="IPAddress.h">
<polygon style="fill:white;stroke:black;" points="260,-58 260,-79 337,-79 337,-58 260,-58"/>
<text text-anchor="middle" x="298" y="-65" style="font-family:Arial;font-size:10.00;">IPAddress.h</text>
</a>
</g>
<!-- Node7&#45;&gt;Node9 -->
<g id="edge20" class="edge"><title>Node7&#45;&gt;Node9</title>
<path style="fill:none;stroke:midnightblue;" d="M101,-232C90,-207 68,-150 95,-116 138,-62 178,-93 250,-80"/>
<polygon style="fill:midnightblue;stroke:midnightblue;" points="250.881,-83.3933 260,-78 249.508,-76.5292 250.881,-83.3933"/>
</g>
<!-- Node7&#45;&gt;Node11 -->
<g id="edge24" class="edge"><title>Node7&#45;&gt;Node11</title>
<path style="fill:none;stroke:midnightblue;" d="M144,-232C176,-222 223,-208 257,-198"/>
<polygon style="fill:midnightblue;stroke:midnightblue;" points="258.427,-201.226 267,-195 256.416,-194.521 258.427,-201.226"/>
</g>
<!-- Node8&#45;&gt;Node3 -->
<g id="edge18" class="edge"><title>Node8&#45;&gt;Node3</title>
<path style="fill:none;stroke:midnightblue;" d="M217,-58C232,-49 254,-36 271,-26"/>
<polygon style="fill:midnightblue;stroke:midnightblue;" points="272.958,-28.916 280,-21 269.559,-22.7969 272.958,-28.916"/>
</g>
<!-- Node10 -->
<g id="node21" class="node"><title>Node10</title>
<polygon style="fill:white;stroke:#bfbfbf;" points="1256,-0 1256,-21 1312,-21 1312,-0 1256,-0"/>
<text text-anchor="middle" x="1284" y="-7" style="font-family:Arial;font-size:10.00;">string.h</text>
</g>
<!-- Node9&#45;&gt;Node10 -->
<g id="edge22" class="edge"><title>Node9&#45;&gt;Node10</title>
<path style="fill:none;stroke:midnightblue;" d="M337,-68C465,-66 876,-57 1215,-22 1225,-21 1236,-19 1246,-18"/>
<polygon style="fill:midnightblue;stroke:midnightblue;" points="1246.88,-21.3933 1256,-16 1245.51,-14.5292 1246.88,-21.3933"/>
</g>
<!-- Node11&#45;&gt;Node4 -->
<g id="edge34" class="edge"><title>Node11&#45;&gt;Node4</title>
<path style="fill:none;stroke:midnightblue;" d="M322,-174C339,-165 364,-151 384,-142"/>
<polygon style="fill:midnightblue;stroke:midnightblue;" points="385.958,-144.916 393,-137 382.559,-138.797 385.958,-144.916"/>
</g>
<!-- Node11&#45;&gt;Node6 -->
<g id="edge32" class="edge"><title>Node11&#45;&gt;Node6</title>
<path style="fill:none;stroke:midnightblue;" d="M271,-174C246,-164 211,-151 185,-141"/>
<polygon style="fill:midnightblue;stroke:midnightblue;" points="185.585,-137.464 175,-137 182.985,-143.964 185.585,-137.464"/>
</g>
<!-- Node12 -->
<g id="node25" class="node"><title>Node12</title>
<a xlink:href="_t_c_p_connected_client_8h.html" target="_top" xlink:title="TCPConnectedClient.h">
<polygon style="fill:white;stroke:black;" points="212,-116 212,-137 351,-137 351,-116 212,-116"/>
<text text-anchor="middle" x="281" y="-123" style="font-family:Arial;font-size:10.00;">TCPConnectedClient.h</text>
</a>
</g>
<!-- Node11&#45;&gt;Node12 -->
<g id="edge26" class="edge"><title>Node11&#45;&gt;Node12</title>
<path style="fill:none;stroke:midnightblue;" d="M296,-174C294,-166 291,-156 288,-147"/>
<polygon style="fill:midnightblue;stroke:midnightblue;" points="290.964,-144.985 284,-137 284.464,-147.585 290.964,-144.985"/>
</g>
<!-- Node12&#45;&gt;Node8 -->
<g id="edge28" class="edge"><title>Node12&#45;&gt;Node8</title>
<path style="fill:none;stroke:midnightblue;" d="M265,-116C253,-107 235,-94 220,-85"/>
<polygon style="fill:midnightblue;stroke:midnightblue;" points="222.1,-82.2 212,-79 217.9,-87.8 222.1,-82.2"/>
</g>
<!-- Node12&#45;&gt;Node9 -->
<g id="edge30" class="edge"><title>Node12&#45;&gt;Node9</title>
<path style="fill:none;stroke:midnightblue;" d="M284,-116C286,-108 289,-98 292,-89"/>
<polygon style="fill:midnightblue;stroke:midnightblue;" points="295.479,-89.584 295,-79 288.774,-87.5725 295.479,-89.584"/>
</g>
<!-- Node13&#45;&gt;Node2 -->
<g id="edge134" class="edge"><title>Node13&#45;&gt;Node2</title>
<path style="fill:none;stroke:midnightblue;" d="M551,-485C536,-494 512,-507 492,-517"/>
<polygon style="fill:midnightblue;stroke:midnightblue;" points="490.042,-514.084 483,-522 493.441,-520.203 490.042,-514.084"/>
</g>
<!-- Node14 -->
<g id="node35" class="node"><title>Node14</title>
<polygon style="fill:white;stroke:#bfbfbf;" points="988,-58 988,-79 1029,-79 1029,-58 988,-58"/>
<text text-anchor="middle" x="1008" y="-65" style="font-family:Arial;font-size:10.00;">map</text>
</g>
<!-- Node13&#45;&gt;Node14 -->
<g id="edge42" class="edge"><title>Node13&#45;&gt;Node14</title>
<path style="fill:none;stroke:midnightblue;" d="M621,-474C833,-471 1561,-454 1561,-359 1561,-359 1561,-359 1561,-185 1561,-69 1172,-110 1039,-80"/>
<polygon style="fill:midnightblue;stroke:midnightblue;" points="1039.58,-76.5212 1029,-77 1037.57,-83.2259 1039.58,-76.5212"/>
</g>
<!-- Node15 -->
<g id="node37" class="node"><title>Node15</title>
<a xlink:href="_client_manager_8h.html" target="_top" xlink:title="ClientManager.h">
<polygon style="fill:white;stroke:black;" points="598,-290 598,-311 704,-311 704,-290 598,-290"/>
<text text-anchor="middle" x="651" y="-297" style="font-family:Arial;font-size:10.00;">ClientManager.h</text>
</a>
</g>
<!-- Node13&#45;&gt;Node15 -->
<g id="edge44" class="edge"><title>Node13&#45;&gt;Node15</title>
<path style="fill:none;stroke:midnightblue;" d="M566,-464C577,-435 615,-356 637,-320"/>
<polygon style="fill:midnightblue;stroke:midnightblue;" points="640.203,-321.441 642,-311 634.084,-318.042 640.203,-321.441"/>
</g>
<!-- Node29 -->
<g id="node87" class="node"><title>Node29</title>
<a xlink:href="_log_print_8h.html" target="_top" xlink:title="LogPrint.h">
<polygon style="fill:white;stroke:black;" points="389,-232 389,-253 459,-253 459,-232 389,-232"/>
<text text-anchor="middle" x="424" y="-239" style="font-family:Arial;font-size:10.00;">LogPrint.h</text>
</a>
</g>
<!-- Node13&#45;&gt;Node29 -->
<g id="edge152" class="edge"><title>Node13&#45;&gt;Node29</title>
<path style="fill:none;stroke:midnightblue;" d="M558,-464C546,-442 518,-390 493,-348 474,-317 451,-282 437,-261"/>
<polygon style="fill:midnightblue;stroke:midnightblue;" points="439.8,-258.9 431,-253 434.2,-263.1 439.8,-258.9"/>
</g>
<!-- Node31 -->
<g id="node99" class="node"><title>Node31</title>
<a xlink:href="_control_manager_8h.html" target="_top" xlink:title="ControlManager.h">
<polygon style="fill:white;stroke:black;" points="331,-406 331,-427 445,-427 445,-406 331,-406"/>
<text text-anchor="middle" x="388" y="-413" style="font-family:Arial;font-size:10.00;">ControlManager.h</text>
</a>
</g>
<!-- Node13&#45;&gt;Node31 -->
<g id="edge136" class="edge"><title>Node13&#45;&gt;Node31</title>
<path style="fill:none;stroke:midnightblue;" d="M525,-464C494,-454 453,-440 423,-430"/>
<polygon style="fill:midnightblue;stroke:midnightblue;" points="423.584,-426.521 413,-427 421.573,-433.226 423.584,-426.521"/>
</g>
<!-- Node15&#45;&gt;Node2 -->
<g id="edge126" class="edge"><title>Node15&#45;&gt;Node2</title>
<path style="fill:none;stroke:midnightblue;" d="M653,-311C660,-342 674,-434 630,-486 616,-503 566,-515 523,-523"/>
<polygon style="fill:midnightblue;stroke:midnightblue;" points="522.119,-519.607 513,-525 523.492,-526.471 522.119,-519.607"/>
</g>
<!-- Node15&#45;&gt;Node11 -->
<g id="edge130" class="edge"><title>Node15&#45;&gt;Node11</title>
<path style="fill:none;stroke:midnightblue;" d="M624,-290C588,-276 524,-250 468,-232 429,-218 384,-206 351,-198"/>
<polygon style="fill:midnightblue;stroke:midnightblue;" points="351.584,-194.521 341,-195 349.573,-201.226 351.584,-194.521"/>
</g>
<!-- Node15&#45;&gt;Node13 -->
<g id="edge128" class="edge"><title>Node15&#45;&gt;Node13</title>
<path style="fill:none;stroke:midnightblue;" d="M649,-311C640,-340 601,-418 578,-455"/>
<polygon style="fill:midnightblue;stroke:midnightblue;" points="574.797,-453.559 573,-464 580.916,-456.958 574.797,-453.559"/>
</g>
<!-- Node16 -->
<g id="node39" class="node"><title>Node16</title>
<a xlink:href="_message_header_8h.html" target="_top" xlink:title="MessageHeader.h">
<polygon style="fill:white;stroke:black;" points="958,-116 958,-137 1071,-137 1071,-116 958,-116"/>
<text text-anchor="middle" x="1014" y="-123" style="font-family:Arial;font-size:10.00;">MessageHeader.h</text>
</a>
</g>
<!-- Node15&#45;&gt;Node16 -->
<g id="edge46" class="edge"><title>Node15&#45;&gt;Node16</title>
<path style="fill:none;stroke:midnightblue;" d="M624,-290C608,-282 591,-270 582,-254 558,-210 639,-174 641,-174 693,-148 856,-135 948,-130"/>
<polygon style="fill:midnightblue;stroke:midnightblue;" points="948,-133.5 958,-130 948,-126.5 948,-133.5"/>
</g>
<!-- Node19 -->
<g id="node47" class="node"><title>Node19</title>
<a xlink:href="_client_connection_request_8h.html" target="_top" xlink:title="ClientConnectionRequest.h">
<polygon style="fill:white;stroke:black;" points="591,-232 591,-253 756,-253 756,-232 591,-232"/>
<text text-anchor="middle" x="673" y="-239" style="font-family:Arial;font-size:10.00;">ClientConnectionRequest.h</text>
</a>
</g>
<!-- Node15&#45;&gt;Node19 -->
<g id="edge56" class="edge"><title>Node15&#45;&gt;Node19</title>
<path style="fill:none;stroke:midnightblue;" d="M655,-290C658,-282 662,-271 665,-262"/>
<polygon style="fill:midnightblue;stroke:midnightblue;" points="668.137,-263.56 669,-253 661.74,-260.717 668.137,-263.56"/>
</g>
<!-- Node22 -->
<g id="node56" class="node"><title>Node22</title>
<a xlink:href="_client_connection_response_8h.html" target="_top" xlink:title="ClientConnectionResponse.h">
<polygon style="fill:white;stroke:black;" points="1105,-232 1105,-253 1278,-253 1278,-232 1105,-232"/>
<text text-anchor="middle" x="1191" y="-239" style="font-family:Arial;font-size:10.00;">ClientConnectionResponse.h</text>
</a>
</g>
<!-- Node15&#45;&gt;Node22 -->
<g id="edge68" class="edge"><title>Node15&#45;&gt;Node22</title>
<path style="fill:none;stroke:midnightblue;" d="M704,-295C785,-287 947,-270 1095,-254"/>
<polygon style="fill:midnightblue;stroke:midnightblue;" points="1095.4,-257.478 1105,-253 1094.7,-250.512 1095.4,-257.478"/>
</g>
<!-- Node23 -->
<g id="node60" class="node"><title>Node23</title>
<a xlink:href="_set_current_price_8h.html" target="_top" xlink:title="SetCurrentPrice.h">
<polygon style="fill:white;stroke:black;" points="773,-232 773,-253 884,-253 884,-232 773,-232"/>
<text text-anchor="middle" x="828" y="-239" style="font-family:Arial;font-size:10.00;">SetCurrentPrice.h</text>
</a>
</g>
<!-- Node15&#45;&gt;Node23 -->
<g id="edge74" class="edge"><title>Node15&#45;&gt;Node23</title>
<path style="fill:none;stroke:midnightblue;" d="M685,-290C714,-280 757,-266 787,-256"/>
<polygon style="fill:midnightblue;stroke:midnightblue;" points="788.427,-259.226 797,-253 786.416,-252.521 788.427,-259.226"/>
</g>
<!-- Node24 -->
<g id="node64" class="node"><title>Node24</title>
<a xlink:href="_price_proposal_8h.html" target="_top" xlink:title="PriceProposal.h">
<polygon style="fill:white;stroke:black;" points="901,-232 901,-253 999,-253 999,-232 901,-232"/>
<text text-anchor="middle" x="950" y="-239" style="font-family:Arial;font-size:10.00;">PriceProposal.h</text>
</a>
</g>
<!-- Node15&#45;&gt;Node24 -->
<g id="edge80" class="edge"><title>Node15&#45;&gt;Node24</title>
<path style="fill:none;stroke:midnightblue;" d="M704,-291C757,-281 837,-265 891,-255"/>
<polygon style="fill:midnightblue;stroke:midnightblue;" points="891.881,-258.393 901,-253 890.508,-251.529 891.881,-258.393"/>
</g>
<!-- Node25 -->
<g id="node68" class="node"><title>Node25</title>
<a xlink:href="_client_data_8h.html" target="_top" xlink:title="ClientData.h">
<polygon style="fill:white;stroke:black;" points="1295,-232 1295,-253 1379,-253 1379,-232 1295,-232"/>
<text text-anchor="middle" x="1337" y="-239" style="font-family:Arial;font-size:10.00;">ClientData.h</text>
</a>
</g>
<!-- Node15&#45;&gt;Node25 -->
<g id="edge86" class="edge"><title>Node15&#45;&gt;Node25</title>
<path style="fill:none;stroke:midnightblue;" d="M704,-299C812,-296 1063,-285 1285,-253"/>
<polygon style="fill:midnightblue;stroke:midnightblue;" points="1285.4,-256.478 1295,-252 1284.7,-249.512 1285.4,-256.478"/>
</g>
<!-- Node26 -->
<g id="node73" class="node"><title>Node26</title>
<a xlink:href="_get_price_8h.html" target="_top" xlink:title="GetPrice.h">
<polygon style="fill:white;stroke:black;" points="1017,-232 1017,-253 1088,-253 1088,-232 1017,-232"/>
<text text-anchor="middle" x="1052" y="-239" style="font-family:Arial;font-size:10.00;">GetPrice.h</text>
</a>
</g>
<!-- Node15&#45;&gt;Node26 -->
<g id="edge94" class="edge"><title>Node15&#45;&gt;Node26</title>
<path style="fill:none;stroke:midnightblue;" d="M704,-296C772,-288 893,-275 1007,-254"/>
<polygon style="fill:midnightblue;stroke:midnightblue;" points="1007.88,-257.393 1017,-252 1006.51,-250.529 1007.88,-257.393"/>
</g>
<!-- Node27 -->
<g id="node77" class="node"><title>Node27</title>
<a xlink:href="_demand_negotiation_8h.html" target="_top" xlink:title="DemandNegotiation.h">
<polygon style="fill:white;stroke:black;" points="1397,-232 1397,-253 1534,-253 1534,-232 1397,-232"/>
<text text-anchor="middle" x="1465" y="-239" style="font-family:Arial;font-size:10.00;">DemandNegotiation.h</text>
</a>
</g>
<!-- Node15&#45;&gt;Node27 -->
<g id="edge100" class="edge"><title>Node15&#45;&gt;Node27</title>
<path style="fill:none;stroke:midnightblue;" d="M704,-299C824,-294 1124,-280 1387,-254"/>
<polygon style="fill:midnightblue;stroke:midnightblue;" points="1387.4,-257.478 1397,-253 1386.7,-250.512 1387.4,-257.478"/>
</g>
<!-- Node28 -->
<g id="node82" class="node"><title>Node28</title>
<a xlink:href="_connection_manager_8h.html" target="_top" xlink:title="ConnectionManager.h">
<polygon style="fill:white;stroke:black;" points="315,-348 315,-369 452,-369 452,-348 315,-348"/>
<text text-anchor="middle" x="383" y="-355" style="font-family:Arial;font-size:10.00;">ConnectionManager.h</text>
</a>
</g>
<!-- Node15&#45;&gt;Node28 -->
<g id="edge108" class="edge"><title>Node15&#45;&gt;Node28</title>
<path style="fill:none;stroke:midnightblue;" d="M610,-311C567,-320 499,-335 449,-346"/>
<polygon style="fill:midnightblue;stroke:midnightblue;" points="448.119,-342.607 439,-348 449.492,-349.471 448.119,-342.607"/>
</g>
<!-- Node15&#45;&gt;Node29 -->
<g id="edge132" class="edge"><title>Node15&#45;&gt;Node29</title>
<path style="fill:none;stroke:midnightblue;" d="M608,-290C568,-280 509,-265 469,-254"/>
<polygon style="fill:midnightblue;stroke:midnightblue;" points="469.492,-250.529 459,-252 468.119,-257.393 469.492,-250.529"/>
</g>
<!-- Node16&#45;&gt;Node14 -->
<g id="edge54" class="edge"><title>Node16&#45;&gt;Node14</title>
<path style="fill:none;stroke:midnightblue;" d="M1013,-116C1012,-108 1011,-98 1010,-89"/>
<polygon style="fill:midnightblue;stroke:midnightblue;" points="1013.48,-88.6021 1009,-79 1006.51,-89.2987 1013.48,-88.6021"/>
</g>
<!-- Node17 -->
<g id="node41" class="node"><title>Node17</title>
<a xlink:href="_network_byte_accessor_8h.html" target="_top" xlink:title="NetworkByteAccessor.h">
<polygon style="fill:white;stroke:black;" points="1046,-58 1046,-79 1187,-79 1187,-58 1046,-58"/>
<text text-anchor="middle" x="1116" y="-65" style="font-family:Arial;font-size:10.00;">NetworkByteAccessor.h</text>
</a>
</g>
<!-- Node16&#45;&gt;Node17 -->
<g id="edge48" class="edge"><title>Node16&#45;&gt;Node17</title>
<path style="fill:none;stroke:midnightblue;" d="M1034,-116C1049,-107 1071,-94 1089,-84"/>
<polygon style="fill:midnightblue;stroke:midnightblue;" points="1090.96,-86.916 1098,-79 1087.56,-80.7969 1090.96,-86.916"/>
</g>
<!-- Node17&#45;&gt;Node10 -->
<g id="edge50" class="edge"><title>Node17&#45;&gt;Node10</title>
<path style="fill:none;stroke:midnightblue;" d="M1148,-58C1176,-48 1217,-34 1246,-24"/>
<polygon style="fill:midnightblue;stroke:midnightblue;" points="1247.43,-27.2259 1256,-21 1245.42,-20.5212 1247.43,-27.2259"/>
</g>
<!-- Node18 -->
<g id="node44" class="node"><title>Node18</title>
<a xlink:href="_compile_time_checker_library_8h.html" target="_top" xlink:title="CompileTimeCheckerLibrary.h">
<polygon style="fill:white;stroke:black;" points="1026,-0 1026,-21 1207,-21 1207,-0 1026,-0"/>
<text text-anchor="middle" x="1116" y="-7" style="font-family:Arial;font-size:10.00;">CompileTimeCheckerLibrary.h</text>
</a>
</g>
<!-- Node17&#45;&gt;Node18 -->
<g id="edge52" class="edge"><title>Node17&#45;&gt;Node18</title>
<path style="fill:none;stroke:midnightblue;" d="M1116,-58C1116,-50 1116,-40 1116,-31"/>
<polygon style="fill:midnightblue;stroke:midnightblue;" points="1119.5,-31 1116,-21 1112.5,-31 1119.5,-31"/>
</g>
<!-- Node19&#45;&gt;Node16 -->
<g id="edge58" class="edge"><title>Node19&#45;&gt;Node16</title>
<path style="fill:none;stroke:midnightblue;" d="M705,-232C769,-211 907,-164 974,-140"/>
<polygon style="fill:midnightblue;stroke:midnightblue;" points="975.427,-143.226 984,-137 973.416,-136.521 975.427,-143.226"/>
</g>
<!-- Node20 -->
<g id="node50" class="node"><title>Node20</title>
<a xlink:href="_message_ender_8h.html" target="_top" xlink:title="MessageEnder.h">
<polygon style="fill:white;stroke:black;" points="1042,-174 1042,-195 1146,-195 1146,-174 1042,-174"/>
<text text-anchor="middle" x="1094" y="-181" style="font-family:Arial;font-size:10.00;">MessageEnder.h</text>
</a>
</g>
<!-- Node19&#45;&gt;Node20 -->
<g id="edge60" class="edge"><title>Node19&#45;&gt;Node20</title>
<path style="fill:none;stroke:midnightblue;" d="M753,-232C834,-221 958,-204 1032,-193"/>
<polygon style="fill:midnightblue;stroke:midnightblue;" points="1032.4,-196.478 1042,-192 1031.7,-189.512 1032.4,-196.478"/>
</g>
<!-- Node21 -->
<g id="node54" class="node"><title>Node21</title>
<polygon style="fill:white;stroke:#bfbfbf;" points="650,-174 650,-195 696,-195 696,-174 650,-174"/>
<text text-anchor="middle" x="673" y="-181" style="font-family:Arial;font-size:10.00;">string</text>
</g>
<!-- Node19&#45;&gt;Node21 -->
<g id="edge66" class="edge"><title>Node19&#45;&gt;Node21</title>
<path style="fill:none;stroke:midnightblue;" d="M673,-232C673,-224 673,-214 673,-205"/>
<polygon style="fill:midnightblue;stroke:midnightblue;" points="676.5,-205 673,-195 669.5,-205 676.5,-205"/>
</g>
<!-- Node20&#45;&gt;Node16 -->
<g id="edge62" class="edge"><title>Node20&#45;&gt;Node16</title>
<path style="fill:none;stroke:midnightblue;" d="M1079,-174C1067,-165 1050,-153 1036,-143"/>
<polygon style="fill:midnightblue;stroke:midnightblue;" points="1038.1,-140.2 1028,-137 1033.9,-145.8 1038.1,-140.2"/>
</g>
<!-- Node20&#45;&gt;Node17 -->
<g id="edge64" class="edge"><title>Node20&#45;&gt;Node17</title>
<path style="fill:none;stroke:midnightblue;" d="M1096,-174C1100,-155 1108,-114 1112,-89"/>
<polygon style="fill:midnightblue;stroke:midnightblue;" points="1115.47,-89.4922 1114,-79 1108.61,-88.1194 1115.47,-89.4922"/>
</g>
<!-- Node22&#45;&gt;Node16 -->
<g id="edge70" class="edge"><title>Node22&#45;&gt;Node16</title>
<path style="fill:none;stroke:midnightblue;" d="M1188,-232C1183,-217 1173,-189 1155,-174 1134,-156 1106,-145 1081,-138"/>
<polygon style="fill:midnightblue;stroke:midnightblue;" points="1081.49,-134.529 1071,-136 1080.12,-141.393 1081.49,-134.529"/>
</g>
<!-- Node22&#45;&gt;Node20 -->
<g id="edge72" class="edge"><title>Node22&#45;&gt;Node20</title>
<path style="fill:none;stroke:midnightblue;" d="M1172,-232C1157,-223 1136,-210 1120,-200"/>
<polygon style="fill:midnightblue;stroke:midnightblue;" points="1121.44,-196.797 1111,-195 1118.04,-202.916 1121.44,-196.797"/>
</g>
<!-- Node23&#45;&gt;Node16 -->
<g id="edge76" class="edge"><title>Node23&#45;&gt;Node16</title>
<path style="fill:none;stroke:midnightblue;" d="M846,-232C879,-212 951,-166 989,-142"/>
<polygon style="fill:midnightblue;stroke:midnightblue;" points="990.958,-144.916 998,-137 987.559,-138.797 990.958,-144.916"/>
</g>
<!-- Node23&#45;&gt;Node20 -->
<g id="edge78" class="edge"><title>Node23&#45;&gt;Node20</title>
<path style="fill:none;stroke:midnightblue;" d="M879,-232C925,-222 991,-207 1038,-197"/>
<polygon style="fill:midnightblue;stroke:midnightblue;" points="1038.88,-200.393 1048,-195 1037.51,-193.529 1038.88,-200.393"/>
</g>
<!-- Node24&#45;&gt;Node16 -->
<g id="edge82" class="edge"><title>Node24&#45;&gt;Node16</title>
<path style="fill:none;stroke:midnightblue;" d="M956,-232C967,-213 990,-171 1003,-146"/>
<polygon style="fill:midnightblue;stroke:midnightblue;" points="1006.2,-147.441 1008,-137 1000.08,-144.042 1006.2,-147.441"/>
</g>
<!-- Node24&#45;&gt;Node20 -->
<g id="edge84" class="edge"><title>Node24&#45;&gt;Node20</title>
<path style="fill:none;stroke:midnightblue;" d="M977,-232C1001,-222 1034,-209 1059,-199"/>
<polygon style="fill:midnightblue;stroke:midnightblue;" points="1061.02,-201.964 1069,-195 1058.42,-195.464 1061.02,-201.964"/>
</g>
<!-- Node25&#45;&gt;Node10 -->
<g id="edge92" class="edge"><title>Node25&#45;&gt;Node10</title>
<path style="fill:none;stroke:midnightblue;" d="M1334,-232C1326,-195 1299,-78 1288,-31"/>
<polygon style="fill:midnightblue;stroke:midnightblue;" points="1291.39,-30.1194 1286,-21 1284.53,-31.4922 1291.39,-30.1194"/>
</g>
<!-- Node25&#45;&gt;Node16 -->
<g id="edge88" class="edge"><title>Node25&#45;&gt;Node16</title>
<path style="fill:none;stroke:midnightblue;" d="M1314,-232C1283,-217 1226,-192 1177,-174 1140,-160 1097,-148 1065,-140"/>
<polygon style="fill:midnightblue;stroke:midnightblue;" points="1065.58,-136.521 1055,-137 1063.57,-143.226 1065.58,-136.521"/>
</g>
<!-- Node25&#45;&gt;Node20 -->
<g id="edge90" class="edge"><title>Node25&#45;&gt;Node20</title>
<path style="fill:none;stroke:midnightblue;" d="M1295,-233C1253,-223 1191,-208 1146,-197"/>
<polygon style="fill:midnightblue;stroke:midnightblue;" points="1146.49,-193.529 1136,-195 1145.12,-200.393 1146.49,-193.529"/>
</g>
<!-- Node26&#45;&gt;Node16 -->
<g id="edge96" class="edge"><title>Node26&#45;&gt;Node16</title>
<path style="fill:none;stroke:midnightblue;" d="M1047,-232C1043,-222 1037,-208 1033,-196 1027,-179 1022,-161 1018,-147"/>
<polygon style="fill:midnightblue;stroke:midnightblue;" points="1021.39,-146.119 1016,-137 1014.53,-147.492 1021.39,-146.119"/>
</g>
<!-- Node26&#45;&gt;Node20 -->
<g id="edge98" class="edge"><title>Node26&#45;&gt;Node20</title>
<path style="fill:none;stroke:midnightblue;" d="M1060,-232C1066,-224 1074,-212 1081,-203"/>
<polygon style="fill:midnightblue;stroke:midnightblue;" points="1083.8,-205.1 1087,-195 1078.2,-200.9 1083.8,-205.1"/>
</g>
<!-- Node27&#45;&gt;Node10 -->
<g id="edge106" class="edge"><title>Node27&#45;&gt;Node10</title>
<path style="fill:none;stroke:midnightblue;" d="M1456,-232C1427,-194 1334,-75 1298,-29"/>
<polygon style="fill:midnightblue;stroke:midnightblue;" points="1300.8,-26.9 1292,-21 1295.2,-31.1 1300.8,-26.9"/>
</g>
<!-- Node27&#45;&gt;Node16 -->
<g id="edge102" class="edge"><title>Node27&#45;&gt;Node16</title>
<path style="fill:none;stroke:midnightblue;" d="M1428,-232C1380,-218 1293,-193 1219,-174 1169,-161 1113,-148 1072,-139"/>
<polygon style="fill:midnightblue;stroke:midnightblue;" points="1072.49,-135.529 1062,-137 1071.12,-142.393 1072.49,-135.529"/>
</g>
<!-- Node27&#45;&gt;Node20 -->
<g id="edge104" class="edge"><title>Node27&#45;&gt;Node20</title>
<path style="fill:none;stroke:midnightblue;" d="M1397,-232C1329,-222 1223,-206 1156,-195"/>
<polygon style="fill:midnightblue;stroke:midnightblue;" points="1156.49,-191.529 1146,-193 1155.12,-198.393 1156.49,-191.529"/>
</g>
<!-- Node28&#45;&gt;Node5 -->
<g id="edge112" class="edge"><title>Node28&#45;&gt;Node5</title>
<path style="fill:none;stroke:midnightblue;" d="M339,-348C300,-338 244,-323 204,-313"/>
<polygon style="fill:midnightblue;stroke:midnightblue;" points="204.492,-309.529 194,-311 203.119,-316.393 204.492,-309.529"/>
</g>
<!-- Node28&#45;&gt;Node11 -->
<g id="edge114" class="edge"><title>Node28&#45;&gt;Node11</title>
<path style="fill:none;stroke:midnightblue;" d="M388,-348C394,-334 401,-308 392,-290 380,-266 364,-272 347,-254 333,-239 320,-219 311,-204"/>
<polygon style="fill:midnightblue;stroke:midnightblue;" points="313.916,-202.042 306,-195 307.797,-205.441 313.916,-202.042"/>
</g>
<!-- Node28&#45;&gt;Node14 -->
<g id="edge122" class="edge"><title>Node28&#45;&gt;Node14</title>
<path style="fill:none;stroke:midnightblue;" d="M417,-348C459,-332 525,-298 525,-243 525,-243 525,-243 525,-185 525,-91 872,-73 978,-69"/>
<polygon style="fill:midnightblue;stroke:midnightblue;" points="978,-72.5001 988,-69 978,-65.5001 978,-72.5001"/>
</g>
<!-- Node28&#45;&gt;Node15 -->
<g id="edge110" class="edge"><title>Node28&#45;&gt;Node15</title>
<path style="fill:none;stroke:midnightblue;" d="M429,-348C473,-338 540,-323 589,-313"/>
<polygon style="fill:midnightblue;stroke:midnightblue;" points="589.881,-316.393 599,-311 588.508,-309.529 589.881,-316.393"/>
</g>
<!-- Node28&#45;&gt;Node29 -->
<g id="edge116" class="edge"><title>Node28&#45;&gt;Node29</title>
<path style="fill:none;stroke:midnightblue;" d="M397,-348C407,-339 419,-326 425,-312 431,-296 430,-277 428,-263"/>
<polygon style="fill:midnightblue;stroke:midnightblue;" points="431.393,-262.119 426,-253 424.529,-263.492 431.393,-262.119"/>
</g>
<!-- Node30 -->
<g id="node92" class="node"><title>Node30</title>
<polygon style="fill:white;stroke:#bfbfbf;" points="315,-290 315,-311 384,-311 384,-290 315,-290"/>
<text text-anchor="middle" x="349" y="-297" style="font-family:Arial;font-size:10.00;">algorithm</text>
</g>
<!-- Node28&#45;&gt;Node30 -->
<g id="edge124" class="edge"><title>Node28&#45;&gt;Node30</title>
<path style="fill:none;stroke:midnightblue;" d="M376,-348C372,-340 365,-329 360,-320"/>
<polygon style="fill:midnightblue;stroke:midnightblue;" points="362.916,-318.042 355,-311 356.797,-321.441 362.916,-318.042"/>
</g>
<!-- Node29&#45;&gt;Node3 -->
<g id="edge118" class="edge"><title>Node29&#45;&gt;Node3</title>
<path style="fill:none;stroke:midnightblue;" d="M434,-232C452,-209 489,-156 467,-116 439,-67 380,-38 339,-23"/>
<polygon style="fill:midnightblue;stroke:midnightblue;" points="339.584,-19.5212 329,-20 337.573,-26.2259 339.584,-19.5212"/>
</g>
<!-- Node29&#45;&gt;Node4 -->
<g id="edge120" class="edge"><title>Node29&#45;&gt;Node4</title>
<path style="fill:none;stroke:midnightblue;" d="M423,-232C421,-213 417,-172 415,-147"/>
<polygon style="fill:midnightblue;stroke:midnightblue;" points="418.478,-146.602 414,-137 411.512,-147.299 418.478,-146.602"/>
</g>
<!-- Node31&#45;&gt;Node2 -->
<g id="edge142" class="edge"><title>Node31&#45;&gt;Node2</title>
<path style="fill:none;stroke:midnightblue;" d="M394,-427C405,-446 430,-488 445,-513"/>
<polygon style="fill:midnightblue;stroke:midnightblue;" points="442.084,-514.958 450,-522 448.203,-511.559 442.084,-514.958"/>
</g>
<!-- Node31&#45;&gt;Node5 -->
<g id="edge140" class="edge"><title>Node31&#45;&gt;Node5</title>
<path style="fill:none;stroke:midnightblue;" d="M334,-406C304,-398 266,-387 235,-370 210,-356 186,-334 171,-318"/>
<polygon style="fill:midnightblue;stroke:midnightblue;" points="173.546,-315.596 164,-311 168.596,-320.546 173.546,-315.596"/>
</g>
<!-- Node31&#45;&gt;Node11 -->
<g id="edge144" class="edge"><title>Node31&#45;&gt;Node11</title>
<path style="fill:none;stroke:midnightblue;" d="M344,-406C325,-399 305,-388 293,-370 260,-318 280,-241 293,-205"/>
<polygon style="fill:midnightblue;stroke:midnightblue;" points="296.479,-205.584 296,-195 289.774,-203.573 296.479,-205.584"/>
</g>
<!-- Node31&#45;&gt;Node13 -->
<g id="edge138" class="edge"><title>Node31&#45;&gt;Node13</title>
<path style="fill:none;stroke:midnightblue;" d="M424,-427C454,-436 496,-450 526,-461"/>
<polygon style="fill:midnightblue;stroke:midnightblue;" points="525.416,-464.479 536,-464 527.427,-457.774 525.416,-464.479"/>
</g>
<!-- Node31&#45;&gt;Node15 -->
<g id="edge148" class="edge"><title>Node31&#45;&gt;Node15</title>
<path style="fill:none;stroke:midnightblue;" d="M413,-406C461,-385 566,-339 619,-315"/>
<polygon style="fill:midnightblue;stroke:midnightblue;" points="620.283,-318.26 628,-311 617.44,-311.863 620.283,-318.26"/>
</g>
<!-- Node31&#45;&gt;Node28 -->
<g id="edge146" class="edge"><title>Node31&#45;&gt;Node28</title>
<path style="fill:none;stroke:midnightblue;" d="M387,-406C386,-398 386,-388 385,-379"/>
<polygon style="fill:midnightblue;stroke:midnightblue;" points="388.478,-378.602 384,-369 381.512,-379.299 388.478,-378.602"/>
</g>
<!-- Node31&#45;&gt;Node29 -->
<g id="edge150" class="edge"><title>Node31&#45;&gt;Node29</title>
<path style="fill:none;stroke:midnightblue;" d="M352,-406C335,-399 316,-387 306,-370 289,-339 287,-319 306,-290 322,-266 353,-254 379,-248"/>
<polygon style="fill:midnightblue;stroke:midnightblue;" points="379.881,-251.393 389,-246 378.508,-244.529 379.881,-251.393"/>
</g>
</g>
</svg>
