<?xml version="1.0" encoding="UTF-8" standalone="no"?>
<!DOCTYPE svg PUBLIC "-//W3C//DTD SVG 1.0//EN"
 "http://www.w3.org/TR/2001/REC-SVG-20010904/DTD/svg10.dtd" [
 <!ATTLIST svg xmlns:xlink CDATA #FIXED "http://www.w3.org/1999/xlink">
]>
<!-- Generated by Graphviz version 2.14.1 (Fri Nov  9 08:19:38 GMT 2007)
     For user: (asakyurek) Alper Sinan Akyurek -->
<!-- Title: MatlabReceiveHandler Pages: 1 -->
<svg width="480pt" height="113pt"
 viewBox="0.00 0.00 480.00 113.00" xmlns="http://www.w3.org/2000/svg" xmlns:xlink="http://www.w3.org/1999/xlink">
<g id="graph0" class="graph" transform="scale(1 1) rotate(0) translate(4 109)">
<title>MatlabReceiveHandler</title>
<polygon style="fill:white;stroke:white;" points="-4,4 -4,-109 476,-109 476,4 -4,4"/>
<!-- Node1 -->
<g id="node1" class="node"><title>Node1</title>
<polygon style="fill:#bfbfbf;stroke:black;" points="1,-56 1,-77 140,-77 140,-56 1,-56"/>
<text text-anchor="middle" x="70" y="-63" style="font-family:Arial;font-size:10.00;">MatlabReceiveHandler</text>
</g>
<!-- Node2 -->
<g id="node3" class="node"><title>Node2</title>
<a xlink:href="_log_print_8h.html#a7e0c5f42cad5bc3a44134fb9c9a7a052" target="_top" xlink:title="LogPrint">
<polygon style="fill:white;stroke:black;" points="399,-84 399,-105 459,-105 459,-84 399,-84"/>
<text text-anchor="middle" x="429" y="-91" style="font-family:Arial;font-size:10.00;">LogPrint</text>
</a>
</g>
<!-- Node1&#45;&gt;Node2 -->
<g id="edge2" class="edge"><title>Node1&#45;&gt;Node2</title>
<path style="fill:none;stroke:midnightblue;" d="M120,-77C138,-80 158,-84 176,-86 251,-93 338,-95 389,-95"/>
<polygon style="fill:midnightblue;stroke:midnightblue;" points="389,-98.5001 399,-95 389,-91.5001 389,-98.5001"/>
</g>
<!-- Node3 -->
<g id="node5" class="node"><title>Node3</title>
<a xlink:href="_matlab_manager_8cpp.html#adf11a697c41ba15207a66f8d2b567b75" target="_top" xlink:title="GetMatlabManager">
<polygon style="fill:white;stroke:black;" points="203,-56 203,-77 323,-77 323,-56 203,-56"/>
<text text-anchor="middle" x="263" y="-63" style="font-family:Arial;font-size:10.00;">GetMatlabManager</text>
</a>
</g>
<!-- Node1&#45;&gt;Node3 -->
<g id="edge4" class="edge"><title>Node1&#45;&gt;Node3</title>
<path style="fill:none;stroke:midnightblue;" d="M140,-67C157,-67 175,-67 193,-67"/>
<polygon style="fill:midnightblue;stroke:midnightblue;" points="193,-70.5001 203,-67 193,-63.5001 193,-70.5001"/>
</g>
<!-- Node4 -->
<g id="node7" class="node"><title>Node4</title>
<a xlink:href="class_matlab_manager.html#a7219113b7bc0744fe8faa94d599fe826" target="_top" xlink:title="MatlabManager::ProcessData">
<polygon style="fill:white;stroke:black;" points="177,-18 177,-39 350,-39 350,-18 177,-18"/>
<text text-anchor="middle" x="263" y="-25" style="font-family:Arial;font-size:10.00;">MatlabManager::ProcessData</text>
</a>
</g>
<!-- Node1&#45;&gt;Node4 -->
<g id="edge6" class="edge"><title>Node1&#45;&gt;Node4</title>
<path style="fill:none;stroke:midnightblue;" d="M126,-56C150,-52 178,-46 203,-41"/>
<polygon style="fill:midnightblue;stroke:midnightblue;" points="203.881,-44.3933 213,-39 202.508,-37.5292 203.881,-44.3933"/>
</g>
<!-- Node4&#45;&gt;Node2 -->
<g id="edge8" class="edge"><title>Node4&#45;&gt;Node2</title>
<path style="fill:none;stroke:midnightblue;" d="M323,-39C332,-41 341,-44 350,-48 361,-52 385,-66 404,-78"/>
<polygon style="fill:midnightblue;stroke:midnightblue;" points="401.9,-80.8 412,-84 406.1,-75.2 401.9,-80.8"/>
</g>
<!-- Node5 -->
<g id="node10" class="node"><title>Node5</title>
<a xlink:href="_log_print_8h.html#a46ea30a62534f8ce32cd39454e459b23" target="_top" xlink:title="WarningPrint">
<polygon style="fill:white;stroke:black;" points="387,-37 387,-58 472,-58 472,-37 387,-37"/>
<text text-anchor="middle" x="429" y="-44" style="font-family:Arial;font-size:10.00;">WarningPrint</text>
</a>
</g>
<!-- Node4&#45;&gt;Node5 -->
<g id="edge10" class="edge"><title>Node4&#45;&gt;Node5</title>
<path style="fill:none;stroke:midnightblue;" d="M350,-39C359,-40 368,-41 377,-42"/>
<polygon style="fill:midnightblue;stroke:midnightblue;" points="376.701,-45.4875 387,-43 377.398,-38.5222 376.701,-45.4875"/>
</g>
<!-- Node6 -->
<g id="node12" class="node"><title>Node6</title>
<a xlink:href="_log_print_8h.html#af783a2ea2c57c5f51f905a24f3f5a835" target="_top" xlink:title="ErrorPrint">
<polygon style="fill:white;stroke:black;" points="397,1 397,-20 462,-20 462,1 397,1"/>
<text text-anchor="middle" x="429" y="-6" style="font-family:Arial;font-size:10.00;">ErrorPrint</text>
</a>
</g>
<!-- Node4&#45;&gt;Node6 -->
<g id="edge12" class="edge"><title>Node4&#45;&gt;Node6</title>
<path style="fill:none;stroke:midnightblue;" d="M350,-19C363,-17 375,-16 387,-14"/>
<polygon style="fill:midnightblue;stroke:midnightblue;" points="387.398,-17.4778 397,-13 386.701,-10.5125 387.398,-17.4778"/>
</g>
</g>
</svg>
