<?xml version="1.0" encoding="UTF-8" standalone="no"?>
<!DOCTYPE svg PUBLIC "-//W3C//DTD SVG 1.0//EN"
 "http://www.w3.org/TR/2001/REC-SVG-20010904/DTD/svg10.dtd" [
 <!ATTLIST svg xmlns:xlink CDATA #FIXED "http://www.w3.org/1999/xlink">
]>
<!-- Generated by Graphviz version 2.14.1 (Fri Nov  9 08:19:38 GMT 2007)
     For user: (asakyurek) Alper Sinan Akyurek -->
<!-- Title: S2Sim/TerraswarmLibrary/MessageHeader.h Pages: 1 -->
<svg width="1440pt" height="542pt"
 viewBox="0.00 0.00 1440.00 542.00" xmlns="http://www.w3.org/2000/svg" xmlns:xlink="http://www.w3.org/1999/xlink">
<g id="graph0" class="graph" transform="scale(1 1) rotate(0) translate(4 538)">
<title>S2Sim/TerraswarmLibrary/MessageHeader.h</title>
<polygon style="fill:white;stroke:white;" points="-4,4 -4,-538 1436,-538 1436,4 -4,4"/>
<!-- Node1 -->
<g id="node1" class="node"><title>Node1</title>
<polygon style="fill:#bfbfbf;stroke:black;" points="600,-500 600,-534 753,-534 753,-500 600,-500"/>
<text text-anchor="start" x="608" y="-520" style="font-family:Arial;font-size:10.00;">S2Sim/TerraswarmLibrary</text>
<text text-anchor="middle" x="676" y="-507" style="font-family:Arial;font-size:10.00;">/MessageHeader.h</text>
</g>
<!-- Node2 -->
<g id="node3" class="node"><title>Node2</title>
<a xlink:href="_client_manager_8h.html" target="_top" xlink:title="S2Sim/ClientManager.h">
<polygon style="fill:white;stroke:black;" points="587,-296 587,-317 730,-317 730,-296 587,-296"/>
<text text-anchor="middle" x="658" y="-303" style="font-family:Arial;font-size:10.00;">S2Sim/ClientManager.h</text>
</a>
</g>
<!-- Node1&#45;&gt;Node2 -->
<g id="edge2" class="edge"><title>Node1&#45;&gt;Node2</title>
<path style="fill:none;stroke:midnightblue;" d="M590,-500C532,-484 458,-453 421,-394 413,-381 412,-371 421,-360 423,-358 543,-332 611,-317"/>
<polygon style="fill:midnightblue;stroke:midnightblue;" points="589.416,-503.479 600,-503 591.427,-496.774 589.416,-503.479"/>
</g>
<!-- Node13 -->
<g id="node35" class="node"><title>Node13</title>
<a xlink:href="_client_connection_request_8h.html" target="_top" xlink:title="S2Sim/TerraswarmLibrary\l/ClientConnectionRequest.h">
<polygon style="fill:white;stroke:black;" points="12,-360 12,-394 180,-394 180,-360 12,-360"/>
<text text-anchor="start" x="20" y="-380" style="font-family:Arial;font-size:10.00;">S2Sim/TerraswarmLibrary</text>
<text text-anchor="middle" x="96" y="-367" style="font-family:Arial;font-size:10.00;">/ClientConnectionRequest.h</text>
</a>
</g>
<!-- Node1&#45;&gt;Node13 -->
<g id="edge44" class="edge"><title>Node1&#45;&gt;Node13</title>
<path style="fill:none;stroke:midnightblue;" d="M590,-508C521,-500 423,-485 338,-464 266,-445 184,-413 137,-394"/>
<polygon style="fill:midnightblue;stroke:midnightblue;" points="589.701,-511.488 600,-509 590.398,-504.522 589.701,-511.488"/>
</g>
<!-- Node15 -->
<g id="node40" class="node"><title>Node15</title>
<a xlink:href="_message_ender_8h.html" target="_top" xlink:title="S2Sim/TerraswarmLibrary\l/MessageEnder.h">
<polygon style="fill:white;stroke:black;" points="652,-430 652,-464 805,-464 805,-430 652,-430"/>
<text text-anchor="start" x="660" y="-450" style="font-family:Arial;font-size:10.00;">S2Sim/TerraswarmLibrary</text>
<text text-anchor="middle" x="728" y="-437" style="font-family:Arial;font-size:10.00;">/MessageEnder.h</text>
</a>
</g>
<!-- Node1&#45;&gt;Node15 -->
<g id="edge50" class="edge"><title>Node1&#45;&gt;Node15</title>
<path style="fill:none;stroke:midnightblue;" d="M695,-492C702,-483 709,-472 715,-464"/>
<polygon style="fill:midnightblue;stroke:midnightblue;" points="692.2,-489.9 689,-500 697.8,-494.1 692.2,-489.9"/>
</g>
<!-- Node16 -->
<g id="node43" class="node"><title>Node16</title>
<a xlink:href="_client_connection_response_8h.html" target="_top" xlink:title="S2Sim/TerraswarmLibrary\l/ClientConnectionResponse.h">
<polygon style="fill:white;stroke:black;" points="198,-360 198,-394 374,-394 374,-360 198,-360"/>
<text text-anchor="start" x="206" y="-380" style="font-family:Arial;font-size:10.00;">S2Sim/TerraswarmLibrary</text>
<text text-anchor="middle" x="286" y="-367" style="font-family:Arial;font-size:10.00;">/ClientConnectionResponse.h</text>
</a>
</g>
<!-- Node1&#45;&gt;Node16 -->
<g id="edge92" class="edge"><title>Node1&#45;&gt;Node16</title>
<path style="fill:none;stroke:midnightblue;" d="M590,-506C518,-495 423,-480 388,-464 353,-447 319,-414 301,-394"/>
<polygon style="fill:midnightblue;stroke:midnightblue;" points="589.701,-509.488 600,-507 590.398,-502.522 589.701,-509.488"/>
</g>
<!-- Node18 -->
<g id="node48" class="node"><title>Node18</title>
<a xlink:href="_client_data_8h.html" target="_top" xlink:title="S2Sim/TerraswarmLibrary\l/ClientData.h">
<polygon style="fill:white;stroke:black;" points="430,-360 430,-394 583,-394 583,-360 430,-360"/>
<text text-anchor="start" x="438" y="-380" style="font-family:Arial;font-size:10.00;">S2Sim/TerraswarmLibrary</text>
<text text-anchor="middle" x="506" y="-367" style="font-family:Arial;font-size:10.00;">/ClientData.h</text>
</a>
</g>
<!-- Node1&#45;&gt;Node18 -->
<g id="edge94" class="edge"><title>Node1&#45;&gt;Node18</title>
<path style="fill:none;stroke:midnightblue;" d="M647,-493C613,-465 556,-419 527,-394"/>
<polygon style="fill:midnightblue;stroke:midnightblue;" points="645.169,-496.049 655,-500 649.779,-490.781 645.169,-496.049"/>
</g>
<!-- Node20 -->
<g id="node53" class="node"><title>Node20</title>
<a xlink:href="_demand_negotiation_8h.html" target="_top" xlink:title="S2Sim/TerraswarmLibrary\l/DemandNegotiation.h">
<polygon style="fill:white;stroke:black;" points="600,-360 600,-394 753,-394 753,-360 600,-360"/>
<text text-anchor="start" x="608" y="-380" style="font-family:Arial;font-size:10.00;">S2Sim/TerraswarmLibrary</text>
<text text-anchor="middle" x="676" y="-367" style="font-family:Arial;font-size:10.00;">/DemandNegotiation.h</text>
</a>
</g>
<!-- Node1&#45;&gt;Node20 -->
<g id="edge96" class="edge"><title>Node1&#45;&gt;Node20</title>
<path style="fill:none;stroke:midnightblue;" d="M656,-492C650,-483 645,-474 643,-464 638,-449 638,-444 643,-430 646,-417 654,-404 661,-394"/>
<polygon style="fill:midnightblue;stroke:midnightblue;" points="653.2,-494.1 662,-500 658.8,-489.9 653.2,-494.1"/>
</g>
<!-- Node22 -->
<g id="node58" class="node"><title>Node22</title>
<a xlink:href="_get_price_8h.html" target="_top" xlink:title="S2Sim/TerraswarmLibrary\l/GetPrice.h">
<polygon style="fill:white;stroke:black;" points="940,-360 940,-394 1093,-394 1093,-360 940,-360"/>
<text text-anchor="start" x="948" y="-380" style="font-family:Arial;font-size:10.00;">S2Sim/TerraswarmLibrary</text>
<text text-anchor="middle" x="1016" y="-367" style="font-family:Arial;font-size:10.00;">/GetPrice.h</text>
</a>
</g>
<!-- Node1&#45;&gt;Node22 -->
<g id="edge98" class="edge"><title>Node1&#45;&gt;Node22</title>
<path style="fill:none;stroke:midnightblue;" d="M741,-496C764,-488 790,-477 813,-464 834,-451 834,-441 856,-430 884,-415 917,-403 946,-394"/>
<polygon style="fill:midnightblue;stroke:midnightblue;" points="738.985,-493.036 731,-500 741.585,-499.536 738.985,-493.036"/>
</g>
<!-- Node25 -->
<g id="node65" class="node"><title>Node25</title>
<a xlink:href="_price_proposal_8h.html" target="_top" xlink:title="S2Sim/TerraswarmLibrary\l/PriceProposal.h">
<polygon style="fill:white;stroke:black;" points="1110,-360 1110,-394 1263,-394 1263,-360 1110,-360"/>
<text text-anchor="start" x="1118" y="-380" style="font-family:Arial;font-size:10.00;">S2Sim/TerraswarmLibrary</text>
<text text-anchor="middle" x="1186" y="-367" style="font-family:Arial;font-size:10.00;">/PriceProposal.h</text>
</a>
</g>
<!-- Node1&#45;&gt;Node25 -->
<g id="edge102" class="edge"><title>Node1&#45;&gt;Node25</title>
<path style="fill:none;stroke:midnightblue;" d="M756,-497C784,-489 817,-477 845,-464 868,-452 869,-440 894,-430 980,-394 1009,-411 1101,-394 1104,-393 1107,-393 1110,-392"/>
<polygon style="fill:midnightblue;stroke:midnightblue;" points="754.573,-493.774 746,-500 756.584,-500.479 754.573,-493.774"/>
</g>
<!-- Node27 -->
<g id="node70" class="node"><title>Node27</title>
<a xlink:href="_set_current_price_8h.html" target="_top" xlink:title="S2Sim/TerraswarmLibrary\l/SetCurrentPrice.h">
<polygon style="fill:white;stroke:black;" points="1280,-360 1280,-394 1433,-394 1433,-360 1280,-360"/>
<text text-anchor="start" x="1288" y="-380" style="font-family:Arial;font-size:10.00;">S2Sim/TerraswarmLibrary</text>
<text text-anchor="middle" x="1356" y="-367" style="font-family:Arial;font-size:10.00;">/SetCurrentPrice.h</text>
</a>
</g>
<!-- Node1&#45;&gt;Node27 -->
<g id="edge104" class="edge"><title>Node1&#45;&gt;Node27</title>
<path style="fill:none;stroke:midnightblue;" d="M763,-502C800,-493 843,-481 880,-464 903,-453 902,-439 927,-430 1070,-375 1119,-417 1271,-394 1274,-394 1277,-393 1280,-393"/>
<polygon style="fill:midnightblue;stroke:midnightblue;" points="762.119,-498.607 753,-504 763.492,-505.471 762.119,-498.607"/>
</g>
<!-- Node29 -->
<g id="node79" class="node"><title>Node29</title>
<a xlink:href="_message_header_8cpp.html" target="_top" xlink:title="S2Sim/TerraswarmLibrary\l/MessageHeader.cpp">
<polygon style="fill:white;stroke:black;" points="936,-430 936,-464 1089,-464 1089,-430 936,-430"/>
<text text-anchor="start" x="944" y="-450" style="font-family:Arial;font-size:10.00;">S2Sim/TerraswarmLibrary</text>
<text text-anchor="middle" x="1012" y="-437" style="font-family:Arial;font-size:10.00;">/MessageHeader.cpp</text>
</a>
</g>
<!-- Node1&#45;&gt;Node29 -->
<g id="edge100" class="edge"><title>Node1&#45;&gt;Node29</title>
<path style="fill:none;stroke:midnightblue;" d="M763,-499C816,-487 884,-473 936,-463"/>
<polygon style="fill:midnightblue;stroke:midnightblue;" points="762.119,-495.607 753,-501 763.492,-502.471 762.119,-495.607"/>
</g>
<!-- Node3 -->
<g id="node5" class="node"><title>Node3</title>
<a xlink:href="_client_manager_8cpp.html" target="_top" xlink:title="S2Sim/ClientManager.cpp">
<polygon style="fill:white;stroke:black;" points="282,-232 282,-253 438,-253 438,-232 282,-232"/>
<text text-anchor="middle" x="360" y="-239" style="font-family:Arial;font-size:10.00;">S2Sim/ClientManager.cpp</text>
</a>
</g>
<!-- Node2&#45;&gt;Node3 -->
<g id="edge4" class="edge"><title>Node2&#45;&gt;Node3</title>
<path style="fill:none;stroke:midnightblue;" d="M597,-294C541,-282 458,-264 407,-253"/>
<polygon style="fill:midnightblue;stroke:midnightblue;" points="596.508,-297.471 607,-296 597.881,-290.607 596.508,-297.471"/>
</g>
<!-- Node4 -->
<g id="node7" class="node"><title>Node4</title>
<a xlink:href="_connection_manager_8h.html" target="_top" xlink:title="S2Sim/ConnectionManager.h">
<polygon style="fill:white;stroke:black;" points="456,-232 456,-253 630,-253 630,-232 456,-232"/>
<text text-anchor="middle" x="543" y="-239" style="font-family:Arial;font-size:10.00;">S2Sim/ConnectionManager.h</text>
</a>
</g>
<!-- Node2&#45;&gt;Node4 -->
<g id="edge6" class="edge"><title>Node2&#45;&gt;Node4</title>
<path style="fill:none;stroke:midnightblue;" d="M624,-291C601,-280 573,-264 556,-253"/>
<polygon style="fill:midnightblue;stroke:midnightblue;" points="622.559,-294.203 633,-296 625.958,-288.084 622.559,-294.203"/>
</g>
<!-- Node5 -->
<g id="node10" class="node"><title>Node5</title>
<a xlink:href="_control_manager_8h.html" target="_top" xlink:title="S2Sim/ControlManager.h">
<polygon style="fill:white;stroke:black;" points="468,-174 468,-195 619,-195 619,-174 468,-174"/>
<text text-anchor="middle" x="543" y="-181" style="font-family:Arial;font-size:10.00;">S2Sim/ControlManager.h</text>
</a>
</g>
<!-- Node2&#45;&gt;Node5 -->
<g id="edge42" class="edge"><title>Node2&#45;&gt;Node5</title>
<path style="fill:none;stroke:midnightblue;" d="M657,-286C655,-269 651,-247 639,-232 625,-214 602,-202 582,-195"/>
<polygon style="fill:midnightblue;stroke:midnightblue;" points="653.522,-286.398 658,-296 660.488,-285.701 653.522,-286.398"/>
</g>
<!-- Node6 -->
<g id="node12" class="node"><title>Node6</title>
<a xlink:href="_system_manager_8h.html" target="_top" xlink:title="S2Sim/SystemManager.h">
<polygon style="fill:white;stroke:black;" points="639,-116 639,-137 790,-137 790,-116 639,-116"/>
<text text-anchor="middle" x="714" y="-123" style="font-family:Arial;font-size:10.00;">S2Sim/SystemManager.h</text>
</a>
</g>
<!-- Node2&#45;&gt;Node6 -->
<g id="edge40" class="edge"><title>Node2&#45;&gt;Node6</title>
<path style="fill:none;stroke:midnightblue;" d="M660,-286C669,-247 694,-166 707,-137"/>
<polygon style="fill:midnightblue;stroke:midnightblue;" points="656.529,-285.508 658,-296 663.393,-286.881 656.529,-285.508"/>
</g>
<!-- Node4&#45;&gt;Node2 -->
<g id="edge8" class="edge"><title>Node4&#45;&gt;Node2</title>
<path style="fill:none;stroke:midnightblue;" d="M575,-258C597,-270 626,-286 643,-296"/>
<polygon style="fill:midnightblue;stroke:midnightblue;" points="576.441,-254.797 566,-253 573.042,-260.916 576.441,-254.797"/>
</g>
<!-- Node4&#45;&gt;Node5 -->
<g id="edge10" class="edge"><title>Node4&#45;&gt;Node5</title>
<path style="fill:none;stroke:midnightblue;" d="M543,-222C543,-212 543,-202 543,-195"/>
<polygon style="fill:midnightblue;stroke:midnightblue;" points="539.5,-222 543,-232 546.5,-222 539.5,-222"/>
</g>
<!-- Node8 -->
<g id="node19" class="node"><title>Node8</title>
<a xlink:href="main_8cpp.html" target="_top" xlink:title="S2Sim/main.cpp">
<polygon style="fill:white;stroke:black;" points="339,-0 339,-21 443,-21 443,-0 339,-0"/>
<text text-anchor="middle" x="391" y="-7" style="font-family:Arial;font-size:10.00;">S2Sim/main.cpp</text>
</a>
</g>
<!-- Node4&#45;&gt;Node8 -->
<g id="edge38" class="edge"><title>Node4&#45;&gt;Node8</title>
<path style="fill:none;stroke:midnightblue;" d="M507,-228C491,-220 472,-209 459,-196 417,-155 413,-136 398,-80 393,-60 392,-35 391,-21"/>
<polygon style="fill:midnightblue;stroke:midnightblue;" points="505.44,-231.137 516,-232 508.283,-224.74 505.44,-231.137"/>
</g>
<!-- Node12 -->
<g id="node30" class="node"><title>Node12</title>
<a xlink:href="_connection_manager_8cpp.html" target="_top" xlink:title="S2Sim/ConnectionManager.cpp">
<polygon style="fill:white;stroke:black;" points="139,-174 139,-195 326,-195 326,-174 139,-174"/>
<text text-anchor="middle" x="232" y="-181" style="font-family:Arial;font-size:10.00;">S2Sim/ConnectionManager.cpp</text>
</a>
</g>
<!-- Node4&#45;&gt;Node12 -->
<g id="edge36" class="edge"><title>Node4&#45;&gt;Node12</title>
<path style="fill:none;stroke:midnightblue;" d="M474,-230C417,-219 338,-204 286,-195"/>
<polygon style="fill:midnightblue;stroke:midnightblue;" points="473.508,-233.471 484,-232 474.881,-226.607 473.508,-233.471"/>
</g>
<!-- Node5&#45;&gt;Node6 -->
<g id="edge12" class="edge"><title>Node5&#45;&gt;Node6</title>
<path style="fill:none;stroke:midnightblue;" d="M580,-171C609,-160 650,-146 679,-137"/>
<polygon style="fill:midnightblue;stroke:midnightblue;" points="578.573,-167.774 570,-174 580.584,-174.479 578.573,-167.774"/>
</g>
<!-- Node5&#45;&gt;Node8 -->
<g id="edge34" class="edge"><title>Node5&#45;&gt;Node8</title>
<path style="fill:none;stroke:midnightblue;" d="M492,-171C474,-163 454,-152 440,-138 408,-103 396,-45 392,-21"/>
<polygon style="fill:midnightblue;stroke:midnightblue;" points="491.416,-174.479 502,-174 493.427,-167.774 491.416,-174.479"/>
</g>
<!-- Node11 -->
<g id="node27" class="node"><title>Node11</title>
<a xlink:href="_control_manager_8cpp.html" target="_top" xlink:title="S2Sim/ControlManager.cpp">
<polygon style="fill:white;stroke:black;" points="457,-116 457,-137 621,-137 621,-116 457,-116"/>
<text text-anchor="middle" x="539" y="-123" style="font-family:Arial;font-size:10.00;">S2Sim/ControlManager.cpp</text>
</a>
</g>
<!-- Node5&#45;&gt;Node11 -->
<g id="edge32" class="edge"><title>Node5&#45;&gt;Node11</title>
<path style="fill:none;stroke:midnightblue;" d="M541,-164C541,-154 540,-144 540,-137"/>
<polygon style="fill:midnightblue;stroke:midnightblue;" points="537.522,-164.398 542,-174 544.488,-163.701 537.522,-164.398"/>
</g>
<!-- Node6&#45;&gt;Node2 -->
<g id="edge28" class="edge"><title>Node6&#45;&gt;Node2</title>
<path style="fill:none;stroke:midnightblue;" d="M712,-147C704,-185 679,-266 665,-296"/>
<polygon style="fill:midnightblue;stroke:midnightblue;" points="715.471,-147.492 714,-137 708.607,-146.119 715.471,-147.492"/>
</g>
<!-- Node6&#45;&gt;Node5 -->
<g id="edge26" class="edge"><title>Node6&#45;&gt;Node5</title>
<path style="fill:none;stroke:midnightblue;" d="M680,-140C651,-150 611,-164 581,-174"/>
<polygon style="fill:midnightblue;stroke:midnightblue;" points="680.62,-143.483 689,-137 678.406,-136.842 680.62,-143.483"/>
</g>
<!-- Node7 -->
<g id="node14" class="node"><title>Node7</title>
<a xlink:href="_matlab_manager_8h.html" target="_top" xlink:title="S2Sim/MatlabManager.h">
<polygon style="fill:white;stroke:black;" points="640,-58 640,-79 788,-79 788,-58 640,-58"/>
<text text-anchor="middle" x="714" y="-65" style="font-family:Arial;font-size:10.00;">S2Sim/MatlabManager.h</text>
</a>
</g>
<!-- Node6&#45;&gt;Node7 -->
<g id="edge14" class="edge"><title>Node6&#45;&gt;Node7</title>
<path style="fill:none;stroke:midnightblue;" d="M708,-106C707,-96 708,-86 709,-79"/>
<polygon style="fill:midnightblue;stroke:midnightblue;" points="704.522,-106.398 709,-116 711.488,-105.701 704.522,-106.398"/>
</g>
<!-- Node10 -->
<g id="node25" class="node"><title>Node10</title>
<a xlink:href="_system_manager_8cpp.html" target="_top" xlink:title="S2Sim/SystemManager.cpp">
<polygon style="fill:white;stroke:black;" points="458,-58 458,-79 622,-79 622,-58 458,-58"/>
<text text-anchor="middle" x="540" y="-65" style="font-family:Arial;font-size:10.00;">S2Sim/SystemManager.cpp</text>
</a>
</g>
<!-- Node6&#45;&gt;Node10 -->
<g id="edge30" class="edge"><title>Node6&#45;&gt;Node10</title>
<path style="fill:none;stroke:midnightblue;" d="M671,-113C640,-102 598,-88 570,-79"/>
<polygon style="fill:midnightblue;stroke:midnightblue;" points="670.416,-116.479 681,-116 672.427,-109.774 670.416,-116.479"/>
</g>
<!-- Node7&#45;&gt;Node2 -->
<g id="edge16" class="edge"><title>Node7&#45;&gt;Node2</title>
<path style="fill:none;stroke:midnightblue;" d="M758,-83C774,-90 789,-101 798,-116 802,-124 801,-128 798,-138 772,-208 702,-271 672,-296"/>
<polygon style="fill:midnightblue;stroke:midnightblue;" points="759.56,-79.8631 749,-79 756.717,-86.2598 759.56,-79.8631"/>
</g>
<!-- Node7&#45;&gt;Node5 -->
<g id="edge20" class="edge"><title>Node7&#45;&gt;Node5</title>
<path style="fill:none;stroke:midnightblue;" d="M634,-80C558,-92 455,-108 448,-116 427,-141 471,-162 506,-174"/>
<polygon style="fill:midnightblue;stroke:midnightblue;" points="634.398,-83.4778 644,-79 633.701,-76.5125 634.398,-83.4778"/>
</g>
<!-- Node7&#45;&gt;Node6 -->
<g id="edge18" class="edge"><title>Node7&#45;&gt;Node6</title>
<path style="fill:none;stroke:midnightblue;" d="M720,-89C721,-98 720,-108 719,-116"/>
<polygon style="fill:midnightblue;stroke:midnightblue;" points="723.478,-88.6021 719,-79 716.512,-89.2987 723.478,-88.6021"/>
</g>
<!-- Node7&#45;&gt;Node8 -->
<g id="edge22" class="edge"><title>Node7&#45;&gt;Node8</title>
<path style="fill:none;stroke:midnightblue;" d="M642,-56C582,-45 497,-30 443,-20"/>
<polygon style="fill:midnightblue;stroke:midnightblue;" points="641.508,-59.4708 652,-58 642.881,-52.6067 641.508,-59.4708"/>
</g>
<!-- Node9 -->
<g id="node21" class="node"><title>Node9</title>
<a xlink:href="_matlab_manager_8cpp.html" target="_top" xlink:title="S2Sim/MatlabManager.cpp">
<polygon style="fill:white;stroke:black;" points="634,-0 634,-21 795,-21 795,-0 634,-0"/>
<text text-anchor="middle" x="714" y="-7" style="font-family:Arial;font-size:10.00;">S2Sim/MatlabManager.cpp</text>
</a>
</g>
<!-- Node7&#45;&gt;Node9 -->
<g id="edge24" class="edge"><title>Node7&#45;&gt;Node9</title>
<path style="fill:none;stroke:midnightblue;" d="M714,-48C714,-38 714,-28 714,-21"/>
<polygon style="fill:midnightblue;stroke:midnightblue;" points="710.5,-48 714,-58 717.5,-48 710.5,-48"/>
</g>
<!-- Node13&#45;&gt;Node2 -->
<g id="edge46" class="edge"><title>Node13&#45;&gt;Node2</title>
<path style="fill:none;stroke:midnightblue;" d="M190,-360C364,-337 410,-350 578,-324 590,-322 602,-320 614,-317"/>
<polygon style="fill:midnightblue;stroke:midnightblue;" points="189.602,-356.522 180,-361 190.299,-363.488 189.602,-356.522"/>
</g>
<!-- Node14 -->
<g id="node38" class="node"><title>Node14</title>
<a xlink:href="_client_connection_request_8cpp.html" target="_top" xlink:title="S2Sim/TerraswarmLibrary\l/ClientConnectionRequest.cpp">
<polygon style="fill:white;stroke:black;" points="0,-290 0,-324 181,-324 181,-290 0,-290"/>
<text text-anchor="start" x="8" y="-310" style="font-family:Arial;font-size:10.00;">S2Sim/TerraswarmLibrary</text>
<text text-anchor="middle" x="90" y="-297" style="font-family:Arial;font-size:10.00;">/ClientConnectionRequest.cpp</text>
</a>
</g>
<!-- Node13&#45;&gt;Node14 -->
<g id="edge48" class="edge"><title>Node13&#45;&gt;Node14</title>
<path style="fill:none;stroke:midnightblue;" d="M94,-350C93,-341 93,-332 92,-324"/>
<polygon style="fill:midnightblue;stroke:midnightblue;" points="90.5222,-350.398 95,-360 97.4875,-349.701 90.5222,-350.398"/>
</g>
<!-- Node15&#45;&gt;Node13 -->
<g id="edge52" class="edge"><title>Node15&#45;&gt;Node13</title>
<path style="fill:none;stroke:midnightblue;" d="M642,-440C535,-432 349,-416 189,-394 186,-394 183,-393 180,-393"/>
<polygon style="fill:midnightblue;stroke:midnightblue;" points="641.701,-443.488 652,-441 642.398,-436.522 641.701,-443.488"/>
</g>
<!-- Node15&#45;&gt;Node16 -->
<g id="edge54" class="edge"><title>Node15&#45;&gt;Node16</title>
<path style="fill:none;stroke:midnightblue;" d="M642,-433C564,-421 452,-403 374,-391"/>
<polygon style="fill:midnightblue;stroke:midnightblue;" points="641.508,-436.471 652,-435 642.881,-429.607 641.508,-436.471"/>
</g>
<!-- Node15&#45;&gt;Node18 -->
<g id="edge60" class="edge"><title>Node15&#45;&gt;Node18</title>
<path style="fill:none;stroke:midnightblue;" d="M664,-427C631,-417 592,-404 560,-394"/>
<polygon style="fill:midnightblue;stroke:midnightblue;" points="663.416,-430.479 674,-430 665.427,-423.774 663.416,-430.479"/>
</g>
<!-- Node15&#45;&gt;Node20 -->
<g id="edge66" class="edge"><title>Node15&#45;&gt;Node20</title>
<path style="fill:none;stroke:midnightblue;" d="M709,-422C702,-413 695,-402 689,-394"/>
<polygon style="fill:midnightblue;stroke:midnightblue;" points="706.2,-424.1 715,-430 711.8,-419.9 706.2,-424.1"/>
</g>
<!-- Node15&#45;&gt;Node22 -->
<g id="edge72" class="edge"><title>Node15&#45;&gt;Node22</title>
<path style="fill:none;stroke:midnightblue;" d="M808,-428C851,-417 904,-404 945,-394"/>
<polygon style="fill:midnightblue;stroke:midnightblue;" points="807.119,-424.607 798,-430 808.492,-431.471 807.119,-424.607"/>
</g>
<!-- Node24 -->
<g id="node63" class="node"><title>Node24</title>
<a xlink:href="_message_ender_8cpp.html" target="_top" xlink:title="S2Sim/TerraswarmLibrary\l/MessageEnder.cpp">
<polygon style="fill:white;stroke:black;" points="770,-360 770,-394 923,-394 923,-360 770,-360"/>
<text text-anchor="start" x="778" y="-380" style="font-family:Arial;font-size:10.00;">S2Sim/TerraswarmLibrary</text>
<text text-anchor="middle" x="846" y="-367" style="font-family:Arial;font-size:10.00;">/MessageEnder.cpp</text>
</a>
</g>
<!-- Node15&#45;&gt;Node24 -->
<g id="edge78" class="edge"><title>Node15&#45;&gt;Node24</title>
<path style="fill:none;stroke:midnightblue;" d="M766,-425C782,-415 802,-403 817,-394"/>
<polygon style="fill:midnightblue;stroke:midnightblue;" points="764.042,-422.084 757,-430 767.441,-428.203 764.042,-422.084"/>
</g>
<!-- Node15&#45;&gt;Node25 -->
<g id="edge80" class="edge"><title>Node15&#45;&gt;Node25</title>
<path style="fill:none;stroke:midnightblue;" d="M815,-435C908,-422 1047,-403 1101,-394 1104,-393 1107,-393 1110,-392"/>
<polygon style="fill:midnightblue;stroke:midnightblue;" points="814.602,-431.522 805,-436 815.299,-438.488 814.602,-431.522"/>
</g>
<!-- Node15&#45;&gt;Node27 -->
<g id="edge86" class="edge"><title>Node15&#45;&gt;Node27</title>
<path style="fill:none;stroke:midnightblue;" d="M815,-438C840,-435 868,-433 894,-430 1061,-413 1104,-418 1271,-394 1274,-394 1277,-393 1280,-393"/>
<polygon style="fill:midnightblue;stroke:midnightblue;" points="814.602,-434.522 805,-439 815.299,-441.488 814.602,-434.522"/>
</g>
<!-- Node16&#45;&gt;Node2 -->
<g id="edge56" class="edge"><title>Node16&#45;&gt;Node2</title>
<path style="fill:none;stroke:midnightblue;" d="M384,-360C441,-349 514,-336 578,-324 588,-322 599,-319 610,-317"/>
<polygon style="fill:midnightblue;stroke:midnightblue;" points="383.119,-356.607 374,-362 384.492,-363.471 383.119,-356.607"/>
</g>
<!-- Node17 -->
<g id="node46" class="node"><title>Node17</title>
<a xlink:href="_client_connection_response_8cpp.html" target="_top" xlink:title="S2Sim/TerraswarmLibrary\l/ClientConnectionResponse.cpp">
<polygon style="fill:white;stroke:black;" points="198,-290 198,-324 387,-324 387,-290 198,-290"/>
<text text-anchor="start" x="206" y="-310" style="font-family:Arial;font-size:10.00;">S2Sim/TerraswarmLibrary</text>
<text text-anchor="middle" x="292" y="-297" style="font-family:Arial;font-size:10.00;">/ClientConnectionResponse.cpp</text>
</a>
</g>
<!-- Node16&#45;&gt;Node17 -->
<g id="edge58" class="edge"><title>Node16&#45;&gt;Node17</title>
<path style="fill:none;stroke:midnightblue;" d="M288,-350C289,-341 289,-332 290,-324"/>
<polygon style="fill:midnightblue;stroke:midnightblue;" points="284.512,-349.701 287,-360 291.478,-350.398 284.512,-349.701"/>
</g>
<!-- Node18&#45;&gt;Node2 -->
<g id="edge62" class="edge"><title>Node18&#45;&gt;Node2</title>
<path style="fill:none;stroke:midnightblue;" d="M552,-356C580,-342 614,-327 636,-317"/>
<polygon style="fill:midnightblue;stroke:midnightblue;" points="550.717,-352.74 543,-360 553.56,-359.137 550.717,-352.74"/>
</g>
<!-- Node19 -->
<g id="node51" class="node"><title>Node19</title>
<a xlink:href="_client_data_8cpp.html" target="_top" xlink:title="S2Sim/TerraswarmLibrary\l/ClientData.cpp">
<polygon style="fill:white;stroke:black;" points="417,-290 417,-324 570,-324 570,-290 417,-290"/>
<text text-anchor="start" x="425" y="-310" style="font-family:Arial;font-size:10.00;">S2Sim/TerraswarmLibrary</text>
<text text-anchor="middle" x="493" y="-297" style="font-family:Arial;font-size:10.00;">/ClientData.cpp</text>
</a>
</g>
<!-- Node18&#45;&gt;Node19 -->
<g id="edge64" class="edge"><title>Node18&#45;&gt;Node19</title>
<path style="fill:none;stroke:midnightblue;" d="M501,-350C499,-341 497,-332 496,-324"/>
<polygon style="fill:midnightblue;stroke:midnightblue;" points="497.607,-350.881 503,-360 504.471,-349.508 497.607,-350.881"/>
</g>
<!-- Node20&#45;&gt;Node2 -->
<g id="edge68" class="edge"><title>Node20&#45;&gt;Node2</title>
<path style="fill:none;stroke:midnightblue;" d="M669,-350C666,-339 663,-326 661,-317"/>
<polygon style="fill:midnightblue;stroke:midnightblue;" points="665.774,-351.427 672,-360 672.479,-349.416 665.774,-351.427"/>
</g>
<!-- Node21 -->
<g id="node56" class="node"><title>Node21</title>
<a xlink:href="_demand_negotiation_8cpp.html" target="_top" xlink:title="S2Sim/TerraswarmLibrary\l/DemandNegotiation.cpp">
<polygon style="fill:white;stroke:black;" points="747,-290 747,-324 900,-324 900,-290 747,-290"/>
<text text-anchor="start" x="755" y="-310" style="font-family:Arial;font-size:10.00;">S2Sim/TerraswarmLibrary</text>
<text text-anchor="middle" x="823" y="-297" style="font-family:Arial;font-size:10.00;">/DemandNegotiation.cpp</text>
</a>
</g>
<!-- Node20&#45;&gt;Node21 -->
<g id="edge70" class="edge"><title>Node20&#45;&gt;Node21</title>
<path style="fill:none;stroke:midnightblue;" d="M721,-356C742,-345 767,-334 787,-324"/>
<polygon style="fill:midnightblue;stroke:midnightblue;" points="719.717,-352.74 712,-360 722.56,-359.137 719.717,-352.74"/>
</g>
<!-- Node22&#45;&gt;Node2 -->
<g id="edge74" class="edge"><title>Node22&#45;&gt;Node2</title>
<path style="fill:none;stroke:midnightblue;" d="M930,-360C843,-343 820,-340 738,-324 728,-322 717,-319 706,-317"/>
<polygon style="fill:midnightblue;stroke:midnightblue;" points="929.508,-363.471 940,-362 930.881,-356.607 929.508,-363.471"/>
</g>
<!-- Node23 -->
<g id="node61" class="node"><title>Node23</title>
<a xlink:href="_get_price_8cpp.html" target="_top" xlink:title="S2Sim/TerraswarmLibrary\l/GetPrice.cpp">
<polygon style="fill:white;stroke:black;" points="940,-290 940,-324 1093,-324 1093,-290 940,-290"/>
<text text-anchor="start" x="948" y="-310" style="font-family:Arial;font-size:10.00;">S2Sim/TerraswarmLibrary</text>
<text text-anchor="middle" x="1016" y="-297" style="font-family:Arial;font-size:10.00;">/GetPrice.cpp</text>
</a>
</g>
<!-- Node22&#45;&gt;Node23 -->
<g id="edge76" class="edge"><title>Node22&#45;&gt;Node23</title>
<path style="fill:none;stroke:midnightblue;" d="M1016,-350C1016,-341 1016,-332 1016,-324"/>
<polygon style="fill:midnightblue;stroke:midnightblue;" points="1012.5,-350 1016,-360 1019.5,-350 1012.5,-350"/>
</g>
<!-- Node25&#45;&gt;Node2 -->
<g id="edge82" class="edge"><title>Node25&#45;&gt;Node2</title>
<path style="fill:none;stroke:midnightblue;" d="M1100,-360C938,-336 895,-348 738,-324 726,-322 714,-320 702,-317"/>
<polygon style="fill:midnightblue;stroke:midnightblue;" points="1099.7,-363.488 1110,-361 1100.4,-356.522 1099.7,-363.488"/>
</g>
<!-- Node26 -->
<g id="node68" class="node"><title>Node26</title>
<a xlink:href="_price_proposal_8cpp.html" target="_top" xlink:title="S2Sim/TerraswarmLibrary\l/PriceProposal.cpp">
<polygon style="fill:white;stroke:black;" points="1110,-290 1110,-324 1263,-324 1263,-290 1110,-290"/>
<text text-anchor="start" x="1118" y="-310" style="font-family:Arial;font-size:10.00;">S2Sim/TerraswarmLibrary</text>
<text text-anchor="middle" x="1186" y="-297" style="font-family:Arial;font-size:10.00;">/PriceProposal.cpp</text>
</a>
</g>
<!-- Node25&#45;&gt;Node26 -->
<g id="edge84" class="edge"><title>Node25&#45;&gt;Node26</title>
<path style="fill:none;stroke:midnightblue;" d="M1186,-350C1186,-341 1186,-332 1186,-324"/>
<polygon style="fill:midnightblue;stroke:midnightblue;" points="1182.5,-350 1186,-360 1189.5,-350 1182.5,-350"/>
</g>
<!-- Node27&#45;&gt;Node2 -->
<g id="edge88" class="edge"><title>Node27&#45;&gt;Node2</title>
<path style="fill:none;stroke:midnightblue;" d="M1270,-360C1033,-329 970,-356 738,-324 726,-322 713,-320 701,-317"/>
<polygon style="fill:midnightblue;stroke:midnightblue;" points="1269.7,-363.488 1280,-361 1270.4,-356.522 1269.7,-363.488"/>
</g>
<!-- Node28 -->
<g id="node73" class="node"><title>Node28</title>
<a xlink:href="_set_current_price_8cpp.html" target="_top" xlink:title="S2Sim/TerraswarmLibrary\l/SetCurrentPrice.cpp">
<polygon style="fill:white;stroke:black;" points="1280,-290 1280,-324 1433,-324 1433,-290 1280,-290"/>
<text text-anchor="start" x="1288" y="-310" style="font-family:Arial;font-size:10.00;">S2Sim/TerraswarmLibrary</text>
<text text-anchor="middle" x="1356" y="-297" style="font-family:Arial;font-size:10.00;">/SetCurrentPrice.cpp</text>
</a>
</g>
<!-- Node27&#45;&gt;Node28 -->
<g id="edge90" class="edge"><title>Node27&#45;&gt;Node28</title>
<path style="fill:none;stroke:midnightblue;" d="M1356,-350C1356,-341 1356,-332 1356,-324"/>
<polygon style="fill:midnightblue;stroke:midnightblue;" points="1352.5,-350 1356,-360 1359.5,-350 1352.5,-350"/>
</g>
</g>
</svg>
