<?xml version="1.0" encoding="UTF-8" standalone="no"?>
<!DOCTYPE svg PUBLIC "-//W3C//DTD SVG 1.0//EN"
 "http://www.w3.org/TR/2001/REC-SVG-20010904/DTD/svg10.dtd" [
 <!ATTLIST svg xmlns:xlink CDATA #FIXED "http://www.w3.org/1999/xlink">
]>
<!-- Generated by Graphviz version 2.14.1 (Fri Nov  9 08:19:38 GMT 2007)
     For user: (asakyurek) Alper Sinan Akyurek -->
<!-- Title: S2Sim/TerraswarmLibrary/MessageEnder.h Pages: 1 -->
<svg width="1482pt" height="472pt"
 viewBox="0.00 0.00 1482.00 472.00" xmlns="http://www.w3.org/2000/svg" xmlns:xlink="http://www.w3.org/1999/xlink">
<g id="graph0" class="graph" transform="scale(1 1) rotate(0) translate(4 468)">
<title>S2Sim/TerraswarmLibrary/MessageEnder.h</title>
<polygon style="fill:white;stroke:white;" points="-4,4 -4,-468 1478,-468 1478,4 -4,4"/>
<!-- Node1 -->
<g id="node1" class="node"><title>Node1</title>
<polygon style="fill:#bfbfbf;stroke:black;" points="711,-430 711,-464 864,-464 864,-430 711,-430"/>
<text text-anchor="start" x="719" y="-450" style="font-family:Arial;font-size:10.00;">S2Sim/TerraswarmLibrary</text>
<text text-anchor="middle" x="787" y="-437" style="font-family:Arial;font-size:10.00;">/MessageEnder.h</text>
</g>
<!-- Node2 -->
<g id="node3" class="node"><title>Node2</title>
<a xlink:href="_client_connection_request_8h.html" target="_top" xlink:title="S2Sim/TerraswarmLibrary\l/ClientConnectionRequest.h">
<polygon style="fill:white;stroke:black;" points="1136,-360 1136,-394 1304,-394 1304,-360 1136,-360"/>
<text text-anchor="start" x="1144" y="-380" style="font-family:Arial;font-size:10.00;">S2Sim/TerraswarmLibrary</text>
<text text-anchor="middle" x="1220" y="-367" style="font-family:Arial;font-size:10.00;">/ClientConnectionRequest.h</text>
</a>
</g>
<!-- Node1&#45;&gt;Node2 -->
<g id="edge2" class="edge"><title>Node1&#45;&gt;Node2</title>
<path style="fill:none;stroke:midnightblue;" d="M874,-434C943,-424 1041,-408 1127,-394 1130,-393 1133,-393 1136,-392"/>
<polygon style="fill:midnightblue;stroke:midnightblue;" points="873.602,-430.522 864,-435 874.299,-437.488 873.602,-430.522"/>
</g>
<!-- Node15 -->
<g id="node39" class="node"><title>Node15</title>
<a xlink:href="_client_connection_response_8h.html" target="_top" xlink:title="S2Sim/TerraswarmLibrary\l/ClientConnectionResponse.h">
<polygon style="fill:white;stroke:black;" points="92,-360 92,-394 268,-394 268,-360 92,-360"/>
<text text-anchor="start" x="100" y="-380" style="font-family:Arial;font-size:10.00;">S2Sim/TerraswarmLibrary</text>
<text text-anchor="middle" x="180" y="-367" style="font-family:Arial;font-size:10.00;">/ClientConnectionResponse.h</text>
</a>
</g>
<!-- Node1&#45;&gt;Node15 -->
<g id="edge48" class="edge"><title>Node1&#45;&gt;Node15</title>
<path style="fill:none;stroke:midnightblue;" d="M701,-440C599,-431 425,-414 277,-394 274,-394 271,-393 268,-393"/>
<polygon style="fill:midnightblue;stroke:midnightblue;" points="700.701,-443.488 711,-441 701.398,-436.522 700.701,-443.488"/>
</g>
<!-- Node17 -->
<g id="node44" class="node"><title>Node17</title>
<a xlink:href="_client_data_8h.html" target="_top" xlink:title="S2Sim/TerraswarmLibrary\l/ClientData.h">
<polygon style="fill:white;stroke:black;" points="286,-360 286,-394 439,-394 439,-360 286,-360"/>
<text text-anchor="start" x="294" y="-380" style="font-family:Arial;font-size:10.00;">S2Sim/TerraswarmLibrary</text>
<text text-anchor="middle" x="362" y="-367" style="font-family:Arial;font-size:10.00;">/ClientData.h</text>
</a>
</g>
<!-- Node1&#45;&gt;Node17 -->
<g id="edge54" class="edge"><title>Node1&#45;&gt;Node17</title>
<path style="fill:none;stroke:midnightblue;" d="M701,-435C632,-425 533,-409 447,-394 444,-394 442,-393 439,-393"/>
<polygon style="fill:midnightblue;stroke:midnightblue;" points="700.701,-438.488 711,-436 701.398,-431.522 700.701,-438.488"/>
</g>
<!-- Node19 -->
<g id="node49" class="node"><title>Node19</title>
<a xlink:href="_demand_negotiation_8h.html" target="_top" xlink:title="S2Sim/TerraswarmLibrary\l/DemandNegotiation.h">
<polygon style="fill:white;stroke:black;" points="456,-360 456,-394 609,-394 609,-360 456,-360"/>
<text text-anchor="start" x="464" y="-380" style="font-family:Arial;font-size:10.00;">S2Sim/TerraswarmLibrary</text>
<text text-anchor="middle" x="532" y="-367" style="font-family:Arial;font-size:10.00;">/DemandNegotiation.h</text>
</a>
</g>
<!-- Node1&#45;&gt;Node19 -->
<g id="edge60" class="edge"><title>Node1&#45;&gt;Node19</title>
<path style="fill:none;stroke:midnightblue;" d="M715,-427C677,-417 631,-404 594,-394"/>
<polygon style="fill:midnightblue;stroke:midnightblue;" points="714.416,-430.479 725,-430 716.427,-423.774 714.416,-430.479"/>
</g>
<!-- Node21 -->
<g id="node54" class="node"><title>Node21</title>
<a xlink:href="_get_price_8h.html" target="_top" xlink:title="S2Sim/TerraswarmLibrary\l/GetPrice.h">
<polygon style="fill:white;stroke:black;" points="626,-360 626,-394 779,-394 779,-360 626,-360"/>
<text text-anchor="start" x="634" y="-380" style="font-family:Arial;font-size:10.00;">S2Sim/TerraswarmLibrary</text>
<text text-anchor="middle" x="702" y="-367" style="font-family:Arial;font-size:10.00;">/GetPrice.h</text>
</a>
</g>
<!-- Node1&#45;&gt;Node21 -->
<g id="edge66" class="edge"><title>Node1&#45;&gt;Node21</title>
<path style="fill:none;stroke:midnightblue;" d="M758,-424C747,-414 734,-403 723,-394"/>
<polygon style="fill:midnightblue;stroke:midnightblue;" points="755.9,-426.8 766,-430 760.1,-421.2 755.9,-426.8"/>
</g>
<!-- Node23 -->
<g id="node59" class="node"><title>Node23</title>
<a xlink:href="_message_ender_8cpp.html" target="_top" xlink:title="S2Sim/TerraswarmLibrary\l/MessageEnder.cpp">
<polygon style="fill:white;stroke:black;" points="1322,-360 1322,-394 1475,-394 1475,-360 1322,-360"/>
<text text-anchor="start" x="1330" y="-380" style="font-family:Arial;font-size:10.00;">S2Sim/TerraswarmLibrary</text>
<text text-anchor="middle" x="1398" y="-367" style="font-family:Arial;font-size:10.00;">/MessageEnder.cpp</text>
</a>
</g>
<!-- Node1&#45;&gt;Node23 -->
<g id="edge72" class="edge"><title>Node1&#45;&gt;Node23</title>
<path style="fill:none;stroke:midnightblue;" d="M874,-440C979,-432 1159,-416 1313,-394 1316,-394 1319,-393 1322,-393"/>
<polygon style="fill:midnightblue;stroke:midnightblue;" points="873.602,-436.522 864,-441 874.299,-443.488 873.602,-436.522"/>
</g>
<!-- Node24 -->
<g id="node61" class="node"><title>Node24</title>
<a xlink:href="_price_proposal_8h.html" target="_top" xlink:title="S2Sim/TerraswarmLibrary\l/PriceProposal.h">
<polygon style="fill:white;stroke:black;" points="796,-360 796,-394 949,-394 949,-360 796,-360"/>
<text text-anchor="start" x="804" y="-380" style="font-family:Arial;font-size:10.00;">S2Sim/TerraswarmLibrary</text>
<text text-anchor="middle" x="872" y="-367" style="font-family:Arial;font-size:10.00;">/PriceProposal.h</text>
</a>
</g>
<!-- Node1&#45;&gt;Node24 -->
<g id="edge74" class="edge"><title>Node1&#45;&gt;Node24</title>
<path style="fill:none;stroke:midnightblue;" d="M816,-424C827,-414 840,-403 851,-394"/>
<polygon style="fill:midnightblue;stroke:midnightblue;" points="813.9,-421.2 808,-430 818.1,-426.8 813.9,-421.2"/>
</g>
<!-- Node26 -->
<g id="node66" class="node"><title>Node26</title>
<a xlink:href="_set_current_price_8h.html" target="_top" xlink:title="S2Sim/TerraswarmLibrary\l/SetCurrentPrice.h">
<polygon style="fill:white;stroke:black;" points="966,-360 966,-394 1119,-394 1119,-360 966,-360"/>
<text text-anchor="start" x="974" y="-380" style="font-family:Arial;font-size:10.00;">S2Sim/TerraswarmLibrary</text>
<text text-anchor="middle" x="1042" y="-367" style="font-family:Arial;font-size:10.00;">/SetCurrentPrice.h</text>
</a>
</g>
<!-- Node1&#45;&gt;Node26 -->
<g id="edge80" class="edge"><title>Node1&#45;&gt;Node26</title>
<path style="fill:none;stroke:midnightblue;" d="M859,-427C897,-417 943,-404 980,-394"/>
<polygon style="fill:midnightblue;stroke:midnightblue;" points="857.573,-423.774 849,-430 859.584,-430.479 857.573,-423.774"/>
</g>
<!-- Node3 -->
<g id="node5" class="node"><title>Node3</title>
<a xlink:href="_client_manager_8h.html" target="_top" xlink:title="S2Sim/ClientManager.h">
<polygon style="fill:white;stroke:black;" points="546,-296 546,-317 689,-317 689,-296 546,-296"/>
<text text-anchor="middle" x="617" y="-303" style="font-family:Arial;font-size:10.00;">S2Sim/ClientManager.h</text>
</a>
</g>
<!-- Node2&#45;&gt;Node3 -->
<g id="edge4" class="edge"><title>Node2&#45;&gt;Node3</title>
<path style="fill:none;stroke:midnightblue;" d="M1126,-360C934,-335 883,-351 697,-324 685,-322 673,-320 661,-317"/>
<polygon style="fill:midnightblue;stroke:midnightblue;" points="1125.7,-363.488 1136,-361 1126.4,-356.522 1125.7,-363.488"/>
</g>
<!-- Node14 -->
<g id="node37" class="node"><title>Node14</title>
<a xlink:href="_client_connection_request_8cpp.html" target="_top" xlink:title="S2Sim/TerraswarmLibrary\l/ClientConnectionRequest.cpp">
<polygon style="fill:white;stroke:black;" points="1216,-290 1216,-324 1397,-324 1397,-290 1216,-290"/>
<text text-anchor="start" x="1224" y="-310" style="font-family:Arial;font-size:10.00;">S2Sim/TerraswarmLibrary</text>
<text text-anchor="middle" x="1306" y="-297" style="font-family:Arial;font-size:10.00;">/ClientConnectionRequest.cpp</text>
</a>
</g>
<!-- Node2&#45;&gt;Node14 -->
<g id="edge46" class="edge"><title>Node2&#45;&gt;Node14</title>
<path style="fill:none;stroke:midnightblue;" d="M1249,-354C1261,-344 1274,-333 1285,-324"/>
<polygon style="fill:midnightblue;stroke:midnightblue;" points="1246.9,-351.2 1241,-360 1251.1,-356.8 1246.9,-351.2"/>
</g>
<!-- Node4 -->
<g id="node7" class="node"><title>Node4</title>
<a xlink:href="_client_manager_8cpp.html" target="_top" xlink:title="S2Sim/ClientManager.cpp">
<polygon style="fill:white;stroke:black;" points="241,-232 241,-253 397,-253 397,-232 241,-232"/>
<text text-anchor="middle" x="319" y="-239" style="font-family:Arial;font-size:10.00;">S2Sim/ClientManager.cpp</text>
</a>
</g>
<!-- Node3&#45;&gt;Node4 -->
<g id="edge6" class="edge"><title>Node3&#45;&gt;Node4</title>
<path style="fill:none;stroke:midnightblue;" d="M556,-294C500,-282 417,-264 366,-253"/>
<polygon style="fill:midnightblue;stroke:midnightblue;" points="555.508,-297.471 566,-296 556.881,-290.607 555.508,-297.471"/>
</g>
<!-- Node5 -->
<g id="node9" class="node"><title>Node5</title>
<a xlink:href="_connection_manager_8h.html" target="_top" xlink:title="S2Sim/ConnectionManager.h">
<polygon style="fill:white;stroke:black;" points="415,-232 415,-253 589,-253 589,-232 415,-232"/>
<text text-anchor="middle" x="502" y="-239" style="font-family:Arial;font-size:10.00;">S2Sim/ConnectionManager.h</text>
</a>
</g>
<!-- Node3&#45;&gt;Node5 -->
<g id="edge8" class="edge"><title>Node3&#45;&gt;Node5</title>
<path style="fill:none;stroke:midnightblue;" d="M583,-291C560,-280 532,-264 515,-253"/>
<polygon style="fill:midnightblue;stroke:midnightblue;" points="581.559,-294.203 592,-296 584.958,-288.084 581.559,-294.203"/>
</g>
<!-- Node6 -->
<g id="node12" class="node"><title>Node6</title>
<a xlink:href="_control_manager_8h.html" target="_top" xlink:title="S2Sim/ControlManager.h">
<polygon style="fill:white;stroke:black;" points="427,-174 427,-195 578,-195 578,-174 427,-174"/>
<text text-anchor="middle" x="502" y="-181" style="font-family:Arial;font-size:10.00;">S2Sim/ControlManager.h</text>
</a>
</g>
<!-- Node3&#45;&gt;Node6 -->
<g id="edge44" class="edge"><title>Node3&#45;&gt;Node6</title>
<path style="fill:none;stroke:midnightblue;" d="M616,-286C614,-269 610,-247 598,-232 583,-214 560,-202 540,-195"/>
<polygon style="fill:midnightblue;stroke:midnightblue;" points="612.522,-286.398 617,-296 619.488,-285.701 612.522,-286.398"/>
</g>
<!-- Node7 -->
<g id="node14" class="node"><title>Node7</title>
<a xlink:href="_system_manager_8h.html" target="_top" xlink:title="S2Sim/SystemManager.h">
<polygon style="fill:white;stroke:black;" points="598,-116 598,-137 749,-137 749,-116 598,-116"/>
<text text-anchor="middle" x="673" y="-123" style="font-family:Arial;font-size:10.00;">S2Sim/SystemManager.h</text>
</a>
</g>
<!-- Node3&#45;&gt;Node7 -->
<g id="edge42" class="edge"><title>Node3&#45;&gt;Node7</title>
<path style="fill:none;stroke:midnightblue;" d="M619,-286C628,-247 653,-166 666,-137"/>
<polygon style="fill:midnightblue;stroke:midnightblue;" points="615.529,-285.508 617,-296 622.393,-286.881 615.529,-285.508"/>
</g>
<!-- Node5&#45;&gt;Node3 -->
<g id="edge10" class="edge"><title>Node5&#45;&gt;Node3</title>
<path style="fill:none;stroke:midnightblue;" d="M534,-258C556,-270 585,-286 602,-296"/>
<polygon style="fill:midnightblue;stroke:midnightblue;" points="535.441,-254.797 525,-253 532.042,-260.916 535.441,-254.797"/>
</g>
<!-- Node5&#45;&gt;Node6 -->
<g id="edge12" class="edge"><title>Node5&#45;&gt;Node6</title>
<path style="fill:none;stroke:midnightblue;" d="M502,-222C502,-212 502,-202 502,-195"/>
<polygon style="fill:midnightblue;stroke:midnightblue;" points="498.5,-222 502,-232 505.5,-222 498.5,-222"/>
</g>
<!-- Node9 -->
<g id="node21" class="node"><title>Node9</title>
<a xlink:href="main_8cpp.html" target="_top" xlink:title="S2Sim/main.cpp">
<polygon style="fill:white;stroke:black;" points="298,-0 298,-21 402,-21 402,-0 298,-0"/>
<text text-anchor="middle" x="350" y="-7" style="font-family:Arial;font-size:10.00;">S2Sim/main.cpp</text>
</a>
</g>
<!-- Node5&#45;&gt;Node9 -->
<g id="edge40" class="edge"><title>Node5&#45;&gt;Node9</title>
<path style="fill:none;stroke:midnightblue;" d="M467,-228C451,-220 432,-209 418,-196 393,-174 390,-166 375,-138 361,-113 358,-107 353,-80 348,-59 349,-35 349,-21"/>
<polygon style="fill:midnightblue;stroke:midnightblue;" points="465.44,-231.137 476,-232 468.283,-224.74 465.44,-231.137"/>
</g>
<!-- Node13 -->
<g id="node32" class="node"><title>Node13</title>
<a xlink:href="_connection_manager_8cpp.html" target="_top" xlink:title="S2Sim/ConnectionManager.cpp">
<polygon style="fill:white;stroke:black;" points="98,-174 98,-195 285,-195 285,-174 98,-174"/>
<text text-anchor="middle" x="191" y="-181" style="font-family:Arial;font-size:10.00;">S2Sim/ConnectionManager.cpp</text>
</a>
</g>
<!-- Node5&#45;&gt;Node13 -->
<g id="edge38" class="edge"><title>Node5&#45;&gt;Node13</title>
<path style="fill:none;stroke:midnightblue;" d="M433,-230C376,-219 297,-204 245,-195"/>
<polygon style="fill:midnightblue;stroke:midnightblue;" points="432.508,-233.471 443,-232 433.881,-226.607 432.508,-233.471"/>
</g>
<!-- Node6&#45;&gt;Node7 -->
<g id="edge14" class="edge"><title>Node6&#45;&gt;Node7</title>
<path style="fill:none;stroke:midnightblue;" d="M539,-171C568,-160 609,-146 638,-137"/>
<polygon style="fill:midnightblue;stroke:midnightblue;" points="537.573,-167.774 529,-174 539.584,-174.479 537.573,-167.774"/>
</g>
<!-- Node6&#45;&gt;Node9 -->
<g id="edge36" class="edge"><title>Node6&#45;&gt;Node9</title>
<path style="fill:none;stroke:midnightblue;" d="M448,-171C430,-163 410,-152 396,-138 364,-103 354,-45 351,-21"/>
<polygon style="fill:midnightblue;stroke:midnightblue;" points="447.416,-174.479 458,-174 449.427,-167.774 447.416,-174.479"/>
</g>
<!-- Node12 -->
<g id="node29" class="node"><title>Node12</title>
<a xlink:href="_control_manager_8cpp.html" target="_top" xlink:title="S2Sim/ControlManager.cpp">
<polygon style="fill:white;stroke:black;" points="416,-116 416,-137 580,-137 580,-116 416,-116"/>
<text text-anchor="middle" x="498" y="-123" style="font-family:Arial;font-size:10.00;">S2Sim/ControlManager.cpp</text>
</a>
</g>
<!-- Node6&#45;&gt;Node12 -->
<g id="edge34" class="edge"><title>Node6&#45;&gt;Node12</title>
<path style="fill:none;stroke:midnightblue;" d="M500,-164C500,-154 499,-144 499,-137"/>
<polygon style="fill:midnightblue;stroke:midnightblue;" points="496.522,-164.398 501,-174 503.488,-163.701 496.522,-164.398"/>
</g>
<!-- Node7&#45;&gt;Node3 -->
<g id="edge30" class="edge"><title>Node7&#45;&gt;Node3</title>
<path style="fill:none;stroke:midnightblue;" d="M671,-147C663,-185 638,-266 624,-296"/>
<polygon style="fill:midnightblue;stroke:midnightblue;" points="674.471,-147.492 673,-137 667.607,-146.119 674.471,-147.492"/>
</g>
<!-- Node7&#45;&gt;Node6 -->
<g id="edge28" class="edge"><title>Node7&#45;&gt;Node6</title>
<path style="fill:none;stroke:midnightblue;" d="M639,-140C610,-150 570,-164 540,-174"/>
<polygon style="fill:midnightblue;stroke:midnightblue;" points="639.62,-143.483 648,-137 637.406,-136.842 639.62,-143.483"/>
</g>
<!-- Node8 -->
<g id="node16" class="node"><title>Node8</title>
<a xlink:href="_matlab_manager_8h.html" target="_top" xlink:title="S2Sim/MatlabManager.h">
<polygon style="fill:white;stroke:black;" points="599,-58 599,-79 747,-79 747,-58 599,-58"/>
<text text-anchor="middle" x="673" y="-65" style="font-family:Arial;font-size:10.00;">S2Sim/MatlabManager.h</text>
</a>
</g>
<!-- Node7&#45;&gt;Node8 -->
<g id="edge16" class="edge"><title>Node7&#45;&gt;Node8</title>
<path style="fill:none;stroke:midnightblue;" d="M667,-106C666,-96 667,-86 668,-79"/>
<polygon style="fill:midnightblue;stroke:midnightblue;" points="663.522,-106.398 668,-116 670.488,-105.701 663.522,-106.398"/>
</g>
<!-- Node11 -->
<g id="node27" class="node"><title>Node11</title>
<a xlink:href="_system_manager_8cpp.html" target="_top" xlink:title="S2Sim/SystemManager.cpp">
<polygon style="fill:white;stroke:black;" points="417,-58 417,-79 581,-79 581,-58 417,-58"/>
<text text-anchor="middle" x="499" y="-65" style="font-family:Arial;font-size:10.00;">S2Sim/SystemManager.cpp</text>
</a>
</g>
<!-- Node7&#45;&gt;Node11 -->
<g id="edge32" class="edge"><title>Node7&#45;&gt;Node11</title>
<path style="fill:none;stroke:midnightblue;" d="M630,-113C599,-102 557,-88 529,-79"/>
<polygon style="fill:midnightblue;stroke:midnightblue;" points="629.416,-116.479 640,-116 631.427,-109.774 629.416,-116.479"/>
</g>
<!-- Node8&#45;&gt;Node3 -->
<g id="edge18" class="edge"><title>Node8&#45;&gt;Node3</title>
<path style="fill:none;stroke:midnightblue;" d="M717,-83C733,-90 748,-101 757,-116 761,-124 760,-128 757,-138 731,-208 661,-271 631,-296"/>
<polygon style="fill:midnightblue;stroke:midnightblue;" points="718.56,-79.8631 708,-79 715.717,-86.2598 718.56,-79.8631"/>
</g>
<!-- Node8&#45;&gt;Node6 -->
<g id="edge22" class="edge"><title>Node8&#45;&gt;Node6</title>
<path style="fill:none;stroke:midnightblue;" d="M593,-80C516,-92 413,-108 407,-116 385,-141 429,-162 464,-174"/>
<polygon style="fill:midnightblue;stroke:midnightblue;" points="593.398,-83.4778 603,-79 592.701,-76.5125 593.398,-83.4778"/>
</g>
<!-- Node8&#45;&gt;Node7 -->
<g id="edge20" class="edge"><title>Node8&#45;&gt;Node7</title>
<path style="fill:none;stroke:midnightblue;" d="M679,-89C680,-98 679,-108 678,-116"/>
<polygon style="fill:midnightblue;stroke:midnightblue;" points="682.478,-88.6021 678,-79 675.512,-89.2987 682.478,-88.6021"/>
</g>
<!-- Node8&#45;&gt;Node9 -->
<g id="edge24" class="edge"><title>Node8&#45;&gt;Node9</title>
<path style="fill:none;stroke:midnightblue;" d="M601,-56C541,-45 456,-30 402,-20"/>
<polygon style="fill:midnightblue;stroke:midnightblue;" points="600.508,-59.4708 611,-58 601.881,-52.6067 600.508,-59.4708"/>
</g>
<!-- Node10 -->
<g id="node23" class="node"><title>Node10</title>
<a xlink:href="_matlab_manager_8cpp.html" target="_top" xlink:title="S2Sim/MatlabManager.cpp">
<polygon style="fill:white;stroke:black;" points="593,-0 593,-21 754,-21 754,-0 593,-0"/>
<text text-anchor="middle" x="673" y="-7" style="font-family:Arial;font-size:10.00;">S2Sim/MatlabManager.cpp</text>
</a>
</g>
<!-- Node8&#45;&gt;Node10 -->
<g id="edge26" class="edge"><title>Node8&#45;&gt;Node10</title>
<path style="fill:none;stroke:midnightblue;" d="M673,-48C673,-38 673,-28 673,-21"/>
<polygon style="fill:midnightblue;stroke:midnightblue;" points="669.5,-48 673,-58 676.5,-48 669.5,-48"/>
</g>
<!-- Node15&#45;&gt;Node3 -->
<g id="edge50" class="edge"><title>Node15&#45;&gt;Node3</title>
<path style="fill:none;stroke:midnightblue;" d="M278,-359C394,-341 425,-343 537,-324 548,-322 560,-319 571,-317"/>
<polygon style="fill:midnightblue;stroke:midnightblue;" points="277.119,-355.607 268,-361 278.492,-362.471 277.119,-355.607"/>
</g>
<!-- Node16 -->
<g id="node42" class="node"><title>Node16</title>
<a xlink:href="_client_connection_response_8cpp.html" target="_top" xlink:title="S2Sim/TerraswarmLibrary\l/ClientConnectionResponse.cpp">
<polygon style="fill:white;stroke:black;" points="0,-290 0,-324 189,-324 189,-290 0,-290"/>
<text text-anchor="start" x="8" y="-310" style="font-family:Arial;font-size:10.00;">S2Sim/TerraswarmLibrary</text>
<text text-anchor="middle" x="94" y="-297" style="font-family:Arial;font-size:10.00;">/ClientConnectionResponse.cpp</text>
</a>
</g>
<!-- Node15&#45;&gt;Node16 -->
<g id="edge52" class="edge"><title>Node15&#45;&gt;Node16</title>
<path style="fill:none;stroke:midnightblue;" d="M151,-354C139,-344 126,-333 115,-324"/>
<polygon style="fill:midnightblue;stroke:midnightblue;" points="148.9,-356.8 159,-360 153.1,-351.2 148.9,-356.8"/>
</g>
<!-- Node17&#45;&gt;Node3 -->
<g id="edge56" class="edge"><title>Node17&#45;&gt;Node3</title>
<path style="fill:none;stroke:midnightblue;" d="M434,-357C481,-344 542,-327 580,-317"/>
<polygon style="fill:midnightblue;stroke:midnightblue;" points="432.573,-353.774 424,-360 434.584,-360.479 432.573,-353.774"/>
</g>
<!-- Node18 -->
<g id="node47" class="node"><title>Node18</title>
<a xlink:href="_client_data_8cpp.html" target="_top" xlink:title="S2Sim/TerraswarmLibrary\l/ClientData.cpp">
<polygon style="fill:white;stroke:black;" points="206,-290 206,-324 359,-324 359,-290 206,-290"/>
<text text-anchor="start" x="214" y="-310" style="font-family:Arial;font-size:10.00;">S2Sim/TerraswarmLibrary</text>
<text text-anchor="middle" x="282" y="-297" style="font-family:Arial;font-size:10.00;">/ClientData.cpp</text>
</a>
</g>
<!-- Node17&#45;&gt;Node18 -->
<g id="edge58" class="edge"><title>Node17&#45;&gt;Node18</title>
<path style="fill:none;stroke:midnightblue;" d="M335,-353C324,-344 312,-333 302,-324"/>
<polygon style="fill:midnightblue;stroke:midnightblue;" points="332.454,-355.404 342,-360 337.404,-350.454 332.454,-355.404"/>
</g>
<!-- Node19&#45;&gt;Node3 -->
<g id="edge62" class="edge"><title>Node19&#45;&gt;Node3</title>
<path style="fill:none;stroke:midnightblue;" d="M561,-354C576,-342 593,-327 604,-317"/>
<polygon style="fill:midnightblue;stroke:midnightblue;" points="558.9,-351.2 553,-360 563.1,-356.8 558.9,-351.2"/>
</g>
<!-- Node20 -->
<g id="node52" class="node"><title>Node20</title>
<a xlink:href="_demand_negotiation_8cpp.html" target="_top" xlink:title="S2Sim/TerraswarmLibrary\l/DemandNegotiation.cpp">
<polygon style="fill:white;stroke:black;" points="376,-290 376,-324 529,-324 529,-290 376,-290"/>
<text text-anchor="start" x="384" y="-310" style="font-family:Arial;font-size:10.00;">S2Sim/TerraswarmLibrary</text>
<text text-anchor="middle" x="452" y="-297" style="font-family:Arial;font-size:10.00;">/DemandNegotiation.cpp</text>
</a>
</g>
<!-- Node19&#45;&gt;Node20 -->
<g id="edge64" class="edge"><title>Node19&#45;&gt;Node20</title>
<path style="fill:none;stroke:midnightblue;" d="M505,-353C494,-344 482,-333 472,-324"/>
<polygon style="fill:midnightblue;stroke:midnightblue;" points="502.454,-355.404 512,-360 507.404,-350.454 502.454,-355.404"/>
</g>
<!-- Node21&#45;&gt;Node3 -->
<g id="edge68" class="edge"><title>Node21&#45;&gt;Node3</title>
<path style="fill:none;stroke:midnightblue;" d="M673,-354C658,-342 641,-327 630,-317"/>
<polygon style="fill:midnightblue;stroke:midnightblue;" points="670.9,-356.8 681,-360 675.1,-351.2 670.9,-356.8"/>
</g>
<!-- Node22 -->
<g id="node57" class="node"><title>Node22</title>
<a xlink:href="_get_price_8cpp.html" target="_top" xlink:title="S2Sim/TerraswarmLibrary\l/GetPrice.cpp">
<polygon style="fill:white;stroke:black;" points="706,-290 706,-324 859,-324 859,-290 706,-290"/>
<text text-anchor="start" x="714" y="-310" style="font-family:Arial;font-size:10.00;">S2Sim/TerraswarmLibrary</text>
<text text-anchor="middle" x="782" y="-297" style="font-family:Arial;font-size:10.00;">/GetPrice.cpp</text>
</a>
</g>
<!-- Node21&#45;&gt;Node22 -->
<g id="edge70" class="edge"><title>Node21&#45;&gt;Node22</title>
<path style="fill:none;stroke:midnightblue;" d="M729,-353C740,-344 752,-333 762,-324"/>
<polygon style="fill:midnightblue;stroke:midnightblue;" points="726.596,-350.454 722,-360 731.546,-355.404 726.596,-350.454"/>
</g>
<!-- Node24&#45;&gt;Node3 -->
<g id="edge76" class="edge"><title>Node24&#45;&gt;Node3</title>
<path style="fill:none;stroke:midnightblue;" d="M800,-357C753,-344 692,-327 654,-317"/>
<polygon style="fill:midnightblue;stroke:midnightblue;" points="799.416,-360.479 810,-360 801.427,-353.774 799.416,-360.479"/>
</g>
<!-- Node25 -->
<g id="node64" class="node"><title>Node25</title>
<a xlink:href="_price_proposal_8cpp.html" target="_top" xlink:title="S2Sim/TerraswarmLibrary\l/PriceProposal.cpp">
<polygon style="fill:white;stroke:black;" points="876,-290 876,-324 1029,-324 1029,-290 876,-290"/>
<text text-anchor="start" x="884" y="-310" style="font-family:Arial;font-size:10.00;">S2Sim/TerraswarmLibrary</text>
<text text-anchor="middle" x="952" y="-297" style="font-family:Arial;font-size:10.00;">/PriceProposal.cpp</text>
</a>
</g>
<!-- Node24&#45;&gt;Node25 -->
<g id="edge78" class="edge"><title>Node24&#45;&gt;Node25</title>
<path style="fill:none;stroke:midnightblue;" d="M899,-353C910,-344 922,-333 932,-324"/>
<polygon style="fill:midnightblue;stroke:midnightblue;" points="896.596,-350.454 892,-360 901.546,-355.404 896.596,-350.454"/>
</g>
<!-- Node26&#45;&gt;Node3 -->
<g id="edge82" class="edge"><title>Node26&#45;&gt;Node3</title>
<path style="fill:none;stroke:midnightblue;" d="M956,-359C839,-340 808,-343 697,-324 686,-322 674,-319 663,-317"/>
<polygon style="fill:midnightblue;stroke:midnightblue;" points="955.508,-362.471 966,-361 956.881,-355.607 955.508,-362.471"/>
</g>
<!-- Node27 -->
<g id="node69" class="node"><title>Node27</title>
<a xlink:href="_set_current_price_8cpp.html" target="_top" xlink:title="S2Sim/TerraswarmLibrary\l/SetCurrentPrice.cpp">
<polygon style="fill:white;stroke:black;" points="1046,-290 1046,-324 1199,-324 1199,-290 1046,-290"/>
<text text-anchor="start" x="1054" y="-310" style="font-family:Arial;font-size:10.00;">S2Sim/TerraswarmLibrary</text>
<text text-anchor="middle" x="1122" y="-297" style="font-family:Arial;font-size:10.00;">/SetCurrentPrice.cpp</text>
</a>
</g>
<!-- Node26&#45;&gt;Node27 -->
<g id="edge84" class="edge"><title>Node26&#45;&gt;Node27</title>
<path style="fill:none;stroke:midnightblue;" d="M1069,-353C1080,-344 1092,-333 1102,-324"/>
<polygon style="fill:midnightblue;stroke:midnightblue;" points="1066.6,-350.454 1062,-360 1071.55,-355.404 1066.6,-350.454"/>
</g>
</g>
</svg>
