<?xml version="1.0" encoding="UTF-8" standalone="no"?>
<!DOCTYPE svg PUBLIC "-//W3C//DTD SVG 1.0//EN"
 "http://www.w3.org/TR/2001/REC-SVG-20010904/DTD/svg10.dtd" [
 <!ATTLIST svg xmlns:xlink CDATA #FIXED "http://www.w3.org/1999/xlink">
]>
<!-- Generated by Graphviz version 2.14.1 (Fri Nov  9 08:19:38 GMT 2007)
     For user: (asakyurek) Alper Sinan Akyurek -->
<!-- Title: S2Sim/TerraswarmLibrary/NetworkByteAccessor.h Pages: 1 -->
<svg width="1452pt" height="612pt"
 viewBox="0.00 0.00 1452.00 612.00" xmlns="http://www.w3.org/2000/svg" xmlns:xlink="http://www.w3.org/1999/xlink">
<g id="graph0" class="graph" transform="scale(1 1) rotate(0) translate(4 608)">
<title>S2Sim/TerraswarmLibrary/NetworkByteAccessor.h</title>
<polygon style="fill:white;stroke:white;" points="-4,4 -4,-608 1448,-608 1448,4 -4,4"/>
<!-- Node1 -->
<g id="node1" class="node"><title>Node1</title>
<polygon style="fill:#bfbfbf;stroke:black;" points="746,-570 746,-604 899,-604 899,-570 746,-570"/>
<text text-anchor="start" x="754" y="-590" style="font-family:Arial;font-size:10.00;">S2Sim/TerraswarmLibrary</text>
<text text-anchor="middle" x="822" y="-577" style="font-family:Arial;font-size:10.00;">/NetworkByteAccessor.h</text>
</g>
<!-- Node2 -->
<g id="node3" class="node"><title>Node2</title>
<a xlink:href="_message_header_8h.html" target="_top" xlink:title="S2Sim/TerraswarmLibrary\l/MessageHeader.h">
<polygon style="fill:white;stroke:black;" points="746,-500 746,-534 899,-534 899,-500 746,-500"/>
<text text-anchor="start" x="754" y="-520" style="font-family:Arial;font-size:10.00;">S2Sim/TerraswarmLibrary</text>
<text text-anchor="middle" x="822" y="-507" style="font-family:Arial;font-size:10.00;">/MessageHeader.h</text>
</a>
</g>
<!-- Node1&#45;&gt;Node2 -->
<g id="edge2" class="edge"><title>Node1&#45;&gt;Node2</title>
<path style="fill:none;stroke:midnightblue;" d="M822,-560C822,-551 822,-542 822,-534"/>
<polygon style="fill:midnightblue;stroke:midnightblue;" points="818.5,-560 822,-570 825.5,-560 818.5,-560"/>
</g>
<!-- Node16 -->
<g id="node42" class="node"><title>Node16</title>
<a xlink:href="_message_ender_8h.html" target="_top" xlink:title="S2Sim/TerraswarmLibrary\l/MessageEnder.h">
<polygon style="fill:white;stroke:black;" points="604,-430 604,-464 757,-464 757,-430 604,-430"/>
<text text-anchor="start" x="612" y="-450" style="font-family:Arial;font-size:10.00;">S2Sim/TerraswarmLibrary</text>
<text text-anchor="middle" x="680" y="-437" style="font-family:Arial;font-size:10.00;">/MessageEnder.h</text>
</a>
</g>
<!-- Node1&#45;&gt;Node16 -->
<g id="edge108" class="edge"><title>Node1&#45;&gt;Node16</title>
<path style="fill:none;stroke:midnightblue;" d="M778,-565C764,-556 749,-545 737,-534 716,-513 698,-483 688,-464"/>
<polygon style="fill:midnightblue;stroke:midnightblue;" points="776.559,-568.203 787,-570 779.958,-562.084 776.559,-568.203"/>
</g>
<!-- Node31 -->
<g id="node86" class="node"><title>Node31</title>
<a xlink:href="_terraswarm_library_2main_8cpp.html" target="_top" xlink:title="S2Sim/TerraswarmLibrary\l/main.cpp">
<polygon style="fill:white;stroke:black;" points="916,-500 916,-534 1069,-534 1069,-500 916,-500"/>
<text text-anchor="start" x="924" y="-520" style="font-family:Arial;font-size:10.00;">S2Sim/TerraswarmLibrary</text>
<text text-anchor="middle" x="992" y="-507" style="font-family:Arial;font-size:10.00;">/main.cpp</text>
</a>
</g>
<!-- Node1&#45;&gt;Node31 -->
<g id="edge110" class="edge"><title>Node1&#45;&gt;Node31</title>
<path style="fill:none;stroke:midnightblue;" d="M873,-566C898,-556 927,-544 951,-534"/>
<polygon style="fill:midnightblue;stroke:midnightblue;" points="871.717,-562.74 864,-570 874.56,-569.137 871.717,-562.74"/>
</g>
<!-- Node3 -->
<g id="node5" class="node"><title>Node3</title>
<a xlink:href="_client_manager_8h.html" target="_top" xlink:title="S2Sim/ClientManager.h">
<polygon style="fill:white;stroke:black;" points="728,-296 728,-317 871,-317 871,-296 728,-296"/>
<text text-anchor="middle" x="799" y="-303" style="font-family:Arial;font-size:10.00;">S2Sim/ClientManager.h</text>
</a>
</g>
<!-- Node2&#45;&gt;Node3 -->
<g id="edge4" class="edge"><title>Node2&#45;&gt;Node3</title>
<path style="fill:none;stroke:midnightblue;" d="M832,-490C843,-458 857,-403 841,-360 836,-343 821,-327 811,-317"/>
<polygon style="fill:midnightblue;stroke:midnightblue;" points="828.521,-489.416 829,-500 835.226,-491.427 828.521,-489.416"/>
</g>
<!-- Node14 -->
<g id="node37" class="node"><title>Node14</title>
<a xlink:href="_client_connection_request_8h.html" target="_top" xlink:title="S2Sim/TerraswarmLibrary\l/ClientConnectionRequest.h">
<polygon style="fill:white;stroke:black;" points="1058,-360 1058,-394 1226,-394 1226,-360 1058,-360"/>
<text text-anchor="start" x="1066" y="-380" style="font-family:Arial;font-size:10.00;">S2Sim/TerraswarmLibrary</text>
<text text-anchor="middle" x="1142" y="-367" style="font-family:Arial;font-size:10.00;">/ClientConnectionRequest.h</text>
</a>
</g>
<!-- Node2&#45;&gt;Node14 -->
<g id="edge46" class="edge"><title>Node2&#45;&gt;Node14</title>
<path style="fill:none;stroke:midnightblue;" d="M909,-499C975,-485 1056,-468 1063,-464 1093,-446 1118,-414 1131,-394"/>
<polygon style="fill:midnightblue;stroke:midnightblue;" points="908.119,-495.607 899,-501 909.492,-502.471 908.119,-495.607"/>
</g>
<!-- Node2&#45;&gt;Node16 -->
<g id="edge52" class="edge"><title>Node2&#45;&gt;Node16</title>
<path style="fill:none;stroke:midnightblue;" d="M778,-495C758,-485 734,-474 715,-464"/>
<polygon style="fill:midnightblue;stroke:midnightblue;" points="776.559,-498.203 787,-500 779.958,-492.084 776.559,-498.203"/>
</g>
<!-- Node17 -->
<g id="node45" class="node"><title>Node17</title>
<a xlink:href="_client_connection_response_8h.html" target="_top" xlink:title="S2Sim/TerraswarmLibrary\l/ClientConnectionResponse.h">
<polygon style="fill:white;stroke:black;" points="1244,-360 1244,-394 1420,-394 1420,-360 1244,-360"/>
<text text-anchor="start" x="1252" y="-380" style="font-family:Arial;font-size:10.00;">S2Sim/TerraswarmLibrary</text>
<text text-anchor="middle" x="1332" y="-367" style="font-family:Arial;font-size:10.00;">/ClientConnectionResponse.h</text>
</a>
</g>
<!-- Node2&#45;&gt;Node17 -->
<g id="edge94" class="edge"><title>Node2&#45;&gt;Node17</title>
<path style="fill:none;stroke:midnightblue;" d="M909,-500C990,-483 1013,-485 1091,-464 1162,-444 1243,-413 1290,-394"/>
<polygon style="fill:midnightblue;stroke:midnightblue;" points="908.119,-496.607 899,-502 909.492,-503.471 908.119,-496.607"/>
</g>
<!-- Node19 -->
<g id="node50" class="node"><title>Node19</title>
<a xlink:href="_client_data_8h.html" target="_top" xlink:title="S2Sim/TerraswarmLibrary\l/ClientData.h">
<polygon style="fill:white;stroke:black;" points="0,-360 0,-394 153,-394 153,-360 0,-360"/>
<text text-anchor="start" x="8" y="-380" style="font-family:Arial;font-size:10.00;">S2Sim/TerraswarmLibrary</text>
<text text-anchor="middle" x="76" y="-367" style="font-family:Arial;font-size:10.00;">/ClientData.h</text>
</a>
</g>
<!-- Node2&#45;&gt;Node19 -->
<g id="edge96" class="edge"><title>Node2&#45;&gt;Node19</title>
<path style="fill:none;stroke:midnightblue;" d="M736,-506C662,-497 553,-481 458,-464 347,-443 219,-413 143,-394"/>
<polygon style="fill:midnightblue;stroke:midnightblue;" points="735.701,-509.488 746,-507 736.398,-502.522 735.701,-509.488"/>
</g>
<!-- Node21 -->
<g id="node55" class="node"><title>Node21</title>
<a xlink:href="_demand_negotiation_8h.html" target="_top" xlink:title="S2Sim/TerraswarmLibrary\l/DemandNegotiation.h">
<polygon style="fill:white;stroke:black;" points="170,-360 170,-394 323,-394 323,-360 170,-360"/>
<text text-anchor="start" x="178" y="-380" style="font-family:Arial;font-size:10.00;">S2Sim/TerraswarmLibrary</text>
<text text-anchor="middle" x="246" y="-367" style="font-family:Arial;font-size:10.00;">/DemandNegotiation.h</text>
</a>
</g>
<!-- Node2&#45;&gt;Node21 -->
<g id="edge98" class="edge"><title>Node2&#45;&gt;Node21</title>
<path style="fill:none;stroke:midnightblue;" d="M738,-498C696,-488 642,-475 595,-464 497,-440 384,-412 314,-394"/>
<polygon style="fill:midnightblue;stroke:midnightblue;" points="737.508,-501.471 748,-500 738.881,-494.607 737.508,-501.471"/>
</g>
<!-- Node23 -->
<g id="node60" class="node"><title>Node23</title>
<a xlink:href="_get_price_8h.html" target="_top" xlink:title="S2Sim/TerraswarmLibrary\l/GetPrice.h">
<polygon style="fill:white;stroke:black;" points="510,-360 510,-394 663,-394 663,-360 510,-360"/>
<text text-anchor="start" x="518" y="-380" style="font-family:Arial;font-size:10.00;">S2Sim/TerraswarmLibrary</text>
<text text-anchor="middle" x="586" y="-367" style="font-family:Arial;font-size:10.00;">/GetPrice.h</text>
</a>
</g>
<!-- Node2&#45;&gt;Node23 -->
<g id="edge100" class="edge"><title>Node2&#45;&gt;Node23</title>
<path style="fill:none;stroke:midnightblue;" d="M811,-491C802,-471 786,-445 765,-430 748,-417 703,-404 663,-394"/>
<polygon style="fill:midnightblue;stroke:midnightblue;" points="807.74,-492.283 815,-500 814.137,-489.44 807.74,-492.283"/>
</g>
<!-- Node26 -->
<g id="node67" class="node"><title>Node26</title>
<a xlink:href="_price_proposal_8h.html" target="_top" xlink:title="S2Sim/TerraswarmLibrary\l/PriceProposal.h">
<polygon style="fill:white;stroke:black;" points="680,-360 680,-394 833,-394 833,-360 680,-360"/>
<text text-anchor="start" x="688" y="-380" style="font-family:Arial;font-size:10.00;">S2Sim/TerraswarmLibrary</text>
<text text-anchor="middle" x="756" y="-367" style="font-family:Arial;font-size:10.00;">/PriceProposal.h</text>
</a>
</g>
<!-- Node2&#45;&gt;Node26 -->
<g id="edge104" class="edge"><title>Node2&#45;&gt;Node26</title>
<path style="fill:none;stroke:midnightblue;" d="M818,-490C815,-472 808,-448 798,-430 792,-417 782,-404 773,-394"/>
<polygon style="fill:midnightblue;stroke:midnightblue;" points="814.607,-490.881 820,-500 821.471,-489.508 814.607,-490.881"/>
</g>
<!-- Node28 -->
<g id="node72" class="node"><title>Node28</title>
<a xlink:href="_set_current_price_8h.html" target="_top" xlink:title="S2Sim/TerraswarmLibrary\l/SetCurrentPrice.h">
<polygon style="fill:white;stroke:black;" points="888,-360 888,-394 1041,-394 1041,-360 888,-360"/>
<text text-anchor="start" x="896" y="-380" style="font-family:Arial;font-size:10.00;">S2Sim/TerraswarmLibrary</text>
<text text-anchor="middle" x="964" y="-367" style="font-family:Arial;font-size:10.00;">/SetCurrentPrice.h</text>
</a>
</g>
<!-- Node2&#45;&gt;Node28 -->
<g id="edge106" class="edge"><title>Node2&#45;&gt;Node28</title>
<path style="fill:none;stroke:midnightblue;" d="M909,-499C971,-486 1044,-470 1049,-464 1058,-452 1056,-443 1049,-430 1040,-414 1024,-402 1009,-394"/>
<polygon style="fill:midnightblue;stroke:midnightblue;" points="908.119,-495.607 899,-501 909.492,-502.471 908.119,-495.607"/>
</g>
<!-- Node30 -->
<g id="node81" class="node"><title>Node30</title>
<a xlink:href="_message_header_8cpp.html" target="_top" xlink:title="S2Sim/TerraswarmLibrary\l/MessageHeader.cpp">
<polygon style="fill:white;stroke:black;" points="888,-430 888,-464 1041,-464 1041,-430 888,-430"/>
<text text-anchor="start" x="896" y="-450" style="font-family:Arial;font-size:10.00;">S2Sim/TerraswarmLibrary</text>
<text text-anchor="middle" x="964" y="-437" style="font-family:Arial;font-size:10.00;">/MessageHeader.cpp</text>
</a>
</g>
<!-- Node2&#45;&gt;Node30 -->
<g id="edge102" class="edge"><title>Node2&#45;&gt;Node30</title>
<path style="fill:none;stroke:midnightblue;" d="M866,-495C886,-485 910,-474 929,-464"/>
<polygon style="fill:midnightblue;stroke:midnightblue;" points="864.042,-492.084 857,-500 867.441,-498.203 864.042,-492.084"/>
</g>
<!-- Node4 -->
<g id="node7" class="node"><title>Node4</title>
<a xlink:href="_client_manager_8cpp.html" target="_top" xlink:title="S2Sim/ClientManager.cpp">
<polygon style="fill:white;stroke:black;" points="423,-232 423,-253 579,-253 579,-232 423,-232"/>
<text text-anchor="middle" x="501" y="-239" style="font-family:Arial;font-size:10.00;">S2Sim/ClientManager.cpp</text>
</a>
</g>
<!-- Node3&#45;&gt;Node4 -->
<g id="edge6" class="edge"><title>Node3&#45;&gt;Node4</title>
<path style="fill:none;stroke:midnightblue;" d="M738,-294C682,-282 599,-264 548,-253"/>
<polygon style="fill:midnightblue;stroke:midnightblue;" points="737.508,-297.471 748,-296 738.881,-290.607 737.508,-297.471"/>
</g>
<!-- Node5 -->
<g id="node9" class="node"><title>Node5</title>
<a xlink:href="_connection_manager_8h.html" target="_top" xlink:title="S2Sim/ConnectionManager.h">
<polygon style="fill:white;stroke:black;" points="597,-232 597,-253 771,-253 771,-232 597,-232"/>
<text text-anchor="middle" x="684" y="-239" style="font-family:Arial;font-size:10.00;">S2Sim/ConnectionManager.h</text>
</a>
</g>
<!-- Node3&#45;&gt;Node5 -->
<g id="edge8" class="edge"><title>Node3&#45;&gt;Node5</title>
<path style="fill:none;stroke:midnightblue;" d="M765,-291C742,-280 714,-264 697,-253"/>
<polygon style="fill:midnightblue;stroke:midnightblue;" points="763.559,-294.203 774,-296 766.958,-288.084 763.559,-294.203"/>
</g>
<!-- Node6 -->
<g id="node12" class="node"><title>Node6</title>
<a xlink:href="_control_manager_8h.html" target="_top" xlink:title="S2Sim/ControlManager.h">
<polygon style="fill:white;stroke:black;" points="609,-174 609,-195 760,-195 760,-174 609,-174"/>
<text text-anchor="middle" x="684" y="-181" style="font-family:Arial;font-size:10.00;">S2Sim/ControlManager.h</text>
</a>
</g>
<!-- Node3&#45;&gt;Node6 -->
<g id="edge44" class="edge"><title>Node3&#45;&gt;Node6</title>
<path style="fill:none;stroke:midnightblue;" d="M799,-286C797,-269 792,-247 780,-232 766,-214 743,-202 723,-195"/>
<polygon style="fill:midnightblue;stroke:midnightblue;" points="795.5,-286 799,-296 802.5,-286 795.5,-286"/>
</g>
<!-- Node7 -->
<g id="node14" class="node"><title>Node7</title>
<a xlink:href="_system_manager_8h.html" target="_top" xlink:title="S2Sim/SystemManager.h">
<polygon style="fill:white;stroke:black;" points="780,-116 780,-137 931,-137 931,-116 780,-116"/>
<text text-anchor="middle" x="855" y="-123" style="font-family:Arial;font-size:10.00;">S2Sim/SystemManager.h</text>
</a>
</g>
<!-- Node3&#45;&gt;Node7 -->
<g id="edge42" class="edge"><title>Node3&#45;&gt;Node7</title>
<path style="fill:none;stroke:midnightblue;" d="M801,-286C810,-247 835,-166 848,-137"/>
<polygon style="fill:midnightblue;stroke:midnightblue;" points="797.529,-285.508 799,-296 804.393,-286.881 797.529,-285.508"/>
</g>
<!-- Node5&#45;&gt;Node3 -->
<g id="edge10" class="edge"><title>Node5&#45;&gt;Node3</title>
<path style="fill:none;stroke:midnightblue;" d="M716,-258C738,-270 766,-286 784,-296"/>
<polygon style="fill:midnightblue;stroke:midnightblue;" points="717.441,-254.797 707,-253 714.042,-260.916 717.441,-254.797"/>
</g>
<!-- Node5&#45;&gt;Node6 -->
<g id="edge12" class="edge"><title>Node5&#45;&gt;Node6</title>
<path style="fill:none;stroke:midnightblue;" d="M684,-222C684,-212 684,-202 684,-195"/>
<polygon style="fill:midnightblue;stroke:midnightblue;" points="680.5,-222 684,-232 687.5,-222 680.5,-222"/>
</g>
<!-- Node9 -->
<g id="node21" class="node"><title>Node9</title>
<a xlink:href="main_8cpp.html" target="_top" xlink:title="S2Sim/main.cpp">
<polygon style="fill:white;stroke:black;" points="480,-0 480,-21 584,-21 584,-0 480,-0"/>
<text text-anchor="middle" x="532" y="-7" style="font-family:Arial;font-size:10.00;">S2Sim/main.cpp</text>
</a>
</g>
<!-- Node5&#45;&gt;Node9 -->
<g id="edge40" class="edge"><title>Node5&#45;&gt;Node9</title>
<path style="fill:none;stroke:midnightblue;" d="M648,-228C632,-220 613,-209 600,-196 558,-155 554,-136 539,-80 534,-60 533,-35 532,-21"/>
<polygon style="fill:midnightblue;stroke:midnightblue;" points="646.44,-231.137 657,-232 649.283,-224.74 646.44,-231.137"/>
</g>
<!-- Node13 -->
<g id="node32" class="node"><title>Node13</title>
<a xlink:href="_connection_manager_8cpp.html" target="_top" xlink:title="S2Sim/ConnectionManager.cpp">
<polygon style="fill:white;stroke:black;" points="280,-174 280,-195 467,-195 467,-174 280,-174"/>
<text text-anchor="middle" x="373" y="-181" style="font-family:Arial;font-size:10.00;">S2Sim/ConnectionManager.cpp</text>
</a>
</g>
<!-- Node5&#45;&gt;Node13 -->
<g id="edge38" class="edge"><title>Node5&#45;&gt;Node13</title>
<path style="fill:none;stroke:midnightblue;" d="M615,-230C558,-219 479,-204 427,-195"/>
<polygon style="fill:midnightblue;stroke:midnightblue;" points="614.508,-233.471 625,-232 615.881,-226.607 614.508,-233.471"/>
</g>
<!-- Node6&#45;&gt;Node7 -->
<g id="edge14" class="edge"><title>Node6&#45;&gt;Node7</title>
<path style="fill:none;stroke:midnightblue;" d="M721,-171C750,-160 791,-146 820,-137"/>
<polygon style="fill:midnightblue;stroke:midnightblue;" points="719.573,-167.774 711,-174 721.584,-174.479 719.573,-167.774"/>
</g>
<!-- Node6&#45;&gt;Node9 -->
<g id="edge36" class="edge"><title>Node6&#45;&gt;Node9</title>
<path style="fill:none;stroke:midnightblue;" d="M633,-171C615,-163 595,-152 581,-138 549,-103 537,-45 533,-21"/>
<polygon style="fill:midnightblue;stroke:midnightblue;" points="632.416,-174.479 643,-174 634.427,-167.774 632.416,-174.479"/>
</g>
<!-- Node12 -->
<g id="node29" class="node"><title>Node12</title>
<a xlink:href="_control_manager_8cpp.html" target="_top" xlink:title="S2Sim/ControlManager.cpp">
<polygon style="fill:white;stroke:black;" points="598,-116 598,-137 762,-137 762,-116 598,-116"/>
<text text-anchor="middle" x="680" y="-123" style="font-family:Arial;font-size:10.00;">S2Sim/ControlManager.cpp</text>
</a>
</g>
<!-- Node6&#45;&gt;Node12 -->
<g id="edge34" class="edge"><title>Node6&#45;&gt;Node12</title>
<path style="fill:none;stroke:midnightblue;" d="M682,-164C682,-154 681,-144 681,-137"/>
<polygon style="fill:midnightblue;stroke:midnightblue;" points="678.522,-164.398 683,-174 685.488,-163.701 678.522,-164.398"/>
</g>
<!-- Node7&#45;&gt;Node3 -->
<g id="edge30" class="edge"><title>Node7&#45;&gt;Node3</title>
<path style="fill:none;stroke:midnightblue;" d="M853,-147C845,-185 820,-266 806,-296"/>
<polygon style="fill:midnightblue;stroke:midnightblue;" points="856.471,-147.492 855,-137 849.607,-146.119 856.471,-147.492"/>
</g>
<!-- Node7&#45;&gt;Node6 -->
<g id="edge28" class="edge"><title>Node7&#45;&gt;Node6</title>
<path style="fill:none;stroke:midnightblue;" d="M821,-140C792,-150 752,-164 722,-174"/>
<polygon style="fill:midnightblue;stroke:midnightblue;" points="821.62,-143.483 830,-137 819.406,-136.842 821.62,-143.483"/>
</g>
<!-- Node8 -->
<g id="node16" class="node"><title>Node8</title>
<a xlink:href="_matlab_manager_8h.html" target="_top" xlink:title="S2Sim/MatlabManager.h">
<polygon style="fill:white;stroke:black;" points="781,-58 781,-79 929,-79 929,-58 781,-58"/>
<text text-anchor="middle" x="855" y="-65" style="font-family:Arial;font-size:10.00;">S2Sim/MatlabManager.h</text>
</a>
</g>
<!-- Node7&#45;&gt;Node8 -->
<g id="edge16" class="edge"><title>Node7&#45;&gt;Node8</title>
<path style="fill:none;stroke:midnightblue;" d="M849,-106C848,-96 849,-86 850,-79"/>
<polygon style="fill:midnightblue;stroke:midnightblue;" points="845.522,-106.398 850,-116 852.488,-105.701 845.522,-106.398"/>
</g>
<!-- Node11 -->
<g id="node27" class="node"><title>Node11</title>
<a xlink:href="_system_manager_8cpp.html" target="_top" xlink:title="S2Sim/SystemManager.cpp">
<polygon style="fill:white;stroke:black;" points="599,-58 599,-79 763,-79 763,-58 599,-58"/>
<text text-anchor="middle" x="681" y="-65" style="font-family:Arial;font-size:10.00;">S2Sim/SystemManager.cpp</text>
</a>
</g>
<!-- Node7&#45;&gt;Node11 -->
<g id="edge32" class="edge"><title>Node7&#45;&gt;Node11</title>
<path style="fill:none;stroke:midnightblue;" d="M812,-113C781,-102 739,-88 711,-79"/>
<polygon style="fill:midnightblue;stroke:midnightblue;" points="811.416,-116.479 822,-116 813.427,-109.774 811.416,-116.479"/>
</g>
<!-- Node8&#45;&gt;Node3 -->
<g id="edge18" class="edge"><title>Node8&#45;&gt;Node3</title>
<path style="fill:none;stroke:midnightblue;" d="M899,-83C915,-90 930,-101 939,-116 943,-124 942,-128 939,-138 913,-208 844,-271 813,-296"/>
<polygon style="fill:midnightblue;stroke:midnightblue;" points="900.56,-79.8631 890,-79 897.717,-86.2598 900.56,-79.8631"/>
</g>
<!-- Node8&#45;&gt;Node6 -->
<g id="edge22" class="edge"><title>Node8&#45;&gt;Node6</title>
<path style="fill:none;stroke:midnightblue;" d="M775,-80C699,-92 596,-108 589,-116 568,-141 612,-162 647,-174"/>
<polygon style="fill:midnightblue;stroke:midnightblue;" points="775.398,-83.4778 785,-79 774.701,-76.5125 775.398,-83.4778"/>
</g>
<!-- Node8&#45;&gt;Node7 -->
<g id="edge20" class="edge"><title>Node8&#45;&gt;Node7</title>
<path style="fill:none;stroke:midnightblue;" d="M861,-89C862,-98 861,-108 860,-116"/>
<polygon style="fill:midnightblue;stroke:midnightblue;" points="864.478,-88.6021 860,-79 857.512,-89.2987 864.478,-88.6021"/>
</g>
<!-- Node8&#45;&gt;Node9 -->
<g id="edge24" class="edge"><title>Node8&#45;&gt;Node9</title>
<path style="fill:none;stroke:midnightblue;" d="M783,-56C723,-45 638,-30 584,-20"/>
<polygon style="fill:midnightblue;stroke:midnightblue;" points="782.508,-59.4708 793,-58 783.881,-52.6067 782.508,-59.4708"/>
</g>
<!-- Node10 -->
<g id="node23" class="node"><title>Node10</title>
<a xlink:href="_matlab_manager_8cpp.html" target="_top" xlink:title="S2Sim/MatlabManager.cpp">
<polygon style="fill:white;stroke:black;" points="775,-0 775,-21 936,-21 936,-0 775,-0"/>
<text text-anchor="middle" x="855" y="-7" style="font-family:Arial;font-size:10.00;">S2Sim/MatlabManager.cpp</text>
</a>
</g>
<!-- Node8&#45;&gt;Node10 -->
<g id="edge26" class="edge"><title>Node8&#45;&gt;Node10</title>
<path style="fill:none;stroke:midnightblue;" d="M855,-48C855,-38 855,-28 855,-21"/>
<polygon style="fill:midnightblue;stroke:midnightblue;" points="851.5,-48 855,-58 858.5,-48 851.5,-48"/>
</g>
<!-- Node14&#45;&gt;Node3 -->
<g id="edge48" class="edge"><title>Node14&#45;&gt;Node3</title>
<path style="fill:none;stroke:midnightblue;" d="M1048,-358C998,-348 934,-335 879,-324 869,-322 858,-319 847,-317"/>
<polygon style="fill:midnightblue;stroke:midnightblue;" points="1047.51,-361.471 1058,-360 1048.88,-354.607 1047.51,-361.471"/>
</g>
<!-- Node15 -->
<g id="node40" class="node"><title>Node15</title>
<a xlink:href="_client_connection_request_8cpp.html" target="_top" xlink:title="S2Sim/TerraswarmLibrary\l/ClientConnectionRequest.cpp">
<polygon style="fill:white;stroke:black;" points="1058,-290 1058,-324 1239,-324 1239,-290 1058,-290"/>
<text text-anchor="start" x="1066" y="-310" style="font-family:Arial;font-size:10.00;">S2Sim/TerraswarmLibrary</text>
<text text-anchor="middle" x="1148" y="-297" style="font-family:Arial;font-size:10.00;">/ClientConnectionRequest.cpp</text>
</a>
</g>
<!-- Node14&#45;&gt;Node15 -->
<g id="edge50" class="edge"><title>Node14&#45;&gt;Node15</title>
<path style="fill:none;stroke:midnightblue;" d="M1144,-350C1145,-341 1145,-332 1146,-324"/>
<polygon style="fill:midnightblue;stroke:midnightblue;" points="1140.51,-349.701 1143,-360 1147.48,-350.398 1140.51,-349.701"/>
</g>
<!-- Node16&#45;&gt;Node14 -->
<g id="edge54" class="edge"><title>Node16&#45;&gt;Node14</title>
<path style="fill:none;stroke:midnightblue;" d="M767,-436C842,-425 953,-409 1049,-394 1052,-394 1055,-393 1058,-392"/>
<polygon style="fill:midnightblue;stroke:midnightblue;" points="766.602,-432.522 757,-437 767.299,-439.488 766.602,-432.522"/>
</g>
<!-- Node16&#45;&gt;Node17 -->
<g id="edge56" class="edge"><title>Node16&#45;&gt;Node17</title>
<path style="fill:none;stroke:midnightblue;" d="M767,-439C900,-428 1147,-406 1235,-394 1238,-394 1241,-393 1244,-393"/>
<polygon style="fill:midnightblue;stroke:midnightblue;" points="766.602,-435.522 757,-440 767.299,-442.488 766.602,-435.522"/>
</g>
<!-- Node16&#45;&gt;Node19 -->
<g id="edge62" class="edge"><title>Node16&#45;&gt;Node19</title>
<path style="fill:none;stroke:midnightblue;" d="M594,-440C490,-432 313,-416 161,-394 158,-394 156,-393 153,-393"/>
<polygon style="fill:midnightblue;stroke:midnightblue;" points="593.701,-443.488 604,-441 594.398,-436.522 593.701,-443.488"/>
</g>
<!-- Node16&#45;&gt;Node21 -->
<g id="edge68" class="edge"><title>Node16&#45;&gt;Node21</title>
<path style="fill:none;stroke:midnightblue;" d="M594,-435C523,-425 421,-409 331,-394 328,-394 326,-393 323,-392"/>
<polygon style="fill:midnightblue;stroke:midnightblue;" points="593.701,-438.488 604,-436 594.398,-431.522 593.701,-438.488"/>
</g>
<!-- Node16&#45;&gt;Node23 -->
<g id="edge74" class="edge"><title>Node16&#45;&gt;Node23</title>
<path style="fill:none;stroke:midnightblue;" d="M649,-424C636,-414 621,-403 609,-394"/>
<polygon style="fill:midnightblue;stroke:midnightblue;" points="646.9,-426.8 657,-430 651.1,-421.2 646.9,-426.8"/>
</g>
<!-- Node25 -->
<g id="node65" class="node"><title>Node25</title>
<a xlink:href="_message_ender_8cpp.html" target="_top" xlink:title="S2Sim/TerraswarmLibrary\l/MessageEnder.cpp">
<polygon style="fill:white;stroke:black;" points="340,-360 340,-394 493,-394 493,-360 340,-360"/>
<text text-anchor="start" x="348" y="-380" style="font-family:Arial;font-size:10.00;">S2Sim/TerraswarmLibrary</text>
<text text-anchor="middle" x="416" y="-367" style="font-family:Arial;font-size:10.00;">/MessageEnder.cpp</text>
</a>
</g>
<!-- Node16&#45;&gt;Node25 -->
<g id="edge80" class="edge"><title>Node16&#45;&gt;Node25</title>
<path style="fill:none;stroke:midnightblue;" d="M606,-427C567,-417 519,-404 481,-394"/>
<polygon style="fill:midnightblue;stroke:midnightblue;" points="605.416,-430.479 616,-430 607.427,-423.774 605.416,-430.479"/>
</g>
<!-- Node16&#45;&gt;Node26 -->
<g id="edge82" class="edge"><title>Node16&#45;&gt;Node26</title>
<path style="fill:none;stroke:midnightblue;" d="M707,-423C717,-413 728,-403 737,-394"/>
<polygon style="fill:midnightblue;stroke:midnightblue;" points="704.221,-420.781 699,-430 708.831,-426.049 704.221,-420.781"/>
</g>
<!-- Node16&#45;&gt;Node28 -->
<g id="edge88" class="edge"><title>Node16&#45;&gt;Node28</title>
<path style="fill:none;stroke:midnightblue;" d="M759,-428C801,-417 853,-404 895,-394"/>
<polygon style="fill:midnightblue;stroke:midnightblue;" points="758.119,-424.607 749,-430 759.492,-431.471 758.119,-424.607"/>
</g>
<!-- Node17&#45;&gt;Node3 -->
<g id="edge58" class="edge"><title>Node17&#45;&gt;Node3</title>
<path style="fill:none;stroke:midnightblue;" d="M1234,-360C1075,-338 1033,-348 879,-324 868,-322 855,-320 843,-317"/>
<polygon style="fill:midnightblue;stroke:midnightblue;" points="1233.7,-363.488 1244,-361 1234.4,-356.522 1233.7,-363.488"/>
</g>
<!-- Node18 -->
<g id="node48" class="node"><title>Node18</title>
<a xlink:href="_client_connection_response_8cpp.html" target="_top" xlink:title="S2Sim/TerraswarmLibrary\l/ClientConnectionResponse.cpp">
<polygon style="fill:white;stroke:black;" points="1256,-290 1256,-324 1445,-324 1445,-290 1256,-290"/>
<text text-anchor="start" x="1264" y="-310" style="font-family:Arial;font-size:10.00;">S2Sim/TerraswarmLibrary</text>
<text text-anchor="middle" x="1350" y="-297" style="font-family:Arial;font-size:10.00;">/ClientConnectionResponse.cpp</text>
</a>
</g>
<!-- Node17&#45;&gt;Node18 -->
<g id="edge60" class="edge"><title>Node17&#45;&gt;Node18</title>
<path style="fill:none;stroke:midnightblue;" d="M1339,-350C1341,-341 1344,-332 1346,-324"/>
<polygon style="fill:midnightblue;stroke:midnightblue;" points="1335.52,-349.416 1336,-360 1342.23,-351.427 1335.52,-349.416"/>
</g>
<!-- Node19&#45;&gt;Node3 -->
<g id="edge64" class="edge"><title>Node19&#45;&gt;Node3</title>
<path style="fill:none;stroke:midnightblue;" d="M163,-360C410,-328 476,-357 719,-324 732,-322 745,-320 758,-317"/>
<polygon style="fill:midnightblue;stroke:midnightblue;" points="162.602,-356.522 153,-361 163.299,-363.488 162.602,-356.522"/>
</g>
<!-- Node20 -->
<g id="node53" class="node"><title>Node20</title>
<a xlink:href="_client_data_8cpp.html" target="_top" xlink:title="S2Sim/TerraswarmLibrary\l/ClientData.cpp">
<polygon style="fill:white;stroke:black;" points="0,-290 0,-324 153,-324 153,-290 0,-290"/>
<text text-anchor="start" x="8" y="-310" style="font-family:Arial;font-size:10.00;">S2Sim/TerraswarmLibrary</text>
<text text-anchor="middle" x="76" y="-297" style="font-family:Arial;font-size:10.00;">/ClientData.cpp</text>
</a>
</g>
<!-- Node19&#45;&gt;Node20 -->
<g id="edge66" class="edge"><title>Node19&#45;&gt;Node20</title>
<path style="fill:none;stroke:midnightblue;" d="M76,-350C76,-341 76,-332 76,-324"/>
<polygon style="fill:midnightblue;stroke:midnightblue;" points="72.5001,-350 76,-360 79.5001,-350 72.5001,-350"/>
</g>
<!-- Node21&#45;&gt;Node3 -->
<g id="edge70" class="edge"><title>Node21&#45;&gt;Node3</title>
<path style="fill:none;stroke:midnightblue;" d="M333,-360C505,-335 551,-350 719,-324 731,-322 743,-320 755,-317"/>
<polygon style="fill:midnightblue;stroke:midnightblue;" points="332.602,-356.522 323,-361 333.299,-363.488 332.602,-356.522"/>
</g>
<!-- Node22 -->
<g id="node58" class="node"><title>Node22</title>
<a xlink:href="_demand_negotiation_8cpp.html" target="_top" xlink:title="S2Sim/TerraswarmLibrary\l/DemandNegotiation.cpp">
<polygon style="fill:white;stroke:black;" points="170,-290 170,-324 323,-324 323,-290 170,-290"/>
<text text-anchor="start" x="178" y="-310" style="font-family:Arial;font-size:10.00;">S2Sim/TerraswarmLibrary</text>
<text text-anchor="middle" x="246" y="-297" style="font-family:Arial;font-size:10.00;">/DemandNegotiation.cpp</text>
</a>
</g>
<!-- Node21&#45;&gt;Node22 -->
<g id="edge72" class="edge"><title>Node21&#45;&gt;Node22</title>
<path style="fill:none;stroke:midnightblue;" d="M246,-350C246,-341 246,-332 246,-324"/>
<polygon style="fill:midnightblue;stroke:midnightblue;" points="242.5,-350 246,-360 249.5,-350 242.5,-350"/>
</g>
<!-- Node23&#45;&gt;Node3 -->
<g id="edge76" class="edge"><title>Node23&#45;&gt;Node3</title>
<path style="fill:none;stroke:midnightblue;" d="M648,-357C687,-343 737,-327 768,-317"/>
<polygon style="fill:midnightblue;stroke:midnightblue;" points="646.573,-353.774 638,-360 648.584,-360.479 646.573,-353.774"/>
</g>
<!-- Node24 -->
<g id="node63" class="node"><title>Node24</title>
<a xlink:href="_get_price_8cpp.html" target="_top" xlink:title="S2Sim/TerraswarmLibrary\l/GetPrice.cpp">
<polygon style="fill:white;stroke:black;" points="388,-290 388,-324 541,-324 541,-290 388,-290"/>
<text text-anchor="start" x="396" y="-310" style="font-family:Arial;font-size:10.00;">S2Sim/TerraswarmLibrary</text>
<text text-anchor="middle" x="464" y="-297" style="font-family:Arial;font-size:10.00;">/GetPrice.cpp</text>
</a>
</g>
<!-- Node23&#45;&gt;Node24 -->
<g id="edge78" class="edge"><title>Node23&#45;&gt;Node24</title>
<path style="fill:none;stroke:midnightblue;" d="M547,-355C530,-345 510,-333 494,-324"/>
<polygon style="fill:midnightblue;stroke:midnightblue;" points="545.559,-358.203 556,-360 548.958,-352.084 545.559,-358.203"/>
</g>
<!-- Node26&#45;&gt;Node3 -->
<g id="edge84" class="edge"><title>Node26&#45;&gt;Node3</title>
<path style="fill:none;stroke:midnightblue;" d="M772,-351C779,-340 787,-326 793,-317"/>
<polygon style="fill:midnightblue;stroke:midnightblue;" points="768.797,-349.559 767,-360 774.916,-352.958 768.797,-349.559"/>
</g>
<!-- Node27 -->
<g id="node70" class="node"><title>Node27</title>
<a xlink:href="_price_proposal_8cpp.html" target="_top" xlink:title="S2Sim/TerraswarmLibrary\l/PriceProposal.cpp">
<polygon style="fill:white;stroke:black;" points="558,-290 558,-324 711,-324 711,-290 558,-290"/>
<text text-anchor="start" x="566" y="-310" style="font-family:Arial;font-size:10.00;">S2Sim/TerraswarmLibrary</text>
<text text-anchor="middle" x="634" y="-297" style="font-family:Arial;font-size:10.00;">/PriceProposal.cpp</text>
</a>
</g>
<!-- Node26&#45;&gt;Node27 -->
<g id="edge86" class="edge"><title>Node26&#45;&gt;Node27</title>
<path style="fill:none;stroke:midnightblue;" d="M717,-355C700,-345 680,-333 664,-324"/>
<polygon style="fill:midnightblue;stroke:midnightblue;" points="715.559,-358.203 726,-360 718.958,-352.084 715.559,-358.203"/>
</g>
<!-- Node28&#45;&gt;Node3 -->
<g id="edge90" class="edge"><title>Node28&#45;&gt;Node3</title>
<path style="fill:none;stroke:midnightblue;" d="M915,-356C884,-343 847,-327 823,-317"/>
<polygon style="fill:midnightblue;stroke:midnightblue;" points="913.44,-359.137 924,-360 916.283,-352.74 913.44,-359.137"/>
</g>
<!-- Node29 -->
<g id="node75" class="node"><title>Node29</title>
<a xlink:href="_set_current_price_8cpp.html" target="_top" xlink:title="S2Sim/TerraswarmLibrary\l/SetCurrentPrice.cpp">
<polygon style="fill:white;stroke:black;" points="888,-290 888,-324 1041,-324 1041,-290 888,-290"/>
<text text-anchor="start" x="896" y="-310" style="font-family:Arial;font-size:10.00;">S2Sim/TerraswarmLibrary</text>
<text text-anchor="middle" x="964" y="-297" style="font-family:Arial;font-size:10.00;">/SetCurrentPrice.cpp</text>
</a>
</g>
<!-- Node28&#45;&gt;Node29 -->
<g id="edge92" class="edge"><title>Node28&#45;&gt;Node29</title>
<path style="fill:none;stroke:midnightblue;" d="M964,-350C964,-341 964,-332 964,-324"/>
<polygon style="fill:midnightblue;stroke:midnightblue;" points="960.5,-350 964,-360 967.5,-350 960.5,-350"/>
</g>
</g>
</svg>
