<?xml version="1.0" encoding="UTF-8" standalone="no"?>
<!DOCTYPE svg PUBLIC "-//W3C//DTD SVG 1.0//EN"
 "http://www.w3.org/TR/2001/REC-SVG-20010904/DTD/svg10.dtd" [
 <!ATTLIST svg xmlns:xlink CDATA #FIXED "http://www.w3.org/1999/xlink">
]>
<!-- Generated by Graphviz version 2.14.1 (Fri Nov  9 08:19:38 GMT 2007)
     For user: (asakyurek) Alper Sinan Akyurek -->
<!-- Title: S2Sim/TerraswarmLibrary/NetworkByteAccessor.h Pages: 1 -->
<svg width="262pt" height="100pt"
 viewBox="0.00 0.00 262.00 100.00" xmlns="http://www.w3.org/2000/svg" xmlns:xlink="http://www.w3.org/1999/xlink">
<g id="graph0" class="graph" transform="scale(1 1) rotate(0) translate(4 96)">
<title>S2Sim/TerraswarmLibrary/NetworkByteAccessor.h</title>
<polygon style="fill:white;stroke:white;" points="-4,4 -4,-96 258,-96 258,4 -4,4"/>
<!-- Node1 -->
<g id="node1" class="node"><title>Node1</title>
<polygon style="fill:#bfbfbf;stroke:black;" points="20,-58 20,-92 173,-92 173,-58 20,-58"/>
<text text-anchor="start" x="28" y="-78" style="font-family:Arial;font-size:10.00;">S2Sim/TerraswarmLibrary</text>
<text text-anchor="middle" x="96" y="-65" style="font-family:Arial;font-size:10.00;">/NetworkByteAccessor.h</text>
</g>
<!-- Node2 -->
<g id="node3" class="node"><title>Node2</title>
<polygon style="fill:white;stroke:#bfbfbf;" points="0,-0 0,-21 56,-21 56,-0 0,-0"/>
<text text-anchor="middle" x="28" y="-7" style="font-family:Arial;font-size:10.00;">string.h</text>
</g>
<!-- Node1&#45;&gt;Node2 -->
<g id="edge2" class="edge"><title>Node1&#45;&gt;Node2</title>
<path style="fill:none;stroke:midnightblue;" d="M78,-58C69,-49 57,-37 47,-28"/>
<polygon style="fill:midnightblue;stroke:midnightblue;" points="48.8306,-24.9511 39,-21 44.221,-30.2191 48.8306,-24.9511"/>
</g>
<!-- Node3 -->
<g id="node5" class="node"><title>Node3</title>
<a xlink:href="_compile_time_checker_library_8h.html" target="_top" xlink:title="CompileTimeCheckerLibrary.h">
<polygon style="fill:white;stroke:black;" points="74,-0 74,-21 255,-21 255,-0 74,-0"/>
<text text-anchor="middle" x="164" y="-7" style="font-family:Arial;font-size:10.00;">CompileTimeCheckerLibrary.h</text>
</a>
</g>
<!-- Node1&#45;&gt;Node3 -->
<g id="edge4" class="edge"><title>Node1&#45;&gt;Node3</title>
<path style="fill:none;stroke:midnightblue;" d="M114,-58C123,-49 135,-37 145,-28"/>
<polygon style="fill:midnightblue;stroke:midnightblue;" points="147.779,-30.2191 153,-21 143.169,-24.9511 147.779,-30.2191"/>
</g>
</g>
</svg>
