<?xml version="1.0" encoding="UTF-8" standalone="no"?>
<!DOCTYPE svg PUBLIC "-//W3C//DTD SVG 1.0//EN"
 "http://www.w3.org/TR/2001/REC-SVG-20010904/DTD/svg10.dtd" [
 <!ATTLIST svg xmlns:xlink CDATA #FIXED "http://www.w3.org/1999/xlink">
]>
<!-- Generated by Graphviz version 2.14.1 (Fri Nov  9 08:19:38 GMT 2007)
     For user: (asakyurek) Alper Sinan Akyurek -->
<!-- Title: S2Sim/SocketLibrary/SocketBase.h Pages: 1 -->
<svg width="1024pt" height="682pt"
 viewBox="0.00 0.00 1024.00 682.00" xmlns="http://www.w3.org/2000/svg" xmlns:xlink="http://www.w3.org/1999/xlink">
<g id="graph0" class="graph" transform="scale(1 1) rotate(0) translate(4 678)">
<title>S2Sim/SocketLibrary/SocketBase.h</title>
<polygon style="fill:white;stroke:white;" points="-4,4 -4,-678 1020,-678 1020,4 -4,4"/>
<!-- Node1 -->
<g id="node1" class="node"><title>Node1</title>
<polygon style="fill:#bfbfbf;stroke:black;" points="615,-640 615,-674 742,-674 742,-640 615,-640"/>
<text text-anchor="start" x="623" y="-660" style="font-family:Arial;font-size:10.00;">S2Sim/SocketLibrary</text>
<text text-anchor="middle" x="678" y="-647" style="font-family:Arial;font-size:10.00;">/SocketBase.h</text>
</g>
<!-- Node2 -->
<g id="node3" class="node"><title>Node2</title>
<a xlink:href="_t_c_p_client_8h.html" target="_top" xlink:title="S2Sim/SocketLibrary\l/TCPClient.h">
<polygon style="fill:white;stroke:black;" points="148,-570 148,-604 275,-604 275,-570 148,-570"/>
<text text-anchor="start" x="156" y="-590" style="font-family:Arial;font-size:10.00;">S2Sim/SocketLibrary</text>
<text text-anchor="middle" x="211" y="-577" style="font-family:Arial;font-size:10.00;">/TCPClient.h</text>
</a>
</g>
<!-- Node1&#45;&gt;Node2 -->
<g id="edge2" class="edge"><title>Node1&#45;&gt;Node2</title>
<path style="fill:none;stroke:midnightblue;" d="M605,-646C514,-632 362,-610 275,-597"/>
<polygon style="fill:midnightblue;stroke:midnightblue;" points="604.701,-649.488 615,-647 605.398,-642.522 604.701,-649.488"/>
</g>
<!-- Node6 -->
<g id="node11" class="node"><title>Node6</title>
<a xlink:href="_t_c_p_connected_client_8h.html" target="_top" xlink:title="S2Sim/SocketLibrary\l/TCPConnectedClient.h">
<polygon style="fill:white;stroke:black;" points="545,-570 545,-604 687,-604 687,-570 545,-570"/>
<text text-anchor="start" x="553" y="-590" style="font-family:Arial;font-size:10.00;">S2Sim/SocketLibrary</text>
<text text-anchor="middle" x="616" y="-577" style="font-family:Arial;font-size:10.00;">/TCPConnectedClient.h</text>
</a>
</g>
<!-- Node1&#45;&gt;Node6 -->
<g id="edge10" class="edge"><title>Node1&#45;&gt;Node6</title>
<path style="fill:none;stroke:midnightblue;" d="M656,-632C648,-623 639,-613 631,-604"/>
<polygon style="fill:midnightblue;stroke:midnightblue;" points="653.781,-634.779 663,-640 659.049,-630.169 653.781,-634.779"/>
</g>
<!-- Node20 -->
<g id="node52" class="node"><title>Node20</title>
<a xlink:href="_t_c_p_server_8h.html" target="_top" xlink:title="S2Sim/SocketLibrary\l/TCPServer.h">
<polygon style="fill:white;stroke:black;" points="833,-430 833,-464 960,-464 960,-430 833,-430"/>
<text text-anchor="start" x="841" y="-450" style="font-family:Arial;font-size:10.00;">S2Sim/SocketLibrary</text>
<text text-anchor="middle" x="896" y="-437" style="font-family:Arial;font-size:10.00;">/TCPServer.h</text>
</a>
</g>
<!-- Node1&#45;&gt;Node20 -->
<g id="edge84" class="edge"><title>Node1&#45;&gt;Node20</title>
<path style="fill:none;stroke:midnightblue;" d="M689,-631C706,-590 739,-518 760,-500 780,-481 808,-469 833,-461"/>
<polygon style="fill:midnightblue;stroke:midnightblue;" points="685.863,-629.44 685,-640 692.26,-632.283 685.863,-629.44"/>
</g>
<!-- Node25 -->
<g id="node68" class="node"><title>Node25</title>
<a xlink:href="_u_d_p_socket_8h.html" target="_top" xlink:title="S2Sim/SocketLibrary\l/UDPSocket.h">
<polygon style="fill:white;stroke:black;" points="769,-570 769,-604 896,-604 896,-570 769,-570"/>
<text text-anchor="start" x="777" y="-590" style="font-family:Arial;font-size:10.00;">S2Sim/SocketLibrary</text>
<text text-anchor="middle" x="832" y="-577" style="font-family:Arial;font-size:10.00;">/UDPSocket.h</text>
</a>
</g>
<!-- Node1&#45;&gt;Node25 -->
<g id="edge86" class="edge"><title>Node1&#45;&gt;Node25</title>
<path style="fill:none;stroke:midnightblue;" d="M725,-636C747,-626 773,-614 794,-604"/>
<polygon style="fill:midnightblue;stroke:midnightblue;" points="723.717,-632.74 716,-640 726.56,-639.137 723.717,-632.74"/>
</g>
<!-- Node3 -->
<g id="node5" class="node"><title>Node3</title>
<a xlink:href="_t_c_p_client_8cpp.html" target="_top" xlink:title="S2Sim/SocketLibrary\l/TCPClient.cpp">
<polygon style="fill:white;stroke:black;" points="0,-500 0,-534 127,-534 127,-500 0,-500"/>
<text text-anchor="start" x="8" y="-520" style="font-family:Arial;font-size:10.00;">S2Sim/SocketLibrary</text>
<text text-anchor="middle" x="63" y="-507" style="font-family:Arial;font-size:10.00;">/TCPClient.cpp</text>
</a>
</g>
<!-- Node2&#45;&gt;Node3 -->
<g id="edge4" class="edge"><title>Node2&#45;&gt;Node3</title>
<path style="fill:none;stroke:midnightblue;" d="M166,-566C144,-555 119,-544 99,-534"/>
<polygon style="fill:midnightblue;stroke:midnightblue;" points="164.44,-569.137 175,-570 167.283,-562.74 164.44,-569.137"/>
</g>
<!-- Node4 -->
<g id="node7" class="node"><title>Node4</title>
<a xlink:href="_threaded_t_c_p_client_8h.html" target="_top" xlink:title="S2Sim/SocketLibrary\l/ThreadedTCPClient.h">
<polygon style="fill:white;stroke:black;" points="144,-500 144,-534 279,-534 279,-500 144,-500"/>
<text text-anchor="start" x="152" y="-520" style="font-family:Arial;font-size:10.00;">S2Sim/SocketLibrary</text>
<text text-anchor="middle" x="211" y="-507" style="font-family:Arial;font-size:10.00;">/ThreadedTCPClient.h</text>
</a>
</g>
<!-- Node2&#45;&gt;Node4 -->
<g id="edge6" class="edge"><title>Node2&#45;&gt;Node4</title>
<path style="fill:none;stroke:midnightblue;" d="M211,-560C211,-551 211,-542 211,-534"/>
<polygon style="fill:midnightblue;stroke:midnightblue;" points="207.5,-560 211,-570 214.5,-560 207.5,-560"/>
</g>
<!-- Node5 -->
<g id="node9" class="node"><title>Node5</title>
<a xlink:href="_threaded_t_c_p_client_8cpp.html" target="_top" xlink:title="S2Sim/SocketLibrary\l/ThreadedTCPClient.cpp">
<polygon style="fill:white;stroke:black;" points="86,-430 86,-464 234,-464 234,-430 86,-430"/>
<text text-anchor="start" x="94" y="-450" style="font-family:Arial;font-size:10.00;">S2Sim/SocketLibrary</text>
<text text-anchor="middle" x="160" y="-437" style="font-family:Arial;font-size:10.00;">/ThreadedTCPClient.cpp</text>
</a>
</g>
<!-- Node4&#45;&gt;Node5 -->
<g id="edge8" class="edge"><title>Node4&#45;&gt;Node5</title>
<path style="fill:none;stroke:midnightblue;" d="M192,-492C185,-483 178,-472 172,-464"/>
<polygon style="fill:midnightblue;stroke:midnightblue;" points="189.2,-494.1 198,-500 194.8,-489.9 189.2,-494.1"/>
</g>
<!-- Node7 -->
<g id="node13" class="node"><title>Node7</title>
<a xlink:href="_t_c_p_connected_client_8cpp.html" target="_top" xlink:title="S2Sim/SocketLibrary\l/TCPConnectedClient.cpp">
<polygon style="fill:white;stroke:black;" points="347,-500 347,-534 502,-534 502,-500 347,-500"/>
<text text-anchor="start" x="355" y="-520" style="font-family:Arial;font-size:10.00;">S2Sim/SocketLibrary</text>
<text text-anchor="middle" x="424" y="-507" style="font-family:Arial;font-size:10.00;">/TCPConnectedClient.cpp</text>
</a>
</g>
<!-- Node6&#45;&gt;Node7 -->
<g id="edge12" class="edge"><title>Node6&#45;&gt;Node7</title>
<path style="fill:none;stroke:midnightblue;" d="M559,-566C531,-556 498,-544 471,-534"/>
<polygon style="fill:midnightblue;stroke:midnightblue;" points="558.415,-569.536 569,-570 561.015,-563.036 558.415,-569.536"/>
</g>
<!-- Node8 -->
<g id="node15" class="node"><title>Node8</title>
<a xlink:href="_threaded_t_c_p_connected_client_8h.html" target="_top" xlink:title="S2Sim/SocketLibrary\l/ThreadedTCPConnectedClient.h">
<polygon style="fill:white;stroke:black;" points="519,-500 519,-534 714,-534 714,-500 519,-500"/>
<text text-anchor="start" x="527" y="-520" style="font-family:Arial;font-size:10.00;">S2Sim/SocketLibrary</text>
<text text-anchor="middle" x="616" y="-507" style="font-family:Arial;font-size:10.00;">/ThreadedTCPConnectedClient.h</text>
</a>
</g>
<!-- Node6&#45;&gt;Node8 -->
<g id="edge14" class="edge"><title>Node6&#45;&gt;Node8</title>
<path style="fill:none;stroke:midnightblue;" d="M616,-560C616,-551 616,-542 616,-534"/>
<polygon style="fill:midnightblue;stroke:midnightblue;" points="612.5,-560 616,-570 619.5,-560 612.5,-560"/>
</g>
<!-- Node9 -->
<g id="node17" class="node"><title>Node9</title>
<a xlink:href="_connection_manager_8h.html" target="_top" xlink:title="S2Sim/ConnectionManager.h">
<polygon style="fill:white;stroke:black;" points="340,-296 340,-317 514,-317 514,-296 340,-296"/>
<text text-anchor="middle" x="427" y="-303" style="font-family:Arial;font-size:10.00;">S2Sim/ConnectionManager.h</text>
</a>
</g>
<!-- Node8&#45;&gt;Node9 -->
<g id="edge16" class="edge"><title>Node8&#45;&gt;Node9</title>
<path style="fill:none;stroke:midnightblue;" d="M546,-496C527,-488 509,-478 495,-464 452,-420 434,-345 429,-317"/>
<polygon style="fill:midnightblue;stroke:midnightblue;" points="544.44,-499.137 555,-500 547.283,-492.74 544.44,-499.137"/>
</g>
<!-- Node10 -->
<g id="node19" class="node"><title>Node10</title>
<a xlink:href="_client_manager_8h.html" target="_top" xlink:title="S2Sim/ClientManager.h">
<polygon style="fill:white;stroke:black;" points="570,-232 570,-253 713,-253 713,-232 570,-232"/>
<text text-anchor="middle" x="641" y="-239" style="font-family:Arial;font-size:10.00;">S2Sim/ClientManager.h</text>
</a>
</g>
<!-- Node8&#45;&gt;Node10 -->
<g id="edge62" class="edge"><title>Node8&#45;&gt;Node10</title>
<path style="fill:none;stroke:midnightblue;" d="M691,-496C706,-488 720,-478 729,-464 770,-398 768,-356 729,-290 718,-272 698,-260 680,-253"/>
<polygon style="fill:midnightblue;stroke:midnightblue;" points="689.717,-492.74 682,-500 692.56,-499.137 689.717,-492.74"/>
</g>
<!-- Node13 -->
<g id="node26" class="node"><title>Node13</title>
<a xlink:href="_matlab_manager_8h.html" target="_top" xlink:title="S2Sim/MatlabManager.h">
<polygon style="fill:white;stroke:black;" points="613,-58 613,-79 761,-79 761,-58 613,-58"/>
<text text-anchor="middle" x="687" y="-65" style="font-family:Arial;font-size:10.00;">S2Sim/MatlabManager.h</text>
</a>
</g>
<!-- Node8&#45;&gt;Node13 -->
<g id="edge58" class="edge"><title>Node8&#45;&gt;Node13</title>
<path style="fill:none;stroke:midnightblue;" d="M699,-496C718,-489 735,-479 749,-464 820,-388 824,-346 824,-243 824,-243 824,-243 824,-185 824,-129 757,-95 717,-79"/>
<polygon style="fill:midnightblue;stroke:midnightblue;" points="697.717,-492.74 690,-500 700.56,-499.137 697.717,-492.74"/>
</g>
<!-- Node14 -->
<g id="node30" class="node"><title>Node14</title>
<a xlink:href="_control_manager_8h.html" target="_top" xlink:title="S2Sim/ControlManager.h">
<polygon style="fill:white;stroke:black;" points="340,-174 340,-195 491,-195 491,-174 340,-174"/>
<text text-anchor="middle" x="415" y="-181" style="font-family:Arial;font-size:10.00;">S2Sim/ControlManager.h</text>
</a>
</g>
<!-- Node8&#45;&gt;Node14 -->
<g id="edge60" class="edge"><title>Node8&#45;&gt;Node14</title>
<path style="fill:none;stroke:midnightblue;" d="M517,-498C412,-474 262,-432 262,-377 262,-377 262,-377 262,-307 262,-272 258,-257 281,-232 298,-213 323,-202 347,-195"/>
<polygon style="fill:midnightblue;stroke:midnightblue;" points="516.508,-501.471 527,-500 517.881,-494.607 516.508,-501.471"/>
</g>
<!-- Node8&#45;&gt;Node20 -->
<g id="edge64" class="edge"><title>Node8&#45;&gt;Node20</title>
<path style="fill:none;stroke:midnightblue;" d="M694,-498C738,-487 792,-473 833,-463"/>
<polygon style="fill:midnightblue;stroke:midnightblue;" points="693.119,-494.607 684,-500 694.492,-501.471 693.119,-494.607"/>
</g>
<!-- Node22 -->
<g id="node57" class="node"><title>Node22</title>
<a xlink:href="_threaded_t_c_p_server_8h.html" target="_top" xlink:title="S2Sim/SocketLibrary\l/ThreadedTCPServer.h">
<polygon style="fill:white;stroke:black;" points="478,-360 478,-394 616,-394 616,-360 478,-360"/>
<text text-anchor="start" x="486" y="-380" style="font-family:Arial;font-size:10.00;">S2Sim/SocketLibrary</text>
<text text-anchor="middle" x="547" y="-367" style="font-family:Arial;font-size:10.00;">/ThreadedTCPServer.h</text>
</a>
</g>
<!-- Node8&#45;&gt;Node22 -->
<g id="edge82" class="edge"><title>Node8&#45;&gt;Node22</title>
<path style="fill:none;stroke:midnightblue;" d="M541,-496C526,-488 512,-478 503,-464 488,-441 510,-412 528,-394"/>
<polygon style="fill:midnightblue;stroke:midnightblue;" points="539.44,-499.137 550,-500 542.283,-492.74 539.44,-499.137"/>
</g>
<!-- Node24 -->
<g id="node64" class="node"><title>Node24</title>
<a xlink:href="_threaded_t_c_p_connected_client_8cpp.html" target="_top" xlink:title="S2Sim/SocketLibrary\l/ThreadedTCPConnectedClient.cpp">
<polygon style="fill:white;stroke:black;" points="512,-430 512,-464 720,-464 720,-430 512,-430"/>
<text text-anchor="start" x="520" y="-450" style="font-family:Arial;font-size:10.00;">S2Sim/SocketLibrary</text>
<text text-anchor="middle" x="616" y="-437" style="font-family:Arial;font-size:10.00;">/ThreadedTCPConnectedClient.cpp</text>
</a>
</g>
<!-- Node8&#45;&gt;Node24 -->
<g id="edge80" class="edge"><title>Node8&#45;&gt;Node24</title>
<path style="fill:none;stroke:midnightblue;" d="M616,-490C616,-481 616,-472 616,-464"/>
<polygon style="fill:midnightblue;stroke:midnightblue;" points="612.5,-490 616,-500 619.5,-490 612.5,-490"/>
</g>
<!-- Node9&#45;&gt;Node10 -->
<g id="edge18" class="edge"><title>Node9&#45;&gt;Node10</title>
<path style="fill:none;stroke:midnightblue;" d="M469,-293C507,-281 564,-264 602,-253"/>
<polygon style="fill:midnightblue;stroke:midnightblue;" points="467.573,-289.774 459,-296 469.584,-296.479 467.573,-289.774"/>
</g>
<!-- Node9&#45;&gt;Node14 -->
<g id="edge52" class="edge"><title>Node9&#45;&gt;Node14</title>
<path style="fill:none;stroke:midnightblue;" d="M455,-290C475,-276 496,-254 485,-232 476,-214 458,-203 442,-195"/>
<polygon style="fill:midnightblue;stroke:midnightblue;" points="452.379,-287.541 446,-296 456.262,-293.365 452.379,-287.541"/>
</g>
<!-- Node16 -->
<g id="node35" class="node"><title>Node16</title>
<a xlink:href="main_8cpp.html" target="_top" xlink:title="S2Sim/main.cpp">
<polygon style="fill:white;stroke:black;" points="358,-0 358,-21 462,-21 462,-0 358,-0"/>
<text text-anchor="middle" x="410" y="-7" style="font-family:Arial;font-size:10.00;">S2Sim/main.cpp</text>
</a>
</g>
<!-- Node9&#45;&gt;Node16 -->
<g id="edge56" class="edge"><title>Node9&#45;&gt;Node16</title>
<path style="fill:none;stroke:midnightblue;" d="M352,-294C295,-278 224,-246 224,-185 224,-185 224,-185 224,-127 224,-63 303,-33 358,-20"/>
<polygon style="fill:midnightblue;stroke:midnightblue;" points="351.508,-297.471 362,-296 352.881,-290.607 351.508,-297.471"/>
</g>
<!-- Node19 -->
<g id="node46" class="node"><title>Node19</title>
<a xlink:href="_connection_manager_8cpp.html" target="_top" xlink:title="S2Sim/ConnectionManager.cpp">
<polygon style="fill:white;stroke:black;" points="290,-232 290,-253 477,-253 477,-232 290,-232"/>
<text text-anchor="middle" x="383" y="-239" style="font-family:Arial;font-size:10.00;">S2Sim/ConnectionManager.cpp</text>
</a>
</g>
<!-- Node9&#45;&gt;Node19 -->
<g id="edge54" class="edge"><title>Node9&#45;&gt;Node19</title>
<path style="fill:none;stroke:midnightblue;" d="M413,-288C406,-276 396,-262 390,-253"/>
<polygon style="fill:midnightblue;stroke:midnightblue;" points="410.2,-290.1 419,-296 415.8,-285.9 410.2,-290.1"/>
</g>
<!-- Node10&#45;&gt;Node9 -->
<g id="edge22" class="edge"><title>Node10&#45;&gt;Node9</title>
<path style="fill:none;stroke:midnightblue;" d="M603,-256C565,-268 508,-285 469,-296"/>
<polygon style="fill:midnightblue;stroke:midnightblue;" points="604.427,-259.226 613,-253 602.416,-252.521 604.427,-259.226"/>
</g>
<!-- Node11 -->
<g id="node21" class="node"><title>Node11</title>
<a xlink:href="_client_manager_8cpp.html" target="_top" xlink:title="S2Sim/ClientManager.cpp">
<polygon style="fill:white;stroke:black;" points="564,-174 564,-195 720,-195 720,-174 564,-174"/>
<text text-anchor="middle" x="642" y="-181" style="font-family:Arial;font-size:10.00;">S2Sim/ClientManager.cpp</text>
</a>
</g>
<!-- Node10&#45;&gt;Node11 -->
<g id="edge20" class="edge"><title>Node10&#45;&gt;Node11</title>
<path style="fill:none;stroke:midnightblue;" d="M641,-222C641,-212 641,-202 642,-195"/>
<polygon style="fill:midnightblue;stroke:midnightblue;" points="637.5,-222 641,-232 644.5,-222 637.5,-222"/>
</g>
<!-- Node12 -->
<g id="node24" class="node"><title>Node12</title>
<a xlink:href="_system_manager_8h.html" target="_top" xlink:title="S2Sim/SystemManager.h">
<polygon style="fill:white;stroke:black;" points="531,-116 531,-137 682,-137 682,-116 531,-116"/>
<text text-anchor="middle" x="606" y="-123" style="font-family:Arial;font-size:10.00;">S2Sim/SystemManager.h</text>
</a>
</g>
<!-- Node10&#45;&gt;Node12 -->
<g id="edge24" class="edge"><title>Node10&#45;&gt;Node12</title>
<path style="fill:none;stroke:midnightblue;" d="M586,-228C570,-221 554,-210 546,-196 533,-174 561,-150 583,-137"/>
<polygon style="fill:midnightblue;stroke:midnightblue;" points="584.44,-231.137 595,-232 587.283,-224.74 584.44,-231.137"/>
</g>
<!-- Node10&#45;&gt;Node14 -->
<g id="edge50" class="edge"><title>Node10&#45;&gt;Node14</title>
<path style="fill:none;stroke:midnightblue;" d="M588,-229C547,-219 491,-204 454,-195"/>
<polygon style="fill:midnightblue;stroke:midnightblue;" points="587.416,-232.479 598,-232 589.427,-225.774 587.416,-232.479"/>
</g>
<!-- Node12&#45;&gt;Node10 -->
<g id="edge46" class="edge"><title>Node12&#45;&gt;Node10</title>
<path style="fill:none;stroke:midnightblue;" d="M588,-143C572,-157 553,-177 564,-196 574,-213 594,-225 611,-232"/>
<polygon style="fill:midnightblue;stroke:midnightblue;" points="590.1,-145.8 596,-137 585.9,-140.2 590.1,-145.8"/>
</g>
<!-- Node12&#45;&gt;Node13 -->
<g id="edge26" class="edge"><title>Node12&#45;&gt;Node13</title>
<path style="fill:none;stroke:midnightblue;" d="M624,-110C637,-99 655,-87 668,-79"/>
<polygon style="fill:midnightblue;stroke:midnightblue;" points="621.9,-107.2 616,-116 626.1,-112.8 621.9,-107.2"/>
</g>
<!-- Node12&#45;&gt;Node14 -->
<g id="edge44" class="edge"><title>Node12&#45;&gt;Node14</title>
<path style="fill:none;stroke:midnightblue;" d="M568,-140C536,-150 490,-164 457,-174"/>
<polygon style="fill:midnightblue;stroke:midnightblue;" points="569.427,-143.226 578,-137 567.416,-136.521 569.427,-143.226"/>
</g>
<!-- Node18 -->
<g id="node42" class="node"><title>Node18</title>
<a xlink:href="_system_manager_8cpp.html" target="_top" xlink:title="S2Sim/SystemManager.cpp">
<polygon style="fill:white;stroke:black;" points="431,-58 431,-79 595,-79 595,-58 431,-58"/>
<text text-anchor="middle" x="513" y="-65" style="font-family:Arial;font-size:10.00;">S2Sim/SystemManager.cpp</text>
</a>
</g>
<!-- Node12&#45;&gt;Node18 -->
<g id="edge48" class="edge"><title>Node12&#45;&gt;Node18</title>
<path style="fill:none;stroke:midnightblue;" d="M579,-111C563,-100 542,-87 529,-79"/>
<polygon style="fill:midnightblue;stroke:midnightblue;" points="577.559,-114.203 588,-116 580.958,-108.084 577.559,-114.203"/>
</g>
<!-- Node13&#45;&gt;Node10 -->
<g id="edge28" class="edge"><title>Node13&#45;&gt;Node10</title>
<path style="fill:none;stroke:midnightblue;" d="M702,-87C721,-113 750,-160 729,-196 718,-213 699,-225 681,-232"/>
<polygon style="fill:midnightblue;stroke:midnightblue;" points="704.8,-84.9 696,-79 699.2,-89.1 704.8,-84.9"/>
</g>
<!-- Node13&#45;&gt;Node12 -->
<g id="edge30" class="edge"><title>Node13&#45;&gt;Node12</title>
<path style="fill:none;stroke:midnightblue;" d="M670,-85C657,-95 640,-107 627,-116"/>
<polygon style="fill:midnightblue;stroke:midnightblue;" points="672.1,-87.8 678,-79 667.9,-82.2 672.1,-87.8"/>
</g>
<!-- Node13&#45;&gt;Node14 -->
<g id="edge32" class="edge"><title>Node13&#45;&gt;Node14</title>
<path style="fill:none;stroke:midnightblue;" d="M627,-81C595,-89 556,-101 522,-116 504,-124 456,-156 431,-174"/>
<polygon style="fill:midnightblue;stroke:midnightblue;" points="627.881,-84.3933 637,-79 626.508,-77.5292 627.881,-84.3933"/>
</g>
<!-- Node13&#45;&gt;Node16 -->
<g id="edge40" class="edge"><title>Node13&#45;&gt;Node16</title>
<path style="fill:none;stroke:midnightblue;" d="M624,-56C574,-45 504,-30 458,-21"/>
<polygon style="fill:midnightblue;stroke:midnightblue;" points="623.508,-59.4708 634,-58 624.881,-52.6067 623.508,-59.4708"/>
</g>
<!-- Node17 -->
<g id="node38" class="node"><title>Node17</title>
<a xlink:href="_matlab_manager_8cpp.html" target="_top" xlink:title="S2Sim/MatlabManager.cpp">
<polygon style="fill:white;stroke:black;" points="607,-0 607,-21 768,-21 768,-0 607,-0"/>
<text text-anchor="middle" x="687" y="-7" style="font-family:Arial;font-size:10.00;">S2Sim/MatlabManager.cpp</text>
</a>
</g>
<!-- Node13&#45;&gt;Node17 -->
<g id="edge42" class="edge"><title>Node13&#45;&gt;Node17</title>
<path style="fill:none;stroke:midnightblue;" d="M687,-48C687,-38 687,-28 687,-21"/>
<polygon style="fill:midnightblue;stroke:midnightblue;" points="683.5,-48 687,-58 690.5,-48 683.5,-48"/>
</g>
<!-- Node14&#45;&gt;Node12 -->
<g id="edge34" class="edge"><title>Node14&#45;&gt;Node12</title>
<path style="fill:none;stroke:midnightblue;" d="M456,-171C489,-160 535,-146 568,-137"/>
<polygon style="fill:midnightblue;stroke:midnightblue;" points="454.573,-167.774 446,-174 456.584,-174.479 454.573,-167.774"/>
</g>
<!-- Node15 -->
<g id="node33" class="node"><title>Node15</title>
<a xlink:href="_control_manager_8cpp.html" target="_top" xlink:title="S2Sim/ControlManager.cpp">
<polygon style="fill:white;stroke:black;" points="311,-116 311,-137 475,-137 475,-116 311,-116"/>
<text text-anchor="middle" x="393" y="-123" style="font-family:Arial;font-size:10.00;">S2Sim/ControlManager.cpp</text>
</a>
</g>
<!-- Node14&#45;&gt;Node15 -->
<g id="edge36" class="edge"><title>Node14&#45;&gt;Node15</title>
<path style="fill:none;stroke:midnightblue;" d="M407,-164C404,-155 400,-144 397,-137"/>
<polygon style="fill:midnightblue;stroke:midnightblue;" points="404.036,-166.015 411,-174 410.536,-163.415 404.036,-166.015"/>
</g>
<!-- Node14&#45;&gt;Node16 -->
<g id="edge38" class="edge"><title>Node14&#45;&gt;Node16</title>
<path style="fill:none;stroke:midnightblue;" d="M346,-170C329,-163 312,-153 302,-138 271,-91 350,-42 389,-21"/>
<polygon style="fill:midnightblue;stroke:midnightblue;" points="344.44,-173.137 355,-174 347.283,-166.74 344.44,-173.137"/>
</g>
<!-- Node20&#45;&gt;Node16 -->
<g id="edge66" class="edge"><title>Node20&#45;&gt;Node16</title>
<path style="fill:none;stroke:midnightblue;" d="M885,-420C875,-392 862,-347 862,-307 862,-307 862,-307 862,-127 862,-45 581,-20 462,-13"/>
<polygon style="fill:midnightblue;stroke:midnightblue;" points="882.036,-422.015 889,-430 888.536,-419.415 882.036,-422.015"/>
</g>
<!-- Node21 -->
<g id="node55" class="node"><title>Node21</title>
<a xlink:href="_t_c_p_server_8cpp.html" target="_top" xlink:title="S2Sim/SocketLibrary\l/TCPServer.cpp">
<polygon style="fill:white;stroke:black;" points="890,-360 890,-394 1017,-394 1017,-360 890,-360"/>
<text text-anchor="start" x="898" y="-380" style="font-family:Arial;font-size:10.00;">S2Sim/SocketLibrary</text>
<text text-anchor="middle" x="953" y="-367" style="font-family:Arial;font-size:10.00;">/TCPServer.cpp</text>
</a>
</g>
<!-- Node20&#45;&gt;Node21 -->
<g id="edge68" class="edge"><title>Node20&#45;&gt;Node21</title>
<path style="fill:none;stroke:midnightblue;" d="M916,-422C924,-413 932,-403 939,-394"/>
<polygon style="fill:midnightblue;stroke:midnightblue;" points="913.2,-419.9 910,-430 918.8,-424.1 913.2,-419.9"/>
</g>
<!-- Node20&#45;&gt;Node22 -->
<g id="edge70" class="edge"><title>Node20&#45;&gt;Node22</title>
<path style="fill:none;stroke:midnightblue;" d="M823,-432C762,-420 676,-402 616,-391"/>
<polygon style="fill:midnightblue;stroke:midnightblue;" points="822.508,-435.471 833,-434 823.881,-428.607 822.508,-435.471"/>
</g>
<!-- Node22&#45;&gt;Node9 -->
<g id="edge72" class="edge"><title>Node22&#45;&gt;Node9</title>
<path style="fill:none;stroke:midnightblue;" d="M509,-355C488,-342 462,-327 445,-317"/>
<polygon style="fill:midnightblue;stroke:midnightblue;" points="507.559,-358.203 518,-360 510.958,-352.084 507.559,-358.203"/>
</g>
<!-- Node22&#45;&gt;Node13 -->
<g id="edge74" class="edge"><title>Node22&#45;&gt;Node13</title>
<path style="fill:none;stroke:midnightblue;" d="M626,-366C696,-351 786,-317 786,-243 786,-243 786,-243 786,-185 786,-136 734,-97 705,-79"/>
<polygon style="fill:midnightblue;stroke:midnightblue;" points="625.119,-362.607 616,-368 626.492,-369.471 625.119,-362.607"/>
</g>
<!-- Node22&#45;&gt;Node14 -->
<g id="edge76" class="edge"><title>Node22&#45;&gt;Node14</title>
<path style="fill:none;stroke:midnightblue;" d="M545,-350C542,-318 532,-265 502,-232 488,-214 465,-203 446,-195"/>
<polygon style="fill:midnightblue;stroke:midnightblue;" points="541.522,-350.398 546,-360 548.488,-349.701 541.522,-350.398"/>
</g>
<!-- Node23 -->
<g id="node62" class="node"><title>Node23</title>
<a xlink:href="_threaded_t_c_p_server_8cpp.html" target="_top" xlink:title="S2Sim/SocketLibrary\l/ThreadedTCPServer.cpp">
<polygon style="fill:white;stroke:black;" points="570,-290 570,-324 721,-324 721,-290 570,-290"/>
<text text-anchor="start" x="578" y="-310" style="font-family:Arial;font-size:10.00;">S2Sim/SocketLibrary</text>
<text text-anchor="middle" x="645" y="-297" style="font-family:Arial;font-size:10.00;">/ThreadedTCPServer.cpp</text>
</a>
</g>
<!-- Node22&#45;&gt;Node23 -->
<g id="edge78" class="edge"><title>Node22&#45;&gt;Node23</title>
<path style="fill:none;stroke:midnightblue;" d="M579,-354C593,-344 609,-333 621,-324"/>
<polygon style="fill:midnightblue;stroke:midnightblue;" points="576.9,-351.2 571,-360 581.1,-356.8 576.9,-351.2"/>
</g>
<!-- Node26 -->
<g id="node70" class="node"><title>Node26</title>
<a xlink:href="_u_d_p_socket_8cpp.html" target="_top" xlink:title="S2Sim/SocketLibrary\l/UDPSocket.cpp">
<polygon style="fill:white;stroke:black;" points="769,-500 769,-534 896,-534 896,-500 769,-500"/>
<text text-anchor="start" x="777" y="-520" style="font-family:Arial;font-size:10.00;">S2Sim/SocketLibrary</text>
<text text-anchor="middle" x="832" y="-507" style="font-family:Arial;font-size:10.00;">/UDPSocket.cpp</text>
</a>
</g>
<!-- Node25&#45;&gt;Node26 -->
<g id="edge88" class="edge"><title>Node25&#45;&gt;Node26</title>
<path style="fill:none;stroke:midnightblue;" d="M832,-560C832,-551 832,-542 832,-534"/>
<polygon style="fill:midnightblue;stroke:midnightblue;" points="828.5,-560 832,-570 835.5,-560 828.5,-560"/>
</g>
</g>
</svg>
