<?xml version="1.0" encoding="UTF-8" standalone="no"?>
<!DOCTYPE svg PUBLIC "-//W3C//DTD SVG 1.0//EN"
 "http://www.w3.org/TR/2001/REC-SVG-20010904/DTD/svg10.dtd" [
 <!ATTLIST svg xmlns:xlink CDATA #FIXED "http://www.w3.org/1999/xlink">
]>
<!-- Generated by Graphviz version 2.14.1 (Fri Nov  9 08:19:38 GMT 2007)
     For user: (asakyurek) Alper Sinan Akyurek -->
<!-- Title: S2Sim/SocketLibrary/TCPConnectedClient.h Pages: 1 -->
<svg width="953pt" height="612pt"
 viewBox="0.00 0.00 953.00 612.00" xmlns="http://www.w3.org/2000/svg" xmlns:xlink="http://www.w3.org/1999/xlink">
<g id="graph0" class="graph" transform="scale(1 1) rotate(0) translate(4 608)">
<title>S2Sim/SocketLibrary/TCPConnectedClient.h</title>
<polygon style="fill:white;stroke:white;" points="-4,4 -4,-608 949,-608 949,4 -4,4"/>
<!-- Node1 -->
<g id="node1" class="node"><title>Node1</title>
<polygon style="fill:#bfbfbf;stroke:black;" points="278,-570 278,-604 420,-604 420,-570 278,-570"/>
<text text-anchor="start" x="286" y="-590" style="font-family:Arial;font-size:10.00;">S2Sim/SocketLibrary</text>
<text text-anchor="middle" x="349" y="-577" style="font-family:Arial;font-size:10.00;">/TCPConnectedClient.h</text>
</g>
<!-- Node2 -->
<g id="node3" class="node"><title>Node2</title>
<a xlink:href="_t_c_p_connected_client_8cpp.html" target="_top" xlink:title="S2Sim/SocketLibrary\l/TCPConnectedClient.cpp">
<polygon style="fill:white;stroke:black;" points="176,-500 176,-534 331,-534 331,-500 176,-500"/>
<text text-anchor="start" x="184" y="-520" style="font-family:Arial;font-size:10.00;">S2Sim/SocketLibrary</text>
<text text-anchor="middle" x="253" y="-507" style="font-family:Arial;font-size:10.00;">/TCPConnectedClient.cpp</text>
</a>
</g>
<!-- Node1&#45;&gt;Node2 -->
<g id="edge2" class="edge"><title>Node1&#45;&gt;Node2</title>
<path style="fill:none;stroke:midnightblue;" d="M317,-564C303,-554 288,-543 276,-534"/>
<polygon style="fill:midnightblue;stroke:midnightblue;" points="314.9,-566.8 325,-570 319.1,-561.2 314.9,-566.8"/>
</g>
<!-- Node3 -->
<g id="node5" class="node"><title>Node3</title>
<a xlink:href="_threaded_t_c_p_connected_client_8h.html" target="_top" xlink:title="S2Sim/SocketLibrary\l/ThreadedTCPConnectedClient.h">
<polygon style="fill:white;stroke:black;" points="348,-500 348,-534 543,-534 543,-500 348,-500"/>
<text text-anchor="start" x="356" y="-520" style="font-family:Arial;font-size:10.00;">S2Sim/SocketLibrary</text>
<text text-anchor="middle" x="445" y="-507" style="font-family:Arial;font-size:10.00;">/ThreadedTCPConnectedClient.h</text>
</a>
</g>
<!-- Node1&#45;&gt;Node3 -->
<g id="edge4" class="edge"><title>Node1&#45;&gt;Node3</title>
<path style="fill:none;stroke:midnightblue;" d="M381,-564C395,-554 410,-543 422,-534"/>
<polygon style="fill:midnightblue;stroke:midnightblue;" points="378.9,-561.2 373,-570 383.1,-566.8 378.9,-561.2"/>
</g>
<!-- Node4 -->
<g id="node7" class="node"><title>Node4</title>
<a xlink:href="_connection_manager_8h.html" target="_top" xlink:title="S2Sim/ConnectionManager.h">
<polygon style="fill:white;stroke:black;" points="243,-296 243,-317 417,-317 417,-296 243,-296"/>
<text text-anchor="middle" x="330" y="-303" style="font-family:Arial;font-size:10.00;">S2Sim/ConnectionManager.h</text>
</a>
</g>
<!-- Node3&#45;&gt;Node4 -->
<g id="edge6" class="edge"><title>Node3&#45;&gt;Node4</title>
<path style="fill:none;stroke:midnightblue;" d="M427,-492C411,-467 386,-429 367,-394 353,-367 340,-333 334,-317"/>
<polygon style="fill:midnightblue;stroke:midnightblue;" points="424.2,-494.1 433,-500 429.8,-489.9 424.2,-494.1"/>
</g>
<!-- Node5 -->
<g id="node9" class="node"><title>Node5</title>
<a xlink:href="_client_manager_8h.html" target="_top" xlink:title="S2Sim/ClientManager.h">
<polygon style="fill:white;stroke:black;" points="77,-232 77,-253 220,-253 220,-232 77,-232"/>
<text text-anchor="middle" x="148" y="-239" style="font-family:Arial;font-size:10.00;">S2Sim/ClientManager.h</text>
</a>
</g>
<!-- Node3&#45;&gt;Node5 -->
<g id="edge52" class="edge"><title>Node3&#45;&gt;Node5</title>
<path style="fill:none;stroke:midnightblue;" d="M416,-493C406,-484 393,-474 383,-464 294,-385 191,-285 159,-253"/>
<polygon style="fill:midnightblue;stroke:midnightblue;" points="414.169,-496.049 424,-500 418.779,-490.781 414.169,-496.049"/>
</g>
<!-- Node8 -->
<g id="node16" class="node"><title>Node8</title>
<a xlink:href="_matlab_manager_8h.html" target="_top" xlink:title="S2Sim/MatlabManager.h">
<polygon style="fill:white;stroke:black;" points="100,-58 100,-79 248,-79 248,-58 100,-58"/>
<text text-anchor="middle" x="174" y="-65" style="font-family:Arial;font-size:10.00;">S2Sim/MatlabManager.h</text>
</a>
</g>
<!-- Node3&#45;&gt;Node8 -->
<g id="edge48" class="edge"><title>Node3&#45;&gt;Node8</title>
<path style="fill:none;stroke:midnightblue;" d="M355,-498C225,-469 0,-413 0,-377 0,-377 0,-377 0,-185 0,-124 75,-93 126,-79"/>
<polygon style="fill:midnightblue;stroke:midnightblue;" points="354.508,-501.471 365,-500 355.881,-494.607 354.508,-501.471"/>
</g>
<!-- Node9 -->
<g id="node20" class="node"><title>Node9</title>
<a xlink:href="_control_manager_8h.html" target="_top" xlink:title="S2Sim/ControlManager.h">
<polygon style="fill:white;stroke:black;" points="479,-174 479,-195 630,-195 630,-174 479,-174"/>
<text text-anchor="middle" x="554" y="-181" style="font-family:Arial;font-size:10.00;">S2Sim/ControlManager.h</text>
</a>
</g>
<!-- Node3&#45;&gt;Node9 -->
<g id="edge50" class="edge"><title>Node3&#45;&gt;Node9</title>
<path style="fill:none;stroke:midnightblue;" d="M464,-492C490,-460 537,-403 584,-360 603,-341 620,-347 632,-324 656,-274 596,-218 567,-195"/>
<polygon style="fill:midnightblue;stroke:midnightblue;" points="461.2,-489.9 458,-500 466.8,-494.1 461.2,-489.9"/>
</g>
<!-- Node15 -->
<g id="node42" class="node"><title>Node15</title>
<a xlink:href="_t_c_p_server_8h.html" target="_top" xlink:title="S2Sim/SocketLibrary\l/TCPServer.h">
<polygon style="fill:white;stroke:black;" points="593,-430 593,-464 720,-464 720,-430 593,-430"/>
<text text-anchor="start" x="601" y="-450" style="font-family:Arial;font-size:10.00;">S2Sim/SocketLibrary</text>
<text text-anchor="middle" x="656" y="-437" style="font-family:Arial;font-size:10.00;">/TCPServer.h</text>
</a>
</g>
<!-- Node3&#45;&gt;Node15 -->
<g id="edge54" class="edge"><title>Node3&#45;&gt;Node15</title>
<path style="fill:none;stroke:midnightblue;" d="M506,-497C537,-486 575,-474 604,-464"/>
<polygon style="fill:midnightblue;stroke:midnightblue;" points="504.573,-493.774 496,-500 506.584,-500.479 504.573,-493.774"/>
</g>
<!-- Node17 -->
<g id="node47" class="node"><title>Node17</title>
<a xlink:href="_threaded_t_c_p_server_8h.html" target="_top" xlink:title="S2Sim/SocketLibrary\l/ThreadedTCPServer.h">
<polygon style="fill:white;stroke:black;" points="376,-360 376,-394 514,-394 514,-360 376,-360"/>
<text text-anchor="start" x="384" y="-380" style="font-family:Arial;font-size:10.00;">S2Sim/SocketLibrary</text>
<text text-anchor="middle" x="445" y="-367" style="font-family:Arial;font-size:10.00;">/ThreadedTCPServer.h</text>
</a>
</g>
<!-- Node3&#45;&gt;Node17 -->
<g id="edge72" class="edge"><title>Node3&#45;&gt;Node17</title>
<path style="fill:none;stroke:midnightblue;" d="M445,-490C445,-462 445,-418 445,-394"/>
<polygon style="fill:midnightblue;stroke:midnightblue;" points="441.5,-490 445,-500 448.5,-490 441.5,-490"/>
</g>
<!-- Node19 -->
<g id="node54" class="node"><title>Node19</title>
<a xlink:href="_threaded_t_c_p_connected_client_8cpp.html" target="_top" xlink:title="S2Sim/SocketLibrary\l/ThreadedTCPConnectedClient.cpp">
<polygon style="fill:white;stroke:black;" points="737,-430 737,-464 945,-464 945,-430 737,-430"/>
<text text-anchor="start" x="745" y="-450" style="font-family:Arial;font-size:10.00;">S2Sim/SocketLibrary</text>
<text text-anchor="middle" x="841" y="-437" style="font-family:Arial;font-size:10.00;">/ThreadedTCPConnectedClient.cpp</text>
</a>
</g>
<!-- Node3&#45;&gt;Node19 -->
<g id="edge70" class="edge"><title>Node3&#45;&gt;Node19</title>
<path style="fill:none;stroke:midnightblue;" d="M551,-498C611,-488 686,-474 744,-464"/>
<polygon style="fill:midnightblue;stroke:midnightblue;" points="550.119,-494.607 541,-500 551.492,-501.471 550.119,-494.607"/>
</g>
<!-- Node4&#45;&gt;Node5 -->
<g id="edge8" class="edge"><title>Node4&#45;&gt;Node5</title>
<path style="fill:none;stroke:midnightblue;" d="M283,-293C248,-281 199,-264 171,-253"/>
<polygon style="fill:midnightblue;stroke:midnightblue;" points="282.416,-296.479 293,-296 284.427,-289.774 282.416,-296.479"/>
</g>
<!-- Node4&#45;&gt;Node9 -->
<g id="edge42" class="edge"><title>Node4&#45;&gt;Node9</title>
<path style="fill:none;stroke:midnightblue;" d="M375,-293C401,-284 436,-270 465,-254 495,-237 527,-210 543,-195"/>
<polygon style="fill:midnightblue;stroke:midnightblue;" points="373.573,-289.774 365,-296 375.584,-296.479 373.573,-289.774"/>
</g>
<!-- Node11 -->
<g id="node25" class="node"><title>Node11</title>
<a xlink:href="main_8cpp.html" target="_top" xlink:title="S2Sim/main.cpp">
<polygon style="fill:white;stroke:black;" points="531,-0 531,-21 635,-21 635,-0 531,-0"/>
<text text-anchor="middle" x="583" y="-7" style="font-family:Arial;font-size:10.00;">S2Sim/main.cpp</text>
</a>
</g>
<!-- Node4&#45;&gt;Node11 -->
<g id="edge46" class="edge"><title>Node4&#45;&gt;Node11</title>
<path style="fill:none;stroke:midnightblue;" d="M372,-292C392,-283 416,-270 432,-254 459,-225 450,-208 470,-174 485,-147 490,-141 508,-116 532,-80 562,-40 575,-21"/>
<polygon style="fill:midnightblue;stroke:midnightblue;" points="370.717,-288.74 363,-296 373.56,-295.137 370.717,-288.74"/>
</g>
<!-- Node14 -->
<g id="node36" class="node"><title>Node14</title>
<a xlink:href="_connection_manager_8cpp.html" target="_top" xlink:title="S2Sim/ConnectionManager.cpp">
<polygon style="fill:white;stroke:black;" points="237,-232 237,-253 424,-253 424,-232 237,-232"/>
<text text-anchor="middle" x="330" y="-239" style="font-family:Arial;font-size:10.00;">S2Sim/ConnectionManager.cpp</text>
</a>
</g>
<!-- Node4&#45;&gt;Node14 -->
<g id="edge44" class="edge"><title>Node4&#45;&gt;Node14</title>
<path style="fill:none;stroke:midnightblue;" d="M330,-286C330,-275 330,-262 330,-253"/>
<polygon style="fill:midnightblue;stroke:midnightblue;" points="326.5,-286 330,-296 333.5,-286 326.5,-286"/>
</g>
<!-- Node5&#45;&gt;Node4 -->
<g id="edge12" class="edge"><title>Node5&#45;&gt;Node4</title>
<path style="fill:none;stroke:midnightblue;" d="M192,-256C227,-268 275,-285 304,-296"/>
<polygon style="fill:midnightblue;stroke:midnightblue;" points="192.584,-252.521 182,-253 190.573,-259.226 192.584,-252.521"/>
</g>
<!-- Node6 -->
<g id="node11" class="node"><title>Node6</title>
<a xlink:href="_client_manager_8cpp.html" target="_top" xlink:title="S2Sim/ClientManager.cpp">
<polygon style="fill:white;stroke:black;" points="66,-174 66,-195 222,-195 222,-174 66,-174"/>
<text text-anchor="middle" x="144" y="-181" style="font-family:Arial;font-size:10.00;">S2Sim/ClientManager.cpp</text>
</a>
</g>
<!-- Node5&#45;&gt;Node6 -->
<g id="edge10" class="edge"><title>Node5&#45;&gt;Node6</title>
<path style="fill:none;stroke:midnightblue;" d="M146,-222C146,-212 145,-202 145,-195"/>
<polygon style="fill:midnightblue;stroke:midnightblue;" points="142.522,-222.398 147,-232 149.488,-221.701 142.522,-222.398"/>
</g>
<!-- Node7 -->
<g id="node14" class="node"><title>Node7</title>
<a xlink:href="_system_manager_8h.html" target="_top" xlink:title="S2Sim/SystemManager.h">
<polygon style="fill:white;stroke:black;" points="273,-116 273,-137 424,-137 424,-116 273,-116"/>
<text text-anchor="middle" x="348" y="-123" style="font-family:Arial;font-size:10.00;">S2Sim/SystemManager.h</text>
</a>
</g>
<!-- Node5&#45;&gt;Node7 -->
<g id="edge14" class="edge"><title>Node5&#45;&gt;Node7</title>
<path style="fill:none;stroke:midnightblue;" d="M185,-228C206,-220 233,-209 255,-196 284,-179 313,-152 332,-137"/>
<polygon style="fill:midnightblue;stroke:midnightblue;" points="182.985,-225.036 175,-232 185.585,-231.536 182.985,-225.036"/>
</g>
<!-- Node5&#45;&gt;Node9 -->
<g id="edge40" class="edge"><title>Node5&#45;&gt;Node9</title>
<path style="fill:none;stroke:midnightblue;" d="M230,-231C305,-221 413,-206 484,-195"/>
<polygon style="fill:midnightblue;stroke:midnightblue;" points="229.119,-227.607 220,-233 230.492,-234.471 229.119,-227.607"/>
</g>
<!-- Node7&#45;&gt;Node5 -->
<g id="edge36" class="edge"><title>Node7&#45;&gt;Node5</title>
<path style="fill:none;stroke:midnightblue;" d="M336,-145C322,-160 297,-182 273,-196 247,-211 215,-224 190,-232"/>
<polygon style="fill:midnightblue;stroke:midnightblue;" points="339.049,-146.831 343,-137 333.781,-142.221 339.049,-146.831"/>
</g>
<!-- Node7&#45;&gt;Node8 -->
<g id="edge16" class="edge"><title>Node7&#45;&gt;Node8</title>
<path style="fill:none;stroke:midnightblue;" d="M299,-113C266,-102 225,-88 199,-79"/>
<polygon style="fill:midnightblue;stroke:midnightblue;" points="298.416,-116.479 309,-116 300.427,-109.774 298.416,-116.479"/>
</g>
<!-- Node7&#45;&gt;Node9 -->
<g id="edge34" class="edge"><title>Node7&#45;&gt;Node9</title>
<path style="fill:none;stroke:midnightblue;" d="M399,-140C436,-150 487,-164 520,-174"/>
<polygon style="fill:midnightblue;stroke:midnightblue;" points="399.584,-136.521 389,-137 397.573,-143.226 399.584,-136.521"/>
</g>
<!-- Node13 -->
<g id="node32" class="node"><title>Node13</title>
<a xlink:href="_system_manager_8cpp.html" target="_top" xlink:title="S2Sim/SystemManager.cpp">
<polygon style="fill:white;stroke:black;" points="266,-58 266,-79 430,-79 430,-58 266,-58"/>
<text text-anchor="middle" x="348" y="-65" style="font-family:Arial;font-size:10.00;">S2Sim/SystemManager.cpp</text>
</a>
</g>
<!-- Node7&#45;&gt;Node13 -->
<g id="edge38" class="edge"><title>Node7&#45;&gt;Node13</title>
<path style="fill:none;stroke:midnightblue;" d="M348,-106C348,-96 348,-86 348,-79"/>
<polygon style="fill:midnightblue;stroke:midnightblue;" points="344.5,-106 348,-116 351.5,-106 344.5,-106"/>
</g>
<!-- Node8&#45;&gt;Node5 -->
<g id="edge18" class="edge"><title>Node8&#45;&gt;Node5</title>
<path style="fill:none;stroke:midnightblue;" d="M192,-86C217,-111 253,-158 231,-196 221,-213 201,-225 184,-232"/>
<polygon style="fill:midnightblue;stroke:midnightblue;" points="194.546,-83.5962 185,-79 189.596,-88.546 194.546,-83.5962"/>
</g>
<!-- Node8&#45;&gt;Node7 -->
<g id="edge20" class="edge"><title>Node8&#45;&gt;Node7</title>
<path style="fill:none;stroke:midnightblue;" d="M219,-82C251,-92 293,-106 320,-116"/>
<polygon style="fill:midnightblue;stroke:midnightblue;" points="219.584,-78.5212 209,-79 217.573,-85.2259 219.584,-78.5212"/>
</g>
<!-- Node8&#45;&gt;Node9 -->
<g id="edge22" class="edge"><title>Node8&#45;&gt;Node9</title>
<path style="fill:none;stroke:midnightblue;" d="M254,-81C317,-91 400,-105 432,-116 472,-131 516,-158 538,-174"/>
<polygon style="fill:midnightblue;stroke:midnightblue;" points="254.492,-77.5292 244,-79 253.119,-84.3933 254.492,-77.5292"/>
</g>
<!-- Node8&#45;&gt;Node11 -->
<g id="edge30" class="edge"><title>Node8&#45;&gt;Node11</title>
<path style="fill:none;stroke:midnightblue;" d="M258,-57C340,-46 462,-29 531,-18"/>
<polygon style="fill:midnightblue;stroke:midnightblue;" points="257.602,-53.5222 248,-58 258.299,-60.4875 257.602,-53.5222"/>
</g>
<!-- Node12 -->
<g id="node28" class="node"><title>Node12</title>
<a xlink:href="_matlab_manager_8cpp.html" target="_top" xlink:title="S2Sim/MatlabManager.cpp">
<polygon style="fill:white;stroke:black;" points="94,-0 94,-21 255,-21 255,-0 94,-0"/>
<text text-anchor="middle" x="174" y="-7" style="font-family:Arial;font-size:10.00;">S2Sim/MatlabManager.cpp</text>
</a>
</g>
<!-- Node8&#45;&gt;Node12 -->
<g id="edge32" class="edge"><title>Node8&#45;&gt;Node12</title>
<path style="fill:none;stroke:midnightblue;" d="M174,-48C174,-38 174,-28 174,-21"/>
<polygon style="fill:midnightblue;stroke:midnightblue;" points="170.5,-48 174,-58 177.5,-48 170.5,-48"/>
</g>
<!-- Node9&#45;&gt;Node7 -->
<g id="edge24" class="edge"><title>Node9&#45;&gt;Node7</title>
<path style="fill:none;stroke:midnightblue;" d="M499,-171C461,-160 410,-146 379,-137"/>
<polygon style="fill:midnightblue;stroke:midnightblue;" points="498.416,-174.479 509,-174 500.427,-167.774 498.416,-174.479"/>
</g>
<!-- Node10 -->
<g id="node23" class="node"><title>Node10</title>
<a xlink:href="_control_manager_8cpp.html" target="_top" xlink:title="S2Sim/ControlManager.cpp">
<polygon style="fill:white;stroke:black;" points="517,-116 517,-137 681,-137 681,-116 517,-116"/>
<text text-anchor="middle" x="599" y="-123" style="font-family:Arial;font-size:10.00;">S2Sim/ControlManager.cpp</text>
</a>
</g>
<!-- Node9&#45;&gt;Node10 -->
<g id="edge26" class="edge"><title>Node9&#45;&gt;Node10</title>
<path style="fill:none;stroke:midnightblue;" d="M569,-166C576,-156 585,-145 591,-137"/>
<polygon style="fill:midnightblue;stroke:midnightblue;" points="566.2,-163.9 563,-174 571.8,-168.1 566.2,-163.9"/>
</g>
<!-- Node9&#45;&gt;Node11 -->
<g id="edge28" class="edge"><title>Node9&#45;&gt;Node11</title>
<path style="fill:none;stroke:midnightblue;" d="M615,-171C646,-163 680,-151 690,-138 722,-91 643,-42 603,-21"/>
<polygon style="fill:midnightblue;stroke:midnightblue;" points="613.573,-167.774 605,-174 615.584,-174.479 613.573,-167.774"/>
</g>
<!-- Node15&#45;&gt;Node11 -->
<g id="edge56" class="edge"><title>Node15&#45;&gt;Node11</title>
<path style="fill:none;stroke:midnightblue;" d="M697,-424C709,-416 720,-406 728,-394 749,-360 747,-346 747,-307 747,-307 747,-307 747,-127 747,-67 674,-36 626,-21"/>
<polygon style="fill:midnightblue;stroke:midnightblue;" points="694.379,-421.541 688,-430 698.262,-427.365 694.379,-421.541"/>
</g>
<!-- Node16 -->
<g id="node45" class="node"><title>Node16</title>
<a xlink:href="_t_c_p_server_8cpp.html" target="_top" xlink:title="S2Sim/SocketLibrary\l/TCPServer.cpp">
<polygon style="fill:white;stroke:black;" points="593,-360 593,-394 720,-394 720,-360 593,-360"/>
<text text-anchor="start" x="601" y="-380" style="font-family:Arial;font-size:10.00;">S2Sim/SocketLibrary</text>
<text text-anchor="middle" x="656" y="-367" style="font-family:Arial;font-size:10.00;">/TCPServer.cpp</text>
</a>
</g>
<!-- Node15&#45;&gt;Node16 -->
<g id="edge58" class="edge"><title>Node15&#45;&gt;Node16</title>
<path style="fill:none;stroke:midnightblue;" d="M656,-420C656,-411 656,-402 656,-394"/>
<polygon style="fill:midnightblue;stroke:midnightblue;" points="652.5,-420 656,-430 659.5,-420 652.5,-420"/>
</g>
<!-- Node15&#45;&gt;Node17 -->
<g id="edge60" class="edge"><title>Node15&#45;&gt;Node17</title>
<path style="fill:none;stroke:midnightblue;" d="M595,-427C564,-416 526,-404 497,-394"/>
<polygon style="fill:midnightblue;stroke:midnightblue;" points="594.416,-430.479 605,-430 596.427,-423.774 594.416,-430.479"/>
</g>
<!-- Node17&#45;&gt;Node4 -->
<g id="edge62" class="edge"><title>Node17&#45;&gt;Node4</title>
<path style="fill:none;stroke:midnightblue;" d="M408,-355C388,-342 363,-327 347,-317"/>
<polygon style="fill:midnightblue;stroke:midnightblue;" points="406.559,-358.203 417,-360 409.958,-352.084 406.559,-358.203"/>
</g>
<!-- Node17&#45;&gt;Node8 -->
<g id="edge64" class="edge"><title>Node17&#45;&gt;Node8</title>
<path style="fill:none;stroke:midnightblue;" d="M366,-368C248,-351 38,-311 38,-243 38,-243 38,-243 38,-185 38,-129 104,-95 144,-79"/>
<polygon style="fill:midnightblue;stroke:midnightblue;" points="365.701,-371.488 376,-369 366.398,-364.522 365.701,-371.488"/>
</g>
<!-- Node17&#45;&gt;Node9 -->
<g id="edge66" class="edge"><title>Node17&#45;&gt;Node9</title>
<path style="fill:none;stroke:midnightblue;" d="M447,-350C450,-332 455,-308 464,-290 469,-279 523,-219 545,-195"/>
<polygon style="fill:midnightblue;stroke:midnightblue;" points="443.512,-349.701 446,-360 450.478,-350.398 443.512,-349.701"/>
</g>
<!-- Node18 -->
<g id="node52" class="node"><title>Node18</title>
<a xlink:href="_threaded_t_c_p_server_8cpp.html" target="_top" xlink:title="S2Sim/SocketLibrary\l/ThreadedTCPServer.cpp">
<polygon style="fill:white;stroke:black;" points="473,-290 473,-324 624,-324 624,-290 473,-290"/>
<text text-anchor="start" x="481" y="-310" style="font-family:Arial;font-size:10.00;">S2Sim/SocketLibrary</text>
<text text-anchor="middle" x="548" y="-297" style="font-family:Arial;font-size:10.00;">/ThreadedTCPServer.cpp</text>
</a>
</g>
<!-- Node17&#45;&gt;Node18 -->
<g id="edge68" class="edge"><title>Node17&#45;&gt;Node18</title>
<path style="fill:none;stroke:midnightblue;" d="M479,-354C493,-344 510,-333 523,-324"/>
<polygon style="fill:midnightblue;stroke:midnightblue;" points="476.379,-351.541 470,-360 480.262,-357.365 476.379,-351.541"/>
</g>
</g>
</svg>
