<?xml version="1.0" encoding="UTF-8" standalone="no"?>
<!DOCTYPE svg PUBLIC "-//W3C//DTD SVG 1.0//EN"
 "http://www.w3.org/TR/2001/REC-SVG-20010904/DTD/svg10.dtd" [
 <!ATTLIST svg xmlns:xlink CDATA #FIXED "http://www.w3.org/1999/xlink">
]>
<!-- Generated by Graphviz version 2.14.1 (Fri Nov  9 08:19:38 GMT 2007)
     For user: (asakyurek) Alper Sinan Akyurek -->
<!-- Title: S2Sim/SocketLibrary/TCPServer.h Pages: 1 -->
<svg width="675pt" height="472pt"
 viewBox="0.00 0.00 675.00 472.00" xmlns="http://www.w3.org/2000/svg" xmlns:xlink="http://www.w3.org/1999/xlink">
<g id="graph0" class="graph" transform="scale(1 1) rotate(0) translate(4 468)">
<title>S2Sim/SocketLibrary/TCPServer.h</title>
<polygon style="fill:white;stroke:white;" points="-4,4 -4,-468 671,-468 671,4 -4,4"/>
<!-- Node1 -->
<g id="node1" class="node"><title>Node1</title>
<polygon style="fill:#bfbfbf;stroke:black;" points="236,-430 236,-464 363,-464 363,-430 236,-430"/>
<text text-anchor="start" x="244" y="-450" style="font-family:Arial;font-size:10.00;">S2Sim/SocketLibrary</text>
<text text-anchor="middle" x="299" y="-437" style="font-family:Arial;font-size:10.00;">/TCPServer.h</text>
</g>
<!-- Node2 -->
<g id="node3" class="node"><title>Node2</title>
<a xlink:href="main_8cpp.html" target="_top" xlink:title="S2Sim/main.cpp">
<polygon style="fill:white;stroke:black;" points="132,-0 132,-21 236,-21 236,-0 132,-0"/>
<text text-anchor="middle" x="184" y="-7" style="font-family:Arial;font-size:10.00;">S2Sim/main.cpp</text>
</a>
</g>
<!-- Node1&#45;&gt;Node2 -->
<g id="edge2" class="edge"><title>Node1&#45;&gt;Node2</title>
<path style="fill:none;stroke:midnightblue;" d="M226,-428C137,-403 0,-356 0,-307 0,-307 0,-307 0,-127 0,-64 77,-34 132,-21"/>
<polygon style="fill:midnightblue;stroke:midnightblue;" points="225.416,-431.479 236,-431 227.427,-424.774 225.416,-431.479"/>
</g>
<!-- Node3 -->
<g id="node5" class="node"><title>Node3</title>
<a xlink:href="_t_c_p_server_8cpp.html" target="_top" xlink:title="S2Sim/SocketLibrary\l/TCPServer.cpp">
<polygon style="fill:white;stroke:black;" points="386,-360 386,-394 513,-394 513,-360 386,-360"/>
<text text-anchor="start" x="394" y="-380" style="font-family:Arial;font-size:10.00;">S2Sim/SocketLibrary</text>
<text text-anchor="middle" x="449" y="-367" style="font-family:Arial;font-size:10.00;">/TCPServer.cpp</text>
</a>
</g>
<!-- Node1&#45;&gt;Node3 -->
<g id="edge4" class="edge"><title>Node1&#45;&gt;Node3</title>
<path style="fill:none;stroke:midnightblue;" d="M345,-426C367,-415 392,-404 412,-394"/>
<polygon style="fill:midnightblue;stroke:midnightblue;" points="343.717,-422.74 336,-430 346.56,-429.137 343.717,-422.74"/>
</g>
<!-- Node4 -->
<g id="node7" class="node"><title>Node4</title>
<a xlink:href="_threaded_t_c_p_server_8h.html" target="_top" xlink:title="S2Sim/SocketLibrary\l/ThreadedTCPServer.h">
<polygon style="fill:white;stroke:black;" points="230,-360 230,-394 368,-394 368,-360 230,-360"/>
<text text-anchor="start" x="238" y="-380" style="font-family:Arial;font-size:10.00;">S2Sim/SocketLibrary</text>
<text text-anchor="middle" x="299" y="-367" style="font-family:Arial;font-size:10.00;">/ThreadedTCPServer.h</text>
</a>
</g>
<!-- Node1&#45;&gt;Node4 -->
<g id="edge6" class="edge"><title>Node1&#45;&gt;Node4</title>
<path style="fill:none;stroke:midnightblue;" d="M299,-420C299,-411 299,-402 299,-394"/>
<polygon style="fill:midnightblue;stroke:midnightblue;" points="295.5,-420 299,-430 302.5,-420 295.5,-420"/>
</g>
<!-- Node5 -->
<g id="node9" class="node"><title>Node5</title>
<a xlink:href="_connection_manager_8h.html" target="_top" xlink:title="S2Sim/ConnectionManager.h">
<polygon style="fill:white;stroke:black;" points="212,-296 212,-317 386,-317 386,-296 212,-296"/>
<text text-anchor="middle" x="299" y="-303" style="font-family:Arial;font-size:10.00;">S2Sim/ConnectionManager.h</text>
</a>
</g>
<!-- Node4&#45;&gt;Node5 -->
<g id="edge8" class="edge"><title>Node4&#45;&gt;Node5</title>
<path style="fill:none;stroke:midnightblue;" d="M299,-350C299,-339 299,-326 299,-317"/>
<polygon style="fill:midnightblue;stroke:midnightblue;" points="295.5,-350 299,-360 302.5,-350 295.5,-350"/>
</g>
<!-- Node9 -->
<g id="node18" class="node"><title>Node9</title>
<a xlink:href="_matlab_manager_8h.html" target="_top" xlink:title="S2Sim/MatlabManager.h">
<polygon style="fill:white;stroke:black;" points="452,-58 452,-79 600,-79 600,-58 452,-58"/>
<text text-anchor="middle" x="526" y="-65" style="font-family:Arial;font-size:10.00;">S2Sim/MatlabManager.h</text>
</a>
</g>
<!-- Node4&#45;&gt;Node9 -->
<g id="edge50" class="edge"><title>Node4&#45;&gt;Node9</title>
<path style="fill:none;stroke:midnightblue;" d="M378,-360C520,-333 667,-378 667,-243 667,-243 667,-243 667,-185 667,-128 600,-95 558,-79"/>
<polygon style="fill:midnightblue;stroke:midnightblue;" points="377.119,-356.607 368,-362 378.492,-363.471 377.119,-356.607"/>
</g>
<!-- Node10 -->
<g id="node22" class="node"><title>Node10</title>
<a xlink:href="_control_manager_8h.html" target="_top" xlink:title="S2Sim/ControlManager.h">
<polygon style="fill:white;stroke:black;" points="207,-174 207,-195 358,-195 358,-174 207,-174"/>
<text text-anchor="middle" x="282" y="-181" style="font-family:Arial;font-size:10.00;">S2Sim/ControlManager.h</text>
</a>
</g>
<!-- Node4&#45;&gt;Node10 -->
<g id="edge52" class="edge"><title>Node4&#45;&gt;Node10</title>
<path style="fill:none;stroke:midnightblue;" d="M220,-362C131,-340 4,-297 57,-232 76,-209 149,-197 207,-191"/>
<polygon style="fill:midnightblue;stroke:midnightblue;" points="219.508,-365.471 230,-364 220.881,-358.607 219.508,-365.471"/>
</g>
<!-- Node15 -->
<g id="node42" class="node"><title>Node15</title>
<a xlink:href="_threaded_t_c_p_server_8cpp.html" target="_top" xlink:title="S2Sim/SocketLibrary\l/ThreadedTCPServer.cpp">
<polygon style="fill:white;stroke:black;" points="404,-290 404,-324 555,-324 555,-290 404,-290"/>
<text text-anchor="start" x="412" y="-310" style="font-family:Arial;font-size:10.00;">S2Sim/SocketLibrary</text>
<text text-anchor="middle" x="479" y="-297" style="font-family:Arial;font-size:10.00;">/ThreadedTCPServer.cpp</text>
</a>
</g>
<!-- Node4&#45;&gt;Node15 -->
<g id="edge54" class="edge"><title>Node4&#45;&gt;Node15</title>
<path style="fill:none;stroke:midnightblue;" d="M352,-356C379,-346 410,-334 435,-324"/>
<polygon style="fill:midnightblue;stroke:midnightblue;" points="350.717,-352.74 343,-360 353.56,-359.137 350.717,-352.74"/>
</g>
<!-- Node5&#45;&gt;Node2 -->
<g id="edge48" class="edge"><title>Node5&#45;&gt;Node2</title>
<path style="fill:none;stroke:midnightblue;" d="M292,-286C286,-270 275,-248 261,-232 238,-208 215,-223 198,-196 161,-139 175,-51 182,-21"/>
<polygon style="fill:midnightblue;stroke:midnightblue;" points="288.774,-287.427 295,-296 295.479,-285.416 288.774,-287.427"/>
</g>
<!-- Node6 -->
<g id="node11" class="node"><title>Node6</title>
<a xlink:href="_client_manager_8h.html" target="_top" xlink:title="S2Sim/ClientManager.h">
<polygon style="fill:white;stroke:black;" points="382,-232 382,-253 525,-253 525,-232 382,-232"/>
<text text-anchor="middle" x="453" y="-239" style="font-family:Arial;font-size:10.00;">S2Sim/ClientManager.h</text>
</a>
</g>
<!-- Node5&#45;&gt;Node6 -->
<g id="edge10" class="edge"><title>Node5&#45;&gt;Node6</title>
<path style="fill:none;stroke:midnightblue;" d="M329,-292C357,-280 396,-264 424,-253"/>
<polygon style="fill:midnightblue;stroke:midnightblue;" points="327.717,-288.74 320,-296 330.56,-295.137 327.717,-288.74"/>
</g>
<!-- Node5&#45;&gt;Node10 -->
<g id="edge44" class="edge"><title>Node5&#45;&gt;Node10</title>
<path style="fill:none;stroke:midnightblue;" d="M298,-286C298,-271 296,-250 294,-232 292,-219 288,-204 285,-195"/>
<polygon style="fill:midnightblue;stroke:midnightblue;" points="294.522,-286.398 299,-296 301.488,-285.701 294.522,-286.398"/>
</g>
<!-- Node14 -->
<g id="node37" class="node"><title>Node14</title>
<a xlink:href="_connection_manager_8cpp.html" target="_top" xlink:title="S2Sim/ConnectionManager.cpp">
<polygon style="fill:white;stroke:black;" points="66,-232 66,-253 253,-253 253,-232 66,-232"/>
<text text-anchor="middle" x="159" y="-239" style="font-family:Arial;font-size:10.00;">S2Sim/ConnectionManager.cpp</text>
</a>
</g>
<!-- Node5&#45;&gt;Node14 -->
<g id="edge46" class="edge"><title>Node5&#45;&gt;Node14</title>
<path style="fill:none;stroke:midnightblue;" d="M266,-292C240,-280 203,-264 181,-253"/>
<polygon style="fill:midnightblue;stroke:midnightblue;" points="264.44,-295.137 275,-296 267.283,-288.74 264.44,-295.137"/>
</g>
<!-- Node6&#45;&gt;Node5 -->
<g id="edge14" class="edge"><title>Node6&#45;&gt;Node5</title>
<path style="fill:none;stroke:midnightblue;" d="M425,-257C398,-269 359,-285 331,-296"/>
<polygon style="fill:midnightblue;stroke:midnightblue;" points="426.283,-260.26 434,-253 423.44,-253.863 426.283,-260.26"/>
</g>
<!-- Node7 -->
<g id="node13" class="node"><title>Node7</title>
<a xlink:href="_client_manager_8cpp.html" target="_top" xlink:title="S2Sim/ClientManager.cpp">
<polygon style="fill:white;stroke:black;" points="375,-174 375,-195 531,-195 531,-174 375,-174"/>
<text text-anchor="middle" x="453" y="-181" style="font-family:Arial;font-size:10.00;">S2Sim/ClientManager.cpp</text>
</a>
</g>
<!-- Node6&#45;&gt;Node7 -->
<g id="edge12" class="edge"><title>Node6&#45;&gt;Node7</title>
<path style="fill:none;stroke:midnightblue;" d="M453,-222C453,-212 453,-202 453,-195"/>
<polygon style="fill:midnightblue;stroke:midnightblue;" points="449.5,-222 453,-232 456.5,-222 449.5,-222"/>
</g>
<!-- Node8 -->
<g id="node16" class="node"><title>Node8</title>
<a xlink:href="_system_manager_8h.html" target="_top" xlink:title="S2Sim/SystemManager.h">
<polygon style="fill:white;stroke:black;" points="451,-116 451,-137 602,-137 602,-116 451,-116"/>
<text text-anchor="middle" x="526" y="-123" style="font-family:Arial;font-size:10.00;">S2Sim/SystemManager.h</text>
</a>
</g>
<!-- Node6&#45;&gt;Node8 -->
<g id="edge16" class="edge"><title>Node6&#45;&gt;Node8</title>
<path style="fill:none;stroke:midnightblue;" d="M492,-228C507,-221 522,-210 531,-196 542,-177 531,-151 526,-137"/>
<polygon style="fill:midnightblue;stroke:midnightblue;" points="490.717,-224.74 483,-232 493.56,-231.137 490.717,-224.74"/>
</g>
<!-- Node6&#45;&gt;Node10 -->
<g id="edge42" class="edge"><title>Node6&#45;&gt;Node10</title>
<path style="fill:none;stroke:midnightblue;" d="M410,-229C380,-218 339,-204 312,-195"/>
<polygon style="fill:midnightblue;stroke:midnightblue;" points="409.416,-232.479 420,-232 411.427,-225.774 409.416,-232.479"/>
</g>
<!-- Node8&#45;&gt;Node6 -->
<g id="edge38" class="edge"><title>Node8&#45;&gt;Node6</title>
<path style="fill:none;stroke:midnightblue;" d="M544,-146C552,-160 558,-180 549,-196 538,-213 518,-225 500,-232"/>
<polygon style="fill:midnightblue;stroke:midnightblue;" points="546.459,-143.379 538,-137 540.635,-147.262 546.459,-143.379"/>
</g>
<!-- Node8&#45;&gt;Node9 -->
<g id="edge18" class="edge"><title>Node8&#45;&gt;Node9</title>
<path style="fill:none;stroke:midnightblue;" d="M520,-106C519,-96 520,-86 521,-79"/>
<polygon style="fill:midnightblue;stroke:midnightblue;" points="516.522,-106.398 521,-116 523.488,-105.701 516.522,-106.398"/>
</g>
<!-- Node8&#45;&gt;Node10 -->
<g id="edge36" class="edge"><title>Node8&#45;&gt;Node10</title>
<path style="fill:none;stroke:midnightblue;" d="M479,-139C438,-149 377,-164 334,-174"/>
<polygon style="fill:midnightblue;stroke:midnightblue;" points="479.881,-142.393 489,-137 478.508,-135.529 479.881,-142.393"/>
</g>
<!-- Node13 -->
<g id="node33" class="node"><title>Node13</title>
<a xlink:href="_system_manager_8cpp.html" target="_top" xlink:title="S2Sim/SystemManager.cpp">
<polygon style="fill:white;stroke:black;" points="270,-58 270,-79 434,-79 434,-58 270,-58"/>
<text text-anchor="middle" x="352" y="-65" style="font-family:Arial;font-size:10.00;">S2Sim/SystemManager.cpp</text>
</a>
</g>
<!-- Node8&#45;&gt;Node13 -->
<g id="edge40" class="edge"><title>Node8&#45;&gt;Node13</title>
<path style="fill:none;stroke:midnightblue;" d="M483,-113C452,-102 410,-88 382,-79"/>
<polygon style="fill:midnightblue;stroke:midnightblue;" points="482.416,-116.479 493,-116 484.427,-109.774 482.416,-116.479"/>
</g>
<!-- Node9&#45;&gt;Node2 -->
<g id="edge32" class="edge"><title>Node9&#45;&gt;Node2</title>
<path style="fill:none;stroke:midnightblue;" d="M451,-56C386,-45 293,-29 236,-20"/>
<polygon style="fill:midnightblue;stroke:midnightblue;" points="450.508,-59.4708 461,-58 451.881,-52.6067 450.508,-59.4708"/>
</g>
<!-- Node9&#45;&gt;Node6 -->
<g id="edge20" class="edge"><title>Node9&#45;&gt;Node6</title>
<path style="fill:none;stroke:midnightblue;" d="M570,-83C586,-90 601,-101 610,-116 614,-124 613,-128 610,-138 591,-189 531,-218 491,-232"/>
<polygon style="fill:midnightblue;stroke:midnightblue;" points="571.56,-79.8631 561,-79 568.717,-86.2598 571.56,-79.8631"/>
</g>
<!-- Node9&#45;&gt;Node8 -->
<g id="edge22" class="edge"><title>Node9&#45;&gt;Node8</title>
<path style="fill:none;stroke:midnightblue;" d="M532,-89C533,-98 532,-108 531,-116"/>
<polygon style="fill:midnightblue;stroke:midnightblue;" points="535.478,-88.6021 531,-79 528.512,-89.2987 535.478,-88.6021"/>
</g>
<!-- Node9&#45;&gt;Node10 -->
<g id="edge24" class="edge"><title>Node9&#45;&gt;Node10</title>
<path style="fill:none;stroke:midnightblue;" d="M498,-84C482,-93 460,-105 442,-116 425,-125 421,-129 404,-138 374,-152 339,-165 315,-174"/>
<polygon style="fill:midnightblue;stroke:midnightblue;" points="499.958,-86.916 507,-79 496.559,-80.7969 499.958,-86.916"/>
</g>
<!-- Node12 -->
<g id="node29" class="node"><title>Node12</title>
<a xlink:href="_matlab_manager_8cpp.html" target="_top" xlink:title="S2Sim/MatlabManager.cpp">
<polygon style="fill:white;stroke:black;" points="446,-0 446,-21 607,-21 607,-0 446,-0"/>
<text text-anchor="middle" x="526" y="-7" style="font-family:Arial;font-size:10.00;">S2Sim/MatlabManager.cpp</text>
</a>
</g>
<!-- Node9&#45;&gt;Node12 -->
<g id="edge34" class="edge"><title>Node9&#45;&gt;Node12</title>
<path style="fill:none;stroke:midnightblue;" d="M526,-48C526,-38 526,-28 526,-21"/>
<polygon style="fill:midnightblue;stroke:midnightblue;" points="522.5,-48 526,-58 529.5,-48 522.5,-48"/>
</g>
<!-- Node10&#45;&gt;Node2 -->
<g id="edge30" class="edge"><title>Node10&#45;&gt;Node2</title>
<path style="fill:none;stroke:midnightblue;" d="M255,-168C243,-160 230,-150 222,-138 195,-100 187,-44 185,-21"/>
<polygon style="fill:midnightblue;stroke:midnightblue;" points="252.9,-170.8 263,-174 257.1,-165.2 252.9,-170.8"/>
</g>
<!-- Node10&#45;&gt;Node8 -->
<g id="edge26" class="edge"><title>Node10&#45;&gt;Node8</title>
<path style="fill:none;stroke:midnightblue;" d="M333,-171C376,-161 436,-146 479,-137"/>
<polygon style="fill:midnightblue;stroke:midnightblue;" points="331.573,-167.774 323,-174 333.584,-174.479 331.573,-167.774"/>
</g>
<!-- Node11 -->
<g id="node25" class="node"><title>Node11</title>
<a xlink:href="_control_manager_8cpp.html" target="_top" xlink:title="S2Sim/ControlManager.cpp">
<polygon style="fill:white;stroke:black;" points="231,-116 231,-137 395,-137 395,-116 231,-116"/>
<text text-anchor="middle" x="313" y="-123" style="font-family:Arial;font-size:10.00;">S2Sim/ControlManager.cpp</text>
</a>
</g>
<!-- Node10&#45;&gt;Node11 -->
<g id="edge28" class="edge"><title>Node10&#45;&gt;Node11</title>
<path style="fill:none;stroke:midnightblue;" d="M293,-165C298,-155 304,-145 308,-137"/>
<polygon style="fill:midnightblue;stroke:midnightblue;" points="289.797,-163.559 288,-174 295.916,-166.958 289.797,-163.559"/>
</g>
</g>
</svg>
