<?xml version="1.0" encoding="UTF-8" standalone="no"?>
<!DOCTYPE svg PUBLIC "-//W3C//DTD SVG 1.0//EN"
 "http://www.w3.org/TR/2001/REC-SVG-20010904/DTD/svg10.dtd" [
 <!ATTLIST svg xmlns:xlink CDATA #FIXED "http://www.w3.org/1999/xlink">
]>
<!-- Generated by Graphviz version 2.14.1 (Fri Nov  9 08:19:38 GMT 2007)
     For user: (asakyurek) Alper Sinan Akyurek -->
<!-- Title: S2Sim/ThreadLibrary/ThreadBase.h Pages: 1 -->
<svg width="1058pt" height="612pt"
 viewBox="0.00 0.00 1058.00 612.00" xmlns="http://www.w3.org/2000/svg" xmlns:xlink="http://www.w3.org/1999/xlink">
<g id="graph0" class="graph" transform="scale(1 1) rotate(0) translate(4 608)">
<title>S2Sim/ThreadLibrary/ThreadBase.h</title>
<polygon style="fill:white;stroke:white;" points="-4,4 -4,-608 1054,-608 1054,4 -4,4"/>
<!-- Node1 -->
<g id="node1" class="node"><title>Node1</title>
<polygon style="fill:#bfbfbf;stroke:black;" points="587,-570 587,-604 716,-604 716,-570 587,-570"/>
<text text-anchor="start" x="595" y="-590" style="font-family:Arial;font-size:10.00;">S2Sim/ThreadLibrary</text>
<text text-anchor="middle" x="651" y="-577" style="font-family:Arial;font-size:10.00;">/ThreadBase.h</text>
</g>
<!-- Node2 -->
<g id="node3" class="node"><title>Node2</title>
<a xlink:href="_threaded_t_c_p_connected_client_8h.html" target="_top" xlink:title="S2Sim/SocketLibrary\l/ThreadedTCPConnectedClient.h">
<polygon style="fill:white;stroke:black;" points="372,-500 372,-534 567,-534 567,-500 372,-500"/>
<text text-anchor="start" x="380" y="-520" style="font-family:Arial;font-size:10.00;">S2Sim/SocketLibrary</text>
<text text-anchor="middle" x="469" y="-507" style="font-family:Arial;font-size:10.00;">/ThreadedTCPConnectedClient.h</text>
</a>
</g>
<!-- Node1&#45;&gt;Node2 -->
<g id="edge2" class="edge"><title>Node1&#45;&gt;Node2</title>
<path style="fill:none;stroke:midnightblue;" d="M597,-566C570,-556 539,-544 513,-534"/>
<polygon style="fill:midnightblue;stroke:midnightblue;" points="595.44,-569.137 606,-570 598.283,-562.74 595.44,-569.137"/>
</g>
<!-- Node16 -->
<g id="node45" class="node"><title>Node16</title>
<a xlink:href="_threaded_t_c_p_server_8h.html" target="_top" xlink:title="S2Sim/SocketLibrary\l/ThreadedTCPServer.h">
<polygon style="fill:white;stroke:black;" points="181,-360 181,-394 319,-394 319,-360 181,-360"/>
<text text-anchor="start" x="189" y="-380" style="font-family:Arial;font-size:10.00;">S2Sim/SocketLibrary</text>
<text text-anchor="middle" x="250" y="-367" style="font-family:Arial;font-size:10.00;">/ThreadedTCPServer.h</text>
</a>
</g>
<!-- Node1&#45;&gt;Node16 -->
<g id="edge76" class="edge"><title>Node1&#45;&gt;Node16</title>
<path style="fill:none;stroke:midnightblue;" d="M577,-580C503,-571 397,-556 363,-534 335,-516 282,-431 260,-394"/>
<polygon style="fill:midnightblue;stroke:midnightblue;" points="576.701,-583.488 587,-581 577.398,-576.522 576.701,-583.488"/>
</g>
<!-- Node19 -->
<g id="node55" class="node"><title>Node19</title>
<a xlink:href="_threaded_t_c_p_client_8h.html" target="_top" xlink:title="S2Sim/SocketLibrary\l/ThreadedTCPClient.h">
<polygon style="fill:white;stroke:black;" points="584,-500 584,-534 719,-534 719,-500 584,-500"/>
<text text-anchor="start" x="592" y="-520" style="font-family:Arial;font-size:10.00;">S2Sim/SocketLibrary</text>
<text text-anchor="middle" x="651" y="-507" style="font-family:Arial;font-size:10.00;">/ThreadedTCPClient.h</text>
</a>
</g>
<!-- Node1&#45;&gt;Node19 -->
<g id="edge72" class="edge"><title>Node1&#45;&gt;Node19</title>
<path style="fill:none;stroke:midnightblue;" d="M651,-560C651,-551 651,-542 651,-534"/>
<polygon style="fill:midnightblue;stroke:midnightblue;" points="647.5,-560 651,-570 654.5,-560 647.5,-560"/>
</g>
<!-- Node21 -->
<g id="node60" class="node"><title>Node21</title>
<a xlink:href="test_8cpp.html" target="_top" xlink:title="S2Sim/ThreadLibrary\l/test.cpp">
<polygon style="fill:white;stroke:black;" points="736,-500 736,-534 865,-534 865,-500 736,-500"/>
<text text-anchor="start" x="744" y="-520" style="font-family:Arial;font-size:10.00;">S2Sim/ThreadLibrary</text>
<text text-anchor="middle" x="800" y="-507" style="font-family:Arial;font-size:10.00;">/test.cpp</text>
</a>
</g>
<!-- Node1&#45;&gt;Node21 -->
<g id="edge78" class="edge"><title>Node1&#45;&gt;Node21</title>
<path style="fill:none;stroke:midnightblue;" d="M696,-566C718,-556 744,-544 764,-534"/>
<polygon style="fill:midnightblue;stroke:midnightblue;" points="694.717,-562.74 687,-570 697.56,-569.137 694.717,-562.74"/>
</g>
<!-- Node22 -->
<g id="node62" class="node"><title>Node22</title>
<a xlink:href="_thread_implementation_8cpp.html" target="_top" xlink:title="S2Sim/ThreadLibrary\l/ThreadImplementation.cpp">
<polygon style="fill:white;stroke:black;" points="882,-500 882,-534 1051,-534 1051,-500 882,-500"/>
<text text-anchor="start" x="890" y="-520" style="font-family:Arial;font-size:10.00;">S2Sim/ThreadLibrary</text>
<text text-anchor="middle" x="966" y="-507" style="font-family:Arial;font-size:10.00;">/ThreadImplementation.cpp</text>
</a>
</g>
<!-- Node1&#45;&gt;Node22 -->
<g id="edge80" class="edge"><title>Node1&#45;&gt;Node22</title>
<path style="fill:none;stroke:midnightblue;" d="M726,-570C776,-559 839,-545 889,-534"/>
<polygon style="fill:midnightblue;stroke:midnightblue;" points="725.119,-566.607 716,-572 726.492,-573.471 725.119,-566.607"/>
</g>
<!-- Node3 -->
<g id="node5" class="node"><title>Node3</title>
<a xlink:href="_connection_manager_8h.html" target="_top" xlink:title="S2Sim/ConnectionManager.h">
<polygon style="fill:white;stroke:black;" points="323,-296 323,-317 497,-317 497,-296 323,-296"/>
<text text-anchor="middle" x="410" y="-303" style="font-family:Arial;font-size:10.00;">S2Sim/ConnectionManager.h</text>
</a>
</g>
<!-- Node2&#45;&gt;Node3 -->
<g id="edge4" class="edge"><title>Node2&#45;&gt;Node3</title>
<path style="fill:none;stroke:midnightblue;" d="M461,-490C448,-443 421,-348 413,-317"/>
<polygon style="fill:midnightblue;stroke:midnightblue;" points="457.774,-491.427 464,-500 464.479,-489.416 457.774,-491.427"/>
</g>
<!-- Node4 -->
<g id="node7" class="node"><title>Node4</title>
<a xlink:href="_client_manager_8h.html" target="_top" xlink:title="S2Sim/ClientManager.h">
<polygon style="fill:white;stroke:black;" points="553,-232 553,-253 696,-253 696,-232 553,-232"/>
<text text-anchor="middle" x="624" y="-239" style="font-family:Arial;font-size:10.00;">S2Sim/ClientManager.h</text>
</a>
</g>
<!-- Node2&#45;&gt;Node4 -->
<g id="edge50" class="edge"><title>Node2&#45;&gt;Node4</title>
<path style="fill:none;stroke:midnightblue;" d="M569,-498C635,-485 709,-470 714,-464 769,-395 669,-287 635,-253"/>
<polygon style="fill:midnightblue;stroke:midnightblue;" points="568.119,-494.607 559,-500 569.492,-501.471 568.119,-494.607"/>
</g>
<!-- Node7 -->
<g id="node14" class="node"><title>Node7</title>
<a xlink:href="_matlab_manager_8h.html" target="_top" xlink:title="S2Sim/MatlabManager.h">
<polygon style="fill:white;stroke:black;" points="410,-58 410,-79 558,-79 558,-58 410,-58"/>
<text text-anchor="middle" x="484" y="-65" style="font-family:Arial;font-size:10.00;">S2Sim/MatlabManager.h</text>
</a>
</g>
<!-- Node2&#45;&gt;Node7 -->
<g id="edge46" class="edge"><title>Node2&#45;&gt;Node7</title>
<path style="fill:none;stroke:midnightblue;" d="M573,-498C644,-485 725,-469 732,-464 765,-437 771,-419 771,-377 771,-377 771,-377 771,-185 771,-137 732,-137 690,-116 665,-103 595,-88 544,-79"/>
<polygon style="fill:midnightblue;stroke:midnightblue;" points="572.119,-494.607 563,-500 573.492,-501.471 572.119,-494.607"/>
</g>
<!-- Node8 -->
<g id="node18" class="node"><title>Node8</title>
<a xlink:href="_control_manager_8h.html" target="_top" xlink:title="S2Sim/ControlManager.h">
<polygon style="fill:white;stroke:black;" points="325,-174 325,-195 476,-195 476,-174 325,-174"/>
<text text-anchor="middle" x="400" y="-181" style="font-family:Arial;font-size:10.00;">S2Sim/ControlManager.h</text>
</a>
</g>
<!-- Node2&#45;&gt;Node8 -->
<g id="edge48" class="edge"><title>Node2&#45;&gt;Node8</title>
<path style="fill:none;stroke:midnightblue;" d="M475,-490C484,-444 502,-355 506,-324 507,-308 508,-304 506,-290 500,-262 501,-252 483,-232 468,-215 446,-203 428,-195"/>
<polygon style="fill:midnightblue;stroke:midnightblue;" points="471.529,-489.508 473,-500 478.393,-490.881 471.529,-489.508"/>
</g>
<!-- Node14 -->
<g id="node40" class="node"><title>Node14</title>
<a xlink:href="_t_c_p_server_8h.html" target="_top" xlink:title="S2Sim/SocketLibrary\l/TCPServer.h">
<polygon style="fill:white;stroke:black;" points="142,-430 142,-464 269,-464 269,-430 142,-430"/>
<text text-anchor="start" x="150" y="-450" style="font-family:Arial;font-size:10.00;">S2Sim/SocketLibrary</text>
<text text-anchor="middle" x="205" y="-437" style="font-family:Arial;font-size:10.00;">/TCPServer.h</text>
</a>
</g>
<!-- Node2&#45;&gt;Node14 -->
<g id="edge52" class="edge"><title>Node2&#45;&gt;Node14</title>
<path style="fill:none;stroke:midnightblue;" d="M395,-497C356,-487 307,-474 269,-464"/>
<polygon style="fill:midnightblue;stroke:midnightblue;" points="394.416,-500.479 405,-500 396.427,-493.774 394.416,-500.479"/>
</g>
<!-- Node2&#45;&gt;Node16 -->
<g id="edge70" class="edge"><title>Node2&#45;&gt;Node16</title>
<path style="fill:none;stroke:midnightblue;" d="M433,-494C390,-466 316,-419 277,-394"/>
<polygon style="fill:midnightblue;stroke:midnightblue;" points="431.738,-497.365 442,-500 435.621,-491.541 431.738,-497.365"/>
</g>
<!-- Node18 -->
<g id="node52" class="node"><title>Node18</title>
<a xlink:href="_threaded_t_c_p_connected_client_8cpp.html" target="_top" xlink:title="S2Sim/SocketLibrary\l/ThreadedTCPConnectedClient.cpp">
<polygon style="fill:white;stroke:black;" points="497,-430 497,-464 705,-464 705,-430 497,-430"/>
<text text-anchor="start" x="505" y="-450" style="font-family:Arial;font-size:10.00;">S2Sim/SocketLibrary</text>
<text text-anchor="middle" x="601" y="-437" style="font-family:Arial;font-size:10.00;">/ThreadedTCPConnectedClient.cpp</text>
</a>
</g>
<!-- Node2&#45;&gt;Node18 -->
<g id="edge68" class="edge"><title>Node2&#45;&gt;Node18</title>
<path style="fill:none;stroke:midnightblue;" d="M510,-495C528,-485 551,-473 568,-464"/>
<polygon style="fill:midnightblue;stroke:midnightblue;" points="508.042,-492.084 501,-500 511.441,-498.203 508.042,-492.084"/>
</g>
<!-- Node3&#45;&gt;Node4 -->
<g id="edge6" class="edge"><title>Node3&#45;&gt;Node4</title>
<path style="fill:none;stroke:midnightblue;" d="M452,-293C490,-281 547,-264 585,-253"/>
<polygon style="fill:midnightblue;stroke:midnightblue;" points="450.573,-289.774 442,-296 452.584,-296.479 450.573,-289.774"/>
</g>
<!-- Node3&#45;&gt;Node8 -->
<g id="edge40" class="edge"><title>Node3&#45;&gt;Node8</title>
<path style="fill:none;stroke:midnightblue;" d="M438,-290C458,-276 479,-254 468,-232 459,-215 440,-203 425,-195"/>
<polygon style="fill:midnightblue;stroke:midnightblue;" points="435.379,-287.541 429,-296 439.262,-293.365 435.379,-287.541"/>
</g>
<!-- Node10 -->
<g id="node23" class="node"><title>Node10</title>
<a xlink:href="main_8cpp.html" target="_top" xlink:title="S2Sim/main.cpp">
<polygon style="fill:white;stroke:black;" points="155,-0 155,-21 259,-21 259,-0 155,-0"/>
<text text-anchor="middle" x="207" y="-7" style="font-family:Arial;font-size:10.00;">S2Sim/main.cpp</text>
</a>
</g>
<!-- Node3&#45;&gt;Node10 -->
<g id="edge44" class="edge"><title>Node3&#45;&gt;Node10</title>
<path style="fill:none;stroke:midnightblue;" d="M313,-296C246,-283 169,-253 169,-185 169,-185 169,-185 169,-127 169,-86 191,-41 201,-21"/>
<polygon style="fill:midnightblue;stroke:midnightblue;" points="312.508,-299.471 323,-298 313.881,-292.607 312.508,-299.471"/>
</g>
<!-- Node13 -->
<g id="node34" class="node"><title>Node13</title>
<a xlink:href="_connection_manager_8cpp.html" target="_top" xlink:title="S2Sim/ConnectionManager.cpp">
<polygon style="fill:white;stroke:black;" points="273,-232 273,-253 460,-253 460,-232 273,-232"/>
<text text-anchor="middle" x="366" y="-239" style="font-family:Arial;font-size:10.00;">S2Sim/ConnectionManager.cpp</text>
</a>
</g>
<!-- Node3&#45;&gt;Node13 -->
<g id="edge42" class="edge"><title>Node3&#45;&gt;Node13</title>
<path style="fill:none;stroke:midnightblue;" d="M396,-288C389,-276 379,-262 373,-253"/>
<polygon style="fill:midnightblue;stroke:midnightblue;" points="393.2,-290.1 402,-296 398.8,-285.9 393.2,-290.1"/>
</g>
<!-- Node4&#45;&gt;Node3 -->
<g id="edge10" class="edge"><title>Node4&#45;&gt;Node3</title>
<path style="fill:none;stroke:midnightblue;" d="M586,-256C548,-268 491,-285 452,-296"/>
<polygon style="fill:midnightblue;stroke:midnightblue;" points="587.427,-259.226 596,-253 585.416,-252.521 587.427,-259.226"/>
</g>
<!-- Node5 -->
<g id="node9" class="node"><title>Node5</title>
<a xlink:href="_client_manager_8cpp.html" target="_top" xlink:title="S2Sim/ClientManager.cpp">
<polygon style="fill:white;stroke:black;" points="531,-174 531,-195 687,-195 687,-174 531,-174"/>
<text text-anchor="middle" x="609" y="-181" style="font-family:Arial;font-size:10.00;">S2Sim/ClientManager.cpp</text>
</a>
</g>
<!-- Node4&#45;&gt;Node5 -->
<g id="edge8" class="edge"><title>Node4&#45;&gt;Node5</title>
<path style="fill:none;stroke:midnightblue;" d="M618,-222C616,-213 613,-202 612,-195"/>
<polygon style="fill:midnightblue;stroke:midnightblue;" points="614.774,-223.427 621,-232 621.479,-221.416 614.774,-223.427"/>
</g>
<!-- Node6 -->
<g id="node12" class="node"><title>Node6</title>
<a xlink:href="_system_manager_8h.html" target="_top" xlink:title="S2Sim/SystemManager.h">
<polygon style="fill:white;stroke:black;" points="531,-116 531,-137 682,-137 682,-116 531,-116"/>
<text text-anchor="middle" x="606" y="-123" style="font-family:Arial;font-size:10.00;">S2Sim/SystemManager.h</text>
</a>
</g>
<!-- Node4&#45;&gt;Node6 -->
<g id="edge12" class="edge"><title>Node4&#45;&gt;Node6</title>
<path style="fill:none;stroke:midnightblue;" d="M653,-227C675,-214 699,-195 687,-174 676,-156 655,-144 637,-137"/>
<polygon style="fill:midnightblue;stroke:midnightblue;" points="651.042,-224.084 644,-232 654.441,-230.203 651.042,-224.084"/>
</g>
<!-- Node4&#45;&gt;Node8 -->
<g id="edge38" class="edge"><title>Node4&#45;&gt;Node8</title>
<path style="fill:none;stroke:midnightblue;" d="M571,-229C531,-219 475,-204 439,-195"/>
<polygon style="fill:midnightblue;stroke:midnightblue;" points="570.416,-232.479 581,-232 572.427,-225.774 570.416,-232.479"/>
</g>
<!-- Node6&#45;&gt;Node4 -->
<g id="edge34" class="edge"><title>Node6&#45;&gt;Node4</title>
<path style="fill:none;stroke:midnightblue;" d="M662,-141C679,-148 696,-159 705,-174 719,-198 685,-219 657,-232"/>
<polygon style="fill:midnightblue;stroke:midnightblue;" points="663.56,-137.863 653,-137 660.717,-144.26 663.56,-137.863"/>
</g>
<!-- Node6&#45;&gt;Node7 -->
<g id="edge14" class="edge"><title>Node6&#45;&gt;Node7</title>
<path style="fill:none;stroke:midnightblue;" d="M568,-112C545,-101 518,-88 500,-79"/>
<polygon style="fill:midnightblue;stroke:midnightblue;" points="566.44,-115.137 577,-116 569.283,-108.74 566.44,-115.137"/>
</g>
<!-- Node6&#45;&gt;Node8 -->
<g id="edge32" class="edge"><title>Node6&#45;&gt;Node8</title>
<path style="fill:none;stroke:midnightblue;" d="M565,-140C531,-150 480,-164 445,-174"/>
<polygon style="fill:midnightblue;stroke:midnightblue;" points="566.427,-143.226 575,-137 564.416,-136.521 566.427,-143.226"/>
</g>
<!-- Node12 -->
<g id="node30" class="node"><title>Node12</title>
<a xlink:href="_system_manager_8cpp.html" target="_top" xlink:title="S2Sim/SystemManager.cpp">
<polygon style="fill:white;stroke:black;" points="576,-58 576,-79 740,-79 740,-58 576,-58"/>
<text text-anchor="middle" x="658" y="-65" style="font-family:Arial;font-size:10.00;">S2Sim/SystemManager.cpp</text>
</a>
</g>
<!-- Node6&#45;&gt;Node12 -->
<g id="edge36" class="edge"><title>Node6&#45;&gt;Node12</title>
<path style="fill:none;stroke:midnightblue;" d="M623,-108C631,-98 642,-87 649,-79"/>
<polygon style="fill:midnightblue;stroke:midnightblue;" points="619.951,-106.169 616,-116 625.219,-110.779 619.951,-106.169"/>
</g>
<!-- Node7&#45;&gt;Node4 -->
<g id="edge16" class="edge"><title>Node7&#45;&gt;Node4</title>
<path style="fill:none;stroke:midnightblue;" d="M485,-89C487,-117 495,-165 522,-196 537,-213 560,-225 581,-232"/>
<polygon style="fill:midnightblue;stroke:midnightblue;" points="488.478,-88.6021 484,-79 481.512,-89.2987 488.478,-88.6021"/>
</g>
<!-- Node7&#45;&gt;Node6 -->
<g id="edge18" class="edge"><title>Node7&#45;&gt;Node6</title>
<path style="fill:none;stroke:midnightblue;" d="M519,-83C542,-93 571,-106 588,-116"/>
<polygon style="fill:midnightblue;stroke:midnightblue;" points="520.56,-79.8631 510,-79 517.717,-86.2598 520.56,-79.8631"/>
</g>
<!-- Node7&#45;&gt;Node8 -->
<g id="edge20" class="edge"><title>Node7&#45;&gt;Node8</title>
<path style="fill:none;stroke:midnightblue;" d="M475,-88C468,-103 457,-122 446,-138 436,-151 422,-165 412,-174"/>
<polygon style="fill:midnightblue;stroke:midnightblue;" points="478.137,-89.5596 479,-79 471.74,-86.7166 478.137,-89.5596"/>
</g>
<!-- Node7&#45;&gt;Node10 -->
<g id="edge28" class="edge"><title>Node7&#45;&gt;Node10</title>
<path style="fill:none;stroke:midnightblue;" d="M421,-56C371,-45 301,-30 255,-21"/>
<polygon style="fill:midnightblue;stroke:midnightblue;" points="420.508,-59.4708 431,-58 421.881,-52.6067 420.508,-59.4708"/>
</g>
<!-- Node11 -->
<g id="node26" class="node"><title>Node11</title>
<a xlink:href="_matlab_manager_8cpp.html" target="_top" xlink:title="S2Sim/MatlabManager.cpp">
<polygon style="fill:white;stroke:black;" points="404,-0 404,-21 565,-21 565,-0 404,-0"/>
<text text-anchor="middle" x="484" y="-7" style="font-family:Arial;font-size:10.00;">S2Sim/MatlabManager.cpp</text>
</a>
</g>
<!-- Node7&#45;&gt;Node11 -->
<g id="edge30" class="edge"><title>Node7&#45;&gt;Node11</title>
<path style="fill:none;stroke:midnightblue;" d="M484,-48C484,-38 484,-28 484,-21"/>
<polygon style="fill:midnightblue;stroke:midnightblue;" points="480.5,-48 484,-58 487.5,-48 480.5,-48"/>
</g>
<!-- Node8&#45;&gt;Node6 -->
<g id="edge22" class="edge"><title>Node8&#45;&gt;Node6</title>
<path style="fill:none;stroke:midnightblue;" d="M444,-171C480,-160 530,-146 565,-137"/>
<polygon style="fill:midnightblue;stroke:midnightblue;" points="442.573,-167.774 434,-174 444.584,-174.479 442.573,-167.774"/>
</g>
<!-- Node9 -->
<g id="node21" class="node"><title>Node9</title>
<a xlink:href="_control_manager_8cpp.html" target="_top" xlink:title="S2Sim/ControlManager.cpp">
<polygon style="fill:white;stroke:black;" points="273,-116 273,-137 437,-137 437,-116 273,-116"/>
<text text-anchor="middle" x="355" y="-123" style="font-family:Arial;font-size:10.00;">S2Sim/ControlManager.cpp</text>
</a>
</g>
<!-- Node8&#45;&gt;Node9 -->
<g id="edge24" class="edge"><title>Node8&#45;&gt;Node9</title>
<path style="fill:none;stroke:midnightblue;" d="M385,-166C378,-156 369,-145 363,-137"/>
<polygon style="fill:midnightblue;stroke:midnightblue;" points="382.2,-168.1 391,-174 387.8,-163.9 382.2,-168.1"/>
</g>
<!-- Node8&#45;&gt;Node10 -->
<g id="edge26" class="edge"><title>Node8&#45;&gt;Node10</title>
<path style="fill:none;stroke:midnightblue;" d="M325,-171C304,-164 281,-154 264,-138 228,-105 214,-45 209,-21"/>
<polygon style="fill:midnightblue;stroke:midnightblue;" points="324.416,-174.479 335,-174 326.427,-167.774 324.416,-174.479"/>
</g>
<!-- Node14&#45;&gt;Node10 -->
<g id="edge54" class="edge"><title>Node14&#45;&gt;Node10</title>
<path style="fill:none;stroke:midnightblue;" d="M132,-432C90,-422 44,-409 28,-394 0,-365 1,-347 1,-307 1,-307 1,-307 1,-127 1,-56 94,-28 155,-17"/>
<polygon style="fill:midnightblue;stroke:midnightblue;" points="131.508,-435.471 142,-434 132.881,-428.607 131.508,-435.471"/>
</g>
<!-- Node15 -->
<g id="node43" class="node"><title>Node15</title>
<a xlink:href="_t_c_p_server_8cpp.html" target="_top" xlink:title="S2Sim/SocketLibrary\l/TCPServer.cpp">
<polygon style="fill:white;stroke:black;" points="37,-360 37,-394 164,-394 164,-360 37,-360"/>
<text text-anchor="start" x="45" y="-380" style="font-family:Arial;font-size:10.00;">S2Sim/SocketLibrary</text>
<text text-anchor="middle" x="100" y="-367" style="font-family:Arial;font-size:10.00;">/TCPServer.cpp</text>
</a>
</g>
<!-- Node14&#45;&gt;Node15 -->
<g id="edge56" class="edge"><title>Node14&#45;&gt;Node15</title>
<path style="fill:none;stroke:midnightblue;" d="M170,-424C156,-414 139,-403 126,-394"/>
<polygon style="fill:midnightblue;stroke:midnightblue;" points="168.738,-427.365 179,-430 172.621,-421.541 168.738,-427.365"/>
</g>
<!-- Node14&#45;&gt;Node16 -->
<g id="edge58" class="edge"><title>Node14&#45;&gt;Node16</title>
<path style="fill:none;stroke:midnightblue;" d="M221,-422C227,-412 234,-402 239,-394"/>
<polygon style="fill:midnightblue;stroke:midnightblue;" points="218.332,-419.665 216,-430 224.268,-423.375 218.332,-419.665"/>
</g>
<!-- Node16&#45;&gt;Node3 -->
<g id="edge60" class="edge"><title>Node16&#45;&gt;Node3</title>
<path style="fill:none;stroke:midnightblue;" d="M298,-356C328,-343 364,-327 387,-317"/>
<polygon style="fill:midnightblue;stroke:midnightblue;" points="296.717,-352.74 289,-360 299.56,-359.137 296.717,-352.74"/>
</g>
<!-- Node16&#45;&gt;Node7 -->
<g id="edge62" class="edge"><title>Node16&#45;&gt;Node7</title>
<path style="fill:none;stroke:midnightblue;" d="M236,-351C224,-324 207,-281 207,-243 207,-243 207,-243 207,-185 207,-145 230,-136 264,-116 289,-101 359,-88 413,-79"/>
<polygon style="fill:midnightblue;stroke:midnightblue;" points="233.084,-352.958 241,-360 239.203,-349.559 233.084,-352.958"/>
</g>
<!-- Node16&#45;&gt;Node8 -->
<g id="edge64" class="edge"><title>Node16&#45;&gt;Node8</title>
<path style="fill:none;stroke:midnightblue;" d="M244,-350C240,-318 237,-265 264,-232 276,-217 319,-204 354,-195"/>
<polygon style="fill:midnightblue;stroke:midnightblue;" points="240.607,-350.881 246,-360 247.471,-349.508 240.607,-350.881"/>
</g>
<!-- Node17 -->
<g id="node50" class="node"><title>Node17</title>
<a xlink:href="_threaded_t_c_p_server_8cpp.html" target="_top" xlink:title="S2Sim/SocketLibrary\l/ThreadedTCPServer.cpp">
<polygon style="fill:white;stroke:black;" points="29,-290 29,-324 180,-324 180,-290 29,-290"/>
<text text-anchor="start" x="37" y="-310" style="font-family:Arial;font-size:10.00;">S2Sim/SocketLibrary</text>
<text text-anchor="middle" x="104" y="-297" style="font-family:Arial;font-size:10.00;">/ThreadedTCPServer.cpp</text>
</a>
</g>
<!-- Node16&#45;&gt;Node17 -->
<g id="edge66" class="edge"><title>Node16&#45;&gt;Node17</title>
<path style="fill:none;stroke:midnightblue;" d="M205,-356C184,-345 159,-334 140,-324"/>
<polygon style="fill:midnightblue;stroke:midnightblue;" points="203.44,-359.137 214,-360 206.283,-352.74 203.44,-359.137"/>
</g>
<!-- Node20 -->
<g id="node57" class="node"><title>Node20</title>
<a xlink:href="_threaded_t_c_p_client_8cpp.html" target="_top" xlink:title="S2Sim/SocketLibrary\l/ThreadedTCPClient.cpp">
<polygon style="fill:white;stroke:black;" points="799,-430 799,-464 947,-464 947,-430 799,-430"/>
<text text-anchor="start" x="807" y="-450" style="font-family:Arial;font-size:10.00;">S2Sim/SocketLibrary</text>
<text text-anchor="middle" x="873" y="-437" style="font-family:Arial;font-size:10.00;">/ThreadedTCPClient.cpp</text>
</a>
</g>
<!-- Node19&#45;&gt;Node20 -->
<g id="edge74" class="edge"><title>Node19&#45;&gt;Node20</title>
<path style="fill:none;stroke:midnightblue;" d="M715,-497C748,-487 787,-474 819,-464"/>
<polygon style="fill:midnightblue;stroke:midnightblue;" points="713.573,-493.774 705,-500 715.584,-500.479 713.573,-493.774"/>
</g>
</g>
</svg>
