<?xml version="1.0" encoding="UTF-8" standalone="no"?>
<!DOCTYPE svg PUBLIC "-//W3C//DTD SVG 1.0//EN"
 "http://www.w3.org/TR/2001/REC-SVG-20010904/DTD/svg10.dtd" [
 <!ATTLIST svg xmlns:xlink CDATA #FIXED "http://www.w3.org/1999/xlink">
]>
<!-- Generated by Graphviz version 2.14.1 (Fri Nov  9 08:19:38 GMT 2007)
     For user: (asakyurek) Alper Sinan Akyurek -->
<!-- Title: ClientManager::ProcessGetPrice Pages: 1 -->
<svg width="540pt" height="99pt"
 viewBox="0.00 0.00 540.00 99.00" xmlns="http://www.w3.org/2000/svg" xmlns:xlink="http://www.w3.org/1999/xlink">
<g id="graph0" class="graph" transform="scale(1 1) rotate(0) translate(4 95)">
<title>ClientManager::ProcessGetPrice</title>
<polygon style="fill:white;stroke:white;" points="-4,4 -4,-95 536,-95 536,4 -4,4"/>
<!-- Node1 -->
<g id="node1" class="node"><title>Node1</title>
<polygon style="fill:#bfbfbf;stroke:black;" points="1,-45 1,-79 162,-79 162,-45 1,-45"/>
<text text-anchor="start" x="9" y="-65" style="font-family:Arial;font-size:10.00;">ClientManager::ProcessGet</text>
<text text-anchor="middle" x="81" y="-52" style="font-family:Arial;font-size:10.00;">Price</text>
</g>
<!-- Node2 -->
<g id="node3" class="node"><title>Node2</title>
<a xlink:href="_log_print_8h.html#a7e0c5f42cad5bc3a44134fb9c9a7a052" target="_top" xlink:title="LogPrint">
<polygon style="fill:white;stroke:black;" points="437,-70 437,-91 497,-91 497,-70 437,-70"/>
<text text-anchor="middle" x="467" y="-77" style="font-family:Arial;font-size:10.00;">LogPrint</text>
</a>
</g>
<!-- Node1&#45;&gt;Node2 -->
<g id="edge2" class="edge"><title>Node1&#45;&gt;Node2</title>
<path style="fill:none;stroke:midnightblue;" d="M162,-77C174,-78 186,-80 198,-81 279,-88 374,-85 427,-83"/>
<polygon style="fill:midnightblue;stroke:midnightblue;" points="427.398,-86.4778 437,-82 426.701,-79.5125 427.398,-86.4778"/>
</g>
<!-- Node3 -->
<g id="node5" class="node"><title>Node3</title>
<a xlink:href="_control_manager_8cpp.html#a63bfd4667c9c70297f25ae5e5176818e" target="_top" xlink:title="GetControlManager">
<polygon style="fill:white;stroke:black;" points="221,-51 221,-72 344,-72 344,-51 221,-51"/>
<text text-anchor="middle" x="282" y="-58" style="font-family:Arial;font-size:10.00;">GetControlManager</text>
</a>
</g>
<!-- Node1&#45;&gt;Node3 -->
<g id="edge4" class="edge"><title>Node1&#45;&gt;Node3</title>
<path style="fill:none;stroke:midnightblue;" d="M162,-62C178,-62 195,-62 211,-62"/>
<polygon style="fill:midnightblue;stroke:midnightblue;" points="211,-65.5001 221,-62 211,-58.5001 211,-65.5001"/>
</g>
<!-- Node4 -->
<g id="node7" class="node"><title>Node4</title>
<a xlink:href="class_control_manager.html#aa4398a05586d9b711aa6101334deefe1" target="_top" xlink:title="ControlManager::ClientPrice\lRequest">
<polygon style="fill:white;stroke:black;" points="198,-0 198,-34 366,-34 366,-0 198,-0"/>
<text text-anchor="start" x="206" y="-20" style="font-family:Arial;font-size:10.00;">ControlManager::ClientPrice</text>
<text text-anchor="middle" x="282" y="-7" style="font-family:Arial;font-size:10.00;">Request</text>
</a>
</g>
<!-- Node1&#45;&gt;Node4 -->
<g id="edge6" class="edge"><title>Node1&#45;&gt;Node4</title>
<path style="fill:none;stroke:midnightblue;" d="M157,-45C170,-42 183,-39 196,-36"/>
<polygon style="fill:midnightblue;stroke:midnightblue;" points="196.881,-39.3933 206,-34 195.508,-32.5292 196.881,-39.3933"/>
</g>
<!-- Node4&#45;&gt;Node2 -->
<g id="edge8" class="edge"><title>Node4&#45;&gt;Node2</title>
<path style="fill:none;stroke:midnightblue;" d="M339,-34C348,-37 358,-40 366,-43 387,-50 411,-59 430,-66"/>
<polygon style="fill:midnightblue;stroke:midnightblue;" points="429.415,-69.5357 440,-70 432.015,-63.0364 429.415,-69.5357"/>
</g>
<!-- Node5 -->
<g id="node10" class="node"><title>Node5</title>
<a xlink:href="class_t_c_p_connected_client.html#a7c3a1d1172f3880b48d35ffbf255712d" target="_top" xlink:title="TCPConnectedClient\l::SendData">
<polygon style="fill:white;stroke:black;" points="403,-0 403,-34 532,-34 532,-0 403,-0"/>
<text text-anchor="start" x="411" y="-20" style="font-family:Arial;font-size:10.00;">TCPConnectedClient</text>
<text text-anchor="middle" x="467" y="-7" style="font-family:Arial;font-size:10.00;">::SendData</text>
</a>
</g>
<!-- Node4&#45;&gt;Node5 -->
<g id="edge10" class="edge"><title>Node4&#45;&gt;Node5</title>
<path style="fill:none;stroke:midnightblue;" d="M366,-17C375,-17 384,-17 393,-17"/>
<polygon style="fill:midnightblue;stroke:midnightblue;" points="393,-20.5001 403,-17 393,-13.5001 393,-20.5001"/>
</g>
</g>
</svg>
