<?xml version="1.0" encoding="UTF-8" standalone="no"?>
<!DOCTYPE svg PUBLIC "-//W3C//DTD SVG 1.0//EN"
 "http://www.w3.org/TR/2001/REC-SVG-20010904/DTD/svg10.dtd" [
 <!ATTLIST svg xmlns:xlink CDATA #FIXED "http://www.w3.org/1999/xlink">
]>
<!-- Generated by Graphviz version 2.14.1 (Fri Nov  9 08:19:38 GMT 2007)
     For user: (asakyurek) Alper Sinan Akyurek -->
<!-- Title: TerraSwarm::NetworkByteAccessor::EndianConverter::NetworkToHost Pages: 1 -->
<svg width="448pt" height="42pt"
 viewBox="0.00 0.00 448.00 42.00" xmlns="http://www.w3.org/2000/svg" xmlns:xlink="http://www.w3.org/1999/xlink">
<g id="graph0" class="graph" transform="scale(1 1) rotate(0) translate(4 38)">
<title>TerraSwarm::NetworkByteAccessor::EndianConverter::NetworkToHost</title>
<polygon style="fill:white;stroke:white;" points="-4,4 -4,-38 444,-38 444,4 -4,4"/>
<!-- Node1 -->
<g id="node1" class="node"><title>Node1</title>
<polygon style="fill:#bfbfbf;stroke:black;" points="0,-0 0,-34 202,-34 202,-0 0,-0"/>
<text text-anchor="start" x="8" y="-20" style="font-family:Arial;font-size:10.00;">TerraSwarm::NetworkByteAccessor</text>
<text text-anchor="middle" x="101" y="-7" style="font-family:Arial;font-size:10.00;">::EndianConverter::NetworkToHost</text>
</g>
<!-- Node2 -->
<g id="node3" class="node"><title>Node2</title>
<a xlink:href="class_terra_swarm_1_1_network_byte_accessor.html#a30b72470a765a59f572cc72db86db29a" target="_top" xlink:title="TerraSwarm::NetworkByteAccessor\l::Read">
<polygon style="fill:white;stroke:black;" points="238,-0 238,-34 440,-34 440,-0 238,-0"/>
<text text-anchor="start" x="246" y="-20" style="font-family:Arial;font-size:10.00;">TerraSwarm::NetworkByteAccessor</text>
<text text-anchor="middle" x="339" y="-7" style="font-family:Arial;font-size:10.00;">::Read</text>
</a>
</g>
<!-- Node1&#45;&gt;Node2 -->
<g id="edge2" class="edge"><title>Node1&#45;&gt;Node2</title>
<path style="fill:none;stroke:midnightblue;" d="M212,-17C221,-17 229,-17 238,-17"/>
<polygon style="fill:midnightblue;stroke:midnightblue;" points="212,-13.5001 202,-17 212,-20.5001 212,-13.5001"/>
</g>
</g>
</svg>
