<?xml version="1.0" encoding="UTF-8" standalone="no"?>
<!DOCTYPE svg PUBLIC "-//W3C//DTD SVG 1.0//EN"
 "http://www.w3.org/TR/2001/REC-SVG-20010904/DTD/svg10.dtd" [
 <!ATTLIST svg xmlns:xlink CDATA #FIXED "http://www.w3.org/1999/xlink">
]>
<!-- Generated by Graphviz version 2.14.1 (Fri Nov  9 08:19:38 GMT 2007)
     For user: (asakyurek) Alper Sinan Akyurek -->
<!-- Title: ThreadBase Pages: 1 -->
<svg width="560pt" height="88pt"
 viewBox="0.00 0.00 560.00 88.00" xmlns="http://www.w3.org/2000/svg" xmlns:xlink="http://www.w3.org/1999/xlink">
<g id="graph0" class="graph" transform="scale(1 1) rotate(0) translate(4 84)">
<title>ThreadBase</title>
<polygon style="fill:white;stroke:white;" points="-4,4 -4,-84 556,-84 556,4 -4,4"/>
<!-- Node1 -->
<g id="node1" class="node"><title>Node1</title>
<polygon style="fill:#bfbfbf;stroke:black;" points="194,-58 194,-79 275,-79 275,-58 194,-58"/>
<text text-anchor="middle" x="234" y="-65" style="font-family:Arial;font-size:10.00;">ThreadBase</text>
</g>
<!-- Node2 -->
<g id="node3" class="node"><title>Node2</title>
<a xlink:href="class_my_thread.html" target="_top" xlink:title="MyThread">
<polygon style="fill:white;stroke:black;" points="0,-0 0,-21 70,-21 70,-0 0,-0"/>
<text text-anchor="middle" x="35" y="-7" style="font-family:Arial;font-size:10.00;">MyThread</text>
</a>
</g>
<!-- Node1&#45;&gt;Node2 -->
<g id="edge2" class="edge"><title>Node1&#45;&gt;Node2</title>
<path style="fill:none;stroke:midnightblue;" d="M186,-55C150,-44 102,-30 69,-21"/>
<polygon style="fill:midnightblue;stroke:midnightblue;" points="185.416,-58.4788 196,-58 187.427,-51.7741 185.416,-58.4788"/>
</g>
<!-- Node3 -->
<g id="node5" class="node"><title>Node3</title>
<a xlink:href="class_threaded_t_c_p_client.html" target="_top" xlink:title="ThreadedTCPClient">
<polygon style="fill:white;stroke:black;" points="88,-0 88,-21 210,-21 210,-0 88,-0"/>
<text text-anchor="middle" x="149" y="-7" style="font-family:Arial;font-size:10.00;">ThreadedTCPClient</text>
</a>
</g>
<!-- Node1&#45;&gt;Node3 -->
<g id="edge4" class="edge"><title>Node1&#45;&gt;Node3</title>
<path style="fill:none;stroke:#8b1a1a;" d="M210,-52C195,-42 177,-29 164,-21"/>
<polygon style="fill:#8b1a1a;stroke:#8b1a1a;" points="207.9,-54.8 218,-58 212.1,-49.2 207.9,-54.8"/>
</g>
<!-- Node4 -->
<g id="node7" class="node"><title>Node4</title>
<a xlink:href="class_threaded_t_c_p_connected_client.html" target="_top" xlink:title="ThreadedTCPConnectedClient">
<polygon style="fill:white;stroke:black;" points="228,-0 228,-21 410,-21 410,-0 228,-0"/>
<text text-anchor="middle" x="319" y="-7" style="font-family:Arial;font-size:10.00;">ThreadedTCPConnectedClient</text>
</a>
</g>
<!-- Node1&#45;&gt;Node4 -->
<g id="edge6" class="edge"><title>Node1&#45;&gt;Node4</title>
<path style="fill:none;stroke:#8b1a1a;" d="M258,-52C273,-42 291,-29 304,-21"/>
<polygon style="fill:#8b1a1a;stroke:#8b1a1a;" points="255.9,-49.2 250,-58 260.1,-54.8 255.9,-49.2"/>
</g>
<!-- Node5 -->
<g id="node9" class="node"><title>Node5</title>
<a xlink:href="class_threaded_t_c_p_server.html" target="_top" xlink:title="ThreadedTCPServer">
<polygon style="fill:white;stroke:black;" points="428,-0 428,-21 553,-21 553,-0 428,-0"/>
<text text-anchor="middle" x="490" y="-7" style="font-family:Arial;font-size:10.00;">ThreadedTCPServer</text>
</a>
</g>
<!-- Node1&#45;&gt;Node5 -->
<g id="edge8" class="edge"><title>Node1&#45;&gt;Node5</title>
<path style="fill:none;stroke:#8b1a1a;" d="M285,-58C331,-47 400,-31 445,-21"/>
<polygon style="fill:#8b1a1a;stroke:#8b1a1a;" points="284.119,-54.6067 275,-60 285.492,-61.4708 284.119,-54.6067"/>
</g>
</g>
</svg>
