<?xml version="1.0" encoding="UTF-8" standalone="no"?>
<!DOCTYPE svg PUBLIC "-//W3C//DTD SVG 1.0//EN"
 "http://www.w3.org/TR/2001/REC-SVG-20010904/DTD/svg10.dtd" [
 <!ATTLIST svg xmlns:xlink CDATA #FIXED "http://www.w3.org/1999/xlink">
]>
<!-- Generated by Graphviz version 2.14.1 (Fri Nov  9 08:19:38 GMT 2007)
     For user: (asakyurek) Alper Sinan Akyurek -->
<!-- Title: MatlabManager::AdvanceTimeStep Pages: 1 -->
<svg width="382pt" height="156pt"
 viewBox="0.00 0.00 382.00 156.00" xmlns="http://www.w3.org/2000/svg" xmlns:xlink="http://www.w3.org/1999/xlink">
<g id="graph0" class="graph" transform="scale(1 1) rotate(0) translate(4 152)">
<title>MatlabManager::AdvanceTimeStep</title>
<polygon style="fill:white;stroke:white;" points="-4,4 -4,-152 378,-152 378,4 -4,4"/>
<!-- Node1 -->
<g id="node1" class="node"><title>Node1</title>
<polygon style="fill:#bfbfbf;stroke:black;" points="1,-66 1,-87 208,-87 208,-66 1,-66"/>
<text text-anchor="middle" x="104" y="-73" style="font-family:Arial;font-size:10.00;">MatlabManager::AdvanceTimeStep</text>
</g>
<!-- Node2 -->
<g id="node3" class="node"><title>Node2</title>
<a xlink:href="_log_print_8h.html#a7e0c5f42cad5bc3a44134fb9c9a7a052" target="_top" xlink:title="LogPrint">
<polygon style="fill:white;stroke:black;" points="279,-127 279,-148 339,-148 339,-127 279,-127"/>
<text text-anchor="middle" x="309" y="-134" style="font-family:Arial;font-size:10.00;">LogPrint</text>
</a>
</g>
<!-- Node1&#45;&gt;Node2 -->
<g id="edge2" class="edge"><title>Node1&#45;&gt;Node2</title>
<path style="fill:none;stroke:midnightblue;" d="M138,-87C166,-96 208,-108 244,-119 252,-121 261,-124 269,-126"/>
<polygon style="fill:midnightblue;stroke:midnightblue;" points="268.416,-129.479 279,-129 270.427,-122.774 268.416,-129.479"/>
</g>
<!-- Node3 -->
<g id="node5" class="node"><title>Node3</title>
<a xlink:href="_log_print_8h.html#af783a2ea2c57c5f51f905a24f3f5a835" target="_top" xlink:title="ErrorPrint">
<polygon style="fill:white;stroke:black;" points="277,-89 277,-110 342,-110 342,-89 277,-89"/>
<text text-anchor="middle" x="309" y="-96" style="font-family:Arial;font-size:10.00;">ErrorPrint</text>
</a>
</g>
<!-- Node1&#45;&gt;Node3 -->
<g id="edge4" class="edge"><title>Node1&#45;&gt;Node3</title>
<path style="fill:none;stroke:midnightblue;" d="M193,-87C219,-90 245,-93 267,-95"/>
<polygon style="fill:midnightblue;stroke:midnightblue;" points="266.701,-98.4875 277,-96 267.398,-91.5222 266.701,-98.4875"/>
</g>
<!-- Node4 -->
<g id="node7" class="node"><title>Node4</title>
<a xlink:href="class_t_c_p_connected_client.html#a7c3a1d1172f3880b48d35ffbf255712d" target="_top" xlink:title="TCPConnectedClient\l::SendData">
<polygon style="fill:white;stroke:black;" points="245,-38 245,-72 374,-72 374,-38 245,-38"/>
<text text-anchor="start" x="253" y="-58" style="font-family:Arial;font-size:10.00;">TCPConnectedClient</text>
<text text-anchor="middle" x="309" y="-45" style="font-family:Arial;font-size:10.00;">::SendData</text>
</a>
</g>
<!-- Node1&#45;&gt;Node4 -->
<g id="edge6" class="edge"><title>Node1&#45;&gt;Node4</title>
<path style="fill:none;stroke:midnightblue;" d="M207,-66C216,-65 226,-64 235,-63"/>
<polygon style="fill:midnightblue;stroke:midnightblue;" points="235.398,-66.4778 245,-62 234.701,-59.5125 235.398,-66.4778"/>
</g>
<!-- Node5 -->
<g id="node9" class="node"><title>Node5</title>
<a xlink:href="_log_print_8h.html#a46ea30a62534f8ce32cd39454e459b23" target="_top" xlink:title="WarningPrint">
<polygon style="fill:white;stroke:black;" points="267,1 267,-20 352,-20 352,1 267,1"/>
<text text-anchor="middle" x="309" y="-6" style="font-family:Arial;font-size:10.00;">WarningPrint</text>
</a>
</g>
<!-- Node1&#45;&gt;Node5 -->
<g id="edge8" class="edge"><title>Node1&#45;&gt;Node5</title>
<path style="fill:none;stroke:midnightblue;" d="M134,-66C163,-56 206,-41 244,-29 250,-27 256,-25 262,-23"/>
<polygon style="fill:midnightblue;stroke:midnightblue;" points="263.427,-26.2259 272,-20 261.416,-19.5212 263.427,-26.2259"/>
</g>
</g>
</svg>
