<?xml version="1.0" encoding="UTF-8" standalone="no"?>
<!DOCTYPE svg PUBLIC "-//W3C//DTD SVG 1.0//EN"
 "http://www.w3.org/TR/2001/REC-SVG-20010904/DTD/svg10.dtd" [
 <!ATTLIST svg xmlns:xlink CDATA #FIXED "http://www.w3.org/1999/xlink">
]>
<!-- Generated by Graphviz version 2.14.1 (Fri Nov  9 08:19:38 GMT 2007)
     For user: (asakyurek) Alper Sinan Akyurek -->
<!-- Title: ConnectionManager Pages: 1 -->
<svg width="463pt" height="398pt"
 viewBox="0.00 0.00 463.00 398.00" xmlns="http://www.w3.org/2000/svg" xmlns:xlink="http://www.w3.org/1999/xlink">
<g id="graph0" class="graph" transform="scale(1 1) rotate(0) translate(4 394)">
<title>ConnectionManager</title>
<polygon style="fill:white;stroke:white;" points="-4,4 -4,-394 459,-394 459,4 -4,4"/>
<!-- Node1 -->
<g id="node1" class="node"><title>Node1</title>
<polygon style="fill:#bfbfbf;stroke:black;" points="91,-0 91,-21 218,-21 218,-0 91,-0"/>
<text text-anchor="middle" x="154" y="-7" style="font-family:Arial;font-size:10.00;">ConnectionManager</text>
</g>
<!-- Node2 -->
<g id="node2" class="node"><title>Node2</title>
<a xlink:href="class_threaded_t_c_p_server.html" target="_top" xlink:title="ThreadedTCPServer">
<polygon style="fill:white;stroke:black;" points="92,-72 92,-93 217,-93 217,-72 92,-72"/>
<text text-anchor="middle" x="154" y="-79" style="font-family:Arial;font-size:10.00;">ThreadedTCPServer</text>
</a>
</g>
<!-- Node2&#45;&gt;Node1 -->
<g id="edge2" class="edge"><title>Node2&#45;&gt;Node1</title>
<path style="fill:none;stroke:#9a32cd;stroke-dasharray:5,2;" d="M154,-62C154,-48 154,-32 154,-21"/>
<polygon style="fill:#9a32cd;stroke:#9a32cd;" points="150.5,-62 154,-72 157.5,-62 150.5,-62"/>
<text text-anchor="middle" x="180" y="-44" style="font-family:Arial;font-size:10.00;"> m_server</text>
</g>
<!-- Node3 -->
<g id="node4" class="node"><title>Node3</title>
<a xlink:href="class_t_c_p_server.html" target="_top" xlink:title="TCPServer">
<polygon style="fill:white;stroke:black;" points="333,-184 333,-205 405,-205 405,-184 333,-184"/>
<text text-anchor="middle" x="369" y="-191" style="font-family:Arial;font-size:10.00;">TCPServer</text>
</a>
</g>
<!-- Node3&#45;&gt;Node2 -->
<g id="edge4" class="edge"><title>Node3&#45;&gt;Node2</title>
<path style="fill:none;stroke:midnightblue;" d="M367,-174C365,-163 360,-151 353,-144 332,-123 258,-104 206,-93"/>
<polygon style="fill:midnightblue;stroke:midnightblue;" points="363.522,-174.398 368,-184 370.488,-173.701 363.522,-174.398"/>
</g>
<!-- Node4 -->
<g id="node6" class="node"><title>Node4</title>
<a xlink:href="class_socket_base.html" target="_top" xlink:title="SocketBase\&lt; SOCK_STREAM \&gt;">
<polygon style="fill:white;stroke:black;" points="258,-296 258,-317 440,-317 440,-296 258,-296"/>
<text text-anchor="middle" x="349" y="-303" style="font-family:Arial;font-size:10.00;">SocketBase&lt; SOCK_STREAM &gt;</text>
</a>
</g>
<!-- Node4&#45;&gt;Node3 -->
<g id="edge6" class="edge"><title>Node4&#45;&gt;Node3</title>
<path style="fill:none;stroke:midnightblue;" d="M353,-286C357,-262 364,-223 367,-205"/>
<polygon style="fill:midnightblue;stroke:midnightblue;" points="349.529,-285.508 351,-296 356.393,-286.881 349.529,-285.508"/>
</g>
<!-- Node8 -->
<g id="node14" class="node"><title>Node8</title>
<a xlink:href="class_t_c_p_connected_client.html" target="_top" xlink:title="TCPConnectedClient">
<polygon style="fill:white;stroke:black;" points="107,-224 107,-245 236,-245 236,-224 107,-224"/>
<text text-anchor="middle" x="171" y="-231" style="font-family:Arial;font-size:10.00;">TCPConnectedClient</text>
</a>
</g>
<!-- Node4&#45;&gt;Node8 -->
<g id="edge16" class="edge"><title>Node4&#45;&gt;Node8</title>
<path style="fill:none;stroke:midnightblue;" d="M321,-291C305,-282 285,-271 266,-264 248,-256 227,-250 210,-245"/>
<polygon style="fill:midnightblue;stroke:midnightblue;" points="319.559,-294.203 330,-296 322.958,-288.084 319.559,-294.203"/>
</g>
<!-- Node5 -->
<g id="node8" class="node"><title>Node5</title>
<a xlink:href="class_socket_base.html" target="_top" xlink:title="SocketBase\&lt; SocketType \&gt;">
<polygon style="fill:white;stroke:black;" points="266,-368 266,-389 432,-389 432,-368 266,-368"/>
<text text-anchor="middle" x="349" y="-375" style="font-family:Arial;font-size:10.00;">SocketBase&lt; SocketType &gt;</text>
</a>
</g>
<!-- Node5&#45;&gt;Node4 -->
<g id="edge8" class="edge"><title>Node5&#45;&gt;Node4</title>
<path style="fill:none;stroke:orange;stroke-dasharray:5,2;" d="M349,-358C349,-344 349,-328 349,-317"/>
<polygon style="fill:orange;stroke:orange;" points="345.5,-358 349,-368 352.5,-358 345.5,-358"/>
<text text-anchor="middle" x="402" y="-340" style="font-family:Arial;font-size:10.00;"> &lt; SOCK_STREAM &gt;</text>
</g>
<!-- Node6 -->
<g id="node10" class="node"><title>Node6</title>
<a xlink:href="class_thread_base.html" target="_top" xlink:title="ThreadBase">
<polygon style="fill:white;stroke:black;" points="0,-224 0,-245 81,-245 81,-224 0,-224"/>
<text text-anchor="middle" x="40" y="-231" style="font-family:Arial;font-size:10.00;">ThreadBase</text>
</a>
</g>
<!-- Node6&#45;&gt;Node2 -->
<g id="edge10" class="edge"><title>Node6&#45;&gt;Node2</title>
<path style="fill:none;stroke:#8b1a1a;" d="M39,-214C38,-194 41,-165 54,-144 71,-119 101,-102 124,-93"/>
<polygon style="fill:#8b1a1a;stroke:#8b1a1a;" points="35.5001,-214 39,-224 42.5001,-214 35.5001,-214"/>
</g>
<!-- Node7 -->
<g id="node12" class="node"><title>Node7</title>
<a xlink:href="class_threaded_t_c_p_connected_client.html" target="_top" xlink:title="ThreadedTCPConnectedClient">
<polygon style="fill:white;stroke:black;" points="63,-144 63,-165 245,-165 245,-144 63,-144"/>
<text text-anchor="middle" x="154" y="-151" style="font-family:Arial;font-size:10.00;">ThreadedTCPConnectedClient</text>
</a>
</g>
<!-- Node6&#45;&gt;Node7 -->
<g id="edge20" class="edge"><title>Node6&#45;&gt;Node7</title>
<path style="fill:none;stroke:#8b1a1a;" d="M64,-218C87,-202 120,-178 140,-165"/>
<polygon style="fill:#8b1a1a;stroke:#8b1a1a;" points="61.9,-215.2 56,-224 66.1,-220.8 61.9,-215.2"/>
</g>
<!-- Node7&#45;&gt;Node2 -->
<g id="edge12" class="edge"><title>Node7&#45;&gt;Node2</title>
<path style="fill:none;stroke:#9a32cd;stroke-dasharray:5,2;" d="M154,-134C154,-120 154,-104 154,-93"/>
<polygon style="fill:#9a32cd;stroke:#9a32cd;" points="150.5,-134 154,-144 157.5,-134 150.5,-134"/>
<text text-anchor="middle" x="194" y="-116" style="font-family:Arial;font-size:10.00;"> m_notification</text>
</g>
<!-- Node7&#45;&gt;Node7 -->
<g id="edge22" class="edge"><title>Node7&#45;&gt;Node7</title>
<path style="fill:none;stroke:#9a32cd;stroke-dasharray:5,2;" d="M255,-160C260,-158 263,-157 263,-155 263,-152 256,-150 245,-149"/>
<polygon style="fill:#9a32cd;stroke:#9a32cd;" points="254.602,-156.522 245,-161 255.299,-163.488 254.602,-156.522"/>
<text text-anchor="middle" x="303" y="-152" style="font-family:Arial;font-size:10.00;"> m_notification</text>
</g>
<!-- Node8&#45;&gt;Node7 -->
<g id="edge14" class="edge"><title>Node8&#45;&gt;Node7</title>
<path style="fill:none;stroke:midnightblue;" d="M167,-214C163,-198 158,-177 156,-165"/>
<polygon style="fill:midnightblue;stroke:midnightblue;" points="163.607,-214.881 169,-224 170.471,-213.508 163.607,-214.881"/>
</g>
<!-- Node9 -->
<g id="node17" class="node"><title>Node9</title>
<a xlink:href="class_i_p_address.html" target="_top" xlink:title="IPAddress">
<polygon style="fill:white;stroke:black;" points="138,-296 138,-317 205,-317 205,-296 138,-296"/>
<text text-anchor="middle" x="171" y="-303" style="font-family:Arial;font-size:10.00;">IPAddress</text>
</a>
</g>
<!-- Node9&#45;&gt;Node8 -->
<g id="edge18" class="edge"><title>Node9&#45;&gt;Node8</title>
<path style="fill:none;stroke:#9a32cd;stroke-dasharray:5,2;" d="M171,-286C171,-272 171,-256 171,-245"/>
<polygon style="fill:#9a32cd;stroke:#9a32cd;" points="167.5,-286 171,-296 174.5,-286 167.5,-286"/>
<text text-anchor="middle" x="216" y="-268" style="font-family:Arial;font-size:10.00;"> m_clientAddress</text>
</g>
</g>
</svg>
