<?xml version="1.0" encoding="UTF-8" standalone="no"?>
<!DOCTYPE svg PUBLIC "-//W3C//DTD SVG 1.0//EN"
 "http://www.w3.org/TR/2001/REC-SVG-20010904/DTD/svg10.dtd" [
 <!ATTLIST svg xmlns:xlink CDATA #FIXED "http://www.w3.org/1999/xlink">
]>
<!-- Generated by Graphviz version 2.14.1 (Fri Nov  9 08:19:38 GMT 2007)
     For user: (asakyurek) Alper Sinan Akyurek -->
<!-- Title: TCPConnectedClient::SendData Pages: 1 -->
<svg width="864pt" height="482pt"
 viewBox="0.00 0.00 864.00 482.00" xmlns="http://www.w3.org/2000/svg" xmlns:xlink="http://www.w3.org/1999/xlink">
<g id="graph0" class="graph" transform="scale(1 1) rotate(0) translate(4 478)">
<title>TCPConnectedClient::SendData</title>
<polygon style="fill:white;stroke:white;" points="-4,4 -4,-478 860,-478 860,4 -4,4"/>
<!-- Node1 -->
<g id="node1" class="node"><title>Node1</title>
<polygon style="fill:#bfbfbf;stroke:black;" points="1,-183 1,-217 130,-217 130,-183 1,-183"/>
<text text-anchor="start" x="9" y="-203" style="font-family:Arial;font-size:10.00;">TCPConnectedClient</text>
<text text-anchor="middle" x="65" y="-190" style="font-family:Arial;font-size:10.00;">::SendData</text>
</g>
<!-- Node2 -->
<g id="node3" class="node"><title>Node2</title>
<a xlink:href="class_client_manager.html#a6d544b4d20cd3b906b6a033c8d70e4a5" target="_top" xlink:title="Processes an asynchronous client connection request. ">
<polygon style="fill:white;stroke:black;" points="428,-373 428,-407 602,-407 602,-373 428,-373"/>
<text text-anchor="start" x="436" y="-393" style="font-family:Arial;font-size:10.00;">ClientManager::ProcessClient</text>
<text text-anchor="middle" x="515" y="-380" style="font-family:Arial;font-size:10.00;">ConnectionRequest</text>
</a>
</g>
<!-- Node1&#45;&gt;Node2 -->
<g id="edge2" class="edge"><title>Node1&#45;&gt;Node2</title>
<path style="fill:none;stroke:midnightblue;" d="M69,-227C77,-274 101,-371 166,-413 263,-474 405,-433 474,-407"/>
<polygon style="fill:midnightblue;stroke:midnightblue;" points="72.3933,-226.119 67,-217 65.5292,-227.492 72.3933,-226.119"/>
</g>
<!-- Node4 -->
<g id="node7" class="node"><title>Node4</title>
<a xlink:href="class_client_manager.html#adb64a2ee5d0eb7b1a4bdedcd0e3b92f5" target="_top" xlink:title="ClientManager::SetCurrent\lPrice">
<polygon style="fill:white;stroke:black;" points="190,-370 190,-404 351,-404 351,-370 190,-370"/>
<text text-anchor="start" x="198" y="-390" style="font-family:Arial;font-size:10.00;">ClientManager::SetCurrent</text>
<text text-anchor="middle" x="270" y="-377" style="font-family:Arial;font-size:10.00;">Price</text>
</a>
</g>
<!-- Node1&#45;&gt;Node4 -->
<g id="edge6" class="edge"><title>Node1&#45;&gt;Node4</title>
<path style="fill:none;stroke:midnightblue;" d="M75,-227C89,-263 119,-326 166,-361 173,-366 181,-370 190,-373"/>
<polygon style="fill:midnightblue;stroke:midnightblue;" points="77.9636,-224.985 71,-217 71.4643,-227.585 77.9636,-224.985"/>
</g>
<!-- Node5 -->
<g id="node9" class="node"><title>Node5</title>
<a xlink:href="class_client_manager.html#ae297765312b5f2f93f7b8ec700ad2fbb" target="_top" xlink:title="ClientManager::PriceProposal">
<polygon style="fill:white;stroke:black;" points="183,-331 183,-352 357,-352 357,-331 183,-331"/>
<text text-anchor="middle" x="270" y="-338" style="font-family:Arial;font-size:10.00;">ClientManager::PriceProposal</text>
</a>
</g>
<!-- Node1&#45;&gt;Node5 -->
<g id="edge8" class="edge"><title>Node1&#45;&gt;Node5</title>
<path style="fill:none;stroke:midnightblue;" d="M79,-226C96,-254 127,-300 166,-323 172,-326 178,-329 184,-331"/>
<polygon style="fill:midnightblue;stroke:midnightblue;" points="81.916,-224.042 74,-217 75.7969,-227.441 81.916,-224.042"/>
</g>
<!-- Node6 -->
<g id="node11" class="node"><title>Node6</title>
<a xlink:href="class_control_manager.html#a0d5212df17307aef87d42add3aa6cc7a" target="_top" xlink:title="ControlManager::MakeDecision">
<polygon style="fill:white;stroke:black;" points="178,-189 178,-210 363,-210 363,-189 178,-189"/>
<text text-anchor="middle" x="270" y="-196" style="font-family:Arial;font-size:10.00;">ControlManager::MakeDecision</text>
</a>
</g>
<!-- Node1&#45;&gt;Node6 -->
<g id="edge10" class="edge"><title>Node1&#45;&gt;Node6</title>
<path style="fill:none;stroke:midnightblue;" d="M140,-200C152,-200 165,-200 178,-200"/>
<polygon style="fill:midnightblue;stroke:midnightblue;" points="140,-196.5 130,-200 140,-203.5 140,-196.5"/>
</g>
<!-- Node9 -->
<g id="node17" class="node"><title>Node9</title>
<a xlink:href="class_control_manager.html#aa4398a05586d9b711aa6101334deefe1" target="_top" xlink:title="ControlManager::ClientPrice\lRequest">
<polygon style="fill:white;stroke:black;" points="186,-280 186,-314 354,-314 354,-280 186,-280"/>
<text text-anchor="start" x="194" y="-300" style="font-family:Arial;font-size:10.00;">ControlManager::ClientPrice</text>
<text text-anchor="middle" x="270" y="-287" style="font-family:Arial;font-size:10.00;">Request</text>
</a>
</g>
<!-- Node1&#45;&gt;Node9 -->
<g id="edge16" class="edge"><title>Node1&#45;&gt;Node9</title>
<path style="fill:none;stroke:midnightblue;" d="M93,-224C112,-239 140,-259 166,-271 174,-274 182,-277 190,-280"/>
<polygon style="fill:midnightblue;stroke:midnightblue;" points="94.8306,-220.951 85,-217 90.221,-226.219 94.8306,-220.951"/>
</g>
<!-- Node11 -->
<g id="node22" class="node"><title>Node11</title>
<a xlink:href="class_control_manager.html#a5b551f560431d0bb0bcf6c338bac8eb3" target="_top" xlink:title="ControlManager::ClientDemand\lNegotiation">
<polygon style="fill:white;stroke:black;" points="176,-228 176,-262 365,-262 365,-228 176,-228"/>
<text text-anchor="start" x="184" y="-248" style="font-family:Arial;font-size:10.00;">ControlManager::ClientDemand</text>
<text text-anchor="middle" x="270" y="-235" style="font-family:Arial;font-size:10.00;">Negotiation</text>
</a>
</g>
<!-- Node1&#45;&gt;Node11 -->
<g id="edge22" class="edge"><title>Node1&#45;&gt;Node11</title>
<path style="fill:none;stroke:midnightblue;" d="M140,-216C157,-220 176,-224 193,-228"/>
<polygon style="fill:midnightblue;stroke:midnightblue;" points="140.492,-212.529 130,-214 139.119,-219.393 140.492,-212.529"/>
</g>
<!-- Node13 -->
<g id="node27" class="node"><title>Node13</title>
<a xlink:href="class_matlab_manager.html#a1c967acc77ef8db3113e83a5325b5729" target="_top" xlink:title="MatlabManager::IsClientPresent">
<polygon style="fill:white;stroke:black;" points="177,-151 177,-172 364,-172 364,-151 177,-151"/>
<text text-anchor="middle" x="270" y="-158" style="font-family:Arial;font-size:10.00;">MatlabManager::IsClientPresent</text>
</a>
</g>
<!-- Node1&#45;&gt;Node13 -->
<g id="edge28" class="edge"><title>Node1&#45;&gt;Node13</title>
<path style="fill:none;stroke:midnightblue;" d="M140,-186C149,-184 157,-182 166,-181 182,-178 199,-175 214,-172"/>
<polygon style="fill:midnightblue;stroke:midnightblue;" points="139.119,-182.607 130,-188 140.492,-189.471 139.119,-182.607"/>
</g>
<!-- Node14 -->
<g id="node29" class="node"><title>Node14</title>
<a xlink:href="class_matlab_manager.html#a2967a226a9c6a9ed22998cad67afed3c" target="_top" xlink:title="MatlabManager::SetWattage">
<polygon style="fill:white;stroke:black;" points="185,-113 185,-134 356,-134 356,-113 185,-113"/>
<text text-anchor="middle" x="270" y="-120" style="font-family:Arial;font-size:10.00;">MatlabManager::SetWattage</text>
</a>
</g>
<!-- Node1&#45;&gt;Node14 -->
<g id="edge30" class="edge"><title>Node1&#45;&gt;Node14</title>
<path style="fill:none;stroke:midnightblue;" d="M99,-177C118,-165 143,-152 166,-143 176,-139 187,-136 198,-134"/>
<polygon style="fill:midnightblue;stroke:midnightblue;" points="96.3791,-174.541 90,-183 100.262,-180.365 96.3791,-174.541"/>
</g>
<!-- Node15 -->
<g id="node32" class="node"><title>Node15</title>
<a xlink:href="class_matlab_manager.html#afc7fd3eb3469eb7be2af5b857e6f45e1" target="_top" xlink:title="MatlabManager::GetWattage">
<polygon style="fill:white;stroke:black;" points="184,-75 184,-96 356,-96 356,-75 184,-75"/>
<text text-anchor="middle" x="270" y="-82" style="font-family:Arial;font-size:10.00;">MatlabManager::GetWattage</text>
</a>
</g>
<!-- Node1&#45;&gt;Node15 -->
<g id="edge34" class="edge"><title>Node1&#45;&gt;Node15</title>
<path style="fill:none;stroke:midnightblue;" d="M84,-175C103,-153 133,-121 166,-105 173,-101 180,-98 188,-96"/>
<polygon style="fill:midnightblue;stroke:midnightblue;" points="81.2,-172.9 78,-183 86.8,-177.1 81.2,-172.9"/>
</g>
<!-- Node16 -->
<g id="node34" class="node"><title>Node16</title>
<a xlink:href="class_matlab_manager.html#ab741bd4f6545e11dd7dd28548c5229dd" target="_top" xlink:title="MatlabManager::GetVoltage">
<polygon style="fill:white;stroke:black;" points="186,-37 186,-58 354,-58 354,-37 186,-37"/>
<text text-anchor="middle" x="270" y="-44" style="font-family:Arial;font-size:10.00;">MatlabManager::GetVoltage</text>
</a>
</g>
<!-- Node1&#45;&gt;Node16 -->
<g id="edge36" class="edge"><title>Node1&#45;&gt;Node16</title>
<path style="fill:none;stroke:midnightblue;" d="M78,-174C94,-143 124,-92 166,-67 172,-63 179,-60 186,-58"/>
<polygon style="fill:midnightblue;stroke:midnightblue;" points="74.7969,-172.559 73,-183 80.916,-175.958 74.7969,-172.559"/>
</g>
<!-- Node17 -->
<g id="node36" class="node"><title>Node17</title>
<a xlink:href="class_matlab_manager.html#a55151e4e7f68cad7a8b18c93e9f0e0b1" target="_top" xlink:title="MatlabManager::AdvanceTimeStep">
<polygon style="fill:white;stroke:black;" points="167,1 167,-20 374,-20 374,1 167,1"/>
<text text-anchor="middle" x="270" y="-6" style="font-family:Arial;font-size:10.00;">MatlabManager::AdvanceTimeStep</text>
</a>
</g>
<!-- Node1&#45;&gt;Node17 -->
<g id="edge38" class="edge"><title>Node1&#45;&gt;Node17</title>
<path style="fill:none;stroke:midnightblue;" d="M73,-173C86,-134 116,-64 166,-29 171,-25 177,-23 183,-20"/>
<polygon style="fill:midnightblue;stroke:midnightblue;" points="69.5212,-172.416 70,-183 76.2259,-174.427 69.5212,-172.416"/>
</g>
<!-- Node3 -->
<g id="node5" class="node"><title>Node3</title>
<a xlink:href="class_client_manager.html#abf05d2ac88337dfd02e0b7986ee1e18c" target="_top" xlink:title="Called when a message is received. ">
<polygon style="fill:white;stroke:black;" points="657,-286 657,-307 856,-307 856,-286 657,-286"/>
<text text-anchor="middle" x="756" y="-293" style="font-family:Arial;font-size:10.00;">ClientManager::MessageReceived</text>
</a>
</g>
<!-- Node2&#45;&gt;Node3 -->
<g id="edge4" class="edge"><title>Node2&#45;&gt;Node3</title>
<path style="fill:none;stroke:midnightblue;" d="M568,-369C619,-350 691,-322 730,-307"/>
<polygon style="fill:midnightblue;stroke:midnightblue;" points="566.717,-365.74 559,-373 569.56,-372.137 566.717,-365.74"/>
</g>
<!-- Node7 -->
<g id="node13" class="node"><title>Node7</title>
<a xlink:href="class_system_manager.html#a87443d7e75b0f170535d315c27237253" target="_top" xlink:title="SystemManager::AdvanceTimeStep">
<polygon style="fill:white;stroke:black;" points="410,-113 410,-134 620,-134 620,-113 410,-113"/>
<text text-anchor="middle" x="515" y="-120" style="font-family:Arial;font-size:10.00;">SystemManager::AdvanceTimeStep</text>
</a>
</g>
<!-- Node6&#45;&gt;Node7 -->
<g id="edge12" class="edge"><title>Node6&#45;&gt;Node7</title>
<path style="fill:none;stroke:midnightblue;" d="M351,-187C359,-185 366,-183 374,-181 418,-168 467,-147 494,-134"/>
<polygon style="fill:midnightblue;stroke:midnightblue;" points="350.119,-183.607 341,-189 351.492,-190.471 350.119,-183.607"/>
</g>
<!-- Node8 -->
<g id="node15" class="node"><title>Node8</title>
<a xlink:href="main_8cpp.html#a3c04138a5bfe5d72780bb7e82a18e627" target="_top" xlink:title="main">
<polygon style="fill:white;stroke:black;" points="734,-113 734,-134 778,-134 778,-113 734,-113"/>
<text text-anchor="middle" x="756" y="-120" style="font-family:Arial;font-size:10.00;">main</text>
</a>
</g>
<!-- Node7&#45;&gt;Node8 -->
<g id="edge14" class="edge"><title>Node7&#45;&gt;Node8</title>
<path style="fill:none;stroke:midnightblue;" d="M630,-124C670,-124 710,-124 734,-124"/>
<polygon style="fill:midnightblue;stroke:midnightblue;" points="630,-120.5 620,-124 630,-127.5 630,-120.5"/>
</g>
<!-- Node10 -->
<g id="node19" class="node"><title>Node10</title>
<a xlink:href="class_client_manager.html#a841299387a1dcd268266a3c0cfe2a95c" target="_top" xlink:title="Processes the price signal request. ">
<polygon style="fill:white;stroke:black;" points="435,-280 435,-314 596,-314 596,-280 435,-280"/>
<text text-anchor="start" x="443" y="-300" style="font-family:Arial;font-size:10.00;">ClientManager::ProcessGet</text>
<text text-anchor="middle" x="515" y="-287" style="font-family:Arial;font-size:10.00;">Price</text>
</a>
</g>
<!-- Node9&#45;&gt;Node10 -->
<g id="edge18" class="edge"><title>Node9&#45;&gt;Node10</title>
<path style="fill:none;stroke:midnightblue;" d="M364,-297C387,-297 412,-297 435,-297"/>
<polygon style="fill:midnightblue;stroke:midnightblue;" points="364,-293.5 354,-297 364,-300.5 364,-293.5"/>
</g>
<!-- Node10&#45;&gt;Node3 -->
<g id="edge20" class="edge"><title>Node10&#45;&gt;Node3</title>
<path style="fill:none;stroke:midnightblue;" d="M606,-297C623,-297 640,-297 657,-297"/>
<polygon style="fill:midnightblue;stroke:midnightblue;" points="606,-293.5 596,-297 606,-300.5 606,-293.5"/>
</g>
<!-- Node12 -->
<g id="node24" class="node"><title>Node12</title>
<a xlink:href="class_client_manager.html#ad8841acd386513f41ab0872c67593ff4" target="_top" xlink:title="Processes the demand negotiation response. ">
<polygon style="fill:white;stroke:black;" points="421,-228 421,-262 610,-262 610,-228 421,-228"/>
<text text-anchor="start" x="429" y="-248" style="font-family:Arial;font-size:10.00;">ClientManager::ProcessDemand</text>
<text text-anchor="middle" x="515" y="-235" style="font-family:Arial;font-size:10.00;">Negotiation</text>
</a>
</g>
<!-- Node11&#45;&gt;Node12 -->
<g id="edge24" class="edge"><title>Node11&#45;&gt;Node12</title>
<path style="fill:none;stroke:midnightblue;" d="M375,-245C390,-245 406,-245 421,-245"/>
<polygon style="fill:midnightblue;stroke:midnightblue;" points="375,-241.5 365,-245 375,-248.5 375,-241.5"/>
</g>
<!-- Node12&#45;&gt;Node3 -->
<g id="edge26" class="edge"><title>Node12&#45;&gt;Node3</title>
<path style="fill:none;stroke:midnightblue;" d="M604,-264C638,-272 676,-280 705,-286"/>
<polygon style="fill:midnightblue;stroke:midnightblue;" points="604.492,-260.529 594,-262 603.119,-267.393 604.492,-260.529"/>
</g>
<!-- Node14&#45;&gt;Node7 -->
<g id="edge32" class="edge"><title>Node14&#45;&gt;Node7</title>
<path style="fill:none;stroke:midnightblue;" d="M366,-124C380,-124 396,-124 410,-124"/>
<polygon style="fill:midnightblue;stroke:midnightblue;" points="366,-120.5 356,-124 366,-127.5 366,-120.5"/>
</g>
<!-- Node17&#45;&gt;Node7 -->
<g id="edge40" class="edge"><title>Node17&#45;&gt;Node7</title>
<path style="fill:none;stroke:midnightblue;" d="M356,-22C362,-24 368,-26 374,-29 426,-50 479,-92 502,-113"/>
<polygon style="fill:midnightblue;stroke:midnightblue;" points="356.492,-18.5292 346,-20 355.119,-25.3933 356.492,-18.5292"/>
</g>
</g>
</svg>
