<?xml version="1.0" encoding="UTF-8" standalone="no"?>
<!DOCTYPE svg PUBLIC "-//W3C//DTD SVG 1.0//EN"
 "http://www.w3.org/TR/2001/REC-SVG-20010904/DTD/svg10.dtd" [
 <!ATTLIST svg xmlns:xlink CDATA #FIXED "http://www.w3.org/1999/xlink">
]>
<!-- Generated by Graphviz version 2.14.1 (Fri Nov  9 08:19:38 GMT 2007)
     For user: (asakyurek) Alper Sinan Akyurek -->
<!-- Title: Callback Pages: 1 -->
<svg width="302pt" height="310pt"
 viewBox="0.00 0.00 302.00 310.00" xmlns="http://www.w3.org/2000/svg" xmlns:xlink="http://www.w3.org/1999/xlink">
<g id="graph0" class="graph" transform="scale(1 1) rotate(0) translate(4 306)">
<title>Callback</title>
<polygon style="fill:white;stroke:white;" points="-4,4 -4,-306 298,-306 298,4 -4,4"/>
<!-- Node1 -->
<g id="node1" class="node"><title>Node1</title>
<polygon style="fill:#bfbfbf;stroke:black;" points="1,-140 1,-161 64,-161 64,-140 1,-140"/>
<text text-anchor="middle" x="32" y="-147" style="font-family:Arial;font-size:10.00;">Callback</text>
</g>
<!-- Node2 -->
<g id="node3" class="node"><title>Node2</title>
<a xlink:href="class_callback_implementation.html" target="_top" xlink:title="CallbackImplementation\l\&lt; TObj, TIn1, TIn2, TIn3,\l TIn4 \&gt;">
<polygon style="fill:white;stroke:black;" points="122,-255 122,-302 273,-302 273,-255 122,-255"/>
<text text-anchor="start" x="130" y="-288" style="font-family:Arial;font-size:10.00;">CallbackImplementation</text>
<text text-anchor="start" x="130" y="-275" style="font-family:Arial;font-size:10.00;">&lt; TObj, TIn1, TIn2, TIn3,</text>
<text text-anchor="middle" x="197" y="-262" style="font-family:Arial;font-size:10.00;"> TIn4 &gt;</text>
</a>
</g>
<!-- Node1&#45;&gt;Node2 -->
<g id="edge2" class="edge"><title>Node1&#45;&gt;Node2</title>
<path style="fill:none;stroke:midnightblue;" d="M41,-170C52,-192 72,-226 100,-247 107,-252 114,-256 122,-259"/>
<polygon style="fill:midnightblue;stroke:midnightblue;" points="44.2598,-168.717 37,-161 37.8631,-171.56 44.2598,-168.717"/>
</g>
<!-- Node3 -->
<g id="node5" class="node"><title>Node3</title>
<a xlink:href="class_callback_implementation_3_01_t_obj_00_01_empty_class_00_01_empty_class_00_01_empty_class_00_01_empty_class_01_4.html" target="_top" xlink:title="CallbackImplementation\l\&lt; TObj, EmptyClass, EmptyClass,\l EmptyClass, EmptyClass \&gt;">
<polygon style="fill:white;stroke:black;" points="101,-191 101,-238 294,-238 294,-191 101,-191"/>
<text text-anchor="start" x="109" y="-224" style="font-family:Arial;font-size:10.00;">CallbackImplementation</text>
<text text-anchor="start" x="109" y="-211" style="font-family:Arial;font-size:10.00;">&lt; TObj, EmptyClass, EmptyClass,</text>
<text text-anchor="middle" x="197" y="-198" style="font-family:Arial;font-size:10.00;"> EmptyClass, EmptyClass &gt;</text>
</a>
</g>
<!-- Node1&#45;&gt;Node3 -->
<g id="edge4" class="edge"><title>Node1&#45;&gt;Node3</title>
<path style="fill:none;stroke:midnightblue;" d="M61,-166C74,-171 87,-177 100,-183 107,-186 115,-188 122,-191"/>
<polygon style="fill:midnightblue;stroke:midnightblue;" points="62.4414,-162.797 52,-161 59.0418,-168.916 62.4414,-162.797"/>
</g>
<!-- Node4 -->
<g id="node7" class="node"><title>Node4</title>
<a xlink:href="class_callback_implementation_3_01_t_obj_00_01_t_in1_00_01_empty_class_00_01_empty_class_00_01_empty_class_01_4.html" target="_top" xlink:title="CallbackImplementation\l\&lt; TObj, TIn1, EmptyClass,\l EmptyClass, EmptyClass \&gt;">
<polygon style="fill:white;stroke:black;" points="117,-127 117,-174 278,-174 278,-127 117,-127"/>
<text text-anchor="start" x="125" y="-160" style="font-family:Arial;font-size:10.00;">CallbackImplementation</text>
<text text-anchor="start" x="125" y="-147" style="font-family:Arial;font-size:10.00;">&lt; TObj, TIn1, EmptyClass,</text>
<text text-anchor="middle" x="197" y="-134" style="font-family:Arial;font-size:10.00;"> EmptyClass, EmptyClass &gt;</text>
</a>
</g>
<!-- Node1&#45;&gt;Node4 -->
<g id="edge6" class="edge"><title>Node1&#45;&gt;Node4</title>
<path style="fill:none;stroke:midnightblue;" d="M74,-151C87,-151 102,-151 117,-151"/>
<polygon style="fill:midnightblue;stroke:midnightblue;" points="74,-147.5 64,-151 74,-154.5 74,-147.5"/>
</g>
<!-- Node5 -->
<g id="node9" class="node"><title>Node5</title>
<a xlink:href="class_callback_implementation_3_01_t_obj_00_01_t_in1_00_01_t_in2_00_01_empty_class_00_01_empty_class_01_4.html" target="_top" xlink:title="CallbackImplementation\l\&lt; TObj, TIn1, TIn2, EmptyClass,\l EmptyClass \&gt;">
<polygon style="fill:white;stroke:black;" points="105,-63 105,-110 289,-110 289,-63 105,-63"/>
<text text-anchor="start" x="113" y="-96" style="font-family:Arial;font-size:10.00;">CallbackImplementation</text>
<text text-anchor="start" x="113" y="-83" style="font-family:Arial;font-size:10.00;">&lt; TObj, TIn1, TIn2, EmptyClass,</text>
<text text-anchor="middle" x="197" y="-70" style="font-family:Arial;font-size:10.00;"> EmptyClass &gt;</text>
</a>
</g>
<!-- Node1&#45;&gt;Node5 -->
<g id="edge8" class="edge"><title>Node1&#45;&gt;Node5</title>
<path style="fill:none;stroke:midnightblue;" d="M62,-135C74,-130 87,-124 100,-119 108,-116 116,-113 124,-110"/>
<polygon style="fill:midnightblue;stroke:midnightblue;" points="60.0418,-132.084 53,-140 63.4414,-138.203 60.0418,-132.084"/>
</g>
<!-- Node6 -->
<g id="node11" class="node"><title>Node6</title>
<a xlink:href="class_callback_implementation_3_01_t_obj_00_01_t_in1_00_01_t_in2_00_01_t_in3_00_01_empty_class_01_4.html" target="_top" xlink:title="CallbackImplementation\l\&lt; TObj, TIn1, TIn2, TIn3,\l EmptyClass \&gt;">
<polygon style="fill:white;stroke:black;" points="122,1 122,-46 273,-46 273,1 122,1"/>
<text text-anchor="start" x="130" y="-32" style="font-family:Arial;font-size:10.00;">CallbackImplementation</text>
<text text-anchor="start" x="130" y="-19" style="font-family:Arial;font-size:10.00;">&lt; TObj, TIn1, TIn2, TIn3,</text>
<text text-anchor="middle" x="197" y="-6" style="font-family:Arial;font-size:10.00;"> EmptyClass &gt;</text>
</a>
</g>
<!-- Node1&#45;&gt;Node6 -->
<g id="edge10" class="edge"><title>Node1&#45;&gt;Node6</title>
<path style="fill:none;stroke:midnightblue;" d="M41,-131C52,-109 73,-75 100,-55 107,-50 114,-46 122,-42"/>
<polygon style="fill:midnightblue;stroke:midnightblue;" points="37.8631,-129.44 37,-140 44.2598,-132.283 37.8631,-129.44"/>
</g>
</g>
</svg>
