<?xml version="1.0" encoding="UTF-8" standalone="no"?>
<!DOCTYPE svg PUBLIC "-//W3C//DTD SVG 1.0//EN"
 "http://www.w3.org/TR/2001/REC-SVG-20010904/DTD/svg10.dtd" [
 <!ATTLIST svg xmlns:xlink CDATA #FIXED "http://www.w3.org/1999/xlink">
]>
<!-- Generated by Graphviz version 2.14.1 (Fri Nov  9 08:19:38 GMT 2007)
     For user: (asakyurek) Alper Sinan Akyurek -->
<!-- Title: ControlManager::SetClient Pages: 1 -->
<svg width="600pt" height="28pt"
 viewBox="0.00 0.00 600.00 28.00" xmlns="http://www.w3.org/2000/svg" xmlns:xlink="http://www.w3.org/1999/xlink">
<g id="graph0" class="graph" transform="scale(1 1) rotate(0) translate(4 24)">
<title>ControlManager::SetClient</title>
<polygon style="fill:white;stroke:white;" points="-4,4 -4,-24 596,-24 596,4 -4,4"/>
<!-- Node1 -->
<g id="node1" class="node"><title>Node1</title>
<polygon style="fill:#bfbfbf;stroke:black;" points="0,1 0,-20 160,-20 160,1 0,1"/>
<text text-anchor="middle" x="80" y="-6" style="font-family:Arial;font-size:10.00;">ControlManager::SetClient</text>
</g>
<!-- Node2 -->
<g id="node3" class="node"><title>Node2</title>
<a xlink:href="_control_manager_8cpp.html#a5f09b25cf454170e17d1aa3c2707273a" target="_top" xlink:title="ControlNotificationHandler">
<polygon style="fill:white;stroke:black;" points="196,1 196,-20 358,-20 358,1 196,1"/>
<text text-anchor="middle" x="277" y="-6" style="font-family:Arial;font-size:10.00;">ControlNotificationHandler</text>
</a>
</g>
<!-- Node1&#45;&gt;Node2 -->
<g id="edge2" class="edge"><title>Node1&#45;&gt;Node2</title>
<path style="fill:none;stroke:midnightblue;" d="M170,-10C179,-10 187,-10 196,-10"/>
<polygon style="fill:midnightblue;stroke:midnightblue;" points="170,-6.5001 160,-10 170,-13.5001 170,-6.5001"/>
</g>
<!-- Node3 -->
<g id="node5" class="node"><title>Node3</title>
<a xlink:href="class_control_manager.html#ab81bac3e592705b7ca4b23ce473fe26e" target="_top" xlink:title="ControlManager::ControlManager">
<polygon style="fill:white;stroke:black;" points="394,1 394,-20 592,-20 592,1 394,1"/>
<text text-anchor="middle" x="493" y="-6" style="font-family:Arial;font-size:10.00;">ControlManager::ControlManager</text>
</a>
</g>
<!-- Node2&#45;&gt;Node3 -->
<g id="edge4" class="edge"><title>Node2&#45;&gt;Node3</title>
<path style="fill:none;stroke:midnightblue;" d="M368,-10C377,-10 385,-10 394,-10"/>
<polygon style="fill:midnightblue;stroke:midnightblue;" points="368,-6.5001 358,-10 368,-13.5001 368,-6.5001"/>
</g>
</g>
</svg>
