<?xml version="1.0" encoding="UTF-8" standalone="no"?>
<!DOCTYPE svg PUBLIC "-//W3C//DTD SVG 1.0//EN"
 "http://www.w3.org/TR/2001/REC-SVG-20010904/DTD/svg10.dtd" [
 <!ATTLIST svg xmlns:xlink CDATA #FIXED "http://www.w3.org/1999/xlink">
]>
<!-- Generated by Graphviz version 2.14.1 (Fri Nov  9 08:19:38 GMT 2007)
     For user: (asakyurek) Alper Sinan Akyurek -->
<!-- Title: ClientManager::ProcessClientData Pages: 1 -->
<svg width="546pt" height="140pt"
 viewBox="0.00 0.00 546.00 140.00" xmlns="http://www.w3.org/2000/svg" xmlns:xlink="http://www.w3.org/1999/xlink">
<g id="graph0" class="graph" transform="scale(1 1) rotate(0) translate(4 136)">
<title>ClientManager::ProcessClientData</title>
<polygon style="fill:white;stroke:white;" points="-4,4 -4,-136 542,-136 542,4 -4,4"/>
<!-- Node1 -->
<g id="node1" class="node"><title>Node1</title>
<polygon style="fill:#bfbfbf;stroke:black;" points="0,-59 0,-80 200,-80 200,-59 0,-59"/>
<text text-anchor="middle" x="100" y="-66" style="font-family:Arial;font-size:10.00;">ClientManager::ProcessClientData</text>
</g>
<!-- Node2 -->
<g id="node3" class="node"><title>Node2</title>
<a xlink:href="_log_print_8h.html#a7e0c5f42cad5bc3a44134fb9c9a7a052" target="_top" xlink:title="LogPrint">
<polygon style="fill:white;stroke:black;" points="465,-82 465,-103 525,-103 525,-82 465,-82"/>
<text text-anchor="middle" x="495" y="-89" style="font-family:Arial;font-size:10.00;">LogPrint</text>
</a>
</g>
<!-- Node1&#45;&gt;Node2 -->
<g id="edge2" class="edge"><title>Node1&#45;&gt;Node2</title>
<path style="fill:none;stroke:midnightblue;" d="M122,-80C148,-92 194,-111 236,-119 315,-132 338,-131 416,-119 431,-117 448,-112 462,-107"/>
<polygon style="fill:midnightblue;stroke:midnightblue;" points="463.283,-110.26 471,-103 460.44,-103.863 463.283,-110.26"/>
</g>
<!-- Node3 -->
<g id="node5" class="node"><title>Node3</title>
<a xlink:href="class_terra_swarm_1_1_synchronous_1_1_client_data.html#ac71da8ed6f56cfdac3f01131f6bef342" target="_top" xlink:title="TerraSwarm::Synchronous\l::ClientData::GetDataPoint">
<polygon style="fill:white;stroke:black;" points="247,-76 247,-110 405,-110 405,-76 247,-76"/>
<text text-anchor="start" x="255" y="-96" style="font-family:Arial;font-size:10.00;">TerraSwarm::Synchronous</text>
<text text-anchor="middle" x="326" y="-83" style="font-family:Arial;font-size:10.00;">::ClientData::GetDataPoint</text>
</a>
</g>
<!-- Node1&#45;&gt;Node3 -->
<g id="edge4" class="edge"><title>Node1&#45;&gt;Node3</title>
<path style="fill:none;stroke:midnightblue;" d="M198,-80C211,-82 224,-83 237,-84"/>
<polygon style="fill:midnightblue;stroke:midnightblue;" points="236.701,-87.4875 247,-85 237.398,-80.5222 236.701,-87.4875"/>
</g>
<!-- Node4 -->
<g id="node7" class="node"><title>Node4</title>
<a xlink:href="_system_manager_8cpp.html#a97e64f74d188d41051488578800d20cd" target="_top" xlink:title="GetSystemManager">
<polygon style="fill:white;stroke:black;" points="265,-37 265,-58 388,-58 388,-37 265,-37"/>
<text text-anchor="middle" x="326" y="-44" style="font-family:Arial;font-size:10.00;">GetSystemManager</text>
</a>
</g>
<!-- Node1&#45;&gt;Node4 -->
<g id="edge6" class="edge"><title>Node1&#45;&gt;Node4</title>
<path style="fill:none;stroke:midnightblue;" d="M200,-60C218,-58 237,-57 255,-55"/>
<polygon style="fill:midnightblue;stroke:midnightblue;" points="255.398,-58.4778 265,-54 254.701,-51.5125 255.398,-58.4778"/>
</g>
<!-- Node5 -->
<g id="node9" class="node"><title>Node5</title>
<a xlink:href="class_system_manager.html#abaf36dbd2e75a773f2ddc40ac82e5f3b" target="_top" xlink:title="SystemManager::RegisterData">
<polygon style="fill:white;stroke:black;" points="236,1 236,-20 416,-20 416,1 236,1"/>
<text text-anchor="middle" x="326" y="-6" style="font-family:Arial;font-size:10.00;">SystemManager::RegisterData</text>
</a>
</g>
<!-- Node1&#45;&gt;Node5 -->
<g id="edge8" class="edge"><title>Node1&#45;&gt;Node5</title>
<path style="fill:none;stroke:midnightblue;" d="M133,-59C161,-50 201,-38 236,-29 245,-27 254,-25 263,-22"/>
<polygon style="fill:midnightblue;stroke:midnightblue;" points="263.881,-25.3933 273,-20 262.508,-18.5292 263.881,-25.3933"/>
</g>
<!-- Node5&#45;&gt;Node2 -->
<g id="edge10" class="edge"><title>Node5&#45;&gt;Node2</title>
<path style="fill:none;stroke:midnightblue;" d="M392,-20C401,-22 409,-25 416,-29 440,-40 463,-60 478,-75"/>
<polygon style="fill:midnightblue;stroke:midnightblue;" points="475.454,-77.4038 485,-82 480.404,-72.454 475.454,-77.4038"/>
</g>
<!-- Node6 -->
<g id="node12" class="node"><title>Node6</title>
<a xlink:href="_log_print_8h.html#a46ea30a62534f8ce32cd39454e459b23" target="_top" xlink:title="WarningPrint">
<polygon style="fill:white;stroke:black;" points="453,1 453,-20 538,-20 538,1 453,1"/>
<text text-anchor="middle" x="495" y="-6" style="font-family:Arial;font-size:10.00;">WarningPrint</text>
</a>
</g>
<!-- Node5&#45;&gt;Node6 -->
<g id="edge12" class="edge"><title>Node5&#45;&gt;Node6</title>
<path style="fill:none;stroke:midnightblue;" d="M416,-10C425,-10 434,-10 443,-10"/>
<polygon style="fill:midnightblue;stroke:midnightblue;" points="443,-13.5001 453,-10 443,-6.5001 443,-13.5001"/>
</g>
</g>
</svg>
