<?xml version="1.0" encoding="UTF-8" standalone="no"?>
<!DOCTYPE svg PUBLIC "-//W3C//DTD SVG 1.0//EN"
 "http://www.w3.org/TR/2001/REC-SVG-20010904/DTD/svg10.dtd" [
 <!ATTLIST svg xmlns:xlink CDATA #FIXED "http://www.w3.org/1999/xlink">
]>
<!-- Generated by Graphviz version 2.14.1 (Fri Nov  9 08:19:38 GMT 2007)
     For user: (asakyurek) Alper Sinan Akyurek -->
<!-- Title: ThreadedTCPServer::SetNotificationCallback Pages: 1 -->
<svg width="386pt" height="118pt"
 viewBox="0.00 0.00 386.00 118.00" xmlns="http://www.w3.org/2000/svg" xmlns:xlink="http://www.w3.org/1999/xlink">
<g id="graph0" class="graph" transform="scale(1 1) rotate(0) translate(4 114)">
<title>ThreadedTCPServer::SetNotificationCallback</title>
<polygon style="fill:white;stroke:white;" points="-4,4 -4,-114 382,-114 382,4 -4,4"/>
<!-- Node1 -->
<g id="node1" class="node"><title>Node1</title>
<polygon style="fill:#bfbfbf;stroke:black;" points="0,-31 0,-65 144,-65 144,-31 0,-31"/>
<text text-anchor="start" x="8" y="-51" style="font-family:Arial;font-size:10.00;">ThreadedTCPServer::</text>
<text text-anchor="middle" x="72" y="-38" style="font-family:Arial;font-size:10.00;">SetNotificationCallback</text>
</g>
<!-- Node2 -->
<g id="node3" class="node"><title>Node2</title>
<a xlink:href="class_connection_manager.html#a7928f3e95b4e88b01c11eaf3e8089ee7" target="_top" xlink:title="ConnectionManager::\lConnectionManager">
<polygon style="fill:white;stroke:black;" points="213,-76 213,-110 346,-110 346,-76 213,-76"/>
<text text-anchor="start" x="221" y="-96" style="font-family:Arial;font-size:10.00;">ConnectionManager::</text>
<text text-anchor="middle" x="279" y="-83" style="font-family:Arial;font-size:10.00;">ConnectionManager</text>
</a>
</g>
<!-- Node1&#45;&gt;Node2 -->
<g id="edge2" class="edge"><title>Node1&#45;&gt;Node2</title>
<path style="fill:none;stroke:midnightblue;" d="M154,-66C173,-70 194,-75 213,-79"/>
<polygon style="fill:midnightblue;stroke:midnightblue;" points="154.492,-62.5292 144,-64 153.119,-69.3933 154.492,-62.5292"/>
</g>
<!-- Node3 -->
<g id="node5" class="node"><title>Node3</title>
<a xlink:href="class_control_manager.html#ab81bac3e592705b7ca4b23ce473fe26e" target="_top" xlink:title="ControlManager::ControlManager">
<polygon style="fill:white;stroke:black;" points="180,-37 180,-58 378,-58 378,-37 180,-37"/>
<text text-anchor="middle" x="279" y="-44" style="font-family:Arial;font-size:10.00;">ControlManager::ControlManager</text>
</a>
</g>
<!-- Node1&#45;&gt;Node3 -->
<g id="edge4" class="edge"><title>Node1&#45;&gt;Node3</title>
<path style="fill:none;stroke:midnightblue;" d="M154,-48C163,-48 171,-48 180,-48"/>
<polygon style="fill:midnightblue;stroke:midnightblue;" points="154,-44.5001 144,-48 154,-51.5001 154,-44.5001"/>
</g>
<!-- Node4 -->
<g id="node7" class="node"><title>Node4</title>
<a xlink:href="class_matlab_manager.html#a319d996a8872d9cdba8cf335520af258" target="_top" xlink:title="MatlabManager::MatlabManager">
<polygon style="fill:white;stroke:black;" points="183,1 183,-20 375,-20 375,1 183,1"/>
<text text-anchor="middle" x="279" y="-6" style="font-family:Arial;font-size:10.00;">MatlabManager::MatlabManager</text>
</a>
</g>
<!-- Node1&#45;&gt;Node4 -->
<g id="edge6" class="edge"><title>Node1&#45;&gt;Node4</title>
<path style="fill:none;stroke:midnightblue;" d="M154,-33C178,-29 203,-24 225,-20"/>
<polygon style="fill:midnightblue;stroke:midnightblue;" points="153.119,-29.6067 144,-35 154.492,-36.4708 153.119,-29.6067"/>
</g>
</g>
</svg>
