<?xml version="1.0" encoding="UTF-8" standalone="no"?>
<!DOCTYPE svg PUBLIC "-//W3C//DTD SVG 1.0//EN"
 "http://www.w3.org/TR/2001/REC-SVG-20010904/DTD/svg10.dtd" [
 <!ATTLIST svg xmlns:xlink CDATA #FIXED "http://www.w3.org/1999/xlink">
]>
<!-- Generated by Graphviz version 2.14.1 (Fri Nov  9 08:19:38 GMT 2007)
     For user: (asakyurek) Alper Sinan Akyurek -->
<!-- Title: CallbackImplementation&lt; TObj, TIn1, TIn2, TIn3, TIn4 &gt; Pages: 1 -->
<svg width="158pt" height="114pt"
 viewBox="0.00 0.00 158.00 114.00" xmlns="http://www.w3.org/2000/svg" xmlns:xlink="http://www.w3.org/1999/xlink">
<g id="graph0" class="graph" transform="scale(1 1) rotate(0) translate(4 110)">
<title>CallbackImplementation&lt; TObj, TIn1, TIn2, TIn3, TIn4 &gt;</title>
<polygon style="fill:white;stroke:white;" points="-4,4 -4,-110 154,-110 154,4 -4,4"/>
<!-- Node1 -->
<g id="node1" class="node"><title>Node1</title>
<polygon style="fill:#bfbfbf;stroke:black;" points="0,-0 0,-47 151,-47 151,-0 0,-0"/>
<text text-anchor="start" x="8" y="-33" style="font-family:Arial;font-size:10.00;">CallbackImplementation</text>
<text text-anchor="start" x="8" y="-20" style="font-family:Arial;font-size:10.00;">&lt; TObj, TIn1, TIn2, TIn3,</text>
<text text-anchor="middle" x="75" y="-7" style="font-family:Arial;font-size:10.00;"> TIn4 &gt;</text>
</g>
<!-- Node2 -->
<g id="node2" class="node"><title>Node2</title>
<a xlink:href="class_callback.html" target="_top" xlink:title="Callback">
<polygon style="fill:white;stroke:black;" points="44,-84 44,-105 107,-105 107,-84 44,-84"/>
<text text-anchor="middle" x="75" y="-91" style="font-family:Arial;font-size:10.00;">Callback</text>
</a>
</g>
<!-- Node2&#45;&gt;Node1 -->
<g id="edge2" class="edge"><title>Node2&#45;&gt;Node1</title>
<path style="fill:none;stroke:midnightblue;" d="M75,-74C75,-65 75,-55 75,-47"/>
<polygon style="fill:midnightblue;stroke:midnightblue;" points="71.5001,-74 75,-84 78.5001,-74 71.5001,-74"/>
</g>
</g>
</svg>
