<?xml version="1.0" encoding="UTF-8" standalone="no"?>
<!DOCTYPE svg PUBLIC "-//W3C//DTD SVG 1.0//EN"
 "http://www.w3.org/TR/2001/REC-SVG-20010904/DTD/svg10.dtd" [
 <!ATTLIST svg xmlns:xlink CDATA #FIXED "http://www.w3.org/1999/xlink">
]>
<!-- Generated by Graphviz version 2.14.1 (Fri Nov  9 08:19:38 GMT 2007)
     For user: (asakyurek) Alper Sinan Akyurek -->
<!-- Title: SystemManager::GetSystemTime Pages: 1 -->
<svg width="652pt" height="42pt"
 viewBox="0.00 0.00 652.00 42.00" xmlns="http://www.w3.org/2000/svg" xmlns:xlink="http://www.w3.org/1999/xlink">
<g id="graph0" class="graph" transform="scale(1 1) rotate(0) translate(4 38)">
<title>SystemManager::GetSystemTime</title>
<polygon style="fill:white;stroke:white;" points="-4,4 -4,-38 648,-38 648,4 -4,4"/>
<!-- Node1 -->
<g id="node1" class="node"><title>Node1</title>
<polygon style="fill:#bfbfbf;stroke:black;" points="1,-6 1,-27 198,-27 198,-6 1,-6"/>
<text text-anchor="middle" x="99" y="-13" style="font-family:Arial;font-size:10.00;">SystemManager::GetSystemTime</text>
</g>
<!-- Node2 -->
<g id="node3" class="node"><title>Node2</title>
<a xlink:href="class_client_manager.html#a6d544b4d20cd3b906b6a033c8d70e4a5" target="_top" xlink:title="Processes an asynchronous client connection request. ">
<polygon style="fill:white;stroke:black;" points="234,-0 234,-34 408,-34 408,-0 234,-0"/>
<text text-anchor="start" x="242" y="-20" style="font-family:Arial;font-size:10.00;">ClientManager::ProcessClient</text>
<text text-anchor="middle" x="321" y="-7" style="font-family:Arial;font-size:10.00;">ConnectionRequest</text>
</a>
</g>
<!-- Node1&#45;&gt;Node2 -->
<g id="edge2" class="edge"><title>Node1&#45;&gt;Node2</title>
<path style="fill:none;stroke:midnightblue;" d="M208,-17C217,-17 225,-17 234,-17"/>
<polygon style="fill:midnightblue;stroke:midnightblue;" points="208,-13.5001 198,-17 208,-20.5001 208,-13.5001"/>
</g>
<!-- Node3 -->
<g id="node5" class="node"><title>Node3</title>
<a xlink:href="class_client_manager.html#abf05d2ac88337dfd02e0b7986ee1e18c" target="_top" xlink:title="Called when a message is received. ">
<polygon style="fill:white;stroke:black;" points="445,-6 445,-27 644,-27 644,-6 445,-6"/>
<text text-anchor="middle" x="544" y="-13" style="font-family:Arial;font-size:10.00;">ClientManager::MessageReceived</text>
</a>
</g>
<!-- Node2&#45;&gt;Node3 -->
<g id="edge4" class="edge"><title>Node2&#45;&gt;Node3</title>
<path style="fill:none;stroke:midnightblue;" d="M418,-17C427,-17 436,-17 445,-17"/>
<polygon style="fill:midnightblue;stroke:midnightblue;" points="418,-13.5001 408,-17 418,-20.5001 418,-13.5001"/>
</g>
</g>
</svg>
