<?xml version="1.0" encoding="UTF-8" standalone="no"?>
<!DOCTYPE svg PUBLIC "-//W3C//DTD SVG 1.0//EN"
 "http://www.w3.org/TR/2001/REC-SVG-20010904/DTD/svg10.dtd" [
 <!ATTLIST svg xmlns:xlink CDATA #FIXED "http://www.w3.org/1999/xlink">
]>
<!-- Generated by Graphviz version 2.14.1 (Fri Nov  9 08:19:38 GMT 2007)
     For user: (asakyurek) Alper Sinan Akyurek -->
<!-- Title: ClientManager::SetCurrentPrice Pages: 1 -->
<svg width="336pt" height="80pt"
 viewBox="0.00 0.00 336.00 80.00" xmlns="http://www.w3.org/2000/svg" xmlns:xlink="http://www.w3.org/1999/xlink">
<g id="graph0" class="graph" transform="scale(1 1) rotate(0) translate(4 76)">
<title>ClientManager::SetCurrentPrice</title>
<polygon style="fill:white;stroke:white;" points="-4,4 -4,-76 332,-76 332,4 -4,4"/>
<!-- Node1 -->
<g id="node1" class="node"><title>Node1</title>
<polygon style="fill:#bfbfbf;stroke:black;" points="1,-22 1,-56 162,-56 162,-22 1,-22"/>
<text text-anchor="start" x="9" y="-42" style="font-family:Arial;font-size:10.00;">ClientManager::SetCurrent</text>
<text text-anchor="middle" x="81" y="-29" style="font-family:Arial;font-size:10.00;">Price</text>
</g>
<!-- Node2 -->
<g id="node3" class="node"><title>Node2</title>
<a xlink:href="_log_print_8h.html#a7e0c5f42cad5bc3a44134fb9c9a7a052" target="_top" xlink:title="LogPrint">
<polygon style="fill:white;stroke:black;" points="233,-51 233,-72 293,-72 293,-51 233,-51"/>
<text text-anchor="middle" x="263" y="-58" style="font-family:Arial;font-size:10.00;">LogPrint</text>
</a>
</g>
<!-- Node1&#45;&gt;Node2 -->
<g id="edge2" class="edge"><title>Node1&#45;&gt;Node2</title>
<path style="fill:none;stroke:midnightblue;" d="M162,-49C183,-52 205,-54 223,-57"/>
<polygon style="fill:midnightblue;stroke:midnightblue;" points="222.701,-60.4875 233,-58 223.398,-53.5222 222.701,-60.4875"/>
</g>
<!-- Node3 -->
<g id="node5" class="node"><title>Node3</title>
<a xlink:href="class_t_c_p_connected_client.html#a7c3a1d1172f3880b48d35ffbf255712d" target="_top" xlink:title="TCPConnectedClient\l::SendData">
<polygon style="fill:white;stroke:black;" points="199,-0 199,-34 328,-34 328,-0 199,-0"/>
<text text-anchor="start" x="207" y="-20" style="font-family:Arial;font-size:10.00;">TCPConnectedClient</text>
<text text-anchor="middle" x="263" y="-7" style="font-family:Arial;font-size:10.00;">::SendData</text>
</a>
</g>
<!-- Node1&#45;&gt;Node3 -->
<g id="edge4" class="edge"><title>Node1&#45;&gt;Node3</title>
<path style="fill:none;stroke:midnightblue;" d="M162,-29C171,-28 180,-27 189,-26"/>
<polygon style="fill:midnightblue;stroke:midnightblue;" points="189.398,-29.4778 199,-25 188.701,-22.5125 189.398,-29.4778"/>
</g>
</g>
</svg>
