<?xml version="1.0" encoding="UTF-8" standalone="no"?>
<!DOCTYPE svg PUBLIC "-//W3C//DTD SVG 1.0//EN"
 "http://www.w3.org/TR/2001/REC-SVG-20010904/DTD/svg10.dtd" [
 <!ATTLIST svg xmlns:xlink CDATA #FIXED "http://www.w3.org/1999/xlink">
]>
<!-- Generated by Graphviz version 2.14.1 (Fri Nov  9 08:19:38 GMT 2007)
     For user: (asakyurek) Alper Sinan Akyurek -->
<!-- Title: MatlabManager::ProcessData Pages: 1 -->
<svg width="304pt" height="104pt"
 viewBox="0.00 0.00 304.00 104.00" xmlns="http://www.w3.org/2000/svg" xmlns:xlink="http://www.w3.org/1999/xlink">
<g id="graph0" class="graph" transform="scale(1 1) rotate(0) translate(4 100)">
<title>MatlabManager::ProcessData</title>
<polygon style="fill:white;stroke:white;" points="-4,4 -4,-100 300,-100 300,4 -4,4"/>
<!-- Node1 -->
<g id="node1" class="node"><title>Node1</title>
<polygon style="fill:#bfbfbf;stroke:black;" points="1,-37 1,-58 174,-58 174,-37 1,-37"/>
<text text-anchor="middle" x="87" y="-44" style="font-family:Arial;font-size:10.00;">MatlabManager::ProcessData</text>
</g>
<!-- Node2 -->
<g id="node3" class="node"><title>Node2</title>
<a xlink:href="_log_print_8h.html#a7e0c5f42cad5bc3a44134fb9c9a7a052" target="_top" xlink:title="LogPrint">
<polygon style="fill:white;stroke:black;" points="223,-75 223,-96 283,-96 283,-75 223,-75"/>
<text text-anchor="middle" x="253" y="-82" style="font-family:Arial;font-size:10.00;">LogPrint</text>
</a>
</g>
<!-- Node1&#45;&gt;Node2 -->
<g id="edge2" class="edge"><title>Node1&#45;&gt;Node2</title>
<path style="fill:none;stroke:midnightblue;" d="M131,-58C156,-63 188,-71 213,-77"/>
<polygon style="fill:midnightblue;stroke:midnightblue;" points="212.508,-80.4708 223,-79 213.881,-73.6067 212.508,-80.4708"/>
</g>
<!-- Node3 -->
<g id="node5" class="node"><title>Node3</title>
<a xlink:href="_log_print_8h.html#a46ea30a62534f8ce32cd39454e459b23" target="_top" xlink:title="WarningPrint">
<polygon style="fill:white;stroke:black;" points="211,-37 211,-58 296,-58 296,-37 211,-37"/>
<text text-anchor="middle" x="253" y="-44" style="font-family:Arial;font-size:10.00;">WarningPrint</text>
</a>
</g>
<!-- Node1&#45;&gt;Node3 -->
<g id="edge4" class="edge"><title>Node1&#45;&gt;Node3</title>
<path style="fill:none;stroke:midnightblue;" d="M174,-48C183,-48 192,-48 201,-48"/>
<polygon style="fill:midnightblue;stroke:midnightblue;" points="201,-51.5001 211,-48 201,-44.5001 201,-51.5001"/>
</g>
<!-- Node4 -->
<g id="node7" class="node"><title>Node4</title>
<a xlink:href="_log_print_8h.html#af783a2ea2c57c5f51f905a24f3f5a835" target="_top" xlink:title="ErrorPrint">
<polygon style="fill:white;stroke:black;" points="221,1 221,-20 286,-20 286,1 221,1"/>
<text text-anchor="middle" x="253" y="-6" style="font-family:Arial;font-size:10.00;">ErrorPrint</text>
</a>
</g>
<!-- Node1&#45;&gt;Node4 -->
<g id="edge6" class="edge"><title>Node1&#45;&gt;Node4</title>
<path style="fill:none;stroke:midnightblue;" d="M135,-37C159,-32 188,-25 211,-19"/>
<polygon style="fill:midnightblue;stroke:midnightblue;" points="211.881,-22.3933 221,-17 210.508,-15.5292 211.881,-22.3933"/>
</g>
</g>
</svg>
