<?xml version="1.0" encoding="UTF-8" standalone="no"?>
<!DOCTYPE svg PUBLIC "-//W3C//DTD SVG 1.0//EN"
 "http://www.w3.org/TR/2001/REC-SVG-20010904/DTD/svg10.dtd" [
 <!ATTLIST svg xmlns:xlink CDATA #FIXED "http://www.w3.org/1999/xlink">
]>
<!-- Generated by Graphviz version 2.14.1 (Fri Nov  9 08:19:38 GMT 2007)
     For user: (asakyurek) Alper Sinan Akyurek -->
<!-- Title: ConnectionManager::DeleteClient Pages: 1 -->
<svg width="588pt" height="94pt"
 viewBox="0.00 0.00 588.00 94.00" xmlns="http://www.w3.org/2000/svg" xmlns:xlink="http://www.w3.org/1999/xlink">
<g id="graph0" class="graph" transform="scale(1 1) rotate(0) translate(4 90)">
<title>ConnectionManager::DeleteClient</title>
<polygon style="fill:white;stroke:white;" points="-4,4 -4,-90 584,-90 584,4 -4,4"/>
<!-- Node1 -->
<g id="node1" class="node"><title>Node1</title>
<polygon style="fill:#bfbfbf;stroke:black;" points="1,-26 1,-60 134,-60 134,-26 1,-26"/>
<text text-anchor="start" x="9" y="-46" style="font-family:Arial;font-size:10.00;">ConnectionManager::</text>
<text text-anchor="middle" x="67" y="-33" style="font-family:Arial;font-size:10.00;">DeleteClient</text>
</g>
<!-- Node2 -->
<g id="node3" class="node"><title>Node2</title>
<a xlink:href="class_client_manager.html#a4fa8fc5731587276f5e6be92563474fa" target="_top" xlink:title="Handles the broken connection case. ">
<polygon style="fill:white;stroke:black;" points="175,-52 175,-86 340,-86 340,-52 175,-52"/>
<text text-anchor="start" x="183" y="-72" style="font-family:Arial;font-size:10.00;">ClientManager::Connection</text>
<text text-anchor="middle" x="257" y="-59" style="font-family:Arial;font-size:10.00;">Broken</text>
</a>
</g>
<!-- Node1&#45;&gt;Node2 -->
<g id="edge2" class="edge"><title>Node1&#45;&gt;Node2</title>
<path style="fill:none;stroke:midnightblue;" d="M144,-54C154,-55 164,-57 175,-58"/>
<polygon style="fill:midnightblue;stroke:midnightblue;" points="144.492,-50.5292 134,-52 143.119,-57.3933 144.492,-50.5292"/>
</g>
<!-- Node3 -->
<g id="node5" class="node"><title>Node3</title>
<a xlink:href="class_client_manager.html#a6d544b4d20cd3b906b6a033c8d70e4a5" target="_top" xlink:title="Processes an asynchronous client connection request. ">
<polygon style="fill:white;stroke:black;" points="170,-0 170,-34 344,-34 344,-0 170,-0"/>
<text text-anchor="start" x="178" y="-20" style="font-family:Arial;font-size:10.00;">ClientManager::ProcessClient</text>
<text text-anchor="middle" x="257" y="-7" style="font-family:Arial;font-size:10.00;">ConnectionRequest</text>
</a>
</g>
<!-- Node1&#45;&gt;Node3 -->
<g id="edge4" class="edge"><title>Node1&#45;&gt;Node3</title>
<path style="fill:none;stroke:midnightblue;" d="M144,-33C153,-31 161,-30 170,-29"/>
<polygon style="fill:midnightblue;stroke:midnightblue;" points="143.602,-29.5222 134,-34 144.299,-36.4875 143.602,-29.5222"/>
</g>
<!-- Node4 -->
<g id="node7" class="node"><title>Node4</title>
<a xlink:href="class_client_manager.html#abf05d2ac88337dfd02e0b7986ee1e18c" target="_top" xlink:title="Called when a message is received. ">
<polygon style="fill:white;stroke:black;" points="381,-6 381,-27 580,-27 580,-6 381,-6"/>
<text text-anchor="middle" x="480" y="-13" style="font-family:Arial;font-size:10.00;">ClientManager::MessageReceived</text>
</a>
</g>
<!-- Node3&#45;&gt;Node4 -->
<g id="edge6" class="edge"><title>Node3&#45;&gt;Node4</title>
<path style="fill:none;stroke:midnightblue;" d="M354,-17C363,-17 372,-17 381,-17"/>
<polygon style="fill:midnightblue;stroke:midnightblue;" points="354,-13.5001 344,-17 354,-20.5001 354,-13.5001"/>
</g>
</g>
</svg>
