<?xml version="1.0" encoding="UTF-8" standalone="no"?>
<!DOCTYPE svg PUBLIC "-//W3C//DTD SVG 1.0//EN"
 "http://www.w3.org/TR/2001/REC-SVG-20010904/DTD/svg10.dtd" [
 <!ATTLIST svg xmlns:xlink CDATA #FIXED "http://www.w3.org/1999/xlink">
]>
<!-- Generated by Graphviz version 2.14.1 (Fri Nov  9 08:19:38 GMT 2007)
     For user: (asakyurek) Alper Sinan Akyurek -->
<!-- Title: ClientManager Pages: 1 -->
<svg width="486pt" height="306pt"
 viewBox="0.00 0.00 486.00 306.00" xmlns="http://www.w3.org/2000/svg" xmlns:xlink="http://www.w3.org/1999/xlink">
<g id="graph0" class="graph" transform="scale(1 1) rotate(0) translate(4 302)">
<title>ClientManager</title>
<polygon style="fill:white;stroke:white;" points="-4,4 -4,-302 482,-302 482,4 -4,4"/>
<!-- Node1 -->
<g id="node1" class="node"><title>Node1</title>
<polygon style="fill:#bfbfbf;stroke:black;" points="240,-0 240,-21 336,-21 336,-0 240,-0"/>
<text text-anchor="middle" x="288" y="-7" style="font-family:Arial;font-size:10.00;">ClientManager</text>
</g>
<!-- Node2 -->
<g id="node2" class="node"><title>Node2</title>
<a xlink:href="class_threaded_t_c_p_connected_client.html" target="_top" xlink:title="ThreadedTCPConnectedClient">
<polygon style="fill:white;stroke:black;" points="197,-72 197,-93 379,-93 379,-72 197,-72"/>
<text text-anchor="middle" x="288" y="-79" style="font-family:Arial;font-size:10.00;">ThreadedTCPConnectedClient</text>
</a>
</g>
<!-- Node2&#45;&gt;Node1 -->
<g id="edge2" class="edge"><title>Node2&#45;&gt;Node1</title>
<path style="fill:none;stroke:#9a32cd;stroke-dasharray:5,2;" d="M288,-62C288,-48 288,-32 288,-21"/>
<polygon style="fill:#9a32cd;stroke:#9a32cd;" points="284.5,-62 288,-72 291.5,-62 284.5,-62"/>
<text text-anchor="middle" x="312" y="-44" style="font-family:Arial;font-size:10.00;"> m_client</text>
</g>
<!-- Node2&#45;&gt;Node2 -->
<g id="edge14" class="edge"><title>Node2&#45;&gt;Node2</title>
<path style="fill:none;stroke:#9a32cd;stroke-dasharray:5,2;" d="M389,-86C394,-86 397,-84 397,-83 397,-81 390,-79 379,-79"/>
<polygon style="fill:#9a32cd;stroke:#9a32cd;" points="388.602,-82.5222 379,-87 389.299,-89.4875 388.602,-82.5222"/>
<text text-anchor="middle" x="437" y="-80" style="font-family:Arial;font-size:10.00;"> m_notification</text>
</g>
<!-- Node3 -->
<g id="node4" class="node"><title>Node3</title>
<a xlink:href="class_t_c_p_connected_client.html" target="_top" xlink:title="TCPConnectedClient">
<polygon style="fill:white;stroke:black;" points="133,-132 133,-153 262,-153 262,-132 133,-132"/>
<text text-anchor="middle" x="197" y="-139" style="font-family:Arial;font-size:10.00;">TCPConnectedClient</text>
</a>
</g>
<!-- Node3&#45;&gt;Node2 -->
<g id="edge4" class="edge"><title>Node3&#45;&gt;Node2</title>
<path style="fill:none;stroke:midnightblue;" d="M223,-126C239,-116 259,-102 273,-93"/>
<polygon style="fill:midnightblue;stroke:midnightblue;" points="220.379,-123.541 214,-132 224.262,-129.365 220.379,-123.541"/>
</g>
<!-- Node4 -->
<g id="node6" class="node"><title>Node4</title>
<a xlink:href="class_socket_base.html" target="_top" xlink:title="SocketBase\&lt; SOCK_STREAM \&gt;">
<polygon style="fill:white;stroke:black;" points="0,-204 0,-225 182,-225 182,-204 0,-204"/>
<text text-anchor="middle" x="91" y="-211" style="font-family:Arial;font-size:10.00;">SocketBase&lt; SOCK_STREAM &gt;</text>
</a>
</g>
<!-- Node4&#45;&gt;Node3 -->
<g id="edge6" class="edge"><title>Node4&#45;&gt;Node3</title>
<path style="fill:none;stroke:midnightblue;" d="M116,-198C137,-184 165,-165 182,-153"/>
<polygon style="fill:midnightblue;stroke:midnightblue;" points="113.9,-195.2 108,-204 118.1,-200.8 113.9,-195.2"/>
</g>
<!-- Node5 -->
<g id="node8" class="node"><title>Node5</title>
<a xlink:href="class_socket_base.html" target="_top" xlink:title="SocketBase\&lt; SocketType \&gt;">
<polygon style="fill:white;stroke:black;" points="8,-276 8,-297 174,-297 174,-276 8,-276"/>
<text text-anchor="middle" x="91" y="-283" style="font-family:Arial;font-size:10.00;">SocketBase&lt; SocketType &gt;</text>
</a>
</g>
<!-- Node5&#45;&gt;Node4 -->
<g id="edge8" class="edge"><title>Node5&#45;&gt;Node4</title>
<path style="fill:none;stroke:orange;stroke-dasharray:5,2;" d="M91,-266C91,-252 91,-236 91,-225"/>
<polygon style="fill:orange;stroke:orange;" points="87.5001,-266 91,-276 94.5001,-266 87.5001,-266"/>
<text text-anchor="middle" x="144" y="-248" style="font-family:Arial;font-size:10.00;"> &lt; SOCK_STREAM &gt;</text>
</g>
<!-- Node6 -->
<g id="node10" class="node"><title>Node6</title>
<a xlink:href="class_i_p_address.html" target="_top" xlink:title="IPAddress">
<polygon style="fill:white;stroke:black;" points="200,-204 200,-225 267,-225 267,-204 200,-204"/>
<text text-anchor="middle" x="233" y="-211" style="font-family:Arial;font-size:10.00;">IPAddress</text>
</a>
</g>
<!-- Node6&#45;&gt;Node3 -->
<g id="edge10" class="edge"><title>Node6&#45;&gt;Node3</title>
<path style="fill:none;stroke:#9a32cd;stroke-dasharray:5,2;" d="M223,-195C216,-181 208,-164 202,-153"/>
<polygon style="fill:#9a32cd;stroke:#9a32cd;" points="219.74,-196.283 227,-204 226.137,-193.44 219.74,-196.283"/>
<text text-anchor="middle" x="266" y="-176" style="font-family:Arial;font-size:10.00;"> m_clientAddress</text>
</g>
<!-- Node7 -->
<g id="node12" class="node"><title>Node7</title>
<a xlink:href="class_thread_base.html" target="_top" xlink:title="ThreadBase">
<polygon style="fill:white;stroke:black;" points="279,-132 279,-153 360,-153 360,-132 279,-132"/>
<text text-anchor="middle" x="319" y="-139" style="font-family:Arial;font-size:10.00;">ThreadBase</text>
</a>
</g>
<!-- Node7&#45;&gt;Node2 -->
<g id="edge12" class="edge"><title>Node7&#45;&gt;Node2</title>
<path style="fill:none;stroke:#8b1a1a;" d="M308,-123C303,-113 298,-101 293,-93"/>
<polygon style="fill:#8b1a1a;stroke:#8b1a1a;" points="305.084,-124.958 313,-132 311.203,-121.559 305.084,-124.958"/>
</g>
</g>
</svg>
