<?xml version="1.0" encoding="UTF-8" standalone="no"?>
<!DOCTYPE svg PUBLIC "-//W3C//DTD SVG 1.0//EN"
 "http://www.w3.org/TR/2001/REC-SVG-20010904/DTD/svg10.dtd" [
 <!ATTLIST svg xmlns:xlink CDATA #FIXED "http://www.w3.org/1999/xlink">
]>
<!-- Generated by Graphviz version 2.14.1 (Fri Nov  9 08:19:38 GMT 2007)
     For user: (asakyurek) Alper Sinan Akyurek -->
<!-- Title: MatlabManager::IsClientPresent Pages: 1 -->
<svg width="362pt" height="156pt"
 viewBox="0.00 0.00 362.00 156.00" xmlns="http://www.w3.org/2000/svg" xmlns:xlink="http://www.w3.org/1999/xlink">
<g id="graph0" class="graph" transform="scale(1 1) rotate(0) translate(4 152)">
<title>MatlabManager::IsClientPresent</title>
<polygon style="fill:white;stroke:white;" points="-4,4 -4,-152 358,-152 358,4 -4,4"/>
<!-- Node1 -->
<g id="node1" class="node"><title>Node1</title>
<polygon style="fill:#bfbfbf;stroke:black;" points="1,-66 1,-87 188,-87 188,-66 1,-66"/>
<text text-anchor="middle" x="94" y="-73" style="font-family:Arial;font-size:10.00;">MatlabManager::IsClientPresent</text>
</g>
<!-- Node2 -->
<g id="node3" class="node"><title>Node2</title>
<a xlink:href="_log_print_8h.html#a7e0c5f42cad5bc3a44134fb9c9a7a052" target="_top" xlink:title="LogPrint">
<polygon style="fill:white;stroke:black;" points="259,-127 259,-148 319,-148 319,-127 259,-127"/>
<text text-anchor="middle" x="289" y="-134" style="font-family:Arial;font-size:10.00;">LogPrint</text>
</a>
</g>
<!-- Node1&#45;&gt;Node2 -->
<g id="edge2" class="edge"><title>Node1&#45;&gt;Node2</title>
<path style="fill:none;stroke:midnightblue;" d="M124,-87C151,-96 190,-108 224,-119 232,-121 241,-124 249,-126"/>
<polygon style="fill:midnightblue;stroke:midnightblue;" points="248.416,-129.479 259,-129 250.427,-122.774 248.416,-129.479"/>
</g>
<!-- Node3 -->
<g id="node5" class="node"><title>Node3</title>
<a xlink:href="_log_print_8h.html#af783a2ea2c57c5f51f905a24f3f5a835" target="_top" xlink:title="ErrorPrint">
<polygon style="fill:white;stroke:black;" points="257,-89 257,-110 322,-110 322,-89 257,-89"/>
<text text-anchor="middle" x="289" y="-96" style="font-family:Arial;font-size:10.00;">ErrorPrint</text>
</a>
</g>
<!-- Node1&#45;&gt;Node3 -->
<g id="edge4" class="edge"><title>Node1&#45;&gt;Node3</title>
<path style="fill:none;stroke:midnightblue;" d="M179,-87C203,-90 227,-93 247,-95"/>
<polygon style="fill:midnightblue;stroke:midnightblue;" points="246.701,-98.4875 257,-96 247.398,-91.5222 246.701,-98.4875"/>
</g>
<!-- Node4 -->
<g id="node7" class="node"><title>Node4</title>
<a xlink:href="class_t_c_p_connected_client.html#a7c3a1d1172f3880b48d35ffbf255712d" target="_top" xlink:title="TCPConnectedClient\l::SendData">
<polygon style="fill:white;stroke:black;" points="225,-38 225,-72 354,-72 354,-38 225,-38"/>
<text text-anchor="start" x="233" y="-58" style="font-family:Arial;font-size:10.00;">TCPConnectedClient</text>
<text text-anchor="middle" x="289" y="-45" style="font-family:Arial;font-size:10.00;">::SendData</text>
</a>
</g>
<!-- Node1&#45;&gt;Node4 -->
<g id="edge6" class="edge"><title>Node1&#45;&gt;Node4</title>
<path style="fill:none;stroke:midnightblue;" d="M188,-66C197,-65 206,-64 215,-63"/>
<polygon style="fill:midnightblue;stroke:midnightblue;" points="215.398,-66.4778 225,-62 214.701,-59.5125 215.398,-66.4778"/>
</g>
<!-- Node5 -->
<g id="node9" class="node"><title>Node5</title>
<a xlink:href="_log_print_8h.html#a46ea30a62534f8ce32cd39454e459b23" target="_top" xlink:title="WarningPrint">
<polygon style="fill:white;stroke:black;" points="247,1 247,-20 332,-20 332,1 247,1"/>
<text text-anchor="middle" x="289" y="-6" style="font-family:Arial;font-size:10.00;">WarningPrint</text>
</a>
</g>
<!-- Node1&#45;&gt;Node5 -->
<g id="edge8" class="edge"><title>Node1&#45;&gt;Node5</title>
<path style="fill:none;stroke:midnightblue;" d="M122,-66C148,-56 189,-41 224,-29 230,-27 236,-25 242,-23"/>
<polygon style="fill:midnightblue;stroke:midnightblue;" points="243.427,-26.2259 252,-20 241.416,-19.5212 243.427,-26.2259"/>
</g>
</g>
</svg>
