<?xml version="1.0" encoding="UTF-8" standalone="no"?>
<!DOCTYPE svg PUBLIC "-//W3C//DTD SVG 1.0//EN"
 "http://www.w3.org/TR/2001/REC-SVG-20010904/DTD/svg10.dtd" [
 <!ATTLIST svg xmlns:xlink CDATA #FIXED "http://www.w3.org/1999/xlink">
]>
<!-- Generated by Graphviz version 2.14.1 (Fri Nov  9 08:19:38 GMT 2007)
     For user: (asakyurek) Alper Sinan Akyurek -->
<!-- Title: MatlabManager::GetVoltage Pages: 1 -->
<svg width="342pt" height="156pt"
 viewBox="0.00 0.00 342.00 156.00" xmlns="http://www.w3.org/2000/svg" xmlns:xlink="http://www.w3.org/1999/xlink">
<g id="graph0" class="graph" transform="scale(1 1) rotate(0) translate(4 152)">
<title>MatlabManager::GetVoltage</title>
<polygon style="fill:white;stroke:white;" points="-4,4 -4,-152 338,-152 338,4 -4,4"/>
<!-- Node1 -->
<g id="node1" class="node"><title>Node1</title>
<polygon style="fill:#bfbfbf;stroke:black;" points="0,-66 0,-87 168,-87 168,-66 0,-66"/>
<text text-anchor="middle" x="84" y="-73" style="font-family:Arial;font-size:10.00;">MatlabManager::GetVoltage</text>
</g>
<!-- Node2 -->
<g id="node3" class="node"><title>Node2</title>
<a xlink:href="_log_print_8h.html#a7e0c5f42cad5bc3a44134fb9c9a7a052" target="_top" xlink:title="LogPrint">
<polygon style="fill:white;stroke:black;" points="239,-127 239,-148 299,-148 299,-127 239,-127"/>
<text text-anchor="middle" x="269" y="-134" style="font-family:Arial;font-size:10.00;">LogPrint</text>
</a>
</g>
<!-- Node1&#45;&gt;Node2 -->
<g id="edge2" class="edge"><title>Node1&#45;&gt;Node2</title>
<path style="fill:none;stroke:midnightblue;" d="M112,-87C137,-96 173,-108 204,-119 212,-122 221,-124 229,-126"/>
<polygon style="fill:midnightblue;stroke:midnightblue;" points="228.416,-129.479 239,-129 230.427,-122.774 228.416,-129.479"/>
</g>
<!-- Node3 -->
<g id="node5" class="node"><title>Node3</title>
<a xlink:href="_log_print_8h.html#af783a2ea2c57c5f51f905a24f3f5a835" target="_top" xlink:title="ErrorPrint">
<polygon style="fill:white;stroke:black;" points="237,-89 237,-110 302,-110 302,-89 237,-89"/>
<text text-anchor="middle" x="269" y="-96" style="font-family:Arial;font-size:10.00;">ErrorPrint</text>
</a>
</g>
<!-- Node1&#45;&gt;Node3 -->
<g id="edge4" class="edge"><title>Node1&#45;&gt;Node3</title>
<path style="fill:none;stroke:midnightblue;" d="M165,-87C186,-90 208,-92 227,-95"/>
<polygon style="fill:midnightblue;stroke:midnightblue;" points="226.701,-98.4875 237,-96 227.398,-91.5222 226.701,-98.4875"/>
</g>
<!-- Node4 -->
<g id="node7" class="node"><title>Node4</title>
<a xlink:href="class_t_c_p_connected_client.html#a7c3a1d1172f3880b48d35ffbf255712d" target="_top" xlink:title="TCPConnectedClient\l::SendData">
<polygon style="fill:white;stroke:black;" points="205,-38 205,-72 334,-72 334,-38 205,-38"/>
<text text-anchor="start" x="213" y="-58" style="font-family:Arial;font-size:10.00;">TCPConnectedClient</text>
<text text-anchor="middle" x="269" y="-45" style="font-family:Arial;font-size:10.00;">::SendData</text>
</a>
</g>
<!-- Node1&#45;&gt;Node4 -->
<g id="edge6" class="edge"><title>Node1&#45;&gt;Node4</title>
<path style="fill:none;stroke:midnightblue;" d="M168,-67C177,-66 186,-65 195,-64"/>
<polygon style="fill:midnightblue;stroke:midnightblue;" points="195.398,-67.4778 205,-63 194.701,-60.5125 195.398,-67.4778"/>
</g>
<!-- Node5 -->
<g id="node9" class="node"><title>Node5</title>
<a xlink:href="_log_print_8h.html#a46ea30a62534f8ce32cd39454e459b23" target="_top" xlink:title="WarningPrint">
<polygon style="fill:white;stroke:black;" points="227,1 227,-20 312,-20 312,1 227,1"/>
<text text-anchor="middle" x="269" y="-6" style="font-family:Arial;font-size:10.00;">WarningPrint</text>
</a>
</g>
<!-- Node1&#45;&gt;Node5 -->
<g id="edge8" class="edge"><title>Node1&#45;&gt;Node5</title>
<path style="fill:none;stroke:midnightblue;" d="M109,-66C133,-56 171,-40 204,-29 210,-27 216,-25 222,-23"/>
<polygon style="fill:midnightblue;stroke:midnightblue;" points="223.427,-26.2259 232,-20 221.416,-19.5212 223.427,-26.2259"/>
</g>
</g>
</svg>
