<?xml version="1.0" encoding="UTF-8" standalone="no"?>
<!DOCTYPE svg PUBLIC "-//W3C//DTD SVG 1.0//EN"
 "http://www.w3.org/TR/2001/REC-SVG-20010904/DTD/svg10.dtd" [
 <!ATTLIST svg xmlns:xlink CDATA #FIXED "http://www.w3.org/1999/xlink">
]>
<!-- Generated by Graphviz version 2.14.1 (Fri Nov  9 08:19:38 GMT 2007)
     For user: (asakyurek) Alper Sinan Akyurek -->
<!-- Title: TCPConnectedClient Pages: 1 -->
<svg width="316pt" height="174pt"
 viewBox="0.00 0.00 316.00 174.00" xmlns="http://www.w3.org/2000/svg" xmlns:xlink="http://www.w3.org/1999/xlink">
<g id="graph0" class="graph" transform="scale(1 1) rotate(0) translate(4 170)">
<title>TCPConnectedClient</title>
<polygon style="fill:white;stroke:white;" points="-4,4 -4,-170 312,-170 312,4 -4,4"/>
<!-- Node1 -->
<g id="node1" class="node"><title>Node1</title>
<polygon style="fill:#bfbfbf;stroke:black;" points="133,-0 133,-21 262,-21 262,-0 133,-0"/>
<text text-anchor="middle" x="197" y="-7" style="font-family:Arial;font-size:10.00;">TCPConnectedClient</text>
</g>
<!-- Node2 -->
<g id="node2" class="node"><title>Node2</title>
<a xlink:href="class_socket_base.html" target="_top" xlink:title="SocketBase\&lt; SOCK_STREAM \&gt;">
<polygon style="fill:white;stroke:black;" points="0,-72 0,-93 182,-93 182,-72 0,-72"/>
<text text-anchor="middle" x="91" y="-79" style="font-family:Arial;font-size:10.00;">SocketBase&lt; SOCK_STREAM &gt;</text>
</a>
</g>
<!-- Node2&#45;&gt;Node1 -->
<g id="edge2" class="edge"><title>Node2&#45;&gt;Node1</title>
<path style="fill:none;stroke:midnightblue;" d="M116,-66C137,-52 165,-33 182,-21"/>
<polygon style="fill:midnightblue;stroke:midnightblue;" points="113.9,-63.2 108,-72 118.1,-68.8 113.9,-63.2"/>
</g>
<!-- Node3 -->
<g id="node4" class="node"><title>Node3</title>
<a xlink:href="class_socket_base.html" target="_top" xlink:title="SocketBase\&lt; SocketType \&gt;">
<polygon style="fill:white;stroke:black;" points="8,-144 8,-165 174,-165 174,-144 8,-144"/>
<text text-anchor="middle" x="91" y="-151" style="font-family:Arial;font-size:10.00;">SocketBase&lt; SocketType &gt;</text>
</a>
</g>
<!-- Node3&#45;&gt;Node2 -->
<g id="edge4" class="edge"><title>Node3&#45;&gt;Node2</title>
<path style="fill:none;stroke:orange;stroke-dasharray:5,2;" d="M91,-134C91,-120 91,-104 91,-93"/>
<polygon style="fill:orange;stroke:orange;" points="87.5001,-134 91,-144 94.5001,-134 87.5001,-134"/>
<text text-anchor="middle" x="144" y="-116" style="font-family:Arial;font-size:10.00;"> &lt; SOCK_STREAM &gt;</text>
</g>
<!-- Node4 -->
<g id="node6" class="node"><title>Node4</title>
<a xlink:href="class_i_p_address.html" target="_top" xlink:title="IPAddress">
<polygon style="fill:white;stroke:black;" points="200,-72 200,-93 267,-93 267,-72 200,-72"/>
<text text-anchor="middle" x="233" y="-79" style="font-family:Arial;font-size:10.00;">IPAddress</text>
</a>
</g>
<!-- Node4&#45;&gt;Node1 -->
<g id="edge6" class="edge"><title>Node4&#45;&gt;Node1</title>
<path style="fill:none;stroke:#9a32cd;stroke-dasharray:5,2;" d="M223,-63C216,-49 208,-32 202,-21"/>
<polygon style="fill:#9a32cd;stroke:#9a32cd;" points="219.74,-64.2834 227,-72 226.137,-61.4404 219.74,-64.2834"/>
<text text-anchor="middle" x="263" y="-44" style="font-family:Arial;font-size:10.00;"> m_clientAddress</text>
</g>
</g>
</svg>
