<?xml version="1.0" encoding="UTF-8" standalone="no"?>
<!DOCTYPE svg PUBLIC "-//W3C//DTD SVG 1.0//EN"
 "http://www.w3.org/TR/2001/REC-SVG-20010904/DTD/svg10.dtd" [
 <!ATTLIST svg xmlns:xlink CDATA #FIXED "http://www.w3.org/1999/xlink">
]>
<!-- Generated by Graphviz version 2.14.1 (Fri Nov  9 08:19:38 GMT 2007)
     For user: (asakyurek) Alper Sinan Akyurek -->
<!-- Title: SystemManager::RegisterData Pages: 1 -->
<svg width="310pt" height="66pt"
 viewBox="0.00 0.00 310.00 66.00" xmlns="http://www.w3.org/2000/svg" xmlns:xlink="http://www.w3.org/1999/xlink">
<g id="graph0" class="graph" transform="scale(1 1) rotate(0) translate(4 62)">
<title>SystemManager::RegisterData</title>
<polygon style="fill:white;stroke:white;" points="-4,4 -4,-62 306,-62 306,4 -4,4"/>
<!-- Node1 -->
<g id="node1" class="node"><title>Node1</title>
<polygon style="fill:#bfbfbf;stroke:black;" points="0,-18 0,-39 180,-39 180,-18 0,-18"/>
<text text-anchor="middle" x="90" y="-25" style="font-family:Arial;font-size:10.00;">SystemManager::RegisterData</text>
</g>
<!-- Node2 -->
<g id="node3" class="node"><title>Node2</title>
<a xlink:href="_log_print_8h.html#a7e0c5f42cad5bc3a44134fb9c9a7a052" target="_top" xlink:title="LogPrint">
<polygon style="fill:white;stroke:black;" points="229,-37 229,-58 289,-58 289,-37 229,-37"/>
<text text-anchor="middle" x="259" y="-44" style="font-family:Arial;font-size:10.00;">LogPrint</text>
</a>
</g>
<!-- Node1&#45;&gt;Node2 -->
<g id="edge2" class="edge"><title>Node1&#45;&gt;Node2</title>
<path style="fill:none;stroke:midnightblue;" d="M179,-39C193,-41 207,-42 219,-44"/>
<polygon style="fill:midnightblue;stroke:midnightblue;" points="218.701,-47.4875 229,-45 219.398,-40.5222 218.701,-47.4875"/>
</g>
<!-- Node3 -->
<g id="node5" class="node"><title>Node3</title>
<a xlink:href="_log_print_8h.html#a46ea30a62534f8ce32cd39454e459b23" target="_top" xlink:title="WarningPrint">
<polygon style="fill:white;stroke:black;" points="217,1 217,-20 302,-20 302,1 217,1"/>
<text text-anchor="middle" x="259" y="-6" style="font-family:Arial;font-size:10.00;">WarningPrint</text>
</a>
</g>
<!-- Node1&#45;&gt;Node3 -->
<g id="edge4" class="edge"><title>Node1&#45;&gt;Node3</title>
<path style="fill:none;stroke:midnightblue;" d="M180,-19C189,-18 198,-17 207,-16"/>
<polygon style="fill:midnightblue;stroke:midnightblue;" points="207.398,-19.4778 217,-15 206.701,-12.5125 207.398,-19.4778"/>
</g>
</g>
</svg>
