<?xml version="1.0" encoding="UTF-8" standalone="no"?>
<!DOCTYPE svg PUBLIC "-//W3C//DTD SVG 1.0//EN"
 "http://www.w3.org/TR/2001/REC-SVG-20010904/DTD/svg10.dtd" [
 <!ATTLIST svg xmlns:xlink CDATA #FIXED "http://www.w3.org/1999/xlink">
]>
<!-- Generated by Graphviz version 2.14.1 (Fri Nov  9 08:19:38 GMT 2007)
     For user: (asakyurek) Alper Sinan Akyurek -->
<!-- Title: TerraSwarm::Synchronous::DemandNegotiation::GetNumberOfDataPoints Pages: 1 -->
<svg width="892pt" height="79pt"
 viewBox="0.00 0.00 892.00 79.00" xmlns="http://www.w3.org/2000/svg" xmlns:xlink="http://www.w3.org/1999/xlink">
<g id="graph0" class="graph" transform="scale(1 1) rotate(0) translate(4 75)">
<title>TerraSwarm::Synchronous::DemandNegotiation::GetNumberOfDataPoints</title>
<polygon style="fill:white;stroke:white;" points="-4,4 -4,-75 888,-75 888,4 -4,4"/>
<!-- Node1 -->
<g id="node1" class="node"><title>Node1</title>
<polygon style="fill:#bfbfbf;stroke:black;" points="0,-24 0,-71 202,-71 202,-24 0,-24"/>
<text text-anchor="start" x="8" y="-57" style="font-family:Arial;font-size:10.00;">TerraSwarm::Synchronous</text>
<text text-anchor="start" x="8" y="-44" style="font-family:Arial;font-size:10.00;">::DemandNegotiation::GetNumber</text>
<text text-anchor="middle" x="101" y="-31" style="font-family:Arial;font-size:10.00;">OfDataPoints</text>
</g>
<!-- Node2 -->
<g id="node3" class="node"><title>Node2</title>
<a xlink:href="class_client_manager.html#ad8841acd386513f41ab0872c67593ff4" target="_top" xlink:title="Processes the demand negotiation response. ">
<polygon style="fill:white;stroke:black;" points="459,-31 459,-65 648,-65 648,-31 459,-31"/>
<text text-anchor="start" x="467" y="-51" style="font-family:Arial;font-size:10.00;">ClientManager::ProcessDemand</text>
<text text-anchor="middle" x="553" y="-38" style="font-family:Arial;font-size:10.00;">Negotiation</text>
</a>
</g>
<!-- Node1&#45;&gt;Node2 -->
<g id="edge2" class="edge"><title>Node1&#45;&gt;Node2</title>
<path style="fill:none;stroke:midnightblue;" d="M212,-54C221,-54 230,-55 238,-55 320,-57 341,-57 422,-55 434,-55 447,-54 459,-53"/>
<polygon style="fill:midnightblue;stroke:midnightblue;" points="212,-50.5001 202,-54 212,-57.5001 212,-50.5001"/>
</g>
<!-- Node4 -->
<g id="node7" class="node"><title>Node4</title>
<a xlink:href="class_terra_swarm_1_1_synchronous_1_1_demand_negotiation.html#ab99ce665f0822299184ff34cf5e674d2" target="_top" xlink:title="TerraSwarm::Synchronous\l::DemandNegotiation::GetData\lPoints">
<polygon style="fill:white;stroke:black;" points="238,1 238,-46 422,-46 422,1 238,1"/>
<text text-anchor="start" x="246" y="-32" style="font-family:Arial;font-size:10.00;">TerraSwarm::Synchronous</text>
<text text-anchor="start" x="246" y="-19" style="font-family:Arial;font-size:10.00;">::DemandNegotiation::GetData</text>
<text text-anchor="middle" x="330" y="-6" style="font-family:Arial;font-size:10.00;">Points</text>
</a>
</g>
<!-- Node1&#45;&gt;Node4 -->
<g id="edge6" class="edge"><title>Node1&#45;&gt;Node4</title>
<path style="fill:none;stroke:midnightblue;" d="M212,-36C221,-35 229,-34 238,-33"/>
<polygon style="fill:midnightblue;stroke:midnightblue;" points="211.602,-32.5222 202,-37 212.299,-39.4875 211.602,-32.5222"/>
</g>
<!-- Node3 -->
<g id="node5" class="node"><title>Node3</title>
<a xlink:href="class_client_manager.html#abf05d2ac88337dfd02e0b7986ee1e18c" target="_top" xlink:title="Called when a message is received. ">
<polygon style="fill:white;stroke:black;" points="685,-37 685,-58 884,-58 884,-37 685,-37"/>
<text text-anchor="middle" x="784" y="-44" style="font-family:Arial;font-size:10.00;">ClientManager::MessageReceived</text>
</a>
</g>
<!-- Node2&#45;&gt;Node3 -->
<g id="edge4" class="edge"><title>Node2&#45;&gt;Node3</title>
<path style="fill:none;stroke:midnightblue;" d="M658,-48C667,-48 676,-48 685,-48"/>
<polygon style="fill:midnightblue;stroke:midnightblue;" points="658,-44.5001 648,-48 658,-51.5001 658,-44.5001"/>
</g>
<!-- Node4&#45;&gt;Node2 -->
<g id="edge8" class="edge"><title>Node4&#45;&gt;Node2</title>
<path style="fill:none;stroke:midnightblue;" d="M432,-34C441,-35 450,-36 459,-37"/>
<polygon style="fill:midnightblue;stroke:midnightblue;" points="432.299,-30.5125 422,-33 431.602,-37.4778 432.299,-30.5125"/>
</g>
</g>
</svg>
