<?xml version="1.0" encoding="UTF-8" standalone="no"?>
<!DOCTYPE svg PUBLIC "-//W3C//DTD SVG 1.0//EN"
 "http://www.w3.org/TR/2001/REC-SVG-20010904/DTD/svg10.dtd" [
 <!ATTLIST svg xmlns:xlink CDATA #FIXED "http://www.w3.org/1999/xlink">
]>
<!-- Generated by Graphviz version 2.14.1 (Fri Nov  9 08:19:38 GMT 2007)
     For user: (asakyurek) Alper Sinan Akyurek -->
<!-- Title: ConnectionManager::BrokenConnection Pages: 1 -->
<svg width="736pt" height="42pt"
 viewBox="0.00 0.00 736.00 42.00" xmlns="http://www.w3.org/2000/svg" xmlns:xlink="http://www.w3.org/1999/xlink">
<g id="graph0" class="graph" transform="scale(1 1) rotate(0) translate(4 38)">
<title>ConnectionManager::BrokenConnection</title>
<polygon style="fill:white;stroke:white;" points="-4,4 -4,-38 732,-38 732,4 -4,4"/>
<!-- Node1 -->
<g id="node1" class="node"><title>Node1</title>
<polygon style="fill:#bfbfbf;stroke:black;" points="1,-0 1,-34 134,-34 134,-0 1,-0"/>
<text text-anchor="start" x="9" y="-20" style="font-family:Arial;font-size:10.00;">ConnectionManager::</text>
<text text-anchor="middle" x="67" y="-7" style="font-family:Arial;font-size:10.00;">BrokenConnection</text>
</g>
<!-- Node2 -->
<g id="node3" class="node"><title>Node2</title>
<a xlink:href="_connection_manager_8h.html#a2e30244a123626dc9199117c06d257ab" target="_top" xlink:title="Wrapper callback method for reception notification. ">
<polygon style="fill:white;stroke:black;" points="171,-6 171,-27 336,-27 336,-6 171,-6"/>
<text text-anchor="middle" x="253" y="-13" style="font-family:Arial;font-size:10.00;">ConnectionReceiveHandler</text>
</a>
</g>
<!-- Node1&#45;&gt;Node2 -->
<g id="edge2" class="edge"><title>Node1&#45;&gt;Node2</title>
<path style="fill:none;stroke:midnightblue;" d="M144,-17C153,-17 162,-17 171,-17"/>
<polygon style="fill:midnightblue;stroke:midnightblue;" points="144,-13.5001 134,-17 144,-20.5001 144,-13.5001"/>
</g>
<!-- Node3 -->
<g id="node5" class="node"><title>Node3</title>
<a xlink:href="_connection_manager_8cpp.html#a510f5a0926d162b7f546fcf5b8f054e8" target="_top" xlink:title="ConnectionNotificationHandler">
<polygon style="fill:white;stroke:black;" points="373,-6 373,-27 558,-27 558,-6 373,-6"/>
<text text-anchor="middle" x="465" y="-13" style="font-family:Arial;font-size:10.00;">ConnectionNotificationHandler</text>
</a>
</g>
<!-- Node2&#45;&gt;Node3 -->
<g id="edge4" class="edge"><title>Node2&#45;&gt;Node3</title>
<path style="fill:none;stroke:midnightblue;" d="M346,-17C355,-17 364,-17 373,-17"/>
<polygon style="fill:midnightblue;stroke:midnightblue;" points="346,-13.5001 336,-17 346,-20.5001 346,-13.5001"/>
</g>
<!-- Node4 -->
<g id="node7" class="node"><title>Node4</title>
<a xlink:href="class_connection_manager.html#a7928f3e95b4e88b01c11eaf3e8089ee7" target="_top" xlink:title="ConnectionManager::\lConnectionManager">
<polygon style="fill:white;stroke:black;" points="595,-0 595,-34 728,-34 728,-0 595,-0"/>
<text text-anchor="start" x="603" y="-20" style="font-family:Arial;font-size:10.00;">ConnectionManager::</text>
<text text-anchor="middle" x="661" y="-7" style="font-family:Arial;font-size:10.00;">ConnectionManager</text>
</a>
</g>
<!-- Node3&#45;&gt;Node4 -->
<g id="edge6" class="edge"><title>Node3&#45;&gt;Node4</title>
<path style="fill:none;stroke:midnightblue;" d="M568,-17C577,-17 586,-17 595,-17"/>
<polygon style="fill:midnightblue;stroke:midnightblue;" points="568,-13.5001 558,-17 568,-20.5001 568,-13.5001"/>
</g>
</g>
</svg>
