<?xml version="1.0" encoding="UTF-8" standalone="no"?>
<!DOCTYPE svg PUBLIC "-//W3C//DTD SVG 1.0//EN"
 "http://www.w3.org/TR/2001/REC-SVG-20010904/DTD/svg10.dtd" [
 <!ATTLIST svg xmlns:xlink CDATA #FIXED "http://www.w3.org/1999/xlink">
]>
<!-- Generated by Graphviz version 2.14.1 (Fri Nov  9 08:19:38 GMT 2007)
     For user: (asakyurek) Alper Sinan Akyurek -->
<!-- Title: MatlabManager Pages: 1 -->
<svg width="410pt" height="398pt"
 viewBox="0.00 0.00 410.00 398.00" xmlns="http://www.w3.org/2000/svg" xmlns:xlink="http://www.w3.org/1999/xlink">
<g id="graph0" class="graph" transform="scale(1 1) rotate(0) translate(4 394)">
<title>MatlabManager</title>
<polygon style="fill:white;stroke:white;" points="-4,4 -4,-394 406,-394 406,4 -4,4"/>
<!-- Node1 -->
<g id="node1" class="node"><title>Node1</title>
<polygon style="fill:#bfbfbf;stroke:black;" points="110,-0 110,-21 211,-21 211,-0 110,-0"/>
<text text-anchor="middle" x="160" y="-7" style="font-family:Arial;font-size:10.00;">MatlabManager</text>
</g>
<!-- Node2 -->
<g id="node2" class="node"><title>Node2</title>
<a xlink:href="class_threaded_t_c_p_connected_client.html" target="_top" xlink:title="ThreadedTCPConnectedClient">
<polygon style="fill:white;stroke:black;" points="0,-144 0,-165 182,-165 182,-144 0,-144"/>
<text text-anchor="middle" x="91" y="-151" style="font-family:Arial;font-size:10.00;">ThreadedTCPConnectedClient</text>
</a>
</g>
<!-- Node2&#45;&gt;Node1 -->
<g id="edge2" class="edge"><title>Node2&#45;&gt;Node1</title>
<path style="fill:none;stroke:#9a32cd;stroke-dasharray:5,2;" d="M101,-135C116,-104 144,-44 155,-21"/>
<polygon style="fill:#9a32cd;stroke:#9a32cd;" points="97.7969,-133.559 96,-144 103.916,-136.958 97.7969,-133.559"/>
<text text-anchor="middle" x="155" y="-80" style="font-family:Arial;font-size:10.00;"> m_client</text>
</g>
<!-- Node2&#45;&gt;Node2 -->
<g id="edge14" class="edge"><title>Node2&#45;&gt;Node2</title>
<path style="fill:none;stroke:#9a32cd;stroke-dasharray:5,2;" d="M192,-160C197,-158 200,-157 200,-155 200,-152 193,-150 182,-149"/>
<polygon style="fill:#9a32cd;stroke:#9a32cd;" points="191.602,-156.522 182,-161 192.299,-163.488 191.602,-156.522"/>
<text text-anchor="middle" x="240" y="-152" style="font-family:Arial;font-size:10.00;"> m_notification</text>
</g>
<!-- Node8 -->
<g id="node15" class="node"><title>Node8</title>
<a xlink:href="class_threaded_t_c_p_server.html" target="_top" xlink:title="ThreadedTCPServer">
<polygon style="fill:white;stroke:black;" points="203,-72 203,-93 328,-93 328,-72 203,-72"/>
<text text-anchor="middle" x="265" y="-79" style="font-family:Arial;font-size:10.00;">ThreadedTCPServer</text>
</a>
</g>
<!-- Node2&#45;&gt;Node8 -->
<g id="edge24" class="edge"><title>Node2&#45;&gt;Node8</title>
<path style="fill:none;stroke:#9a32cd;stroke-dasharray:5,2;" d="M127,-140C162,-126 212,-105 241,-93"/>
<polygon style="fill:#9a32cd;stroke:#9a32cd;" points="125.717,-136.74 118,-144 128.56,-143.137 125.717,-136.74"/>
<text text-anchor="middle" x="227" y="-116" style="font-family:Arial;font-size:10.00;"> m_notification</text>
</g>
<!-- Node3 -->
<g id="node4" class="node"><title>Node3</title>
<a xlink:href="class_t_c_p_connected_client.html" target="_top" xlink:title="TCPConnectedClient">
<polygon style="fill:white;stroke:black;" points="70,-224 70,-245 199,-245 199,-224 70,-224"/>
<text text-anchor="middle" x="134" y="-231" style="font-family:Arial;font-size:10.00;">TCPConnectedClient</text>
</a>
</g>
<!-- Node3&#45;&gt;Node2 -->
<g id="edge4" class="edge"><title>Node3&#45;&gt;Node2</title>
<path style="fill:none;stroke:midnightblue;" d="M123,-215C114,-199 103,-177 96,-165"/>
<polygon style="fill:midnightblue;stroke:midnightblue;" points="120.084,-216.958 128,-224 126.203,-213.559 120.084,-216.958"/>
</g>
<!-- Node4 -->
<g id="node6" class="node"><title>Node4</title>
<a xlink:href="class_socket_base.html" target="_top" xlink:title="SocketBase\&lt; SOCK_STREAM \&gt;">
<polygon style="fill:white;stroke:black;" points="205,-296 205,-317 387,-317 387,-296 205,-296"/>
<text text-anchor="middle" x="296" y="-303" style="font-family:Arial;font-size:10.00;">SocketBase&lt; SOCK_STREAM &gt;</text>
</a>
</g>
<!-- Node4&#45;&gt;Node3 -->
<g id="edge6" class="edge"><title>Node4&#45;&gt;Node3</title>
<path style="fill:none;stroke:midnightblue;" d="M274,-290C261,-281 244,-271 229,-264 212,-256 193,-250 176,-245"/>
<polygon style="fill:midnightblue;stroke:midnightblue;" points="271.9,-292.8 282,-296 276.1,-287.2 271.9,-292.8"/>
</g>
<!-- Node9 -->
<g id="node17" class="node"><title>Node9</title>
<a xlink:href="class_t_c_p_server.html" target="_top" xlink:title="TCPServer">
<polygon style="fill:white;stroke:black;" points="324,-184 324,-205 396,-205 396,-184 324,-184"/>
<text text-anchor="middle" x="360" y="-191" style="font-family:Arial;font-size:10.00;">TCPServer</text>
</a>
</g>
<!-- Node4&#45;&gt;Node9 -->
<g id="edge20" class="edge"><title>Node4&#45;&gt;Node9</title>
<path style="fill:none;stroke:midnightblue;" d="M307,-287C321,-263 343,-224 354,-205"/>
<polygon style="fill:midnightblue;stroke:midnightblue;" points="303.797,-285.559 302,-296 309.916,-288.958 303.797,-285.559"/>
</g>
<!-- Node5 -->
<g id="node8" class="node"><title>Node5</title>
<a xlink:href="class_socket_base.html" target="_top" xlink:title="SocketBase\&lt; SocketType \&gt;">
<polygon style="fill:white;stroke:black;" points="213,-368 213,-389 379,-389 379,-368 213,-368"/>
<text text-anchor="middle" x="296" y="-375" style="font-family:Arial;font-size:10.00;">SocketBase&lt; SocketType &gt;</text>
</a>
</g>
<!-- Node5&#45;&gt;Node4 -->
<g id="edge8" class="edge"><title>Node5&#45;&gt;Node4</title>
<path style="fill:none;stroke:orange;stroke-dasharray:5,2;" d="M296,-358C296,-344 296,-328 296,-317"/>
<polygon style="fill:orange;stroke:orange;" points="292.5,-358 296,-368 299.5,-358 292.5,-358"/>
<text text-anchor="middle" x="349" y="-340" style="font-family:Arial;font-size:10.00;"> &lt; SOCK_STREAM &gt;</text>
</g>
<!-- Node6 -->
<g id="node10" class="node"><title>Node6</title>
<a xlink:href="class_i_p_address.html" target="_top" xlink:title="IPAddress">
<polygon style="fill:white;stroke:black;" points="101,-296 101,-317 168,-317 168,-296 101,-296"/>
<text text-anchor="middle" x="134" y="-303" style="font-family:Arial;font-size:10.00;">IPAddress</text>
</a>
</g>
<!-- Node6&#45;&gt;Node3 -->
<g id="edge10" class="edge"><title>Node6&#45;&gt;Node3</title>
<path style="fill:none;stroke:#9a32cd;stroke-dasharray:5,2;" d="M134,-286C134,-272 134,-256 134,-245"/>
<polygon style="fill:#9a32cd;stroke:#9a32cd;" points="130.5,-286 134,-296 137.5,-286 130.5,-286"/>
<text text-anchor="middle" x="179" y="-268" style="font-family:Arial;font-size:10.00;"> m_clientAddress</text>
</g>
<!-- Node7 -->
<g id="node12" class="node"><title>Node7</title>
<a xlink:href="class_thread_base.html" target="_top" xlink:title="ThreadBase">
<polygon style="fill:white;stroke:black;" points="231,-224 231,-245 312,-245 312,-224 231,-224"/>
<text text-anchor="middle" x="271" y="-231" style="font-family:Arial;font-size:10.00;">ThreadBase</text>
</a>
</g>
<!-- Node7&#45;&gt;Node2 -->
<g id="edge12" class="edge"><title>Node7&#45;&gt;Node2</title>
<path style="fill:none;stroke:#8b1a1a;" d="M237,-220C201,-203 145,-179 114,-165"/>
<polygon style="fill:#8b1a1a;stroke:#8b1a1a;" points="235.44,-223.137 246,-224 238.283,-216.74 235.44,-223.137"/>
</g>
<!-- Node7&#45;&gt;Node8 -->
<g id="edge22" class="edge"><title>Node7&#45;&gt;Node8</title>
<path style="fill:none;stroke:#8b1a1a;" d="M280,-215C286,-196 294,-168 290,-144 286,-125 277,-105 271,-93"/>
<polygon style="fill:#8b1a1a;stroke:#8b1a1a;" points="276.863,-213.44 276,-224 283.26,-216.283 276.863,-213.44"/>
</g>
<!-- Node8&#45;&gt;Node1 -->
<g id="edge16" class="edge"><title>Node8&#45;&gt;Node1</title>
<path style="fill:none;stroke:#9a32cd;stroke-dasharray:5,2;" d="M241,-66C220,-52 192,-33 175,-21"/>
<polygon style="fill:#9a32cd;stroke:#9a32cd;" points="238.9,-68.8 249,-72 243.1,-63.2 238.9,-68.8"/>
<text text-anchor="middle" x="250" y="-44" style="font-family:Arial;font-size:10.00;"> m_server</text>
</g>
<!-- Node9&#45;&gt;Node8 -->
<g id="edge18" class="edge"><title>Node9&#45;&gt;Node8</title>
<path style="fill:none;stroke:midnightblue;" d="M354,-174C349,-156 339,-129 323,-112 315,-104 305,-98 295,-93"/>
<polygon style="fill:midnightblue;stroke:midnightblue;" points="350.774,-175.427 357,-184 357.479,-173.416 350.774,-175.427"/>
</g>
</g>
</svg>
