<?xml version="1.0" encoding="UTF-8" standalone="no"?>
<!DOCTYPE svg PUBLIC "-//W3C//DTD SVG 1.0//EN"
 "http://www.w3.org/TR/2001/REC-SVG-20010904/DTD/svg10.dtd" [
 <!ATTLIST svg xmlns:xlink CDATA #FIXED "http://www.w3.org/1999/xlink">
]>
<!-- Generated by Graphviz version 2.14.1 (Fri Nov  9 08:19:38 GMT 2007)
     For user: (asakyurek) Alper Sinan Akyurek -->
<!-- Title: TerraSwarm::MessageHeader::GetNextSequenceNumber Pages: 1 -->
<svg width="392pt" height="42pt"
 viewBox="0.00 0.00 392.00 42.00" xmlns="http://www.w3.org/2000/svg" xmlns:xlink="http://www.w3.org/1999/xlink">
<g id="graph0" class="graph" transform="scale(1 1) rotate(0) translate(4 38)">
<title>TerraSwarm::MessageHeader::GetNextSequenceNumber</title>
<polygon style="fill:white;stroke:white;" points="-4,4 -4,-38 388,-38 388,4 -4,4"/>
<!-- Node1 -->
<g id="node1" class="node"><title>Node1</title>
<polygon style="fill:#bfbfbf;stroke:black;" points="0,-0 0,-34 174,-34 174,-0 0,-0"/>
<text text-anchor="start" x="8" y="-20" style="font-family:Arial;font-size:10.00;">TerraSwarm::MessageHeader</text>
<text text-anchor="middle" x="87" y="-7" style="font-family:Arial;font-size:10.00;">::GetNextSequenceNumber</text>
</g>
<!-- Node2 -->
<g id="node3" class="node"><title>Node2</title>
<a xlink:href="class_terra_swarm_1_1_message_header.html#a6328694eb125adbac38c7e50d5fd40e1" target="_top" xlink:title="TerraSwarm::MessageHeader\l::PrepareOutgoingMessage">
<polygon style="fill:white;stroke:black;" points="210,-0 210,-34 384,-34 384,-0 210,-0"/>
<text text-anchor="start" x="218" y="-20" style="font-family:Arial;font-size:10.00;">TerraSwarm::MessageHeader</text>
<text text-anchor="middle" x="297" y="-7" style="font-family:Arial;font-size:10.00;">::PrepareOutgoingMessage</text>
</a>
</g>
<!-- Node1&#45;&gt;Node2 -->
<g id="edge2" class="edge"><title>Node1&#45;&gt;Node2</title>
<path style="fill:none;stroke:midnightblue;" d="M184,-17C193,-17 201,-17 210,-17"/>
<polygon style="fill:midnightblue;stroke:midnightblue;" points="184,-13.5001 174,-17 184,-20.5001 184,-13.5001"/>
</g>
</g>
</svg>
