<?xml version="1.0" encoding="UTF-8" standalone="no"?>
<!DOCTYPE svg PUBLIC "-//W3C//DTD SVG 1.0//EN"
 "http://www.w3.org/TR/2001/REC-SVG-20010904/DTD/svg10.dtd" [
 <!ATTLIST svg xmlns:xlink CDATA #FIXED "http://www.w3.org/1999/xlink">
]>
<!-- Generated by Graphviz version 2.14.1 (Fri Nov  9 08:19:38 GMT 2007)
     For user: (asakyurek) Alper Sinan Akyurek -->
<!-- Title: Graph Legend Pages: 1 -->
<svg width="574pt" height="174pt"
 viewBox="0.00 0.00 574.00 174.00" xmlns="http://www.w3.org/2000/svg" xmlns:xlink="http://www.w3.org/1999/xlink">
<g id="graph0" class="graph" transform="scale(1 1) rotate(0) translate(4 170)">
<title>Graph Legend</title>
<polygon style="fill:white;stroke:white;" points="-4,4 -4,-170 570,-170 570,4 -4,4"/>
<!-- Node9 -->
<g id="node1" class="node"><title>Node9</title>
<polygon style="fill:#bfbfbf;stroke:black;" points="328,-21.5 264,-21.5 264,-0.5 328,-0.5 328,-21.5"/>
<text text-anchor="middle" x="296" y="-8" style="font-family:Arial;font-size:10.00;">Inherited</text>
</g>
<!-- Node10 -->
<g id="node2" class="node"><title>Node10</title>
<a xlink:href="$classPublicBase.html" xlink:title="PublicBase">
<polygon style="fill:none;stroke:black;" points="74,-93.5 3.55271e-14,-93.5 0,-72.5 74,-72.5 74,-93.5"/>
<text text-anchor="middle" x="37" y="-80" style="font-family:Arial;font-size:10.00;">PublicBase</text>
</a>
</g>
<!-- Node10&#45;&gt;Node9 -->
<g id="edge2" class="edge"><title>Node10&#45;&gt;Node9</title>
<path style="fill:none;stroke:midnightblue;" d="M84,-70C136,-56 219,-32 264,-20"/>
<polygon style="fill:midnightblue;stroke:midnightblue;" points="82.5725,-66.7741 74,-73 84.584,-73.4788 82.5725,-66.7741"/>
</g>
<!-- Node11 -->
<g id="node4" class="node"><title>Node11</title>
<a xlink:href="$classTruncated.html" xlink:title="Truncated">
<polygon style="fill:none;stroke:red;" points="72,-165.5 2,-165.5 2,-144.5 72,-144.5 72,-165.5"/>
<text text-anchor="middle" x="37" y="-152" style="font-family:Arial;font-size:10.00;">Truncated</text>
</a>
</g>
<!-- Node11&#45;&gt;Node10 -->
<g id="edge4" class="edge"><title>Node11&#45;&gt;Node10</title>
<path style="fill:none;stroke:midnightblue;" d="M37,-134C37,-120 37,-104 37,-94"/>
<polygon style="fill:midnightblue;stroke:midnightblue;" points="33.5001,-134 37,-144 40.5001,-134 33.5001,-134"/>
</g>
<!-- Node13 -->
<g id="node6" class="node"><title>Node13</title>
<a xlink:href="$classProtectedBase.html" xlink:title="ProtectedBase">
<polygon style="fill:none;stroke:black;" points="186,-93.5 92,-93.5 92,-72.5 186,-72.5 186,-93.5"/>
<text text-anchor="middle" x="139" y="-80" style="font-family:Arial;font-size:10.00;">ProtectedBase</text>
</a>
</g>
<!-- Node13&#45;&gt;Node9 -->
<g id="edge6" class="edge"><title>Node13&#45;&gt;Node9</title>
<path style="fill:none;stroke:darkgreen;" d="M171,-68C202,-54 246,-34 273,-22"/>
<polygon style="fill:darkgreen;stroke:darkgreen;" points="169.717,-64.7402 162,-72 172.56,-71.1369 169.717,-64.7402"/>
</g>
<!-- Node14 -->
<g id="node8" class="node"><title>Node14</title>
<a xlink:href="$classPrivateBase.html" xlink:title="PrivateBase">
<polygon style="fill:none;stroke:black;" points="282,-93.5 204,-93.5 204,-72.5 282,-72.5 282,-93.5"/>
<text text-anchor="middle" x="243" y="-80" style="font-family:Arial;font-size:10.00;">PrivateBase</text>
</a>
</g>
<!-- Node14&#45;&gt;Node9 -->
<g id="edge8" class="edge"><title>Node14&#45;&gt;Node9</title>
<path style="fill:none;stroke:#8b1a1a;" d="M257,-64C267,-50 280,-33 288,-22"/>
<polygon style="fill:#8b1a1a;stroke:#8b1a1a;" points="254.2,-61.9 251,-72 259.8,-66.1 254.2,-61.9"/>
</g>
<!-- Node15 -->
<g id="node10" class="node"><title>Node15</title>
<polygon style="fill:none;stroke:#bfbfbf;" points="400,-93.5 300,-93.5 300,-72.5 400,-72.5 400,-93.5"/>
<text text-anchor="middle" x="350" y="-80" style="font-family:Arial;font-size:10.00;">Undocumented</text>
</g>
<!-- Node15&#45;&gt;Node9 -->
<g id="edge10" class="edge"><title>Node15&#45;&gt;Node9</title>
<path style="fill:none;stroke:midnightblue;" d="M336,-64C326,-50 312,-33 304,-22"/>
<polygon style="fill:midnightblue;stroke:midnightblue;" points="333.2,-66.1 342,-72 338.8,-61.9 333.2,-66.1"/>
</g>
<!-- Node16 -->
<g id="node12" class="node"><title>Node16</title>
<a xlink:href="$classTempl.html" xlink:title="Templ&lt; int &gt;">
<polygon style="fill:none;stroke:black;" points="506,-93.5 418,-93.5 418,-72.5 506,-72.5 506,-93.5"/>
<text text-anchor="middle" x="462" y="-80" style="font-family:Arial;font-size:10.00;">Templ&lt; int &gt;</text>
</a>
</g>
<!-- Node16&#45;&gt;Node9 -->
<g id="edge12" class="edge"><title>Node16&#45;&gt;Node9</title>
<path style="fill:none;stroke:midnightblue;" d="M428,-68C396,-54 349,-34 321,-22"/>
<polygon style="fill:midnightblue;stroke:midnightblue;" points="427.415,-71.5357 438,-72 430.015,-65.0364 427.415,-71.5357"/>
</g>
<!-- Node17 -->
<g id="node14" class="node"><title>Node17</title>
<a xlink:href="$classTempl.html" xlink:title="Templ&lt; T &gt;">
<polygon style="fill:none;stroke:black;" points="502,-165.5 422,-165.5 422,-144.5 502,-144.5 502,-165.5"/>
<text text-anchor="middle" x="462" y="-152" style="font-family:Arial;font-size:10.00;">Templ&lt; T &gt;</text>
</a>
</g>
<!-- Node17&#45;&gt;Node16 -->
<g id="edge14" class="edge"><title>Node17&#45;&gt;Node16</title>
<path style="fill:none;stroke:orange;stroke-dasharray:5,2;" d="M462,-134C462,-120 462,-104 462,-94"/>
<polygon style="fill:orange;stroke:orange;" points="458.5,-134 462,-144 465.5,-134 458.5,-134"/>
<text text-anchor="middle" x="481" y="-116" style="font-family:Arial;font-size:10.00;">&lt; int &gt;</text>
</g>
<!-- Node18 -->
<g id="node16" class="node"><title>Node18</title>
<a xlink:href="$classUsed.html" xlink:title="Used">
<polygon style="fill:none;stroke:black;" points="566,-93.5 524,-93.5 524,-72.5 566,-72.5 566,-93.5"/>
<text text-anchor="middle" x="545" y="-80" style="font-family:Arial;font-size:10.00;">Used</text>
</a>
</g>
<!-- Node18&#45;&gt;Node9 -->
<g id="edge16" class="edge"><title>Node18&#45;&gt;Node9</title>
<path style="fill:none;stroke:#9a32cd;stroke-dasharray:5,2;" d="M514,-72C442,-49 369,-30 328,-19"/>
<polygon style="fill:#9a32cd;stroke:#9a32cd;" points="513.416,-75.4788 524,-75 515.427,-68.7741 513.416,-75.4788"/>
<text text-anchor="middle" x="496" y="-44" style="font-family:Arial;font-size:10.00;">m_usedClass</text>
</g>
</g>
</svg>
