<?xml version="1.0" encoding="UTF-8" standalone="no"?>
<!DOCTYPE svg PUBLIC "-//W3C//DTD SVG 1.0//EN"
 "http://www.w3.org/TR/2001/REC-SVG-20010904/DTD/svg10.dtd" [
 <!ATTLIST svg xmlns:xlink CDATA #FIXED "http://www.w3.org/1999/xlink">
]>
<!-- Generated by Graphviz version 2.14.1 (Fri Nov  9 08:19:38 GMT 2007)
     For user: (asakyurek) Alper Sinan Akyurek -->
<!-- Title: main Pages: 1 -->
<svg width="708pt" height="464pt"
 viewBox="0.00 0.00 708.00 464.00" xmlns="http://www.w3.org/2000/svg" xmlns:xlink="http://www.w3.org/1999/xlink">
<g id="graph0" class="graph" transform="scale(1 1) rotate(0) translate(4 460)">
<title>main</title>
<polygon style="fill:white;stroke:white;" points="-4,4 -4,-460 704,-460 704,4 -4,4"/>
<!-- Node1 -->
<g id="node1" class="node"><title>Node1</title>
<polygon style="fill:#bfbfbf;stroke:black;" points="0,-305 0,-326 44,-326 44,-305 0,-305"/>
<text text-anchor="middle" x="22" y="-312" style="font-family:Arial;font-size:10.00;">main</text>
</g>
<!-- Node2 -->
<g id="node3" class="node"><title>Node2</title>
<a xlink:href="_log_print_8h.html#a7e0c5f42cad5bc3a44134fb9c9a7a052" target="_top" xlink:title="LogPrint">
<polygon style="fill:white;stroke:black;" points="605,-127 605,-148 665,-148 665,-127 605,-127"/>
<text text-anchor="middle" x="635" y="-134" style="font-family:Arial;font-size:10.00;">LogPrint</text>
</a>
</g>
<!-- Node1&#45;&gt;Node2 -->
<g id="edge2" class="edge"><title>Node1&#45;&gt;Node2</title>
<path style="fill:none;stroke:midnightblue;" d="M24,-305C28,-280 42,-218 80,-188 235,-66 495,-107 595,-128"/>
<polygon style="fill:midnightblue;stroke:midnightblue;" points="594.508,-131.471 605,-130 595.881,-124.607 594.508,-131.471"/>
</g>
<!-- Node3 -->
<g id="node5" class="node"><title>Node3</title>
<a xlink:href="_connection_manager_8cpp.html#ab88124ce7a3bf1d2892d0e9763d1af30" target="_top" xlink:title="GetConnectionManager">
<polygon style="fill:white;stroke:black;" points="112,-381 112,-402 258,-402 258,-381 112,-381"/>
<text text-anchor="middle" x="185" y="-388" style="font-family:Arial;font-size:10.00;">GetConnectionManager</text>
</a>
</g>
<!-- Node1&#45;&gt;Node3 -->
<g id="edge4" class="edge"><title>Node1&#45;&gt;Node3</title>
<path style="fill:none;stroke:midnightblue;" d="M30,-326C41,-338 60,-357 80,-368 88,-372 96,-375 104,-378"/>
<polygon style="fill:midnightblue;stroke:midnightblue;" points="103.416,-381.479 114,-381 105.427,-374.774 103.416,-381.479"/>
</g>
<!-- Node4 -->
<g id="node7" class="node"><title>Node4</title>
<a xlink:href="_matlab_manager_8cpp.html#adf11a697c41ba15207a66f8d2b567b75" target="_top" xlink:title="GetMatlabManager">
<polygon style="fill:white;stroke:black;" points="575,-215 575,-236 695,-236 695,-215 575,-215"/>
<text text-anchor="middle" x="635" y="-222" style="font-family:Arial;font-size:10.00;">GetMatlabManager</text>
</a>
</g>
<!-- Node1&#45;&gt;Node4 -->
<g id="edge6" class="edge"><title>Node1&#45;&gt;Node4</title>
<path style="fill:none;stroke:midnightblue;" d="M25,-326C31,-346 47,-392 80,-411 162,-456 198,-419 290,-411 400,-401 441,-426 534,-368 582,-337 613,-277 627,-246"/>
<polygon style="fill:midnightblue;stroke:midnightblue;" points="630.536,-246.585 631,-236 624.036,-243.985 630.536,-246.585"/>
</g>
<!-- Node5 -->
<g id="node9" class="node"><title>Node5</title>
<a xlink:href="_control_manager_8cpp.html#a63bfd4667c9c70297f25ae5e5176818e" target="_top" xlink:title="GetControlManager">
<polygon style="fill:white;stroke:black;" points="369,-305 369,-326 492,-326 492,-305 369,-305"/>
<text text-anchor="middle" x="430" y="-312" style="font-family:Arial;font-size:10.00;">GetControlManager</text>
</a>
</g>
<!-- Node1&#45;&gt;Node5 -->
<g id="edge8" class="edge"><title>Node1&#45;&gt;Node5</title>
<path style="fill:none;stroke:midnightblue;" d="M44,-316C103,-316 264,-316 359,-316"/>
<polygon style="fill:midnightblue;stroke:midnightblue;" points="359,-319.5 369,-316 359,-312.5 359,-319.5"/>
</g>
<!-- Node6 -->
<g id="node11" class="node"><title>Node6</title>
<a xlink:href="_system_manager_8cpp.html#a97e64f74d188d41051488578800d20cd" target="_top" xlink:title="GetSystemManager">
<polygon style="fill:white;stroke:black;" points="574,-177 574,-198 697,-198 697,-177 574,-177"/>
<text text-anchor="middle" x="635" y="-184" style="font-family:Arial;font-size:10.00;">GetSystemManager</text>
</a>
</g>
<!-- Node1&#45;&gt;Node6 -->
<g id="edge10" class="edge"><title>Node1&#45;&gt;Node6</title>
<path style="fill:none;stroke:midnightblue;" d="M44,-322C55,-325 68,-328 80,-330 181,-342 454,-395 534,-335 582,-299 529,-249 570,-207 571,-206 573,-204 574,-203"/>
<polygon style="fill:midnightblue;stroke:midnightblue;" points="575.958,-205.916 583,-198 572.559,-199.797 575.958,-205.916"/>
</g>
<!-- Node7 -->
<g id="node13" class="node"><title>Node7</title>
<a xlink:href="class_control_manager.html#a4e23ffb481554c26cf99c411dd16ae36" target="_top" xlink:title="ControlManager::WaitUntil\lReady">
<polygon style="fill:white;stroke:black;" points="351,-254 351,-288 510,-288 510,-254 351,-254"/>
<text text-anchor="start" x="359" y="-274" style="font-family:Arial;font-size:10.00;">ControlManager::WaitUntil</text>
<text text-anchor="middle" x="430" y="-261" style="font-family:Arial;font-size:10.00;">Ready</text>
</a>
</g>
<!-- Node1&#45;&gt;Node7 -->
<g id="edge12" class="edge"><title>Node1&#45;&gt;Node7</title>
<path style="fill:none;stroke:midnightblue;" d="M44,-314C99,-307 245,-291 341,-281"/>
<polygon style="fill:midnightblue;stroke:midnightblue;" points="341.398,-284.478 351,-280 340.701,-277.512 341.398,-284.478"/>
</g>
<!-- Node8 -->
<g id="node15" class="node"><title>Node8</title>
<a xlink:href="class_system_manager.html#a87443d7e75b0f170535d315c27237253" target="_top" xlink:title="SystemManager::AdvanceTimeStep">
<polygon style="fill:white;stroke:black;" points="80,-196 80,-217 290,-217 290,-196 80,-196"/>
<text text-anchor="middle" x="185" y="-203" style="font-family:Arial;font-size:10.00;">SystemManager::AdvanceTimeStep</text>
</a>
</g>
<!-- Node1&#45;&gt;Node8 -->
<g id="edge14" class="edge"><title>Node1&#45;&gt;Node8</title>
<path style="fill:none;stroke:midnightblue;" d="M32,-305C43,-293 62,-274 80,-261 103,-245 130,-231 152,-221"/>
<polygon style="fill:midnightblue;stroke:midnightblue;" points="153.283,-224.26 161,-217 150.44,-217.863 153.283,-224.26"/>
</g>
<!-- Node8&#45;&gt;Node2 -->
<g id="edge16" class="edge"><title>Node8&#45;&gt;Node2</title>
<path style="fill:none;stroke:midnightblue;" d="M220,-196C249,-187 290,-176 326,-169 421,-152 536,-144 595,-141"/>
<polygon style="fill:midnightblue;stroke:midnightblue;" points="595.398,-144.478 605,-140 594.701,-137.512 595.398,-144.478"/>
</g>
<!-- Node8&#45;&gt;Node4 -->
<g id="edge18" class="edge"><title>Node8&#45;&gt;Node4</title>
<path style="fill:none;stroke:midnightblue;" d="M290,-211C375,-215 491,-220 565,-223"/>
<polygon style="fill:midnightblue;stroke:midnightblue;" points="565,-226.5 575,-223 565,-219.5 565,-226.5"/>
</g>
<!-- Node8&#45;&gt;Node5 -->
<g id="edge30" class="edge"><title>Node8&#45;&gt;Node5</title>
<path style="fill:none;stroke:midnightblue;" d="M197,-217C221,-236 274,-276 326,-297 336,-301 348,-304 359,-307"/>
<polygon style="fill:midnightblue;stroke:midnightblue;" points="358.508,-310.471 369,-309 359.881,-303.607 358.508,-310.471"/>
</g>
<!-- Node8&#45;&gt;Node7 -->
<g id="edge52" class="edge"><title>Node8&#45;&gt;Node7</title>
<path style="fill:none;stroke:midnightblue;" d="M224,-217C259,-226 312,-240 355,-251"/>
<polygon style="fill:midnightblue;stroke:midnightblue;" points="354.416,-254.479 365,-254 356.427,-247.774 354.416,-254.479"/>
</g>
<!-- Node9 -->
<g id="node19" class="node"><title>Node9</title>
<a xlink:href="class_matlab_manager.html#a2967a226a9c6a9ed22998cad67afed3c" target="_top" xlink:title="MatlabManager::SetWattage">
<polygon style="fill:white;stroke:black;" points="345,-63 345,-84 516,-84 516,-63 345,-63"/>
<text text-anchor="middle" x="430" y="-70" style="font-family:Arial;font-size:10.00;">MatlabManager::SetWattage</text>
</a>
</g>
<!-- Node8&#45;&gt;Node9 -->
<g id="edge20" class="edge"><title>Node8&#45;&gt;Node9</title>
<path style="fill:none;stroke:midnightblue;" d="M205,-196C249,-173 352,-115 402,-89"/>
<polygon style="fill:midnightblue;stroke:midnightblue;" points="403.958,-91.916 411,-84 400.559,-85.7969 403.958,-91.916"/>
</g>
<!-- Node13 -->
<g id="node29" class="node"><title>Node13</title>
<a xlink:href="class_matlab_manager.html#a55151e4e7f68cad7a8b18c93e9f0e0b1" target="_top" xlink:title="MatlabManager::AdvanceTimeStep">
<polygon style="fill:white;stroke:black;" points="327,-25 327,-46 534,-46 534,-25 327,-25"/>
<text text-anchor="middle" x="430" y="-32" style="font-family:Arial;font-size:10.00;">MatlabManager::AdvanceTimeStep</text>
</a>
</g>
<!-- Node8&#45;&gt;Node13 -->
<g id="edge32" class="edge"><title>Node8&#45;&gt;Node13</title>
<path style="fill:none;stroke:midnightblue;" d="M192,-196C210,-167 262,-91 326,-55 330,-53 334,-51 338,-49"/>
<polygon style="fill:midnightblue;stroke:midnightblue;" points="339.427,-52.2259 348,-46 337.416,-45.5212 339.427,-52.2259"/>
</g>
<!-- Node14 -->
<g id="node35" class="node"><title>Node14</title>
<a xlink:href="class_control_manager.html#a0d5212df17307aef87d42add3aa6cc7a" target="_top" xlink:title="ControlManager::MakeDecision">
<polygon style="fill:white;stroke:black;" points="338,-177 338,-198 523,-198 523,-177 338,-177"/>
<text text-anchor="middle" x="430" y="-184" style="font-family:Arial;font-size:10.00;">ControlManager::MakeDecision</text>
</a>
</g>
<!-- Node8&#45;&gt;Node14 -->
<g id="edge42" class="edge"><title>Node8&#45;&gt;Node14</title>
<path style="fill:none;stroke:midnightblue;" d="M290,-199C303,-198 315,-197 328,-196"/>
<polygon style="fill:midnightblue;stroke:midnightblue;" points="328.398,-199.478 338,-195 327.701,-192.512 328.398,-199.478"/>
</g>
<!-- Node9&#45;&gt;Node2 -->
<g id="edge22" class="edge"><title>Node9&#45;&gt;Node2</title>
<path style="fill:none;stroke:midnightblue;" d="M487,-84C502,-88 519,-92 534,-98 552,-105 553,-112 570,-119 578,-123 587,-126 595,-128"/>
<polygon style="fill:midnightblue;stroke:midnightblue;" points="594.416,-131.479 605,-131 596.427,-124.774 594.416,-131.479"/>
</g>
<!-- Node10 -->
<g id="node22" class="node"><title>Node10</title>
<a xlink:href="_log_print_8h.html#af783a2ea2c57c5f51f905a24f3f5a835" target="_top" xlink:title="ErrorPrint">
<polygon style="fill:white;stroke:black;" points="603,1 603,-20 668,-20 668,1 603,1"/>
<text text-anchor="middle" x="635" y="-6" style="font-family:Arial;font-size:10.00;">ErrorPrint</text>
</a>
</g>
<!-- Node9&#45;&gt;Node10 -->
<g id="edge24" class="edge"><title>Node9&#45;&gt;Node10</title>
<path style="fill:none;stroke:midnightblue;" d="M511,-63C519,-61 527,-58 534,-55 553,-48 553,-38 570,-29 577,-25 585,-22 593,-20"/>
<polygon style="fill:midnightblue;stroke:midnightblue;" points="594.427,-23.2259 603,-17 592.416,-16.5212 594.427,-23.2259"/>
</g>
<!-- Node11 -->
<g id="node24" class="node"><title>Node11</title>
<a xlink:href="class_t_c_p_connected_client.html#a7c3a1d1172f3880b48d35ffbf255712d" target="_top" xlink:title="TCPConnectedClient\l::SendData">
<polygon style="fill:white;stroke:black;" points="571,-76 571,-110 700,-110 700,-76 571,-76"/>
<text text-anchor="start" x="579" y="-96" style="font-family:Arial;font-size:10.00;">TCPConnectedClient</text>
<text text-anchor="middle" x="635" y="-83" style="font-family:Arial;font-size:10.00;">::SendData</text>
</a>
</g>
<!-- Node9&#45;&gt;Node11 -->
<g id="edge26" class="edge"><title>Node9&#45;&gt;Node11</title>
<path style="fill:none;stroke:midnightblue;" d="M516,-82C530,-84 546,-85 561,-86"/>
<polygon style="fill:midnightblue;stroke:midnightblue;" points="560.701,-89.4875 571,-87 561.398,-82.5222 560.701,-89.4875"/>
</g>
<!-- Node12 -->
<g id="node26" class="node"><title>Node12</title>
<a xlink:href="_log_print_8h.html#a46ea30a62534f8ce32cd39454e459b23" target="_top" xlink:title="WarningPrint">
<polygon style="fill:white;stroke:black;" points="593,-37 593,-58 678,-58 678,-37 593,-37"/>
<text text-anchor="middle" x="635" y="-44" style="font-family:Arial;font-size:10.00;">WarningPrint</text>
</a>
</g>
<!-- Node9&#45;&gt;Node12 -->
<g id="edge28" class="edge"><title>Node9&#45;&gt;Node12</title>
<path style="fill:none;stroke:midnightblue;" d="M516,-63C539,-60 563,-57 583,-54"/>
<polygon style="fill:midnightblue;stroke:midnightblue;" points="583.398,-57.4778 593,-53 582.701,-50.5125 583.398,-57.4778"/>
</g>
<!-- Node13&#45;&gt;Node2 -->
<g id="edge34" class="edge"><title>Node13&#45;&gt;Node2</title>
<path style="fill:none;stroke:midnightblue;" d="M518,-46C524,-49 529,-51 534,-55 561,-74 545,-99 570,-119 577,-125 586,-129 595,-132"/>
<polygon style="fill:midnightblue;stroke:midnightblue;" points="594.508,-135.471 605,-134 595.881,-128.607 594.508,-135.471"/>
</g>
<!-- Node13&#45;&gt;Node10 -->
<g id="edge36" class="edge"><title>Node13&#45;&gt;Node10</title>
<path style="fill:none;stroke:midnightblue;" d="M517,-25C543,-22 571,-18 593,-15"/>
<polygon style="fill:midnightblue;stroke:midnightblue;" points="593.398,-18.4778 603,-14 592.701,-11.5125 593.398,-18.4778"/>
</g>
<!-- Node13&#45;&gt;Node11 -->
<g id="edge38" class="edge"><title>Node13&#45;&gt;Node11</title>
<path style="fill:none;stroke:midnightblue;" d="M494,-46C507,-49 521,-52 534,-55 544,-58 563,-65 583,-72"/>
<polygon style="fill:midnightblue;stroke:midnightblue;" points="581.44,-75.1369 592,-76 584.283,-68.7402 581.44,-75.1369"/>
</g>
<!-- Node13&#45;&gt;Node12 -->
<g id="edge40" class="edge"><title>Node13&#45;&gt;Node12</title>
<path style="fill:none;stroke:midnightblue;" d="M534,-42C551,-43 568,-44 583,-44"/>
<polygon style="fill:midnightblue;stroke:midnightblue;" points="582.701,-47.4875 593,-45 583.398,-40.5222 582.701,-47.4875"/>
</g>
<!-- Node14&#45;&gt;Node2 -->
<g id="edge44" class="edge"><title>Node14&#45;&gt;Node2</title>
<path style="fill:none;stroke:midnightblue;" d="M480,-177C497,-173 517,-169 534,-164 554,-160 577,-154 595,-149"/>
<polygon style="fill:midnightblue;stroke:midnightblue;" points="596.427,-152.226 605,-146 594.416,-145.521 596.427,-152.226"/>
</g>
<!-- Node14&#45;&gt;Node4 -->
<g id="edge48" class="edge"><title>Node14&#45;&gt;Node4</title>
<path style="fill:none;stroke:midnightblue;" d="M484,-198C509,-202 539,-208 566,-213"/>
<polygon style="fill:midnightblue;stroke:midnightblue;" points="565.508,-216.471 576,-215 566.881,-209.607 565.508,-216.471"/>
</g>
<!-- Node14&#45;&gt;Node6 -->
<g id="edge46" class="edge"><title>Node14&#45;&gt;Node6</title>
<path style="fill:none;stroke:midnightblue;" d="M523,-188C536,-188 550,-188 564,-188"/>
<polygon style="fill:midnightblue;stroke:midnightblue;" points="564,-191.5 574,-188 564,-184.5 564,-191.5"/>
</g>
<!-- Node14&#45;&gt;Node11 -->
<g id="edge50" class="edge"><title>Node14&#45;&gt;Node11</title>
<path style="fill:none;stroke:midnightblue;" d="M452,-177C479,-163 528,-138 570,-119 574,-117 578,-116 582,-114"/>
<polygon style="fill:midnightblue;stroke:midnightblue;" points="584.015,-116.964 592,-110 581.415,-110.464 584.015,-116.964"/>
</g>
</g>
</svg>
