<?xml version="1.0" encoding="UTF-8" standalone="no"?>
<!DOCTYPE svg PUBLIC "-//W3C//DTD SVG 1.0//EN"
 "http://www.w3.org/TR/2001/REC-SVG-20010904/DTD/svg10.dtd" [
 <!ATTLIST svg xmlns:xlink CDATA #FIXED "http://www.w3.org/1999/xlink">
]>
<!-- Generated by Graphviz version 2.14.1 (Fri Nov  9 08:19:38 GMT 2007)
     For user: (asakyurek) Alper Sinan Akyurek -->
<!-- Title: S2Sim/main.cpp Pages: 1 -->
<svg width="1649pt" height="610pt"
 viewBox="0.00 0.00 1649.00 610.00" xmlns="http://www.w3.org/2000/svg" xmlns:xlink="http://www.w3.org/1999/xlink">
<g id="graph0" class="graph" transform="scale(1 1) rotate(0) translate(4 606)">
<title>S2Sim/main.cpp</title>
<polygon style="fill:white;stroke:white;" points="-4,4 -4,-606 1645,-606 1645,4 -4,4"/>
<!-- Node1 -->
<g id="node1" class="node"><title>Node1</title>
<polygon style="fill:#bfbfbf;stroke:black;" points="366,-580 366,-601 470,-601 470,-580 366,-580"/>
<text text-anchor="middle" x="418" y="-587" style="font-family:Arial;font-size:10.00;">S2Sim/main.cpp</text>
</g>
<!-- Node2 -->
<g id="node3" class="node"><title>Node2</title>
<polygon style="fill:white;stroke:#bfbfbf;" points="82,-0 82,-21 146,-21 146,-0 82,-0"/>
<text text-anchor="middle" x="114" y="-7" style="font-family:Arial;font-size:10.00;">iostream</text>
</g>
<!-- Node1&#45;&gt;Node2 -->
<g id="edge2" class="edge"><title>Node1&#45;&gt;Node2</title>
<path style="fill:none;stroke:midnightblue;" d="M366,-587C254,-578 0,-550 0,-475 0,-475 0,-475 0,-127 0,-79 49,-44 83,-26"/>
<polygon style="fill:midnightblue;stroke:midnightblue;" points="84.9582,-28.916 92,-21 81.5586,-22.7969 84.9582,-28.916"/>
</g>
<!-- Node3 -->
<g id="node5" class="node"><title>Node3</title>
<polygon style="fill:white;stroke:#bfbfbf;" points="1564,-58 1564,-79 1605,-79 1605,-58 1564,-58"/>
<text text-anchor="middle" x="1584" y="-65" style="font-family:Arial;font-size:10.00;">map</text>
</g>
<!-- Node1&#45;&gt;Node3 -->
<g id="edge4" class="edge"><title>Node1&#45;&gt;Node3</title>
<path style="fill:none;stroke:midnightblue;" d="M470,-589C704,-579 1641,-535 1641,-475 1641,-475 1641,-475 1641,-185 1641,-147 1616,-109 1599,-87"/>
<polygon style="fill:midnightblue;stroke:midnightblue;" points="1601.8,-84.9 1593,-79 1596.2,-89.1 1601.8,-84.9"/>
</g>
<!-- Node4 -->
<g id="node7" class="node"><title>Node4</title>
<polygon style="fill:white;stroke:#bfbfbf;" points="340,-522 340,-543 391,-543 391,-522 340,-522"/>
<text text-anchor="middle" x="365" y="-529" style="font-family:Arial;font-size:10.00;">time.h</text>
</g>
<!-- Node1&#45;&gt;Node4 -->
<g id="edge6" class="edge"><title>Node1&#45;&gt;Node4</title>
<path style="fill:none;stroke:midnightblue;" d="M408,-580C400,-571 390,-560 381,-551"/>
<polygon style="fill:midnightblue;stroke:midnightblue;" points="383.219,-548.221 374,-543 377.951,-552.831 383.219,-548.221"/>
</g>
<!-- Node5 -->
<g id="node9" class="node"><title>Node5</title>
<a xlink:href="_t_c_p_server_8h.html" target="_top" xlink:title="TCPServer.h">
<polygon style="fill:white;stroke:black;" points="419,-232 419,-253 501,-253 501,-232 419,-232"/>
<text text-anchor="middle" x="460" y="-239" style="font-family:Arial;font-size:10.00;">TCPServer.h</text>
</a>
</g>
<!-- Node1&#45;&gt;Node5 -->
<g id="edge8" class="edge"><title>Node1&#45;&gt;Node5</title>
<path style="fill:none;stroke:midnightblue;" d="M424,-580C435,-560 456,-515 456,-475 456,-475 456,-475 456,-359 456,-326 457,-286 459,-263"/>
<polygon style="fill:midnightblue;stroke:midnightblue;" points="462.5,-263 459,-253 455.5,-263 462.5,-263"/>
</g>
<!-- Node13 -->
<g id="node29" class="node"><title>Node13</title>
<a xlink:href="_matlab_manager_8h.html" target="_top" xlink:title="MatlabManager.h">
<polygon style="fill:white;stroke:black;" points="193,-522 193,-543 304,-543 304,-522 193,-522"/>
<text text-anchor="middle" x="248" y="-529" style="font-family:Arial;font-size:10.00;">MatlabManager.h</text>
</a>
</g>
<!-- Node1&#45;&gt;Node13 -->
<g id="edge32" class="edge"><title>Node1&#45;&gt;Node13</title>
<path style="fill:none;stroke:midnightblue;" d="M386,-580C357,-570 317,-556 287,-546"/>
<polygon style="fill:midnightblue;stroke:midnightblue;" points="287.584,-542.521 277,-543 285.573,-549.226 287.584,-542.521"/>
</g>
<!-- Node29 -->
<g id="node87" class="node"><title>Node29</title>
<a xlink:href="_connection_manager_8h.html" target="_top" xlink:title="ConnectionManager.h">
<polygon style="fill:white;stroke:black;" points="484,-348 484,-369 621,-369 621,-348 484,-348"/>
<text text-anchor="middle" x="552" y="-355" style="font-family:Arial;font-size:10.00;">ConnectionManager.h</text>
</a>
</g>
<!-- Node1&#45;&gt;Node29 -->
<g id="edge162" class="edge"><title>Node1&#45;&gt;Node29</title>
<path style="fill:none;stroke:midnightblue;" d="M433,-580C444,-571 459,-558 470,-544 508,-490 535,-415 546,-379"/>
<polygon style="fill:midnightblue;stroke:midnightblue;" points="549.479,-379.584 549,-369 542.774,-377.573 549.479,-379.584"/>
</g>
<!-- Node32 -->
<g id="node104" class="node"><title>Node32</title>
<a xlink:href="_control_manager_8h.html" target="_top" xlink:title="ControlManager.h">
<polygon style="fill:white;stroke:black;" points="276,-406 276,-427 390,-427 390,-406 276,-406"/>
<text text-anchor="middle" x="333" y="-413" style="font-family:Arial;font-size:10.00;">ControlManager.h</text>
</a>
</g>
<!-- Node1&#45;&gt;Node32 -->
<g id="edge164" class="edge"><title>Node1&#45;&gt;Node32</title>
<path style="fill:none;stroke:midnightblue;" d="M419,-580C421,-556 421,-501 399,-464 391,-450 377,-440 365,-432"/>
<polygon style="fill:midnightblue;stroke:midnightblue;" points="366.441,-428.797 356,-427 363.042,-434.916 366.441,-428.797"/>
</g>
<!-- Node6 -->
<g id="node11" class="node"><title>Node6</title>
<a xlink:href="_socket_base_8h.html" target="_top" xlink:title="SocketBase.h">
<polygon style="fill:white;stroke:black;" points="437,-58 437,-79 526,-79 526,-58 437,-58"/>
<text text-anchor="middle" x="481" y="-65" style="font-family:Arial;font-size:10.00;">SocketBase.h</text>
</a>
</g>
<!-- Node5&#45;&gt;Node6 -->
<g id="edge10" class="edge"><title>Node5&#45;&gt;Node6</title>
<path style="fill:none;stroke:midnightblue;" d="M461,-232C465,-203 474,-126 479,-89"/>
<polygon style="fill:midnightblue;stroke:midnightblue;" points="482.488,-89.2987 480,-79 475.522,-88.6021 482.488,-89.2987"/>
</g>
<!-- Node7 -->
<g id="node14" class="node"><title>Node7</title>
<a xlink:href="_i_p_address_8h.html" target="_top" xlink:title="IPAddress.h">
<polygon style="fill:white;stroke:black;" points="637,-58 637,-79 714,-79 714,-58 637,-58"/>
<text text-anchor="middle" x="675" y="-65" style="font-family:Arial;font-size:10.00;">IPAddress.h</text>
</a>
</g>
<!-- Node5&#45;&gt;Node7 -->
<g id="edge14" class="edge"><title>Node5&#45;&gt;Node7</title>
<path style="fill:none;stroke:midnightblue;" d="M500,-232C544,-218 616,-188 656,-138 666,-124 671,-104 673,-89"/>
<polygon style="fill:midnightblue;stroke:midnightblue;" points="676.488,-89.2987 674,-79 669.522,-88.6021 676.488,-89.2987"/>
</g>
<!-- Node9 -->
<g id="node18" class="node"><title>Node9</title>
<a xlink:href="_threaded_t_c_p_connected_client_8h.html" target="_top" xlink:title="ThreadedTCPConnectedClient.h">
<polygon style="fill:white;stroke:black;" points="261,-174 261,-195 453,-195 453,-174 261,-174"/>
<text text-anchor="middle" x="357" y="-181" style="font-family:Arial;font-size:10.00;">ThreadedTCPConnectedClient.h</text>
</a>
</g>
<!-- Node5&#45;&gt;Node9 -->
<g id="edge18" class="edge"><title>Node5&#45;&gt;Node9</title>
<path style="fill:none;stroke:midnightblue;" d="M440,-232C424,-223 402,-210 384,-200"/>
<polygon style="fill:midnightblue;stroke:midnightblue;" points="385.441,-196.797 375,-195 382.042,-202.916 385.441,-196.797"/>
</g>
<!-- Node6&#45;&gt;Node2 -->
<g id="edge12" class="edge"><title>Node6&#45;&gt;Node2</title>
<path style="fill:none;stroke:midnightblue;" d="M437,-62C366,-51 226,-29 156,-18"/>
<polygon style="fill:midnightblue;stroke:midnightblue;" points="156.492,-14.5292 146,-16 155.119,-21.3933 156.492,-14.5292"/>
</g>
<!-- Node8 -->
<g id="node16" class="node"><title>Node8</title>
<polygon style="fill:white;stroke:#bfbfbf;" points="843,-0 843,-21 899,-21 899,-0 843,-0"/>
<text text-anchor="middle" x="871" y="-7" style="font-family:Arial;font-size:10.00;">string.h</text>
</g>
<!-- Node7&#45;&gt;Node8 -->
<g id="edge16" class="edge"><title>Node7&#45;&gt;Node8</title>
<path style="fill:none;stroke:midnightblue;" d="M712,-58C747,-48 799,-32 833,-22"/>
<polygon style="fill:midnightblue;stroke:midnightblue;" points="834.427,-25.2259 843,-19 832.416,-18.5212 834.427,-25.2259"/>
</g>
<!-- Node10 -->
<g id="node20" class="node"><title>Node10</title>
<a xlink:href="_t_c_p_connected_client_8h.html" target="_top" xlink:title="TCPConnectedClient.h">
<polygon style="fill:white;stroke:black;" points="509,-116 509,-137 648,-137 648,-116 509,-116"/>
<text text-anchor="middle" x="578" y="-123" style="font-family:Arial;font-size:10.00;">TCPConnectedClient.h</text>
</a>
</g>
<!-- Node9&#45;&gt;Node10 -->
<g id="edge20" class="edge"><title>Node9&#45;&gt;Node10</title>
<path style="fill:none;stroke:midnightblue;" d="M399,-174C437,-164 491,-149 530,-139"/>
<polygon style="fill:midnightblue;stroke:midnightblue;" points="530.881,-142.393 540,-137 529.508,-135.529 530.881,-142.393"/>
</g>
<!-- Node11 -->
<g id="node24" class="node"><title>Node11</title>
<a xlink:href="_thread_base_8h.html" target="_top" xlink:title="ThreadBase.h">
<polygon style="fill:white;stroke:black;" points="281,-116 281,-137 372,-137 372,-116 281,-116"/>
<text text-anchor="middle" x="326" y="-123" style="font-family:Arial;font-size:10.00;">ThreadBase.h</text>
</a>
</g>
<!-- Node9&#45;&gt;Node11 -->
<g id="edge26" class="edge"><title>Node9&#45;&gt;Node11</title>
<path style="fill:none;stroke:midnightblue;" d="M351,-174C347,-166 341,-155 336,-146"/>
<polygon style="fill:midnightblue;stroke:midnightblue;" points="338.916,-144.042 331,-137 332.797,-147.441 338.916,-144.042"/>
</g>
<!-- Node12 -->
<g id="node26" class="node"><title>Node12</title>
<a xlink:href="_semaphore_8h.html" target="_top" xlink:title="Semaphore.h">
<polygon style="fill:white;stroke:black;" points="142,-116 142,-137 232,-137 232,-116 142,-116"/>
<text text-anchor="middle" x="187" y="-123" style="font-family:Arial;font-size:10.00;">Semaphore.h</text>
</a>
</g>
<!-- Node9&#45;&gt;Node12 -->
<g id="edge28" class="edge"><title>Node9&#45;&gt;Node12</title>
<path style="fill:none;stroke:midnightblue;" d="M325,-174C296,-164 256,-150 226,-140"/>
<polygon style="fill:midnightblue;stroke:midnightblue;" points="226.584,-136.521 216,-137 224.573,-143.226 226.584,-136.521"/>
</g>
<!-- Node10&#45;&gt;Node6 -->
<g id="edge22" class="edge"><title>Node10&#45;&gt;Node6</title>
<path style="fill:none;stroke:midnightblue;" d="M559,-116C544,-107 523,-94 507,-84"/>
<polygon style="fill:midnightblue;stroke:midnightblue;" points="508.441,-80.7969 498,-79 505.042,-86.916 508.441,-80.7969"/>
</g>
<!-- Node10&#45;&gt;Node7 -->
<g id="edge24" class="edge"><title>Node10&#45;&gt;Node7</title>
<path style="fill:none;stroke:midnightblue;" d="M597,-116C612,-107 633,-94 649,-84"/>
<polygon style="fill:midnightblue;stroke:midnightblue;" points="650.958,-86.916 658,-79 647.559,-80.7969 650.958,-86.916"/>
</g>
<!-- Node12&#45;&gt;Node2 -->
<g id="edge30" class="edge"><title>Node12&#45;&gt;Node2</title>
<path style="fill:none;stroke:midnightblue;" d="M180,-116C168,-96 141,-54 125,-30"/>
<polygon style="fill:midnightblue;stroke:midnightblue;" points="127.916,-28.0418 120,-21 121.797,-31.4414 127.916,-28.0418"/>
</g>
<!-- Node13&#45;&gt;Node2 -->
<g id="edge34" class="edge"><title>Node13&#45;&gt;Node2</title>
<path style="fill:none;stroke:midnightblue;" d="M193,-526C131,-515 38,-487 38,-417 38,-417 38,-417 38,-127 38,-86 71,-49 93,-28"/>
<polygon style="fill:midnightblue;stroke:midnightblue;" points="95.779,-30.2191 101,-21 91.1694,-24.9511 95.779,-30.2191"/>
</g>
<!-- Node13&#45;&gt;Node9 -->
<g id="edge46" class="edge"><title>Node13&#45;&gt;Node9</title>
<path style="fill:none;stroke:midnightblue;" d="M217,-522C178,-506 114,-471 114,-417 114,-417 114,-417 114,-301 114,-269 110,-253 133,-232 151,-215 203,-204 252,-196"/>
<polygon style="fill:midnightblue;stroke:midnightblue;" points="252.398,-199.478 262,-195 251.701,-192.512 252.398,-199.478"/>
</g>
<!-- Node13&#45;&gt;Node12 -->
<g id="edge36" class="edge"><title>Node13&#45;&gt;Node12</title>
<path style="fill:none;stroke:midnightblue;" d="M198,-522C147,-507 76,-476 76,-417 76,-417 76,-417 76,-243 76,-195 124,-160 157,-142"/>
<polygon style="fill:midnightblue;stroke:midnightblue;" points="158.958,-144.916 166,-137 155.559,-138.797 158.958,-144.916"/>
</g>
<!-- Node14 -->
<g id="node33" class="node"><title>Node14</title>
<a xlink:href="_threaded_t_c_p_server_8h.html" target="_top" xlink:title="ThreadedTCPServer.h">
<polygon style="fill:white;stroke:black;" points="256,-290 256,-311 391,-311 391,-290 256,-290"/>
<text text-anchor="middle" x="323" y="-297" style="font-family:Arial;font-size:10.00;">ThreadedTCPServer.h</text>
</a>
</g>
<!-- Node13&#45;&gt;Node14 -->
<g id="edge38" class="edge"><title>Node13&#45;&gt;Node14</title>
<path style="fill:none;stroke:midnightblue;" d="M248,-522C247,-508 248,-484 251,-464 255,-437 257,-430 267,-406 279,-374 298,-340 311,-320"/>
<polygon style="fill:midnightblue;stroke:midnightblue;" points="314.203,-321.441 316,-311 308.084,-318.042 314.203,-321.441"/>
</g>
<!-- Node15 -->
<g id="node39" class="node"><title>Node15</title>
<a xlink:href="_system_manager_8h.html" target="_top" xlink:title="SystemManager.h">
<polygon style="fill:white;stroke:black;" points="276,-464 276,-485 390,-485 390,-464 276,-464"/>
<text text-anchor="middle" x="333" y="-471" style="font-family:Arial;font-size:10.00;">SystemManager.h</text>
</a>
</g>
<!-- Node13&#45;&gt;Node15 -->
<g id="edge48" class="edge"><title>Node13&#45;&gt;Node15</title>
<path style="fill:none;stroke:midnightblue;" d="M259,-522C271,-513 289,-500 304,-490"/>
<polygon style="fill:midnightblue;stroke:midnightblue;" points="305.958,-492.916 313,-485 302.559,-486.797 305.958,-492.916"/>
</g>
<!-- Node14&#45;&gt;Node5 -->
<g id="edge42" class="edge"><title>Node14&#45;&gt;Node5</title>
<path style="fill:none;stroke:midnightblue;" d="M349,-290C371,-280 403,-267 427,-257"/>
<polygon style="fill:midnightblue;stroke:midnightblue;" points="428.283,-260.26 436,-253 425.44,-253.863 428.283,-260.26"/>
</g>
<!-- Node14&#45;&gt;Node9 -->
<g id="edge44" class="edge"><title>Node14&#45;&gt;Node9</title>
<path style="fill:none;stroke:midnightblue;" d="M325,-290C327,-276 332,-252 339,-232 342,-223 345,-213 348,-204"/>
<polygon style="fill:midnightblue;stroke:midnightblue;" points="351.137,-205.56 352,-195 344.74,-202.717 351.137,-205.56"/>
</g>
<!-- Node14&#45;&gt;Node11 -->
<g id="edge40" class="edge"><title>Node14&#45;&gt;Node11</title>
<path style="fill:none;stroke:midnightblue;" d="M308,-290C281,-267 228,-216 252,-174 259,-159 273,-149 288,-141"/>
<polygon style="fill:midnightblue;stroke:midnightblue;" points="289.283,-144.26 297,-137 286.44,-137.863 289.283,-144.26"/>
</g>
<!-- Node15&#45;&gt;Node3 -->
<g id="edge50" class="edge"><title>Node15&#45;&gt;Node3</title>
<path style="fill:none;stroke:midnightblue;" d="M390,-473C637,-463 1603,-420 1603,-359 1603,-359 1603,-359 1603,-185 1603,-151 1595,-112 1589,-89"/>
<polygon style="fill:midnightblue;stroke:midnightblue;" points="1592.39,-88.1194 1587,-79 1585.53,-89.4922 1592.39,-88.1194"/>
</g>
<!-- Node15&#45;&gt;Node13 -->
<g id="edge142" class="edge"><title>Node15&#45;&gt;Node13</title>
<path style="fill:none;stroke:midnightblue;" d="M323,-485C312,-493 294,-506 279,-516"/>
<polygon style="fill:midnightblue;stroke:midnightblue;" points="276.379,-513.541 270,-522 280.262,-519.365 276.379,-513.541"/>
</g>
<!-- Node16 -->
<g id="node42" class="node"><title>Node16</title>
<a xlink:href="_client_manager_8h.html" target="_top" xlink:title="ClientManager.h">
<polygon style="fill:white;stroke:black;" points="666,-290 666,-311 772,-311 772,-290 666,-290"/>
<text text-anchor="middle" x="719" y="-297" style="font-family:Arial;font-size:10.00;">ClientManager.h</text>
</a>
</g>
<!-- Node15&#45;&gt;Node16 -->
<g id="edge52" class="edge"><title>Node15&#45;&gt;Node16</title>
<path style="fill:none;stroke:midnightblue;" d="M390,-464C456,-450 566,-422 647,-370 667,-356 686,-334 699,-318"/>
<polygon style="fill:midnightblue;stroke:midnightblue;" points="701.404,-320.546 706,-311 696.454,-315.596 701.404,-320.546"/>
</g>
<!-- Node30 -->
<g id="node92" class="node"><title>Node30</title>
<a xlink:href="_log_print_8h.html" target="_top" xlink:title="LogPrint.h">
<polygon style="fill:white;stroke:black;" points="142,-232 142,-253 212,-253 212,-232 142,-232"/>
<text text-anchor="middle" x="177" y="-239" style="font-family:Arial;font-size:10.00;">LogPrint.h</text>
</a>
</g>
<!-- Node15&#45;&gt;Node30 -->
<g id="edge160" class="edge"><title>Node15&#45;&gt;Node30</title>
<path style="fill:none;stroke:midnightblue;" d="M313,-464C299,-455 280,-442 267,-428 225,-383 218,-367 195,-312 189,-296 184,-277 181,-263"/>
<polygon style="fill:midnightblue;stroke:midnightblue;" points="184.393,-262.119 179,-253 177.529,-263.492 184.393,-262.119"/>
</g>
<!-- Node15&#45;&gt;Node32 -->
<g id="edge144" class="edge"><title>Node15&#45;&gt;Node32</title>
<path style="fill:none;stroke:midnightblue;" d="M328,-464C327,-456 326,-446 327,-437"/>
<polygon style="fill:midnightblue;stroke:midnightblue;" points="330.488,-437.299 328,-427 323.522,-436.602 330.488,-437.299"/>
</g>
<!-- Node16&#45;&gt;Node9 -->
<g id="edge138" class="edge"><title>Node16&#45;&gt;Node9</title>
<path style="fill:none;stroke:midnightblue;" d="M666,-290C631,-282 586,-270 548,-254 529,-246 527,-239 510,-232 477,-218 439,-206 409,-198"/>
<polygon style="fill:midnightblue;stroke:midnightblue;" points="409.584,-194.521 399,-195 407.573,-201.226 409.584,-194.521"/>
</g>
<!-- Node16&#45;&gt;Node13 -->
<g id="edge134" class="edge"><title>Node16&#45;&gt;Node13</title>
<path style="fill:none;stroke:midnightblue;" d="M717,-311C713,-326 705,-353 690,-370 635,-428 408,-492 303,-519"/>
<polygon style="fill:midnightblue;stroke:midnightblue;" points="301.573,-515.774 293,-522 303.584,-522.479 301.573,-515.774"/>
</g>
<!-- Node16&#45;&gt;Node15 -->
<g id="edge136" class="edge"><title>Node16&#45;&gt;Node15</title>
<path style="fill:none;stroke:midnightblue;" d="M718,-311C710,-326 689,-354 665,-370 582,-422 471,-451 400,-465"/>
<polygon style="fill:midnightblue;stroke:midnightblue;" points="399.119,-461.607 390,-467 400.492,-468.471 399.119,-461.607"/>
</g>
<!-- Node17 -->
<g id="node44" class="node"><title>Node17</title>
<a xlink:href="_message_header_8h.html" target="_top" xlink:title="MessageHeader.h">
<polygon style="fill:white;stroke:black;" points="1108,-116 1108,-137 1221,-137 1221,-116 1108,-116"/>
<text text-anchor="middle" x="1164" y="-123" style="font-family:Arial;font-size:10.00;">MessageHeader.h</text>
</a>
</g>
<!-- Node16&#45;&gt;Node17 -->
<g id="edge54" class="edge"><title>Node16&#45;&gt;Node17</title>
<path style="fill:none;stroke:midnightblue;" d="M772,-300C945,-295 1482,-280 1508,-254 1592,-165 1354,-137 1231,-130"/>
<polygon style="fill:midnightblue;stroke:midnightblue;" points="1231.3,-126.512 1221,-129 1230.6,-133.478 1231.3,-126.512"/>
</g>
<!-- Node20 -->
<g id="node52" class="node"><title>Node20</title>
<a xlink:href="_client_connection_request_8h.html" target="_top" xlink:title="ClientConnectionRequest.h">
<polygon style="fill:white;stroke:black;" points="557,-232 557,-253 722,-253 722,-232 557,-232"/>
<text text-anchor="middle" x="639" y="-239" style="font-family:Arial;font-size:10.00;">ClientConnectionRequest.h</text>
</a>
</g>
<!-- Node16&#45;&gt;Node20 -->
<g id="edge64" class="edge"><title>Node16&#45;&gt;Node20</title>
<path style="fill:none;stroke:midnightblue;" d="M704,-290C692,-281 675,-269 661,-259"/>
<polygon style="fill:midnightblue;stroke:midnightblue;" points="663.1,-256.2 653,-253 658.9,-261.8 663.1,-256.2"/>
</g>
<!-- Node23 -->
<g id="node61" class="node"><title>Node23</title>
<a xlink:href="_client_connection_response_8h.html" target="_top" xlink:title="ClientConnectionResponse.h">
<polygon style="fill:white;stroke:black;" points="995,-232 995,-253 1168,-253 1168,-232 995,-232"/>
<text text-anchor="middle" x="1081" y="-239" style="font-family:Arial;font-size:10.00;">ClientConnectionResponse.h</text>
</a>
</g>
<!-- Node16&#45;&gt;Node23 -->
<g id="edge76" class="edge"><title>Node16&#45;&gt;Node23</title>
<path style="fill:none;stroke:midnightblue;" d="M772,-293C835,-283 939,-266 1008,-255"/>
<polygon style="fill:midnightblue;stroke:midnightblue;" points="1008.88,-258.393 1018,-253 1007.51,-251.529 1008.88,-258.393"/>
</g>
<!-- Node24 -->
<g id="node65" class="node"><title>Node24</title>
<a xlink:href="_set_current_price_8h.html" target="_top" xlink:title="SetCurrentPrice.h">
<polygon style="fill:white;stroke:black;" points="1185,-232 1185,-253 1296,-253 1296,-232 1185,-232"/>
<text text-anchor="middle" x="1240" y="-239" style="font-family:Arial;font-size:10.00;">SetCurrentPrice.h</text>
</a>
</g>
<!-- Node16&#45;&gt;Node24 -->
<g id="edge82" class="edge"><title>Node16&#45;&gt;Node24</title>
<path style="fill:none;stroke:midnightblue;" d="M772,-297C855,-289 1023,-274 1175,-254"/>
<polygon style="fill:midnightblue;stroke:midnightblue;" points="1175.4,-257.478 1185,-253 1174.7,-250.512 1175.4,-257.478"/>
</g>
<!-- Node25 -->
<g id="node69" class="node"><title>Node25</title>
<a xlink:href="_price_proposal_8h.html" target="_top" xlink:title="PriceProposal.h">
<polygon style="fill:white;stroke:black;" points="1313,-232 1313,-253 1411,-253 1411,-232 1313,-232"/>
<text text-anchor="middle" x="1362" y="-239" style="font-family:Arial;font-size:10.00;">PriceProposal.h</text>
</a>
</g>
<!-- Node16&#45;&gt;Node25 -->
<g id="edge88" class="edge"><title>Node16&#45;&gt;Node25</title>
<path style="fill:none;stroke:midnightblue;" d="M772,-299C873,-293 1101,-280 1303,-254"/>
<polygon style="fill:midnightblue;stroke:midnightblue;" points="1303.4,-257.478 1313,-253 1302.7,-250.512 1303.4,-257.478"/>
</g>
<!-- Node26 -->
<g id="node73" class="node"><title>Node26</title>
<a xlink:href="_client_data_8h.html" target="_top" xlink:title="ClientData.h">
<polygon style="fill:white;stroke:black;" points="893,-232 893,-253 977,-253 977,-232 893,-232"/>
<text text-anchor="middle" x="935" y="-239" style="font-family:Arial;font-size:10.00;">ClientData.h</text>
</a>
</g>
<!-- Node16&#45;&gt;Node26 -->
<g id="edge94" class="edge"><title>Node16&#45;&gt;Node26</title>
<path style="fill:none;stroke:midnightblue;" d="M760,-290C797,-280 849,-266 888,-256"/>
<polygon style="fill:midnightblue;stroke:midnightblue;" points="889.427,-259.226 898,-253 887.416,-252.521 889.427,-259.226"/>
</g>
<!-- Node27 -->
<g id="node78" class="node"><title>Node27</title>
<a xlink:href="_get_price_8h.html" target="_top" xlink:title="GetPrice.h">
<polygon style="fill:white;stroke:black;" points="1429,-232 1429,-253 1500,-253 1500,-232 1429,-232"/>
<text text-anchor="middle" x="1464" y="-239" style="font-family:Arial;font-size:10.00;">GetPrice.h</text>
</a>
</g>
<!-- Node16&#45;&gt;Node27 -->
<g id="edge102" class="edge"><title>Node16&#45;&gt;Node27</title>
<path style="fill:none;stroke:midnightblue;" d="M772,-299C910,-292 1276,-274 1419,-254"/>
<polygon style="fill:midnightblue;stroke:midnightblue;" points="1419.88,-257.393 1429,-252 1418.51,-250.529 1419.88,-257.393"/>
</g>
<!-- Node28 -->
<g id="node82" class="node"><title>Node28</title>
<a xlink:href="_demand_negotiation_8h.html" target="_top" xlink:title="DemandNegotiation.h">
<polygon style="fill:white;stroke:black;" points="739,-232 739,-253 876,-253 876,-232 739,-232"/>
<text text-anchor="middle" x="807" y="-239" style="font-family:Arial;font-size:10.00;">DemandNegotiation.h</text>
</a>
</g>
<!-- Node16&#45;&gt;Node28 -->
<g id="edge108" class="edge"><title>Node16&#45;&gt;Node28</title>
<path style="fill:none;stroke:midnightblue;" d="M736,-290C749,-281 769,-268 783,-259"/>
<polygon style="fill:midnightblue;stroke:midnightblue;" points="785.621,-261.459 792,-253 781.738,-255.635 785.621,-261.459"/>
</g>
<!-- Node16&#45;&gt;Node29 -->
<g id="edge116" class="edge"><title>Node16&#45;&gt;Node29</title>
<path style="fill:none;stroke:midnightblue;" d="M695,-311C671,-320 630,-334 599,-345"/>
<polygon style="fill:midnightblue;stroke:midnightblue;" points="597.573,-341.774 589,-348 599.584,-348.479 597.573,-341.774"/>
</g>
<!-- Node16&#45;&gt;Node30 -->
<g id="edge140" class="edge"><title>Node16&#45;&gt;Node30</title>
<path style="fill:none;stroke:midnightblue;" d="M666,-295C559,-284 321,-259 222,-248"/>
<polygon style="fill:midnightblue;stroke:midnightblue;" points="222.299,-244.512 212,-247 221.602,-251.478 222.299,-244.512"/>
</g>
<!-- Node17&#45;&gt;Node3 -->
<g id="edge62" class="edge"><title>Node17&#45;&gt;Node3</title>
<path style="fill:none;stroke:midnightblue;" d="M1221,-119C1311,-107 1484,-83 1554,-73"/>
<polygon style="fill:midnightblue;stroke:midnightblue;" points="1554.4,-76.4778 1564,-72 1553.7,-69.5125 1554.4,-76.4778"/>
</g>
<!-- Node18 -->
<g id="node46" class="node"><title>Node18</title>
<a xlink:href="_network_byte_accessor_8h.html" target="_top" xlink:title="NetworkByteAccessor.h">
<polygon style="fill:white;stroke:black;" points="1010,-58 1010,-79 1151,-79 1151,-58 1010,-58"/>
<text text-anchor="middle" x="1080" y="-65" style="font-family:Arial;font-size:10.00;">NetworkByteAccessor.h</text>
</a>
</g>
<!-- Node17&#45;&gt;Node18 -->
<g id="edge56" class="edge"><title>Node17&#45;&gt;Node18</title>
<path style="fill:none;stroke:midnightblue;" d="M1148,-116C1135,-107 1117,-94 1102,-85"/>
<polygon style="fill:midnightblue;stroke:midnightblue;" points="1104.1,-82.2 1094,-79 1099.9,-87.8 1104.1,-82.2"/>
</g>
<!-- Node18&#45;&gt;Node8 -->
<g id="edge58" class="edge"><title>Node18&#45;&gt;Node8</title>
<path style="fill:none;stroke:midnightblue;" d="M1040,-58C1003,-47 946,-32 909,-22"/>
<polygon style="fill:midnightblue;stroke:midnightblue;" points="909.584,-18.5212 899,-19 907.573,-25.2259 909.584,-18.5212"/>
</g>
<!-- Node19 -->
<g id="node49" class="node"><title>Node19</title>
<a xlink:href="_compile_time_checker_library_8h.html" target="_top" xlink:title="CompileTimeCheckerLibrary.h">
<polygon style="fill:white;stroke:black;" points="990,-0 990,-21 1171,-21 1171,-0 990,-0"/>
<text text-anchor="middle" x="1080" y="-7" style="font-family:Arial;font-size:10.00;">CompileTimeCheckerLibrary.h</text>
</a>
</g>
<!-- Node18&#45;&gt;Node19 -->
<g id="edge60" class="edge"><title>Node18&#45;&gt;Node19</title>
<path style="fill:none;stroke:midnightblue;" d="M1080,-58C1080,-50 1080,-40 1080,-31"/>
<polygon style="fill:midnightblue;stroke:midnightblue;" points="1083.5,-31 1080,-21 1076.5,-31 1083.5,-31"/>
</g>
<!-- Node20&#45;&gt;Node17 -->
<g id="edge66" class="edge"><title>Node20&#45;&gt;Node17</title>
<path style="fill:none;stroke:midnightblue;" d="M678,-232C731,-217 828,-192 912,-174 975,-160 1046,-147 1098,-138"/>
<polygon style="fill:midnightblue;stroke:midnightblue;" points="1098.88,-141.393 1108,-136 1097.51,-134.529 1098.88,-141.393"/>
</g>
<!-- Node21 -->
<g id="node55" class="node"><title>Node21</title>
<a xlink:href="_message_ender_8h.html" target="_top" xlink:title="MessageEnder.h">
<polygon style="fill:white;stroke:black;" points="1029,-174 1029,-195 1133,-195 1133,-174 1029,-174"/>
<text text-anchor="middle" x="1081" y="-181" style="font-family:Arial;font-size:10.00;">MessageEnder.h</text>
</a>
</g>
<!-- Node20&#45;&gt;Node21 -->
<g id="edge68" class="edge"><title>Node20&#45;&gt;Node21</title>
<path style="fill:none;stroke:midnightblue;" d="M722,-232C808,-221 941,-204 1019,-193"/>
<polygon style="fill:midnightblue;stroke:midnightblue;" points="1019.4,-196.478 1029,-192 1018.7,-189.512 1019.4,-196.478"/>
</g>
<!-- Node22 -->
<g id="node59" class="node"><title>Node22</title>
<polygon style="fill:white;stroke:#bfbfbf;" points="703,-174 703,-195 749,-195 749,-174 703,-174"/>
<text text-anchor="middle" x="726" y="-181" style="font-family:Arial;font-size:10.00;">string</text>
</g>
<!-- Node20&#45;&gt;Node22 -->
<g id="edge74" class="edge"><title>Node20&#45;&gt;Node22</title>
<path style="fill:none;stroke:midnightblue;" d="M656,-232C669,-223 688,-210 703,-201"/>
<polygon style="fill:midnightblue;stroke:midnightblue;" points="705.1,-203.8 711,-195 700.9,-198.2 705.1,-203.8"/>
</g>
<!-- Node21&#45;&gt;Node17 -->
<g id="edge70" class="edge"><title>Node21&#45;&gt;Node17</title>
<path style="fill:none;stroke:midnightblue;" d="M1097,-174C1109,-165 1127,-152 1142,-143"/>
<polygon style="fill:midnightblue;stroke:midnightblue;" points="1144.1,-145.8 1150,-137 1139.9,-140.2 1144.1,-145.8"/>
</g>
<!-- Node21&#45;&gt;Node18 -->
<g id="edge72" class="edge"><title>Node21&#45;&gt;Node18</title>
<path style="fill:none;stroke:midnightblue;" d="M1081,-174C1081,-155 1080,-114 1080,-89"/>
<polygon style="fill:midnightblue;stroke:midnightblue;" points="1083.5,-89 1080,-79 1076.5,-89 1083.5,-89"/>
</g>
<!-- Node23&#45;&gt;Node17 -->
<g id="edge78" class="edge"><title>Node23&#45;&gt;Node17</title>
<path style="fill:none;stroke:midnightblue;" d="M1101,-232C1114,-224 1131,-211 1142,-196 1152,-181 1158,-161 1161,-147"/>
<polygon style="fill:midnightblue;stroke:midnightblue;" points="1164.47,-147.492 1163,-137 1157.61,-146.119 1164.47,-147.492"/>
</g>
<!-- Node23&#45;&gt;Node21 -->
<g id="edge80" class="edge"><title>Node23&#45;&gt;Node21</title>
<path style="fill:none;stroke:midnightblue;" d="M1081,-232C1081,-224 1081,-214 1081,-205"/>
<polygon style="fill:midnightblue;stroke:midnightblue;" points="1084.5,-205 1081,-195 1077.5,-205 1084.5,-205"/>
</g>
<!-- Node24&#45;&gt;Node17 -->
<g id="edge84" class="edge"><title>Node24&#45;&gt;Node17</title>
<path style="fill:none;stroke:midnightblue;" d="M1233,-232C1220,-212 1192,-170 1176,-146"/>
<polygon style="fill:midnightblue;stroke:midnightblue;" points="1178.92,-144.042 1171,-137 1172.8,-147.441 1178.92,-144.042"/>
</g>
<!-- Node24&#45;&gt;Node21 -->
<g id="edge86" class="edge"><title>Node24&#45;&gt;Node21</title>
<path style="fill:none;stroke:midnightblue;" d="M1210,-232C1184,-222 1146,-208 1119,-198"/>
<polygon style="fill:midnightblue;stroke:midnightblue;" points="1119.58,-194.521 1109,-195 1117.57,-201.226 1119.58,-194.521"/>
</g>
<!-- Node25&#45;&gt;Node17 -->
<g id="edge90" class="edge"><title>Node25&#45;&gt;Node17</title>
<path style="fill:none;stroke:midnightblue;" d="M1343,-232C1307,-212 1230,-166 1190,-142"/>
<polygon style="fill:midnightblue;stroke:midnightblue;" points="1191.44,-138.797 1181,-137 1188.04,-144.916 1191.44,-138.797"/>
</g>
<!-- Node25&#45;&gt;Node21 -->
<g id="edge92" class="edge"><title>Node25&#45;&gt;Node21</title>
<path style="fill:none;stroke:midnightblue;" d="M1313,-233C1264,-223 1191,-208 1140,-197"/>
<polygon style="fill:midnightblue;stroke:midnightblue;" points="1140.49,-193.529 1130,-195 1139.12,-200.393 1140.49,-193.529"/>
</g>
<!-- Node26&#45;&gt;Node8 -->
<g id="edge100" class="edge"><title>Node26&#45;&gt;Node8</title>
<path style="fill:none;stroke:midnightblue;" d="M932,-232C922,-195 889,-78 877,-31"/>
<polygon style="fill:midnightblue;stroke:midnightblue;" points="880.226,-29.5725 874,-21 873.521,-31.584 880.226,-29.5725"/>
</g>
<!-- Node26&#45;&gt;Node17 -->
<g id="edge96" class="edge"><title>Node26&#45;&gt;Node17</title>
<path style="fill:none;stroke:midnightblue;" d="M946,-232C961,-217 990,-190 1020,-174 1048,-159 1081,-148 1108,-140"/>
<polygon style="fill:midnightblue;stroke:midnightblue;" points="1109.43,-143.226 1118,-137 1107.42,-136.521 1109.43,-143.226"/>
</g>
<!-- Node26&#45;&gt;Node21 -->
<g id="edge98" class="edge"><title>Node26&#45;&gt;Node21</title>
<path style="fill:none;stroke:midnightblue;" d="M963,-232C987,-222 1021,-209 1047,-199"/>
<polygon style="fill:midnightblue;stroke:midnightblue;" points="1048.28,-202.26 1056,-195 1045.44,-195.863 1048.28,-202.26"/>
</g>
<!-- Node27&#45;&gt;Node17 -->
<g id="edge104" class="edge"><title>Node27&#45;&gt;Node17</title>
<path style="fill:none;stroke:midnightblue;" d="M1436,-232C1381,-211 1260,-164 1199,-141"/>
<polygon style="fill:midnightblue;stroke:midnightblue;" points="1200.56,-137.863 1190,-137 1197.72,-144.26 1200.56,-137.863"/>
</g>
<!-- Node27&#45;&gt;Node21 -->
<g id="edge106" class="edge"><title>Node27&#45;&gt;Node21</title>
<path style="fill:none;stroke:midnightblue;" d="M1429,-234C1426,-233 1423,-232 1420,-232 1324,-213 1212,-199 1143,-191"/>
<polygon style="fill:midnightblue;stroke:midnightblue;" points="1143.3,-187.512 1133,-190 1142.6,-194.478 1143.3,-187.512"/>
</g>
<!-- Node28&#45;&gt;Node8 -->
<g id="edge114" class="edge"><title>Node28&#45;&gt;Node8</title>
<path style="fill:none;stroke:midnightblue;" d="M810,-232C820,-195 853,-78 865,-31"/>
<polygon style="fill:midnightblue;stroke:midnightblue;" points="868.479,-31.584 868,-21 861.774,-29.5725 868.479,-31.584"/>
</g>
<!-- Node28&#45;&gt;Node17 -->
<g id="edge110" class="edge"><title>Node28&#45;&gt;Node17</title>
<path style="fill:none;stroke:midnightblue;" d="M831,-232C865,-217 926,-191 980,-174 1022,-160 1070,-147 1107,-139"/>
<polygon style="fill:midnightblue;stroke:midnightblue;" points="1107.88,-142.393 1117,-137 1106.51,-135.529 1107.88,-142.393"/>
</g>
<!-- Node28&#45;&gt;Node21 -->
<g id="edge112" class="edge"><title>Node28&#45;&gt;Node21</title>
<path style="fill:none;stroke:midnightblue;" d="M859,-232C907,-222 975,-207 1024,-197"/>
<polygon style="fill:midnightblue;stroke:midnightblue;" points="1024.88,-200.393 1034,-195 1023.51,-193.529 1024.88,-200.393"/>
</g>
<!-- Node29&#45;&gt;Node3 -->
<g id="edge130" class="edge"><title>Node29&#45;&gt;Node3</title>
<path style="fill:none;stroke:midnightblue;" d="M621,-358C850,-355 1565,-338 1565,-243 1565,-243 1565,-243 1565,-185 1565,-151 1573,-112 1579,-89"/>
<polygon style="fill:midnightblue;stroke:midnightblue;" points="1582.47,-89.4922 1581,-79 1575.61,-88.1194 1582.47,-89.4922"/>
</g>
<!-- Node29&#45;&gt;Node9 -->
<g id="edge122" class="edge"><title>Node29&#45;&gt;Node9</title>
<path style="fill:none;stroke:midnightblue;" d="M534,-348C506,-330 450,-293 410,-254 394,-238 380,-218 370,-204"/>
<polygon style="fill:midnightblue;stroke:midnightblue;" points="372.459,-201.379 364,-195 366.635,-205.262 372.459,-201.379"/>
</g>
<!-- Node29&#45;&gt;Node14 -->
<g id="edge120" class="edge"><title>Node29&#45;&gt;Node14</title>
<path style="fill:none;stroke:midnightblue;" d="M508,-348C469,-338 413,-323 373,-313"/>
<polygon style="fill:midnightblue;stroke:midnightblue;" points="373.492,-309.529 363,-311 372.119,-316.393 373.492,-309.529"/>
</g>
<!-- Node29&#45;&gt;Node16 -->
<g id="edge118" class="edge"><title>Node29&#45;&gt;Node16</title>
<path style="fill:none;stroke:midnightblue;" d="M578,-348C604,-338 644,-324 675,-314"/>
<polygon style="fill:midnightblue;stroke:midnightblue;" points="676.427,-317.226 685,-311 674.416,-310.521 676.427,-317.226"/>
</g>
<!-- Node29&#45;&gt;Node30 -->
<g id="edge124" class="edge"><title>Node29&#45;&gt;Node30</title>
<path style="fill:none;stroke:midnightblue;" d="M484,-353C407,-346 287,-332 247,-312 223,-300 202,-278 190,-261"/>
<polygon style="fill:midnightblue;stroke:midnightblue;" points="192.8,-258.9 184,-253 187.2,-263.1 192.8,-258.9"/>
</g>
<!-- Node31 -->
<g id="node97" class="node"><title>Node31</title>
<polygon style="fill:white;stroke:#bfbfbf;" points="522,-290 522,-311 591,-311 591,-290 522,-290"/>
<text text-anchor="middle" x="556" y="-297" style="font-family:Arial;font-size:10.00;">algorithm</text>
</g>
<!-- Node29&#45;&gt;Node31 -->
<g id="edge132" class="edge"><title>Node29&#45;&gt;Node31</title>
<path style="fill:none;stroke:midnightblue;" d="M553,-348C554,-340 554,-330 555,-321"/>
<polygon style="fill:midnightblue;stroke:midnightblue;" points="558.5,-321 555,-311 551.5,-321 558.5,-321"/>
</g>
<!-- Node30&#45;&gt;Node2 -->
<g id="edge126" class="edge"><title>Node30&#45;&gt;Node2</title>
<path style="fill:none;stroke:midnightblue;" d="M171,-232C162,-213 143,-173 133,-138 123,-101 117,-57 116,-31"/>
<polygon style="fill:midnightblue;stroke:midnightblue;" points="119.478,-30.6021 115,-21 112.512,-31.2987 119.478,-30.6021"/>
</g>
<!-- Node30&#45;&gt;Node12 -->
<g id="edge128" class="edge"><title>Node30&#45;&gt;Node12</title>
<path style="fill:none;stroke:midnightblue;" d="M178,-232C180,-213 183,-172 185,-147"/>
<polygon style="fill:midnightblue;stroke:midnightblue;" points="188.488,-147.299 186,-137 181.522,-146.602 188.488,-147.299"/>
</g>
<!-- Node32&#45;&gt;Node9 -->
<g id="edge152" class="edge"><title>Node32&#45;&gt;Node9</title>
<path style="fill:none;stroke:midnightblue;" d="M343,-406C358,-388 387,-350 399,-312 401,-302 400,-299 399,-290 395,-272 377,-229 366,-204"/>
<polygon style="fill:midnightblue;stroke:midnightblue;" points="369.26,-202.717 362,-195 362.863,-205.56 369.26,-202.717"/>
</g>
<!-- Node32&#45;&gt;Node13 -->
<g id="edge150" class="edge"><title>Node32&#45;&gt;Node13</title>
<path style="fill:none;stroke:midnightblue;" d="M311,-427C297,-435 278,-448 267,-464 257,-478 252,-497 250,-512"/>
<polygon style="fill:midnightblue;stroke:midnightblue;" points="246.512,-511.701 249,-522 253.478,-512.398 246.512,-511.701"/>
</g>
<!-- Node32&#45;&gt;Node14 -->
<g id="edge148" class="edge"><title>Node32&#45;&gt;Node14</title>
<path style="fill:none;stroke:midnightblue;" d="M332,-406C330,-387 327,-346 325,-321"/>
<polygon style="fill:midnightblue;stroke:midnightblue;" points="328.478,-320.602 324,-311 321.512,-321.299 328.478,-320.602"/>
</g>
<!-- Node32&#45;&gt;Node15 -->
<g id="edge146" class="edge"><title>Node32&#45;&gt;Node15</title>
<path style="fill:none;stroke:midnightblue;" d="M338,-427C339,-434 340,-444 339,-454"/>
<polygon style="fill:midnightblue;stroke:midnightblue;" points="335.512,-453.701 338,-464 342.478,-454.398 335.512,-453.701"/>
</g>
<!-- Node32&#45;&gt;Node16 -->
<g id="edge156" class="edge"><title>Node32&#45;&gt;Node16</title>
<path style="fill:none;stroke:midnightblue;" d="M390,-411C464,-403 587,-388 629,-370 657,-358 685,-335 702,-318"/>
<polygon style="fill:midnightblue;stroke:midnightblue;" points="704.404,-320.546 709,-311 699.454,-315.596 704.404,-320.546"/>
</g>
<!-- Node32&#45;&gt;Node29 -->
<g id="edge154" class="edge"><title>Node32&#45;&gt;Node29</title>
<path style="fill:none;stroke:midnightblue;" d="M375,-406C412,-396 465,-382 504,-372"/>
<polygon style="fill:midnightblue;stroke:midnightblue;" points="505.427,-375.226 514,-369 503.416,-368.521 505.427,-375.226"/>
</g>
<!-- Node32&#45;&gt;Node30 -->
<g id="edge158" class="edge"><title>Node32&#45;&gt;Node30</title>
<path style="fill:none;stroke:midnightblue;" d="M317,-406C292,-388 244,-351 213,-312 201,-297 191,-277 185,-262"/>
<polygon style="fill:midnightblue;stroke:midnightblue;" points="188.26,-260.717 181,-253 181.863,-263.56 188.26,-260.717"/>
</g>
</g>
</svg>
