<?xml version="1.0" encoding="UTF-8" standalone="no"?>
<!DOCTYPE svg PUBLIC "-//W3C//DTD SVG 1.0//EN"
 "http://www.w3.org/TR/2001/REC-SVG-20010904/DTD/svg10.dtd" [
 <!ATTLIST svg xmlns:xlink CDATA #FIXED "http://www.w3.org/1999/xlink">
]>
<!-- Generated by Graphviz version 2.14.1 (Fri Nov  9 08:19:38 GMT 2007)
     For user: (asakyurek) Alper Sinan Akyurek -->
<!-- Title: S2Sim/TerraswarmLibrary/ClientConnectionRequest.h Pages: 1 -->
<svg width="798pt" height="402pt"
 viewBox="0.00 0.00 798.00 402.00" xmlns="http://www.w3.org/2000/svg" xmlns:xlink="http://www.w3.org/1999/xlink">
<g id="graph0" class="graph" transform="scale(1 1) rotate(0) translate(4 398)">
<title>S2Sim/TerraswarmLibrary/ClientConnectionRequest.h</title>
<polygon style="fill:white;stroke:white;" points="-4,4 -4,-398 794,-398 794,4 -4,4"/>
<!-- Node1 -->
<g id="node1" class="node"><title>Node1</title>
<polygon style="fill:#bfbfbf;stroke:black;" points="526,-360 526,-394 694,-394 694,-360 526,-360"/>
<text text-anchor="start" x="534" y="-380" style="font-family:Arial;font-size:10.00;">S2Sim/TerraswarmLibrary</text>
<text text-anchor="middle" x="610" y="-367" style="font-family:Arial;font-size:10.00;">/ClientConnectionRequest.h</text>
</g>
<!-- Node2 -->
<g id="node3" class="node"><title>Node2</title>
<a xlink:href="_client_manager_8h.html" target="_top" xlink:title="S2Sim/ClientManager.h">
<polygon style="fill:white;stroke:black;" points="450,-296 450,-317 593,-317 593,-296 450,-296"/>
<text text-anchor="middle" x="521" y="-303" style="font-family:Arial;font-size:10.00;">S2Sim/ClientManager.h</text>
</a>
</g>
<!-- Node1&#45;&gt;Node2 -->
<g id="edge2" class="edge"><title>Node1&#45;&gt;Node2</title>
<path style="fill:none;stroke:midnightblue;" d="M580,-354C564,-341 546,-326 534,-317"/>
<polygon style="fill:midnightblue;stroke:midnightblue;" points="577.9,-356.8 588,-360 582.1,-351.2 577.9,-356.8"/>
</g>
<!-- Node13 -->
<g id="node35" class="node"><title>Node13</title>
<a xlink:href="_client_connection_request_8cpp.html" target="_top" xlink:title="S2Sim/TerraswarmLibrary\l/ClientConnectionRequest.cpp">
<polygon style="fill:white;stroke:black;" points="610,-290 610,-324 791,-324 791,-290 610,-290"/>
<text text-anchor="start" x="618" y="-310" style="font-family:Arial;font-size:10.00;">S2Sim/TerraswarmLibrary</text>
<text text-anchor="middle" x="700" y="-297" style="font-family:Arial;font-size:10.00;">/ClientConnectionRequest.cpp</text>
</a>
</g>
<!-- Node1&#45;&gt;Node13 -->
<g id="edge44" class="edge"><title>Node1&#45;&gt;Node13</title>
<path style="fill:none;stroke:midnightblue;" d="M640,-354C652,-344 667,-333 678,-324"/>
<polygon style="fill:midnightblue;stroke:midnightblue;" points="637.9,-351.2 632,-360 642.1,-356.8 637.9,-351.2"/>
</g>
<!-- Node3 -->
<g id="node5" class="node"><title>Node3</title>
<a xlink:href="_client_manager_8cpp.html" target="_top" xlink:title="S2Sim/ClientManager.cpp">
<polygon style="fill:white;stroke:black;" points="145,-232 145,-253 301,-253 301,-232 145,-232"/>
<text text-anchor="middle" x="223" y="-239" style="font-family:Arial;font-size:10.00;">S2Sim/ClientManager.cpp</text>
</a>
</g>
<!-- Node2&#45;&gt;Node3 -->
<g id="edge4" class="edge"><title>Node2&#45;&gt;Node3</title>
<path style="fill:none;stroke:midnightblue;" d="M460,-294C404,-282 321,-264 270,-253"/>
<polygon style="fill:midnightblue;stroke:midnightblue;" points="459.508,-297.471 470,-296 460.881,-290.607 459.508,-297.471"/>
</g>
<!-- Node4 -->
<g id="node7" class="node"><title>Node4</title>
<a xlink:href="_connection_manager_8h.html" target="_top" xlink:title="S2Sim/ConnectionManager.h">
<polygon style="fill:white;stroke:black;" points="319,-232 319,-253 493,-253 493,-232 319,-232"/>
<text text-anchor="middle" x="406" y="-239" style="font-family:Arial;font-size:10.00;">S2Sim/ConnectionManager.h</text>
</a>
</g>
<!-- Node2&#45;&gt;Node4 -->
<g id="edge6" class="edge"><title>Node2&#45;&gt;Node4</title>
<path style="fill:none;stroke:midnightblue;" d="M487,-291C464,-280 436,-264 419,-253"/>
<polygon style="fill:midnightblue;stroke:midnightblue;" points="485.559,-294.203 496,-296 488.958,-288.084 485.559,-294.203"/>
</g>
<!-- Node5 -->
<g id="node10" class="node"><title>Node5</title>
<a xlink:href="_control_manager_8h.html" target="_top" xlink:title="S2Sim/ControlManager.h">
<polygon style="fill:white;stroke:black;" points="331,-174 331,-195 482,-195 482,-174 331,-174"/>
<text text-anchor="middle" x="406" y="-181" style="font-family:Arial;font-size:10.00;">S2Sim/ControlManager.h</text>
</a>
</g>
<!-- Node2&#45;&gt;Node5 -->
<g id="edge42" class="edge"><title>Node2&#45;&gt;Node5</title>
<path style="fill:none;stroke:midnightblue;" d="M520,-286C518,-269 514,-247 502,-232 487,-214 464,-202 444,-195"/>
<polygon style="fill:midnightblue;stroke:midnightblue;" points="516.522,-286.398 521,-296 523.488,-285.701 516.522,-286.398"/>
</g>
<!-- Node6 -->
<g id="node12" class="node"><title>Node6</title>
<a xlink:href="_system_manager_8h.html" target="_top" xlink:title="S2Sim/SystemManager.h">
<polygon style="fill:white;stroke:black;" points="500,-116 500,-137 651,-137 651,-116 500,-116"/>
<text text-anchor="middle" x="575" y="-123" style="font-family:Arial;font-size:10.00;">S2Sim/SystemManager.h</text>
</a>
</g>
<!-- Node2&#45;&gt;Node6 -->
<g id="edge40" class="edge"><title>Node2&#45;&gt;Node6</title>
<path style="fill:none;stroke:midnightblue;" d="M523,-286C531,-247 555,-166 568,-137"/>
<polygon style="fill:midnightblue;stroke:midnightblue;" points="519.529,-285.508 521,-296 526.393,-286.881 519.529,-285.508"/>
</g>
<!-- Node4&#45;&gt;Node2 -->
<g id="edge8" class="edge"><title>Node4&#45;&gt;Node2</title>
<path style="fill:none;stroke:midnightblue;" d="M438,-258C460,-270 489,-286 506,-296"/>
<polygon style="fill:midnightblue;stroke:midnightblue;" points="439.441,-254.797 429,-253 436.042,-260.916 439.441,-254.797"/>
</g>
<!-- Node4&#45;&gt;Node5 -->
<g id="edge10" class="edge"><title>Node4&#45;&gt;Node5</title>
<path style="fill:none;stroke:midnightblue;" d="M406,-222C406,-212 406,-202 406,-195"/>
<polygon style="fill:midnightblue;stroke:midnightblue;" points="402.5,-222 406,-232 409.5,-222 402.5,-222"/>
</g>
<!-- Node8 -->
<g id="node19" class="node"><title>Node8</title>
<a xlink:href="main_8cpp.html" target="_top" xlink:title="S2Sim/main.cpp">
<polygon style="fill:white;stroke:black;" points="200,-0 200,-21 304,-21 304,-0 200,-0"/>
<text text-anchor="middle" x="252" y="-7" style="font-family:Arial;font-size:10.00;">S2Sim/main.cpp</text>
</a>
</g>
<!-- Node4&#45;&gt;Node8 -->
<g id="edge38" class="edge"><title>Node4&#45;&gt;Node8</title>
<path style="fill:none;stroke:midnightblue;" d="M372,-227C356,-219 337,-209 322,-196 297,-174 292,-166 277,-138 263,-113 260,-107 255,-80 250,-59 251,-35 251,-21"/>
<polygon style="fill:midnightblue;stroke:midnightblue;" points="370.559,-230.203 381,-232 373.958,-224.084 370.559,-230.203"/>
</g>
<!-- Node12 -->
<g id="node30" class="node"><title>Node12</title>
<a xlink:href="_connection_manager_8cpp.html" target="_top" xlink:title="S2Sim/ConnectionManager.cpp">
<polygon style="fill:white;stroke:black;" points="0,-174 0,-195 187,-195 187,-174 0,-174"/>
<text text-anchor="middle" x="93" y="-181" style="font-family:Arial;font-size:10.00;">S2Sim/ConnectionManager.cpp</text>
</a>
</g>
<!-- Node4&#45;&gt;Node12 -->
<g id="edge36" class="edge"><title>Node4&#45;&gt;Node12</title>
<path style="fill:none;stroke:midnightblue;" d="M336,-230C279,-219 200,-204 147,-195"/>
<polygon style="fill:midnightblue;stroke:midnightblue;" points="335.508,-233.471 346,-232 336.881,-226.607 335.508,-233.471"/>
</g>
<!-- Node5&#45;&gt;Node6 -->
<g id="edge12" class="edge"><title>Node5&#45;&gt;Node6</title>
<path style="fill:none;stroke:midnightblue;" d="M443,-170C472,-160 512,-146 541,-137"/>
<polygon style="fill:midnightblue;stroke:midnightblue;" points="440.985,-167.036 433,-174 443.585,-173.536 440.985,-167.036"/>
</g>
<!-- Node5&#45;&gt;Node8 -->
<g id="edge34" class="edge"><title>Node5&#45;&gt;Node8</title>
<path style="fill:none;stroke:midnightblue;" d="M349,-171C331,-163 312,-152 298,-138 265,-103 255,-45 253,-21"/>
<polygon style="fill:midnightblue;stroke:midnightblue;" points="348.416,-174.479 359,-174 350.427,-167.774 348.416,-174.479"/>
</g>
<!-- Node11 -->
<g id="node27" class="node"><title>Node11</title>
<a xlink:href="_control_manager_8cpp.html" target="_top" xlink:title="S2Sim/ControlManager.cpp">
<polygon style="fill:white;stroke:black;" points="318,-116 318,-137 482,-137 482,-116 318,-116"/>
<text text-anchor="middle" x="400" y="-123" style="font-family:Arial;font-size:10.00;">S2Sim/ControlManager.cpp</text>
</a>
</g>
<!-- Node5&#45;&gt;Node11 -->
<g id="edge32" class="edge"><title>Node5&#45;&gt;Node11</title>
<path style="fill:none;stroke:midnightblue;" d="M404,-164C403,-154 402,-144 401,-137"/>
<polygon style="fill:midnightblue;stroke:midnightblue;" points="400.522,-164.398 405,-174 407.488,-163.701 400.522,-164.398"/>
</g>
<!-- Node6&#45;&gt;Node2 -->
<g id="edge28" class="edge"><title>Node6&#45;&gt;Node2</title>
<path style="fill:none;stroke:midnightblue;" d="M573,-147C566,-185 541,-266 528,-296"/>
<polygon style="fill:midnightblue;stroke:midnightblue;" points="576.471,-147.492 575,-137 569.607,-146.119 576.471,-147.492"/>
</g>
<!-- Node6&#45;&gt;Node5 -->
<g id="edge26" class="edge"><title>Node6&#45;&gt;Node5</title>
<path style="fill:none;stroke:midnightblue;" d="M542,-140C513,-150 474,-164 444,-174"/>
<polygon style="fill:midnightblue;stroke:midnightblue;" points="542.62,-143.483 551,-137 540.406,-136.842 542.62,-143.483"/>
</g>
<!-- Node7 -->
<g id="node14" class="node"><title>Node7</title>
<a xlink:href="_matlab_manager_8h.html" target="_top" xlink:title="S2Sim/MatlabManager.h">
<polygon style="fill:white;stroke:black;" points="501,-58 501,-79 649,-79 649,-58 501,-58"/>
<text text-anchor="middle" x="575" y="-65" style="font-family:Arial;font-size:10.00;">S2Sim/MatlabManager.h</text>
</a>
</g>
<!-- Node6&#45;&gt;Node7 -->
<g id="edge14" class="edge"><title>Node6&#45;&gt;Node7</title>
<path style="fill:none;stroke:midnightblue;" d="M569,-106C568,-96 569,-86 570,-79"/>
<polygon style="fill:midnightblue;stroke:midnightblue;" points="565.522,-106.398 570,-116 572.488,-105.701 565.522,-106.398"/>
</g>
<!-- Node10 -->
<g id="node25" class="node"><title>Node10</title>
<a xlink:href="_system_manager_8cpp.html" target="_top" xlink:title="S2Sim/SystemManager.cpp">
<polygon style="fill:white;stroke:black;" points="319,-58 319,-79 483,-79 483,-58 319,-58"/>
<text text-anchor="middle" x="401" y="-65" style="font-family:Arial;font-size:10.00;">S2Sim/SystemManager.cpp</text>
</a>
</g>
<!-- Node6&#45;&gt;Node10 -->
<g id="edge30" class="edge"><title>Node6&#45;&gt;Node10</title>
<path style="fill:none;stroke:midnightblue;" d="M532,-113C501,-102 459,-88 431,-79"/>
<polygon style="fill:midnightblue;stroke:midnightblue;" points="531.416,-116.479 542,-116 533.427,-109.774 531.416,-116.479"/>
</g>
<!-- Node7&#45;&gt;Node2 -->
<g id="edge16" class="edge"><title>Node7&#45;&gt;Node2</title>
<path style="fill:none;stroke:midnightblue;" d="M619,-83C635,-90 650,-101 659,-116 663,-124 662,-128 659,-138 633,-208 565,-271 535,-296"/>
<polygon style="fill:midnightblue;stroke:midnightblue;" points="620.56,-79.8631 610,-79 617.717,-86.2598 620.56,-79.8631"/>
</g>
<!-- Node7&#45;&gt;Node5 -->
<g id="edge20" class="edge"><title>Node7&#45;&gt;Node5</title>
<path style="fill:none;stroke:midnightblue;" d="M495,-80C418,-92 315,-108 309,-116 288,-141 331,-162 367,-174"/>
<polygon style="fill:midnightblue;stroke:midnightblue;" points="495.398,-83.4778 505,-79 494.701,-76.5125 495.398,-83.4778"/>
</g>
<!-- Node7&#45;&gt;Node6 -->
<g id="edge18" class="edge"><title>Node7&#45;&gt;Node6</title>
<path style="fill:none;stroke:midnightblue;" d="M581,-89C582,-98 581,-108 580,-116"/>
<polygon style="fill:midnightblue;stroke:midnightblue;" points="584.478,-88.6021 580,-79 577.512,-89.2987 584.478,-88.6021"/>
</g>
<!-- Node7&#45;&gt;Node8 -->
<g id="edge22" class="edge"><title>Node7&#45;&gt;Node8</title>
<path style="fill:none;stroke:midnightblue;" d="M503,-56C443,-45 358,-30 304,-20"/>
<polygon style="fill:midnightblue;stroke:midnightblue;" points="502.508,-59.4708 513,-58 503.881,-52.6067 502.508,-59.4708"/>
</g>
<!-- Node9 -->
<g id="node21" class="node"><title>Node9</title>
<a xlink:href="_matlab_manager_8cpp.html" target="_top" xlink:title="S2Sim/MatlabManager.cpp">
<polygon style="fill:white;stroke:black;" points="495,-0 495,-21 656,-21 656,-0 495,-0"/>
<text text-anchor="middle" x="575" y="-7" style="font-family:Arial;font-size:10.00;">S2Sim/MatlabManager.cpp</text>
</a>
</g>
<!-- Node7&#45;&gt;Node9 -->
<g id="edge24" class="edge"><title>Node7&#45;&gt;Node9</title>
<path style="fill:none;stroke:midnightblue;" d="M575,-48C575,-38 575,-28 575,-21"/>
<polygon style="fill:midnightblue;stroke:midnightblue;" points="571.5,-48 575,-58 578.5,-48 571.5,-48"/>
</g>
</g>
</svg>
