<?xml version="1.0" encoding="UTF-8" standalone="no"?>
<!DOCTYPE svg PUBLIC "-//W3C//DTD SVG 1.0//EN"
 "http://www.w3.org/TR/2001/REC-SVG-20010904/DTD/svg10.dtd" [
 <!ATTLIST svg xmlns:xlink CDATA #FIXED "http://www.w3.org/1999/xlink">
]>
<!-- Generated by Graphviz version 2.14.1 (Fri Nov  9 08:19:38 GMT 2007)
     For user: (asakyurek) Alper Sinan Akyurek -->
<!-- Title: S2Sim/ClientManager.cpp Pages: 1 -->
<svg width="1481pt" height="668pt"
 viewBox="0.00 0.00 1481.00 668.00" xmlns="http://www.w3.org/2000/svg" xmlns:xlink="http://www.w3.org/1999/xlink">
<g id="graph0" class="graph" transform="scale(1 1) rotate(0) translate(4 664)">
<title>S2Sim/ClientManager.cpp</title>
<polygon style="fill:white;stroke:white;" points="-4,4 -4,-664 1477,-664 1477,4 -4,4"/>
<!-- Node1 -->
<g id="node1" class="node"><title>Node1</title>
<polygon style="fill:#bfbfbf;stroke:black;" points="911,-638 911,-659 1067,-659 1067,-638 911,-638"/>
<text text-anchor="middle" x="989" y="-645" style="font-family:Arial;font-size:10.00;">S2Sim/ClientManager.cpp</text>
</g>
<!-- Node2 -->
<g id="node3" class="node"><title>Node2</title>
<a xlink:href="_client_manager_8h.html" target="_top" xlink:title="ClientManager.h">
<polygon style="fill:white;stroke:black;" points="936,-580 936,-601 1042,-601 1042,-580 936,-580"/>
<text text-anchor="middle" x="989" y="-587" style="font-family:Arial;font-size:10.00;">ClientManager.h</text>
</a>
</g>
<!-- Node1&#45;&gt;Node2 -->
<g id="edge2" class="edge"><title>Node1&#45;&gt;Node2</title>
<path style="fill:none;stroke:midnightblue;" d="M989,-638C989,-630 989,-620 989,-611"/>
<polygon style="fill:midnightblue;stroke:midnightblue;" points="992.5,-611 989,-601 985.5,-611 992.5,-611"/>
</g>
<!-- Node3 -->
<g id="node5" class="node"><title>Node3</title>
<a xlink:href="_message_header_8h.html" target="_top" xlink:title="MessageHeader.h">
<polygon style="fill:white;stroke:black;" points="434,-406 434,-427 547,-427 547,-406 434,-406"/>
<text text-anchor="middle" x="490" y="-413" style="font-family:Arial;font-size:10.00;">MessageHeader.h</text>
</a>
</g>
<!-- Node2&#45;&gt;Node3 -->
<g id="edge4" class="edge"><title>Node2&#45;&gt;Node3</title>
<path style="fill:none;stroke:midnightblue;" d="M986,-580C980,-565 969,-538 951,-522 897,-474 870,-482 801,-464 718,-442 621,-429 557,-423"/>
<polygon style="fill:midnightblue;stroke:midnightblue;" points="557.299,-419.512 547,-422 556.602,-426.478 557.299,-419.512"/>
</g>
<!-- Node8 -->
<g id="node15" class="node"><title>Node8</title>
<a xlink:href="_client_connection_request_8h.html" target="_top" xlink:title="ClientConnectionRequest.h">
<polygon style="fill:white;stroke:black;" points="650,-522 650,-543 815,-543 815,-522 650,-522"/>
<text text-anchor="middle" x="732" y="-529" style="font-family:Arial;font-size:10.00;">ClientConnectionRequest.h</text>
</a>
</g>
<!-- Node2&#45;&gt;Node8 -->
<g id="edge14" class="edge"><title>Node2&#45;&gt;Node8</title>
<path style="fill:none;stroke:midnightblue;" d="M940,-580C896,-570 832,-555 786,-545"/>
<polygon style="fill:midnightblue;stroke:midnightblue;" points="786.492,-541.529 776,-543 785.119,-548.393 786.492,-541.529"/>
</g>
<!-- Node11 -->
<g id="node24" class="node"><title>Node11</title>
<a xlink:href="_client_connection_response_8h.html" target="_top" xlink:title="ClientConnectionResponse.h">
<polygon style="fill:white;stroke:black;" points="460,-522 460,-543 633,-543 633,-522 460,-522"/>
<text text-anchor="middle" x="546" y="-529" style="font-family:Arial;font-size:10.00;">ClientConnectionResponse.h</text>
</a>
</g>
<!-- Node2&#45;&gt;Node11 -->
<g id="edge26" class="edge"><title>Node2&#45;&gt;Node11</title>
<path style="fill:none;stroke:midnightblue;" d="M936,-584C861,-574 722,-556 632,-544"/>
<polygon style="fill:midnightblue;stroke:midnightblue;" points="632.299,-540.512 622,-543 631.602,-547.478 632.299,-540.512"/>
</g>
<!-- Node12 -->
<g id="node28" class="node"><title>Node12</title>
<a xlink:href="_set_current_price_8h.html" target="_top" xlink:title="SetCurrentPrice.h">
<polygon style="fill:white;stroke:black;" points="832,-522 832,-543 943,-543 943,-522 832,-522"/>
<text text-anchor="middle" x="887" y="-529" style="font-family:Arial;font-size:10.00;">SetCurrentPrice.h</text>
</a>
</g>
<!-- Node2&#45;&gt;Node12 -->
<g id="edge32" class="edge"><title>Node2&#45;&gt;Node12</title>
<path style="fill:none;stroke:midnightblue;" d="M969,-580C954,-571 932,-558 914,-548"/>
<polygon style="fill:midnightblue;stroke:midnightblue;" points="915.441,-544.797 905,-543 912.042,-550.916 915.441,-544.797"/>
</g>
<!-- Node13 -->
<g id="node32" class="node"><title>Node13</title>
<a xlink:href="_price_proposal_8h.html" target="_top" xlink:title="PriceProposal.h">
<polygon style="fill:white;stroke:black;" points="256,-522 256,-543 354,-543 354,-522 256,-522"/>
<text text-anchor="middle" x="305" y="-529" style="font-family:Arial;font-size:10.00;">PriceProposal.h</text>
</a>
</g>
<!-- Node2&#45;&gt;Node13 -->
<g id="edge38" class="edge"><title>Node2&#45;&gt;Node13</title>
<path style="fill:none;stroke:midnightblue;" d="M936,-589C830,-584 582,-571 364,-544"/>
<polygon style="fill:midnightblue;stroke:midnightblue;" points="364.299,-540.512 354,-543 363.602,-547.478 364.299,-540.512"/>
</g>
<!-- Node14 -->
<g id="node36" class="node"><title>Node14</title>
<a xlink:href="_client_data_8h.html" target="_top" xlink:title="ClientData.h">
<polygon style="fill:white;stroke:black;" points="0,-522 0,-543 84,-543 84,-522 0,-522"/>
<text text-anchor="middle" x="42" y="-529" style="font-family:Arial;font-size:10.00;">ClientData.h</text>
</a>
</g>
<!-- Node2&#45;&gt;Node14 -->
<g id="edge44" class="edge"><title>Node2&#45;&gt;Node14</title>
<path style="fill:none;stroke:midnightblue;" d="M936,-589C772,-584 277,-567 94,-543"/>
<polygon style="fill:midnightblue;stroke:midnightblue;" points="94.2987,-539.512 84,-542 93.6021,-546.478 94.2987,-539.512"/>
</g>
<!-- Node15 -->
<g id="node41" class="node"><title>Node15</title>
<a xlink:href="_get_price_8h.html" target="_top" xlink:title="GetPrice.h">
<polygon style="fill:white;stroke:black;" points="372,-522 372,-543 443,-543 443,-522 372,-522"/>
<text text-anchor="middle" x="407" y="-529" style="font-family:Arial;font-size:10.00;">GetPrice.h</text>
</a>
</g>
<!-- Node2&#45;&gt;Node15 -->
<g id="edge52" class="edge"><title>Node2&#45;&gt;Node15</title>
<path style="fill:none;stroke:midnightblue;" d="M936,-589C841,-585 635,-573 453,-544"/>
<polygon style="fill:midnightblue;stroke:midnightblue;" points="453.492,-540.529 443,-542 452.119,-547.393 453.492,-540.529"/>
</g>
<!-- Node16 -->
<g id="node45" class="node"><title>Node16</title>
<a xlink:href="_demand_negotiation_8h.html" target="_top" xlink:title="DemandNegotiation.h">
<polygon style="fill:white;stroke:black;" points="102,-522 102,-543 239,-543 239,-522 102,-522"/>
<text text-anchor="middle" x="170" y="-529" style="font-family:Arial;font-size:10.00;">DemandNegotiation.h</text>
</a>
</g>
<!-- Node2&#45;&gt;Node16 -->
<g id="edge58" class="edge"><title>Node2&#45;&gt;Node16</title>
<path style="fill:none;stroke:midnightblue;" d="M936,-589C816,-584 512,-570 249,-544"/>
<polygon style="fill:midnightblue;stroke:midnightblue;" points="249.299,-540.512 239,-543 248.602,-547.478 249.299,-540.512"/>
</g>
<!-- Node17 -->
<g id="node50" class="node"><title>Node17</title>
<a xlink:href="_connection_manager_8h.html" target="_top" xlink:title="ConnectionManager.h">
<polygon style="fill:white;stroke:black;" points="986,-348 986,-369 1123,-369 1123,-348 986,-348"/>
<text text-anchor="middle" x="1054" y="-355" style="font-family:Arial;font-size:10.00;">ConnectionManager.h</text>
</a>
</g>
<!-- Node2&#45;&gt;Node17 -->
<g id="edge66" class="edge"><title>Node2&#45;&gt;Node17</title>
<path style="fill:none;stroke:midnightblue;" d="M992,-580C997,-571 1007,-557 1013,-544 1036,-487 1043,-414 1048,-379"/>
<polygon style="fill:midnightblue;stroke:midnightblue;" points="1051.47,-379.492 1050,-369 1044.61,-378.119 1051.47,-379.492"/>
</g>
<!-- Node24 -->
<g id="node66" class="node"><title>Node24</title>
<a xlink:href="_threaded_t_c_p_connected_client_8h.html" target="_top" xlink:title="ThreadedTCPConnectedClient.h">
<polygon style="fill:white;stroke:black;" points="1139,-174 1139,-195 1331,-195 1331,-174 1139,-174"/>
<text text-anchor="middle" x="1235" y="-181" style="font-family:Arial;font-size:10.00;">ThreadedTCPConnectedClient.h</text>
</a>
</g>
<!-- Node2&#45;&gt;Node24 -->
<g id="edge150" class="edge"><title>Node2&#45;&gt;Node24</title>
<path style="fill:none;stroke:midnightblue;" d="M1042,-589C1168,-584 1473,-562 1473,-475 1473,-475 1473,-475 1473,-359 1473,-266 1357,-218 1287,-198"/>
<polygon style="fill:midnightblue;stroke:midnightblue;" points="1287.58,-194.521 1277,-195 1285.57,-201.226 1287.58,-194.521"/>
</g>
<!-- Node27 -->
<g id="node78" class="node"><title>Node27</title>
<a xlink:href="_log_print_8h.html" target="_top" xlink:title="LogPrint.h">
<polygon style="fill:white;stroke:black;" points="1026,-290 1026,-311 1096,-311 1096,-290 1026,-290"/>
<text text-anchor="middle" x="1061" y="-297" style="font-family:Arial;font-size:10.00;">LogPrint.h</text>
</a>
</g>
<!-- Node2&#45;&gt;Node27 -->
<g id="edge152" class="edge"><title>Node2&#45;&gt;Node27</title>
<path style="fill:none;stroke:midnightblue;" d="M987,-580C979,-538 953,-387 977,-348 985,-333 1001,-322 1017,-315"/>
<polygon style="fill:midnightblue;stroke:midnightblue;" points="1018.28,-318.26 1026,-311 1015.44,-311.863 1018.28,-318.26"/>
</g>
<!-- Node29 -->
<g id="node85" class="node"><title>Node29</title>
<a xlink:href="_matlab_manager_8h.html" target="_top" xlink:title="MatlabManager.h">
<polygon style="fill:white;stroke:black;" points="1263,-522 1263,-543 1374,-543 1374,-522 1263,-522"/>
<text text-anchor="middle" x="1318" y="-529" style="font-family:Arial;font-size:10.00;">MatlabManager.h</text>
</a>
</g>
<!-- Node2&#45;&gt;Node29 -->
<g id="edge112" class="edge"><title>Node2&#45;&gt;Node29</title>
<path style="fill:none;stroke:midnightblue;" d="M1042,-582C1100,-572 1191,-555 1253,-545"/>
<polygon style="fill:midnightblue;stroke:midnightblue;" points="1253.88,-548.393 1263,-543 1252.51,-541.529 1253.88,-548.393"/>
</g>
<!-- Node30 -->
<g id="node91" class="node"><title>Node30</title>
<a xlink:href="_system_manager_8h.html" target="_top" xlink:title="SystemManager.h">
<polygon style="fill:white;stroke:black;" points="1092,-464 1092,-485 1206,-485 1206,-464 1092,-464"/>
<text text-anchor="middle" x="1149" y="-471" style="font-family:Arial;font-size:10.00;">SystemManager.h</text>
</a>
</g>
<!-- Node2&#45;&gt;Node30 -->
<g id="edge148" class="edge"><title>Node2&#45;&gt;Node30</title>
<path style="fill:none;stroke:midnightblue;" d="M1007,-580C1023,-571 1048,-558 1069,-544 1089,-529 1111,-507 1126,-492"/>
<polygon style="fill:midnightblue;stroke:midnightblue;" points="1128.78,-494.219 1134,-485 1124.17,-488.951 1128.78,-494.219"/>
</g>
<!-- Node4 -->
<g id="node7" class="node"><title>Node4</title>
<a xlink:href="_network_byte_accessor_8h.html" target="_top" xlink:title="NetworkByteAccessor.h">
<polygon style="fill:white;stroke:black;" points="336,-348 336,-369 477,-369 477,-348 336,-348"/>
<text text-anchor="middle" x="406" y="-355" style="font-family:Arial;font-size:10.00;">NetworkByteAccessor.h</text>
</a>
</g>
<!-- Node3&#45;&gt;Node4 -->
<g id="edge6" class="edge"><title>Node3&#45;&gt;Node4</title>
<path style="fill:none;stroke:midnightblue;" d="M474,-406C461,-397 443,-384 428,-375"/>
<polygon style="fill:midnightblue;stroke:midnightblue;" points="430.1,-372.2 420,-369 425.9,-377.8 430.1,-372.2"/>
</g>
<!-- Node7 -->
<g id="node13" class="node"><title>Node7</title>
<polygon style="fill:white;stroke:#bfbfbf;" points="882,-290 882,-311 923,-311 923,-290 882,-290"/>
<text text-anchor="middle" x="902" y="-297" style="font-family:Arial;font-size:10.00;">map</text>
</g>
<!-- Node3&#45;&gt;Node7 -->
<g id="edge12" class="edge"><title>Node3&#45;&gt;Node7</title>
<path style="fill:none;stroke:midnightblue;" d="M529,-406C611,-383 798,-330 872,-310"/>
<polygon style="fill:midnightblue;stroke:midnightblue;" points="873.427,-313.226 882,-307 871.416,-306.521 873.427,-313.226"/>
</g>
<!-- Node5 -->
<g id="node9" class="node"><title>Node5</title>
<polygon style="fill:white;stroke:#bfbfbf;" points="228,-0 228,-21 284,-21 284,-0 228,-0"/>
<text text-anchor="middle" x="256" y="-7" style="font-family:Arial;font-size:10.00;">string.h</text>
</g>
<!-- Node4&#45;&gt;Node5 -->
<g id="edge8" class="edge"><title>Node4&#45;&gt;Node5</title>
<path style="fill:none;stroke:midnightblue;" d="M367,-348C347,-341 323,-329 307,-312 285,-287 278,-276 278,-243 278,-243 278,-243 278,-127 278,-93 268,-54 262,-31"/>
<polygon style="fill:midnightblue;stroke:midnightblue;" points="265.226,-29.5725 259,-21 258.521,-31.584 265.226,-29.5725"/>
</g>
<!-- Node6 -->
<g id="node11" class="node"><title>Node6</title>
<a xlink:href="_compile_time_checker_library_8h.html" target="_top" xlink:title="CompileTimeCheckerLibrary.h">
<polygon style="fill:white;stroke:black;" points="316,-290 316,-311 497,-311 497,-290 316,-290"/>
<text text-anchor="middle" x="406" y="-297" style="font-family:Arial;font-size:10.00;">CompileTimeCheckerLibrary.h</text>
</a>
</g>
<!-- Node4&#45;&gt;Node6 -->
<g id="edge10" class="edge"><title>Node4&#45;&gt;Node6</title>
<path style="fill:none;stroke:midnightblue;" d="M406,-348C406,-340 406,-330 406,-321"/>
<polygon style="fill:midnightblue;stroke:midnightblue;" points="409.5,-321 406,-311 402.5,-321 409.5,-321"/>
</g>
<!-- Node8&#45;&gt;Node3 -->
<g id="edge16" class="edge"><title>Node8&#45;&gt;Node3</title>
<path style="fill:none;stroke:midnightblue;" d="M709,-522C665,-501 569,-455 520,-431"/>
<polygon style="fill:midnightblue;stroke:midnightblue;" points="521.56,-427.863 511,-427 518.717,-434.26 521.56,-427.863"/>
</g>
<!-- Node9 -->
<g id="node18" class="node"><title>Node9</title>
<a xlink:href="_message_ender_8h.html" target="_top" xlink:title="MessageEnder.h">
<polygon style="fill:white;stroke:black;" points="355,-464 355,-485 459,-485 459,-464 355,-464"/>
<text text-anchor="middle" x="407" y="-471" style="font-family:Arial;font-size:10.00;">MessageEnder.h</text>
</a>
</g>
<!-- Node8&#45;&gt;Node9 -->
<g id="edge18" class="edge"><title>Node8&#45;&gt;Node9</title>
<path style="fill:none;stroke:midnightblue;" d="M670,-522C612,-512 527,-496 469,-486"/>
<polygon style="fill:midnightblue;stroke:midnightblue;" points="469.492,-482.529 459,-484 468.119,-489.393 469.492,-482.529"/>
</g>
<!-- Node10 -->
<g id="node22" class="node"><title>Node10</title>
<polygon style="fill:white;stroke:#bfbfbf;" points="709,-464 709,-485 755,-485 755,-464 709,-464"/>
<text text-anchor="middle" x="732" y="-471" style="font-family:Arial;font-size:10.00;">string</text>
</g>
<!-- Node8&#45;&gt;Node10 -->
<g id="edge24" class="edge"><title>Node8&#45;&gt;Node10</title>
<path style="fill:none;stroke:midnightblue;" d="M732,-522C732,-514 732,-504 732,-495"/>
<polygon style="fill:midnightblue;stroke:midnightblue;" points="735.5,-495 732,-485 728.5,-495 735.5,-495"/>
</g>
<!-- Node9&#45;&gt;Node3 -->
<g id="edge20" class="edge"><title>Node9&#45;&gt;Node3</title>
<path style="fill:none;stroke:midnightblue;" d="M423,-464C435,-455 453,-442 468,-433"/>
<polygon style="fill:midnightblue;stroke:midnightblue;" points="470.1,-435.8 476,-427 465.9,-430.2 470.1,-435.8"/>
</g>
<!-- Node9&#45;&gt;Node4 -->
<g id="edge22" class="edge"><title>Node9&#45;&gt;Node4</title>
<path style="fill:none;stroke:midnightblue;" d="M407,-464C407,-445 406,-404 406,-379"/>
<polygon style="fill:midnightblue;stroke:midnightblue;" points="409.5,-379 406,-369 402.5,-379 409.5,-379"/>
</g>
<!-- Node11&#45;&gt;Node3 -->
<g id="edge28" class="edge"><title>Node11&#45;&gt;Node3</title>
<path style="fill:none;stroke:midnightblue;" d="M541,-522C531,-503 512,-461 500,-436"/>
<polygon style="fill:midnightblue;stroke:midnightblue;" points="502.916,-434.042 495,-427 496.797,-437.441 502.916,-434.042"/>
</g>
<!-- Node11&#45;&gt;Node9 -->
<g id="edge30" class="edge"><title>Node11&#45;&gt;Node9</title>
<path style="fill:none;stroke:midnightblue;" d="M520,-522C497,-512 465,-499 440,-489"/>
<polygon style="fill:midnightblue;stroke:midnightblue;" points="441.56,-485.863 431,-485 438.717,-492.26 441.56,-485.863"/>
</g>
<!-- Node12&#45;&gt;Node3 -->
<g id="edge34" class="edge"><title>Node12&#45;&gt;Node3</title>
<path style="fill:none;stroke:midnightblue;" d="M872,-522C849,-506 805,-478 764,-464 695,-439 614,-427 557,-422"/>
<polygon style="fill:midnightblue;stroke:midnightblue;" points="557.299,-418.512 547,-421 556.602,-425.478 557.299,-418.512"/>
</g>
<!-- Node12&#45;&gt;Node9 -->
<g id="edge36" class="edge"><title>Node12&#45;&gt;Node9</title>
<path style="fill:none;stroke:midnightblue;" d="M832,-523C829,-523 826,-522 823,-522 697,-504 551,-488 469,-481"/>
<polygon style="fill:midnightblue;stroke:midnightblue;" points="469.299,-477.512 459,-480 468.602,-484.478 469.299,-477.512"/>
</g>
<!-- Node13&#45;&gt;Node3 -->
<g id="edge40" class="edge"><title>Node13&#45;&gt;Node3</title>
<path style="fill:none;stroke:midnightblue;" d="M309,-522C315,-507 327,-479 346,-464 368,-446 397,-435 424,-428"/>
<polygon style="fill:midnightblue;stroke:midnightblue;" points="425.427,-431.226 434,-425 423.416,-424.521 425.427,-431.226"/>
</g>
<!-- Node13&#45;&gt;Node9 -->
<g id="edge42" class="edge"><title>Node13&#45;&gt;Node9</title>
<path style="fill:none;stroke:midnightblue;" d="M325,-522C340,-513 362,-500 380,-490"/>
<polygon style="fill:midnightblue;stroke:midnightblue;" points="381.958,-492.916 389,-485 378.559,-486.797 381.958,-492.916"/>
</g>
<!-- Node14&#45;&gt;Node3 -->
<g id="edge46" class="edge"><title>Node14&#45;&gt;Node3</title>
<path style="fill:none;stroke:midnightblue;" d="M75,-522C118,-507 198,-482 266,-464 319,-450 380,-438 425,-429"/>
<polygon style="fill:midnightblue;stroke:midnightblue;" points="425.881,-432.393 435,-427 424.508,-425.529 425.881,-432.393"/>
</g>
<!-- Node14&#45;&gt;Node5 -->
<g id="edge50" class="edge"><title>Node14&#45;&gt;Node5</title>
<path style="fill:none;stroke:midnightblue;" d="M45,-522C50,-501 60,-456 60,-417 60,-417 60,-417 60,-127 60,-54 161,-26 218,-16"/>
<polygon style="fill:midnightblue;stroke:midnightblue;" points="218.881,-19.3933 228,-14 217.508,-12.5292 218.881,-19.3933"/>
</g>
<!-- Node14&#45;&gt;Node9 -->
<g id="edge48" class="edge"><title>Node14&#45;&gt;Node9</title>
<path style="fill:none;stroke:midnightblue;" d="M84,-524C87,-523 90,-523 93,-522 180,-506 282,-492 345,-483"/>
<polygon style="fill:midnightblue;stroke:midnightblue;" points="345.398,-486.478 355,-482 344.701,-479.512 345.398,-486.478"/>
</g>
<!-- Node15&#45;&gt;Node3 -->
<g id="edge54" class="edge"><title>Node15&#45;&gt;Node3</title>
<path style="fill:none;stroke:midnightblue;" d="M427,-522C441,-514 458,-501 468,-486 478,-471 484,-451 487,-437"/>
<polygon style="fill:midnightblue;stroke:midnightblue;" points="490.471,-437.492 489,-427 483.607,-436.119 490.471,-437.492"/>
</g>
<!-- Node15&#45;&gt;Node9 -->
<g id="edge56" class="edge"><title>Node15&#45;&gt;Node9</title>
<path style="fill:none;stroke:midnightblue;" d="M407,-522C407,-514 407,-504 407,-495"/>
<polygon style="fill:midnightblue;stroke:midnightblue;" points="410.5,-495 407,-485 403.5,-495 410.5,-495"/>
</g>
<!-- Node16&#45;&gt;Node3 -->
<g id="edge60" class="edge"><title>Node16&#45;&gt;Node3</title>
<path style="fill:none;stroke:midnightblue;" d="M192,-522C221,-507 276,-481 324,-464 362,-450 405,-438 437,-430"/>
<polygon style="fill:midnightblue;stroke:midnightblue;" points="438.427,-433.226 447,-427 436.416,-426.521 438.427,-433.226"/>
</g>
<!-- Node16&#45;&gt;Node5 -->
<g id="edge64" class="edge"><title>Node16&#45;&gt;Node5</title>
<path style="fill:none;stroke:midnightblue;" d="M181,-522C200,-503 235,-460 235,-417 235,-417 235,-417 235,-127 235,-93 244,-54 250,-31"/>
<polygon style="fill:midnightblue;stroke:midnightblue;" points="253.479,-31.584 253,-21 246.774,-29.5725 253.479,-31.584"/>
</g>
<!-- Node16&#45;&gt;Node9 -->
<g id="edge62" class="edge"><title>Node16&#45;&gt;Node9</title>
<path style="fill:none;stroke:midnightblue;" d="M215,-522C256,-512 314,-497 356,-487"/>
<polygon style="fill:midnightblue;stroke:midnightblue;" points="356.881,-490.393 366,-485 355.508,-483.529 356.881,-490.393"/>
</g>
<!-- Node17&#45;&gt;Node2 -->
<g id="edge68" class="edge"><title>Node17&#45;&gt;Node2</title>
<path style="fill:none;stroke:midnightblue;" d="M1058,-369C1062,-398 1056,-481 1031,-544 1027,-554 1020,-564 1013,-572"/>
<polygon style="fill:midnightblue;stroke:midnightblue;" points="1009.95,-570.169 1006,-580 1015.22,-574.779 1009.95,-570.169"/>
</g>
<!-- Node17&#45;&gt;Node7 -->
<g id="edge108" class="edge"><title>Node17&#45;&gt;Node7</title>
<path style="fill:none;stroke:midnightblue;" d="M1025,-348C998,-338 960,-323 932,-313"/>
<polygon style="fill:midnightblue;stroke:midnightblue;" points="933.56,-309.863 923,-309 930.717,-316.26 933.56,-309.863"/>
</g>
<!-- Node18 -->
<g id="node53" class="node"><title>Node18</title>
<a xlink:href="_threaded_t_c_p_server_8h.html" target="_top" xlink:title="ThreadedTCPServer.h">
<polygon style="fill:white;stroke:black;" points="1197,-290 1197,-311 1332,-311 1332,-290 1197,-290"/>
<text text-anchor="middle" x="1264" y="-297" style="font-family:Arial;font-size:10.00;">ThreadedTCPServer.h</text>
</a>
</g>
<!-- Node17&#45;&gt;Node18 -->
<g id="edge70" class="edge"><title>Node17&#45;&gt;Node18</title>
<path style="fill:none;stroke:midnightblue;" d="M1094,-348C1130,-338 1181,-324 1218,-314"/>
<polygon style="fill:midnightblue;stroke:midnightblue;" points="1219.43,-317.226 1228,-311 1217.42,-310.521 1219.43,-317.226"/>
</g>
<!-- Node17&#45;&gt;Node24 -->
<g id="edge100" class="edge"><title>Node17&#45;&gt;Node24</title>
<path style="fill:none;stroke:midnightblue;" d="M1068,-348C1079,-339 1094,-325 1105,-312 1131,-279 1124,-261 1155,-232 1168,-219 1186,-208 1202,-200"/>
<polygon style="fill:midnightblue;stroke:midnightblue;" points="1203.96,-202.916 1211,-195 1200.56,-196.797 1203.96,-202.916"/>
</g>
<!-- Node17&#45;&gt;Node27 -->
<g id="edge102" class="edge"><title>Node17&#45;&gt;Node27</title>
<path style="fill:none;stroke:midnightblue;" d="M1055,-348C1056,-340 1057,-330 1058,-321"/>
<polygon style="fill:midnightblue;stroke:midnightblue;" points="1061.47,-321.492 1060,-311 1054.61,-320.119 1061.47,-321.492"/>
</g>
<!-- Node28 -->
<g id="node83" class="node"><title>Node28</title>
<polygon style="fill:white;stroke:#bfbfbf;" points="940,-290 940,-311 1009,-311 1009,-290 940,-290"/>
<text text-anchor="middle" x="974" y="-297" style="font-family:Arial;font-size:10.00;">algorithm</text>
</g>
<!-- Node17&#45;&gt;Node28 -->
<g id="edge110" class="edge"><title>Node17&#45;&gt;Node28</title>
<path style="fill:none;stroke:midnightblue;" d="M1039,-348C1027,-339 1010,-327 996,-317"/>
<polygon style="fill:midnightblue;stroke:midnightblue;" points="998.1,-314.2 988,-311 993.9,-319.8 998.1,-314.2"/>
</g>
<!-- Node19 -->
<g id="node55" class="node"><title>Node19</title>
<a xlink:href="_thread_base_8h.html" target="_top" xlink:title="ThreadBase.h">
<polygon style="fill:white;stroke:black;" points="1306,-116 1306,-137 1397,-137 1397,-116 1306,-116"/>
<text text-anchor="middle" x="1351" y="-123" style="font-family:Arial;font-size:10.00;">ThreadBase.h</text>
</a>
</g>
<!-- Node18&#45;&gt;Node19 -->
<g id="edge72" class="edge"><title>Node18&#45;&gt;Node19</title>
<path style="fill:none;stroke:midnightblue;" d="M1275,-290C1291,-272 1323,-234 1340,-196 1346,-180 1349,-161 1350,-147"/>
<polygon style="fill:midnightblue;stroke:midnightblue;" points="1353.49,-147.299 1351,-137 1346.52,-146.602 1353.49,-147.299"/>
</g>
<!-- Node20 -->
<g id="node57" class="node"><title>Node20</title>
<a xlink:href="_t_c_p_server_8h.html" target="_top" xlink:title="TCPServer.h">
<polygon style="fill:white;stroke:black;" points="1021,-232 1021,-253 1103,-253 1103,-232 1021,-232"/>
<text text-anchor="middle" x="1062" y="-239" style="font-family:Arial;font-size:10.00;">TCPServer.h</text>
</a>
</g>
<!-- Node18&#45;&gt;Node20 -->
<g id="edge74" class="edge"><title>Node18&#45;&gt;Node20</title>
<path style="fill:none;stroke:midnightblue;" d="M1226,-290C1192,-280 1142,-266 1107,-256"/>
<polygon style="fill:midnightblue;stroke:midnightblue;" points="1107.58,-252.521 1097,-253 1105.57,-259.226 1107.58,-252.521"/>
</g>
<!-- Node18&#45;&gt;Node24 -->
<g id="edge98" class="edge"><title>Node18&#45;&gt;Node24</title>
<path style="fill:none;stroke:midnightblue;" d="M1261,-290C1257,-271 1246,-230 1240,-205"/>
<polygon style="fill:midnightblue;stroke:midnightblue;" points="1243.39,-204.119 1238,-195 1236.53,-205.492 1243.39,-204.119"/>
</g>
<!-- Node21 -->
<g id="node59" class="node"><title>Node21</title>
<a xlink:href="_socket_base_8h.html" target="_top" xlink:title="SocketBase.h">
<polygon style="fill:white;stroke:black;" points="1122,-58 1122,-79 1211,-79 1211,-58 1122,-58"/>
<text text-anchor="middle" x="1166" y="-65" style="font-family:Arial;font-size:10.00;">SocketBase.h</text>
</a>
</g>
<!-- Node20&#45;&gt;Node21 -->
<g id="edge76" class="edge"><title>Node20&#45;&gt;Node21</title>
<path style="fill:none;stroke:midnightblue;" d="M1074,-232C1092,-214 1127,-176 1147,-138 1155,-122 1160,-103 1162,-89"/>
<polygon style="fill:midnightblue;stroke:midnightblue;" points="1165.47,-89.4922 1164,-79 1158.61,-88.1194 1165.47,-89.4922"/>
</g>
<!-- Node23 -->
<g id="node63" class="node"><title>Node23</title>
<a xlink:href="_i_p_address_8h.html" target="_top" xlink:title="IPAddress.h">
<polygon style="fill:white;stroke:black;" points="948,-58 948,-79 1025,-79 1025,-58 948,-58"/>
<text text-anchor="middle" x="986" y="-65" style="font-family:Arial;font-size:10.00;">IPAddress.h</text>
</a>
</g>
<!-- Node20&#45;&gt;Node23 -->
<g id="edge80" class="edge"><title>Node20&#45;&gt;Node23</title>
<path style="fill:none;stroke:midnightblue;" d="M1051,-232C1035,-214 1004,-176 991,-138 985,-122 984,-103 985,-89"/>
<polygon style="fill:midnightblue;stroke:midnightblue;" points="988.5,-89 985,-79 981.5,-89 988.5,-89"/>
</g>
<!-- Node20&#45;&gt;Node24 -->
<g id="edge84" class="edge"><title>Node20&#45;&gt;Node24</title>
<path style="fill:none;stroke:midnightblue;" d="M1095,-232C1124,-222 1165,-208 1195,-198"/>
<polygon style="fill:midnightblue;stroke:midnightblue;" points="1196.43,-201.226 1205,-195 1194.42,-194.521 1196.43,-201.226"/>
</g>
<!-- Node22 -->
<g id="node61" class="node"><title>Node22</title>
<polygon style="fill:white;stroke:#bfbfbf;" points="1170,-0 1170,-21 1234,-21 1234,-0 1170,-0"/>
<text text-anchor="middle" x="1202" y="-7" style="font-family:Arial;font-size:10.00;">iostream</text>
</g>
<!-- Node21&#45;&gt;Node22 -->
<g id="edge78" class="edge"><title>Node21&#45;&gt;Node22</title>
<path style="fill:none;stroke:midnightblue;" d="M1173,-58C1178,-50 1184,-39 1190,-29"/>
<polygon style="fill:midnightblue;stroke:midnightblue;" points="1192.8,-31.1 1196,-21 1187.2,-26.9 1192.8,-31.1"/>
</g>
<!-- Node23&#45;&gt;Node5 -->
<g id="edge82" class="edge"><title>Node23&#45;&gt;Node5</title>
<path style="fill:none;stroke:midnightblue;" d="M948,-66C823,-56 421,-24 294,-14"/>
<polygon style="fill:midnightblue;stroke:midnightblue;" points="294.299,-10.5125 284,-13 293.602,-17.4778 294.299,-10.5125"/>
</g>
<!-- Node24&#45;&gt;Node19 -->
<g id="edge92" class="edge"><title>Node24&#45;&gt;Node19</title>
<path style="fill:none;stroke:midnightblue;" d="M1257,-174C1276,-165 1302,-151 1322,-141"/>
<polygon style="fill:midnightblue;stroke:midnightblue;" points="1323.28,-144.26 1331,-137 1320.44,-137.863 1323.28,-144.26"/>
</g>
<!-- Node25 -->
<g id="node68" class="node"><title>Node25</title>
<a xlink:href="_t_c_p_connected_client_8h.html" target="_top" xlink:title="TCPConnectedClient.h">
<polygon style="fill:white;stroke:black;" points="1000,-116 1000,-137 1139,-137 1139,-116 1000,-116"/>
<text text-anchor="middle" x="1069" y="-123" style="font-family:Arial;font-size:10.00;">TCPConnectedClient.h</text>
</a>
</g>
<!-- Node24&#45;&gt;Node25 -->
<g id="edge86" class="edge"><title>Node24&#45;&gt;Node25</title>
<path style="fill:none;stroke:midnightblue;" d="M1203,-174C1176,-164 1137,-150 1108,-140"/>
<polygon style="fill:midnightblue;stroke:midnightblue;" points="1108.58,-136.521 1098,-137 1106.57,-143.226 1108.58,-136.521"/>
</g>
<!-- Node26 -->
<g id="node73" class="node"><title>Node26</title>
<a xlink:href="_semaphore_8h.html" target="_top" xlink:title="Semaphore.h">
<polygon style="fill:white;stroke:black;" points="1194,-116 1194,-137 1284,-137 1284,-116 1194,-116"/>
<text text-anchor="middle" x="1239" y="-123" style="font-family:Arial;font-size:10.00;">Semaphore.h</text>
</a>
</g>
<!-- Node24&#45;&gt;Node26 -->
<g id="edge94" class="edge"><title>Node24&#45;&gt;Node26</title>
<path style="fill:none;stroke:midnightblue;" d="M1236,-174C1237,-166 1237,-156 1238,-147"/>
<polygon style="fill:midnightblue;stroke:midnightblue;" points="1241.5,-147 1238,-137 1234.5,-147 1241.5,-147"/>
</g>
<!-- Node25&#45;&gt;Node21 -->
<g id="edge88" class="edge"><title>Node25&#45;&gt;Node21</title>
<path style="fill:none;stroke:midnightblue;" d="M1088,-116C1103,-107 1124,-94 1140,-84"/>
<polygon style="fill:midnightblue;stroke:midnightblue;" points="1141.96,-86.916 1149,-79 1138.56,-80.7969 1141.96,-86.916"/>
</g>
<!-- Node25&#45;&gt;Node23 -->
<g id="edge90" class="edge"><title>Node25&#45;&gt;Node23</title>
<path style="fill:none;stroke:midnightblue;" d="M1053,-116C1041,-107 1023,-94 1008,-85"/>
<polygon style="fill:midnightblue;stroke:midnightblue;" points="1010.1,-82.2 1000,-79 1005.9,-87.8 1010.1,-82.2"/>
</g>
<!-- Node26&#45;&gt;Node22 -->
<g id="edge96" class="edge"><title>Node26&#45;&gt;Node22</title>
<path style="fill:none;stroke:midnightblue;" d="M1236,-116C1232,-102 1225,-78 1219,-58 1216,-49 1212,-39 1209,-31"/>
<polygon style="fill:midnightblue;stroke:midnightblue;" points="1212.23,-29.5725 1206,-21 1205.52,-31.584 1212.23,-29.5725"/>
</g>
<!-- Node27&#45;&gt;Node22 -->
<g id="edge104" class="edge"><title>Node27&#45;&gt;Node22</title>
<path style="fill:none;stroke:midnightblue;" d="M1027,-290C985,-274 920,-240 920,-185 920,-185 920,-185 920,-127 920,-95 915,-79 939,-58 970,-29 1094,-17 1160,-13"/>
<polygon style="fill:midnightblue;stroke:midnightblue;" points="1160.4,-16.4778 1170,-12 1159.7,-9.5125 1160.4,-16.4778"/>
</g>
<!-- Node27&#45;&gt;Node26 -->
<g id="edge106" class="edge"><title>Node27&#45;&gt;Node26</title>
<path style="fill:none;stroke:midnightblue;" d="M1044,-290C1025,-276 999,-253 1012,-232 1049,-172 1130,-146 1184,-135"/>
<polygon style="fill:midnightblue;stroke:midnightblue;" points="1184.88,-138.393 1194,-133 1183.51,-131.529 1184.88,-138.393"/>
</g>
<!-- Node29&#45;&gt;Node18 -->
<g id="edge118" class="edge"><title>Node29&#45;&gt;Node18</title>
<path style="fill:none;stroke:midnightblue;" d="M1317,-522C1315,-500 1310,-448 1300,-406 1292,-375 1280,-341 1272,-320"/>
<polygon style="fill:midnightblue;stroke:midnightblue;" points="1275.26,-318.717 1268,-311 1268.86,-321.56 1275.26,-318.717"/>
</g>
<!-- Node29&#45;&gt;Node22 -->
<g id="edge114" class="edge"><title>Node29&#45;&gt;Node22</title>
<path style="fill:none;stroke:midnightblue;" d="M1343,-522C1377,-505 1435,-468 1435,-417 1435,-417 1435,-417 1435,-359 1435,-279 1473,-264 1473,-185 1473,-185 1473,-185 1473,-127 1473,-77 1320,-37 1244,-20"/>
<polygon style="fill:midnightblue;stroke:midnightblue;" points="1244.49,-16.5292 1234,-18 1243.12,-23.3933 1244.49,-16.5292"/>
</g>
<!-- Node29&#45;&gt;Node24 -->
<g id="edge120" class="edge"><title>Node29&#45;&gt;Node24</title>
<path style="fill:none;stroke:midnightblue;" d="M1325,-522C1336,-502 1359,-457 1359,-417 1359,-417 1359,-417 1359,-359 1359,-327 1355,-317 1340,-290 1318,-253 1281,-220 1257,-201"/>
<polygon style="fill:midnightblue;stroke:midnightblue;" points="1259.1,-198.2 1249,-195 1254.9,-203.8 1259.1,-198.2"/>
</g>
<!-- Node29&#45;&gt;Node26 -->
<g id="edge116" class="edge"><title>Node29&#45;&gt;Node26</title>
<path style="fill:none;stroke:midnightblue;" d="M1332,-522C1355,-503 1397,-462 1397,-417 1397,-417 1397,-417 1397,-243 1397,-188 1334,-156 1288,-140"/>
<polygon style="fill:midnightblue;stroke:midnightblue;" points="1288.58,-136.521 1278,-137 1286.57,-143.226 1288.58,-136.521"/>
</g>
<!-- Node29&#45;&gt;Node30 -->
<g id="edge122" class="edge"><title>Node29&#45;&gt;Node30</title>
<path style="fill:none;stroke:midnightblue;" d="M1280,-522C1250,-512 1211,-498 1182,-488"/>
<polygon style="fill:midnightblue;stroke:midnightblue;" points="1183.59,-484.842 1173,-485 1181.38,-491.483 1183.59,-484.842"/>
</g>
<!-- Node30&#45;&gt;Node2 -->
<g id="edge126" class="edge"><title>Node30&#45;&gt;Node2</title>
<path style="fill:none;stroke:midnightblue;" d="M1146,-485C1136,-500 1111,-526 1087,-544 1069,-556 1048,-567 1030,-576"/>
<polygon style="fill:midnightblue;stroke:midnightblue;" points="1028.72,-572.74 1021,-580 1031.56,-579.137 1028.72,-572.74"/>
</g>
<!-- Node30&#45;&gt;Node7 -->
<g id="edge124" class="edge"><title>Node30&#45;&gt;Node7</title>
<path style="fill:none;stroke:midnightblue;" d="M1128,-464C1095,-446 1028,-408 977,-370 956,-354 934,-333 919,-318"/>
<polygon style="fill:midnightblue;stroke:midnightblue;" points="921.546,-315.596 912,-311 916.596,-320.546 921.546,-315.596"/>
</g>
<!-- Node30&#45;&gt;Node27 -->
<g id="edge146" class="edge"><title>Node30&#45;&gt;Node27</title>
<path style="fill:none;stroke:midnightblue;" d="M1150,-464C1152,-440 1154,-385 1131,-348 1122,-334 1108,-324 1095,-316"/>
<polygon style="fill:midnightblue;stroke:midnightblue;" points="1096.44,-312.797 1086,-311 1093.04,-318.916 1096.44,-312.797"/>
</g>
<!-- Node30&#45;&gt;Node29 -->
<g id="edge128" class="edge"><title>Node30&#45;&gt;Node29</title>
<path style="fill:none;stroke:midnightblue;" d="M1183,-485C1212,-494 1252,-508 1281,-518"/>
<polygon style="fill:midnightblue;stroke:midnightblue;" points="1280.42,-521.536 1291,-522 1283.02,-515.036 1280.42,-521.536"/>
</g>
<!-- Node31 -->
<g id="node96" class="node"><title>Node31</title>
<a xlink:href="_control_manager_8h.html" target="_top" xlink:title="ControlManager.h">
<polygon style="fill:white;stroke:black;" points="1177,-406 1177,-427 1291,-427 1291,-406 1177,-406"/>
<text text-anchor="middle" x="1234" y="-413" style="font-family:Arial;font-size:10.00;">ControlManager.h</text>
</a>
</g>
<!-- Node30&#45;&gt;Node31 -->
<g id="edge130" class="edge"><title>Node30&#45;&gt;Node31</title>
<path style="fill:none;stroke:midnightblue;" d="M1160,-464C1172,-455 1190,-442 1205,-432"/>
<polygon style="fill:midnightblue;stroke:midnightblue;" points="1206.96,-434.916 1214,-427 1203.56,-428.797 1206.96,-434.916"/>
</g>
<!-- Node31&#45;&gt;Node2 -->
<g id="edge142" class="edge"><title>Node31&#45;&gt;Node2</title>
<path style="fill:none;stroke:midnightblue;" d="M1233,-427C1232,-442 1228,-469 1215,-486 1175,-537 1103,-564 1052,-577"/>
<polygon style="fill:midnightblue;stroke:midnightblue;" points="1050.57,-573.774 1042,-580 1052.58,-580.479 1050.57,-573.774"/>
</g>
<!-- Node31&#45;&gt;Node17 -->
<g id="edge140" class="edge"><title>Node31&#45;&gt;Node17</title>
<path style="fill:none;stroke:midnightblue;" d="M1200,-406C1169,-396 1126,-382 1095,-372"/>
<polygon style="fill:midnightblue;stroke:midnightblue;" points="1095.58,-368.521 1085,-369 1093.57,-375.226 1095.58,-368.521"/>
</g>
<!-- Node31&#45;&gt;Node18 -->
<g id="edge134" class="edge"><title>Node31&#45;&gt;Node18</title>
<path style="fill:none;stroke:midnightblue;" d="M1237,-406C1241,-387 1253,-346 1259,-321"/>
<polygon style="fill:midnightblue;stroke:midnightblue;" points="1262.47,-321.492 1261,-311 1255.61,-320.119 1262.47,-321.492"/>
</g>
<!-- Node31&#45;&gt;Node24 -->
<g id="edge138" class="edge"><title>Node31&#45;&gt;Node24</title>
<path style="fill:none;stroke:midnightblue;" d="M1225,-406C1210,-384 1178,-334 1188,-290 1194,-257 1211,-224 1224,-204"/>
<polygon style="fill:midnightblue;stroke:midnightblue;" points="1227.2,-205.441 1229,-195 1221.08,-202.042 1227.2,-205.441"/>
</g>
<!-- Node31&#45;&gt;Node27 -->
<g id="edge144" class="edge"><title>Node31&#45;&gt;Node27</title>
<path style="fill:none;stroke:midnightblue;" d="M1225,-406C1212,-391 1188,-365 1164,-348 1144,-334 1120,-323 1099,-315"/>
<polygon style="fill:midnightblue;stroke:midnightblue;" points="1100.56,-311.863 1090,-311 1097.72,-318.26 1100.56,-311.863"/>
</g>
<!-- Node31&#45;&gt;Node29 -->
<g id="edge136" class="edge"><title>Node31&#45;&gt;Node29</title>
<path style="fill:none;stroke:midnightblue;" d="M1241,-427C1255,-447 1286,-489 1304,-514"/>
<polygon style="fill:midnightblue;stroke:midnightblue;" points="1301.2,-516.1 1310,-522 1306.8,-511.9 1301.2,-516.1"/>
</g>
<!-- Node31&#45;&gt;Node30 -->
<g id="edge132" class="edge"><title>Node31&#45;&gt;Node30</title>
<path style="fill:none;stroke:midnightblue;" d="M1224,-427C1213,-435 1195,-448 1180,-458"/>
<polygon style="fill:midnightblue;stroke:midnightblue;" points="1177.38,-455.541 1171,-464 1181.26,-461.365 1177.38,-455.541"/>
</g>
</g>
</svg>
