<?xml version="1.0" encoding="UTF-8" standalone="no"?>
<!DOCTYPE svg PUBLIC "-//W3C//DTD SVG 1.0//EN"
 "http://www.w3.org/TR/2001/REC-SVG-20010904/DTD/svg10.dtd" [
 <!ATTLIST svg xmlns:xlink CDATA #FIXED "http://www.w3.org/1999/xlink">
]>
<!-- Generated by Graphviz version 2.14.1 (Fri Nov  9 08:19:38 GMT 2007)
     For user: (asakyurek) Alper Sinan Akyurek -->
<!-- Title: S2Sim/ClientManager.h Pages: 1 -->
<svg width="671pt" height="320pt"
 viewBox="0.00 0.00 671.00 320.00" xmlns="http://www.w3.org/2000/svg" xmlns:xlink="http://www.w3.org/1999/xlink">
<g id="graph0" class="graph" transform="scale(1 1) rotate(0) translate(4 316)">
<title>S2Sim/ClientManager.h</title>
<polygon style="fill:white;stroke:white;" points="-4,4 -4,-316 667,-316 667,4 -4,4"/>
<!-- Node1 -->
<g id="node1" class="node"><title>Node1</title>
<polygon style="fill:#bfbfbf;stroke:black;" points="450,-290 450,-311 593,-311 593,-290 450,-290"/>
<text text-anchor="middle" x="521" y="-297" style="font-family:Arial;font-size:10.00;">S2Sim/ClientManager.h</text>
</g>
<!-- Node2 -->
<g id="node3" class="node"><title>Node2</title>
<a xlink:href="_client_manager_8cpp.html" target="_top" xlink:title="S2Sim/ClientManager.cpp">
<polygon style="fill:white;stroke:black;" points="145,-232 145,-253 301,-253 301,-232 145,-232"/>
<text text-anchor="middle" x="223" y="-239" style="font-family:Arial;font-size:10.00;">S2Sim/ClientManager.cpp</text>
</a>
</g>
<!-- Node1&#45;&gt;Node2 -->
<g id="edge2" class="edge"><title>Node1&#45;&gt;Node2</title>
<path style="fill:none;stroke:midnightblue;" d="M454,-288C400,-277 325,-262 275,-253"/>
<polygon style="fill:midnightblue;stroke:midnightblue;" points="453.508,-291.471 464,-290 454.881,-284.607 453.508,-291.471"/>
</g>
<!-- Node3 -->
<g id="node5" class="node"><title>Node3</title>
<a xlink:href="_connection_manager_8h.html" target="_top" xlink:title="S2Sim/ConnectionManager.h">
<polygon style="fill:white;stroke:black;" points="319,-232 319,-253 493,-253 493,-232 319,-232"/>
<text text-anchor="middle" x="406" y="-239" style="font-family:Arial;font-size:10.00;">S2Sim/ConnectionManager.h</text>
</a>
</g>
<!-- Node1&#45;&gt;Node3 -->
<g id="edge4" class="edge"><title>Node1&#45;&gt;Node3</title>
<path style="fill:none;stroke:midnightblue;" d="M485,-286C463,-275 437,-262 421,-253"/>
<polygon style="fill:midnightblue;stroke:midnightblue;" points="483.44,-289.137 494,-290 486.283,-282.74 483.44,-289.137"/>
</g>
<!-- Node4 -->
<g id="node8" class="node"><title>Node4</title>
<a xlink:href="_control_manager_8h.html" target="_top" xlink:title="S2Sim/ControlManager.h">
<polygon style="fill:white;stroke:black;" points="331,-174 331,-195 482,-195 482,-174 331,-174"/>
<text text-anchor="middle" x="406" y="-181" style="font-family:Arial;font-size:10.00;">S2Sim/ControlManager.h</text>
</a>
</g>
<!-- Node1&#45;&gt;Node4 -->
<g id="edge40" class="edge"><title>Node1&#45;&gt;Node4</title>
<path style="fill:none;stroke:midnightblue;" d="M520,-280C518,-265 513,-246 502,-232 487,-214 464,-202 444,-195"/>
<polygon style="fill:midnightblue;stroke:midnightblue;" points="516.522,-280.398 521,-290 523.488,-279.701 516.522,-280.398"/>
</g>
<!-- Node5 -->
<g id="node10" class="node"><title>Node5</title>
<a xlink:href="_system_manager_8h.html" target="_top" xlink:title="S2Sim/SystemManager.h">
<polygon style="fill:white;stroke:black;" points="500,-116 500,-137 651,-137 651,-116 500,-116"/>
<text text-anchor="middle" x="575" y="-123" style="font-family:Arial;font-size:10.00;">S2Sim/SystemManager.h</text>
</a>
</g>
<!-- Node1&#45;&gt;Node5 -->
<g id="edge38" class="edge"><title>Node1&#45;&gt;Node5</title>
<path style="fill:none;stroke:midnightblue;" d="M523,-280C532,-242 555,-165 568,-137"/>
<polygon style="fill:midnightblue;stroke:midnightblue;" points="519.529,-279.508 521,-290 526.393,-280.881 519.529,-279.508"/>
</g>
<!-- Node3&#45;&gt;Node1 -->
<g id="edge6" class="edge"><title>Node3&#45;&gt;Node1</title>
<path style="fill:none;stroke:midnightblue;" d="M440,-257C461,-267 488,-280 504,-290"/>
<polygon style="fill:midnightblue;stroke:midnightblue;" points="441.56,-253.863 431,-253 438.717,-260.26 441.56,-253.863"/>
</g>
<!-- Node3&#45;&gt;Node4 -->
<g id="edge8" class="edge"><title>Node3&#45;&gt;Node4</title>
<path style="fill:none;stroke:midnightblue;" d="M406,-222C406,-212 406,-202 406,-195"/>
<polygon style="fill:midnightblue;stroke:midnightblue;" points="402.5,-222 406,-232 409.5,-222 402.5,-222"/>
</g>
<!-- Node7 -->
<g id="node17" class="node"><title>Node7</title>
<a xlink:href="main_8cpp.html" target="_top" xlink:title="S2Sim/main.cpp">
<polygon style="fill:white;stroke:black;" points="200,-0 200,-21 304,-21 304,-0 200,-0"/>
<text text-anchor="middle" x="252" y="-7" style="font-family:Arial;font-size:10.00;">S2Sim/main.cpp</text>
</a>
</g>
<!-- Node3&#45;&gt;Node7 -->
<g id="edge36" class="edge"><title>Node3&#45;&gt;Node7</title>
<path style="fill:none;stroke:midnightblue;" d="M372,-227C356,-219 337,-209 322,-196 297,-174 292,-166 277,-138 263,-113 260,-107 255,-80 250,-59 251,-35 251,-21"/>
<polygon style="fill:midnightblue;stroke:midnightblue;" points="370.559,-230.203 381,-232 373.958,-224.084 370.559,-230.203"/>
</g>
<!-- Node11 -->
<g id="node28" class="node"><title>Node11</title>
<a xlink:href="_connection_manager_8cpp.html" target="_top" xlink:title="S2Sim/ConnectionManager.cpp">
<polygon style="fill:white;stroke:black;" points="0,-174 0,-195 187,-195 187,-174 0,-174"/>
<text text-anchor="middle" x="93" y="-181" style="font-family:Arial;font-size:10.00;">S2Sim/ConnectionManager.cpp</text>
</a>
</g>
<!-- Node3&#45;&gt;Node11 -->
<g id="edge34" class="edge"><title>Node3&#45;&gt;Node11</title>
<path style="fill:none;stroke:midnightblue;" d="M336,-230C279,-219 200,-204 147,-195"/>
<polygon style="fill:midnightblue;stroke:midnightblue;" points="335.508,-233.471 346,-232 336.881,-226.607 335.508,-233.471"/>
</g>
<!-- Node4&#45;&gt;Node5 -->
<g id="edge10" class="edge"><title>Node4&#45;&gt;Node5</title>
<path style="fill:none;stroke:midnightblue;" d="M443,-170C472,-160 512,-146 541,-137"/>
<polygon style="fill:midnightblue;stroke:midnightblue;" points="440.985,-167.036 433,-174 443.585,-173.536 440.985,-167.036"/>
</g>
<!-- Node4&#45;&gt;Node7 -->
<g id="edge32" class="edge"><title>Node4&#45;&gt;Node7</title>
<path style="fill:none;stroke:midnightblue;" d="M349,-171C331,-163 312,-152 298,-138 265,-103 255,-45 253,-21"/>
<polygon style="fill:midnightblue;stroke:midnightblue;" points="348.416,-174.479 359,-174 350.427,-167.774 348.416,-174.479"/>
</g>
<!-- Node10 -->
<g id="node25" class="node"><title>Node10</title>
<a xlink:href="_control_manager_8cpp.html" target="_top" xlink:title="S2Sim/ControlManager.cpp">
<polygon style="fill:white;stroke:black;" points="318,-116 318,-137 482,-137 482,-116 318,-116"/>
<text text-anchor="middle" x="400" y="-123" style="font-family:Arial;font-size:10.00;">S2Sim/ControlManager.cpp</text>
</a>
</g>
<!-- Node4&#45;&gt;Node10 -->
<g id="edge30" class="edge"><title>Node4&#45;&gt;Node10</title>
<path style="fill:none;stroke:midnightblue;" d="M404,-164C403,-154 402,-144 401,-137"/>
<polygon style="fill:midnightblue;stroke:midnightblue;" points="400.522,-164.398 405,-174 407.488,-163.701 400.522,-164.398"/>
</g>
<!-- Node5&#45;&gt;Node1 -->
<g id="edge26" class="edge"><title>Node5&#45;&gt;Node1</title>
<path style="fill:none;stroke:midnightblue;" d="M573,-147C565,-184 541,-261 528,-290"/>
<polygon style="fill:midnightblue;stroke:midnightblue;" points="576.471,-147.492 575,-137 569.607,-146.119 576.471,-147.492"/>
</g>
<!-- Node5&#45;&gt;Node4 -->
<g id="edge24" class="edge"><title>Node5&#45;&gt;Node4</title>
<path style="fill:none;stroke:midnightblue;" d="M542,-140C513,-150 474,-164 444,-174"/>
<polygon style="fill:midnightblue;stroke:midnightblue;" points="542.62,-143.483 551,-137 540.406,-136.842 542.62,-143.483"/>
</g>
<!-- Node6 -->
<g id="node12" class="node"><title>Node6</title>
<a xlink:href="_matlab_manager_8h.html" target="_top" xlink:title="S2Sim/MatlabManager.h">
<polygon style="fill:white;stroke:black;" points="501,-58 501,-79 649,-79 649,-58 501,-58"/>
<text text-anchor="middle" x="575" y="-65" style="font-family:Arial;font-size:10.00;">S2Sim/MatlabManager.h</text>
</a>
</g>
<!-- Node5&#45;&gt;Node6 -->
<g id="edge12" class="edge"><title>Node5&#45;&gt;Node6</title>
<path style="fill:none;stroke:midnightblue;" d="M569,-106C568,-96 569,-86 570,-79"/>
<polygon style="fill:midnightblue;stroke:midnightblue;" points="565.522,-106.398 570,-116 572.488,-105.701 565.522,-106.398"/>
</g>
<!-- Node9 -->
<g id="node23" class="node"><title>Node9</title>
<a xlink:href="_system_manager_8cpp.html" target="_top" xlink:title="S2Sim/SystemManager.cpp">
<polygon style="fill:white;stroke:black;" points="319,-58 319,-79 483,-79 483,-58 319,-58"/>
<text text-anchor="middle" x="401" y="-65" style="font-family:Arial;font-size:10.00;">S2Sim/SystemManager.cpp</text>
</a>
</g>
<!-- Node5&#45;&gt;Node9 -->
<g id="edge28" class="edge"><title>Node5&#45;&gt;Node9</title>
<path style="fill:none;stroke:midnightblue;" d="M532,-113C501,-102 459,-88 431,-79"/>
<polygon style="fill:midnightblue;stroke:midnightblue;" points="531.416,-116.479 542,-116 533.427,-109.774 531.416,-116.479"/>
</g>
<!-- Node6&#45;&gt;Node1 -->
<g id="edge14" class="edge"><title>Node6&#45;&gt;Node1</title>
<path style="fill:none;stroke:midnightblue;" d="M619,-83C635,-90 650,-101 659,-116 663,-124 662,-128 659,-138 634,-206 566,-266 536,-290"/>
<polygon style="fill:midnightblue;stroke:midnightblue;" points="620.56,-79.8631 610,-79 617.717,-86.2598 620.56,-79.8631"/>
</g>
<!-- Node6&#45;&gt;Node4 -->
<g id="edge18" class="edge"><title>Node6&#45;&gt;Node4</title>
<path style="fill:none;stroke:midnightblue;" d="M495,-80C418,-92 315,-108 309,-116 288,-141 331,-162 367,-174"/>
<polygon style="fill:midnightblue;stroke:midnightblue;" points="495.398,-83.4778 505,-79 494.701,-76.5125 495.398,-83.4778"/>
</g>
<!-- Node6&#45;&gt;Node5 -->
<g id="edge16" class="edge"><title>Node6&#45;&gt;Node5</title>
<path style="fill:none;stroke:midnightblue;" d="M581,-89C582,-98 581,-108 580,-116"/>
<polygon style="fill:midnightblue;stroke:midnightblue;" points="584.478,-88.6021 580,-79 577.512,-89.2987 584.478,-88.6021"/>
</g>
<!-- Node6&#45;&gt;Node7 -->
<g id="edge20" class="edge"><title>Node6&#45;&gt;Node7</title>
<path style="fill:none;stroke:midnightblue;" d="M503,-56C443,-45 358,-30 304,-20"/>
<polygon style="fill:midnightblue;stroke:midnightblue;" points="502.508,-59.4708 513,-58 503.881,-52.6067 502.508,-59.4708"/>
</g>
<!-- Node8 -->
<g id="node19" class="node"><title>Node8</title>
<a xlink:href="_matlab_manager_8cpp.html" target="_top" xlink:title="S2Sim/MatlabManager.cpp">
<polygon style="fill:white;stroke:black;" points="495,-0 495,-21 656,-21 656,-0 495,-0"/>
<text text-anchor="middle" x="575" y="-7" style="font-family:Arial;font-size:10.00;">S2Sim/MatlabManager.cpp</text>
</a>
</g>
<!-- Node6&#45;&gt;Node8 -->
<g id="edge22" class="edge"><title>Node6&#45;&gt;Node8</title>
<path style="fill:none;stroke:midnightblue;" d="M575,-48C575,-38 575,-28 575,-21"/>
<polygon style="fill:midnightblue;stroke:midnightblue;" points="571.5,-48 575,-58 578.5,-48 571.5,-48"/>
</g>
</g>
</svg>
