<?xml version="1.0" encoding="UTF-8" standalone="no"?>
<!DOCTYPE svg PUBLIC "-//W3C//DTD SVG 1.0//EN"
 "http://www.w3.org/TR/2001/REC-SVG-20010904/DTD/svg10.dtd" [
 <!ATTLIST svg xmlns:xlink CDATA #FIXED "http://www.w3.org/1999/xlink">
]>
<!-- Generated by Graphviz version 2.14.1 (Fri Nov  9 08:19:38 GMT 2007)
     For user: (asakyurek) Alper Sinan Akyurek -->
<!-- Title: S2Sim/ClientManager.h Pages: 1 -->
<svg width="787pt" height="320pt"
 viewBox="0.00 0.00 787.00 320.00" xmlns="http://www.w3.org/2000/svg" xmlns:xlink="http://www.w3.org/1999/xlink">
<g id="graph0" class="graph" transform="scale(1 1) rotate(0) translate(4 316)">
<title>S2Sim/ClientManager.h</title>
<polygon style="fill:white;stroke:white;" points="-4,4 -4,-316 783,-316 783,4 -4,4"/>
<!-- Node1 -->
<g id="node1" class="node"><title>Node1</title>
<polygon style="fill:#bfbfbf;stroke:black;" points="457,-290 457,-311 600,-311 600,-290 457,-290"/>
<text text-anchor="middle" x="528" y="-297" style="font-family:Arial;font-size:10.00;">S2Sim/ClientManager.h</text>
</g>
<!-- Node2 -->
<g id="node3" class="node"><title>Node2</title>
<a xlink:href="_client_manager_8cpp.html" target="_top" xlink:title="Source file for the ClientManager class. ">
<polygon style="fill:white;stroke:black;" points="152,-232 152,-253 308,-253 308,-232 152,-232"/>
<text text-anchor="middle" x="230" y="-239" style="font-family:Arial;font-size:10.00;">S2Sim/ClientManager.cpp</text>
</a>
</g>
<!-- Node1&#45;&gt;Node2 -->
<g id="edge2" class="edge"><title>Node1&#45;&gt;Node2</title>
<path style="fill:none;stroke:midnightblue;" d="M461,-288C407,-277 332,-262 282,-253"/>
<polygon style="fill:midnightblue;stroke:midnightblue;" points="460.508,-291.471 471,-290 461.881,-284.607 460.508,-291.471"/>
</g>
<!-- Node3 -->
<g id="node5" class="node"><title>Node3</title>
<a xlink:href="_connection_manager_8h.html" target="_top" xlink:title="This file defines the ConnectionManager class. ">
<polygon style="fill:white;stroke:black;" points="326,-232 326,-253 500,-253 500,-232 326,-232"/>
<text text-anchor="middle" x="413" y="-239" style="font-family:Arial;font-size:10.00;">S2Sim/ConnectionManager.h</text>
</a>
</g>
<!-- Node1&#45;&gt;Node3 -->
<g id="edge4" class="edge"><title>Node1&#45;&gt;Node3</title>
<path style="fill:none;stroke:midnightblue;" d="M492,-286C470,-275 444,-262 428,-253"/>
<polygon style="fill:midnightblue;stroke:midnightblue;" points="490.44,-289.137 501,-290 493.283,-282.74 490.44,-289.137"/>
</g>
<!-- Node4 -->
<g id="node8" class="node"><title>Node4</title>
<a xlink:href="_control_manager_8h.html" target="_top" xlink:title="This file defines the ControlManager class. ">
<polygon style="fill:white;stroke:black;" points="388,-174 388,-195 539,-195 539,-174 388,-174"/>
<text text-anchor="middle" x="463" y="-181" style="font-family:Arial;font-size:10.00;">S2Sim/ControlManager.h</text>
</a>
</g>
<!-- Node1&#45;&gt;Node4 -->
<g id="edge42" class="edge"><title>Node1&#45;&gt;Node4</title>
<path style="fill:none;stroke:midnightblue;" d="M525,-280C522,-266 517,-246 509,-232 500,-217 486,-204 476,-195"/>
<polygon style="fill:midnightblue;stroke:midnightblue;" points="521.607,-280.881 527,-290 528.471,-279.508 521.607,-280.881"/>
</g>
<!-- Node5 -->
<g id="node10" class="node"><title>Node5</title>
<a xlink:href="_system_manager_8h.html" target="_top" xlink:title="Defines the SystemManager class. ">
<polygon style="fill:white;stroke:black;" points="500,-116 500,-137 651,-137 651,-116 500,-116"/>
<text text-anchor="middle" x="575" y="-123" style="font-family:Arial;font-size:10.00;">S2Sim/SystemManager.h</text>
</a>
</g>
<!-- Node1&#45;&gt;Node5 -->
<g id="edge40" class="edge"><title>Node1&#45;&gt;Node5</title>
<path style="fill:none;stroke:midnightblue;" d="M529,-280C536,-242 557,-165 569,-137"/>
<polygon style="fill:midnightblue;stroke:midnightblue;" points="525.529,-279.508 527,-290 532.393,-280.881 525.529,-279.508"/>
</g>
<!-- Node3&#45;&gt;Node1 -->
<g id="edge6" class="edge"><title>Node3&#45;&gt;Node1</title>
<path style="fill:none;stroke:midnightblue;" d="M447,-257C468,-267 495,-280 511,-290"/>
<polygon style="fill:midnightblue;stroke:midnightblue;" points="448.56,-253.863 438,-253 445.717,-260.26 448.56,-253.863"/>
</g>
<!-- Node3&#45;&gt;Node4 -->
<g id="edge8" class="edge"><title>Node3&#45;&gt;Node4</title>
<path style="fill:none;stroke:midnightblue;" d="M430,-224C438,-214 448,-203 454,-195"/>
<polygon style="fill:midnightblue;stroke:midnightblue;" points="426.951,-222.169 423,-232 432.219,-226.779 426.951,-222.169"/>
</g>
<!-- Node7 -->
<g id="node17" class="node"><title>Node7</title>
<a xlink:href="main_8cpp.html" target="_top" xlink:title="Main file that starts an infinite running loop on the SystemManager::AdvanceTimeStep method...">
<polygon style="fill:white;stroke:black;" points="260,-0 260,-21 364,-21 364,-0 260,-0"/>
<text text-anchor="middle" x="312" y="-7" style="font-family:Arial;font-size:10.00;">S2Sim/main.cpp</text>
</a>
</g>
<!-- Node3&#45;&gt;Node7 -->
<g id="edge38" class="edge"><title>Node3&#45;&gt;Node7</title>
<path style="fill:none;stroke:midnightblue;" d="M371,-228C334,-212 281,-183 257,-138 250,-125 249,-82 261,-58 268,-42 284,-29 295,-21"/>
<polygon style="fill:midnightblue;stroke:midnightblue;" points="370.415,-231.536 381,-232 373.015,-225.036 370.415,-231.536"/>
</g>
<!-- Node11 -->
<g id="node29" class="node"><title>Node11</title>
<a xlink:href="_connection_manager_8cpp.html" target="_top" xlink:title="This file implements the ConnectionManager class. ">
<polygon style="fill:white;stroke:black;" points="0,-174 0,-195 187,-195 187,-174 0,-174"/>
<text text-anchor="middle" x="93" y="-181" style="font-family:Arial;font-size:10.00;">S2Sim/ConnectionManager.cpp</text>
</a>
</g>
<!-- Node3&#45;&gt;Node11 -->
<g id="edge36" class="edge"><title>Node3&#45;&gt;Node11</title>
<path style="fill:none;stroke:midnightblue;" d="M342,-230C283,-219 202,-204 148,-195"/>
<polygon style="fill:midnightblue;stroke:midnightblue;" points="341.508,-233.471 352,-232 342.881,-226.607 341.508,-233.471"/>
</g>
<!-- Node4&#45;&gt;Node5 -->
<g id="edge10" class="edge"><title>Node4&#45;&gt;Node5</title>
<path style="fill:none;stroke:midnightblue;" d="M488,-169C507,-159 532,-146 551,-137"/>
<polygon style="fill:midnightblue;stroke:midnightblue;" points="486.042,-166.084 479,-174 489.441,-172.203 486.042,-166.084"/>
</g>
<!-- Node4&#45;&gt;Node7 -->
<g id="edge34" class="edge"><title>Node4&#45;&gt;Node7</title>
<path style="fill:none;stroke:midnightblue;" d="M378,-174C333,-167 285,-155 271,-138 242,-101 283,-44 303,-21"/>
<polygon style="fill:midnightblue;stroke:midnightblue;" points="377.508,-177.471 388,-176 378.881,-170.607 377.508,-177.471"/>
</g>
<!-- Node10 -->
<g id="node26" class="node"><title>Node10</title>
<a xlink:href="_control_manager_8cpp.html" target="_top" xlink:title="This file implements the ControlManager class. ">
<polygon style="fill:white;stroke:black;" points="280,-116 280,-137 444,-137 444,-116 280,-116"/>
<text text-anchor="middle" x="362" y="-123" style="font-family:Arial;font-size:10.00;">S2Sim/ControlManager.cpp</text>
</a>
</g>
<!-- Node4&#45;&gt;Node10 -->
<g id="edge32" class="edge"><title>Node4&#45;&gt;Node10</title>
<path style="fill:none;stroke:midnightblue;" d="M435,-169C417,-158 394,-146 379,-137"/>
<polygon style="fill:midnightblue;stroke:midnightblue;" points="433.559,-172.203 444,-174 436.958,-166.084 433.559,-172.203"/>
</g>
<!-- Node5&#45;&gt;Node1 -->
<g id="edge26" class="edge"><title>Node5&#45;&gt;Node1</title>
<path style="fill:none;stroke:midnightblue;" d="M574,-147C567,-184 546,-261 535,-290"/>
<polygon style="fill:midnightblue;stroke:midnightblue;" points="577.471,-147.492 576,-137 570.607,-146.119 577.471,-147.492"/>
</g>
<!-- Node5&#45;&gt;Node4 -->
<g id="edge24" class="edge"><title>Node5&#45;&gt;Node4</title>
<path style="fill:none;stroke:midnightblue;" d="M552,-142C534,-152 509,-165 490,-174"/>
<polygon style="fill:midnightblue;stroke:midnightblue;" points="553.958,-144.916 561,-137 550.559,-138.797 553.958,-144.916"/>
</g>
<!-- Node6 -->
<g id="node12" class="node"><title>Node6</title>
<a xlink:href="_matlab_manager_8h.html" target="_top" xlink:title="Defines the MatlabManager class. ">
<polygon style="fill:white;stroke:black;" points="449,-58 449,-79 597,-79 597,-58 449,-58"/>
<text text-anchor="middle" x="523" y="-65" style="font-family:Arial;font-size:10.00;">S2Sim/MatlabManager.h</text>
</a>
</g>
<!-- Node5&#45;&gt;Node6 -->
<g id="edge12" class="edge"><title>Node5&#45;&gt;Node6</title>
<path style="fill:none;stroke:midnightblue;" d="M553,-109C543,-99 533,-87 527,-79"/>
<polygon style="fill:midnightblue;stroke:midnightblue;" points="550.454,-111.404 560,-116 555.404,-106.454 550.454,-111.404"/>
</g>
<!-- Node5&#45;&gt;Node7 -->
<g id="edge28" class="edge"><title>Node5&#45;&gt;Node7</title>
<path style="fill:none;stroke:midnightblue;" d="M529,-113C503,-104 469,-92 440,-80 398,-61 353,-35 329,-21"/>
<polygon style="fill:midnightblue;stroke:midnightblue;" points="528.416,-116.479 539,-116 530.427,-109.774 528.416,-116.479"/>
</g>
<!-- Node9 -->
<g id="node24" class="node"><title>Node9</title>
<a xlink:href="_system_manager_8cpp.html" target="_top" xlink:title="Implements the SystemManager class. ">
<polygon style="fill:white;stroke:black;" points="615,-58 615,-79 779,-79 779,-58 615,-58"/>
<text text-anchor="middle" x="697" y="-65" style="font-family:Arial;font-size:10.00;">S2Sim/SystemManager.cpp</text>
</a>
</g>
<!-- Node5&#45;&gt;Node9 -->
<g id="edge30" class="edge"><title>Node5&#45;&gt;Node9</title>
<path style="fill:none;stroke:midnightblue;" d="M607,-112C629,-101 657,-88 676,-79"/>
<polygon style="fill:midnightblue;stroke:midnightblue;" points="605.717,-108.74 598,-116 608.56,-115.137 605.717,-108.74"/>
</g>
<!-- Node6&#45;&gt;Node1 -->
<g id="edge14" class="edge"><title>Node6&#45;&gt;Node1</title>
<path style="fill:none;stroke:midnightblue;" d="M581,-81C613,-90 649,-102 659,-116 706,-182 593,-261 547,-290"/>
<polygon style="fill:midnightblue;stroke:midnightblue;" points="581.492,-77.5292 571,-79 580.119,-84.3933 581.492,-77.5292"/>
</g>
<!-- Node6&#45;&gt;Node4 -->
<g id="edge18" class="edge"><title>Node6&#45;&gt;Node4</title>
<path style="fill:none;stroke:midnightblue;" d="M509,-87C503,-95 496,-106 491,-116 480,-135 471,-160 467,-174"/>
<polygon style="fill:midnightblue;stroke:midnightblue;" points="511.8,-89.1 515,-79 506.2,-84.9 511.8,-89.1"/>
</g>
<!-- Node6&#45;&gt;Node5 -->
<g id="edge16" class="edge"><title>Node6&#45;&gt;Node5</title>
<path style="fill:none;stroke:midnightblue;" d="M544,-86C554,-96 564,-107 570,-116"/>
<polygon style="fill:midnightblue;stroke:midnightblue;" points="546.546,-83.5962 537,-79 541.596,-88.546 546.546,-83.5962"/>
</g>
<!-- Node6&#45;&gt;Node7 -->
<g id="edge20" class="edge"><title>Node6&#45;&gt;Node7</title>
<path style="fill:none;stroke:midnightblue;" d="M473,-55C435,-44 383,-30 349,-21"/>
<polygon style="fill:midnightblue;stroke:midnightblue;" points="472.416,-58.4788 483,-58 474.427,-51.7741 472.416,-58.4788"/>
</g>
<!-- Node8 -->
<g id="node19" class="node"><title>Node8</title>
<a xlink:href="_matlab_manager_8cpp.html" target="_top" xlink:title="Implements the MatlabManager class. ">
<polygon style="fill:white;stroke:black;" points="443,-0 443,-21 604,-21 604,-0 443,-0"/>
<text text-anchor="middle" x="523" y="-7" style="font-family:Arial;font-size:10.00;">S2Sim/MatlabManager.cpp</text>
</a>
</g>
<!-- Node6&#45;&gt;Node8 -->
<g id="edge22" class="edge"><title>Node6&#45;&gt;Node8</title>
<path style="fill:none;stroke:midnightblue;" d="M523,-48C523,-38 523,-28 523,-21"/>
<polygon style="fill:midnightblue;stroke:midnightblue;" points="519.5,-48 523,-58 526.5,-48 519.5,-48"/>
</g>
</g>
</svg>
