<?xml version="1.0" encoding="UTF-8" standalone="no"?>
<!DOCTYPE svg PUBLIC "-//W3C//DTD SVG 1.0//EN"
 "http://www.w3.org/TR/2001/REC-SVG-20010904/DTD/svg10.dtd" [
 <!ATTLIST svg xmlns:xlink CDATA #FIXED "http://www.w3.org/1999/xlink">
]>
<!-- Generated by Graphviz version 2.14.1 (Fri Nov  9 08:19:38 GMT 2007)
     For user: (asakyurek) Alper Sinan Akyurek -->
<!-- Title: S2Sim/TerraswarmLibrary/CompileTimeCheckerLibrary.h Pages: 1 -->
<svg width="1449pt" height="682pt"
 viewBox="0.00 0.00 1449.00 682.00" xmlns="http://www.w3.org/2000/svg" xmlns:xlink="http://www.w3.org/1999/xlink">
<g id="graph0" class="graph" transform="scale(1 1) rotate(0) translate(4 678)">
<title>S2Sim/TerraswarmLibrary/CompileTimeCheckerLibrary.h</title>
<polygon style="fill:white;stroke:white;" points="-4,4 -4,-678 1445,-678 1445,4 -4,4"/>
<!-- Node1 -->
<g id="node1" class="node"><title>Node1</title>
<polygon style="fill:#bfbfbf;stroke:black;" points="678,-640 678,-674 862,-674 862,-640 678,-640"/>
<text text-anchor="start" x="686" y="-660" style="font-family:Arial;font-size:10.00;">S2Sim/TerraswarmLibrary</text>
<text text-anchor="middle" x="770" y="-647" style="font-family:Arial;font-size:10.00;">/CompileTimeCheckerLibrary.h</text>
</g>
<!-- Node2 -->
<g id="node3" class="node"><title>Node2</title>
<a xlink:href="_network_byte_accessor_8h.html" target="_top" xlink:title="Defines the NetworkByteAccessor class for byte order conversion and easier data access. ">
<polygon style="fill:white;stroke:black;" points="694,-570 694,-604 847,-604 847,-570 694,-570"/>
<text text-anchor="start" x="702" y="-590" style="font-family:Arial;font-size:10.00;">S2Sim/TerraswarmLibrary</text>
<text text-anchor="middle" x="770" y="-577" style="font-family:Arial;font-size:10.00;">/NetworkByteAccessor.h</text>
</a>
</g>
<!-- Node1&#45;&gt;Node2 -->
<g id="edge2" class="edge"><title>Node1&#45;&gt;Node2</title>
<path style="fill:none;stroke:midnightblue;" d="M770,-630C770,-621 770,-612 770,-604"/>
<polygon style="fill:midnightblue;stroke:midnightblue;" points="766.5,-630 770,-640 773.5,-630 766.5,-630"/>
</g>
<!-- Node3 -->
<g id="node5" class="node"><title>Node3</title>
<a xlink:href="_message_header_8h.html" target="_top" xlink:title="Defines the MessageHeader class. ">
<polygon style="fill:white;stroke:black;" points="746,-500 746,-534 899,-534 899,-500 746,-500"/>
<text text-anchor="start" x="754" y="-520" style="font-family:Arial;font-size:10.00;">S2Sim/TerraswarmLibrary</text>
<text text-anchor="middle" x="822" y="-507" style="font-family:Arial;font-size:10.00;">/MessageHeader.h</text>
</a>
</g>
<!-- Node2&#45;&gt;Node3 -->
<g id="edge4" class="edge"><title>Node2&#45;&gt;Node3</title>
<path style="fill:none;stroke:midnightblue;" d="M789,-562C796,-553 803,-542 809,-534"/>
<polygon style="fill:midnightblue;stroke:midnightblue;" points="786.2,-559.9 783,-570 791.8,-564.1 786.2,-559.9"/>
</g>
<!-- Node17 -->
<g id="node45" class="node"><title>Node17</title>
<a xlink:href="_message_ender_8h.html" target="_top" xlink:title="Defines a MessageEnder class. ">
<polygon style="fill:white;stroke:black;" points="642,-430 642,-464 795,-464 795,-430 642,-430"/>
<text text-anchor="start" x="650" y="-450" style="font-family:Arial;font-size:10.00;">S2Sim/TerraswarmLibrary</text>
<text text-anchor="middle" x="718" y="-437" style="font-family:Arial;font-size:10.00;">/MessageEnder.h</text>
</a>
</g>
<!-- Node2&#45;&gt;Node17 -->
<g id="edge112" class="edge"><title>Node2&#45;&gt;Node17</title>
<path style="fill:none;stroke:midnightblue;" d="M752,-562C747,-553 741,-544 737,-534 728,-511 723,-482 720,-464"/>
<polygon style="fill:midnightblue;stroke:midnightblue;" points="749.2,-564.1 758,-570 754.8,-559.9 749.2,-564.1"/>
</g>
<!-- Node4 -->
<g id="node7" class="node"><title>Node4</title>
<a xlink:href="_client_manager_8h.html" target="_top" xlink:title="Header file for the ClientManager class. ">
<polygon style="fill:white;stroke:black;" points="725,-296 725,-317 868,-317 868,-296 725,-296"/>
<text text-anchor="middle" x="796" y="-303" style="font-family:Arial;font-size:10.00;">S2Sim/ClientManager.h</text>
</a>
</g>
<!-- Node3&#45;&gt;Node4 -->
<g id="edge6" class="edge"><title>Node3&#45;&gt;Node4</title>
<path style="fill:none;stroke:midnightblue;" d="M833,-490C844,-458 857,-403 841,-360 835,-342 820,-327 809,-317"/>
<polygon style="fill:midnightblue;stroke:midnightblue;" points="829.464,-489.415 829,-500 835.964,-492.015 829.464,-489.415"/>
</g>
<!-- Node15 -->
<g id="node40" class="node"><title>Node15</title>
<a xlink:href="_client_connection_request_8h.html" target="_top" xlink:title="Defines the ClientConnectionRequest classes. ">
<polygon style="fill:white;stroke:black;" points="1058,-360 1058,-394 1226,-394 1226,-360 1058,-360"/>
<text text-anchor="start" x="1066" y="-380" style="font-family:Arial;font-size:10.00;">S2Sim/TerraswarmLibrary</text>
<text text-anchor="middle" x="1142" y="-367" style="font-family:Arial;font-size:10.00;">/ClientConnectionRequest.h</text>
</a>
</g>
<!-- Node3&#45;&gt;Node15 -->
<g id="edge50" class="edge"><title>Node3&#45;&gt;Node15</title>
<path style="fill:none;stroke:midnightblue;" d="M909,-503C967,-493 1038,-479 1064,-464 1093,-446 1118,-414 1131,-394"/>
<polygon style="fill:midnightblue;stroke:midnightblue;" points="908.119,-499.607 899,-505 909.492,-506.471 908.119,-499.607"/>
</g>
<!-- Node3&#45;&gt;Node17 -->
<g id="edge56" class="edge"><title>Node3&#45;&gt;Node17</title>
<path style="fill:none;stroke:midnightblue;" d="M788,-494C774,-484 757,-473 744,-464"/>
<polygon style="fill:midnightblue;stroke:midnightblue;" points="786.738,-497.365 797,-500 790.621,-491.541 786.738,-497.365"/>
</g>
<!-- Node18 -->
<g id="node48" class="node"><title>Node18</title>
<a xlink:href="_client_connection_response_8h.html" target="_top" xlink:title="Defines the Asnyc and Synchronous ClientConnectionResponse messages and classes. ">
<polygon style="fill:white;stroke:black;" points="1244,-360 1244,-394 1420,-394 1420,-360 1244,-360"/>
<text text-anchor="start" x="1252" y="-380" style="font-family:Arial;font-size:10.00;">S2Sim/TerraswarmLibrary</text>
<text text-anchor="middle" x="1332" y="-367" style="font-family:Arial;font-size:10.00;">/ClientConnectionResponse.h</text>
</a>
</g>
<!-- Node3&#45;&gt;Node18 -->
<g id="edge98" class="edge"><title>Node3&#45;&gt;Node18</title>
<path style="fill:none;stroke:midnightblue;" d="M909,-503C963,-494 1033,-480 1093,-464 1163,-444 1243,-413 1291,-394"/>
<polygon style="fill:midnightblue;stroke:midnightblue;" points="908.119,-499.607 899,-505 909.492,-506.471 908.119,-499.607"/>
</g>
<!-- Node20 -->
<g id="node53" class="node"><title>Node20</title>
<a xlink:href="_client_data_8h.html" target="_top" xlink:title="Defines the Aysnchronous and Synchronous ClientData class and messages. ">
<polygon style="fill:white;stroke:black;" points="0,-360 0,-394 153,-394 153,-360 0,-360"/>
<text text-anchor="start" x="8" y="-380" style="font-family:Arial;font-size:10.00;">S2Sim/TerraswarmLibrary</text>
<text text-anchor="middle" x="76" y="-367" style="font-family:Arial;font-size:10.00;">/ClientData.h</text>
</a>
</g>
<!-- Node3&#45;&gt;Node20 -->
<g id="edge100" class="edge"><title>Node3&#45;&gt;Node20</title>
<path style="fill:none;stroke:midnightblue;" d="M736,-508C654,-500 528,-484 420,-464 319,-444 203,-413 135,-394"/>
<polygon style="fill:midnightblue;stroke:midnightblue;" points="735.701,-511.488 746,-509 736.398,-504.522 735.701,-511.488"/>
</g>
<!-- Node22 -->
<g id="node58" class="node"><title>Node22</title>
<a xlink:href="_demand_negotiation_8h.html" target="_top" xlink:title="Defines the DemandNegotiation class and message. ">
<polygon style="fill:white;stroke:black;" points="170,-360 170,-394 323,-394 323,-360 170,-360"/>
<text text-anchor="start" x="178" y="-380" style="font-family:Arial;font-size:10.00;">S2Sim/TerraswarmLibrary</text>
<text text-anchor="middle" x="246" y="-367" style="font-family:Arial;font-size:10.00;">/DemandNegotiation.h</text>
</a>
</g>
<!-- Node3&#45;&gt;Node22 -->
<g id="edge102" class="edge"><title>Node3&#45;&gt;Node22</title>
<path style="fill:none;stroke:midnightblue;" d="M736,-502C681,-492 609,-479 546,-464 460,-443 360,-413 300,-394"/>
<polygon style="fill:midnightblue;stroke:midnightblue;" points="735.508,-505.471 746,-504 736.881,-498.607 735.508,-505.471"/>
</g>
<!-- Node24 -->
<g id="node63" class="node"><title>Node24</title>
<a xlink:href="_get_price_8h.html" target="_top" xlink:title="Defines the GetPrice class and message. ">
<polygon style="fill:white;stroke:black;" points="340,-360 340,-394 493,-394 493,-360 340,-360"/>
<text text-anchor="start" x="348" y="-380" style="font-family:Arial;font-size:10.00;">S2Sim/TerraswarmLibrary</text>
<text text-anchor="middle" x="416" y="-367" style="font-family:Arial;font-size:10.00;">/GetPrice.h</text>
</a>
</g>
<!-- Node3&#45;&gt;Node24 -->
<g id="edge104" class="edge"><title>Node3&#45;&gt;Node24</title>
<path style="fill:none;stroke:midnightblue;" d="M745,-497C710,-488 670,-477 633,-464 570,-442 498,-412 455,-394"/>
<polygon style="fill:midnightblue;stroke:midnightblue;" points="744.416,-500.479 755,-500 746.427,-493.774 744.416,-500.479"/>
</g>
<!-- Node27 -->
<g id="node70" class="node"><title>Node27</title>
<a xlink:href="_price_proposal_8h.html" target="_top" xlink:title="Defines the PriceProposal class. ">
<polygon style="fill:white;stroke:black;" points="680,-360 680,-394 833,-394 833,-360 680,-360"/>
<text text-anchor="start" x="688" y="-380" style="font-family:Arial;font-size:10.00;">S2Sim/TerraswarmLibrary</text>
<text text-anchor="middle" x="756" y="-367" style="font-family:Arial;font-size:10.00;">/PriceProposal.h</text>
</a>
</g>
<!-- Node3&#45;&gt;Node27 -->
<g id="edge108" class="edge"><title>Node3&#45;&gt;Node27</title>
<path style="fill:none;stroke:midnightblue;" d="M820,-490C817,-472 812,-448 803,-430 796,-416 785,-403 776,-394"/>
<polygon style="fill:midnightblue;stroke:midnightblue;" points="816.522,-490.398 821,-500 823.488,-489.701 816.522,-490.398"/>
</g>
<!-- Node29 -->
<g id="node75" class="node"><title>Node29</title>
<a xlink:href="_set_current_price_8h.html" target="_top" xlink:title="Defines the SetCurrentPrice class. ">
<polygon style="fill:white;stroke:black;" points="888,-360 888,-394 1041,-394 1041,-360 888,-360"/>
<text text-anchor="start" x="896" y="-380" style="font-family:Arial;font-size:10.00;">S2Sim/TerraswarmLibrary</text>
<text text-anchor="middle" x="964" y="-367" style="font-family:Arial;font-size:10.00;">/SetCurrentPrice.h</text>
</a>
</g>
<!-- Node3&#45;&gt;Node29 -->
<g id="edge110" class="edge"><title>Node3&#45;&gt;Node29</title>
<path style="fill:none;stroke:midnightblue;" d="M909,-508C965,-499 1031,-486 1049,-464 1058,-452 1056,-443 1049,-430 1040,-414 1024,-402 1009,-394"/>
<polygon style="fill:midnightblue;stroke:midnightblue;" points="908.602,-504.522 899,-509 909.299,-511.488 908.602,-504.522"/>
</g>
<!-- Node31 -->
<g id="node84" class="node"><title>Node31</title>
<a xlink:href="_message_header_8cpp.html" target="_top" xlink:title="Implements the MessageHeader class. ">
<polygon style="fill:white;stroke:black;" points="888,-430 888,-464 1041,-464 1041,-430 888,-430"/>
<text text-anchor="start" x="896" y="-450" style="font-family:Arial;font-size:10.00;">S2Sim/TerraswarmLibrary</text>
<text text-anchor="middle" x="964" y="-437" style="font-family:Arial;font-size:10.00;">/MessageHeader.cpp</text>
</a>
</g>
<!-- Node3&#45;&gt;Node31 -->
<g id="edge106" class="edge"><title>Node3&#45;&gt;Node31</title>
<path style="fill:none;stroke:midnightblue;" d="M866,-495C886,-485 910,-474 929,-464"/>
<polygon style="fill:midnightblue;stroke:midnightblue;" points="864.042,-492.084 857,-500 867.441,-498.203 864.042,-492.084"/>
</g>
<!-- Node5 -->
<g id="node9" class="node"><title>Node5</title>
<a xlink:href="_client_manager_8cpp.html" target="_top" xlink:title="Source file for the ClientManager class. ">
<polygon style="fill:white;stroke:black;" points="420,-232 420,-253 576,-253 576,-232 420,-232"/>
<text text-anchor="middle" x="498" y="-239" style="font-family:Arial;font-size:10.00;">S2Sim/ClientManager.cpp</text>
</a>
</g>
<!-- Node4&#45;&gt;Node5 -->
<g id="edge8" class="edge"><title>Node4&#45;&gt;Node5</title>
<path style="fill:none;stroke:midnightblue;" d="M735,-294C679,-282 596,-264 545,-253"/>
<polygon style="fill:midnightblue;stroke:midnightblue;" points="734.508,-297.471 745,-296 735.881,-290.607 734.508,-297.471"/>
</g>
<!-- Node6 -->
<g id="node11" class="node"><title>Node6</title>
<a xlink:href="_connection_manager_8h.html" target="_top" xlink:title="This file defines the ConnectionManager class. ">
<polygon style="fill:white;stroke:black;" points="594,-232 594,-253 768,-253 768,-232 594,-232"/>
<text text-anchor="middle" x="681" y="-239" style="font-family:Arial;font-size:10.00;">S2Sim/ConnectionManager.h</text>
</a>
</g>
<!-- Node4&#45;&gt;Node6 -->
<g id="edge10" class="edge"><title>Node4&#45;&gt;Node6</title>
<path style="fill:none;stroke:midnightblue;" d="M762,-291C739,-280 711,-264 694,-253"/>
<polygon style="fill:midnightblue;stroke:midnightblue;" points="760.559,-294.203 771,-296 763.958,-288.084 760.559,-294.203"/>
</g>
<!-- Node7 -->
<g id="node14" class="node"><title>Node7</title>
<a xlink:href="_control_manager_8h.html" target="_top" xlink:title="This file defines the ControlManager class. ">
<polygon style="fill:white;stroke:black;" points="656,-174 656,-195 807,-195 807,-174 656,-174"/>
<text text-anchor="middle" x="731" y="-181" style="font-family:Arial;font-size:10.00;">S2Sim/ControlManager.h</text>
</a>
</g>
<!-- Node4&#45;&gt;Node7 -->
<g id="edge48" class="edge"><title>Node4&#45;&gt;Node7</title>
<path style="fill:none;stroke:midnightblue;" d="M794,-286C791,-270 787,-248 777,-232 769,-217 755,-204 744,-195"/>
<polygon style="fill:midnightblue;stroke:midnightblue;" points="790.522,-286.398 795,-296 797.488,-285.701 790.522,-286.398"/>
</g>
<!-- Node8 -->
<g id="node16" class="node"><title>Node8</title>
<a xlink:href="_system_manager_8h.html" target="_top" xlink:title="Defines the SystemManager class. ">
<polygon style="fill:white;stroke:black;" points="768,-116 768,-137 919,-137 919,-116 768,-116"/>
<text text-anchor="middle" x="843" y="-123" style="font-family:Arial;font-size:10.00;">S2Sim/SystemManager.h</text>
</a>
</g>
<!-- Node4&#45;&gt;Node8 -->
<g id="edge46" class="edge"><title>Node4&#45;&gt;Node8</title>
<path style="fill:none;stroke:midnightblue;" d="M797,-286C803,-247 825,-166 837,-137"/>
<polygon style="fill:midnightblue;stroke:midnightblue;" points="793.529,-285.508 795,-296 800.393,-286.881 793.529,-285.508"/>
</g>
<!-- Node6&#45;&gt;Node4 -->
<g id="edge12" class="edge"><title>Node6&#45;&gt;Node4</title>
<path style="fill:none;stroke:midnightblue;" d="M713,-258C735,-270 763,-286 781,-296"/>
<polygon style="fill:midnightblue;stroke:midnightblue;" points="714.441,-254.797 704,-253 711.042,-260.916 714.441,-254.797"/>
</g>
<!-- Node6&#45;&gt;Node7 -->
<g id="edge14" class="edge"><title>Node6&#45;&gt;Node7</title>
<path style="fill:none;stroke:midnightblue;" d="M698,-224C706,-214 716,-203 722,-195"/>
<polygon style="fill:midnightblue;stroke:midnightblue;" points="694.951,-222.169 691,-232 700.219,-226.779 694.951,-222.169"/>
</g>
<!-- Node10 -->
<g id="node23" class="node"><title>Node10</title>
<a xlink:href="main_8cpp.html" target="_top" xlink:title="Main file that starts an infinite running loop on the SystemManager::AdvanceTimeStep method...">
<polygon style="fill:white;stroke:black;" points="528,-0 528,-21 632,-21 632,-0 528,-0"/>
<text text-anchor="middle" x="580" y="-7" style="font-family:Arial;font-size:10.00;">S2Sim/main.cpp</text>
</a>
</g>
<!-- Node6&#45;&gt;Node10 -->
<g id="edge44" class="edge"><title>Node6&#45;&gt;Node10</title>
<path style="fill:none;stroke:midnightblue;" d="M641,-228C604,-212 552,-182 528,-138 521,-124 522,-81 533,-58 540,-43 555,-29 566,-21"/>
<polygon style="fill:midnightblue;stroke:midnightblue;" points="640.415,-231.536 651,-232 643.015,-225.036 640.415,-231.536"/>
</g>
<!-- Node14 -->
<g id="node35" class="node"><title>Node14</title>
<a xlink:href="_connection_manager_8cpp.html" target="_top" xlink:title="This file implements the ConnectionManager class. ">
<polygon style="fill:white;stroke:black;" points="268,-174 268,-195 455,-195 455,-174 268,-174"/>
<text text-anchor="middle" x="361" y="-181" style="font-family:Arial;font-size:10.00;">S2Sim/ConnectionManager.cpp</text>
</a>
</g>
<!-- Node6&#45;&gt;Node14 -->
<g id="edge42" class="edge"><title>Node6&#45;&gt;Node14</title>
<path style="fill:none;stroke:midnightblue;" d="M610,-230C551,-219 470,-204 416,-195"/>
<polygon style="fill:midnightblue;stroke:midnightblue;" points="609.508,-233.471 620,-232 610.881,-226.607 609.508,-233.471"/>
</g>
<!-- Node7&#45;&gt;Node8 -->
<g id="edge16" class="edge"><title>Node7&#45;&gt;Node8</title>
<path style="fill:none;stroke:midnightblue;" d="M756,-169C775,-159 800,-146 819,-137"/>
<polygon style="fill:midnightblue;stroke:midnightblue;" points="754.042,-166.084 747,-174 757.441,-172.203 754.042,-166.084"/>
</g>
<!-- Node7&#45;&gt;Node10 -->
<g id="edge40" class="edge"><title>Node7&#45;&gt;Node10</title>
<path style="fill:none;stroke:midnightblue;" d="M646,-174C601,-167 553,-155 539,-138 511,-101 552,-44 571,-21"/>
<polygon style="fill:midnightblue;stroke:midnightblue;" points="645.508,-177.471 656,-176 646.881,-170.607 645.508,-177.471"/>
</g>
<!-- Node13 -->
<g id="node32" class="node"><title>Node13</title>
<a xlink:href="_control_manager_8cpp.html" target="_top" xlink:title="This file implements the ControlManager class. ">
<polygon style="fill:white;stroke:black;" points="548,-116 548,-137 712,-137 712,-116 548,-116"/>
<text text-anchor="middle" x="630" y="-123" style="font-family:Arial;font-size:10.00;">S2Sim/ControlManager.cpp</text>
</a>
</g>
<!-- Node7&#45;&gt;Node13 -->
<g id="edge38" class="edge"><title>Node7&#45;&gt;Node13</title>
<path style="fill:none;stroke:midnightblue;" d="M703,-169C685,-158 662,-146 647,-137"/>
<polygon style="fill:midnightblue;stroke:midnightblue;" points="701.559,-172.203 712,-174 704.958,-166.084 701.559,-172.203"/>
</g>
<!-- Node8&#45;&gt;Node4 -->
<g id="edge32" class="edge"><title>Node8&#45;&gt;Node4</title>
<path style="fill:none;stroke:midnightblue;" d="M842,-147C836,-185 814,-266 802,-296"/>
<polygon style="fill:midnightblue;stroke:midnightblue;" points="845.471,-147.492 844,-137 838.607,-146.119 845.471,-147.492"/>
</g>
<!-- Node8&#45;&gt;Node7 -->
<g id="edge30" class="edge"><title>Node8&#45;&gt;Node7</title>
<path style="fill:none;stroke:midnightblue;" d="M820,-142C802,-152 777,-165 758,-174"/>
<polygon style="fill:midnightblue;stroke:midnightblue;" points="821.958,-144.916 829,-137 818.559,-138.797 821.958,-144.916"/>
</g>
<!-- Node9 -->
<g id="node18" class="node"><title>Node9</title>
<a xlink:href="_matlab_manager_8h.html" target="_top" xlink:title="Defines the MatlabManager class. ">
<polygon style="fill:white;stroke:black;" points="717,-58 717,-79 865,-79 865,-58 717,-58"/>
<text text-anchor="middle" x="791" y="-65" style="font-family:Arial;font-size:10.00;">S2Sim/MatlabManager.h</text>
</a>
</g>
<!-- Node8&#45;&gt;Node9 -->
<g id="edge18" class="edge"><title>Node8&#45;&gt;Node9</title>
<path style="fill:none;stroke:midnightblue;" d="M821,-109C811,-99 801,-87 795,-79"/>
<polygon style="fill:midnightblue;stroke:midnightblue;" points="818.454,-111.404 828,-116 823.404,-106.454 818.454,-111.404"/>
</g>
<!-- Node8&#45;&gt;Node10 -->
<g id="edge34" class="edge"><title>Node8&#45;&gt;Node10</title>
<path style="fill:none;stroke:midnightblue;" d="M797,-113C771,-104 737,-92 708,-80 667,-61 621,-35 597,-21"/>
<polygon style="fill:midnightblue;stroke:midnightblue;" points="796.416,-116.479 807,-116 798.427,-109.774 796.416,-116.479"/>
</g>
<!-- Node12 -->
<g id="node30" class="node"><title>Node12</title>
<a xlink:href="_system_manager_8cpp.html" target="_top" xlink:title="Implements the SystemManager class. ">
<polygon style="fill:white;stroke:black;" points="883,-58 883,-79 1047,-79 1047,-58 883,-58"/>
<text text-anchor="middle" x="965" y="-65" style="font-family:Arial;font-size:10.00;">S2Sim/SystemManager.cpp</text>
</a>
</g>
<!-- Node8&#45;&gt;Node12 -->
<g id="edge36" class="edge"><title>Node8&#45;&gt;Node12</title>
<path style="fill:none;stroke:midnightblue;" d="M875,-112C897,-101 925,-88 944,-79"/>
<polygon style="fill:midnightblue;stroke:midnightblue;" points="873.717,-108.74 866,-116 876.56,-115.137 873.717,-108.74"/>
</g>
<!-- Node9&#45;&gt;Node4 -->
<g id="edge20" class="edge"><title>Node9&#45;&gt;Node4</title>
<path style="fill:none;stroke:midnightblue;" d="M849,-81C882,-90 918,-102 927,-116 975,-183 860,-266 814,-296"/>
<polygon style="fill:midnightblue;stroke:midnightblue;" points="849.492,-77.5292 839,-79 848.119,-84.3933 849.492,-77.5292"/>
</g>
<!-- Node9&#45;&gt;Node7 -->
<g id="edge24" class="edge"><title>Node9&#45;&gt;Node7</title>
<path style="fill:none;stroke:midnightblue;" d="M777,-87C771,-95 764,-106 759,-116 749,-135 740,-160 735,-174"/>
<polygon style="fill:midnightblue;stroke:midnightblue;" points="779.8,-89.1 783,-79 774.2,-84.9 779.8,-89.1"/>
</g>
<!-- Node9&#45;&gt;Node8 -->
<g id="edge22" class="edge"><title>Node9&#45;&gt;Node8</title>
<path style="fill:none;stroke:midnightblue;" d="M812,-86C822,-96 832,-107 838,-116"/>
<polygon style="fill:midnightblue;stroke:midnightblue;" points="814.546,-83.5962 805,-79 809.596,-88.546 814.546,-83.5962"/>
</g>
<!-- Node9&#45;&gt;Node10 -->
<g id="edge26" class="edge"><title>Node9&#45;&gt;Node10</title>
<path style="fill:none;stroke:midnightblue;" d="M741,-55C703,-44 651,-30 617,-21"/>
<polygon style="fill:midnightblue;stroke:midnightblue;" points="740.416,-58.4788 751,-58 742.427,-51.7741 740.416,-58.4788"/>
</g>
<!-- Node11 -->
<g id="node25" class="node"><title>Node11</title>
<a xlink:href="_matlab_manager_8cpp.html" target="_top" xlink:title="Implements the MatlabManager class. ">
<polygon style="fill:white;stroke:black;" points="711,-0 711,-21 872,-21 872,-0 711,-0"/>
<text text-anchor="middle" x="791" y="-7" style="font-family:Arial;font-size:10.00;">S2Sim/MatlabManager.cpp</text>
</a>
</g>
<!-- Node9&#45;&gt;Node11 -->
<g id="edge28" class="edge"><title>Node9&#45;&gt;Node11</title>
<path style="fill:none;stroke:midnightblue;" d="M791,-48C791,-38 791,-28 791,-21"/>
<polygon style="fill:midnightblue;stroke:midnightblue;" points="787.5,-48 791,-58 794.5,-48 787.5,-48"/>
</g>
<!-- Node15&#45;&gt;Node4 -->
<g id="edge52" class="edge"><title>Node15&#45;&gt;Node4</title>
<path style="fill:none;stroke:midnightblue;" d="M1048,-358C997,-348 933,-335 876,-324 866,-322 855,-319 844,-317"/>
<polygon style="fill:midnightblue;stroke:midnightblue;" points="1047.51,-361.471 1058,-360 1048.88,-354.607 1047.51,-361.471"/>
</g>
<!-- Node16 -->
<g id="node43" class="node"><title>Node16</title>
<a xlink:href="_client_connection_request_8cpp.html" target="_top" xlink:title="Implements the ClientConnectionRequest class. ">
<polygon style="fill:white;stroke:black;" points="1055,-290 1055,-324 1236,-324 1236,-290 1055,-290"/>
<text text-anchor="start" x="1063" y="-310" style="font-family:Arial;font-size:10.00;">S2Sim/TerraswarmLibrary</text>
<text text-anchor="middle" x="1145" y="-297" style="font-family:Arial;font-size:10.00;">/ClientConnectionRequest.cpp</text>
</a>
</g>
<!-- Node15&#45;&gt;Node16 -->
<g id="edge54" class="edge"><title>Node15&#45;&gt;Node16</title>
<path style="fill:none;stroke:midnightblue;" d="M1144,-350C1144,-341 1144,-332 1144,-324"/>
<polygon style="fill:midnightblue;stroke:midnightblue;" points="1140.51,-349.701 1143,-360 1147.48,-350.398 1140.51,-349.701"/>
</g>
<!-- Node17&#45;&gt;Node15 -->
<g id="edge58" class="edge"><title>Node17&#45;&gt;Node15</title>
<path style="fill:none;stroke:midnightblue;" d="M805,-433C873,-423 967,-408 1049,-394 1052,-393 1055,-393 1058,-392"/>
<polygon style="fill:midnightblue;stroke:midnightblue;" points="804.119,-429.607 795,-435 805.492,-436.471 804.119,-429.607"/>
</g>
<!-- Node17&#45;&gt;Node18 -->
<g id="edge60" class="edge"><title>Node17&#45;&gt;Node18</title>
<path style="fill:none;stroke:midnightblue;" d="M805,-438C829,-435 855,-433 879,-430 1037,-413 1077,-415 1235,-394 1238,-394 1241,-393 1244,-393"/>
<polygon style="fill:midnightblue;stroke:midnightblue;" points="804.602,-434.522 795,-439 805.299,-441.488 804.602,-434.522"/>
</g>
<!-- Node17&#45;&gt;Node20 -->
<g id="edge66" class="edge"><title>Node17&#45;&gt;Node20</title>
<path style="fill:none;stroke:midnightblue;" d="M632,-441C522,-434 328,-418 161,-394 158,-394 156,-393 153,-393"/>
<polygon style="fill:midnightblue;stroke:midnightblue;" points="631.701,-444.488 642,-442 632.398,-437.522 631.701,-444.488"/>
</g>
<!-- Node17&#45;&gt;Node22 -->
<g id="edge72" class="edge"><title>Node17&#45;&gt;Node22</title>
<path style="fill:none;stroke:midnightblue;" d="M632,-437C553,-427 434,-411 331,-394 328,-394 326,-393 323,-392"/>
<polygon style="fill:midnightblue;stroke:midnightblue;" points="631.701,-440.488 642,-438 632.398,-433.522 631.701,-440.488"/>
</g>
<!-- Node17&#45;&gt;Node24 -->
<g id="edge78" class="edge"><title>Node17&#45;&gt;Node24</title>
<path style="fill:none;stroke:midnightblue;" d="M635,-428C590,-417 534,-404 490,-394"/>
<polygon style="fill:midnightblue;stroke:midnightblue;" points="634.508,-431.471 645,-430 635.881,-424.607 634.508,-431.471"/>
</g>
<!-- Node26 -->
<g id="node68" class="node"><title>Node26</title>
<a xlink:href="_message_ender_8cpp.html" target="_top" xlink:title="Implements a MessageEnder class. ">
<polygon style="fill:white;stroke:black;" points="510,-360 510,-394 663,-394 663,-360 510,-360"/>
<text text-anchor="start" x="518" y="-380" style="font-family:Arial;font-size:10.00;">S2Sim/TerraswarmLibrary</text>
<text text-anchor="middle" x="586" y="-367" style="font-family:Arial;font-size:10.00;">/MessageEnder.cpp</text>
</a>
</g>
<!-- Node17&#45;&gt;Node26 -->
<g id="edge84" class="edge"><title>Node17&#45;&gt;Node26</title>
<path style="fill:none;stroke:midnightblue;" d="M677,-425C659,-415 636,-403 619,-394"/>
<polygon style="fill:midnightblue;stroke:midnightblue;" points="675.559,-428.203 686,-430 678.958,-422.084 675.559,-428.203"/>
</g>
<!-- Node17&#45;&gt;Node27 -->
<g id="edge86" class="edge"><title>Node17&#45;&gt;Node27</title>
<path style="fill:none;stroke:midnightblue;" d="M732,-421C737,-412 743,-402 747,-394"/>
<polygon style="fill:midnightblue;stroke:midnightblue;" points="728.797,-419.559 727,-430 734.916,-422.958 728.797,-419.559"/>
</g>
<!-- Node17&#45;&gt;Node29 -->
<g id="edge92" class="edge"><title>Node17&#45;&gt;Node29</title>
<path style="fill:none;stroke:midnightblue;" d="M788,-427C825,-417 869,-404 904,-394"/>
<polygon style="fill:midnightblue;stroke:midnightblue;" points="786.573,-423.774 778,-430 788.584,-430.479 786.573,-423.774"/>
</g>
<!-- Node18&#45;&gt;Node4 -->
<g id="edge62" class="edge"><title>Node18&#45;&gt;Node4</title>
<path style="fill:none;stroke:midnightblue;" d="M1234,-360C1074,-338 1031,-348 876,-324 865,-322 852,-320 840,-317"/>
<polygon style="fill:midnightblue;stroke:midnightblue;" points="1233.7,-363.488 1244,-361 1234.4,-356.522 1233.7,-363.488"/>
</g>
<!-- Node19 -->
<g id="node51" class="node"><title>Node19</title>
<a xlink:href="_client_connection_response_8cpp.html" target="_top" xlink:title="Implements the Async and Synchronous ClientConnectionResponse message and classes. ">
<polygon style="fill:white;stroke:black;" points="1253,-290 1253,-324 1442,-324 1442,-290 1253,-290"/>
<text text-anchor="start" x="1261" y="-310" style="font-family:Arial;font-size:10.00;">S2Sim/TerraswarmLibrary</text>
<text text-anchor="middle" x="1347" y="-297" style="font-family:Arial;font-size:10.00;">/ClientConnectionResponse.cpp</text>
</a>
</g>
<!-- Node18&#45;&gt;Node19 -->
<g id="edge64" class="edge"><title>Node18&#45;&gt;Node19</title>
<path style="fill:none;stroke:midnightblue;" d="M1338,-350C1340,-341 1342,-332 1343,-324"/>
<polygon style="fill:midnightblue;stroke:midnightblue;" points="1334.53,-349.508 1336,-360 1341.39,-350.881 1334.53,-349.508"/>
</g>
<!-- Node20&#45;&gt;Node4 -->
<g id="edge68" class="edge"><title>Node20&#45;&gt;Node4</title>
<path style="fill:none;stroke:midnightblue;" d="M163,-360C409,-328 475,-357 716,-324 729,-322 742,-320 755,-317"/>
<polygon style="fill:midnightblue;stroke:midnightblue;" points="162.602,-356.522 153,-361 163.299,-363.488 162.602,-356.522"/>
</g>
<!-- Node21 -->
<g id="node56" class="node"><title>Node21</title>
<a xlink:href="_client_data_8cpp.html" target="_top" xlink:title="Implements the Async and Synchronous ClientData classes and messages. ">
<polygon style="fill:white;stroke:black;" points="0,-290 0,-324 153,-324 153,-290 0,-290"/>
<text text-anchor="start" x="8" y="-310" style="font-family:Arial;font-size:10.00;">S2Sim/TerraswarmLibrary</text>
<text text-anchor="middle" x="76" y="-297" style="font-family:Arial;font-size:10.00;">/ClientData.cpp</text>
</a>
</g>
<!-- Node20&#45;&gt;Node21 -->
<g id="edge70" class="edge"><title>Node20&#45;&gt;Node21</title>
<path style="fill:none;stroke:midnightblue;" d="M76,-350C76,-341 76,-332 76,-324"/>
<polygon style="fill:midnightblue;stroke:midnightblue;" points="72.5001,-350 76,-360 79.5001,-350 72.5001,-350"/>
</g>
<!-- Node22&#45;&gt;Node4 -->
<g id="edge74" class="edge"><title>Node22&#45;&gt;Node4</title>
<path style="fill:none;stroke:midnightblue;" d="M333,-360C504,-336 550,-349 716,-324 728,-322 740,-320 752,-317"/>
<polygon style="fill:midnightblue;stroke:midnightblue;" points="332.602,-356.522 323,-361 333.299,-363.488 332.602,-356.522"/>
</g>
<!-- Node23 -->
<g id="node61" class="node"><title>Node23</title>
<a xlink:href="_demand_negotiation_8cpp.html" target="_top" xlink:title="Implements the DemandNegotiation class. ">
<polygon style="fill:white;stroke:black;" points="170,-290 170,-324 323,-324 323,-290 170,-290"/>
<text text-anchor="start" x="178" y="-310" style="font-family:Arial;font-size:10.00;">S2Sim/TerraswarmLibrary</text>
<text text-anchor="middle" x="246" y="-297" style="font-family:Arial;font-size:10.00;">/DemandNegotiation.cpp</text>
</a>
</g>
<!-- Node22&#45;&gt;Node23 -->
<g id="edge76" class="edge"><title>Node22&#45;&gt;Node23</title>
<path style="fill:none;stroke:midnightblue;" d="M246,-350C246,-341 246,-332 246,-324"/>
<polygon style="fill:midnightblue;stroke:midnightblue;" points="242.5,-350 246,-360 249.5,-350 242.5,-350"/>
</g>
<!-- Node24&#45;&gt;Node4 -->
<g id="edge80" class="edge"><title>Node24&#45;&gt;Node4</title>
<path style="fill:none;stroke:midnightblue;" d="M503,-359C599,-342 624,-341 716,-324 727,-322 739,-319 750,-317"/>
<polygon style="fill:midnightblue;stroke:midnightblue;" points="502.119,-355.607 493,-361 503.492,-362.471 502.119,-355.607"/>
</g>
<!-- Node25 -->
<g id="node66" class="node"><title>Node25</title>
<a xlink:href="_get_price_8cpp.html" target="_top" xlink:title="Implements the GetPrice class. ">
<polygon style="fill:white;stroke:black;" points="340,-290 340,-324 493,-324 493,-290 340,-290"/>
<text text-anchor="start" x="348" y="-310" style="font-family:Arial;font-size:10.00;">S2Sim/TerraswarmLibrary</text>
<text text-anchor="middle" x="416" y="-297" style="font-family:Arial;font-size:10.00;">/GetPrice.cpp</text>
</a>
</g>
<!-- Node24&#45;&gt;Node25 -->
<g id="edge82" class="edge"><title>Node24&#45;&gt;Node25</title>
<path style="fill:none;stroke:midnightblue;" d="M416,-350C416,-341 416,-332 416,-324"/>
<polygon style="fill:midnightblue;stroke:midnightblue;" points="412.5,-350 416,-360 419.5,-350 412.5,-350"/>
</g>
<!-- Node27&#45;&gt;Node4 -->
<g id="edge88" class="edge"><title>Node27&#45;&gt;Node4</title>
<path style="fill:none;stroke:midnightblue;" d="M771,-351C778,-340 785,-326 790,-317"/>
<polygon style="fill:midnightblue;stroke:midnightblue;" points="767.797,-349.559 766,-360 773.916,-352.958 767.797,-349.559"/>
</g>
<!-- Node28 -->
<g id="node73" class="node"><title>Node28</title>
<a xlink:href="_price_proposal_8cpp.html" target="_top" xlink:title="Implements the PriceProposal class. ">
<polygon style="fill:white;stroke:black;" points="555,-290 555,-324 708,-324 708,-290 555,-290"/>
<text text-anchor="start" x="563" y="-310" style="font-family:Arial;font-size:10.00;">S2Sim/TerraswarmLibrary</text>
<text text-anchor="middle" x="631" y="-297" style="font-family:Arial;font-size:10.00;">/PriceProposal.cpp</text>
</a>
</g>
<!-- Node27&#45;&gt;Node28 -->
<g id="edge90" class="edge"><title>Node27&#45;&gt;Node28</title>
<path style="fill:none;stroke:midnightblue;" d="M716,-355C699,-345 678,-333 662,-324"/>
<polygon style="fill:midnightblue;stroke:midnightblue;" points="714.559,-358.203 725,-360 717.958,-352.084 714.559,-358.203"/>
</g>
<!-- Node29&#45;&gt;Node4 -->
<g id="edge94" class="edge"><title>Node29&#45;&gt;Node4</title>
<path style="fill:none;stroke:midnightblue;" d="M914,-356C883,-343 845,-327 821,-317"/>
<polygon style="fill:midnightblue;stroke:midnightblue;" points="912.44,-359.137 923,-360 915.283,-352.74 912.44,-359.137"/>
</g>
<!-- Node30 -->
<g id="node78" class="node"><title>Node30</title>
<a xlink:href="_set_current_price_8cpp.html" target="_top" xlink:title="Implements the SetCurrentPrice class. ">
<polygon style="fill:white;stroke:black;" points="885,-290 885,-324 1038,-324 1038,-290 885,-290"/>
<text text-anchor="start" x="893" y="-310" style="font-family:Arial;font-size:10.00;">S2Sim/TerraswarmLibrary</text>
<text text-anchor="middle" x="961" y="-297" style="font-family:Arial;font-size:10.00;">/SetCurrentPrice.cpp</text>
</a>
</g>
<!-- Node29&#45;&gt;Node30 -->
<g id="edge96" class="edge"><title>Node29&#45;&gt;Node30</title>
<path style="fill:none;stroke:midnightblue;" d="M962,-350C962,-341 962,-332 962,-324"/>
<polygon style="fill:midnightblue;stroke:midnightblue;" points="958.522,-350.398 963,-360 965.488,-349.701 958.522,-350.398"/>
</g>
</g>
</svg>
