<?xml version="1.0" encoding="UTF-8" standalone="no"?>
<!DOCTYPE svg PUBLIC "-//W3C//DTD SVG 1.0//EN"
 "http://www.w3.org/TR/2001/REC-SVG-20010904/DTD/svg10.dtd" [
 <!ATTLIST svg xmlns:xlink CDATA #FIXED "http://www.w3.org/1999/xlink">
]>
<!-- Generated by Graphviz version 2.14.1 (Fri Nov  9 08:19:38 GMT 2007)
     For user: (asakyurek) Alper Sinan Akyurek -->
<!-- Title: S2Sim/ConnectionManager.h Pages: 1 -->
<svg width="787pt" height="320pt"
 viewBox="0.00 0.00 787.00 320.00" xmlns="http://www.w3.org/2000/svg" xmlns:xlink="http://www.w3.org/1999/xlink">
<g id="graph0" class="graph" transform="scale(1 1) rotate(0) translate(4 316)">
<title>S2Sim/ConnectionManager.h</title>
<polygon style="fill:white;stroke:white;" points="-4,4 -4,-316 783,-316 783,4 -4,4"/>
<!-- Node1 -->
<g id="node1" class="node"><title>Node1</title>
<polygon style="fill:#bfbfbf;stroke:black;" points="361,-290 361,-311 535,-311 535,-290 361,-290"/>
<text text-anchor="middle" x="448" y="-297" style="font-family:Arial;font-size:10.00;">S2Sim/ConnectionManager.h</text>
</g>
<!-- Node2 -->
<g id="node3" class="node"><title>Node2</title>
<a xlink:href="_client_manager_8h.html" target="_top" xlink:title="Header file for the ClientManager class. ">
<polygon style="fill:white;stroke:black;" points="206,-232 206,-253 349,-253 349,-232 206,-232"/>
<text text-anchor="middle" x="277" y="-239" style="font-family:Arial;font-size:10.00;">S2Sim/ClientManager.h</text>
</a>
</g>
<!-- Node1&#45;&gt;Node2 -->
<g id="edge2" class="edge"><title>Node1&#45;&gt;Node2</title>
<path style="fill:none;stroke:midnightblue;" d="M400,-287C368,-276 327,-262 302,-253"/>
<polygon style="fill:midnightblue;stroke:midnightblue;" points="399.416,-290.479 410,-290 401.427,-283.774 399.416,-290.479"/>
</g>
<!-- Node6 -->
<g id="node14" class="node"><title>Node6</title>
<a xlink:href="_control_manager_8h.html" target="_top" xlink:title="This file defines the ControlManager class. ">
<polygon style="fill:white;stroke:black;" points="373,-174 373,-195 524,-195 524,-174 373,-174"/>
<text text-anchor="middle" x="448" y="-181" style="font-family:Arial;font-size:10.00;">S2Sim/ControlManager.h</text>
</a>
</g>
<!-- Node1&#45;&gt;Node6 -->
<g id="edge38" class="edge"><title>Node1&#45;&gt;Node6</title>
<path style="fill:none;stroke:midnightblue;" d="M448,-280C448,-255 448,-214 448,-195"/>
<polygon style="fill:midnightblue;stroke:midnightblue;" points="444.5,-280 448,-290 451.5,-280 444.5,-280"/>
</g>
<!-- Node8 -->
<g id="node19" class="node"><title>Node8</title>
<a xlink:href="main_8cpp.html" target="_top" xlink:title="Main file that starts an infinite running loop on the SystemManager::AdvanceTimeStep method...">
<polygon style="fill:white;stroke:black;" points="395,-0 395,-21 499,-21 499,-0 395,-0"/>
<text text-anchor="middle" x="447" y="-7" style="font-family:Arial;font-size:10.00;">S2Sim/main.cpp</text>
</a>
</g>
<!-- Node1&#45;&gt;Node8 -->
<g id="edge42" class="edge"><title>Node1&#45;&gt;Node8</title>
<path style="fill:none;stroke:midnightblue;" d="M482,-285C517,-267 565,-232 565,-185 565,-185 565,-185 565,-127 565,-74 505,-38 470,-21"/>
<polygon style="fill:midnightblue;stroke:midnightblue;" points="480.042,-282.084 473,-290 483.441,-288.203 480.042,-282.084"/>
</g>
<!-- Node11 -->
<g id="node31" class="node"><title>Node11</title>
<a xlink:href="_connection_manager_8cpp.html" target="_top" xlink:title="This file implements the ConnectionManager class. ">
<polygon style="fill:white;stroke:black;" points="593,-232 593,-253 780,-253 780,-232 593,-232"/>
<text text-anchor="middle" x="686" y="-239" style="font-family:Arial;font-size:10.00;">S2Sim/ConnectionManager.cpp</text>
</a>
</g>
<!-- Node1&#45;&gt;Node11 -->
<g id="edge40" class="edge"><title>Node1&#45;&gt;Node11</title>
<path style="fill:none;stroke:midnightblue;" d="M503,-288C546,-277 605,-262 645,-253"/>
<polygon style="fill:midnightblue;stroke:midnightblue;" points="502.119,-284.607 493,-290 503.492,-291.471 502.119,-284.607"/>
</g>
<!-- Node2&#45;&gt;Node1 -->
<g id="edge6" class="edge"><title>Node2&#45;&gt;Node1</title>
<path style="fill:none;stroke:midnightblue;" d="M322,-256C353,-266 394,-280 421,-290"/>
<polygon style="fill:midnightblue;stroke:midnightblue;" points="322.584,-252.521 312,-253 320.573,-259.226 322.584,-252.521"/>
</g>
<!-- Node3 -->
<g id="node5" class="node"><title>Node3</title>
<a xlink:href="_client_manager_8cpp.html" target="_top" xlink:title="Source file for the ClientManager class. ">
<polygon style="fill:white;stroke:black;" points="199,-174 199,-195 355,-195 355,-174 199,-174"/>
<text text-anchor="middle" x="277" y="-181" style="font-family:Arial;font-size:10.00;">S2Sim/ClientManager.cpp</text>
</a>
</g>
<!-- Node2&#45;&gt;Node3 -->
<g id="edge4" class="edge"><title>Node2&#45;&gt;Node3</title>
<path style="fill:none;stroke:midnightblue;" d="M277,-222C277,-212 277,-202 277,-195"/>
<polygon style="fill:midnightblue;stroke:midnightblue;" points="273.5,-222 277,-232 280.5,-222 273.5,-222"/>
</g>
<!-- Node4 -->
<g id="node8" class="node"><title>Node4</title>
<a xlink:href="_system_manager_8h.html" target="_top" xlink:title="Defines the SystemManager class. ">
<polygon style="fill:white;stroke:black;" points="129,-116 129,-137 280,-137 280,-116 129,-116"/>
<text text-anchor="middle" x="204" y="-123" style="font-family:Arial;font-size:10.00;">S2Sim/SystemManager.h</text>
</a>
</g>
<!-- Node2&#45;&gt;Node4 -->
<g id="edge8" class="edge"><title>Node2&#45;&gt;Node4</title>
<path style="fill:none;stroke:midnightblue;" d="M221,-228C205,-221 189,-210 181,-196 169,-177 181,-151 192,-137"/>
<polygon style="fill:midnightblue;stroke:midnightblue;" points="219.44,-231.137 230,-232 222.283,-224.74 219.44,-231.137"/>
</g>
<!-- Node2&#45;&gt;Node6 -->
<g id="edge36" class="edge"><title>Node2&#45;&gt;Node6</title>
<path style="fill:none;stroke:midnightblue;" d="M320,-229C350,-218 391,-204 418,-195"/>
<polygon style="fill:midnightblue;stroke:midnightblue;" points="318.573,-225.774 310,-232 320.584,-232.479 318.573,-225.774"/>
</g>
<!-- Node4&#45;&gt;Node2 -->
<g id="edge30" class="edge"><title>Node4&#45;&gt;Node2</title>
<path style="fill:none;stroke:midnightblue;" d="M201,-146C195,-161 189,-181 199,-196 209,-213 229,-225 246,-232"/>
<polygon style="fill:midnightblue;stroke:midnightblue;" points="204.158,-147.594 204,-137 197.517,-145.38 204.158,-147.594"/>
</g>
<!-- Node5 -->
<g id="node10" class="node"><title>Node5</title>
<a xlink:href="_matlab_manager_8h.html" target="_top" xlink:title="Defines the MatlabManager class. ">
<polygon style="fill:white;stroke:black;" points="182,-58 182,-79 330,-79 330,-58 182,-58"/>
<text text-anchor="middle" x="256" y="-65" style="font-family:Arial;font-size:10.00;">S2Sim/MatlabManager.h</text>
</a>
</g>
<!-- Node4&#45;&gt;Node5 -->
<g id="edge10" class="edge"><title>Node4&#45;&gt;Node5</title>
<path style="fill:none;stroke:midnightblue;" d="M215,-108C223,-98 233,-87 242,-79"/>
<polygon style="fill:midnightblue;stroke:midnightblue;" points="212.2,-105.9 209,-116 217.8,-110.1 212.2,-105.9"/>
</g>
<!-- Node4&#45;&gt;Node6 -->
<g id="edge28" class="edge"><title>Node4&#45;&gt;Node6</title>
<path style="fill:none;stroke:midnightblue;" d="M261,-139C306,-149 367,-164 407,-174"/>
<polygon style="fill:midnightblue;stroke:midnightblue;" points="261.492,-135.529 251,-137 260.119,-142.393 261.492,-135.529"/>
</g>
<!-- Node4&#45;&gt;Node8 -->
<g id="edge32" class="edge"><title>Node4&#45;&gt;Node8</title>
<path style="fill:none;stroke:midnightblue;" d="M252,-113C278,-105 311,-93 339,-80 375,-63 413,-36 433,-21"/>
<polygon style="fill:midnightblue;stroke:midnightblue;" points="250.573,-109.774 242,-116 252.584,-116.479 250.573,-109.774"/>
</g>
<!-- Node10 -->
<g id="node27" class="node"><title>Node10</title>
<a xlink:href="_system_manager_8cpp.html" target="_top" xlink:title="Implements the SystemManager class. ">
<polygon style="fill:white;stroke:black;" points="0,-58 0,-79 164,-79 164,-58 0,-58"/>
<text text-anchor="middle" x="82" y="-65" style="font-family:Arial;font-size:10.00;">S2Sim/SystemManager.cpp</text>
</a>
</g>
<!-- Node4&#45;&gt;Node10 -->
<g id="edge34" class="edge"><title>Node4&#45;&gt;Node10</title>
<path style="fill:none;stroke:midnightblue;" d="M172,-112C150,-101 122,-88 103,-79"/>
<polygon style="fill:midnightblue;stroke:midnightblue;" points="170.44,-115.137 181,-116 173.283,-108.74 170.44,-115.137"/>
</g>
<!-- Node5&#45;&gt;Node2 -->
<g id="edge12" class="edge"><title>Node5&#45;&gt;Node2</title>
<path style="fill:none;stroke:midnightblue;" d="M172,-82C137,-91 108,-109 120,-138 142,-188 202,-218 241,-232"/>
<polygon style="fill:midnightblue;stroke:midnightblue;" points="173.427,-85.2259 182,-79 171.416,-78.5212 173.427,-85.2259"/>
</g>
<!-- Node5&#45;&gt;Node4 -->
<g id="edge14" class="edge"><title>Node5&#45;&gt;Node4</title>
<path style="fill:none;stroke:midnightblue;" d="M246,-87C238,-96 227,-108 219,-116"/>
<polygon style="fill:midnightblue;stroke:midnightblue;" points="248.8,-89.1 252,-79 243.2,-84.9 248.8,-89.1"/>
</g>
<!-- Node5&#45;&gt;Node6 -->
<g id="edge16" class="edge"><title>Node5&#45;&gt;Node6</title>
<path style="fill:none;stroke:midnightblue;" d="M270,-87C284,-102 304,-124 326,-138 351,-154 383,-166 408,-174"/>
<polygon style="fill:midnightblue;stroke:midnightblue;" points="272.8,-84.9 264,-79 267.2,-89.1 272.8,-84.9"/>
</g>
<!-- Node5&#45;&gt;Node8 -->
<g id="edge24" class="edge"><title>Node5&#45;&gt;Node8</title>
<path style="fill:none;stroke:midnightblue;" d="M302,-55C336,-44 383,-30 414,-21"/>
<polygon style="fill:midnightblue;stroke:midnightblue;" points="300.573,-51.7741 292,-58 302.584,-58.4788 300.573,-51.7741"/>
</g>
<!-- Node9 -->
<g id="node22" class="node"><title>Node9</title>
<a xlink:href="_matlab_manager_8cpp.html" target="_top" xlink:title="Implements the MatlabManager class. ">
<polygon style="fill:white;stroke:black;" points="176,-0 176,-21 337,-21 337,-0 176,-0"/>
<text text-anchor="middle" x="256" y="-7" style="font-family:Arial;font-size:10.00;">S2Sim/MatlabManager.cpp</text>
</a>
</g>
<!-- Node5&#45;&gt;Node9 -->
<g id="edge26" class="edge"><title>Node5&#45;&gt;Node9</title>
<path style="fill:none;stroke:midnightblue;" d="M256,-48C256,-38 256,-28 256,-21"/>
<polygon style="fill:midnightblue;stroke:midnightblue;" points="252.5,-48 256,-58 259.5,-48 252.5,-48"/>
</g>
<!-- Node6&#45;&gt;Node4 -->
<g id="edge18" class="edge"><title>Node6&#45;&gt;Node4</title>
<path style="fill:none;stroke:midnightblue;" d="M386,-172C340,-161 279,-146 241,-137"/>
<polygon style="fill:midnightblue;stroke:midnightblue;" points="385.508,-175.471 396,-174 386.881,-168.607 385.508,-175.471"/>
</g>
<!-- Node7 -->
<g id="node17" class="node"><title>Node7</title>
<a xlink:href="_control_manager_8cpp.html" target="_top" xlink:title="This file implements the ControlManager class. ">
<polygon style="fill:white;stroke:black;" points="335,-116 335,-137 499,-137 499,-116 335,-116"/>
<text text-anchor="middle" x="417" y="-123" style="font-family:Arial;font-size:10.00;">S2Sim/ControlManager.cpp</text>
</a>
</g>
<!-- Node6&#45;&gt;Node7 -->
<g id="edge20" class="edge"><title>Node6&#45;&gt;Node7</title>
<path style="fill:none;stroke:midnightblue;" d="M437,-165C432,-155 427,-145 422,-137"/>
<polygon style="fill:midnightblue;stroke:midnightblue;" points="434.084,-166.958 442,-174 440.203,-163.559 434.084,-166.958"/>
</g>
<!-- Node6&#45;&gt;Node8 -->
<g id="edge22" class="edge"><title>Node6&#45;&gt;Node8</title>
<path style="fill:none;stroke:midnightblue;" d="M480,-168C490,-161 502,-151 508,-138 512,-129 510,-125 508,-116 497,-77 469,-39 455,-21"/>
<polygon style="fill:midnightblue;stroke:midnightblue;" points="477.379,-165.541 471,-174 481.262,-171.365 477.379,-165.541"/>
</g>
</g>
</svg>
