<?xml version="1.0" encoding="UTF-8" standalone="no"?>
<!DOCTYPE svg PUBLIC "-//W3C//DTD SVG 1.0//EN"
 "http://www.w3.org/TR/2001/REC-SVG-20010904/DTD/svg10.dtd" [
 <!ATTLIST svg xmlns:xlink CDATA #FIXED "http://www.w3.org/1999/xlink">
]>
<!-- Generated by Graphviz version 2.14.1 (Fri Nov  9 08:19:38 GMT 2007)
     For user: (asakyurek) Alper Sinan Akyurek -->
<!-- Title: S2Sim/ControlManager.h Pages: 1 -->
<svg width="679pt" height="320pt"
 viewBox="0.00 0.00 679.00 320.00" xmlns="http://www.w3.org/2000/svg" xmlns:xlink="http://www.w3.org/1999/xlink">
<g id="graph0" class="graph" transform="scale(1 1) rotate(0) translate(4 316)">
<title>S2Sim/ControlManager.h</title>
<polygon style="fill:white;stroke:white;" points="-4,4 -4,-316 675,-316 675,4 -4,4"/>
<!-- Node1 -->
<g id="node1" class="node"><title>Node1</title>
<polygon style="fill:#bfbfbf;stroke:black;" points="296,-290 296,-311 447,-311 447,-290 296,-290"/>
<text text-anchor="middle" x="371" y="-297" style="font-family:Arial;font-size:10.00;">S2Sim/ControlManager.h</text>
</g>
<!-- Node2 -->
<g id="node3" class="node"><title>Node2</title>
<a xlink:href="_system_manager_8h.html" target="_top" xlink:title="S2Sim/SystemManager.h">
<polygon style="fill:white;stroke:black;" points="193,-232 193,-253 344,-253 344,-232 193,-232"/>
<text text-anchor="middle" x="268" y="-239" style="font-family:Arial;font-size:10.00;">S2Sim/SystemManager.h</text>
</a>
</g>
<!-- Node1&#45;&gt;Node2 -->
<g id="edge2" class="edge"><title>Node1&#45;&gt;Node2</title>
<path style="fill:none;stroke:midnightblue;" d="M337,-285C318,-275 295,-262 281,-253"/>
<polygon style="fill:midnightblue;stroke:midnightblue;" points="335.559,-288.203 346,-290 338.958,-282.084 335.559,-288.203"/>
</g>
<!-- Node8 -->
<g id="node17" class="node"><title>Node8</title>
<a xlink:href="main_8cpp.html" target="_top" xlink:title="S2Sim/main.cpp">
<polygon style="fill:white;stroke:black;" points="363,-0 363,-21 467,-21 467,-0 363,-0"/>
<text text-anchor="middle" x="415" y="-7" style="font-family:Arial;font-size:10.00;">S2Sim/main.cpp</text>
</a>
</g>
<!-- Node1&#45;&gt;Node8 -->
<g id="edge40" class="edge"><title>Node1&#45;&gt;Node8</title>
<path style="fill:none;stroke:midnightblue;" d="M402,-285C434,-266 479,-231 479,-185 479,-185 479,-185 479,-127 479,-83 443,-40 425,-21"/>
<polygon style="fill:midnightblue;stroke:midnightblue;" points="400.042,-282.084 393,-290 403.441,-288.203 400.042,-282.084"/>
</g>
<!-- Node11 -->
<g id="node30" class="node"><title>Node11</title>
<a xlink:href="_control_manager_8cpp.html" target="_top" xlink:title="S2Sim/ControlManager.cpp">
<polygon style="fill:white;stroke:black;" points="507,-232 507,-253 671,-253 671,-232 507,-232"/>
<text text-anchor="middle" x="589" y="-239" style="font-family:Arial;font-size:10.00;">S2Sim/ControlManager.cpp</text>
</a>
</g>
<!-- Node1&#45;&gt;Node11 -->
<g id="edge38" class="edge"><title>Node1&#45;&gt;Node11</title>
<path style="fill:none;stroke:midnightblue;" d="M423,-287C462,-277 516,-262 551,-253"/>
<polygon style="fill:midnightblue;stroke:midnightblue;" points="421.573,-283.774 413,-290 423.584,-290.479 421.573,-283.774"/>
</g>
<!-- Node2&#45;&gt;Node1 -->
<g id="edge32" class="edge"><title>Node2&#45;&gt;Node1</title>
<path style="fill:none;stroke:midnightblue;" d="M300,-258C319,-268 342,-281 357,-290"/>
<polygon style="fill:midnightblue;stroke:midnightblue;" points="301.441,-254.797 291,-253 298.042,-260.916 301.441,-254.797"/>
</g>
<!-- Node3 -->
<g id="node5" class="node"><title>Node3</title>
<a xlink:href="_matlab_manager_8h.html" target="_top" xlink:title="S2Sim/MatlabManager.h">
<polygon style="fill:white;stroke:black;" points="265,-174 265,-195 413,-195 413,-174 265,-174"/>
<text text-anchor="middle" x="339" y="-181" style="font-family:Arial;font-size:10.00;">S2Sim/MatlabManager.h</text>
</a>
</g>
<!-- Node2&#45;&gt;Node3 -->
<g id="edge4" class="edge"><title>Node2&#45;&gt;Node3</title>
<path style="fill:none;stroke:midnightblue;" d="M283,-225C295,-215 310,-203 322,-195"/>
<polygon style="fill:midnightblue;stroke:midnightblue;" points="280.596,-222.454 276,-232 285.546,-227.404 280.596,-222.454"/>
</g>
<!-- Node4 -->
<g id="node7" class="node"><title>Node4</title>
<a xlink:href="_client_manager_8h.html" target="_top" xlink:title="S2Sim/ClientManager.h">
<polygon style="fill:white;stroke:black;" points="55,-116 55,-137 198,-137 198,-116 55,-116"/>
<text text-anchor="middle" x="126" y="-123" style="font-family:Arial;font-size:10.00;">S2Sim/ClientManager.h</text>
</a>
</g>
<!-- Node2&#45;&gt;Node4 -->
<g id="edge34" class="edge"><title>Node2&#45;&gt;Node4</title>
<path style="fill:none;stroke:midnightblue;" d="M245,-225C230,-210 210,-189 191,-174 173,-159 151,-146 137,-137"/>
<polygon style="fill:midnightblue;stroke:midnightblue;" points="242.454,-227.404 252,-232 247.404,-222.454 242.454,-227.404"/>
</g>
<!-- Node10 -->
<g id="node28" class="node"><title>Node10</title>
<a xlink:href="_system_manager_8cpp.html" target="_top" xlink:title="S2Sim/SystemManager.cpp">
<polygon style="fill:white;stroke:black;" points="27,-174 27,-195 191,-195 191,-174 27,-174"/>
<text text-anchor="middle" x="109" y="-181" style="font-family:Arial;font-size:10.00;">S2Sim/SystemManager.cpp</text>
</a>
</g>
<!-- Node2&#45;&gt;Node10 -->
<g id="edge36" class="edge"><title>Node2&#45;&gt;Node10</title>
<path style="fill:none;stroke:midnightblue;" d="M228,-228C200,-218 162,-204 137,-195"/>
<polygon style="fill:midnightblue;stroke:midnightblue;" points="227.415,-231.536 238,-232 230.015,-225.036 227.415,-231.536"/>
</g>
<!-- Node3&#45;&gt;Node1 -->
<g id="edge26" class="edge"><title>Node3&#45;&gt;Node1</title>
<path style="fill:none;stroke:midnightblue;" d="M344,-205C346,-213 349,-223 352,-232 357,-252 364,-276 368,-290"/>
<polygon style="fill:midnightblue;stroke:midnightblue;" points="347.393,-204.119 342,-195 340.529,-205.492 347.393,-204.119"/>
</g>
<!-- Node3&#45;&gt;Node2 -->
<g id="edge24" class="edge"><title>Node3&#45;&gt;Node2</title>
<path style="fill:none;stroke:midnightblue;" d="M324,-202C313,-211 299,-223 287,-232"/>
<polygon style="fill:midnightblue;stroke:midnightblue;" points="326.779,-204.219 332,-195 322.169,-198.951 326.779,-204.219"/>
</g>
<!-- Node3&#45;&gt;Node4 -->
<g id="edge6" class="edge"><title>Node3&#45;&gt;Node4</title>
<path style="fill:none;stroke:midnightblue;" d="M288,-171C250,-160 198,-146 163,-137"/>
<polygon style="fill:midnightblue;stroke:midnightblue;" points="287.416,-174.479 298,-174 289.427,-167.774 287.416,-174.479"/>
</g>
<!-- Node3&#45;&gt;Node8 -->
<g id="edge28" class="edge"><title>Node3&#45;&gt;Node8</title>
<path style="fill:none;stroke:midnightblue;" d="M360,-167C369,-159 378,-149 384,-138 405,-98 412,-44 414,-21"/>
<polygon style="fill:midnightblue;stroke:midnightblue;" points="357.596,-164.454 353,-174 362.546,-169.404 357.596,-164.454"/>
</g>
<!-- Node9 -->
<g id="node24" class="node"><title>Node9</title>
<a xlink:href="_matlab_manager_8cpp.html" target="_top" xlink:title="S2Sim/MatlabManager.cpp">
<polygon style="fill:white;stroke:black;" points="215,-116 215,-137 376,-137 376,-116 215,-116"/>
<text text-anchor="middle" x="295" y="-123" style="font-family:Arial;font-size:10.00;">S2Sim/MatlabManager.cpp</text>
</a>
</g>
<!-- Node3&#45;&gt;Node9 -->
<g id="edge30" class="edge"><title>Node3&#45;&gt;Node9</title>
<path style="fill:none;stroke:midnightblue;" d="M325,-166C318,-156 309,-145 303,-137"/>
<polygon style="fill:midnightblue;stroke:midnightblue;" points="322.2,-168.1 331,-174 327.8,-163.9 322.2,-168.1"/>
</g>
<!-- Node4&#45;&gt;Node1 -->
<g id="edge22" class="edge"><title>Node4&#45;&gt;Node1</title>
<path style="fill:none;stroke:midnightblue;" d="M71,-140C36,-151 0,-169 18,-196 51,-241 205,-274 299,-290"/>
<polygon style="fill:midnightblue;stroke:midnightblue;" points="72.4275,-143.226 81,-137 70.416,-136.521 72.4275,-143.226"/>
</g>
<!-- Node4&#45;&gt;Node2 -->
<g id="edge20" class="edge"><title>Node4&#45;&gt;Node2</title>
<path style="fill:none;stroke:midnightblue;" d="M161,-142C176,-151 194,-162 209,-174 231,-192 255,-218 265,-232"/>
<polygon style="fill:midnightblue;stroke:midnightblue;" points="162.441,-138.797 152,-137 159.042,-144.916 162.441,-138.797"/>
</g>
<!-- Node5 -->
<g id="node9" class="node"><title>Node5</title>
<a xlink:href="_client_manager_8cpp.html" target="_top" xlink:title="S2Sim/ClientManager.cpp">
<polygon style="fill:white;stroke:black;" points="3,-58 3,-79 159,-79 159,-58 3,-58"/>
<text text-anchor="middle" x="81" y="-65" style="font-family:Arial;font-size:10.00;">S2Sim/ClientManager.cpp</text>
</a>
</g>
<!-- Node4&#45;&gt;Node5 -->
<g id="edge8" class="edge"><title>Node4&#45;&gt;Node5</title>
<path style="fill:none;stroke:midnightblue;" d="M111,-108C104,-98 95,-87 89,-79"/>
<polygon style="fill:midnightblue;stroke:midnightblue;" points="108.2,-110.1 117,-116 113.8,-105.9 108.2,-110.1"/>
</g>
<!-- Node6 -->
<g id="node11" class="node"><title>Node6</title>
<a xlink:href="_connection_manager_8h.html" target="_top" xlink:title="S2Sim/ConnectionManager.h">
<polygon style="fill:white;stroke:black;" points="177,-58 177,-79 351,-79 351,-58 177,-58"/>
<text text-anchor="middle" x="264" y="-65" style="font-family:Arial;font-size:10.00;">S2Sim/ConnectionManager.h</text>
</a>
</g>
<!-- Node4&#45;&gt;Node6 -->
<g id="edge10" class="edge"><title>Node4&#45;&gt;Node6</title>
<path style="fill:none;stroke:midnightblue;" d="M156,-112C180,-101 212,-88 235,-79"/>
<polygon style="fill:midnightblue;stroke:midnightblue;" points="154.717,-108.74 147,-116 157.56,-115.137 154.717,-108.74"/>
</g>
<!-- Node6&#45;&gt;Node1 -->
<g id="edge14" class="edge"><title>Node6&#45;&gt;Node1</title>
<path style="fill:none;stroke:midnightblue;" d="M319,-82C341,-89 365,-100 384,-116 407,-135 413,-144 422,-174 435,-218 399,-268 381,-290"/>
<polygon style="fill:midnightblue;stroke:midnightblue;" points="319.584,-78.5212 309,-79 317.573,-85.2259 319.584,-78.5212"/>
</g>
<!-- Node6&#45;&gt;Node4 -->
<g id="edge12" class="edge"><title>Node6&#45;&gt;Node4</title>
<path style="fill:none;stroke:midnightblue;" d="M236,-83C213,-93 182,-106 158,-116"/>
<polygon style="fill:midnightblue;stroke:midnightblue;" points="237.283,-86.2598 245,-79 234.44,-79.8631 237.283,-86.2598"/>
</g>
<!-- Node7 -->
<g id="node15" class="node"><title>Node7</title>
<a xlink:href="_connection_manager_8cpp.html" target="_top" xlink:title="S2Sim/ConnectionManager.cpp">
<polygon style="fill:white;stroke:black;" points="159,-0 159,-21 346,-21 346,-0 159,-0"/>
<text text-anchor="middle" x="252" y="-7" style="font-family:Arial;font-size:10.00;">S2Sim/ConnectionManager.cpp</text>
</a>
</g>
<!-- Node6&#45;&gt;Node7 -->
<g id="edge16" class="edge"><title>Node6&#45;&gt;Node7</title>
<path style="fill:none;stroke:midnightblue;" d="M260,-48C257,-39 255,-28 254,-21"/>
<polygon style="fill:midnightblue;stroke:midnightblue;" points="256.607,-48.8806 262,-58 263.471,-47.5078 256.607,-48.8806"/>
</g>
<!-- Node6&#45;&gt;Node8 -->
<g id="edge18" class="edge"><title>Node6&#45;&gt;Node8</title>
<path style="fill:none;stroke:midnightblue;" d="M303,-54C330,-44 365,-30 389,-21"/>
<polygon style="fill:midnightblue;stroke:midnightblue;" points="300.985,-51.0364 293,-58 303.585,-57.5357 300.985,-51.0364"/>
</g>
</g>
</svg>
