<?xml version="1.0" encoding="UTF-8" standalone="no"?>
<!DOCTYPE svg PUBLIC "-//W3C//DTD SVG 1.0//EN"
 "http://www.w3.org/TR/2001/REC-SVG-20010904/DTD/svg10.dtd" [
 <!ATTLIST svg xmlns:xlink CDATA #FIXED "http://www.w3.org/1999/xlink">
]>
<!-- Generated by Graphviz version 2.14.1 (Fri Nov  9 08:19:38 GMT 2007)
     For user: (asakyurek) Alper Sinan Akyurek -->
<!-- Title: S2Sim/ControlManager.h Pages: 1 -->
<svg width="740pt" height="320pt"
 viewBox="0.00 0.00 740.00 320.00" xmlns="http://www.w3.org/2000/svg" xmlns:xlink="http://www.w3.org/1999/xlink">
<g id="graph0" class="graph" transform="scale(1 1) rotate(0) translate(4 316)">
<title>S2Sim/ControlManager.h</title>
<polygon style="fill:white;stroke:white;" points="-4,4 -4,-316 736,-316 736,4 -4,4"/>
<!-- Node1 -->
<g id="node1" class="node"><title>Node1</title>
<polygon style="fill:#bfbfbf;stroke:black;" points="247,-290 247,-311 398,-311 398,-290 247,-290"/>
<text text-anchor="middle" x="322" y="-297" style="font-family:Arial;font-size:10.00;">S2Sim/ControlManager.h</text>
</g>
<!-- Node2 -->
<g id="node3" class="node"><title>Node2</title>
<a xlink:href="_system_manager_8h.html" target="_top" xlink:title="Defines the SystemManager class. ">
<polygon style="fill:white;stroke:black;" points="247,-232 247,-253 398,-253 398,-232 247,-232"/>
<text text-anchor="middle" x="322" y="-239" style="font-family:Arial;font-size:10.00;">S2Sim/SystemManager.h</text>
</a>
</g>
<!-- Node1&#45;&gt;Node2 -->
<g id="edge2" class="edge"><title>Node1&#45;&gt;Node2</title>
<path style="fill:none;stroke:midnightblue;" d="M316,-280C315,-270 316,-260 317,-253"/>
<polygon style="fill:midnightblue;stroke:midnightblue;" points="312.522,-280.398 317,-290 319.488,-279.701 312.522,-280.398"/>
</g>
<!-- Node8 -->
<g id="node17" class="node"><title>Node8</title>
<a xlink:href="main_8cpp.html" target="_top" xlink:title="Main file that starts an infinite running loop on the SystemManager::AdvanceTimeStep method...">
<polygon style="fill:white;stroke:black;" points="93,-0 93,-21 197,-21 197,-0 93,-0"/>
<text text-anchor="middle" x="145" y="-7" style="font-family:Arial;font-size:10.00;">S2Sim/main.cpp</text>
</a>
</g>
<!-- Node1&#45;&gt;Node8 -->
<g id="edge42" class="edge"><title>Node1&#45;&gt;Node8</title>
<path style="fill:none;stroke:midnightblue;" d="M241,-288C146,-271 0,-236 0,-185 0,-185 0,-185 0,-127 0,-70 69,-36 112,-21"/>
<polygon style="fill:midnightblue;stroke:midnightblue;" points="240.508,-291.471 251,-290 241.881,-284.607 240.508,-291.471"/>
</g>
<!-- Node11 -->
<g id="node31" class="node"><title>Node11</title>
<a xlink:href="_control_manager_8cpp.html" target="_top" xlink:title="This file implements the ControlManager class. ">
<polygon style="fill:white;stroke:black;" points="568,-232 568,-253 732,-253 732,-232 568,-232"/>
<text text-anchor="middle" x="650" y="-239" style="font-family:Arial;font-size:10.00;">S2Sim/ControlManager.cpp</text>
</a>
</g>
<!-- Node1&#45;&gt;Node11 -->
<g id="edge40" class="edge"><title>Node1&#45;&gt;Node11</title>
<path style="fill:none;stroke:midnightblue;" d="M394,-288C454,-277 538,-262 593,-253"/>
<polygon style="fill:midnightblue;stroke:midnightblue;" points="393.119,-284.607 384,-290 394.492,-291.471 393.119,-284.607"/>
</g>
<!-- Node2&#45;&gt;Node1 -->
<g id="edge32" class="edge"><title>Node2&#45;&gt;Node1</title>
<path style="fill:none;stroke:midnightblue;" d="M328,-263C329,-272 328,-282 327,-290"/>
<polygon style="fill:midnightblue;stroke:midnightblue;" points="331.478,-262.602 327,-253 324.512,-263.299 331.478,-262.602"/>
</g>
<!-- Node3 -->
<g id="node5" class="node"><title>Node3</title>
<a xlink:href="_matlab_manager_8h.html" target="_top" xlink:title="Defines the MatlabManager class. ">
<polygon style="fill:white;stroke:black;" points="74,-174 74,-195 222,-195 222,-174 74,-174"/>
<text text-anchor="middle" x="148" y="-181" style="font-family:Arial;font-size:10.00;">S2Sim/MatlabManager.h</text>
</a>
</g>
<!-- Node2&#45;&gt;Node3 -->
<g id="edge4" class="edge"><title>Node2&#45;&gt;Node3</title>
<path style="fill:none;stroke:midnightblue;" d="M273,-229C240,-218 199,-204 173,-195"/>
<polygon style="fill:midnightblue;stroke:midnightblue;" points="272.416,-232.479 283,-232 274.427,-225.774 272.416,-232.479"/>
</g>
<!-- Node4 -->
<g id="node7" class="node"><title>Node4</title>
<a xlink:href="_client_manager_8h.html" target="_top" xlink:title="Header file for the ClientManager class. ">
<polygon style="fill:white;stroke:black;" points="370,-116 370,-137 513,-137 513,-116 370,-116"/>
<text text-anchor="middle" x="441" y="-123" style="font-family:Arial;font-size:10.00;">S2Sim/ClientManager.h</text>
</a>
</g>
<!-- Node2&#45;&gt;Node4 -->
<g id="edge34" class="edge"><title>Node2&#45;&gt;Node4</title>
<path style="fill:none;stroke:midnightblue;" d="M357,-228C373,-220 391,-210 404,-196 419,-179 427,-152 433,-137"/>
<polygon style="fill:midnightblue;stroke:midnightblue;" points="355.717,-224.74 348,-232 358.56,-231.137 355.717,-224.74"/>
</g>
<!-- Node2&#45;&gt;Node8 -->
<g id="edge36" class="edge"><title>Node2&#45;&gt;Node8</title>
<path style="fill:none;stroke:midnightblue;" d="M237,-238C171,-232 89,-220 65,-196 41,-170 45,-149 57,-116 72,-74 111,-38 132,-21"/>
<polygon style="fill:midnightblue;stroke:midnightblue;" points="236.701,-241.488 247,-239 237.398,-234.522 236.701,-241.488"/>
</g>
<!-- Node10 -->
<g id="node29" class="node"><title>Node10</title>
<a xlink:href="_system_manager_8cpp.html" target="_top" xlink:title="Implements the SystemManager class. ">
<polygon style="fill:white;stroke:black;" points="240,-174 240,-195 404,-195 404,-174 240,-174"/>
<text text-anchor="middle" x="322" y="-181" style="font-family:Arial;font-size:10.00;">S2Sim/SystemManager.cpp</text>
</a>
</g>
<!-- Node2&#45;&gt;Node10 -->
<g id="edge38" class="edge"><title>Node2&#45;&gt;Node10</title>
<path style="fill:none;stroke:midnightblue;" d="M322,-222C322,-212 322,-202 322,-195"/>
<polygon style="fill:midnightblue;stroke:midnightblue;" points="318.5,-222 322,-232 325.5,-222 318.5,-222"/>
</g>
<!-- Node3&#45;&gt;Node1 -->
<g id="edge26" class="edge"><title>Node3&#45;&gt;Node1</title>
<path style="fill:none;stroke:midnightblue;" d="M168,-202C186,-216 212,-238 238,-254 258,-267 283,-281 300,-290"/>
<polygon style="fill:midnightblue;stroke:midnightblue;" points="169.831,-198.951 160,-195 165.221,-204.219 169.831,-198.951"/>
</g>
<!-- Node3&#45;&gt;Node2 -->
<g id="edge24" class="edge"><title>Node3&#45;&gt;Node2</title>
<path style="fill:none;stroke:midnightblue;" d="M193,-198C225,-208 267,-222 294,-232"/>
<polygon style="fill:midnightblue;stroke:midnightblue;" points="193.584,-194.521 183,-195 191.573,-201.226 193.584,-194.521"/>
</g>
<!-- Node3&#45;&gt;Node4 -->
<g id="edge6" class="edge"><title>Node3&#45;&gt;Node4</title>
<path style="fill:none;stroke:midnightblue;" d="M214,-172C268,-161 341,-146 390,-137"/>
<polygon style="fill:midnightblue;stroke:midnightblue;" points="213.119,-168.607 204,-174 214.492,-175.471 213.119,-168.607"/>
</g>
<!-- Node3&#45;&gt;Node8 -->
<g id="edge28" class="edge"><title>Node3&#45;&gt;Node8</title>
<path style="fill:none;stroke:midnightblue;" d="M195,-170C211,-163 226,-152 235,-138 240,-129 238,-125 235,-116 219,-74 179,-38 158,-21"/>
<polygon style="fill:midnightblue;stroke:midnightblue;" points="193.717,-166.74 186,-174 196.56,-173.137 193.717,-166.74"/>
</g>
<!-- Node9 -->
<g id="node24" class="node"><title>Node9</title>
<a xlink:href="_matlab_manager_8cpp.html" target="_top" xlink:title="Implements the MatlabManager class. ">
<polygon style="fill:white;stroke:black;" points="66,-116 66,-137 227,-137 227,-116 66,-116"/>
<text text-anchor="middle" x="146" y="-123" style="font-family:Arial;font-size:10.00;">S2Sim/MatlabManager.cpp</text>
</a>
</g>
<!-- Node3&#45;&gt;Node9 -->
<g id="edge30" class="edge"><title>Node3&#45;&gt;Node9</title>
<path style="fill:none;stroke:midnightblue;" d="M147,-164C147,-154 147,-144 146,-137"/>
<polygon style="fill:midnightblue;stroke:midnightblue;" points="143.522,-164.398 148,-174 150.488,-163.701 143.522,-164.398"/>
</g>
<!-- Node4&#45;&gt;Node1 -->
<g id="edge22" class="edge"><title>Node4&#45;&gt;Node1</title>
<path style="fill:none;stroke:midnightblue;" d="M443,-147C444,-161 444,-180 440,-196 431,-224 427,-233 406,-254 390,-269 367,-282 349,-290"/>
<polygon style="fill:midnightblue;stroke:midnightblue;" points="446.478,-146.602 442,-137 439.512,-147.299 446.478,-146.602"/>
</g>
<!-- Node4&#45;&gt;Node2 -->
<g id="edge20" class="edge"><title>Node4&#45;&gt;Node2</title>
<path style="fill:none;stroke:midnightblue;" d="M444,-147C442,-162 434,-182 422,-196 407,-213 384,-224 364,-232"/>
<polygon style="fill:midnightblue;stroke:midnightblue;" points="447.488,-147.299 445,-137 440.522,-146.602 447.488,-147.299"/>
</g>
<!-- Node5 -->
<g id="node9" class="node"><title>Node5</title>
<a xlink:href="_client_manager_8cpp.html" target="_top" xlink:title="Source file for the ClientManager class. ">
<polygon style="fill:white;stroke:black;" points="280,-58 280,-79 436,-79 436,-58 280,-58"/>
<text text-anchor="middle" x="358" y="-65" style="font-family:Arial;font-size:10.00;">S2Sim/ClientManager.cpp</text>
</a>
</g>
<!-- Node4&#45;&gt;Node5 -->
<g id="edge8" class="edge"><title>Node4&#45;&gt;Node5</title>
<path style="fill:none;stroke:midnightblue;" d="M417,-110C402,-100 384,-87 372,-79"/>
<polygon style="fill:midnightblue;stroke:midnightblue;" points="414.9,-112.8 425,-116 419.1,-107.2 414.9,-112.8"/>
</g>
<!-- Node6 -->
<g id="node11" class="node"><title>Node6</title>
<a xlink:href="_connection_manager_8h.html" target="_top" xlink:title="This file defines the ConnectionManager class. ">
<polygon style="fill:white;stroke:black;" points="454,-58 454,-79 628,-79 628,-58 454,-58"/>
<text text-anchor="middle" x="541" y="-65" style="font-family:Arial;font-size:10.00;">S2Sim/ConnectionManager.h</text>
</a>
</g>
<!-- Node4&#45;&gt;Node6 -->
<g id="edge10" class="edge"><title>Node4&#45;&gt;Node6</title>
<path style="fill:none;stroke:midnightblue;" d="M464,-110C480,-100 502,-87 519,-79"/>
<polygon style="fill:midnightblue;stroke:midnightblue;" points="461.379,-107.541 455,-116 465.262,-113.365 461.379,-107.541"/>
</g>
<!-- Node6&#45;&gt;Node1 -->
<g id="edge14" class="edge"><title>Node6&#45;&gt;Node1</title>
<path style="fill:none;stroke:midnightblue;" d="M537,-89C534,-103 529,-122 521,-138 489,-196 478,-213 426,-254 405,-270 377,-282 356,-290"/>
<polygon style="fill:midnightblue;stroke:midnightblue;" points="540.471,-89.4922 539,-79 533.607,-88.1194 540.471,-89.4922"/>
</g>
<!-- Node6&#45;&gt;Node4 -->
<g id="edge12" class="edge"><title>Node6&#45;&gt;Node4</title>
<path style="fill:none;stroke:midnightblue;" d="M520,-84C504,-94 482,-107 465,-116"/>
<polygon style="fill:midnightblue;stroke:midnightblue;" points="521.958,-86.916 529,-79 518.559,-80.7969 521.958,-86.916"/>
</g>
<!-- Node7 -->
<g id="node15" class="node"><title>Node7</title>
<a xlink:href="_connection_manager_8cpp.html" target="_top" xlink:title="This file implements the ConnectionManager class. ">
<polygon style="fill:white;stroke:black;" points="448,-0 448,-21 635,-21 635,-0 448,-0"/>
<text text-anchor="middle" x="541" y="-7" style="font-family:Arial;font-size:10.00;">S2Sim/ConnectionManager.cpp</text>
</a>
</g>
<!-- Node6&#45;&gt;Node7 -->
<g id="edge16" class="edge"><title>Node6&#45;&gt;Node7</title>
<path style="fill:none;stroke:midnightblue;" d="M541,-48C541,-38 541,-28 541,-21"/>
<polygon style="fill:midnightblue;stroke:midnightblue;" points="537.5,-48 541,-58 544.5,-48 537.5,-48"/>
</g>
<!-- Node6&#45;&gt;Node8 -->
<g id="edge18" class="edge"><title>Node6&#45;&gt;Node8</title>
<path style="fill:none;stroke:midnightblue;" d="M456,-56C377,-45 263,-29 197,-19"/>
<polygon style="fill:midnightblue;stroke:midnightblue;" points="455.508,-59.4708 466,-58 456.881,-52.6067 455.508,-59.4708"/>
</g>
</g>
</svg>
