<?xml version="1.0" encoding="UTF-8" standalone="no"?>
<!DOCTYPE svg PUBLIC "-//W3C//DTD SVG 1.0//EN"
 "http://www.w3.org/TR/2001/REC-SVG-20010904/DTD/svg10.dtd" [
 <!ATTLIST svg xmlns:xlink CDATA #FIXED "http://www.w3.org/1999/xlink">
]>
<!-- Generated by Graphviz version 2.14.1 (Fri Nov  9 08:19:38 GMT 2007)
     For user: (asakyurek) Alper Sinan Akyurek -->
<!-- Title: GetConnectionManager Pages: 1 -->
<svg width="770pt" height="208pt"
 viewBox="0.00 0.00 770.00 208.00" xmlns="http://www.w3.org/2000/svg" xmlns:xlink="http://www.w3.org/1999/xlink">
<g id="graph0" class="graph" transform="scale(1 1) rotate(0) translate(4 204)">
<title>GetConnectionManager</title>
<polygon style="fill:white;stroke:white;" points="-4,4 -4,-204 766,-204 766,4 -4,4"/>
<!-- Node1 -->
<g id="node1" class="node"><title>Node1</title>
<polygon style="fill:#bfbfbf;stroke:black;" points="0,-75 0,-96 146,-96 146,-75 0,-75"/>
<text text-anchor="middle" x="73" y="-82" style="font-family:Arial;font-size:10.00;">GetConnectionManager</text>
</g>
<!-- Node2 -->
<g id="node3" class="node"><title>Node2</title>
<a xlink:href="class_client_manager.html#a4fa8fc5731587276f5e6be92563474fa" target="_top" xlink:title="Handles the broken connection case. ">
<polygon style="fill:white;stroke:black;" points="187,-166 187,-200 352,-200 352,-166 187,-166"/>
<text text-anchor="start" x="195" y="-186" style="font-family:Arial;font-size:10.00;">ClientManager::Connection</text>
<text text-anchor="middle" x="269" y="-173" style="font-family:Arial;font-size:10.00;">Broken</text>
</a>
</g>
<!-- Node1&#45;&gt;Node2 -->
<g id="edge2" class="edge"><title>Node1&#45;&gt;Node2</title>
<path style="fill:none;stroke:midnightblue;" d="M94,-102C115,-118 149,-141 182,-157 190,-160 198,-163 206,-166"/>
<polygon style="fill:midnightblue;stroke:midnightblue;" points="96.1,-99.2 86,-96 91.9,-104.8 96.1,-99.2"/>
</g>
<!-- Node3 -->
<g id="node5" class="node"><title>Node3</title>
<a xlink:href="class_client_manager.html#a6d544b4d20cd3b906b6a033c8d70e4a5" target="_top" xlink:title="Processes an asynchronous client connection request. ">
<polygon style="fill:white;stroke:black;" points="182,-114 182,-148 356,-148 356,-114 182,-114"/>
<text text-anchor="start" x="190" y="-134" style="font-family:Arial;font-size:10.00;">ClientManager::ProcessClient</text>
<text text-anchor="middle" x="269" y="-121" style="font-family:Arial;font-size:10.00;">ConnectionRequest</text>
</a>
</g>
<!-- Node1&#45;&gt;Node3 -->
<g id="edge4" class="edge"><title>Node1&#45;&gt;Node3</title>
<path style="fill:none;stroke:midnightblue;" d="M127,-98C148,-103 173,-109 196,-114"/>
<polygon style="fill:midnightblue;stroke:midnightblue;" points="127.492,-94.5292 117,-96 126.119,-101.393 127.492,-94.5292"/>
</g>
<!-- Node5 -->
<g id="node9" class="node"><title>Node5</title>
<a xlink:href="_connection_manager_8cpp.html#a510f5a0926d162b7f546fcf5b8f054e8" target="_top" xlink:title="ConnectionNotificationHandler">
<polygon style="fill:white;stroke:black;" points="400,-56 400,-77 585,-77 585,-56 400,-56"/>
<text text-anchor="middle" x="492" y="-63" style="font-family:Arial;font-size:10.00;">ConnectionNotificationHandler</text>
</a>
</g>
<!-- Node1&#45;&gt;Node5 -->
<g id="edge8" class="edge"><title>Node1&#45;&gt;Node5</title>
<path style="fill:none;stroke:midnightblue;" d="M156,-82C227,-79 328,-75 400,-71"/>
<polygon style="fill:midnightblue;stroke:midnightblue;" points="155.602,-78.5222 146,-83 156.299,-85.4875 155.602,-78.5222"/>
</g>
<!-- Node7 -->
<g id="node13" class="node"><title>Node7</title>
<a xlink:href="_connection_manager_8h.html#a2e30244a123626dc9199117c06d257ab" target="_top" xlink:title="Wrapper callback method for reception notification. ">
<polygon style="fill:white;stroke:black;" points="187,-37 187,-58 352,-58 352,-37 187,-37"/>
<text text-anchor="middle" x="269" y="-44" style="font-family:Arial;font-size:10.00;">ConnectionReceiveHandler</text>
</a>
</g>
<!-- Node1&#45;&gt;Node7 -->
<g id="edge12" class="edge"><title>Node1&#45;&gt;Node7</title>
<path style="fill:none;stroke:midnightblue;" d="M140,-73C166,-68 194,-62 218,-58"/>
<polygon style="fill:midnightblue;stroke:midnightblue;" points="139.119,-69.6067 130,-75 140.492,-76.4708 139.119,-69.6067"/>
</g>
<!-- Node8 -->
<g id="node16" class="node"><title>Node8</title>
<a xlink:href="main_8cpp.html#a3c04138a5bfe5d72780bb7e82a18e627" target="_top" xlink:title="main">
<polygon style="fill:white;stroke:black;" points="247,1 247,-20 291,-20 291,1 247,1"/>
<text text-anchor="middle" x="269" y="-6" style="font-family:Arial;font-size:10.00;">main</text>
</a>
</g>
<!-- Node1&#45;&gt;Node8 -->
<g id="edge16" class="edge"><title>Node1&#45;&gt;Node8</title>
<path style="fill:none;stroke:midnightblue;" d="M100,-70C121,-57 152,-40 182,-29 204,-21 229,-16 247,-13"/>
<polygon style="fill:midnightblue;stroke:midnightblue;" points="98.0418,-67.084 91,-75 101.441,-73.2031 98.0418,-67.084"/>
</g>
<!-- Node4 -->
<g id="node7" class="node"><title>Node4</title>
<a xlink:href="class_client_manager.html#abf05d2ac88337dfd02e0b7986ee1e18c" target="_top" xlink:title="Called when a message is received. ">
<polygon style="fill:white;stroke:black;" points="393,-120 393,-141 592,-141 592,-120 393,-120"/>
<text text-anchor="middle" x="492" y="-127" style="font-family:Arial;font-size:10.00;">ClientManager::MessageReceived</text>
</a>
</g>
<!-- Node3&#45;&gt;Node4 -->
<g id="edge6" class="edge"><title>Node3&#45;&gt;Node4</title>
<path style="fill:none;stroke:midnightblue;" d="M366,-131C375,-131 384,-131 393,-131"/>
<polygon style="fill:midnightblue;stroke:midnightblue;" points="366,-127.5 356,-131 366,-134.5 366,-127.5"/>
</g>
<!-- Node6 -->
<g id="node11" class="node"><title>Node6</title>
<a xlink:href="class_connection_manager.html#a7928f3e95b4e88b01c11eaf3e8089ee7" target="_top" xlink:title="ConnectionManager::\lConnectionManager">
<polygon style="fill:white;stroke:black;" points="629,-50 629,-84 762,-84 762,-50 629,-50"/>
<text text-anchor="start" x="637" y="-70" style="font-family:Arial;font-size:10.00;">ConnectionManager::</text>
<text text-anchor="middle" x="695" y="-57" style="font-family:Arial;font-size:10.00;">ConnectionManager</text>
</a>
</g>
<!-- Node5&#45;&gt;Node6 -->
<g id="edge10" class="edge"><title>Node5&#45;&gt;Node6</title>
<path style="fill:none;stroke:midnightblue;" d="M595,-67C607,-67 618,-67 629,-67"/>
<polygon style="fill:midnightblue;stroke:midnightblue;" points="595,-63.5001 585,-67 595,-70.5001 595,-63.5001"/>
</g>
<!-- Node7&#45;&gt;Node5 -->
<g id="edge14" class="edge"><title>Node7&#45;&gt;Node5</title>
<path style="fill:none;stroke:midnightblue;" d="M362,-56C375,-57 387,-58 400,-59"/>
<polygon style="fill:midnightblue;stroke:midnightblue;" points="362.299,-52.5125 352,-55 361.602,-59.4778 362.299,-52.5125"/>
</g>
</g>
</svg>
