<?xml version="1.0" encoding="UTF-8" standalone="no"?>
<!DOCTYPE svg PUBLIC "-//W3C//DTD SVG 1.0//EN"
 "http://www.w3.org/TR/2001/REC-SVG-20010904/DTD/svg10.dtd" [
 <!ATTLIST svg xmlns:xlink CDATA #FIXED "http://www.w3.org/1999/xlink">
]>
<!-- Generated by Graphviz version 2.14.1 (Fri Nov  9 08:19:38 GMT 2007)
     For user: (asakyurek) Alper Sinan Akyurek -->
<!-- Title: ControlReceiveHandler Pages: 1 -->
<svg width="522pt" height="142pt"
 viewBox="0.00 0.00 522.00 142.00" xmlns="http://www.w3.org/2000/svg" xmlns:xlink="http://www.w3.org/1999/xlink">
<g id="graph0" class="graph" transform="scale(1 1) rotate(0) translate(4 138)">
<title>ControlReceiveHandler</title>
<polygon style="fill:white;stroke:white;" points="-4,4 -4,-138 518,-138 518,4 -4,4"/>
<!-- Node1 -->
<g id="node1" class="node"><title>Node1</title>
<polygon style="fill:#bfbfbf;stroke:black;" points="0,-75 0,-96 142,-96 142,-75 0,-75"/>
<text text-anchor="middle" x="71" y="-82" style="font-family:Arial;font-size:10.00;">ControlReceiveHandler</text>
</g>
<!-- Node2 -->
<g id="node3" class="node"><title>Node2</title>
<a xlink:href="_log_print_8h.html#a7e0c5f42cad5bc3a44134fb9c9a7a052" target="_top" xlink:title="8 parameter log message ">
<polygon style="fill:white;stroke:black;" points="422,-113 422,-134 482,-134 482,-113 422,-113"/>
<text text-anchor="middle" x="452" y="-120" style="font-family:Arial;font-size:10.00;">LogPrint</text>
</a>
</g>
<!-- Node1&#45;&gt;Node2 -->
<g id="edge2" class="edge"><title>Node1&#45;&gt;Node2</title>
<path style="fill:none;stroke:midnightblue;" d="M122,-96C140,-99 160,-103 178,-105 261,-114 358,-120 412,-123"/>
<polygon style="fill:midnightblue;stroke:midnightblue;" points="412,-126.5 422,-123 412,-119.5 412,-126.5"/>
</g>
<!-- Node3 -->
<g id="node5" class="node"><title>Node3</title>
<a xlink:href="_control_manager_8cpp.html#a63bfd4667c9c70297f25ae5e5176818e" target="_top" xlink:title="Returns the only instance of ControlManager. ">
<polygon style="fill:white;stroke:black;" points="205,-75 205,-96 328,-96 328,-75 205,-75"/>
<text text-anchor="middle" x="266" y="-82" style="font-family:Arial;font-size:10.00;">GetControlManager</text>
</a>
</g>
<!-- Node1&#45;&gt;Node3 -->
<g id="edge4" class="edge"><title>Node1&#45;&gt;Node3</title>
<path style="fill:none;stroke:midnightblue;" d="M142,-86C159,-86 177,-86 195,-86"/>
<polygon style="fill:midnightblue;stroke:midnightblue;" points="195,-89.5001 205,-86 195,-82.5001 195,-89.5001"/>
</g>
<!-- Node4 -->
<g id="node7" class="node"><title>Node4</title>
<a xlink:href="class_control_manager.html#a2dc55da1b01fd175b3d885c68b8a7524" target="_top" xlink:title="Processes the received message from the External Controller. ">
<polygon style="fill:white;stroke:black;" points="178,-37 178,-58 354,-58 354,-37 178,-37"/>
<text text-anchor="middle" x="266" y="-44" style="font-family:Arial;font-size:10.00;">ControlManager::ProcessData</text>
</a>
</g>
<!-- Node1&#45;&gt;Node4 -->
<g id="edge6" class="edge"><title>Node1&#45;&gt;Node4</title>
<path style="fill:none;stroke:midnightblue;" d="M128,-75C152,-71 180,-65 205,-60"/>
<polygon style="fill:midnightblue;stroke:midnightblue;" points="205.881,-63.3933 215,-58 204.508,-56.5292 205.881,-63.3933"/>
</g>
<!-- Node4&#45;&gt;Node2 -->
<g id="edge10" class="edge"><title>Node4&#45;&gt;Node2</title>
<path style="fill:none;stroke:midnightblue;" d="M334,-58C341,-60 348,-63 354,-67 375,-78 371,-92 390,-105 397,-109 405,-112 412,-115"/>
<polygon style="fill:midnightblue;stroke:midnightblue;" points="411.416,-118.479 422,-118 413.427,-111.774 411.416,-118.479"/>
</g>
<!-- Node5 -->
<g id="node9" class="node"><title>Node5</title>
<a xlink:href="_log_print_8h.html#a46ea30a62534f8ce32cd39454e459b23" target="_top" xlink:title="6 parameter warning message ">
<polygon style="fill:white;stroke:black;" points="410,-75 410,-96 495,-96 495,-75 410,-75"/>
<text text-anchor="middle" x="452" y="-82" style="font-family:Arial;font-size:10.00;">WarningPrint</text>
</a>
</g>
<!-- Node4&#45;&gt;Node5 -->
<g id="edge8" class="edge"><title>Node4&#45;&gt;Node5</title>
<path style="fill:none;stroke:midnightblue;" d="M315,-58C341,-63 374,-69 400,-75"/>
<polygon style="fill:midnightblue;stroke:midnightblue;" points="399.508,-78.4708 410,-77 400.881,-71.6067 399.508,-78.4708"/>
</g>
<!-- Node6 -->
<g id="node12" class="node"><title>Node6</title>
<a xlink:href="_log_print_8h.html#af783a2ea2c57c5f51f905a24f3f5a835" target="_top" xlink:title="6 parameter error message ">
<polygon style="fill:white;stroke:black;" points="420,-37 420,-58 485,-58 485,-37 420,-37"/>
<text text-anchor="middle" x="452" y="-44" style="font-family:Arial;font-size:10.00;">ErrorPrint</text>
</a>
</g>
<!-- Node4&#45;&gt;Node6 -->
<g id="edge12" class="edge"><title>Node4&#45;&gt;Node6</title>
<path style="fill:none;stroke:midnightblue;" d="M354,-48C373,-48 393,-48 410,-48"/>
<polygon style="fill:midnightblue;stroke:midnightblue;" points="410,-51.5001 420,-48 410,-44.5001 410,-51.5001"/>
</g>
<!-- Node7 -->
<g id="node14" class="node"><title>Node7</title>
<a xlink:href="_system_manager_8cpp.html#a97e64f74d188d41051488578800d20cd" target="_top" xlink:title="Singleton function that returns the only instance of SystemManager. ">
<polygon style="fill:white;stroke:black;" points="391,1 391,-20 514,-20 514,1 391,1"/>
<text text-anchor="middle" x="452" y="-6" style="font-family:Arial;font-size:10.00;">GetSystemManager</text>
</a>
</g>
<!-- Node4&#45;&gt;Node7 -->
<g id="edge14" class="edge"><title>Node4&#45;&gt;Node7</title>
<path style="fill:none;stroke:midnightblue;" d="M320,-37C343,-33 370,-27 394,-22"/>
<polygon style="fill:midnightblue;stroke:midnightblue;" points="394.881,-25.3933 404,-20 393.508,-18.5292 394.881,-25.3933"/>
</g>
</g>
</svg>
