<?xml version="1.0" encoding="UTF-8" standalone="no"?>
<!DOCTYPE svg PUBLIC "-//W3C//DTD SVG 1.0//EN"
 "http://www.w3.org/TR/2001/REC-SVG-20010904/DTD/svg10.dtd" [
 <!ATTLIST svg xmlns:xlink CDATA #FIXED "http://www.w3.org/1999/xlink">
]>
<!-- Generated by Graphviz version 2.14.1 (Fri Nov  9 08:19:38 GMT 2007)
     For user: (asakyurek) Alper Sinan Akyurek -->
<!-- Title: S2Sim/ControlManager.cpp Pages: 1 -->
<svg width="1697pt" height="610pt"
 viewBox="0.00 0.00 1697.00 610.00" xmlns="http://www.w3.org/2000/svg" xmlns:xlink="http://www.w3.org/1999/xlink">
<g id="graph0" class="graph" transform="scale(1 1) rotate(0) translate(4 606)">
<title>S2Sim/ControlManager.cpp</title>
<polygon style="fill:white;stroke:white;" points="-4,4 -4,-606 1693,-606 1693,4 -4,4"/>
<!-- Node1 -->
<g id="node1" class="node"><title>Node1</title>
<polygon style="fill:#bfbfbf;stroke:black;" points="1125,-580 1125,-601 1289,-601 1289,-580 1125,-580"/>
<text text-anchor="middle" x="1207" y="-587" style="font-family:Arial;font-size:10.00;">S2Sim/ControlManager.cpp</text>
</g>
<!-- Node2 -->
<g id="node3" class="node"><title>Node2</title>
<a xlink:href="_control_manager_8h.html" target="_top" xlink:title="ControlManager.h">
<polygon style="fill:white;stroke:black;" points="1150,-522 1150,-543 1264,-543 1264,-522 1150,-522"/>
<text text-anchor="middle" x="1207" y="-529" style="font-family:Arial;font-size:10.00;">ControlManager.h</text>
</a>
</g>
<!-- Node1&#45;&gt;Node2 -->
<g id="edge2" class="edge"><title>Node1&#45;&gt;Node2</title>
<path style="fill:none;stroke:midnightblue;" d="M1207,-580C1207,-572 1207,-562 1207,-553"/>
<polygon style="fill:midnightblue;stroke:midnightblue;" points="1210.5,-553 1207,-543 1203.5,-553 1210.5,-553"/>
</g>
<!-- Node3 -->
<g id="node5" class="node"><title>Node3</title>
<a xlink:href="_system_manager_8h.html" target="_top" xlink:title="SystemManager.h">
<polygon style="fill:white;stroke:black;" points="1018,-464 1018,-485 1132,-485 1132,-464 1018,-464"/>
<text text-anchor="middle" x="1075" y="-471" style="font-family:Arial;font-size:10.00;">SystemManager.h</text>
</a>
</g>
<!-- Node2&#45;&gt;Node3 -->
<g id="edge4" class="edge"><title>Node2&#45;&gt;Node3</title>
<path style="fill:none;stroke:midnightblue;" d="M1176,-522C1153,-512 1123,-499 1102,-489"/>
<polygon style="fill:midnightblue;stroke:midnightblue;" points="1103.56,-485.863 1093,-485 1100.72,-492.26 1103.56,-485.863"/>
</g>
<!-- Node5 -->
<g id="node9" class="node"><title>Node5</title>
<a xlink:href="_client_manager_8h.html" target="_top" xlink:title="ClientManager.h">
<polygon style="fill:white;stroke:black;" points="912,-406 912,-427 1018,-427 1018,-406 912,-406"/>
<text text-anchor="middle" x="965" y="-413" style="font-family:Arial;font-size:10.00;">ClientManager.h</text>
</a>
</g>
<!-- Node2&#45;&gt;Node5 -->
<g id="edge150" class="edge"><title>Node2&#45;&gt;Node5</title>
<path style="fill:none;stroke:midnightblue;" d="M1150,-524C1099,-516 1031,-502 1009,-486 992,-473 979,-452 973,-437"/>
<polygon style="fill:midnightblue;stroke:midnightblue;" points="975.964,-434.985 969,-427 969.464,-437.585 975.964,-434.985"/>
</g>
<!-- Node19 -->
<g id="node55" class="node"><title>Node19</title>
<a xlink:href="_connection_manager_8h.html" target="_top" xlink:title="ConnectionManager.h">
<polygon style="fill:white;stroke:black;" points="1188,-348 1188,-369 1325,-369 1325,-348 1188,-348"/>
<text text-anchor="middle" x="1256" y="-355" style="font-family:Arial;font-size:10.00;">ConnectionManager.h</text>
</a>
</g>
<!-- Node2&#45;&gt;Node19 -->
<g id="edge148" class="edge"><title>Node2&#45;&gt;Node19</title>
<path style="fill:none;stroke:midnightblue;" d="M1210,-522C1218,-493 1240,-416 1250,-379"/>
<polygon style="fill:midnightblue;stroke:midnightblue;" points="1253.48,-379.584 1253,-369 1246.77,-377.573 1253.48,-379.584"/>
</g>
<!-- Node20 -->
<g id="node58" class="node"><title>Node20</title>
<a xlink:href="_threaded_t_c_p_server_8h.html" target="_top" xlink:title="ThreadedTCPServer.h">
<polygon style="fill:white;stroke:black;" points="1406,-290 1406,-311 1541,-311 1541,-290 1406,-290"/>
<text text-anchor="middle" x="1473" y="-297" style="font-family:Arial;font-size:10.00;">ThreadedTCPServer.h</text>
</a>
</g>
<!-- Node2&#45;&gt;Node20 -->
<g id="edge142" class="edge"><title>Node2&#45;&gt;Node20</title>
<path style="fill:none;stroke:midnightblue;" d="M1240,-522C1295,-501 1406,-452 1461,-370 1471,-356 1473,-336 1474,-321"/>
<polygon style="fill:midnightblue;stroke:midnightblue;" points="1477.5,-321 1474,-311 1470.5,-321 1477.5,-321"/>
</g>
<!-- Node26 -->
<g id="node71" class="node"><title>Node26</title>
<a xlink:href="_threaded_t_c_p_connected_client_8h.html" target="_top" xlink:title="ThreadedTCPConnectedClient.h">
<polygon style="fill:white;stroke:black;" points="1285,-174 1285,-195 1477,-195 1477,-174 1285,-174"/>
<text text-anchor="middle" x="1381" y="-181" style="font-family:Arial;font-size:10.00;">ThreadedTCPConnectedClient.h</text>
</a>
</g>
<!-- Node2&#45;&gt;Node26 -->
<g id="edge146" class="edge"><title>Node2&#45;&gt;Node26</title>
<path style="fill:none;stroke:midnightblue;" d="M1264,-527C1366,-514 1568,-480 1568,-417 1568,-417 1568,-417 1568,-359 1568,-327 1568,-315 1549,-290 1547,-288 1453,-229 1407,-200"/>
<polygon style="fill:midnightblue;stroke:midnightblue;" points="1408.44,-196.797 1398,-195 1405.04,-202.916 1408.44,-196.797"/>
</g>
<!-- Node29 -->
<g id="node83" class="node"><title>Node29</title>
<a xlink:href="_log_print_8h.html" target="_top" xlink:title="LogPrint.h">
<polygon style="fill:white;stroke:black;" points="1042,-290 1042,-311 1112,-311 1112,-290 1042,-290"/>
<text text-anchor="middle" x="1077" y="-297" style="font-family:Arial;font-size:10.00;">LogPrint.h</text>
</a>
</g>
<!-- Node2&#45;&gt;Node29 -->
<g id="edge152" class="edge"><title>Node2&#45;&gt;Node29</title>
<path style="fill:none;stroke:midnightblue;" d="M1201,-522C1180,-485 1114,-366 1088,-320"/>
<polygon style="fill:midnightblue;stroke:midnightblue;" points="1090.92,-318.042 1083,-311 1084.8,-321.441 1090.92,-318.042"/>
</g>
<!-- Node31 -->
<g id="node90" class="node"><title>Node31</title>
<a xlink:href="_matlab_manager_8h.html" target="_top" xlink:title="MatlabManager.h">
<polygon style="fill:white;stroke:black;" points="1342,-348 1342,-369 1453,-369 1453,-348 1342,-348"/>
<text text-anchor="middle" x="1397" y="-355" style="font-family:Arial;font-size:10.00;">MatlabManager.h</text>
</a>
</g>
<!-- Node2&#45;&gt;Node31 -->
<g id="edge144" class="edge"><title>Node2&#45;&gt;Node31</title>
<path style="fill:none;stroke:midnightblue;" d="M1219,-522C1252,-492 1339,-412 1378,-376"/>
<polygon style="fill:midnightblue;stroke:midnightblue;" points="1380.78,-378.219 1386,-369 1376.17,-372.951 1380.78,-378.219"/>
</g>
<!-- Node3&#45;&gt;Node2 -->
<g id="edge138" class="edge"><title>Node3&#45;&gt;Node2</title>
<path style="fill:none;stroke:midnightblue;" d="M1103,-485C1125,-494 1156,-507 1178,-518"/>
<polygon style="fill:midnightblue;stroke:midnightblue;" points="1176.44,-521.137 1187,-522 1179.28,-514.74 1176.44,-521.137"/>
</g>
<!-- Node4 -->
<g id="node7" class="node"><title>Node4</title>
<polygon style="fill:white;stroke:#bfbfbf;" points="994,-174 994,-195 1035,-195 1035,-174 994,-174"/>
<text text-anchor="middle" x="1014" y="-181" style="font-family:Arial;font-size:10.00;">map</text>
</g>
<!-- Node3&#45;&gt;Node4 -->
<g id="edge6" class="edge"><title>Node3&#45;&gt;Node4</title>
<path style="fill:none;stroke:midnightblue;" d="M1072,-464C1064,-438 1044,-370 1033,-312 1025,-275 1019,-231 1016,-205"/>
<polygon style="fill:midnightblue;stroke:midnightblue;" points="1019.48,-204.602 1015,-195 1012.51,-205.299 1019.48,-204.602"/>
</g>
<!-- Node3&#45;&gt;Node5 -->
<g id="edge8" class="edge"><title>Node3&#45;&gt;Node5</title>
<path style="fill:none;stroke:midnightblue;" d="M1049,-464C1030,-455 1006,-442 988,-432"/>
<polygon style="fill:midnightblue;stroke:midnightblue;" points="989.441,-428.797 979,-427 986.042,-434.916 989.441,-428.797"/>
</g>
<!-- Node3&#45;&gt;Node29 -->
<g id="edge140" class="edge"><title>Node3&#45;&gt;Node29</title>
<path style="fill:none;stroke:midnightblue;" d="M1075,-464C1076,-435 1077,-358 1077,-321"/>
<polygon style="fill:midnightblue;stroke:midnightblue;" points="1080.5,-321 1077,-311 1073.5,-321 1080.5,-321"/>
</g>
<!-- Node3&#45;&gt;Node31 -->
<g id="edge136" class="edge"><title>Node3&#45;&gt;Node31</title>
<path style="fill:none;stroke:midnightblue;" d="M1101,-464C1157,-443 1288,-396 1356,-372"/>
<polygon style="fill:midnightblue;stroke:midnightblue;" points="1356.62,-375.483 1365,-369 1354.41,-368.842 1356.62,-375.483"/>
</g>
<!-- Node5&#45;&gt;Node3 -->
<g id="edge130" class="edge"><title>Node5&#45;&gt;Node3</title>
<path style="fill:none;stroke:midnightblue;" d="M989,-427C1007,-436 1032,-448 1050,-459"/>
<polygon style="fill:midnightblue;stroke:midnightblue;" points="1048.56,-462.203 1059,-464 1051.96,-456.084 1048.56,-462.203"/>
</g>
<!-- Node6 -->
<g id="node11" class="node"><title>Node6</title>
<a xlink:href="_message_header_8h.html" target="_top" xlink:title="MessageHeader.h">
<polygon style="fill:white;stroke:black;" points="457,-232 457,-253 570,-253 570,-232 457,-232"/>
<text text-anchor="middle" x="513" y="-239" style="font-family:Arial;font-size:10.00;">MessageHeader.h</text>
</a>
</g>
<!-- Node5&#45;&gt;Node6 -->
<g id="edge10" class="edge"><title>Node5&#45;&gt;Node6</title>
<path style="fill:none;stroke:midnightblue;" d="M965,-406C964,-392 961,-366 951,-348 934,-315 926,-305 892,-290 839,-264 674,-251 580,-246"/>
<polygon style="fill:midnightblue;stroke:midnightblue;" points="580,-242.5 570,-246 580,-249.5 580,-242.5"/>
</g>
<!-- Node10 -->
<g id="node20" class="node"><title>Node10</title>
<a xlink:href="_client_connection_request_8h.html" target="_top" xlink:title="ClientConnectionRequest.h">
<polygon style="fill:white;stroke:black;" points="778,-348 778,-369 943,-369 943,-348 778,-348"/>
<text text-anchor="middle" x="860" y="-355" style="font-family:Arial;font-size:10.00;">ClientConnectionRequest.h</text>
</a>
</g>
<!-- Node5&#45;&gt;Node10 -->
<g id="edge20" class="edge"><title>Node5&#45;&gt;Node10</title>
<path style="fill:none;stroke:midnightblue;" d="M945,-406C928,-397 905,-384 887,-374"/>
<polygon style="fill:midnightblue;stroke:midnightblue;" points="888.441,-370.797 878,-369 885.042,-376.916 888.441,-370.797"/>
</g>
<!-- Node13 -->
<g id="node29" class="node"><title>Node13</title>
<a xlink:href="_client_connection_response_8h.html" target="_top" xlink:title="ClientConnectionResponse.h">
<polygon style="fill:white;stroke:black;" points="344,-348 344,-369 517,-369 517,-348 344,-348"/>
<text text-anchor="middle" x="430" y="-355" style="font-family:Arial;font-size:10.00;">ClientConnectionResponse.h</text>
</a>
</g>
<!-- Node5&#45;&gt;Node13 -->
<g id="edge32" class="edge"><title>Node5&#45;&gt;Node13</title>
<path style="fill:none;stroke:midnightblue;" d="M912,-411C831,-403 672,-386 527,-370"/>
<polygon style="fill:midnightblue;stroke:midnightblue;" points="527.299,-366.512 517,-369 526.602,-373.478 527.299,-366.512"/>
</g>
<!-- Node14 -->
<g id="node33" class="node"><title>Node14</title>
<a xlink:href="_set_current_price_8h.html" target="_top" xlink:title="SetCurrentPrice.h">
<polygon style="fill:white;stroke:black;" points="534,-348 534,-369 645,-369 645,-348 534,-348"/>
<text text-anchor="middle" x="589" y="-355" style="font-family:Arial;font-size:10.00;">SetCurrentPrice.h</text>
</a>
</g>
<!-- Node5&#45;&gt;Node14 -->
<g id="edge38" class="edge"><title>Node5&#45;&gt;Node14</title>
<path style="fill:none;stroke:midnightblue;" d="M912,-409C852,-400 751,-385 655,-371"/>
<polygon style="fill:midnightblue;stroke:midnightblue;" points="655.492,-367.529 645,-369 654.119,-374.393 655.492,-367.529"/>
</g>
<!-- Node15 -->
<g id="node37" class="node"><title>Node15</title>
<a xlink:href="_price_proposal_8h.html" target="_top" xlink:title="PriceProposal.h">
<polygon style="fill:white;stroke:black;" points="662,-348 662,-369 760,-369 760,-348 662,-348"/>
<text text-anchor="middle" x="711" y="-355" style="font-family:Arial;font-size:10.00;">PriceProposal.h</text>
</a>
</g>
<!-- Node5&#45;&gt;Node15 -->
<g id="edge44" class="edge"><title>Node5&#45;&gt;Node15</title>
<path style="fill:none;stroke:midnightblue;" d="M917,-406C873,-396 810,-381 765,-371"/>
<polygon style="fill:midnightblue;stroke:midnightblue;" points="765.492,-367.529 755,-369 764.119,-374.393 765.492,-367.529"/>
</g>
<!-- Node16 -->
<g id="node41" class="node"><title>Node16</title>
<a xlink:href="_client_data_8h.html" target="_top" xlink:title="ClientData.h">
<polygon style="fill:white;stroke:black;" points="154,-348 154,-369 238,-369 238,-348 154,-348"/>
<text text-anchor="middle" x="196" y="-355" style="font-family:Arial;font-size:10.00;">ClientData.h</text>
</a>
</g>
<!-- Node5&#45;&gt;Node16 -->
<g id="edge50" class="edge"><title>Node5&#45;&gt;Node16</title>
<path style="fill:none;stroke:midnightblue;" d="M912,-416C794,-414 502,-404 248,-369"/>
<polygon style="fill:midnightblue;stroke:midnightblue;" points="248.299,-365.512 238,-368 247.602,-372.478 248.299,-365.512"/>
</g>
<!-- Node17 -->
<g id="node46" class="node"><title>Node17</title>
<a xlink:href="_get_price_8h.html" target="_top" xlink:title="GetPrice.h">
<polygon style="fill:white;stroke:black;" points="256,-348 256,-369 327,-369 327,-348 256,-348"/>
<text text-anchor="middle" x="291" y="-355" style="font-family:Arial;font-size:10.00;">GetPrice.h</text>
</a>
</g>
<!-- Node5&#45;&gt;Node17 -->
<g id="edge58" class="edge"><title>Node5&#45;&gt;Node17</title>
<path style="fill:none;stroke:midnightblue;" d="M912,-416C805,-413 555,-404 337,-370"/>
<polygon style="fill:midnightblue;stroke:midnightblue;" points="337.492,-366.529 327,-368 336.119,-373.393 337.492,-366.529"/>
</g>
<!-- Node18 -->
<g id="node50" class="node"><title>Node18</title>
<a xlink:href="_demand_negotiation_8h.html" target="_top" xlink:title="DemandNegotiation.h">
<polygon style="fill:white;stroke:black;" points="0,-348 0,-369 137,-369 137,-348 0,-348"/>
<text text-anchor="middle" x="68" y="-355" style="font-family:Arial;font-size:10.00;">DemandNegotiation.h</text>
</a>
</g>
<!-- Node5&#45;&gt;Node18 -->
<g id="edge64" class="edge"><title>Node5&#45;&gt;Node18</title>
<path style="fill:none;stroke:midnightblue;" d="M912,-415C782,-411 442,-399 147,-370"/>
<polygon style="fill:midnightblue;stroke:midnightblue;" points="147.299,-366.512 137,-369 146.602,-373.478 147.299,-366.512"/>
</g>
<!-- Node5&#45;&gt;Node19 -->
<g id="edge72" class="edge"><title>Node5&#45;&gt;Node19</title>
<path style="fill:none;stroke:midnightblue;" d="M1015,-406C1064,-396 1137,-381 1191,-371"/>
<polygon style="fill:midnightblue;stroke:midnightblue;" points="1191.88,-374.393 1201,-369 1190.51,-367.529 1191.88,-374.393"/>
</g>
<!-- Node5&#45;&gt;Node26 -->
<g id="edge132" class="edge"><title>Node5&#45;&gt;Node26</title>
<path style="fill:none;stroke:midnightblue;" d="M985,-406C1052,-369 1277,-243 1354,-200"/>
<polygon style="fill:midnightblue;stroke:midnightblue;" points="1355.96,-202.916 1363,-195 1352.56,-196.797 1355.96,-202.916"/>
</g>
<!-- Node5&#45;&gt;Node29 -->
<g id="edge134" class="edge"><title>Node5&#45;&gt;Node29</title>
<path style="fill:none;stroke:midnightblue;" d="M976,-406C996,-386 1037,-343 1060,-319"/>
<polygon style="fill:midnightblue;stroke:midnightblue;" points="1063.05,-320.831 1067,-311 1057.78,-316.221 1063.05,-320.831"/>
</g>
<!-- Node5&#45;&gt;Node31 -->
<g id="edge118" class="edge"><title>Node5&#45;&gt;Node31</title>
<path style="fill:none;stroke:midnightblue;" d="M1018,-411C1088,-402 1214,-387 1332,-369"/>
<polygon style="fill:midnightblue;stroke:midnightblue;" points="1332.4,-372.478 1342,-368 1331.7,-365.512 1332.4,-372.478"/>
</g>
<!-- Node6&#45;&gt;Node4 -->
<g id="edge18" class="edge"><title>Node6&#45;&gt;Node4</title>
<path style="fill:none;stroke:midnightblue;" d="M570,-236C677,-224 902,-198 984,-188"/>
<polygon style="fill:midnightblue;stroke:midnightblue;" points="984.398,-191.478 994,-187 983.701,-184.512 984.398,-191.478"/>
</g>
<!-- Node7 -->
<g id="node13" class="node"><title>Node7</title>
<a xlink:href="_network_byte_accessor_8h.html" target="_top" xlink:title="NetworkByteAccessor.h">
<polygon style="fill:white;stroke:black;" points="359,-174 359,-195 500,-195 500,-174 359,-174"/>
<text text-anchor="middle" x="429" y="-181" style="font-family:Arial;font-size:10.00;">NetworkByteAccessor.h</text>
</a>
</g>
<!-- Node6&#45;&gt;Node7 -->
<g id="edge12" class="edge"><title>Node6&#45;&gt;Node7</title>
<path style="fill:none;stroke:midnightblue;" d="M497,-232C484,-223 466,-210 451,-201"/>
<polygon style="fill:midnightblue;stroke:midnightblue;" points="453.1,-198.2 443,-195 448.9,-203.8 453.1,-198.2"/>
</g>
<!-- Node8 -->
<g id="node15" class="node"><title>Node8</title>
<polygon style="fill:white;stroke:#bfbfbf;" points="209,-0 209,-21 265,-21 265,-0 209,-0"/>
<text text-anchor="middle" x="237" y="-7" style="font-family:Arial;font-size:10.00;">string.h</text>
</g>
<!-- Node7&#45;&gt;Node8 -->
<g id="edge14" class="edge"><title>Node7&#45;&gt;Node8</title>
<path style="fill:none;stroke:midnightblue;" d="M396,-174C375,-166 350,-154 330,-138 293,-107 262,-57 247,-30"/>
<polygon style="fill:midnightblue;stroke:midnightblue;" points="249.916,-28.0418 242,-21 243.797,-31.4414 249.916,-28.0418"/>
</g>
<!-- Node9 -->
<g id="node17" class="node"><title>Node9</title>
<a xlink:href="_compile_time_checker_library_8h.html" target="_top" xlink:title="CompileTimeCheckerLibrary.h">
<polygon style="fill:white;stroke:black;" points="339,-116 339,-137 520,-137 520,-116 339,-116"/>
<text text-anchor="middle" x="429" y="-123" style="font-family:Arial;font-size:10.00;">CompileTimeCheckerLibrary.h</text>
</a>
</g>
<!-- Node7&#45;&gt;Node9 -->
<g id="edge16" class="edge"><title>Node7&#45;&gt;Node9</title>
<path style="fill:none;stroke:midnightblue;" d="M429,-174C429,-166 429,-156 429,-147"/>
<polygon style="fill:midnightblue;stroke:midnightblue;" points="432.5,-147 429,-137 425.5,-147 432.5,-147"/>
</g>
<!-- Node10&#45;&gt;Node6 -->
<g id="edge22" class="edge"><title>Node10&#45;&gt;Node6</title>
<path style="fill:none;stroke:midnightblue;" d="M827,-348C763,-327 622,-280 553,-256"/>
<polygon style="fill:midnightblue;stroke:midnightblue;" points="553.584,-252.521 543,-253 551.573,-259.226 553.584,-252.521"/>
</g>
<!-- Node11 -->
<g id="node23" class="node"><title>Node11</title>
<a xlink:href="_message_ender_8h.html" target="_top" xlink:title="MessageEnder.h">
<polygon style="fill:white;stroke:black;" points="378,-290 378,-311 482,-311 482,-290 378,-290"/>
<text text-anchor="middle" x="430" y="-297" style="font-family:Arial;font-size:10.00;">MessageEnder.h</text>
</a>
</g>
<!-- Node10&#45;&gt;Node11 -->
<g id="edge24" class="edge"><title>Node10&#45;&gt;Node11</title>
<path style="fill:none;stroke:midnightblue;" d="M778,-348C695,-337 568,-320 492,-309"/>
<polygon style="fill:midnightblue;stroke:midnightblue;" points="492.299,-305.512 482,-308 491.602,-312.478 492.299,-305.512"/>
</g>
<!-- Node12 -->
<g id="node27" class="node"><title>Node12</title>
<polygon style="fill:white;stroke:#bfbfbf;" points="837,-290 837,-311 883,-311 883,-290 837,-290"/>
<text text-anchor="middle" x="860" y="-297" style="font-family:Arial;font-size:10.00;">string</text>
</g>
<!-- Node10&#45;&gt;Node12 -->
<g id="edge30" class="edge"><title>Node10&#45;&gt;Node12</title>
<path style="fill:none;stroke:midnightblue;" d="M860,-348C860,-340 860,-330 860,-321"/>
<polygon style="fill:midnightblue;stroke:midnightblue;" points="863.5,-321 860,-311 856.5,-321 863.5,-321"/>
</g>
<!-- Node11&#45;&gt;Node6 -->
<g id="edge26" class="edge"><title>Node11&#45;&gt;Node6</title>
<path style="fill:none;stroke:midnightblue;" d="M446,-290C458,-281 476,-268 491,-259"/>
<polygon style="fill:midnightblue;stroke:midnightblue;" points="493.1,-261.8 499,-253 488.9,-256.2 493.1,-261.8"/>
</g>
<!-- Node11&#45;&gt;Node7 -->
<g id="edge28" class="edge"><title>Node11&#45;&gt;Node7</title>
<path style="fill:none;stroke:midnightblue;" d="M430,-290C430,-271 429,-230 429,-205"/>
<polygon style="fill:midnightblue;stroke:midnightblue;" points="432.5,-205 429,-195 425.5,-205 432.5,-205"/>
</g>
<!-- Node13&#45;&gt;Node6 -->
<g id="edge34" class="edge"><title>Node13&#45;&gt;Node6</title>
<path style="fill:none;stroke:midnightblue;" d="M450,-348C464,-340 481,-327 491,-312 501,-297 507,-277 510,-263"/>
<polygon style="fill:midnightblue;stroke:midnightblue;" points="513.471,-263.492 512,-253 506.607,-262.119 513.471,-263.492"/>
</g>
<!-- Node13&#45;&gt;Node11 -->
<g id="edge36" class="edge"><title>Node13&#45;&gt;Node11</title>
<path style="fill:none;stroke:midnightblue;" d="M430,-348C430,-340 430,-330 430,-321"/>
<polygon style="fill:midnightblue;stroke:midnightblue;" points="433.5,-321 430,-311 426.5,-321 433.5,-321"/>
</g>
<!-- Node14&#45;&gt;Node6 -->
<g id="edge40" class="edge"><title>Node14&#45;&gt;Node6</title>
<path style="fill:none;stroke:midnightblue;" d="M582,-348C569,-328 541,-286 525,-262"/>
<polygon style="fill:midnightblue;stroke:midnightblue;" points="527.916,-260.042 520,-253 521.797,-263.441 527.916,-260.042"/>
</g>
<!-- Node14&#45;&gt;Node11 -->
<g id="edge42" class="edge"><title>Node14&#45;&gt;Node11</title>
<path style="fill:none;stroke:midnightblue;" d="M559,-348C533,-338 495,-324 468,-314"/>
<polygon style="fill:midnightblue;stroke:midnightblue;" points="468.584,-310.521 458,-311 466.573,-317.226 468.584,-310.521"/>
</g>
<!-- Node15&#45;&gt;Node6 -->
<g id="edge46" class="edge"><title>Node15&#45;&gt;Node6</title>
<path style="fill:none;stroke:midnightblue;" d="M692,-348C656,-328 579,-282 539,-258"/>
<polygon style="fill:midnightblue;stroke:midnightblue;" points="540.441,-254.797 530,-253 537.042,-260.916 540.441,-254.797"/>
</g>
<!-- Node15&#45;&gt;Node11 -->
<g id="edge48" class="edge"><title>Node15&#45;&gt;Node11</title>
<path style="fill:none;stroke:midnightblue;" d="M662,-349C613,-339 540,-324 489,-313"/>
<polygon style="fill:midnightblue;stroke:midnightblue;" points="489.492,-309.529 479,-311 488.119,-316.393 489.492,-309.529"/>
</g>
<!-- Node16&#45;&gt;Node6 -->
<g id="edge52" class="edge"><title>Node16&#45;&gt;Node6</title>
<path style="fill:none;stroke:midnightblue;" d="M215,-348C241,-333 290,-307 334,-290 373,-275 418,-263 454,-255"/>
<polygon style="fill:midnightblue;stroke:midnightblue;" points="454.881,-258.393 464,-253 453.508,-251.529 454.881,-258.393"/>
</g>
<!-- Node16&#45;&gt;Node8 -->
<g id="edge56" class="edge"><title>Node16&#45;&gt;Node8</title>
<path style="fill:none;stroke:midnightblue;" d="M196,-348C197,-327 199,-281 199,-243 199,-243 199,-243 199,-127 199,-91 216,-53 226,-30"/>
<polygon style="fill:midnightblue;stroke:midnightblue;" points="229.203,-31.4414 231,-21 223.084,-28.0418 229.203,-31.4414"/>
</g>
<!-- Node16&#45;&gt;Node11 -->
<g id="edge54" class="edge"><title>Node16&#45;&gt;Node11</title>
<path style="fill:none;stroke:midnightblue;" d="M238,-349C278,-339 337,-324 380,-314"/>
<polygon style="fill:midnightblue;stroke:midnightblue;" points="381.427,-317.226 390,-311 379.416,-310.521 381.427,-317.226"/>
</g>
<!-- Node17&#45;&gt;Node6 -->
<g id="edge60" class="edge"><title>Node17&#45;&gt;Node6</title>
<path style="fill:none;stroke:midnightblue;" d="M301,-348C314,-333 341,-305 369,-290 396,-274 429,-263 456,-256"/>
<polygon style="fill:midnightblue;stroke:midnightblue;" points="457.427,-259.226 466,-253 455.416,-252.521 457.427,-259.226"/>
</g>
<!-- Node17&#45;&gt;Node11 -->
<g id="edge62" class="edge"><title>Node17&#45;&gt;Node11</title>
<path style="fill:none;stroke:midnightblue;" d="M317,-348C340,-338 372,-325 397,-315"/>
<polygon style="fill:midnightblue;stroke:midnightblue;" points="398.283,-318.26 406,-311 395.44,-311.863 398.283,-318.26"/>
</g>
<!-- Node18&#45;&gt;Node6 -->
<g id="edge66" class="edge"><title>Node18&#45;&gt;Node6</title>
<path style="fill:none;stroke:midnightblue;" d="M98,-348C138,-333 213,-307 278,-290 335,-275 399,-262 447,-254"/>
<polygon style="fill:midnightblue;stroke:midnightblue;" points="447.881,-257.393 457,-252 446.508,-250.529 447.881,-257.393"/>
</g>
<!-- Node18&#45;&gt;Node8 -->
<g id="edge70" class="edge"><title>Node18&#45;&gt;Node8</title>
<path style="fill:none;stroke:midnightblue;" d="M76,-348C89,-328 115,-284 115,-243 115,-243 115,-243 115,-127 115,-78 167,-44 203,-26"/>
<polygon style="fill:midnightblue;stroke:midnightblue;" points="204.958,-28.916 212,-21 201.559,-22.7969 204.958,-28.916"/>
</g>
<!-- Node18&#45;&gt;Node11 -->
<g id="edge68" class="edge"><title>Node18&#45;&gt;Node11</title>
<path style="fill:none;stroke:midnightblue;" d="M137,-348C203,-338 303,-321 368,-311"/>
<polygon style="fill:midnightblue;stroke:midnightblue;" points="368.881,-314.393 378,-309 367.508,-307.529 368.881,-314.393"/>
</g>
<!-- Node19&#45;&gt;Node4 -->
<g id="edge114" class="edge"><title>Node19&#45;&gt;Node4</title>
<path style="fill:none;stroke:midnightblue;" d="M1240,-348C1199,-318 1085,-236 1036,-201"/>
<polygon style="fill:midnightblue;stroke:midnightblue;" points="1038.1,-198.2 1028,-195 1033.9,-203.8 1038.1,-198.2"/>
</g>
<!-- Node19&#45;&gt;Node5 -->
<g id="edge74" class="edge"><title>Node19&#45;&gt;Node5</title>
<path style="fill:none;stroke:midnightblue;" d="M1211,-369C1162,-379 1083,-395 1028,-405"/>
<polygon style="fill:midnightblue;stroke:midnightblue;" points="1027.12,-401.607 1018,-407 1028.49,-408.471 1027.12,-401.607"/>
</g>
<!-- Node19&#45;&gt;Node20 -->
<g id="edge76" class="edge"><title>Node19&#45;&gt;Node20</title>
<path style="fill:none;stroke:midnightblue;" d="M1297,-348C1334,-338 1387,-324 1425,-314"/>
<polygon style="fill:midnightblue;stroke:midnightblue;" points="1426.43,-317.226 1435,-311 1424.42,-310.521 1426.43,-317.226"/>
</g>
<!-- Node19&#45;&gt;Node26 -->
<g id="edge106" class="edge"><title>Node19&#45;&gt;Node26</title>
<path style="fill:none;stroke:midnightblue;" d="M1264,-348C1285,-319 1342,-240 1368,-203"/>
<polygon style="fill:midnightblue;stroke:midnightblue;" points="1370.8,-205.1 1374,-195 1365.2,-200.9 1370.8,-205.1"/>
</g>
<!-- Node19&#45;&gt;Node29 -->
<g id="edge108" class="edge"><title>Node19&#45;&gt;Node29</title>
<path style="fill:none;stroke:midnightblue;" d="M1222,-348C1192,-338 1149,-324 1118,-314"/>
<polygon style="fill:midnightblue;stroke:midnightblue;" points="1118.58,-310.521 1108,-311 1116.57,-317.226 1118.58,-310.521"/>
</g>
<!-- Node30 -->
<g id="node88" class="node"><title>Node30</title>
<polygon style="fill:white;stroke:#bfbfbf;" points="1206,-290 1206,-311 1275,-311 1275,-290 1206,-290"/>
<text text-anchor="middle" x="1240" y="-297" style="font-family:Arial;font-size:10.00;">algorithm</text>
</g>
<!-- Node19&#45;&gt;Node30 -->
<g id="edge116" class="edge"><title>Node19&#45;&gt;Node30</title>
<path style="fill:none;stroke:midnightblue;" d="M1253,-348C1251,-340 1248,-330 1245,-321"/>
<polygon style="fill:midnightblue;stroke:midnightblue;" points="1248.39,-320.119 1243,-311 1241.53,-321.492 1248.39,-320.119"/>
</g>
<!-- Node21 -->
<g id="node60" class="node"><title>Node21</title>
<a xlink:href="_thread_base_8h.html" target="_top" xlink:title="ThreadBase.h">
<polygon style="fill:white;stroke:black;" points="1571,-116 1571,-137 1662,-137 1662,-116 1571,-116"/>
<text text-anchor="middle" x="1616" y="-123" style="font-family:Arial;font-size:10.00;">ThreadBase.h</text>
</a>
</g>
<!-- Node20&#45;&gt;Node21 -->
<g id="edge78" class="edge"><title>Node20&#45;&gt;Node21</title>
<path style="fill:none;stroke:midnightblue;" d="M1533,-290C1555,-283 1578,-272 1593,-254 1618,-223 1619,-175 1618,-147"/>
<polygon style="fill:midnightblue;stroke:midnightblue;" points="1621.48,-146.602 1617,-137 1614.51,-147.299 1621.48,-146.602"/>
</g>
<!-- Node22 -->
<g id="node62" class="node"><title>Node22</title>
<a xlink:href="_t_c_p_server_8h.html" target="_top" xlink:title="TCPServer.h">
<polygon style="fill:white;stroke:black;" points="1502,-232 1502,-253 1584,-253 1584,-232 1502,-232"/>
<text text-anchor="middle" x="1543" y="-239" style="font-family:Arial;font-size:10.00;">TCPServer.h</text>
</a>
</g>
<!-- Node20&#45;&gt;Node22 -->
<g id="edge80" class="edge"><title>Node20&#45;&gt;Node22</title>
<path style="fill:none;stroke:midnightblue;" d="M1486,-290C1496,-281 1511,-269 1523,-259"/>
<polygon style="fill:midnightblue;stroke:midnightblue;" points="1525.1,-261.8 1531,-253 1520.9,-256.2 1525.1,-261.8"/>
</g>
<!-- Node20&#45;&gt;Node26 -->
<g id="edge104" class="edge"><title>Node20&#45;&gt;Node26</title>
<path style="fill:none;stroke:midnightblue;" d="M1464,-290C1448,-270 1414,-228 1395,-203"/>
<polygon style="fill:midnightblue;stroke:midnightblue;" points="1397.8,-200.9 1389,-195 1392.2,-205.1 1397.8,-200.9"/>
</g>
<!-- Node23 -->
<g id="node64" class="node"><title>Node23</title>
<a xlink:href="_socket_base_8h.html" target="_top" xlink:title="SocketBase.h">
<polygon style="fill:white;stroke:black;" points="1403,-58 1403,-79 1492,-79 1492,-58 1403,-58"/>
<text text-anchor="middle" x="1447" y="-65" style="font-family:Arial;font-size:10.00;">SocketBase.h</text>
</a>
</g>
<!-- Node22&#45;&gt;Node23 -->
<g id="edge82" class="edge"><title>Node22&#45;&gt;Node23</title>
<path style="fill:none;stroke:midnightblue;" d="M1544,-232C1546,-208 1548,-152 1524,-116 1514,-101 1499,-91 1484,-83"/>
<polygon style="fill:midnightblue;stroke:midnightblue;" points="1485.56,-79.8631 1475,-79 1482.72,-86.2598 1485.56,-79.8631"/>
</g>
<!-- Node25 -->
<g id="node68" class="node"><title>Node25</title>
<a xlink:href="_i_p_address_8h.html" target="_top" xlink:title="IPAddress.h">
<polygon style="fill:white;stroke:black;" points="1309,-58 1309,-79 1386,-79 1386,-58 1309,-58"/>
<text text-anchor="middle" x="1347" y="-65" style="font-family:Arial;font-size:10.00;">IPAddress.h</text>
</a>
</g>
<!-- Node22&#45;&gt;Node25 -->
<g id="edge86" class="edge"><title>Node22&#45;&gt;Node25</title>
<path style="fill:none;stroke:midnightblue;" d="M1537,-232C1528,-217 1509,-189 1486,-174 1440,-143 1406,-176 1368,-138 1355,-125 1350,-104 1348,-89"/>
<polygon style="fill:midnightblue;stroke:midnightblue;" points="1351.48,-88.6021 1347,-79 1344.51,-89.2987 1351.48,-88.6021"/>
</g>
<!-- Node22&#45;&gt;Node26 -->
<g id="edge90" class="edge"><title>Node22&#45;&gt;Node26</title>
<path style="fill:none;stroke:midnightblue;" d="M1512,-232C1485,-222 1447,-208 1419,-198"/>
<polygon style="fill:midnightblue;stroke:midnightblue;" points="1419.58,-194.521 1409,-195 1417.57,-201.226 1419.58,-194.521"/>
</g>
<!-- Node24 -->
<g id="node66" class="node"><title>Node24</title>
<polygon style="fill:white;stroke:#bfbfbf;" points="1328,-0 1328,-21 1392,-21 1392,-0 1328,-0"/>
<text text-anchor="middle" x="1360" y="-7" style="font-family:Arial;font-size:10.00;">iostream</text>
</g>
<!-- Node23&#45;&gt;Node24 -->
<g id="edge84" class="edge"><title>Node23&#45;&gt;Node24</title>
<path style="fill:none;stroke:midnightblue;" d="M1430,-58C1417,-49 1398,-36 1383,-27"/>
<polygon style="fill:midnightblue;stroke:midnightblue;" points="1385.1,-24.2 1375,-21 1380.9,-29.8 1385.1,-24.2"/>
</g>
<!-- Node25&#45;&gt;Node8 -->
<g id="edge88" class="edge"><title>Node25&#45;&gt;Node8</title>
<path style="fill:none;stroke:midnightblue;" d="M1309,-67C1139,-58 447,-22 275,-13"/>
<polygon style="fill:midnightblue;stroke:midnightblue;" points="275.299,-9.5125 265,-12 274.602,-16.4778 275.299,-9.5125"/>
</g>
<!-- Node26&#45;&gt;Node21 -->
<g id="edge98" class="edge"><title>Node26&#45;&gt;Node21</title>
<path style="fill:none;stroke:midnightblue;" d="M1426,-174C1466,-164 1524,-149 1565,-139"/>
<polygon style="fill:midnightblue;stroke:midnightblue;" points="1565.88,-142.393 1575,-137 1564.51,-135.529 1565.88,-142.393"/>
</g>
<!-- Node27 -->
<g id="node73" class="node"><title>Node27</title>
<a xlink:href="_t_c_p_connected_client_8h.html" target="_top" xlink:title="TCPConnectedClient.h">
<polygon style="fill:white;stroke:black;" points="1377,-116 1377,-137 1516,-137 1516,-116 1377,-116"/>
<text text-anchor="middle" x="1446" y="-123" style="font-family:Arial;font-size:10.00;">TCPConnectedClient.h</text>
</a>
</g>
<!-- Node26&#45;&gt;Node27 -->
<g id="edge92" class="edge"><title>Node26&#45;&gt;Node27</title>
<path style="fill:none;stroke:midnightblue;" d="M1394,-174C1403,-165 1416,-153 1427,-144"/>
<polygon style="fill:midnightblue;stroke:midnightblue;" points="1429.78,-146.219 1435,-137 1425.17,-140.951 1429.78,-146.219"/>
</g>
<!-- Node28 -->
<g id="node78" class="node"><title>Node28</title>
<a xlink:href="_semaphore_8h.html" target="_top" xlink:title="Semaphore.h">
<polygon style="fill:white;stroke:black;" points="1221,-116 1221,-137 1311,-137 1311,-116 1221,-116"/>
<text text-anchor="middle" x="1266" y="-123" style="font-family:Arial;font-size:10.00;">Semaphore.h</text>
</a>
</g>
<!-- Node26&#45;&gt;Node28 -->
<g id="edge100" class="edge"><title>Node26&#45;&gt;Node28</title>
<path style="fill:none;stroke:midnightblue;" d="M1359,-174C1341,-165 1315,-151 1295,-142"/>
<polygon style="fill:midnightblue;stroke:midnightblue;" points="1296.44,-138.797 1286,-137 1293.04,-144.916 1296.44,-138.797"/>
</g>
<!-- Node27&#45;&gt;Node23 -->
<g id="edge94" class="edge"><title>Node27&#45;&gt;Node23</title>
<path style="fill:none;stroke:midnightblue;" d="M1446,-116C1446,-108 1446,-98 1446,-89"/>
<polygon style="fill:midnightblue;stroke:midnightblue;" points="1449.49,-89.2987 1447,-79 1442.52,-88.6021 1449.49,-89.2987"/>
</g>
<!-- Node27&#45;&gt;Node25 -->
<g id="edge96" class="edge"><title>Node27&#45;&gt;Node25</title>
<path style="fill:none;stroke:midnightblue;" d="M1427,-116C1412,-107 1390,-94 1373,-84"/>
<polygon style="fill:midnightblue;stroke:midnightblue;" points="1374.44,-80.7969 1364,-79 1371.04,-86.916 1374.44,-80.7969"/>
</g>
<!-- Node28&#45;&gt;Node24 -->
<g id="edge102" class="edge"><title>Node28&#45;&gt;Node24</title>
<path style="fill:none;stroke:midnightblue;" d="M1270,-116C1275,-101 1285,-76 1300,-58 1310,-46 1323,-35 1335,-27"/>
<polygon style="fill:midnightblue;stroke:midnightblue;" points="1337.1,-29.8 1343,-21 1332.9,-24.2 1337.1,-29.8"/>
</g>
<!-- Node29&#45;&gt;Node24 -->
<g id="edge110" class="edge"><title>Node29&#45;&gt;Node24</title>
<path style="fill:none;stroke:midnightblue;" d="M1078,-290C1081,-269 1086,-223 1086,-185 1086,-185 1086,-185 1086,-127 1086,-76 1241,-37 1318,-19"/>
<polygon style="fill:midnightblue;stroke:midnightblue;" points="1318.88,-22.3933 1328,-17 1317.51,-15.5292 1318.88,-22.3933"/>
</g>
<!-- Node29&#45;&gt;Node28 -->
<g id="edge112" class="edge"><title>Node29&#45;&gt;Node28</title>
<path style="fill:none;stroke:midnightblue;" d="M1089,-290C1122,-260 1208,-180 1247,-144"/>
<polygon style="fill:midnightblue;stroke:midnightblue;" points="1249.78,-146.219 1255,-137 1245.17,-140.951 1249.78,-146.219"/>
</g>
<!-- Node31&#45;&gt;Node3 -->
<g id="edge128" class="edge"><title>Node31&#45;&gt;Node3</title>
<path style="fill:none;stroke:midnightblue;" d="M1373,-369C1319,-390 1189,-437 1120,-461"/>
<polygon style="fill:midnightblue;stroke:midnightblue;" points="1118.57,-457.774 1110,-464 1120.58,-464.479 1118.57,-457.774"/>
</g>
<!-- Node31&#45;&gt;Node20 -->
<g id="edge124" class="edge"><title>Node31&#45;&gt;Node20</title>
<path style="fill:none;stroke:midnightblue;" d="M1412,-348C1423,-339 1439,-327 1452,-317"/>
<polygon style="fill:midnightblue;stroke:midnightblue;" points="1454.1,-319.8 1460,-311 1449.9,-314.2 1454.1,-319.8"/>
</g>
<!-- Node31&#45;&gt;Node24 -->
<g id="edge120" class="edge"><title>Node31&#45;&gt;Node24</title>
<path style="fill:none;stroke:midnightblue;" d="M1453,-348C1538,-331 1689,-293 1689,-243 1689,-243 1689,-243 1689,-127 1689,-66 1491,-30 1402,-16"/>
<polygon style="fill:midnightblue;stroke:midnightblue;" points="1402.3,-12.5125 1392,-15 1401.6,-19.4778 1402.3,-12.5125"/>
</g>
<!-- Node31&#45;&gt;Node26 -->
<g id="edge126" class="edge"><title>Node31&#45;&gt;Node26</title>
<path style="fill:none;stroke:midnightblue;" d="M1396,-348C1393,-319 1386,-242 1383,-205"/>
<polygon style="fill:midnightblue;stroke:midnightblue;" points="1386.48,-204.602 1382,-195 1379.51,-205.299 1386.48,-204.602"/>
</g>
<!-- Node31&#45;&gt;Node28 -->
<g id="edge122" class="edge"><title>Node31&#45;&gt;Node28</title>
<path style="fill:none;stroke:midnightblue;" d="M1386,-348C1361,-323 1302,-261 1276,-196 1270,-180 1267,-161 1266,-147"/>
<polygon style="fill:midnightblue;stroke:midnightblue;" points="1269.5,-147 1266,-137 1262.5,-147 1269.5,-147"/>
</g>
</g>
</svg>
