<?xml version="1.0" encoding="UTF-8" standalone="no"?>
<!DOCTYPE svg PUBLIC "-//W3C//DTD SVG 1.0//EN"
 "http://www.w3.org/TR/2001/REC-SVG-20010904/DTD/svg10.dtd" [
 <!ATTLIST svg xmlns:xlink CDATA #FIXED "http://www.w3.org/1999/xlink">
]>
<!-- Generated by Graphviz version 2.14.1 (Fri Nov  9 08:19:38 GMT 2007)
     For user: (asakyurek) Alper Sinan Akyurek -->
<!-- Title: ControlReceiveHandler Pages: 1 -->
<svg width="778pt" height="28pt"
 viewBox="0.00 0.00 778.00 28.00" xmlns="http://www.w3.org/2000/svg" xmlns:xlink="http://www.w3.org/1999/xlink">
<g id="graph0" class="graph" transform="scale(1 1) rotate(0) translate(4 24)">
<title>ControlReceiveHandler</title>
<polygon style="fill:white;stroke:white;" points="-4,4 -4,-24 774,-24 774,4 -4,4"/>
<!-- Node1 -->
<g id="node1" class="node"><title>Node1</title>
<polygon style="fill:#bfbfbf;stroke:black;" points="0,1 0,-20 142,-20 142,1 0,1"/>
<text text-anchor="middle" x="71" y="-6" style="font-family:Arial;font-size:10.00;">ControlReceiveHandler</text>
</g>
<!-- Node2 -->
<g id="node3" class="node"><title>Node2</title>
<a xlink:href="class_control_manager.html#a67d548535b36a78e315a0aa5f9f8e6c8" target="_top" xlink:title="ControlManager::SetClient">
<polygon style="fill:white;stroke:black;" points="178,1 178,-20 338,-20 338,1 178,1"/>
<text text-anchor="middle" x="258" y="-6" style="font-family:Arial;font-size:10.00;">ControlManager::SetClient</text>
</a>
</g>
<!-- Node1&#45;&gt;Node2 -->
<g id="edge2" class="edge"><title>Node1&#45;&gt;Node2</title>
<path style="fill:none;stroke:midnightblue;" d="M152,-10C161,-10 169,-10 178,-10"/>
<polygon style="fill:midnightblue;stroke:midnightblue;" points="152,-6.5001 142,-10 152,-13.5001 152,-6.5001"/>
</g>
<!-- Node3 -->
<g id="node5" class="node"><title>Node3</title>
<a xlink:href="_control_manager_8cpp.html#a5f09b25cf454170e17d1aa3c2707273a" target="_top" xlink:title="ControlNotificationHandler">
<polygon style="fill:white;stroke:black;" points="374,1 374,-20 536,-20 536,1 374,1"/>
<text text-anchor="middle" x="455" y="-6" style="font-family:Arial;font-size:10.00;">ControlNotificationHandler</text>
</a>
</g>
<!-- Node2&#45;&gt;Node3 -->
<g id="edge4" class="edge"><title>Node2&#45;&gt;Node3</title>
<path style="fill:none;stroke:midnightblue;" d="M348,-10C357,-10 365,-10 374,-10"/>
<polygon style="fill:midnightblue;stroke:midnightblue;" points="348,-6.5001 338,-10 348,-13.5001 348,-6.5001"/>
</g>
<!-- Node4 -->
<g id="node7" class="node"><title>Node4</title>
<a xlink:href="class_control_manager.html#ab81bac3e592705b7ca4b23ce473fe26e" target="_top" xlink:title="ControlManager::ControlManager">
<polygon style="fill:white;stroke:black;" points="572,1 572,-20 770,-20 770,1 572,1"/>
<text text-anchor="middle" x="671" y="-6" style="font-family:Arial;font-size:10.00;">ControlManager::ControlManager</text>
</a>
</g>
<!-- Node3&#45;&gt;Node4 -->
<g id="edge6" class="edge"><title>Node3&#45;&gt;Node4</title>
<path style="fill:none;stroke:midnightblue;" d="M546,-10C555,-10 563,-10 572,-10"/>
<polygon style="fill:midnightblue;stroke:midnightblue;" points="546,-6.5001 536,-10 546,-13.5001 546,-6.5001"/>
</g>
</g>
</svg>
