<?xml version="1.0" encoding="UTF-8" standalone="no"?>
<!DOCTYPE svg PUBLIC "-//W3C//DTD SVG 1.0//EN"
 "http://www.w3.org/TR/2001/REC-SVG-20010904/DTD/svg10.dtd" [
 <!ATTLIST svg xmlns:xlink CDATA #FIXED "http://www.w3.org/1999/xlink">
]>
<!-- Generated by Graphviz version 2.14.1 (Fri Nov  9 08:19:38 GMT 2007)
     For user: (asakyurek) Alper Sinan Akyurek -->
<!-- Title: ConnectionReceiveHandler Pages: 1 -->
<svg width="478pt" height="208pt"
 viewBox="0.00 0.00 478.00 208.00" xmlns="http://www.w3.org/2000/svg" xmlns:xlink="http://www.w3.org/1999/xlink">
<g id="graph0" class="graph" transform="scale(1 1) rotate(0) translate(4 204)">
<title>ConnectionReceiveHandler</title>
<polygon style="fill:white;stroke:white;" points="-4,4 -4,-204 474,-204 474,4 -4,4"/>
<!-- Node1 -->
<g id="node1" class="node"><title>Node1</title>
<polygon style="fill:#bfbfbf;stroke:black;" points="1,-89 1,-110 166,-110 166,-89 1,-89"/>
<text text-anchor="middle" x="83" y="-96" style="font-family:Arial;font-size:10.00;">ConnectionReceiveHandler</text>
</g>
<!-- Node2 -->
<g id="node3" class="node"><title>Node2</title>
<a xlink:href="_log_print_8h.html#a7e0c5f42cad5bc3a44134fb9c9a7a052" target="_top" xlink:title="LogPrint">
<polygon style="fill:white;stroke:black;" points="397,-149 397,-170 457,-170 457,-149 397,-149"/>
<text text-anchor="middle" x="427" y="-156" style="font-family:Arial;font-size:10.00;">LogPrint</text>
</a>
</g>
<!-- Node1&#45;&gt;Node2 -->
<g id="edge2" class="edge"><title>Node1&#45;&gt;Node2</title>
<path style="fill:none;stroke:midnightblue;" d="M141,-110C211,-122 326,-143 387,-153"/>
<polygon style="fill:midnightblue;stroke:midnightblue;" points="386.508,-156.471 397,-155 387.881,-149.607 386.508,-156.471"/>
</g>
<!-- Node3 -->
<g id="node5" class="node"><title>Node3</title>
<a xlink:href="_log_print_8h.html#a46ea30a62534f8ce32cd39454e459b23" target="_top" xlink:title="WarningPrint">
<polygon style="fill:white;stroke:black;" points="385,-29 385,-50 470,-50 470,-29 385,-29"/>
<text text-anchor="middle" x="427" y="-36" style="font-family:Arial;font-size:10.00;">WarningPrint</text>
</a>
</g>
<!-- Node1&#45;&gt;Node3 -->
<g id="edge4" class="edge"><title>Node1&#45;&gt;Node3</title>
<path style="fill:none;stroke:midnightblue;" d="M146,-89C211,-78 314,-60 375,-49"/>
<polygon style="fill:midnightblue;stroke:midnightblue;" points="375.881,-52.3933 385,-47 374.508,-45.5292 375.881,-52.3933"/>
</g>
<!-- Node4 -->
<g id="node7" class="node"><title>Node4</title>
<a xlink:href="_connection_manager_8cpp.html#ab88124ce7a3bf1d2892d0e9763d1af30" target="_top" xlink:title="GetConnectionManager">
<polygon style="fill:white;stroke:black;" points="202,-89 202,-110 348,-110 348,-89 202,-89"/>
<text text-anchor="middle" x="275" y="-96" style="font-family:Arial;font-size:10.00;">GetConnectionManager</text>
</a>
</g>
<!-- Node1&#45;&gt;Node4 -->
<g id="edge6" class="edge"><title>Node1&#45;&gt;Node4</title>
<path style="fill:none;stroke:midnightblue;" d="M166,-100C175,-100 183,-100 192,-100"/>
<polygon style="fill:midnightblue;stroke:midnightblue;" points="192,-103.5 202,-100 192,-96.5001 192,-103.5"/>
</g>
<!-- Node5 -->
<g id="node9" class="node"><title>Node5</title>
<a xlink:href="class_connection_manager.html#a64473b0369ab91daf3a2da6b8ef576d0" target="_top" xlink:title="Broken connection handler. ">
<polygon style="fill:white;stroke:black;" points="209,-0 209,-34 342,-34 342,-0 209,-0"/>
<text text-anchor="start" x="217" y="-20" style="font-family:Arial;font-size:10.00;">ConnectionManager::</text>
<text text-anchor="middle" x="275" y="-7" style="font-family:Arial;font-size:10.00;">BrokenConnection</text>
</a>
</g>
<!-- Node1&#45;&gt;Node5 -->
<g id="edge8" class="edge"><title>Node1&#45;&gt;Node5</title>
<path style="fill:none;stroke:midnightblue;" d="M108,-89C132,-78 169,-62 202,-48 210,-44 218,-41 226,-38"/>
<polygon style="fill:midnightblue;stroke:midnightblue;" points="227.283,-41.2598 235,-34 224.44,-34.8631 227.283,-41.2598"/>
</g>
<!-- Node6 -->
<g id="node12" class="node"><title>Node6</title>
<a xlink:href="class_connection_manager.html#a4657b51054ad28143f1bddd1f5cc282c" target="_top" xlink:title="New message processor. ">
<polygon style="fill:white;stroke:black;" points="209,-166 209,-200 342,-200 342,-166 209,-166"/>
<text text-anchor="start" x="217" y="-186" style="font-family:Arial;font-size:10.00;">ConnectionManager::</text>
<text text-anchor="middle" x="275" y="-173" style="font-family:Arial;font-size:10.00;">IncomingMessage</text>
</a>
</g>
<!-- Node1&#45;&gt;Node6 -->
<g id="edge12" class="edge"><title>Node1&#45;&gt;Node6</title>
<path style="fill:none;stroke:midnightblue;" d="M106,-110C130,-121 169,-138 202,-152 210,-155 219,-158 227,-162"/>
<polygon style="fill:midnightblue;stroke:midnightblue;" points="225.44,-165.137 236,-166 228.283,-158.74 225.44,-165.137"/>
</g>
<!-- Node5&#45;&gt;Node3 -->
<g id="edge10" class="edge"><title>Node5&#45;&gt;Node3</title>
<path style="fill:none;stroke:midnightblue;" d="M342,-27C353,-29 364,-30 375,-32"/>
<polygon style="fill:midnightblue;stroke:midnightblue;" points="374.701,-35.4875 385,-33 375.398,-28.5222 374.701,-35.4875"/>
</g>
<!-- Node6&#45;&gt;Node2 -->
<g id="edge14" class="edge"><title>Node6&#45;&gt;Node2</title>
<path style="fill:none;stroke:midnightblue;" d="M342,-173C357,-171 373,-168 387,-166"/>
<polygon style="fill:midnightblue;stroke:midnightblue;" points="387.398,-169.478 397,-165 386.701,-162.512 387.398,-169.478"/>
</g>
</g>
</svg>
