<?xml version="1.0" encoding="UTF-8" standalone="no"?>
<!DOCTYPE svg PUBLIC "-//W3C//DTD SVG 1.0//EN"
 "http://www.w3.org/TR/2001/REC-SVG-20010904/DTD/svg10.dtd" [
 <!ATTLIST svg xmlns:xlink CDATA #FIXED "http://www.w3.org/1999/xlink">
]>
<!-- Generated by Graphviz version 2.14.1 (Fri Nov  9 08:19:38 GMT 2007)
     For user: (asakyurek) Alper Sinan Akyurek -->
<!-- Title: ConnectionReceiveHandler Pages: 1 -->
<svg width="566pt" height="42pt"
 viewBox="0.00 0.00 566.00 42.00" xmlns="http://www.w3.org/2000/svg" xmlns:xlink="http://www.w3.org/1999/xlink">
<g id="graph0" class="graph" transform="scale(1 1) rotate(0) translate(4 38)">
<title>ConnectionReceiveHandler</title>
<polygon style="fill:white;stroke:white;" points="-4,4 -4,-38 562,-38 562,4 -4,4"/>
<!-- Node1 -->
<g id="node1" class="node"><title>Node1</title>
<polygon style="fill:#bfbfbf;stroke:black;" points="1,-6 1,-27 166,-27 166,-6 1,-6"/>
<text text-anchor="middle" x="83" y="-13" style="font-family:Arial;font-size:10.00;">ConnectionReceiveHandler</text>
</g>
<!-- Node2 -->
<g id="node3" class="node"><title>Node2</title>
<a xlink:href="_connection_manager_8cpp.html#a510f5a0926d162b7f546fcf5b8f054e8" target="_top" xlink:title="ConnectionNotificationHandler">
<polygon style="fill:white;stroke:black;" points="203,-6 203,-27 388,-27 388,-6 203,-6"/>
<text text-anchor="middle" x="295" y="-13" style="font-family:Arial;font-size:10.00;">ConnectionNotificationHandler</text>
</a>
</g>
<!-- Node1&#45;&gt;Node2 -->
<g id="edge2" class="edge"><title>Node1&#45;&gt;Node2</title>
<path style="fill:none;stroke:midnightblue;" d="M176,-17C185,-17 194,-17 203,-17"/>
<polygon style="fill:midnightblue;stroke:midnightblue;" points="176,-13.5001 166,-17 176,-20.5001 176,-13.5001"/>
</g>
<!-- Node3 -->
<g id="node5" class="node"><title>Node3</title>
<a xlink:href="class_connection_manager.html#a7928f3e95b4e88b01c11eaf3e8089ee7" target="_top" xlink:title="ConnectionManager::\lConnectionManager">
<polygon style="fill:white;stroke:black;" points="425,-0 425,-34 558,-34 558,-0 425,-0"/>
<text text-anchor="start" x="433" y="-20" style="font-family:Arial;font-size:10.00;">ConnectionManager::</text>
<text text-anchor="middle" x="491" y="-7" style="font-family:Arial;font-size:10.00;">ConnectionManager</text>
</a>
</g>
<!-- Node2&#45;&gt;Node3 -->
<g id="edge4" class="edge"><title>Node2&#45;&gt;Node3</title>
<path style="fill:none;stroke:midnightblue;" d="M398,-17C407,-17 416,-17 425,-17"/>
<polygon style="fill:midnightblue;stroke:midnightblue;" points="398,-13.5001 388,-17 398,-20.5001 398,-13.5001"/>
</g>
</g>
</svg>
