<?xml version="1.0" encoding="UTF-8" standalone="no"?>
<!DOCTYPE svg PUBLIC "-//W3C//DTD SVG 1.0//EN"
 "http://www.w3.org/TR/2001/REC-SVG-20010904/DTD/svg10.dtd" [
 <!ATTLIST svg xmlns:xlink CDATA #FIXED "http://www.w3.org/1999/xlink">
]>
<!-- Generated by Graphviz version 2.14.1 (Fri Nov  9 08:19:38 GMT 2007)
     For user: (asakyurek) Alper Sinan Akyurek -->
<!-- Title: S2Sim/TerraswarmLibrary/DemandNegotiation.cpp Pages: 1 -->
<svg width="275pt" height="332pt"
 viewBox="0.00 0.00 275.00 332.00" xmlns="http://www.w3.org/2000/svg" xmlns:xlink="http://www.w3.org/1999/xlink">
<g id="graph0" class="graph" transform="scale(1 1) rotate(0) translate(4 328)">
<title>S2Sim/TerraswarmLibrary/DemandNegotiation.cpp</title>
<polygon style="fill:white;stroke:white;" points="-4,4 -4,-328 271,-328 271,4 -4,4"/>
<!-- Node1 -->
<g id="node1" class="node"><title>Node1</title>
<polygon style="fill:#bfbfbf;stroke:black;" points="0,-290 0,-324 153,-324 153,-290 0,-290"/>
<text text-anchor="start" x="8" y="-310" style="font-family:Arial;font-size:10.00;">S2Sim/TerraswarmLibrary</text>
<text text-anchor="middle" x="76" y="-297" style="font-family:Arial;font-size:10.00;">/DemandNegotiation.cpp</text>
</g>
<!-- Node2 -->
<g id="node3" class="node"><title>Node2</title>
<a xlink:href="_demand_negotiation_8h.html" target="_top" xlink:title="DemandNegotiation.h">
<polygon style="fill:white;stroke:black;" points="8,-232 8,-253 145,-253 145,-232 8,-232"/>
<text text-anchor="middle" x="76" y="-239" style="font-family:Arial;font-size:10.00;">DemandNegotiation.h</text>
</a>
</g>
<!-- Node1&#45;&gt;Node2 -->
<g id="edge2" class="edge"><title>Node1&#45;&gt;Node2</title>
<path style="fill:none;stroke:midnightblue;" d="M76,-290C76,-282 76,-272 76,-263"/>
<polygon style="fill:midnightblue;stroke:midnightblue;" points="79.5001,-263 76,-253 72.5001,-263 79.5001,-263"/>
</g>
<!-- Node3 -->
<g id="node5" class="node"><title>Node3</title>
<a xlink:href="_message_header_8h.html" target="_top" xlink:title="MessageHeader.h">
<polygon style="fill:white;stroke:black;" points="43,-116 43,-137 156,-137 156,-116 43,-116"/>
<text text-anchor="middle" x="99" y="-123" style="font-family:Arial;font-size:10.00;">MessageHeader.h</text>
</a>
</g>
<!-- Node2&#45;&gt;Node3 -->
<g id="edge4" class="edge"><title>Node2&#45;&gt;Node3</title>
<path style="fill:none;stroke:midnightblue;" d="M78,-232C82,-213 90,-172 95,-147"/>
<polygon style="fill:midnightblue;stroke:midnightblue;" points="98.4708,-147.492 97,-137 91.6067,-146.119 98.4708,-147.492"/>
</g>
<!-- Node5 -->
<g id="node9" class="node"><title>Node5</title>
<polygon style="fill:white;stroke:#bfbfbf;" points="0,-0 0,-21 56,-21 56,-0 0,-0"/>
<text text-anchor="middle" x="28" y="-7" style="font-family:Arial;font-size:10.00;">string.h</text>
</g>
<!-- Node2&#45;&gt;Node5 -->
<g id="edge20" class="edge"><title>Node2&#45;&gt;Node5</title>
<path style="fill:none;stroke:midnightblue;" d="M70,-232C60,-213 41,-174 34,-138 27,-101 27,-57 27,-31"/>
<polygon style="fill:midnightblue;stroke:midnightblue;" points="30.5001,-31 27,-21 23.5001,-31 30.5001,-31"/>
</g>
<!-- Node8 -->
<g id="node15" class="node"><title>Node8</title>
<a xlink:href="_message_ender_8h.html" target="_top" xlink:title="MessageEnder.h">
<polygon style="fill:white;stroke:black;" points="104,-174 104,-195 208,-195 208,-174 104,-174"/>
<text text-anchor="middle" x="156" y="-181" style="font-family:Arial;font-size:10.00;">MessageEnder.h</text>
</a>
</g>
<!-- Node2&#45;&gt;Node8 -->
<g id="edge14" class="edge"><title>Node2&#45;&gt;Node8</title>
<path style="fill:none;stroke:midnightblue;" d="M91,-232C103,-223 120,-211 134,-201"/>
<polygon style="fill:midnightblue;stroke:midnightblue;" points="136.1,-203.8 142,-195 131.9,-198.2 136.1,-203.8"/>
</g>
<!-- Node4 -->
<g id="node7" class="node"><title>Node4</title>
<a xlink:href="_network_byte_accessor_8h.html" target="_top" xlink:title="NetworkByteAccessor.h">
<polygon style="fill:white;stroke:black;" points="107,-58 107,-79 248,-79 248,-58 107,-58"/>
<text text-anchor="middle" x="177" y="-65" style="font-family:Arial;font-size:10.00;">NetworkByteAccessor.h</text>
</a>
</g>
<!-- Node3&#45;&gt;Node4 -->
<g id="edge6" class="edge"><title>Node3&#45;&gt;Node4</title>
<path style="fill:none;stroke:midnightblue;" d="M114,-116C126,-107 143,-95 156,-85"/>
<polygon style="fill:midnightblue;stroke:midnightblue;" points="158.1,-87.8 164,-79 153.9,-82.2 158.1,-87.8"/>
</g>
<!-- Node7 -->
<g id="node13" class="node"><title>Node7</title>
<polygon style="fill:white;stroke:#bfbfbf;" points="49,-58 49,-79 90,-79 90,-58 49,-58"/>
<text text-anchor="middle" x="69" y="-65" style="font-family:Arial;font-size:10.00;">map</text>
</g>
<!-- Node3&#45;&gt;Node7 -->
<g id="edge12" class="edge"><title>Node3&#45;&gt;Node7</title>
<path style="fill:none;stroke:midnightblue;" d="M93,-116C89,-108 83,-97 79,-88"/>
<polygon style="fill:midnightblue;stroke:midnightblue;" points="81.916,-86.0418 74,-79 75.7969,-89.4414 81.916,-86.0418"/>
</g>
<!-- Node4&#45;&gt;Node5 -->
<g id="edge8" class="edge"><title>Node4&#45;&gt;Node5</title>
<path style="fill:none;stroke:midnightblue;" d="M149,-58C124,-48 89,-35 63,-25"/>
<polygon style="fill:midnightblue;stroke:midnightblue;" points="64.5596,-21.8631 54,-21 61.7166,-28.2598 64.5596,-21.8631"/>
</g>
<!-- Node6 -->
<g id="node11" class="node"><title>Node6</title>
<a xlink:href="_compile_time_checker_library_8h.html" target="_top" xlink:title="CompileTimeCheckerLibrary.h">
<polygon style="fill:white;stroke:black;" points="87,-0 87,-21 268,-21 268,-0 87,-0"/>
<text text-anchor="middle" x="177" y="-7" style="font-family:Arial;font-size:10.00;">CompileTimeCheckerLibrary.h</text>
</a>
</g>
<!-- Node4&#45;&gt;Node6 -->
<g id="edge10" class="edge"><title>Node4&#45;&gt;Node6</title>
<path style="fill:none;stroke:midnightblue;" d="M177,-58C177,-50 177,-40 177,-31"/>
<polygon style="fill:midnightblue;stroke:midnightblue;" points="180.5,-31 177,-21 173.5,-31 180.5,-31"/>
</g>
<!-- Node8&#45;&gt;Node3 -->
<g id="edge16" class="edge"><title>Node8&#45;&gt;Node3</title>
<path style="fill:none;stroke:midnightblue;" d="M145,-174C136,-165 125,-154 116,-144"/>
<polygon style="fill:midnightblue;stroke:midnightblue;" points="118.546,-141.596 109,-137 113.596,-146.546 118.546,-141.596"/>
</g>
<!-- Node8&#45;&gt;Node4 -->
<g id="edge18" class="edge"><title>Node8&#45;&gt;Node4</title>
<path style="fill:none;stroke:midnightblue;" d="M158,-174C161,-155 169,-114 173,-89"/>
<polygon style="fill:midnightblue;stroke:midnightblue;" points="176.471,-89.4922 175,-79 169.607,-88.1194 176.471,-89.4922"/>
</g>
</g>
</svg>
