<?xml version="1.0" encoding="UTF-8" standalone="no"?>
<!DOCTYPE svg PUBLIC "-//W3C//DTD SVG 1.0//EN"
 "http://www.w3.org/TR/2001/REC-SVG-20010904/DTD/svg10.dtd" [
 <!ATTLIST svg xmlns:xlink CDATA #FIXED "http://www.w3.org/1999/xlink">
]>
<!-- Generated by Graphviz version 2.14.1 (Fri Nov  9 08:19:38 GMT 2007)
     For user: (asakyurek) Alper Sinan Akyurek -->
<!-- Title: S2Sim/SocketLibrary/IPAddress.h Pages: 1 -->
<svg width="985pt" height="682pt"
 viewBox="0.00 0.00 985.00 682.00" xmlns="http://www.w3.org/2000/svg" xmlns:xlink="http://www.w3.org/1999/xlink">
<g id="graph0" class="graph" transform="scale(1 1) rotate(0) translate(4 678)">
<title>S2Sim/SocketLibrary/IPAddress.h</title>
<polygon style="fill:white;stroke:white;" points="-4,4 -4,-678 981,-678 981,4 -4,4"/>
<!-- Node1 -->
<g id="node1" class="node"><title>Node1</title>
<polygon style="fill:#bfbfbf;stroke:black;" points="406,-640 406,-674 533,-674 533,-640 406,-640"/>
<text text-anchor="start" x="414" y="-660" style="font-family:Arial;font-size:10.00;">S2Sim/SocketLibrary</text>
<text text-anchor="middle" x="469" y="-647" style="font-family:Arial;font-size:10.00;">/IPAddress.h</text>
</g>
<!-- Node2 -->
<g id="node3" class="node"><title>Node2</title>
<a xlink:href="_i_p_address_8cpp.html" target="_top" xlink:title="Implements the IPAddress class. ">
<polygon style="fill:white;stroke:black;" points="105,-570 105,-604 232,-604 232,-570 105,-570"/>
<text text-anchor="start" x="113" y="-590" style="font-family:Arial;font-size:10.00;">S2Sim/SocketLibrary</text>
<text text-anchor="middle" x="168" y="-577" style="font-family:Arial;font-size:10.00;">/IPAddress.cpp</text>
</a>
</g>
<!-- Node1&#45;&gt;Node2 -->
<g id="edge2" class="edge"><title>Node1&#45;&gt;Node2</title>
<path style="fill:none;stroke:midnightblue;" d="M396,-640C351,-629 292,-616 240,-604 237,-603 235,-603 232,-602"/>
<polygon style="fill:midnightblue;stroke:midnightblue;" points="395.508,-643.471 406,-642 396.881,-636.607 395.508,-643.471"/>
</g>
<!-- Node3 -->
<g id="node5" class="node"><title>Node3</title>
<a xlink:href="_t_c_p_client_8h.html" target="_top" xlink:title="Defines the TCPClient class. ">
<polygon style="fill:white;stroke:black;" points="249,-570 249,-604 376,-604 376,-570 249,-570"/>
<text text-anchor="start" x="257" y="-590" style="font-family:Arial;font-size:10.00;">S2Sim/SocketLibrary</text>
<text text-anchor="middle" x="312" y="-577" style="font-family:Arial;font-size:10.00;">/TCPClient.h</text>
</a>
</g>
<!-- Node1&#45;&gt;Node3 -->
<g id="edge4" class="edge"><title>Node1&#45;&gt;Node3</title>
<path style="fill:none;stroke:midnightblue;" d="M422,-636C399,-626 372,-614 350,-604"/>
<polygon style="fill:midnightblue;stroke:midnightblue;" points="420.44,-639.137 431,-640 423.283,-632.74 420.44,-639.137"/>
</g>
<!-- Node7 -->
<g id="node13" class="node"><title>Node7</title>
<a xlink:href="_t_c_p_connected_client_8h.html" target="_top" xlink:title="Defines the TCPConnectedClient class. ">
<polygon style="fill:white;stroke:black;" points="398,-570 398,-604 540,-604 540,-570 398,-570"/>
<text text-anchor="start" x="406" y="-590" style="font-family:Arial;font-size:10.00;">S2Sim/SocketLibrary</text>
<text text-anchor="middle" x="469" y="-577" style="font-family:Arial;font-size:10.00;">/TCPConnectedClient.h</text>
</a>
</g>
<!-- Node1&#45;&gt;Node7 -->
<g id="edge12" class="edge"><title>Node1&#45;&gt;Node7</title>
<path style="fill:none;stroke:midnightblue;" d="M469,-630C469,-621 469,-612 469,-604"/>
<polygon style="fill:midnightblue;stroke:midnightblue;" points="465.5,-630 469,-640 472.5,-630 465.5,-630"/>
</g>
<!-- Node21 -->
<g id="node55" class="node"><title>Node21</title>
<a xlink:href="_t_c_p_server_8h.html" target="_top" xlink:title="Defines the TCPServer class. ">
<polygon style="fill:white;stroke:black;" points="801,-430 801,-464 928,-464 928,-430 801,-430"/>
<text text-anchor="start" x="809" y="-450" style="font-family:Arial;font-size:10.00;">S2Sim/SocketLibrary</text>
<text text-anchor="middle" x="864" y="-437" style="font-family:Arial;font-size:10.00;">/TCPServer.h</text>
</a>
</g>
<!-- Node1&#45;&gt;Node21 -->
<g id="edge86" class="edge"><title>Node1&#45;&gt;Node21</title>
<path style="fill:none;stroke:midnightblue;" d="M510,-635C552,-611 618,-573 671,-534 689,-520 689,-511 709,-500 737,-483 772,-471 801,-462"/>
<polygon style="fill:midnightblue;stroke:midnightblue;" points="508.042,-632.084 501,-640 511.441,-638.203 508.042,-632.084"/>
</g>
<!-- Node26 -->
<g id="node70" class="node"><title>Node26</title>
<a xlink:href="_u_d_p_socket_8h.html" target="_top" xlink:title="Defines the UDPSocket class. ">
<polygon style="fill:white;stroke:black;" points="718,-570 718,-604 845,-604 845,-570 718,-570"/>
<text text-anchor="start" x="726" y="-590" style="font-family:Arial;font-size:10.00;">S2Sim/SocketLibrary</text>
<text text-anchor="middle" x="781" y="-577" style="font-family:Arial;font-size:10.00;">/UDPSocket.h</text>
</a>
</g>
<!-- Node1&#45;&gt;Node26 -->
<g id="edge88" class="edge"><title>Node1&#45;&gt;Node26</title>
<path style="fill:none;stroke:midnightblue;" d="M543,-641C596,-629 667,-612 718,-601"/>
<polygon style="fill:midnightblue;stroke:midnightblue;" points="542.119,-637.607 533,-643 543.492,-644.471 542.119,-637.607"/>
</g>
<!-- Node4 -->
<g id="node7" class="node"><title>Node4</title>
<a xlink:href="_t_c_p_client_8cpp.html" target="_top" xlink:title="Implements the TCPClient class. ">
<polygon style="fill:white;stroke:black;" points="0,-500 0,-534 127,-534 127,-500 0,-500"/>
<text text-anchor="start" x="8" y="-520" style="font-family:Arial;font-size:10.00;">S2Sim/SocketLibrary</text>
<text text-anchor="middle" x="63" y="-507" style="font-family:Arial;font-size:10.00;">/TCPClient.cpp</text>
</a>
</g>
<!-- Node3&#45;&gt;Node4 -->
<g id="edge6" class="edge"><title>Node3&#45;&gt;Node4</title>
<path style="fill:none;stroke:midnightblue;" d="M241,-567C204,-557 160,-544 124,-534"/>
<polygon style="fill:midnightblue;stroke:midnightblue;" points="240.416,-570.479 251,-570 242.427,-563.774 240.416,-570.479"/>
</g>
<!-- Node5 -->
<g id="node9" class="node"><title>Node5</title>
<a xlink:href="_threaded_t_c_p_client_8h.html" target="_top" xlink:title="Defines the ThreadedTCPClient class. ">
<polygon style="fill:white;stroke:black;" points="144,-500 144,-534 279,-534 279,-500 144,-500"/>
<text text-anchor="start" x="152" y="-520" style="font-family:Arial;font-size:10.00;">S2Sim/SocketLibrary</text>
<text text-anchor="middle" x="211" y="-507" style="font-family:Arial;font-size:10.00;">/ThreadedTCPClient.h</text>
</a>
</g>
<!-- Node3&#45;&gt;Node5 -->
<g id="edge8" class="edge"><title>Node3&#45;&gt;Node5</title>
<path style="fill:none;stroke:midnightblue;" d="M278,-564C264,-554 248,-543 236,-534"/>
<polygon style="fill:midnightblue;stroke:midnightblue;" points="276.738,-567.365 287,-570 280.621,-561.541 276.738,-567.365"/>
</g>
<!-- Node6 -->
<g id="node11" class="node"><title>Node6</title>
<a xlink:href="_threaded_t_c_p_client_8cpp.html" target="_top" xlink:title="Implements the ThreadedTCPClient class. ">
<polygon style="fill:white;stroke:black;" points="105,-430 105,-464 253,-464 253,-430 105,-430"/>
<text text-anchor="start" x="113" y="-450" style="font-family:Arial;font-size:10.00;">S2Sim/SocketLibrary</text>
<text text-anchor="middle" x="179" y="-437" style="font-family:Arial;font-size:10.00;">/ThreadedTCPClient.cpp</text>
</a>
</g>
<!-- Node5&#45;&gt;Node6 -->
<g id="edge10" class="edge"><title>Node5&#45;&gt;Node6</title>
<path style="fill:none;stroke:midnightblue;" d="M199,-491C195,-482 191,-472 187,-464"/>
<polygon style="fill:midnightblue;stroke:midnightblue;" points="195.74,-492.283 203,-500 202.137,-489.44 195.74,-492.283"/>
</g>
<!-- Node8 -->
<g id="node15" class="node"><title>Node8</title>
<a xlink:href="_t_c_p_connected_client_8cpp.html" target="_top" xlink:title="Implements the TCPConnectedClient class. ">
<polygon style="fill:white;stroke:black;" points="296,-500 296,-534 451,-534 451,-500 296,-500"/>
<text text-anchor="start" x="304" y="-520" style="font-family:Arial;font-size:10.00;">S2Sim/SocketLibrary</text>
<text text-anchor="middle" x="373" y="-507" style="font-family:Arial;font-size:10.00;">/TCPConnectedClient.cpp</text>
</a>
</g>
<!-- Node7&#45;&gt;Node8 -->
<g id="edge14" class="edge"><title>Node7&#45;&gt;Node8</title>
<path style="fill:none;stroke:midnightblue;" d="M437,-564C423,-554 408,-543 396,-534"/>
<polygon style="fill:midnightblue;stroke:midnightblue;" points="434.9,-566.8 445,-570 439.1,-561.2 434.9,-566.8"/>
</g>
<!-- Node9 -->
<g id="node17" class="node"><title>Node9</title>
<a xlink:href="_threaded_t_c_p_connected_client_8h.html" target="_top" xlink:title="Defeines the ThreadedTCPConnectedClient class. ">
<polygon style="fill:white;stroke:black;" points="468,-500 468,-534 663,-534 663,-500 468,-500"/>
<text text-anchor="start" x="476" y="-520" style="font-family:Arial;font-size:10.00;">S2Sim/SocketLibrary</text>
<text text-anchor="middle" x="565" y="-507" style="font-family:Arial;font-size:10.00;">/ThreadedTCPConnectedClient.h</text>
</a>
</g>
<!-- Node7&#45;&gt;Node9 -->
<g id="edge16" class="edge"><title>Node7&#45;&gt;Node9</title>
<path style="fill:none;stroke:midnightblue;" d="M501,-564C515,-554 530,-543 542,-534"/>
<polygon style="fill:midnightblue;stroke:midnightblue;" points="498.9,-561.2 493,-570 503.1,-566.8 498.9,-561.2"/>
</g>
<!-- Node10 -->
<g id="node19" class="node"><title>Node10</title>
<a xlink:href="_connection_manager_8h.html" target="_top" xlink:title="This file defines the ConnectionManager class. ">
<polygon style="fill:white;stroke:black;" points="591,-296 591,-317 765,-317 765,-296 591,-296"/>
<text text-anchor="middle" x="678" y="-303" style="font-family:Arial;font-size:10.00;">S2Sim/ConnectionManager.h</text>
</a>
</g>
<!-- Node9&#45;&gt;Node10 -->
<g id="edge18" class="edge"><title>Node9&#45;&gt;Node10</title>
<path style="fill:none;stroke:midnightblue;" d="M640,-496C655,-488 669,-478 678,-464 708,-417 690,-344 681,-317"/>
<polygon style="fill:midnightblue;stroke:midnightblue;" points="638.717,-492.74 631,-500 641.56,-499.137 638.717,-492.74"/>
</g>
<!-- Node11 -->
<g id="node21" class="node"><title>Node11</title>
<a xlink:href="_client_manager_8h.html" target="_top" xlink:title="Header file for the ClientManager class. ">
<polygon style="fill:white;stroke:black;" points="763,-232 763,-253 906,-253 906,-232 763,-232"/>
<text text-anchor="middle" x="834" y="-239" style="font-family:Arial;font-size:10.00;">S2Sim/ClientManager.h</text>
</a>
</g>
<!-- Node9&#45;&gt;Node11 -->
<g id="edge66" class="edge"><title>Node9&#45;&gt;Node11</title>
<path style="fill:none;stroke:midnightblue;" d="M638,-496C658,-489 679,-478 696,-464 770,-401 817,-288 830,-253"/>
<polygon style="fill:midnightblue;stroke:midnightblue;" points="636.717,-492.74 629,-500 639.56,-499.137 636.717,-492.74"/>
</g>
<!-- Node14 -->
<g id="node28" class="node"><title>Node14</title>
<a xlink:href="_matlab_manager_8h.html" target="_top" xlink:title="Defines the MatlabManager class. ">
<polygon style="fill:white;stroke:black;" points="477,-58 477,-79 625,-79 625,-58 477,-58"/>
<text text-anchor="middle" x="551" y="-65" style="font-family:Arial;font-size:10.00;">S2Sim/MatlabManager.h</text>
</a>
</g>
<!-- Node9&#45;&gt;Node14 -->
<g id="edge62" class="edge"><title>Node9&#45;&gt;Node14</title>
<path style="fill:none;stroke:midnightblue;" d="M493,-497C410,-471 281,-424 281,-377 281,-377 281,-377 281,-185 281,-135 325,-138 369,-116 405,-98 448,-86 484,-79"/>
<polygon style="fill:midnightblue;stroke:midnightblue;" points="492.416,-500.479 503,-500 494.427,-493.774 492.416,-500.479"/>
</g>
<!-- Node15 -->
<g id="node32" class="node"><title>Node15</title>
<a xlink:href="_control_manager_8h.html" target="_top" xlink:title="This file defines the ControlManager class. ">
<polygon style="fill:white;stroke:black;" points="437,-174 437,-195 588,-195 588,-174 437,-174"/>
<text text-anchor="middle" x="512" y="-181" style="font-family:Arial;font-size:10.00;">S2Sim/ControlManager.h</text>
</a>
</g>
<!-- Node9&#45;&gt;Node15 -->
<g id="edge64" class="edge"><title>Node9&#45;&gt;Node15</title>
<path style="fill:none;stroke:midnightblue;" d="M491,-496C473,-488 454,-478 440,-464 390,-416 390,-390 376,-324 372,-309 369,-303 376,-290 399,-242 455,-210 488,-195"/>
<polygon style="fill:midnightblue;stroke:midnightblue;" points="489.44,-499.137 500,-500 492.283,-492.74 489.44,-499.137"/>
</g>
<!-- Node9&#45;&gt;Node21 -->
<g id="edge68" class="edge"><title>Node9&#45;&gt;Node21</title>
<path style="fill:none;stroke:midnightblue;" d="M648,-498C696,-486 756,-472 801,-462"/>
<polygon style="fill:midnightblue;stroke:midnightblue;" points="647.119,-494.607 638,-500 648.492,-501.471 647.119,-494.607"/>
</g>
<!-- Node23 -->
<g id="node59" class="node"><title>Node23</title>
<a xlink:href="_threaded_t_c_p_server_8h.html" target="_top" xlink:title="Defines the ThreadedTCPServer class. ">
<polygon style="fill:white;stroke:black;" points="442,-360 442,-394 580,-394 580,-360 442,-360"/>
<text text-anchor="start" x="450" y="-380" style="font-family:Arial;font-size:10.00;">S2Sim/SocketLibrary</text>
<text text-anchor="middle" x="511" y="-367" style="font-family:Arial;font-size:10.00;">/ThreadedTCPServer.h</text>
</a>
</g>
<!-- Node9&#45;&gt;Node23 -->
<g id="edge84" class="edge"><title>Node9&#45;&gt;Node23</title>
<path style="fill:none;stroke:midnightblue;" d="M489,-496C474,-488 460,-478 452,-464 443,-451 445,-443 452,-430 458,-415 471,-403 483,-394"/>
<polygon style="fill:midnightblue;stroke:midnightblue;" points="487.44,-499.137 498,-500 490.283,-492.74 487.44,-499.137"/>
</g>
<!-- Node25 -->
<g id="node66" class="node"><title>Node25</title>
<a xlink:href="_threaded_t_c_p_connected_client_8cpp.html" target="_top" xlink:title="Implements the ThreadedTCPConnectedClient class. ">
<polygon style="fill:white;stroke:black;" points="461,-430 461,-464 669,-464 669,-430 461,-430"/>
<text text-anchor="start" x="469" y="-450" style="font-family:Arial;font-size:10.00;">S2Sim/SocketLibrary</text>
<text text-anchor="middle" x="565" y="-437" style="font-family:Arial;font-size:10.00;">/ThreadedTCPConnectedClient.cpp</text>
</a>
</g>
<!-- Node9&#45;&gt;Node25 -->
<g id="edge82" class="edge"><title>Node9&#45;&gt;Node25</title>
<path style="fill:none;stroke:midnightblue;" d="M565,-490C565,-481 565,-472 565,-464"/>
<polygon style="fill:midnightblue;stroke:midnightblue;" points="561.5,-490 565,-500 568.5,-490 561.5,-490"/>
</g>
<!-- Node10&#45;&gt;Node11 -->
<g id="edge20" class="edge"><title>Node10&#45;&gt;Node11</title>
<path style="fill:none;stroke:midnightblue;" d="M709,-292C737,-280 777,-264 804,-253"/>
<polygon style="fill:midnightblue;stroke:midnightblue;" points="707.717,-288.74 700,-296 710.56,-295.137 707.717,-288.74"/>
</g>
<!-- Node10&#45;&gt;Node15 -->
<g id="edge56" class="edge"><title>Node10&#45;&gt;Node15</title>
<path style="fill:none;stroke:midnightblue;" d="M621,-293C597,-285 570,-272 550,-254 531,-237 520,-210 515,-195"/>
<polygon style="fill:midnightblue;stroke:midnightblue;" points="620.416,-296.479 631,-296 622.427,-289.774 620.416,-296.479"/>
</g>
<!-- Node17 -->
<g id="node37" class="node"><title>Node17</title>
<a xlink:href="main_8cpp.html" target="_top" xlink:title="Main file that starts an infinite running loop on the SystemManager::AdvanceTimeStep method...">
<polygon style="fill:white;stroke:black;" points="735,-0 735,-21 839,-21 839,-0 735,-0"/>
<text text-anchor="middle" x="787" y="-7" style="font-family:Arial;font-size:10.00;">S2Sim/main.cpp</text>
</a>
</g>
<!-- Node10&#45;&gt;Node17 -->
<g id="edge60" class="edge"><title>Node10&#45;&gt;Node17</title>
<path style="fill:none;stroke:midnightblue;" d="M757,-294C815,-284 888,-269 914,-254 949,-233 977,-226 977,-185 977,-185 977,-185 977,-127 977,-62 895,-32 839,-20"/>
<polygon style="fill:midnightblue;stroke:midnightblue;" points="756.119,-290.607 747,-296 757.492,-297.471 756.119,-290.607"/>
</g>
<!-- Node20 -->
<g id="node49" class="node"><title>Node20</title>
<a xlink:href="_connection_manager_8cpp.html" target="_top" xlink:title="This file implements the ConnectionManager class. ">
<polygon style="fill:white;stroke:black;" points="559,-232 559,-253 746,-253 746,-232 559,-232"/>
<text text-anchor="middle" x="652" y="-239" style="font-family:Arial;font-size:10.00;">S2Sim/ConnectionManager.cpp</text>
</a>
</g>
<!-- Node10&#45;&gt;Node20 -->
<g id="edge58" class="edge"><title>Node10&#45;&gt;Node20</title>
<path style="fill:none;stroke:midnightblue;" d="M669,-287C665,-275 660,-262 656,-253"/>
<polygon style="fill:midnightblue;stroke:midnightblue;" points="665.74,-288.283 673,-296 672.137,-285.44 665.74,-288.283"/>
</g>
<!-- Node11&#45;&gt;Node10 -->
<g id="edge24" class="edge"><title>Node11&#45;&gt;Node10</title>
<path style="fill:none;stroke:midnightblue;" d="M806,-257C779,-269 739,-285 710,-296"/>
<polygon style="fill:midnightblue;stroke:midnightblue;" points="807.283,-260.26 815,-253 804.44,-253.863 807.283,-260.26"/>
</g>
<!-- Node12 -->
<g id="node23" class="node"><title>Node12</title>
<a xlink:href="_client_manager_8cpp.html" target="_top" xlink:title="Source file for the ClientManager class. ">
<polygon style="fill:white;stroke:black;" points="793,-174 793,-195 949,-195 949,-174 793,-174"/>
<text text-anchor="middle" x="871" y="-181" style="font-family:Arial;font-size:10.00;">S2Sim/ClientManager.cpp</text>
</a>
</g>
<!-- Node11&#45;&gt;Node12 -->
<g id="edge22" class="edge"><title>Node11&#45;&gt;Node12</title>
<path style="fill:none;stroke:midnightblue;" d="M847,-223C853,-214 860,-203 865,-195"/>
<polygon style="fill:midnightblue;stroke:midnightblue;" points="843.635,-221.738 841,-232 849.459,-225.621 843.635,-221.738"/>
</g>
<!-- Node13 -->
<g id="node26" class="node"><title>Node13</title>
<a xlink:href="_system_manager_8h.html" target="_top" xlink:title="Defines the SystemManager class. ">
<polygon style="fill:white;stroke:black;" points="681,-116 681,-137 832,-137 832,-116 681,-116"/>
<text text-anchor="middle" x="756" y="-123" style="font-family:Arial;font-size:10.00;">S2Sim/SystemManager.h</text>
</a>
</g>
<!-- Node11&#45;&gt;Node13 -->
<g id="edge26" class="edge"><title>Node11&#45;&gt;Node13</title>
<path style="fill:none;stroke:midnightblue;" d="M804,-226C793,-217 783,-207 775,-196 762,-177 754,-151 753,-137"/>
<polygon style="fill:midnightblue;stroke:midnightblue;" points="801.9,-228.8 812,-232 806.1,-223.2 801.9,-228.8"/>
</g>
<!-- Node11&#45;&gt;Node15 -->
<g id="edge54" class="edge"><title>Node11&#45;&gt;Node15</title>
<path style="fill:none;stroke:midnightblue;" d="M763,-230C704,-219 622,-204 568,-195"/>
<polygon style="fill:midnightblue;stroke:midnightblue;" points="762.508,-233.471 773,-232 763.881,-226.607 762.508,-233.471"/>
</g>
<!-- Node13&#45;&gt;Node11 -->
<g id="edge48" class="edge"><title>Node13&#45;&gt;Node11</title>
<path style="fill:none;stroke:midnightblue;" d="M769,-146C775,-161 783,-181 793,-196 803,-210 817,-223 827,-232"/>
<polygon style="fill:midnightblue;stroke:midnightblue;" points="772.26,-144.717 765,-137 765.863,-147.56 772.26,-144.717"/>
</g>
<!-- Node13&#45;&gt;Node14 -->
<g id="edge28" class="edge"><title>Node13&#45;&gt;Node14</title>
<path style="fill:none;stroke:midnightblue;" d="M702,-113C663,-103 613,-88 581,-79"/>
<polygon style="fill:midnightblue;stroke:midnightblue;" points="701.416,-116.479 712,-116 703.427,-109.774 701.416,-116.479"/>
</g>
<!-- Node13&#45;&gt;Node15 -->
<g id="edge46" class="edge"><title>Node13&#45;&gt;Node15</title>
<path style="fill:none;stroke:midnightblue;" d="M709,-139C668,-149 607,-164 564,-174"/>
<polygon style="fill:midnightblue;stroke:midnightblue;" points="709.881,-142.393 719,-137 708.508,-135.529 709.881,-142.393"/>
</g>
<!-- Node13&#45;&gt;Node17 -->
<g id="edge50" class="edge"><title>Node13&#45;&gt;Node17</title>
<path style="fill:none;stroke:midnightblue;" d="M812,-112C829,-105 845,-95 854,-80 869,-56 835,-33 810,-21"/>
<polygon style="fill:midnightblue;stroke:midnightblue;" points="810.717,-108.74 803,-116 813.56,-115.137 810.717,-108.74"/>
</g>
<!-- Node19 -->
<g id="node45" class="node"><title>Node19</title>
<a xlink:href="_system_manager_8cpp.html" target="_top" xlink:title="Implements the SystemManager class. ">
<polygon style="fill:white;stroke:black;" points="681,-58 681,-79 845,-79 845,-58 681,-58"/>
<text text-anchor="middle" x="763" y="-65" style="font-family:Arial;font-size:10.00;">S2Sim/SystemManager.cpp</text>
</a>
</g>
<!-- Node13&#45;&gt;Node19 -->
<g id="edge52" class="edge"><title>Node13&#45;&gt;Node19</title>
<path style="fill:none;stroke:midnightblue;" d="M758,-106C759,-96 761,-86 762,-79"/>
<polygon style="fill:midnightblue;stroke:midnightblue;" points="754.512,-105.701 757,-116 761.478,-106.398 754.512,-105.701"/>
</g>
<!-- Node14&#45;&gt;Node11 -->
<g id="edge30" class="edge"><title>Node14&#45;&gt;Node11</title>
<path style="fill:none;stroke:midnightblue;" d="M577,-84C632,-119 767,-202 816,-232"/>
<polygon style="fill:midnightblue;stroke:midnightblue;" points="578.441,-80.7969 568,-79 575.042,-86.916 578.441,-80.7969"/>
</g>
<!-- Node14&#45;&gt;Node13 -->
<g id="edge32" class="edge"><title>Node14&#45;&gt;Node13</title>
<path style="fill:none;stroke:midnightblue;" d="M602,-82C639,-92 690,-106 722,-116"/>
<polygon style="fill:midnightblue;stroke:midnightblue;" points="602.584,-78.5212 592,-79 600.573,-85.2259 602.584,-78.5212"/>
</g>
<!-- Node14&#45;&gt;Node15 -->
<g id="edge34" class="edge"><title>Node14&#45;&gt;Node15</title>
<path style="fill:none;stroke:midnightblue;" d="M493,-81C460,-90 423,-102 414,-116 395,-142 436,-162 471,-174"/>
<polygon style="fill:midnightblue;stroke:midnightblue;" points="493.881,-84.3933 503,-79 492.508,-77.5292 493.881,-84.3933"/>
</g>
<!-- Node14&#45;&gt;Node17 -->
<g id="edge42" class="edge"><title>Node14&#45;&gt;Node17</title>
<path style="fill:none;stroke:midnightblue;" d="M606,-55C649,-45 707,-30 746,-21"/>
<polygon style="fill:midnightblue;stroke:midnightblue;" points="604.573,-51.7741 596,-58 606.584,-58.4788 604.573,-51.7741"/>
</g>
<!-- Node18 -->
<g id="node40" class="node"><title>Node18</title>
<a xlink:href="_matlab_manager_8cpp.html" target="_top" xlink:title="Implements the MatlabManager class. ">
<polygon style="fill:white;stroke:black;" points="471,-0 471,-21 632,-21 632,-0 471,-0"/>
<text text-anchor="middle" x="551" y="-7" style="font-family:Arial;font-size:10.00;">S2Sim/MatlabManager.cpp</text>
</a>
</g>
<!-- Node14&#45;&gt;Node18 -->
<g id="edge44" class="edge"><title>Node14&#45;&gt;Node18</title>
<path style="fill:none;stroke:midnightblue;" d="M551,-48C551,-38 551,-28 551,-21"/>
<polygon style="fill:midnightblue;stroke:midnightblue;" points="547.5,-48 551,-58 554.5,-48 547.5,-48"/>
</g>
<!-- Node15&#45;&gt;Node13 -->
<g id="edge36" class="edge"><title>Node15&#45;&gt;Node13</title>
<path style="fill:none;stroke:midnightblue;" d="M563,-171C606,-161 666,-146 709,-137"/>
<polygon style="fill:midnightblue;stroke:midnightblue;" points="561.573,-167.774 553,-174 563.584,-174.479 561.573,-167.774"/>
</g>
<!-- Node16 -->
<g id="node35" class="node"><title>Node16</title>
<a xlink:href="_control_manager_8cpp.html" target="_top" xlink:title="This file implements the ControlManager class. ">
<polygon style="fill:white;stroke:black;" points="423,-116 423,-137 587,-137 587,-116 423,-116"/>
<text text-anchor="middle" x="505" y="-123" style="font-family:Arial;font-size:10.00;">S2Sim/ControlManager.cpp</text>
</a>
</g>
<!-- Node15&#45;&gt;Node16 -->
<g id="edge38" class="edge"><title>Node15&#45;&gt;Node16</title>
<path style="fill:none;stroke:midnightblue;" d="M510,-164C509,-154 507,-144 506,-137"/>
<polygon style="fill:midnightblue;stroke:midnightblue;" points="506.522,-164.398 511,-174 513.488,-163.701 506.522,-164.398"/>
</g>
<!-- Node15&#45;&gt;Node17 -->
<g id="edge40" class="edge"><title>Node15&#45;&gt;Node17</title>
<path style="fill:none;stroke:midnightblue;" d="M545,-169C561,-161 580,-150 596,-138 634,-107 631,-85 672,-58 696,-41 727,-29 751,-21"/>
<polygon style="fill:midnightblue;stroke:midnightblue;" points="543.042,-166.084 536,-174 546.441,-172.203 543.042,-166.084"/>
</g>
<!-- Node22 -->
<g id="node57" class="node"><title>Node22</title>
<a xlink:href="_t_c_p_server_8cpp.html" target="_top" xlink:title="Implements the TCPServer class. ">
<polygon style="fill:white;stroke:black;" points="801,-360 801,-394 928,-394 928,-360 801,-360"/>
<text text-anchor="start" x="809" y="-380" style="font-family:Arial;font-size:10.00;">S2Sim/SocketLibrary</text>
<text text-anchor="middle" x="864" y="-367" style="font-family:Arial;font-size:10.00;">/TCPServer.cpp</text>
</a>
</g>
<!-- Node21&#45;&gt;Node22 -->
<g id="edge70" class="edge"><title>Node21&#45;&gt;Node22</title>
<path style="fill:none;stroke:midnightblue;" d="M864,-420C864,-411 864,-402 864,-394"/>
<polygon style="fill:midnightblue;stroke:midnightblue;" points="860.5,-420 864,-430 867.5,-420 860.5,-420"/>
</g>
<!-- Node21&#45;&gt;Node23 -->
<g id="edge72" class="edge"><title>Node21&#45;&gt;Node23</title>
<path style="fill:none;stroke:midnightblue;" d="M791,-432C729,-420 641,-402 580,-391"/>
<polygon style="fill:midnightblue;stroke:midnightblue;" points="790.508,-435.471 801,-434 791.881,-428.607 790.508,-435.471"/>
</g>
<!-- Node23&#45;&gt;Node10 -->
<g id="edge74" class="edge"><title>Node23&#45;&gt;Node10</title>
<path style="fill:none;stroke:midnightblue;" d="M561,-356C592,-343 630,-327 654,-317"/>
<polygon style="fill:midnightblue;stroke:midnightblue;" points="559.717,-352.74 552,-360 562.56,-359.137 559.717,-352.74"/>
</g>
<!-- Node23&#45;&gt;Node14 -->
<g id="edge76" class="edge"><title>Node23&#45;&gt;Node14</title>
<path style="fill:none;stroke:midnightblue;" d="M432,-360C412,-352 391,-340 376,-324 352,-296 357,-279 357,-243 357,-243 357,-243 357,-185 357,-122 433,-92 490,-79"/>
<polygon style="fill:midnightblue;stroke:midnightblue;" points="431.416,-363.479 442,-363 433.427,-356.774 431.416,-363.479"/>
</g>
<!-- Node23&#45;&gt;Node15 -->
<g id="edge78" class="edge"><title>Node23&#45;&gt;Node15</title>
<path style="fill:none;stroke:midnightblue;" d="M531,-351C536,-343 541,-334 544,-324 548,-309 547,-304 544,-290 540,-272 533,-270 528,-254 521,-234 516,-209 514,-195"/>
<polygon style="fill:midnightblue;stroke:midnightblue;" points="527.635,-349.738 525,-360 533.459,-353.621 527.635,-349.738"/>
</g>
<!-- Node24 -->
<g id="node64" class="node"><title>Node24</title>
<a xlink:href="_threaded_t_c_p_server_8cpp.html" target="_top" xlink:title="Implements the ThreadedTCPServer class. ">
<polygon style="fill:white;stroke:black;" points="385,-290 385,-324 536,-324 536,-290 385,-290"/>
<text text-anchor="start" x="393" y="-310" style="font-family:Arial;font-size:10.00;">S2Sim/SocketLibrary</text>
<text text-anchor="middle" x="460" y="-297" style="font-family:Arial;font-size:10.00;">/ThreadedTCPServer.cpp</text>
</a>
</g>
<!-- Node23&#45;&gt;Node24 -->
<g id="edge80" class="edge"><title>Node23&#45;&gt;Node24</title>
<path style="fill:none;stroke:midnightblue;" d="M492,-352C485,-343 478,-332 472,-324"/>
<polygon style="fill:midnightblue;stroke:midnightblue;" points="489.2,-354.1 498,-360 494.8,-349.9 489.2,-354.1"/>
</g>
<!-- Node27 -->
<g id="node72" class="node"><title>Node27</title>
<a xlink:href="_u_d_p_socket_8cpp.html" target="_top" xlink:title="Implements the UDPSocket class. ">
<polygon style="fill:white;stroke:black;" points="718,-500 718,-534 845,-534 845,-500 718,-500"/>
<text text-anchor="start" x="726" y="-520" style="font-family:Arial;font-size:10.00;">S2Sim/SocketLibrary</text>
<text text-anchor="middle" x="781" y="-507" style="font-family:Arial;font-size:10.00;">/UDPSocket.cpp</text>
</a>
</g>
<!-- Node26&#45;&gt;Node27 -->
<g id="edge90" class="edge"><title>Node26&#45;&gt;Node27</title>
<path style="fill:none;stroke:midnightblue;" d="M781,-560C781,-551 781,-542 781,-534"/>
<polygon style="fill:midnightblue;stroke:midnightblue;" points="777.5,-560 781,-570 784.5,-560 777.5,-560"/>
</g>
</g>
</svg>
