<?xml version="1.0" encoding="UTF-8" standalone="no"?>
<!DOCTYPE svg PUBLIC "-//W3C//DTD SVG 1.0//EN"
 "http://www.w3.org/TR/2001/REC-SVG-20010904/DTD/svg10.dtd" [
 <!ATTLIST svg xmlns:xlink CDATA #FIXED "http://www.w3.org/1999/xlink">
]>
<!-- Generated by Graphviz version 2.14.1 (Fri Nov  9 08:19:38 GMT 2007)
     For user: (asakyurek) Alper Sinan Akyurek -->
<!-- Title: S2Sim/SocketLibrary/IPAddress.h Pages: 1 -->
<svg width="973pt" height="682pt"
 viewBox="0.00 0.00 973.00 682.00" xmlns="http://www.w3.org/2000/svg" xmlns:xlink="http://www.w3.org/1999/xlink">
<g id="graph0" class="graph" transform="scale(1 1) rotate(0) translate(4 678)">
<title>S2Sim/SocketLibrary/IPAddress.h</title>
<polygon style="fill:white;stroke:white;" points="-4,4 -4,-678 969,-678 969,4 -4,4"/>
<!-- Node1 -->
<g id="node1" class="node"><title>Node1</title>
<polygon style="fill:#bfbfbf;stroke:black;" points="452,-640 452,-674 579,-674 579,-640 452,-640"/>
<text text-anchor="start" x="460" y="-660" style="font-family:Arial;font-size:10.00;">S2Sim/SocketLibrary</text>
<text text-anchor="middle" x="515" y="-647" style="font-family:Arial;font-size:10.00;">/IPAddress.h</text>
</g>
<!-- Node2 -->
<g id="node3" class="node"><title>Node2</title>
<a xlink:href="_i_p_address_8cpp.html" target="_top" xlink:title="S2Sim/SocketLibrary\l/IPAddress.cpp">
<polygon style="fill:white;stroke:black;" points="55,-570 55,-604 182,-604 182,-570 55,-570"/>
<text text-anchor="start" x="63" y="-590" style="font-family:Arial;font-size:10.00;">S2Sim/SocketLibrary</text>
<text text-anchor="middle" x="118" y="-577" style="font-family:Arial;font-size:10.00;">/IPAddress.cpp</text>
</a>
</g>
<!-- Node1&#45;&gt;Node2 -->
<g id="edge2" class="edge"><title>Node1&#45;&gt;Node2</title>
<path style="fill:none;stroke:midnightblue;" d="M442,-646C376,-636 277,-621 190,-604 187,-603 185,-603 182,-602"/>
<polygon style="fill:midnightblue;stroke:midnightblue;" points="441.508,-649.471 452,-648 442.881,-642.607 441.508,-649.471"/>
</g>
<!-- Node3 -->
<g id="node5" class="node"><title>Node3</title>
<a xlink:href="_t_c_p_client_8h.html" target="_top" xlink:title="S2Sim/SocketLibrary\l/TCPClient.h">
<polygon style="fill:white;stroke:black;" points="199,-570 199,-604 326,-604 326,-570 199,-570"/>
<text text-anchor="start" x="207" y="-590" style="font-family:Arial;font-size:10.00;">S2Sim/SocketLibrary</text>
<text text-anchor="middle" x="262" y="-577" style="font-family:Arial;font-size:10.00;">/TCPClient.h</text>
</a>
</g>
<!-- Node1&#45;&gt;Node3 -->
<g id="edge4" class="edge"><title>Node1&#45;&gt;Node3</title>
<path style="fill:none;stroke:midnightblue;" d="M443,-637C406,-627 360,-614 324,-604"/>
<polygon style="fill:midnightblue;stroke:midnightblue;" points="442.416,-640.479 453,-640 444.427,-633.774 442.416,-640.479"/>
</g>
<!-- Node7 -->
<g id="node13" class="node"><title>Node7</title>
<a xlink:href="_t_c_p_connected_client_8h.html" target="_top" xlink:title="S2Sim/SocketLibrary\l/TCPConnectedClient.h">
<polygon style="fill:white;stroke:black;" points="444,-570 444,-604 586,-604 586,-570 444,-570"/>
<text text-anchor="start" x="452" y="-590" style="font-family:Arial;font-size:10.00;">S2Sim/SocketLibrary</text>
<text text-anchor="middle" x="515" y="-577" style="font-family:Arial;font-size:10.00;">/TCPConnectedClient.h</text>
</a>
</g>
<!-- Node1&#45;&gt;Node7 -->
<g id="edge12" class="edge"><title>Node1&#45;&gt;Node7</title>
<path style="fill:none;stroke:midnightblue;" d="M515,-630C515,-621 515,-612 515,-604"/>
<polygon style="fill:midnightblue;stroke:midnightblue;" points="511.5,-630 515,-640 518.5,-630 511.5,-630"/>
</g>
<!-- Node21 -->
<g id="node54" class="node"><title>Node21</title>
<a xlink:href="_t_c_p_server_8h.html" target="_top" xlink:title="S2Sim/SocketLibrary\l/TCPServer.h">
<polygon style="fill:white;stroke:black;" points="782,-430 782,-464 909,-464 909,-430 782,-430"/>
<text text-anchor="start" x="790" y="-450" style="font-family:Arial;font-size:10.00;">S2Sim/SocketLibrary</text>
<text text-anchor="middle" x="845" y="-437" style="font-family:Arial;font-size:10.00;">/TCPServer.h</text>
</a>
</g>
<!-- Node1&#45;&gt;Node21 -->
<g id="edge86" class="edge"><title>Node1&#45;&gt;Node21</title>
<path style="fill:none;stroke:midnightblue;" d="M551,-635C565,-626 581,-615 595,-604 601,-598 701,-504 709,-500 733,-485 762,-473 787,-464"/>
<polygon style="fill:midnightblue;stroke:midnightblue;" points="549.625,-631.732 543,-640 553.335,-637.668 549.625,-631.732"/>
</g>
<!-- Node26 -->
<g id="node70" class="node"><title>Node26</title>
<a xlink:href="_u_d_p_socket_8h.html" target="_top" xlink:title="S2Sim/SocketLibrary\l/UDPSocket.h">
<polygon style="fill:white;stroke:black;" points="718,-570 718,-604 845,-604 845,-570 718,-570"/>
<text text-anchor="start" x="726" y="-590" style="font-family:Arial;font-size:10.00;">S2Sim/SocketLibrary</text>
<text text-anchor="middle" x="781" y="-577" style="font-family:Arial;font-size:10.00;">/UDPSocket.h</text>
</a>
</g>
<!-- Node1&#45;&gt;Node26 -->
<g id="edge88" class="edge"><title>Node1&#45;&gt;Node26</title>
<path style="fill:none;stroke:midnightblue;" d="M589,-637C629,-627 679,-613 718,-604"/>
<polygon style="fill:midnightblue;stroke:midnightblue;" points="587.573,-633.774 579,-640 589.584,-640.479 587.573,-633.774"/>
</g>
<!-- Node4 -->
<g id="node7" class="node"><title>Node4</title>
<a xlink:href="_t_c_p_client_8cpp.html" target="_top" xlink:title="S2Sim/SocketLibrary\l/TCPClient.cpp">
<polygon style="fill:white;stroke:black;" points="0,-500 0,-534 127,-534 127,-500 0,-500"/>
<text text-anchor="start" x="8" y="-520" style="font-family:Arial;font-size:10.00;">S2Sim/SocketLibrary</text>
<text text-anchor="middle" x="63" y="-507" style="font-family:Arial;font-size:10.00;">/TCPClient.cpp</text>
</a>
</g>
<!-- Node3&#45;&gt;Node4 -->
<g id="edge6" class="edge"><title>Node3&#45;&gt;Node4</title>
<path style="fill:none;stroke:midnightblue;" d="M204,-567C175,-556 140,-544 112,-534"/>
<polygon style="fill:midnightblue;stroke:midnightblue;" points="203.416,-570.479 214,-570 205.427,-563.774 203.416,-570.479"/>
</g>
<!-- Node5 -->
<g id="node9" class="node"><title>Node5</title>
<a xlink:href="_threaded_t_c_p_client_8h.html" target="_top" xlink:title="S2Sim/SocketLibrary\l/ThreadedTCPClient.h">
<polygon style="fill:white;stroke:black;" points="144,-500 144,-534 279,-534 279,-500 144,-500"/>
<text text-anchor="start" x="152" y="-520" style="font-family:Arial;font-size:10.00;">S2Sim/SocketLibrary</text>
<text text-anchor="middle" x="211" y="-507" style="font-family:Arial;font-size:10.00;">/ThreadedTCPClient.h</text>
</a>
</g>
<!-- Node3&#45;&gt;Node5 -->
<g id="edge8" class="edge"><title>Node3&#45;&gt;Node5</title>
<path style="fill:none;stroke:midnightblue;" d="M243,-562C236,-553 229,-542 223,-534"/>
<polygon style="fill:midnightblue;stroke:midnightblue;" points="240.2,-564.1 249,-570 245.8,-559.9 240.2,-564.1"/>
</g>
<!-- Node6 -->
<g id="node11" class="node"><title>Node6</title>
<a xlink:href="_threaded_t_c_p_client_8cpp.html" target="_top" xlink:title="S2Sim/SocketLibrary\l/ThreadedTCPClient.cpp">
<polygon style="fill:white;stroke:black;" points="35,-430 35,-464 183,-464 183,-430 35,-430"/>
<text text-anchor="start" x="43" y="-450" style="font-family:Arial;font-size:10.00;">S2Sim/SocketLibrary</text>
<text text-anchor="middle" x="109" y="-437" style="font-family:Arial;font-size:10.00;">/ThreadedTCPClient.cpp</text>
</a>
</g>
<!-- Node5&#45;&gt;Node6 -->
<g id="edge10" class="edge"><title>Node5&#45;&gt;Node6</title>
<path style="fill:none;stroke:midnightblue;" d="M177,-494C163,-484 147,-473 134,-464"/>
<polygon style="fill:midnightblue;stroke:midnightblue;" points="175.738,-497.365 186,-500 179.621,-491.541 175.738,-497.365"/>
</g>
<!-- Node8 -->
<g id="node15" class="node"><title>Node8</title>
<a xlink:href="_t_c_p_connected_client_8cpp.html" target="_top" xlink:title="S2Sim/SocketLibrary\l/TCPConnectedClient.cpp">
<polygon style="fill:white;stroke:black;" points="296,-500 296,-534 451,-534 451,-500 296,-500"/>
<text text-anchor="start" x="304" y="-520" style="font-family:Arial;font-size:10.00;">S2Sim/SocketLibrary</text>
<text text-anchor="middle" x="373" y="-507" style="font-family:Arial;font-size:10.00;">/TCPConnectedClient.cpp</text>
</a>
</g>
<!-- Node7&#45;&gt;Node8 -->
<g id="edge14" class="edge"><title>Node7&#45;&gt;Node8</title>
<path style="fill:none;stroke:midnightblue;" d="M471,-565C451,-555 427,-544 408,-534"/>
<polygon style="fill:midnightblue;stroke:midnightblue;" points="469.559,-568.203 480,-570 472.958,-562.084 469.559,-568.203"/>
</g>
<!-- Node9 -->
<g id="node17" class="node"><title>Node9</title>
<a xlink:href="_threaded_t_c_p_connected_client_8h.html" target="_top" xlink:title="S2Sim/SocketLibrary\l/ThreadedTCPConnectedClient.h">
<polygon style="fill:white;stroke:black;" points="468,-500 468,-534 663,-534 663,-500 468,-500"/>
<text text-anchor="start" x="476" y="-520" style="font-family:Arial;font-size:10.00;">S2Sim/SocketLibrary</text>
<text text-anchor="middle" x="565" y="-507" style="font-family:Arial;font-size:10.00;">/ThreadedTCPConnectedClient.h</text>
</a>
</g>
<!-- Node7&#45;&gt;Node9 -->
<g id="edge16" class="edge"><title>Node7&#45;&gt;Node9</title>
<path style="fill:none;stroke:midnightblue;" d="M533,-562C540,-553 547,-542 553,-534"/>
<polygon style="fill:midnightblue;stroke:midnightblue;" points="530.2,-559.9 527,-570 535.8,-564.1 530.2,-559.9"/>
</g>
<!-- Node10 -->
<g id="node19" class="node"><title>Node10</title>
<a xlink:href="_connection_manager_8h.html" target="_top" xlink:title="S2Sim/ConnectionManager.h">
<polygon style="fill:white;stroke:black;" points="289,-296 289,-317 463,-317 463,-296 289,-296"/>
<text text-anchor="middle" x="376" y="-303" style="font-family:Arial;font-size:10.00;">S2Sim/ConnectionManager.h</text>
</a>
</g>
<!-- Node9&#45;&gt;Node10 -->
<g id="edge18" class="edge"><title>Node9&#45;&gt;Node10</title>
<path style="fill:none;stroke:midnightblue;" d="M491,-496C473,-488 455,-478 441,-464 397,-420 382,-345 377,-317"/>
<polygon style="fill:midnightblue;stroke:midnightblue;" points="490.415,-499.536 501,-500 493.015,-493.036 490.415,-499.536"/>
</g>
<!-- Node11 -->
<g id="node21" class="node"><title>Node11</title>
<a xlink:href="_client_manager_8h.html" target="_top" xlink:title="S2Sim/ClientManager.h">
<polygon style="fill:white;stroke:black;" points="519,-232 519,-253 662,-253 662,-232 519,-232"/>
<text text-anchor="middle" x="590" y="-239" style="font-family:Arial;font-size:10.00;">S2Sim/ClientManager.h</text>
</a>
</g>
<!-- Node9&#45;&gt;Node11 -->
<g id="edge64" class="edge"><title>Node9&#45;&gt;Node11</title>
<path style="fill:none;stroke:midnightblue;" d="M640,-496C655,-488 669,-478 678,-464 719,-398 717,-356 678,-290 667,-272 647,-260 629,-253"/>
<polygon style="fill:midnightblue;stroke:midnightblue;" points="638.717,-492.74 631,-500 641.56,-499.137 638.717,-492.74"/>
</g>
<!-- Node14 -->
<g id="node28" class="node"><title>Node14</title>
<a xlink:href="_matlab_manager_8h.html" target="_top" xlink:title="S2Sim/MatlabManager.h">
<polygon style="fill:white;stroke:black;" points="562,-58 562,-79 710,-79 710,-58 562,-58"/>
<text text-anchor="middle" x="636" y="-65" style="font-family:Arial;font-size:10.00;">S2Sim/MatlabManager.h</text>
</a>
</g>
<!-- Node9&#45;&gt;Node14 -->
<g id="edge60" class="edge"><title>Node9&#45;&gt;Node14</title>
<path style="fill:none;stroke:midnightblue;" d="M648,-496C667,-489 684,-479 698,-464 769,-388 773,-346 773,-243 773,-243 773,-243 773,-185 773,-129 706,-95 666,-79"/>
<polygon style="fill:midnightblue;stroke:midnightblue;" points="646.717,-492.74 639,-500 649.56,-499.137 646.717,-492.74"/>
</g>
<!-- Node15 -->
<g id="node32" class="node"><title>Node15</title>
<a xlink:href="_control_manager_8h.html" target="_top" xlink:title="S2Sim/ControlManager.h">
<polygon style="fill:white;stroke:black;" points="289,-174 289,-195 440,-195 440,-174 289,-174"/>
<text text-anchor="middle" x="364" y="-181" style="font-family:Arial;font-size:10.00;">S2Sim/ControlManager.h</text>
</a>
</g>
<!-- Node9&#45;&gt;Node15 -->
<g id="edge62" class="edge"><title>Node9&#45;&gt;Node15</title>
<path style="fill:none;stroke:midnightblue;" d="M466,-498C361,-474 211,-432 211,-377 211,-377 211,-377 211,-307 211,-272 207,-257 230,-232 247,-213 272,-202 296,-195"/>
<polygon style="fill:midnightblue;stroke:midnightblue;" points="465.508,-501.471 476,-500 466.881,-494.607 465.508,-501.471"/>
</g>
<!-- Node9&#45;&gt;Node21 -->
<g id="edge66" class="edge"><title>Node9&#45;&gt;Node21</title>
<path style="fill:none;stroke:midnightblue;" d="M643,-498C687,-487 741,-473 782,-463"/>
<polygon style="fill:midnightblue;stroke:midnightblue;" points="642.119,-494.607 633,-500 643.492,-501.471 642.119,-494.607"/>
</g>
<!-- Node23 -->
<g id="node59" class="node"><title>Node23</title>
<a xlink:href="_threaded_t_c_p_server_8h.html" target="_top" xlink:title="S2Sim/SocketLibrary\l/ThreadedTCPServer.h">
<polygon style="fill:white;stroke:black;" points="427,-360 427,-394 565,-394 565,-360 427,-360"/>
<text text-anchor="start" x="435" y="-380" style="font-family:Arial;font-size:10.00;">S2Sim/SocketLibrary</text>
<text text-anchor="middle" x="496" y="-367" style="font-family:Arial;font-size:10.00;">/ThreadedTCPServer.h</text>
</a>
</g>
<!-- Node9&#45;&gt;Node23 -->
<g id="edge84" class="edge"><title>Node9&#45;&gt;Node23</title>
<path style="fill:none;stroke:midnightblue;" d="M489,-496C474,-488 460,-478 452,-464 437,-441 458,-412 476,-394"/>
<polygon style="fill:midnightblue;stroke:midnightblue;" points="487.44,-499.137 498,-500 490.283,-492.74 487.44,-499.137"/>
</g>
<!-- Node25 -->
<g id="node66" class="node"><title>Node25</title>
<a xlink:href="_threaded_t_c_p_connected_client_8cpp.html" target="_top" xlink:title="S2Sim/SocketLibrary\l/ThreadedTCPConnectedClient.cpp">
<polygon style="fill:white;stroke:black;" points="461,-430 461,-464 669,-464 669,-430 461,-430"/>
<text text-anchor="start" x="469" y="-450" style="font-family:Arial;font-size:10.00;">S2Sim/SocketLibrary</text>
<text text-anchor="middle" x="565" y="-437" style="font-family:Arial;font-size:10.00;">/ThreadedTCPConnectedClient.cpp</text>
</a>
</g>
<!-- Node9&#45;&gt;Node25 -->
<g id="edge82" class="edge"><title>Node9&#45;&gt;Node25</title>
<path style="fill:none;stroke:midnightblue;" d="M565,-490C565,-481 565,-472 565,-464"/>
<polygon style="fill:midnightblue;stroke:midnightblue;" points="561.5,-490 565,-500 568.5,-490 561.5,-490"/>
</g>
<!-- Node10&#45;&gt;Node11 -->
<g id="edge20" class="edge"><title>Node10&#45;&gt;Node11</title>
<path style="fill:none;stroke:midnightblue;" d="M418,-293C456,-281 513,-264 551,-253"/>
<polygon style="fill:midnightblue;stroke:midnightblue;" points="416.573,-289.774 408,-296 418.584,-296.479 416.573,-289.774"/>
</g>
<!-- Node10&#45;&gt;Node15 -->
<g id="edge54" class="edge"><title>Node10&#45;&gt;Node15</title>
<path style="fill:none;stroke:midnightblue;" d="M404,-290C424,-276 445,-254 434,-232 425,-214 406,-203 391,-195"/>
<polygon style="fill:midnightblue;stroke:midnightblue;" points="401.379,-287.541 395,-296 405.262,-293.365 401.379,-287.541"/>
</g>
<!-- Node17 -->
<g id="node37" class="node"><title>Node17</title>
<a xlink:href="main_8cpp.html" target="_top" xlink:title="S2Sim/main.cpp">
<polygon style="fill:white;stroke:black;" points="307,-0 307,-21 411,-21 411,-0 307,-0"/>
<text text-anchor="middle" x="359" y="-7" style="font-family:Arial;font-size:10.00;">S2Sim/main.cpp</text>
</a>
</g>
<!-- Node10&#45;&gt;Node17 -->
<g id="edge58" class="edge"><title>Node10&#45;&gt;Node17</title>
<path style="fill:none;stroke:midnightblue;" d="M301,-294C244,-278 173,-246 173,-185 173,-185 173,-185 173,-127 173,-63 252,-33 307,-20"/>
<polygon style="fill:midnightblue;stroke:midnightblue;" points="300.508,-297.471 311,-296 301.881,-290.607 300.508,-297.471"/>
</g>
<!-- Node20 -->
<g id="node48" class="node"><title>Node20</title>
<a xlink:href="_connection_manager_8cpp.html" target="_top" xlink:title="S2Sim/ConnectionManager.cpp">
<polygon style="fill:white;stroke:black;" points="239,-232 239,-253 426,-253 426,-232 239,-232"/>
<text text-anchor="middle" x="332" y="-239" style="font-family:Arial;font-size:10.00;">S2Sim/ConnectionManager.cpp</text>
</a>
</g>
<!-- Node10&#45;&gt;Node20 -->
<g id="edge56" class="edge"><title>Node10&#45;&gt;Node20</title>
<path style="fill:none;stroke:midnightblue;" d="M362,-288C355,-276 345,-262 339,-253"/>
<polygon style="fill:midnightblue;stroke:midnightblue;" points="359.2,-290.1 368,-296 364.8,-285.9 359.2,-290.1"/>
</g>
<!-- Node11&#45;&gt;Node10 -->
<g id="edge24" class="edge"><title>Node11&#45;&gt;Node10</title>
<path style="fill:none;stroke:midnightblue;" d="M552,-256C514,-268 457,-285 418,-296"/>
<polygon style="fill:midnightblue;stroke:midnightblue;" points="553.427,-259.226 562,-253 551.416,-252.521 553.427,-259.226"/>
</g>
<!-- Node12 -->
<g id="node23" class="node"><title>Node12</title>
<a xlink:href="_client_manager_8cpp.html" target="_top" xlink:title="S2Sim/ClientManager.cpp">
<polygon style="fill:white;stroke:black;" points="513,-174 513,-195 669,-195 669,-174 513,-174"/>
<text text-anchor="middle" x="591" y="-181" style="font-family:Arial;font-size:10.00;">S2Sim/ClientManager.cpp</text>
</a>
</g>
<!-- Node11&#45;&gt;Node12 -->
<g id="edge22" class="edge"><title>Node11&#45;&gt;Node12</title>
<path style="fill:none;stroke:midnightblue;" d="M590,-222C590,-212 590,-202 591,-195"/>
<polygon style="fill:midnightblue;stroke:midnightblue;" points="586.5,-222 590,-232 593.5,-222 586.5,-222"/>
</g>
<!-- Node13 -->
<g id="node26" class="node"><title>Node13</title>
<a xlink:href="_system_manager_8h.html" target="_top" xlink:title="S2Sim/SystemManager.h">
<polygon style="fill:white;stroke:black;" points="480,-116 480,-137 631,-137 631,-116 480,-116"/>
<text text-anchor="middle" x="555" y="-123" style="font-family:Arial;font-size:10.00;">S2Sim/SystemManager.h</text>
</a>
</g>
<!-- Node11&#45;&gt;Node13 -->
<g id="edge26" class="edge"><title>Node11&#45;&gt;Node13</title>
<path style="fill:none;stroke:midnightblue;" d="M535,-228C519,-221 503,-210 495,-196 481,-174 510,-150 532,-137"/>
<polygon style="fill:midnightblue;stroke:midnightblue;" points="533.44,-231.137 544,-232 536.283,-224.74 533.44,-231.137"/>
</g>
<!-- Node11&#45;&gt;Node15 -->
<g id="edge52" class="edge"><title>Node11&#45;&gt;Node15</title>
<path style="fill:none;stroke:midnightblue;" d="M537,-229C496,-219 440,-204 403,-195"/>
<polygon style="fill:midnightblue;stroke:midnightblue;" points="536.416,-232.479 547,-232 538.427,-225.774 536.416,-232.479"/>
</g>
<!-- Node13&#45;&gt;Node11 -->
<g id="edge48" class="edge"><title>Node13&#45;&gt;Node11</title>
<path style="fill:none;stroke:midnightblue;" d="M536,-143C520,-157 501,-177 513,-196 523,-213 543,-225 560,-232"/>
<polygon style="fill:midnightblue;stroke:midnightblue;" points="538.1,-145.8 544,-137 533.9,-140.2 538.1,-145.8"/>
</g>
<!-- Node13&#45;&gt;Node14 -->
<g id="edge28" class="edge"><title>Node13&#45;&gt;Node14</title>
<path style="fill:none;stroke:midnightblue;" d="M573,-110C586,-99 604,-87 617,-79"/>
<polygon style="fill:midnightblue;stroke:midnightblue;" points="570.9,-107.2 565,-116 575.1,-112.8 570.9,-107.2"/>
</g>
<!-- Node13&#45;&gt;Node15 -->
<g id="edge46" class="edge"><title>Node13&#45;&gt;Node15</title>
<path style="fill:none;stroke:midnightblue;" d="M517,-140C485,-150 439,-164 406,-174"/>
<polygon style="fill:midnightblue;stroke:midnightblue;" points="518.427,-143.226 527,-137 516.416,-136.521 518.427,-143.226"/>
</g>
<!-- Node19 -->
<g id="node44" class="node"><title>Node19</title>
<a xlink:href="_system_manager_8cpp.html" target="_top" xlink:title="S2Sim/SystemManager.cpp">
<polygon style="fill:white;stroke:black;" points="380,-58 380,-79 544,-79 544,-58 380,-58"/>
<text text-anchor="middle" x="462" y="-65" style="font-family:Arial;font-size:10.00;">S2Sim/SystemManager.cpp</text>
</a>
</g>
<!-- Node13&#45;&gt;Node19 -->
<g id="edge50" class="edge"><title>Node13&#45;&gt;Node19</title>
<path style="fill:none;stroke:midnightblue;" d="M528,-111C512,-100 492,-87 478,-79"/>
<polygon style="fill:midnightblue;stroke:midnightblue;" points="526.559,-114.203 537,-116 529.958,-108.084 526.559,-114.203"/>
</g>
<!-- Node14&#45;&gt;Node11 -->
<g id="edge30" class="edge"><title>Node14&#45;&gt;Node11</title>
<path style="fill:none;stroke:midnightblue;" d="M651,-87C670,-113 699,-160 678,-196 667,-213 648,-225 630,-232"/>
<polygon style="fill:midnightblue;stroke:midnightblue;" points="653.8,-84.9 645,-79 648.2,-89.1 653.8,-84.9"/>
</g>
<!-- Node14&#45;&gt;Node13 -->
<g id="edge32" class="edge"><title>Node14&#45;&gt;Node13</title>
<path style="fill:none;stroke:midnightblue;" d="M619,-85C606,-95 589,-107 576,-116"/>
<polygon style="fill:midnightblue;stroke:midnightblue;" points="621.1,-87.8 627,-79 616.9,-82.2 621.1,-87.8"/>
</g>
<!-- Node14&#45;&gt;Node15 -->
<g id="edge34" class="edge"><title>Node14&#45;&gt;Node15</title>
<path style="fill:none;stroke:midnightblue;" d="M576,-81C544,-89 505,-101 471,-116 452,-124 405,-156 380,-174"/>
<polygon style="fill:midnightblue;stroke:midnightblue;" points="576.881,-84.3933 586,-79 575.508,-77.5292 576.881,-84.3933"/>
</g>
<!-- Node14&#45;&gt;Node17 -->
<g id="edge42" class="edge"><title>Node14&#45;&gt;Node17</title>
<path style="fill:none;stroke:midnightblue;" d="M573,-56C523,-45 453,-30 407,-21"/>
<polygon style="fill:midnightblue;stroke:midnightblue;" points="572.508,-59.4708 583,-58 573.881,-52.6067 572.508,-59.4708"/>
</g>
<!-- Node18 -->
<g id="node40" class="node"><title>Node18</title>
<a xlink:href="_matlab_manager_8cpp.html" target="_top" xlink:title="S2Sim/MatlabManager.cpp">
<polygon style="fill:white;stroke:black;" points="556,-0 556,-21 717,-21 717,-0 556,-0"/>
<text text-anchor="middle" x="636" y="-7" style="font-family:Arial;font-size:10.00;">S2Sim/MatlabManager.cpp</text>
</a>
</g>
<!-- Node14&#45;&gt;Node18 -->
<g id="edge44" class="edge"><title>Node14&#45;&gt;Node18</title>
<path style="fill:none;stroke:midnightblue;" d="M636,-48C636,-38 636,-28 636,-21"/>
<polygon style="fill:midnightblue;stroke:midnightblue;" points="632.5,-48 636,-58 639.5,-48 632.5,-48"/>
</g>
<!-- Node15&#45;&gt;Node13 -->
<g id="edge36" class="edge"><title>Node15&#45;&gt;Node13</title>
<path style="fill:none;stroke:midnightblue;" d="M405,-171C438,-160 484,-146 517,-137"/>
<polygon style="fill:midnightblue;stroke:midnightblue;" points="403.573,-167.774 395,-174 405.584,-174.479 403.573,-167.774"/>
</g>
<!-- Node16 -->
<g id="node35" class="node"><title>Node16</title>
<a xlink:href="_control_manager_8cpp.html" target="_top" xlink:title="S2Sim/ControlManager.cpp">
<polygon style="fill:white;stroke:black;" points="260,-116 260,-137 424,-137 424,-116 260,-116"/>
<text text-anchor="middle" x="342" y="-123" style="font-family:Arial;font-size:10.00;">S2Sim/ControlManager.cpp</text>
</a>
</g>
<!-- Node15&#45;&gt;Node16 -->
<g id="edge38" class="edge"><title>Node15&#45;&gt;Node16</title>
<path style="fill:none;stroke:midnightblue;" d="M356,-164C353,-155 349,-144 346,-137"/>
<polygon style="fill:midnightblue;stroke:midnightblue;" points="353.036,-166.015 360,-174 359.536,-163.415 353.036,-166.015"/>
</g>
<!-- Node15&#45;&gt;Node17 -->
<g id="edge40" class="edge"><title>Node15&#45;&gt;Node17</title>
<path style="fill:none;stroke:midnightblue;" d="M295,-170C278,-163 261,-153 251,-138 220,-91 299,-42 338,-21"/>
<polygon style="fill:midnightblue;stroke:midnightblue;" points="293.44,-173.137 304,-174 296.283,-166.74 293.44,-173.137"/>
</g>
<!-- Node21&#45;&gt;Node17 -->
<g id="edge68" class="edge"><title>Node21&#45;&gt;Node17</title>
<path style="fill:none;stroke:midnightblue;" d="M834,-420C824,-392 811,-347 811,-307 811,-307 811,-307 811,-127 811,-45 530,-20 411,-13"/>
<polygon style="fill:midnightblue;stroke:midnightblue;" points="831.036,-422.015 838,-430 837.536,-419.415 831.036,-422.015"/>
</g>
<!-- Node22 -->
<g id="node57" class="node"><title>Node22</title>
<a xlink:href="_t_c_p_server_8cpp.html" target="_top" xlink:title="S2Sim/SocketLibrary\l/TCPServer.cpp">
<polygon style="fill:white;stroke:black;" points="839,-360 839,-394 966,-394 966,-360 839,-360"/>
<text text-anchor="start" x="847" y="-380" style="font-family:Arial;font-size:10.00;">S2Sim/SocketLibrary</text>
<text text-anchor="middle" x="902" y="-367" style="font-family:Arial;font-size:10.00;">/TCPServer.cpp</text>
</a>
</g>
<!-- Node21&#45;&gt;Node22 -->
<g id="edge70" class="edge"><title>Node21&#45;&gt;Node22</title>
<path style="fill:none;stroke:midnightblue;" d="M865,-422C873,-413 881,-403 888,-394"/>
<polygon style="fill:midnightblue;stroke:midnightblue;" points="862.2,-419.9 859,-430 867.8,-424.1 862.2,-419.9"/>
</g>
<!-- Node21&#45;&gt;Node23 -->
<g id="edge72" class="edge"><title>Node21&#45;&gt;Node23</title>
<path style="fill:none;stroke:midnightblue;" d="M772,-432C711,-420 625,-402 565,-391"/>
<polygon style="fill:midnightblue;stroke:midnightblue;" points="771.508,-435.471 782,-434 772.881,-428.607 771.508,-435.471"/>
</g>
<!-- Node23&#45;&gt;Node10 -->
<g id="edge74" class="edge"><title>Node23&#45;&gt;Node10</title>
<path style="fill:none;stroke:midnightblue;" d="M458,-355C437,-342 411,-327 394,-317"/>
<polygon style="fill:midnightblue;stroke:midnightblue;" points="456.559,-358.203 467,-360 459.958,-352.084 456.559,-358.203"/>
</g>
<!-- Node23&#45;&gt;Node14 -->
<g id="edge76" class="edge"><title>Node23&#45;&gt;Node14</title>
<path style="fill:none;stroke:midnightblue;" d="M575,-366C645,-351 735,-317 735,-243 735,-243 735,-243 735,-185 735,-136 683,-97 654,-79"/>
<polygon style="fill:midnightblue;stroke:midnightblue;" points="574.119,-362.607 565,-368 575.492,-369.471 574.119,-362.607"/>
</g>
<!-- Node23&#45;&gt;Node15 -->
<g id="edge78" class="edge"><title>Node23&#45;&gt;Node15</title>
<path style="fill:none;stroke:midnightblue;" d="M494,-350C490,-318 478,-265 449,-232 434,-215 411,-203 393,-195"/>
<polygon style="fill:midnightblue;stroke:midnightblue;" points="490.522,-350.398 495,-360 497.488,-349.701 490.522,-350.398"/>
</g>
<!-- Node24 -->
<g id="node64" class="node"><title>Node24</title>
<a xlink:href="_threaded_t_c_p_server_8cpp.html" target="_top" xlink:title="S2Sim/SocketLibrary\l/ThreadedTCPServer.cpp">
<polygon style="fill:white;stroke:black;" points="519,-290 519,-324 670,-324 670,-290 519,-290"/>
<text text-anchor="start" x="527" y="-310" style="font-family:Arial;font-size:10.00;">S2Sim/SocketLibrary</text>
<text text-anchor="middle" x="594" y="-297" style="font-family:Arial;font-size:10.00;">/ThreadedTCPServer.cpp</text>
</a>
</g>
<!-- Node23&#45;&gt;Node24 -->
<g id="edge80" class="edge"><title>Node23&#45;&gt;Node24</title>
<path style="fill:none;stroke:midnightblue;" d="M528,-354C542,-344 558,-333 570,-324"/>
<polygon style="fill:midnightblue;stroke:midnightblue;" points="525.9,-351.2 520,-360 530.1,-356.8 525.9,-351.2"/>
</g>
<!-- Node27 -->
<g id="node72" class="node"><title>Node27</title>
<a xlink:href="_u_d_p_socket_8cpp.html" target="_top" xlink:title="S2Sim/SocketLibrary\l/UDPSocket.cpp">
<polygon style="fill:white;stroke:black;" points="718,-500 718,-534 845,-534 845,-500 718,-500"/>
<text text-anchor="start" x="726" y="-520" style="font-family:Arial;font-size:10.00;">S2Sim/SocketLibrary</text>
<text text-anchor="middle" x="781" y="-507" style="font-family:Arial;font-size:10.00;">/UDPSocket.cpp</text>
</a>
</g>
<!-- Node26&#45;&gt;Node27 -->
<g id="edge90" class="edge"><title>Node26&#45;&gt;Node27</title>
<path style="fill:none;stroke:midnightblue;" d="M781,-560C781,-551 781,-542 781,-534"/>
<polygon style="fill:midnightblue;stroke:midnightblue;" points="777.5,-560 781,-570 784.5,-560 777.5,-560"/>
</g>
</g>
</svg>
