<?xml version="1.0" encoding="UTF-8" standalone="no"?>
<!DOCTYPE svg PUBLIC "-//W3C//DTD SVG 1.0//EN"
 "http://www.w3.org/TR/2001/REC-SVG-20010904/DTD/svg10.dtd" [
 <!ATTLIST svg xmlns:xlink CDATA #FIXED "http://www.w3.org/1999/xlink">
]>
<!-- Generated by Graphviz version 2.14.1 (Fri Nov  9 08:19:38 GMT 2007)
     For user: (asakyurek) Alper Sinan Akyurek -->
<!-- Title: S2Sim/SocketLibrary/IPAddress.cpp Pages: 1 -->
<svg width="134pt" height="158pt"
 viewBox="0.00 0.00 134.00 158.00" xmlns="http://www.w3.org/2000/svg" xmlns:xlink="http://www.w3.org/1999/xlink">
<g id="graph0" class="graph" transform="scale(1 1) rotate(0) translate(4 154)">
<title>S2Sim/SocketLibrary/IPAddress.cpp</title>
<polygon style="fill:white;stroke:white;" points="-4,4 -4,-154 130,-154 130,4 -4,4"/>
<!-- Node1 -->
<g id="node1" class="node"><title>Node1</title>
<polygon style="fill:#bfbfbf;stroke:black;" points="0,-116 0,-150 127,-150 127,-116 0,-116"/>
<text text-anchor="start" x="8" y="-136" style="font-family:Arial;font-size:10.00;">S2Sim/SocketLibrary</text>
<text text-anchor="middle" x="63" y="-123" style="font-family:Arial;font-size:10.00;">/IPAddress.cpp</text>
</g>
<!-- Node2 -->
<g id="node3" class="node"><title>Node2</title>
<a xlink:href="_i_p_address_8h.html" target="_top" xlink:title="Defines the IPAddress class. ">
<polygon style="fill:white;stroke:black;" points="25,-58 25,-79 102,-79 102,-58 25,-58"/>
<text text-anchor="middle" x="63" y="-65" style="font-family:Arial;font-size:10.00;">IPAddress.h</text>
</a>
</g>
<!-- Node1&#45;&gt;Node2 -->
<g id="edge2" class="edge"><title>Node1&#45;&gt;Node2</title>
<path style="fill:none;stroke:midnightblue;" d="M63,-116C63,-108 63,-98 63,-89"/>
<polygon style="fill:midnightblue;stroke:midnightblue;" points="66.5001,-89 63,-79 59.5001,-89 66.5001,-89"/>
</g>
<!-- Node3 -->
<g id="node5" class="node"><title>Node3</title>
<polygon style="fill:white;stroke:#bfbfbf;" points="35,-0 35,-21 91,-21 91,-0 35,-0"/>
<text text-anchor="middle" x="63" y="-7" style="font-family:Arial;font-size:10.00;">string.h</text>
</g>
<!-- Node2&#45;&gt;Node3 -->
<g id="edge4" class="edge"><title>Node2&#45;&gt;Node3</title>
<path style="fill:none;stroke:midnightblue;" d="M63,-58C63,-50 63,-40 63,-31"/>
<polygon style="fill:midnightblue;stroke:midnightblue;" points="66.5001,-31 63,-21 59.5001,-31 66.5001,-31"/>
</g>
</g>
</svg>
