<?xml version="1.0" encoding="UTF-8" standalone="no"?>
<!DOCTYPE svg PUBLIC "-//W3C//DTD SVG 1.0//EN"
 "http://www.w3.org/TR/2001/REC-SVG-20010904/DTD/svg10.dtd" [
 <!ATTLIST svg xmlns:xlink CDATA #FIXED "http://www.w3.org/1999/xlink">
]>
<!-- Generated by Graphviz version 2.14.1 (Fri Nov  9 08:19:38 GMT 2007)
     For user: (asakyurek) Alper Sinan Akyurek -->
<!-- Title: WarningPrint Pages: 1 -->
<svg width="1252pt" height="512pt"
 viewBox="0.00 0.00 1252.00 512.00" xmlns="http://www.w3.org/2000/svg" xmlns:xlink="http://www.w3.org/1999/xlink">
<g id="graph0" class="graph" transform="scale(1 1) rotate(0) translate(4 508)">
<title>WarningPrint</title>
<polygon style="fill:white;stroke:white;" points="-4,4 -4,-508 1248,-508 1248,4 -4,4"/>
<!-- Node1 -->
<g id="node1" class="node"><title>Node1</title>
<polygon style="fill:#bfbfbf;stroke:black;" points="1,-227 1,-248 86,-248 86,-227 1,-227"/>
<text text-anchor="middle" x="43" y="-234" style="font-family:Arial;font-size:10.00;">WarningPrint</text>
</g>
<!-- Node2 -->
<g id="node3" class="node"><title>Node2</title>
<a xlink:href="class_client_manager.html#a4fa8fc5731587276f5e6be92563474fa" target="_top" xlink:title="Handles the broken connection case. ">
<polygon style="fill:white;stroke:black;" points="144,-470 144,-504 309,-504 309,-470 144,-470"/>
<text text-anchor="start" x="152" y="-490" style="font-family:Arial;font-size:10.00;">ClientManager::Connection</text>
<text text-anchor="middle" x="226" y="-477" style="font-family:Arial;font-size:10.00;">Broken</text>
</a>
</g>
<!-- Node1&#45;&gt;Node2 -->
<g id="edge2" class="edge"><title>Node1&#45;&gt;Node2</title>
<path style="fill:none;stroke:midnightblue;" d="M44,-258C47,-302 62,-406 122,-461 128,-467 136,-471 144,-475"/>
<polygon style="fill:midnightblue;stroke:midnightblue;" points="47.4778,-257.602 43,-248 40.5125,-258.299 47.4778,-257.602"/>
</g>
<!-- Node3 -->
<g id="node5" class="node"><title>Node3</title>
<a xlink:href="class_client_manager.html#a6d544b4d20cd3b906b6a033c8d70e4a5" target="_top" xlink:title="Processes an asynchronous client connection request. ">
<polygon style="fill:white;stroke:black;" points="384,-278 384,-312 558,-312 558,-278 384,-278"/>
<text text-anchor="start" x="392" y="-298" style="font-family:Arial;font-size:10.00;">ClientManager::ProcessClient</text>
<text text-anchor="middle" x="471" y="-285" style="font-family:Arial;font-size:10.00;">ConnectionRequest</text>
</a>
</g>
<!-- Node1&#45;&gt;Node3 -->
<g id="edge4" class="edge"><title>Node1&#45;&gt;Node3</title>
<path style="fill:none;stroke:midnightblue;" d="M60,-255C75,-269 98,-287 122,-295 208,-322 312,-318 384,-309"/>
<polygon style="fill:midnightblue;stroke:midnightblue;" points="62.546,-252.596 53,-248 57.5962,-257.546 62.546,-252.596"/>
</g>
<!-- Node5 -->
<g id="node9" class="node"><title>Node5</title>
<a xlink:href="_connection_manager_8h.html#a2e30244a123626dc9199117c06d257ab" target="_top" xlink:title="Wrapper callback method for reception notification. ">
<polygon style="fill:white;stroke:black;" points="389,-405 389,-426 554,-426 554,-405 389,-405"/>
<text text-anchor="middle" x="471" y="-412" style="font-family:Arial;font-size:10.00;">ConnectionReceiveHandler</text>
</a>
</g>
<!-- Node1&#45;&gt;Node5 -->
<g id="edge8" class="edge"><title>Node1&#45;&gt;Node5</title>
<path style="fill:none;stroke:midnightblue;" d="M49,-258C58,-288 81,-344 122,-371 144,-385 293,-400 389,-409"/>
<polygon style="fill:midnightblue;stroke:midnightblue;" points="52.2259,-256.573 46,-248 45.5212,-258.584 52.2259,-256.573"/>
</g>
<!-- Node8 -->
<g id="node15" class="node"><title>Node8</title>
<a xlink:href="class_connection_manager.html#a64473b0369ab91daf3a2da6b8ef576d0" target="_top" xlink:title="Broken connection handler. ">
<polygon style="fill:white;stroke:black;" points="160,-418 160,-452 293,-452 293,-418 160,-418"/>
<text text-anchor="start" x="168" y="-438" style="font-family:Arial;font-size:10.00;">ConnectionManager::</text>
<text text-anchor="middle" x="226" y="-425" style="font-family:Arial;font-size:10.00;">BrokenConnection</text>
</a>
</g>
<!-- Node1&#45;&gt;Node8 -->
<g id="edge14" class="edge"><title>Node1&#45;&gt;Node8</title>
<path style="fill:none;stroke:midnightblue;" d="M47,-258C55,-293 76,-364 122,-404 133,-413 146,-420 160,-424"/>
<polygon style="fill:midnightblue;stroke:midnightblue;" points="50.3933,-257.119 45,-248 43.5292,-258.492 50.3933,-257.119"/>
</g>
<!-- Node9 -->
<g id="node18" class="node"><title>Node9</title>
<a xlink:href="class_control_manager.html#a2dc55da1b01fd175b3d885c68b8a7524" target="_top" xlink:title="Processes the received message from the External Controller. ">
<polygon style="fill:white;stroke:black;" points="138,-341 138,-362 314,-362 314,-341 138,-341"/>
<text text-anchor="middle" x="226" y="-348" style="font-family:Arial;font-size:10.00;">ControlManager::ProcessData</text>
</a>
</g>
<!-- Node1&#45;&gt;Node9 -->
<g id="edge18" class="edge"><title>Node1&#45;&gt;Node9</title>
<path style="fill:none;stroke:midnightblue;" d="M55,-257C68,-277 93,-310 122,-328 131,-333 142,-338 153,-341"/>
<polygon style="fill:midnightblue;stroke:midnightblue;" points="57.4592,-254.379 49,-248 51.6349,-258.262 57.4592,-254.379"/>
</g>
<!-- Node14 -->
<g id="node28" class="node"><title>Node14</title>
<a xlink:href="_log_print_8h.html#a3ab7949e7df5473f5062b962d463492d" target="_top" xlink:title="WarningPrint">
<polygon style="fill:white;stroke:black;" points="184,-265 184,-286 269,-286 269,-265 184,-265"/>
<text text-anchor="middle" x="226" y="-272" style="font-family:Arial;font-size:10.00;">WarningPrint</text>
</a>
</g>
<!-- Node1&#45;&gt;Node14 -->
<g id="edge28" class="edge"><title>Node1&#45;&gt;Node14</title>
<path style="fill:none;stroke:midnightblue;" d="M94,-250C103,-253 113,-255 122,-257 142,-261 165,-265 184,-269"/>
<polygon style="fill:midnightblue;stroke:midnightblue;" points="94.4922,-246.529 84,-248 93.1194,-253.393 94.4922,-246.529"/>
</g>
<!-- Node15 -->
<g id="node30" class="node"><title>Node15</title>
<a xlink:href="class_matlab_manager.html#a7219113b7bc0744fe8faa94d599fe826" target="_top" xlink:title="MatlabManager::ProcessData">
<polygon style="fill:white;stroke:black;" points="140,-151 140,-172 313,-172 313,-151 140,-151"/>
<text text-anchor="middle" x="226" y="-158" style="font-family:Arial;font-size:10.00;">MatlabManager::ProcessData</text>
</a>
</g>
<!-- Node1&#45;&gt;Node15 -->
<g id="edge30" class="edge"><title>Node1&#45;&gt;Node15</title>
<path style="fill:none;stroke:midnightblue;" d="M62,-220C77,-207 100,-190 122,-181 130,-177 139,-174 148,-172"/>
<polygon style="fill:midnightblue;stroke:midnightblue;" points="59.5962,-217.454 55,-227 64.546,-222.404 59.5962,-217.454"/>
</g>
<!-- Node20 -->
<g id="node40" class="node"><title>Node20</title>
<a xlink:href="class_matlab_manager.html#a1c967acc77ef8db3113e83a5325b5729" target="_top" xlink:title="MatlabManager::IsClientPresent">
<polygon style="fill:white;stroke:black;" points="133,-189 133,-210 320,-210 320,-189 133,-189"/>
<text text-anchor="middle" x="226" y="-196" style="font-family:Arial;font-size:10.00;">MatlabManager::IsClientPresent</text>
</a>
</g>
<!-- Node1&#45;&gt;Node20 -->
<g id="edge40" class="edge"><title>Node1&#45;&gt;Node20</title>
<path style="fill:none;stroke:midnightblue;" d="M96,-225C105,-222 113,-220 122,-219 137,-216 153,-213 167,-210"/>
<polygon style="fill:midnightblue;stroke:midnightblue;" points="95.1194,-221.607 86,-227 96.4922,-228.471 95.1194,-221.607"/>
</g>
<!-- Node21 -->
<g id="node42" class="node"><title>Node21</title>
<a xlink:href="class_matlab_manager.html#a2967a226a9c6a9ed22998cad67afed3c" target="_top" xlink:title="MatlabManager::SetWattage">
<polygon style="fill:white;stroke:black;" points="141,-37 141,-58 312,-58 312,-37 141,-37"/>
<text text-anchor="middle" x="226" y="-44" style="font-family:Arial;font-size:10.00;">MatlabManager::SetWattage</text>
</a>
</g>
<!-- Node1&#45;&gt;Node21 -->
<g id="edge42" class="edge"><title>Node1&#45;&gt;Node21</title>
<path style="fill:none;stroke:midnightblue;" d="M47,-217C54,-180 73,-104 122,-67 128,-63 134,-59 141,-57"/>
<polygon style="fill:midnightblue;stroke:midnightblue;" points="43.5292,-216.508 45,-227 50.3933,-217.881 43.5292,-216.508"/>
</g>
<!-- Node24 -->
<g id="node48" class="node"><title>Node24</title>
<a xlink:href="class_matlab_manager.html#afc7fd3eb3469eb7be2af5b857e6f45e1" target="_top" xlink:title="MatlabManager::GetWattage">
<polygon style="fill:white;stroke:black;" points="140,-113 140,-134 312,-134 312,-113 140,-113"/>
<text text-anchor="middle" x="226" y="-120" style="font-family:Arial;font-size:10.00;">MatlabManager::GetWattage</text>
</a>
</g>
<!-- Node1&#45;&gt;Node24 -->
<g id="edge48" class="edge"><title>Node1&#45;&gt;Node24</title>
<path style="fill:none;stroke:midnightblue;" d="M54,-218C67,-196 92,-160 122,-143 128,-139 135,-136 142,-134"/>
<polygon style="fill:midnightblue;stroke:midnightblue;" points="50.7969,-216.559 49,-227 56.916,-219.958 50.7969,-216.559"/>
</g>
<!-- Node25 -->
<g id="node50" class="node"><title>Node25</title>
<a xlink:href="class_matlab_manager.html#ab741bd4f6545e11dd7dd28548c5229dd" target="_top" xlink:title="MatlabManager::GetVoltage">
<polygon style="fill:white;stroke:black;" points="142,-75 142,-96 310,-96 310,-75 142,-75"/>
<text text-anchor="middle" x="226" y="-82" style="font-family:Arial;font-size:10.00;">MatlabManager::GetVoltage</text>
</a>
</g>
<!-- Node1&#45;&gt;Node25 -->
<g id="edge50" class="edge"><title>Node1&#45;&gt;Node25</title>
<path style="fill:none;stroke:midnightblue;" d="M49,-217C59,-187 83,-133 122,-105 128,-101 135,-97 142,-95"/>
<polygon style="fill:midnightblue;stroke:midnightblue;" points="45.5212,-216.416 46,-227 52.2259,-218.427 45.5212,-216.416"/>
</g>
<!-- Node26 -->
<g id="node52" class="node"><title>Node26</title>
<a xlink:href="class_matlab_manager.html#a55151e4e7f68cad7a8b18c93e9f0e0b1" target="_top" xlink:title="MatlabManager::AdvanceTimeStep">
<polygon style="fill:white;stroke:black;" points="123,1 123,-20 330,-20 330,1 123,1"/>
<text text-anchor="middle" x="226" y="-6" style="font-family:Arial;font-size:10.00;">MatlabManager::AdvanceTimeStep</text>
</a>
</g>
<!-- Node1&#45;&gt;Node26 -->
<g id="edge52" class="edge"><title>Node1&#45;&gt;Node26</title>
<path style="fill:none;stroke:midnightblue;" d="M45,-217C48,-174 64,-77 122,-29 126,-25 131,-23 136,-20"/>
<polygon style="fill:midnightblue;stroke:midnightblue;" points="41.5125,-216.701 44,-227 48.4778,-217.398 41.5125,-216.701"/>
</g>
<!-- Node27 -->
<g id="node55" class="node"><title>Node27</title>
<a xlink:href="class_system_manager.html#abaf36dbd2e75a773f2ddc40ac82e5f3b" target="_top" xlink:title="SystemManager::RegisterData">
<polygon style="fill:white;stroke:black;" points="136,-227 136,-248 316,-248 316,-227 136,-227"/>
<text text-anchor="middle" x="226" y="-234" style="font-family:Arial;font-size:10.00;">SystemManager::RegisterData</text>
</a>
</g>
<!-- Node1&#45;&gt;Node27 -->
<g id="edge56" class="edge"><title>Node1&#45;&gt;Node27</title>
<path style="fill:none;stroke:midnightblue;" d="M96,-238C108,-238 122,-238 136,-238"/>
<polygon style="fill:midnightblue;stroke:midnightblue;" points="96,-234.5 86,-238 96,-241.5 96,-234.5"/>
</g>
<!-- Node4 -->
<g id="node7" class="node"><title>Node4</title>
<a xlink:href="class_client_manager.html#abf05d2ac88337dfd02e0b7986ee1e18c" target="_top" xlink:title="Called when a message is received. ">
<polygon style="fill:white;stroke:black;" points="613,-261 613,-282 812,-282 812,-261 613,-261"/>
<text text-anchor="middle" x="712" y="-268" style="font-family:Arial;font-size:10.00;">ClientManager::MessageReceived</text>
</a>
</g>
<!-- Node3&#45;&gt;Node4 -->
<g id="edge6" class="edge"><title>Node3&#45;&gt;Node4</title>
<path style="fill:none;stroke:midnightblue;" d="M568,-286C583,-284 598,-283 613,-282"/>
<polygon style="fill:midnightblue;stroke:midnightblue;" points="567.602,-282.522 558,-287 568.299,-289.488 567.602,-282.522"/>
</g>
<!-- Node6 -->
<g id="node11" class="node"><title>Node6</title>
<a xlink:href="_connection_manager_8cpp.html#a510f5a0926d162b7f546fcf5b8f054e8" target="_top" xlink:title="ConnectionNotificationHandler">
<polygon style="fill:white;stroke:black;" points="620,-405 620,-426 805,-426 805,-405 620,-405"/>
<text text-anchor="middle" x="712" y="-412" style="font-family:Arial;font-size:10.00;">ConnectionNotificationHandler</text>
</a>
</g>
<!-- Node5&#45;&gt;Node6 -->
<g id="edge10" class="edge"><title>Node5&#45;&gt;Node6</title>
<path style="fill:none;stroke:midnightblue;" d="M564,-416C582,-416 602,-416 620,-416"/>
<polygon style="fill:midnightblue;stroke:midnightblue;" points="564,-412.5 554,-416 564,-419.5 564,-412.5"/>
</g>
<!-- Node7 -->
<g id="node13" class="node"><title>Node7</title>
<a xlink:href="class_connection_manager.html#a7928f3e95b4e88b01c11eaf3e8089ee7" target="_top" xlink:title="ConnectionManager::\lConnectionManager">
<polygon style="fill:white;stroke:black;" points="863,-399 863,-433 996,-433 996,-399 863,-399"/>
<text text-anchor="start" x="871" y="-419" style="font-family:Arial;font-size:10.00;">ConnectionManager::</text>
<text text-anchor="middle" x="929" y="-406" style="font-family:Arial;font-size:10.00;">ConnectionManager</text>
</a>
</g>
<!-- Node6&#45;&gt;Node7 -->
<g id="edge12" class="edge"><title>Node6&#45;&gt;Node7</title>
<path style="fill:none;stroke:midnightblue;" d="M815,-416C831,-416 848,-416 863,-416"/>
<polygon style="fill:midnightblue;stroke:midnightblue;" points="815,-412.5 805,-416 815,-419.5 815,-412.5"/>
</g>
<!-- Node8&#45;&gt;Node5 -->
<g id="edge16" class="edge"><title>Node8&#45;&gt;Node5</title>
<path style="fill:none;stroke:midnightblue;" d="M303,-429C331,-427 361,-425 389,-422"/>
<polygon style="fill:midnightblue;stroke:midnightblue;" points="302.602,-425.522 293,-430 303.299,-432.488 302.602,-425.522"/>
</g>
<!-- Node10 -->
<g id="node20" class="node"><title>Node10</title>
<a xlink:href="_control_manager_8h.html#a295ee31280dd699294f5787580750ce4" target="_top" xlink:title="Wrapper callback method for reception notification. ">
<polygon style="fill:white;stroke:black;" points="400,-341 400,-362 542,-362 542,-341 400,-341"/>
<text text-anchor="middle" x="471" y="-348" style="font-family:Arial;font-size:10.00;">ControlReceiveHandler</text>
</a>
</g>
<!-- Node9&#45;&gt;Node10 -->
<g id="edge20" class="edge"><title>Node9&#45;&gt;Node10</title>
<path style="fill:none;stroke:midnightblue;" d="M324,-352C349,-352 376,-352 400,-352"/>
<polygon style="fill:midnightblue;stroke:midnightblue;" points="324,-348.5 314,-352 324,-355.5 324,-348.5"/>
</g>
<!-- Node11 -->
<g id="node22" class="node"><title>Node11</title>
<a xlink:href="class_control_manager.html#a67d548535b36a78e315a0aa5f9f8e6c8" target="_top" xlink:title="ControlManager::SetClient">
<polygon style="fill:white;stroke:black;" points="632,-341 632,-362 792,-362 792,-341 632,-341"/>
<text text-anchor="middle" x="712" y="-348" style="font-family:Arial;font-size:10.00;">ControlManager::SetClient</text>
</a>
</g>
<!-- Node10&#45;&gt;Node11 -->
<g id="edge22" class="edge"><title>Node10&#45;&gt;Node11</title>
<path style="fill:none;stroke:midnightblue;" d="M552,-352C578,-352 606,-352 632,-352"/>
<polygon style="fill:midnightblue;stroke:midnightblue;" points="552,-348.5 542,-352 552,-355.5 552,-348.5"/>
</g>
<!-- Node12 -->
<g id="node24" class="node"><title>Node12</title>
<a xlink:href="_control_manager_8cpp.html#a5f09b25cf454170e17d1aa3c2707273a" target="_top" xlink:title="ControlNotificationHandler">
<polygon style="fill:white;stroke:black;" points="848,-341 848,-362 1010,-362 1010,-341 848,-341"/>
<text text-anchor="middle" x="929" y="-348" style="font-family:Arial;font-size:10.00;">ControlNotificationHandler</text>
</a>
</g>
<!-- Node11&#45;&gt;Node12 -->
<g id="edge24" class="edge"><title>Node11&#45;&gt;Node12</title>
<path style="fill:none;stroke:midnightblue;" d="M802,-352C817,-352 833,-352 848,-352"/>
<polygon style="fill:midnightblue;stroke:midnightblue;" points="802,-348.5 792,-352 802,-355.5 802,-348.5"/>
</g>
<!-- Node13 -->
<g id="node26" class="node"><title>Node13</title>
<a xlink:href="class_control_manager.html#ab81bac3e592705b7ca4b23ce473fe26e" target="_top" xlink:title="ControlManager::ControlManager">
<polygon style="fill:white;stroke:black;" points="1046,-341 1046,-362 1244,-362 1244,-341 1046,-341"/>
<text text-anchor="middle" x="1145" y="-348" style="font-family:Arial;font-size:10.00;">ControlManager::ControlManager</text>
</a>
</g>
<!-- Node12&#45;&gt;Node13 -->
<g id="edge26" class="edge"><title>Node12&#45;&gt;Node13</title>
<path style="fill:none;stroke:midnightblue;" d="M1020,-352C1029,-352 1037,-352 1046,-352"/>
<polygon style="fill:midnightblue;stroke:midnightblue;" points="1020,-348.5 1010,-352 1020,-355.5 1020,-348.5"/>
</g>
<!-- Node16 -->
<g id="node32" class="node"><title>Node16</title>
<a xlink:href="_matlab_manager_8h.html#adde5ef25c1ac7d9ccf067e4bc4894675" target="_top" xlink:title="MatlabReceiveHandler">
<polygon style="fill:white;stroke:black;" points="402,-151 402,-172 541,-172 541,-151 402,-151"/>
<text text-anchor="middle" x="471" y="-158" style="font-family:Arial;font-size:10.00;">MatlabReceiveHandler</text>
</a>
</g>
<!-- Node15&#45;&gt;Node16 -->
<g id="edge32" class="edge"><title>Node15&#45;&gt;Node16</title>
<path style="fill:none;stroke:midnightblue;" d="M323,-162C349,-162 377,-162 402,-162"/>
<polygon style="fill:midnightblue;stroke:midnightblue;" points="323,-158.5 313,-162 323,-165.5 323,-158.5"/>
</g>
<!-- Node17 -->
<g id="node34" class="node"><title>Node17</title>
<a xlink:href="class_matlab_manager.html#ad5ff9f0aacdecada53a107e83b9e3712" target="_top" xlink:title="MatlabManager::SetClient">
<polygon style="fill:white;stroke:black;" points="634,-151 634,-172 791,-172 791,-151 634,-151"/>
<text text-anchor="middle" x="712" y="-158" style="font-family:Arial;font-size:10.00;">MatlabManager::SetClient</text>
</a>
</g>
<!-- Node16&#45;&gt;Node17 -->
<g id="edge34" class="edge"><title>Node16&#45;&gt;Node17</title>
<path style="fill:none;stroke:midnightblue;" d="M551,-162C578,-162 607,-162 634,-162"/>
<polygon style="fill:midnightblue;stroke:midnightblue;" points="551,-158.5 541,-162 551,-165.5 551,-158.5"/>
</g>
<!-- Node18 -->
<g id="node36" class="node"><title>Node18</title>
<a xlink:href="_matlab_manager_8cpp.html#aa340f269e04280ce987b3a8325f27580" target="_top" xlink:title="MatlabNotificationHandler">
<polygon style="fill:white;stroke:black;" points="850,-151 850,-172 1009,-172 1009,-151 850,-151"/>
<text text-anchor="middle" x="929" y="-158" style="font-family:Arial;font-size:10.00;">MatlabNotificationHandler</text>
</a>
</g>
<!-- Node17&#45;&gt;Node18 -->
<g id="edge36" class="edge"><title>Node17&#45;&gt;Node18</title>
<path style="fill:none;stroke:midnightblue;" d="M801,-162C817,-162 834,-162 850,-162"/>
<polygon style="fill:midnightblue;stroke:midnightblue;" points="801,-158.5 791,-162 801,-165.5 801,-158.5"/>
</g>
<!-- Node19 -->
<g id="node38" class="node"><title>Node19</title>
<a xlink:href="class_matlab_manager.html#a319d996a8872d9cdba8cf335520af258" target="_top" xlink:title="MatlabManager::MatlabManager">
<polygon style="fill:white;stroke:black;" points="1049,-151 1049,-172 1241,-172 1241,-151 1049,-151"/>
<text text-anchor="middle" x="1145" y="-158" style="font-family:Arial;font-size:10.00;">MatlabManager::MatlabManager</text>
</a>
</g>
<!-- Node18&#45;&gt;Node19 -->
<g id="edge38" class="edge"><title>Node18&#45;&gt;Node19</title>
<path style="fill:none;stroke:midnightblue;" d="M1019,-162C1029,-162 1039,-162 1049,-162"/>
<polygon style="fill:midnightblue;stroke:midnightblue;" points="1019,-158.5 1009,-162 1019,-165.5 1019,-158.5"/>
</g>
<!-- Node22 -->
<g id="node44" class="node"><title>Node22</title>
<a xlink:href="class_system_manager.html#a87443d7e75b0f170535d315c27237253" target="_top" xlink:title="SystemManager::AdvanceTimeStep">
<polygon style="fill:white;stroke:black;" points="366,-18 366,-39 576,-39 576,-18 366,-18"/>
<text text-anchor="middle" x="471" y="-25" style="font-family:Arial;font-size:10.00;">SystemManager::AdvanceTimeStep</text>
</a>
</g>
<!-- Node21&#45;&gt;Node22 -->
<g id="edge44" class="edge"><title>Node21&#45;&gt;Node22</title>
<path style="fill:none;stroke:midnightblue;" d="M322,-40C336,-39 352,-38 366,-37"/>
<polygon style="fill:midnightblue;stroke:midnightblue;" points="321.602,-36.5222 312,-41 322.299,-43.4875 321.602,-36.5222"/>
</g>
<!-- Node23 -->
<g id="node46" class="node"><title>Node23</title>
<a xlink:href="main_8cpp.html#a3c04138a5bfe5d72780bb7e82a18e627" target="_top" xlink:title="main">
<polygon style="fill:white;stroke:black;" points="690,-18 690,-39 734,-39 734,-18 690,-18"/>
<text text-anchor="middle" x="712" y="-25" style="font-family:Arial;font-size:10.00;">main</text>
</a>
</g>
<!-- Node22&#45;&gt;Node23 -->
<g id="edge46" class="edge"><title>Node22&#45;&gt;Node23</title>
<path style="fill:none;stroke:midnightblue;" d="M586,-29C626,-29 666,-29 690,-29"/>
<polygon style="fill:midnightblue;stroke:midnightblue;" points="586,-25.5001 576,-29 586,-32.5001 586,-25.5001"/>
</g>
<!-- Node26&#45;&gt;Node22 -->
<g id="edge54" class="edge"><title>Node26&#45;&gt;Node22</title>
<path style="fill:none;stroke:midnightblue;" d="M340,-19C349,-20 357,-20 366,-21"/>
<polygon style="fill:midnightblue;stroke:midnightblue;" points="340.299,-15.5125 330,-18 339.602,-22.4778 340.299,-15.5125"/>
</g>
<!-- Node28 -->
<g id="node57" class="node"><title>Node28</title>
<a xlink:href="class_client_manager.html#a1dd815fe845945ae8966b3a3f449ba0e" target="_top" xlink:title="Processes the consumption information. ">
<polygon style="fill:white;stroke:black;" points="371,-233 371,-254 571,-254 571,-233 371,-233"/>
<text text-anchor="middle" x="471" y="-240" style="font-family:Arial;font-size:10.00;">ClientManager::ProcessClientData</text>
</a>
</g>
<!-- Node27&#45;&gt;Node28 -->
<g id="edge58" class="edge"><title>Node27&#45;&gt;Node28</title>
<path style="fill:none;stroke:midnightblue;" d="M326,-240C341,-241 356,-241 371,-241"/>
<polygon style="fill:midnightblue;stroke:midnightblue;" points="326,-236.5 316,-240 326,-243.5 326,-236.5"/>
</g>
<!-- Node28&#45;&gt;Node4 -->
<g id="edge60" class="edge"><title>Node28&#45;&gt;Node4</title>
<path style="fill:none;stroke:midnightblue;" d="M567,-255C583,-257 600,-259 617,-261"/>
<polygon style="fill:midnightblue;stroke:midnightblue;" points="567.299,-251.512 557,-254 566.602,-258.478 567.299,-251.512"/>
</g>
</g>
</svg>
