<?xml version="1.0" encoding="UTF-8" standalone="no"?>
<!DOCTYPE svg PUBLIC "-//W3C//DTD SVG 1.0//EN"
 "http://www.w3.org/TR/2001/REC-SVG-20010904/DTD/svg10.dtd" [
 <!ATTLIST svg xmlns:xlink CDATA #FIXED "http://www.w3.org/1999/xlink">
]>
<!-- Generated by Graphviz version 2.14.1 (Fri Nov  9 08:19:38 GMT 2007)
     For user: (asakyurek) Alper Sinan Akyurek -->
<!-- Title: S2Sim/LogPrint.cpp Pages: 1 -->
<svg width="150pt" height="204pt"
 viewBox="0.00 0.00 150.00 204.00" xmlns="http://www.w3.org/2000/svg" xmlns:xlink="http://www.w3.org/1999/xlink">
<g id="graph0" class="graph" transform="scale(1 1) rotate(0) translate(4 200)">
<title>S2Sim/LogPrint.cpp</title>
<polygon style="fill:white;stroke:white;" points="-4,4 -4,-200 146,-200 146,4 -4,4"/>
<!-- Node1 -->
<g id="node1" class="node"><title>Node1</title>
<polygon style="fill:#bfbfbf;stroke:black;" points="0,-174 0,-195 120,-195 120,-174 0,-174"/>
<text text-anchor="middle" x="60" y="-181" style="font-family:Arial;font-size:10.00;">S2Sim/LogPrint.cpp</text>
</g>
<!-- Node2 -->
<g id="node3" class="node"><title>Node2</title>
<a xlink:href="_log_print_8h.html" target="_top" xlink:title="Defines logging related functions. ">
<polygon style="fill:white;stroke:black;" points="25,-116 25,-137 95,-137 95,-116 25,-116"/>
<text text-anchor="middle" x="60" y="-123" style="font-family:Arial;font-size:10.00;">LogPrint.h</text>
</a>
</g>
<!-- Node1&#45;&gt;Node2 -->
<g id="edge2" class="edge"><title>Node1&#45;&gt;Node2</title>
<path style="fill:none;stroke:midnightblue;" d="M60,-174C60,-166 60,-156 60,-147"/>
<polygon style="fill:midnightblue;stroke:midnightblue;" points="63.5001,-147 60,-137 56.5001,-147 63.5001,-147"/>
</g>
<!-- Node3 -->
<g id="node5" class="node"><title>Node3</title>
<polygon style="fill:white;stroke:#bfbfbf;" points="28,-0 28,-21 92,-21 92,-0 28,-0"/>
<text text-anchor="middle" x="60" y="-7" style="font-family:Arial;font-size:10.00;">iostream</text>
</g>
<!-- Node2&#45;&gt;Node3 -->
<g id="edge4" class="edge"><title>Node2&#45;&gt;Node3</title>
<path style="fill:none;stroke:midnightblue;" d="M55,-116C51,-106 45,-92 43,-80 42,-70 42,-67 43,-58 44,-49 48,-39 51,-30"/>
<polygon style="fill:midnightblue;stroke:midnightblue;" points="54.1369,-31.5596 55,-21 47.7402,-28.7166 54.1369,-31.5596"/>
</g>
<!-- Node4 -->
<g id="node7" class="node"><title>Node4</title>
<a xlink:href="_semaphore_8h.html" target="_top" xlink:title="Defines the Semaphore class under Windows 32/64bit and POSIX enables OSes. ">
<polygon style="fill:white;stroke:black;" points="52,-58 52,-79 142,-79 142,-58 52,-58"/>
<text text-anchor="middle" x="97" y="-65" style="font-family:Arial;font-size:10.00;">Semaphore.h</text>
</a>
</g>
<!-- Node2&#45;&gt;Node4 -->
<g id="edge6" class="edge"><title>Node2&#45;&gt;Node4</title>
<path style="fill:none;stroke:midnightblue;" d="M67,-116C72,-108 79,-97 85,-87"/>
<polygon style="fill:midnightblue;stroke:midnightblue;" points="87.8,-89.1 91,-79 82.2,-84.9 87.8,-89.1"/>
</g>
<!-- Node4&#45;&gt;Node3 -->
<g id="edge8" class="edge"><title>Node4&#45;&gt;Node3</title>
<path style="fill:none;stroke:midnightblue;" d="M90,-58C85,-50 78,-39 72,-29"/>
<polygon style="fill:midnightblue;stroke:midnightblue;" points="74.8,-26.9 66,-21 69.2,-31.1 74.8,-26.9"/>
</g>
</g>
</svg>
