<?xml version="1.0" encoding="UTF-8" standalone="no"?>
<!DOCTYPE svg PUBLIC "-//W3C//DTD SVG 1.0//EN"
 "http://www.w3.org/TR/2001/REC-SVG-20010904/DTD/svg10.dtd" [
 <!ATTLIST svg xmlns:xlink CDATA #FIXED "http://www.w3.org/1999/xlink">
]>
<!-- Generated by Graphviz version 2.14.1 (Fri Nov  9 08:19:38 GMT 2007)
     For user: (asakyurek) Alper Sinan Akyurek -->
<!-- Title: S2Sim/LogPrint.h Pages: 1 -->
<svg width="143pt" height="146pt"
 viewBox="0.00 0.00 143.00 146.00" xmlns="http://www.w3.org/2000/svg" xmlns:xlink="http://www.w3.org/1999/xlink">
<g id="graph0" class="graph" transform="scale(1 1) rotate(0) translate(4 142)">
<title>S2Sim/LogPrint.h</title>
<polygon style="fill:white;stroke:white;" points="-4,4 -4,-142 139,-142 139,4 -4,4"/>
<!-- Node1 -->
<g id="node1" class="node"><title>Node1</title>
<polygon style="fill:#bfbfbf;stroke:black;" points="0,-116 0,-137 107,-137 107,-116 0,-116"/>
<text text-anchor="middle" x="53" y="-123" style="font-family:Arial;font-size:10.00;">S2Sim/LogPrint.h</text>
</g>
<!-- Node2 -->
<g id="node3" class="node"><title>Node2</title>
<polygon style="fill:white;stroke:#bfbfbf;" points="21,-0 21,-21 85,-21 85,-0 21,-0"/>
<text text-anchor="middle" x="53" y="-7" style="font-family:Arial;font-size:10.00;">iostream</text>
</g>
<!-- Node1&#45;&gt;Node2 -->
<g id="edge2" class="edge"><title>Node1&#45;&gt;Node2</title>
<path style="fill:none;stroke:midnightblue;" d="M48,-116C44,-106 38,-92 36,-80 35,-70 35,-67 36,-58 37,-49 41,-39 44,-30"/>
<polygon style="fill:midnightblue;stroke:midnightblue;" points="47.1369,-31.5596 48,-21 40.7402,-28.7166 47.1369,-31.5596"/>
</g>
<!-- Node3 -->
<g id="node5" class="node"><title>Node3</title>
<a xlink:href="_semaphore_8h.html" target="_top" xlink:title="Defines the Semaphore class under Windows 32/64bit and POSIX enables OSes. ">
<polygon style="fill:white;stroke:black;" points="45,-58 45,-79 135,-79 135,-58 45,-58"/>
<text text-anchor="middle" x="90" y="-65" style="font-family:Arial;font-size:10.00;">Semaphore.h</text>
</a>
</g>
<!-- Node1&#45;&gt;Node3 -->
<g id="edge4" class="edge"><title>Node1&#45;&gt;Node3</title>
<path style="fill:none;stroke:midnightblue;" d="M60,-116C65,-108 72,-97 78,-87"/>
<polygon style="fill:midnightblue;stroke:midnightblue;" points="80.8,-89.1 84,-79 75.2,-84.9 80.8,-89.1"/>
</g>
<!-- Node3&#45;&gt;Node2 -->
<g id="edge6" class="edge"><title>Node3&#45;&gt;Node2</title>
<path style="fill:none;stroke:midnightblue;" d="M83,-58C78,-50 71,-39 65,-29"/>
<polygon style="fill:midnightblue;stroke:midnightblue;" points="67.8,-26.9 59,-21 62.2,-31.1 67.8,-26.9"/>
</g>
</g>
</svg>
