<?xml version="1.0" encoding="UTF-8" standalone="no"?>
<!DOCTYPE svg PUBLIC "-//W3C//DTD SVG 1.0//EN"
 "http://www.w3.org/TR/2001/REC-SVG-20010904/DTD/svg10.dtd" [
 <!ATTLIST svg xmlns:xlink CDATA #FIXED "http://www.w3.org/1999/xlink">
]>
<!-- Generated by Graphviz version 2.14.1 (Fri Nov  9 08:19:38 GMT 2007)
     For user: (asakyurek) Alper Sinan Akyurek -->
<!-- Title: S2Sim/LogPrint.h Pages: 1 -->
<svg width="751pt" height="378pt"
 viewBox="0.00 0.00 751.00 378.00" xmlns="http://www.w3.org/2000/svg" xmlns:xlink="http://www.w3.org/1999/xlink">
<g id="graph0" class="graph" transform="scale(1 1) rotate(0) translate(4 374)">
<title>S2Sim/LogPrint.h</title>
<polygon style="fill:white;stroke:white;" points="-4,4 -4,-374 747,-374 747,4 -4,4"/>
<!-- Node1 -->
<g id="node1" class="node"><title>Node1</title>
<polygon style="fill:#bfbfbf;stroke:black;" points="299,-348 299,-369 406,-369 406,-348 299,-348"/>
<text text-anchor="middle" x="352" y="-355" style="font-family:Arial;font-size:10.00;">S2Sim/LogPrint.h</text>
</g>
<!-- Node2 -->
<g id="node3" class="node"><title>Node2</title>
<a xlink:href="_connection_manager_8h.html" target="_top" xlink:title="This file defines the ConnectionManager class. ">
<polygon style="fill:white;stroke:black;" points="150,-290 150,-311 324,-311 324,-290 150,-290"/>
<text text-anchor="middle" x="237" y="-297" style="font-family:Arial;font-size:10.00;">S2Sim/ConnectionManager.h</text>
</a>
</g>
<!-- Node1&#45;&gt;Node2 -->
<g id="edge2" class="edge"><title>Node1&#45;&gt;Node2</title>
<path style="fill:none;stroke:midnightblue;" d="M321,-343C301,-333 274,-320 257,-311"/>
<polygon style="fill:midnightblue;stroke:midnightblue;" points="319.559,-346.203 330,-348 322.958,-340.084 319.559,-346.203"/>
</g>
<!-- Node3 -->
<g id="node5" class="node"><title>Node3</title>
<a xlink:href="_client_manager_8h.html" target="_top" xlink:title="Header file for the ClientManager class. ">
<polygon style="fill:white;stroke:black;" points="265,-232 265,-253 408,-253 408,-232 265,-232"/>
<text text-anchor="middle" x="336" y="-239" style="font-family:Arial;font-size:10.00;">S2Sim/ClientManager.h</text>
</a>
</g>
<!-- Node1&#45;&gt;Node3 -->
<g id="edge50" class="edge"><title>Node1&#45;&gt;Node3</title>
<path style="fill:none;stroke:midnightblue;" d="M349,-338C345,-313 340,-272 337,-253"/>
<polygon style="fill:midnightblue;stroke:midnightblue;" points="345.522,-338.398 350,-348 352.488,-337.701 345.522,-338.398"/>
</g>
<!-- Node5 -->
<g id="node10" class="node"><title>Node5</title>
<a xlink:href="_system_manager_8h.html" target="_top" xlink:title="Defines the SystemManager class. ">
<polygon style="fill:white;stroke:black;" points="379,-116 379,-137 530,-137 530,-116 379,-116"/>
<text text-anchor="middle" x="454" y="-123" style="font-family:Arial;font-size:10.00;">S2Sim/SystemManager.h</text>
</a>
</g>
<!-- Node1&#45;&gt;Node5 -->
<g id="edge48" class="edge"><title>Node1&#45;&gt;Node5</title>
<path style="fill:none;stroke:midnightblue;" d="M383,-343C427,-318 505,-266 538,-196 550,-168 514,-148 486,-137"/>
<polygon style="fill:midnightblue;stroke:midnightblue;" points="381.042,-340.084 374,-348 384.441,-346.203 381.042,-340.084"/>
</g>
<!-- Node7 -->
<g id="node16" class="node"><title>Node7</title>
<a xlink:href="_control_manager_8h.html" target="_top" xlink:title="This file defines the ControlManager class. ">
<polygon style="fill:white;stroke:black;" points="149,-174 149,-195 300,-195 300,-174 149,-174"/>
<text text-anchor="middle" x="224" y="-181" style="font-family:Arial;font-size:10.00;">S2Sim/ControlManager.h</text>
</a>
</g>
<!-- Node1&#45;&gt;Node7 -->
<g id="edge46" class="edge"><title>Node1&#45;&gt;Node7</title>
<path style="fill:none;stroke:midnightblue;" d="M289,-349C198,-335 38,-301 6,-254 1,-245 0,-239 6,-232 24,-210 93,-197 149,-191"/>
<polygon style="fill:midnightblue;stroke:midnightblue;" points="288.508,-352.471 299,-351 289.881,-345.607 288.508,-352.471"/>
</g>
<!-- Node13 -->
<g id="node39" class="node"><title>Node13</title>
<a xlink:href="_log_print_8cpp.html" target="_top" xlink:title="Defines logging related parameters. ">
<polygon style="fill:white;stroke:black;" points="623,-290 623,-311 743,-311 743,-290 623,-290"/>
<text text-anchor="middle" x="683" y="-297" style="font-family:Arial;font-size:10.00;">S2Sim/LogPrint.cpp</text>
</a>
</g>
<!-- Node1&#45;&gt;Node13 -->
<g id="edge52" class="edge"><title>Node1&#45;&gt;Node13</title>
<path style="fill:none;stroke:midnightblue;" d="M416,-347C477,-337 567,-321 626,-311"/>
<polygon style="fill:midnightblue;stroke:midnightblue;" points="415.119,-343.607 406,-349 416.492,-350.471 415.119,-343.607"/>
</g>
<!-- Node2&#45;&gt;Node3 -->
<g id="edge4" class="edge"><title>Node2&#45;&gt;Node3</title>
<path style="fill:none;stroke:midnightblue;" d="M260,-284C276,-274 298,-261 314,-253"/>
<polygon style="fill:midnightblue;stroke:midnightblue;" points="257.379,-281.541 251,-290 261.262,-287.365 257.379,-281.541"/>
</g>
<!-- Node2&#45;&gt;Node7 -->
<g id="edge40" class="edge"><title>Node2&#45;&gt;Node7</title>
<path style="fill:none;stroke:midnightblue;" d="M140,-293C87,-286 30,-274 14,-254 8,-246 8,-239 14,-232 31,-211 96,-198 149,-192"/>
<polygon style="fill:midnightblue;stroke:midnightblue;" points="139.701,-296.488 150,-294 140.398,-289.522 139.701,-296.488"/>
</g>
<!-- Node9 -->
<g id="node21" class="node"><title>Node9</title>
<a xlink:href="main_8cpp.html" target="_top" xlink:title="Main file that starts an infinite running loop on the SystemManager::AdvanceTimeStep method...">
<polygon style="fill:white;stroke:black;" points="139,-0 139,-21 243,-21 243,-0 139,-0"/>
<text text-anchor="middle" x="191" y="-7" style="font-family:Arial;font-size:10.00;">S2Sim/main.cpp</text>
</a>
</g>
<!-- Node2&#45;&gt;Node9 -->
<g id="edge44" class="edge"><title>Node2&#45;&gt;Node9</title>
<path style="fill:none;stroke:midnightblue;" d="M236,-280C234,-265 229,-246 218,-232 193,-202 160,-227 140,-196 107,-144 117,-113 143,-58 150,-42 164,-29 175,-21"/>
<polygon style="fill:midnightblue;stroke:midnightblue;" points="232.522,-280.398 237,-290 239.488,-279.701 232.522,-280.398"/>
</g>
<!-- Node12 -->
<g id="node33" class="node"><title>Node12</title>
<a xlink:href="_connection_manager_8cpp.html" target="_top" xlink:title="This file implements the ConnectionManager class. ">
<polygon style="fill:white;stroke:black;" points="23,-232 23,-253 210,-253 210,-232 23,-232"/>
<text text-anchor="middle" x="116" y="-239" style="font-family:Arial;font-size:10.00;">S2Sim/ConnectionManager.cpp</text>
</a>
</g>
<!-- Node2&#45;&gt;Node12 -->
<g id="edge42" class="edge"><title>Node2&#45;&gt;Node12</title>
<path style="fill:none;stroke:midnightblue;" d="M205,-286C183,-275 155,-262 137,-253"/>
<polygon style="fill:midnightblue;stroke:midnightblue;" points="203.44,-289.137 214,-290 206.283,-282.74 203.44,-289.137"/>
</g>
<!-- Node3&#45;&gt;Node2 -->
<g id="edge8" class="edge"><title>Node3&#45;&gt;Node2</title>
<path style="fill:none;stroke:midnightblue;" d="M315,-258C299,-268 278,-281 261,-290"/>
<polygon style="fill:midnightblue;stroke:midnightblue;" points="316.958,-260.916 324,-253 313.559,-254.797 316.958,-260.916"/>
</g>
<!-- Node4 -->
<g id="node7" class="node"><title>Node4</title>
<a xlink:href="_client_manager_8cpp.html" target="_top" xlink:title="Source file for the ClientManager class. ">
<polygon style="fill:white;stroke:black;" points="373,-174 373,-195 529,-195 529,-174 373,-174"/>
<text text-anchor="middle" x="451" y="-181" style="font-family:Arial;font-size:10.00;">S2Sim/ClientManager.cpp</text>
</a>
</g>
<!-- Node3&#45;&gt;Node4 -->
<g id="edge6" class="edge"><title>Node3&#45;&gt;Node4</title>
<path style="fill:none;stroke:midnightblue;" d="M367,-227C387,-217 414,-204 431,-195"/>
<polygon style="fill:midnightblue;stroke:midnightblue;" points="365.042,-224.084 358,-232 368.441,-230.203 365.042,-224.084"/>
</g>
<!-- Node3&#45;&gt;Node5 -->
<g id="edge10" class="edge"><title>Node3&#45;&gt;Node5</title>
<path style="fill:none;stroke:midnightblue;" d="M333,-222C335,-207 342,-188 355,-174 370,-156 394,-145 414,-137"/>
<polygon style="fill:midnightblue;stroke:midnightblue;" points="329.512,-221.701 332,-232 336.478,-222.398 329.512,-221.701"/>
</g>
<!-- Node3&#45;&gt;Node7 -->
<g id="edge38" class="edge"><title>Node3&#45;&gt;Node7</title>
<path style="fill:none;stroke:midnightblue;" d="M306,-227C286,-217 260,-204 243,-195"/>
<polygon style="fill:midnightblue;stroke:midnightblue;" points="304.559,-230.203 315,-232 307.958,-224.084 304.559,-230.203"/>
</g>
<!-- Node5&#45;&gt;Node3 -->
<g id="edge32" class="edge"><title>Node5&#45;&gt;Node3</title>
<path style="fill:none;stroke:midnightblue;" d="M421,-141C404,-149 386,-159 373,-174 357,-191 350,-217 344,-232"/>
<polygon style="fill:midnightblue;stroke:midnightblue;" points="422.283,-144.26 430,-137 419.44,-137.863 422.283,-144.26"/>
</g>
<!-- Node6 -->
<g id="node12" class="node"><title>Node6</title>
<a xlink:href="_matlab_manager_8h.html" target="_top" xlink:title="Defines the MatlabManager class. ">
<polygon style="fill:white;stroke:black;" points="328,-58 328,-79 476,-79 476,-58 328,-58"/>
<text text-anchor="middle" x="402" y="-65" style="font-family:Arial;font-size:10.00;">S2Sim/MatlabManager.h</text>
</a>
</g>
<!-- Node5&#45;&gt;Node6 -->
<g id="edge12" class="edge"><title>Node5&#45;&gt;Node6</title>
<path style="fill:none;stroke:midnightblue;" d="M432,-109C422,-99 412,-87 406,-79"/>
<polygon style="fill:midnightblue;stroke:midnightblue;" points="429.454,-111.404 439,-116 434.404,-106.454 429.454,-111.404"/>
</g>
<!-- Node5&#45;&gt;Node7 -->
<g id="edge30" class="edge"><title>Node5&#45;&gt;Node7</title>
<path style="fill:none;stroke:midnightblue;" d="M409,-140C370,-150 313,-164 273,-174"/>
<polygon style="fill:midnightblue;stroke:midnightblue;" points="410.427,-143.226 419,-137 408.416,-136.521 410.427,-143.226"/>
</g>
<!-- Node5&#45;&gt;Node9 -->
<g id="edge34" class="edge"><title>Node5&#45;&gt;Node9</title>
<path style="fill:none;stroke:midnightblue;" d="M408,-113C382,-104 348,-92 319,-80 277,-61 232,-35 208,-21"/>
<polygon style="fill:midnightblue;stroke:midnightblue;" points="407.416,-116.479 418,-116 409.427,-109.774 407.416,-116.479"/>
</g>
<!-- Node11 -->
<g id="node29" class="node"><title>Node11</title>
<a xlink:href="_system_manager_8cpp.html" target="_top" xlink:title="Implements the SystemManager class. ">
<polygon style="fill:white;stroke:black;" points="494,-58 494,-79 658,-79 658,-58 494,-58"/>
<text text-anchor="middle" x="576" y="-65" style="font-family:Arial;font-size:10.00;">S2Sim/SystemManager.cpp</text>
</a>
</g>
<!-- Node5&#45;&gt;Node11 -->
<g id="edge36" class="edge"><title>Node5&#45;&gt;Node11</title>
<path style="fill:none;stroke:midnightblue;" d="M486,-112C508,-101 536,-88 555,-79"/>
<polygon style="fill:midnightblue;stroke:midnightblue;" points="484.717,-108.74 477,-116 487.56,-115.137 484.717,-108.74"/>
</g>
<!-- Node6&#45;&gt;Node3 -->
<g id="edge14" class="edge"><title>Node6&#45;&gt;Node3</title>
<path style="fill:none;stroke:midnightblue;" d="M460,-81C492,-90 528,-102 538,-116 558,-144 560,-168 538,-196 522,-216 459,-229 408,-236"/>
<polygon style="fill:midnightblue;stroke:midnightblue;" points="460.492,-77.5292 450,-79 459.119,-84.3933 460.492,-77.5292"/>
</g>
<!-- Node6&#45;&gt;Node5 -->
<g id="edge16" class="edge"><title>Node6&#45;&gt;Node5</title>
<path style="fill:none;stroke:midnightblue;" d="M423,-86C433,-96 443,-107 449,-116"/>
<polygon style="fill:midnightblue;stroke:midnightblue;" points="425.546,-83.5962 416,-79 420.596,-88.546 425.546,-83.5962"/>
</g>
<!-- Node6&#45;&gt;Node7 -->
<g id="edge18" class="edge"><title>Node6&#45;&gt;Node7</title>
<path style="fill:none;stroke:midnightblue;" d="M387,-87C373,-102 353,-124 332,-138 309,-153 280,-166 258,-174"/>
<polygon style="fill:midnightblue;stroke:midnightblue;" points="389.8,-89.1 393,-79 384.2,-84.9 389.8,-89.1"/>
</g>
<!-- Node6&#45;&gt;Node9 -->
<g id="edge26" class="edge"><title>Node6&#45;&gt;Node9</title>
<path style="fill:none;stroke:midnightblue;" d="M352,-55C314,-44 262,-30 228,-21"/>
<polygon style="fill:midnightblue;stroke:midnightblue;" points="351.416,-58.4788 362,-58 353.427,-51.7741 351.416,-58.4788"/>
</g>
<!-- Node10 -->
<g id="node24" class="node"><title>Node10</title>
<a xlink:href="_matlab_manager_8cpp.html" target="_top" xlink:title="Implements the MatlabManager class. ">
<polygon style="fill:white;stroke:black;" points="322,-0 322,-21 483,-21 483,-0 322,-0"/>
<text text-anchor="middle" x="402" y="-7" style="font-family:Arial;font-size:10.00;">S2Sim/MatlabManager.cpp</text>
</a>
</g>
<!-- Node6&#45;&gt;Node10 -->
<g id="edge28" class="edge"><title>Node6&#45;&gt;Node10</title>
<path style="fill:none;stroke:midnightblue;" d="M402,-48C402,-38 402,-28 402,-21"/>
<polygon style="fill:midnightblue;stroke:midnightblue;" points="398.5,-48 402,-58 405.5,-48 398.5,-48"/>
</g>
<!-- Node7&#45;&gt;Node5 -->
<g id="edge20" class="edge"><title>Node7&#45;&gt;Node5</title>
<path style="fill:none;stroke:midnightblue;" d="M272,-171C312,-161 369,-146 409,-137"/>
<polygon style="fill:midnightblue;stroke:midnightblue;" points="270.573,-167.774 262,-174 272.584,-174.479 270.573,-167.774"/>
</g>
<!-- Node8 -->
<g id="node19" class="node"><title>Node8</title>
<a xlink:href="_control_manager_8cpp.html" target="_top" xlink:title="This file implements the ControlManager class. ">
<polygon style="fill:white;stroke:black;" points="159,-116 159,-137 323,-137 323,-116 159,-116"/>
<text text-anchor="middle" x="241" y="-123" style="font-family:Arial;font-size:10.00;">S2Sim/ControlManager.cpp</text>
</a>
</g>
<!-- Node7&#45;&gt;Node8 -->
<g id="edge22" class="edge"><title>Node7&#45;&gt;Node8</title>
<path style="fill:none;stroke:midnightblue;" d="M230,-164C233,-155 236,-144 238,-137"/>
<polygon style="fill:midnightblue;stroke:midnightblue;" points="226.521,-163.416 227,-174 233.226,-165.427 226.521,-163.416"/>
</g>
<!-- Node7&#45;&gt;Node9 -->
<g id="edge24" class="edge"><title>Node7&#45;&gt;Node9</title>
<path style="fill:none;stroke:midnightblue;" d="M184,-169C171,-162 157,-152 150,-138 127,-98 165,-43 182,-21"/>
<polygon style="fill:midnightblue;stroke:midnightblue;" points="182.559,-172.203 193,-174 185.958,-166.084 182.559,-172.203"/>
</g>
</g>
</svg>
