<?xml version="1.0" encoding="UTF-8" standalone="no"?>
<!DOCTYPE svg PUBLIC "-//W3C//DTD SVG 1.0//EN"
 "http://www.w3.org/TR/2001/REC-SVG-20010904/DTD/svg10.dtd" [
 <!ATTLIST svg xmlns:xlink CDATA #FIXED "http://www.w3.org/1999/xlink">
]>
<!-- Generated by Graphviz version 2.14.1 (Fri Nov  9 08:19:38 GMT 2007)
     For user: (asakyurek) Alper Sinan Akyurek -->
<!-- Title: S2Sim/LogPrint.h Pages: 1 -->
<svg width="734pt" height="378pt"
 viewBox="0.00 0.00 734.00 378.00" xmlns="http://www.w3.org/2000/svg" xmlns:xlink="http://www.w3.org/1999/xlink">
<g id="graph0" class="graph" transform="scale(1 1) rotate(0) translate(4 374)">
<title>S2Sim/LogPrint.h</title>
<polygon style="fill:white;stroke:white;" points="-4,4 -4,-374 730,-374 730,4 -4,4"/>
<!-- Node1 -->
<g id="node1" class="node"><title>Node1</title>
<polygon style="fill:#bfbfbf;stroke:black;" points="395,-348 395,-369 502,-369 502,-348 395,-348"/>
<text text-anchor="middle" x="448" y="-355" style="font-family:Arial;font-size:10.00;">S2Sim/LogPrint.h</text>
</g>
<!-- Node2 -->
<g id="node3" class="node"><title>Node2</title>
<a xlink:href="_connection_manager_8h.html" target="_top" xlink:title="S2Sim/ConnectionManager.h">
<polygon style="fill:white;stroke:black;" points="144,-290 144,-311 318,-311 318,-290 144,-290"/>
<text text-anchor="middle" x="231" y="-297" style="font-family:Arial;font-size:10.00;">S2Sim/ConnectionManager.h</text>
</a>
</g>
<!-- Node1&#45;&gt;Node2 -->
<g id="edge2" class="edge"><title>Node1&#45;&gt;Node2</title>
<path style="fill:none;stroke:midnightblue;" d="M397,-345C358,-335 304,-320 269,-311"/>
<polygon style="fill:midnightblue;stroke:midnightblue;" points="396.416,-348.479 407,-348 398.427,-341.774 396.416,-348.479"/>
</g>
<!-- Node3 -->
<g id="node5" class="node"><title>Node3</title>
<a xlink:href="_client_manager_8h.html" target="_top" xlink:title="S2Sim/ClientManager.h">
<polygon style="fill:white;stroke:black;" points="377,-232 377,-253 520,-253 520,-232 377,-232"/>
<text text-anchor="middle" x="448" y="-239" style="font-family:Arial;font-size:10.00;">S2Sim/ClientManager.h</text>
</a>
</g>
<!-- Node1&#45;&gt;Node3 -->
<g id="edge48" class="edge"><title>Node1&#45;&gt;Node3</title>
<path style="fill:none;stroke:midnightblue;" d="M448,-338C448,-313 448,-272 448,-253"/>
<polygon style="fill:midnightblue;stroke:midnightblue;" points="444.5,-338 448,-348 451.5,-338 444.5,-338"/>
</g>
<!-- Node5 -->
<g id="node10" class="node"><title>Node5</title>
<a xlink:href="_system_manager_8h.html" target="_top" xlink:title="S2Sim/SystemManager.h">
<polygon style="fill:white;stroke:black;" points="374,-116 374,-137 525,-137 525,-116 374,-116"/>
<text text-anchor="middle" x="449" y="-123" style="font-family:Arial;font-size:10.00;">S2Sim/SystemManager.h</text>
</a>
</g>
<!-- Node1&#45;&gt;Node5 -->
<g id="edge46" class="edge"><title>Node1&#45;&gt;Node5</title>
<path style="fill:none;stroke:midnightblue;" d="M467,-341C487,-321 516,-288 528,-254 533,-238 534,-190 525,-174 514,-156 495,-144 478,-137"/>
<polygon style="fill:midnightblue;stroke:midnightblue;" points="464.596,-338.454 460,-348 469.546,-343.404 464.596,-338.454"/>
</g>
<!-- Node7 -->
<g id="node16" class="node"><title>Node7</title>
<a xlink:href="_control_manager_8h.html" target="_top" xlink:title="S2Sim/ControlManager.h">
<polygon style="fill:white;stroke:black;" points="132,-174 132,-195 283,-195 283,-174 132,-174"/>
<text text-anchor="middle" x="207" y="-181" style="font-family:Arial;font-size:10.00;">S2Sim/ControlManager.h</text>
</a>
</g>
<!-- Node1&#45;&gt;Node7 -->
<g id="edge44" class="edge"><title>Node1&#45;&gt;Node7</title>
<path style="fill:none;stroke:midnightblue;" d="M434,-340C414,-312 374,-262 330,-232 305,-215 272,-203 247,-195"/>
<polygon style="fill:midnightblue;stroke:midnightblue;" points="431.2,-342.1 440,-348 436.8,-337.9 431.2,-342.1"/>
</g>
<!-- Node13 -->
<g id="node38" class="node"><title>Node13</title>
<a xlink:href="_log_print_8cpp.html" target="_top" xlink:title="S2Sim/LogPrint.cpp">
<polygon style="fill:white;stroke:black;" points="606,-290 606,-311 726,-311 726,-290 606,-290"/>
<text text-anchor="middle" x="666" y="-297" style="font-family:Arial;font-size:10.00;">S2Sim/LogPrint.cpp</text>
</a>
</g>
<!-- Node1&#45;&gt;Node13 -->
<g id="edge50" class="edge"><title>Node1&#45;&gt;Node13</title>
<path style="fill:none;stroke:midnightblue;" d="M500,-345C539,-335 593,-320 628,-311"/>
<polygon style="fill:midnightblue;stroke:midnightblue;" points="498.573,-341.774 490,-348 500.584,-348.479 498.573,-341.774"/>
</g>
<!-- Node2&#45;&gt;Node3 -->
<g id="edge4" class="edge"><title>Node2&#45;&gt;Node3</title>
<path style="fill:none;stroke:midnightblue;" d="M277,-287C315,-276 368,-262 405,-253"/>
<polygon style="fill:midnightblue;stroke:midnightblue;" points="275.573,-283.774 267,-290 277.584,-290.479 275.573,-283.774"/>
</g>
<!-- Node2&#45;&gt;Node7 -->
<g id="edge38" class="edge"><title>Node2&#45;&gt;Node7</title>
<path style="fill:none;stroke:midnightblue;" d="M170,-286C153,-279 136,-269 126,-254 110,-228 148,-207 178,-195"/>
<polygon style="fill:midnightblue;stroke:midnightblue;" points="168.44,-289.137 179,-290 171.283,-282.74 168.44,-289.137"/>
</g>
<!-- Node9 -->
<g id="node21" class="node"><title>Node9</title>
<a xlink:href="main_8cpp.html" target="_top" xlink:title="S2Sim/main.cpp">
<polygon style="fill:white;stroke:black;" points="0,-0 0,-21 104,-21 104,-0 0,-0"/>
<text text-anchor="middle" x="52" y="-7" style="font-family:Arial;font-size:10.00;">S2Sim/main.cpp</text>
</a>
</g>
<!-- Node2&#45;&gt;Node9 -->
<g id="edge42" class="edge"><title>Node2&#45;&gt;Node9</title>
<path style="fill:none;stroke:midnightblue;" d="M137,-288C78,-274 14,-245 14,-185 14,-185 14,-185 14,-127 14,-86 36,-41 46,-21"/>
<polygon style="fill:midnightblue;stroke:midnightblue;" points="136.508,-291.471 147,-290 137.881,-284.607 136.508,-291.471"/>
</g>
<!-- Node12 -->
<g id="node32" class="node"><title>Node12</title>
<a xlink:href="_connection_manager_8cpp.html" target="_top" xlink:title="S2Sim/ConnectionManager.cpp">
<polygon style="fill:white;stroke:black;" points="135,-232 135,-253 322,-253 322,-232 135,-232"/>
<text text-anchor="middle" x="228" y="-239" style="font-family:Arial;font-size:10.00;">S2Sim/ConnectionManager.cpp</text>
</a>
</g>
<!-- Node2&#45;&gt;Node12 -->
<g id="edge40" class="edge"><title>Node2&#45;&gt;Node12</title>
<path style="fill:none;stroke:midnightblue;" d="M230,-280C230,-270 229,-260 229,-253"/>
<polygon style="fill:midnightblue;stroke:midnightblue;" points="226.5,-280 230,-290 233.5,-280 226.5,-280"/>
</g>
<!-- Node3&#45;&gt;Node2 -->
<g id="edge8" class="edge"><title>Node3&#45;&gt;Node2</title>
<path style="fill:none;stroke:midnightblue;" d="M406,-256C369,-266 316,-280 278,-290"/>
<polygon style="fill:midnightblue;stroke:midnightblue;" points="407.427,-259.226 416,-253 405.416,-252.521 407.427,-259.226"/>
</g>
<!-- Node4 -->
<g id="node7" class="node"><title>Node4</title>
<a xlink:href="_client_manager_8cpp.html" target="_top" xlink:title="S2Sim/ClientManager.cpp">
<polygon style="fill:white;stroke:black;" points="338,-174 338,-195 494,-195 494,-174 338,-174"/>
<text text-anchor="middle" x="416" y="-181" style="font-family:Arial;font-size:10.00;">S2Sim/ClientManager.cpp</text>
</a>
</g>
<!-- Node3&#45;&gt;Node4 -->
<g id="edge6" class="edge"><title>Node3&#45;&gt;Node4</title>
<path style="fill:none;stroke:midnightblue;" d="M437,-223C432,-213 426,-203 422,-195"/>
<polygon style="fill:midnightblue;stroke:midnightblue;" points="434.084,-224.958 442,-232 440.203,-221.559 434.084,-224.958"/>
</g>
<!-- Node3&#45;&gt;Node5 -->
<g id="edge10" class="edge"><title>Node3&#45;&gt;Node5</title>
<path style="fill:none;stroke:midnightblue;" d="M468,-226C478,-218 489,-208 494,-196 505,-172 477,-150 460,-137"/>
<polygon style="fill:midnightblue;stroke:midnightblue;" points="465.9,-223.2 460,-232 470.1,-228.8 465.9,-223.2"/>
</g>
<!-- Node3&#45;&gt;Node7 -->
<g id="edge36" class="edge"><title>Node3&#45;&gt;Node7</title>
<path style="fill:none;stroke:midnightblue;" d="M392,-230C348,-219 288,-204 249,-195"/>
<polygon style="fill:midnightblue;stroke:midnightblue;" points="391.508,-233.471 402,-232 392.881,-226.607 391.508,-233.471"/>
</g>
<!-- Node5&#45;&gt;Node3 -->
<g id="edge32" class="edge"><title>Node5&#45;&gt;Node3</title>
<path style="fill:none;stroke:midnightblue;" d="M482,-142C502,-156 522,-175 512,-196 505,-211 490,-224 476,-232"/>
<polygon style="fill:midnightblue;stroke:midnightblue;" points="483.441,-138.797 473,-137 480.042,-144.916 483.441,-138.797"/>
</g>
<!-- Node6 -->
<g id="node12" class="node"><title>Node6</title>
<a xlink:href="_matlab_manager_8h.html" target="_top" xlink:title="S2Sim/MatlabManager.h">
<polygon style="fill:white;stroke:black;" points="217,-58 217,-79 365,-79 365,-58 217,-58"/>
<text text-anchor="middle" x="291" y="-65" style="font-family:Arial;font-size:10.00;">S2Sim/MatlabManager.h</text>
</a>
</g>
<!-- Node5&#45;&gt;Node6 -->
<g id="edge12" class="edge"><title>Node5&#45;&gt;Node6</title>
<path style="fill:none;stroke:midnightblue;" d="M403,-113C374,-102 336,-88 313,-79"/>
<polygon style="fill:midnightblue;stroke:midnightblue;" points="402.416,-116.479 413,-116 404.427,-109.774 402.416,-116.479"/>
</g>
<!-- Node5&#45;&gt;Node7 -->
<g id="edge30" class="edge"><title>Node5&#45;&gt;Node7</title>
<path style="fill:none;stroke:midnightblue;" d="M402,-139C361,-149 301,-164 259,-174"/>
<polygon style="fill:midnightblue;stroke:midnightblue;" points="402.881,-142.393 412,-137 401.508,-135.529 402.881,-142.393"/>
</g>
<!-- Node11 -->
<g id="node28" class="node"><title>Node11</title>
<a xlink:href="_system_manager_8cpp.html" target="_top" xlink:title="S2Sim/SystemManager.cpp">
<polygon style="fill:white;stroke:black;" points="383,-58 383,-79 547,-79 547,-58 383,-58"/>
<text text-anchor="middle" x="465" y="-65" style="font-family:Arial;font-size:10.00;">S2Sim/SystemManager.cpp</text>
</a>
</g>
<!-- Node5&#45;&gt;Node11 -->
<g id="edge34" class="edge"><title>Node5&#45;&gt;Node11</title>
<path style="fill:none;stroke:midnightblue;" d="M455,-106C458,-97 461,-86 462,-79"/>
<polygon style="fill:midnightblue;stroke:midnightblue;" points="451.521,-105.416 452,-116 458.226,-107.427 451.521,-105.416"/>
</g>
<!-- Node6&#45;&gt;Node3 -->
<g id="edge14" class="edge"><title>Node6&#45;&gt;Node3</title>
<path style="fill:none;stroke:midnightblue;" d="M292,-89C294,-117 302,-165 329,-196 345,-214 370,-225 393,-232"/>
<polygon style="fill:midnightblue;stroke:midnightblue;" points="295.478,-88.6021 291,-79 288.512,-89.2987 295.478,-88.6021"/>
</g>
<!-- Node6&#45;&gt;Node5 -->
<g id="edge16" class="edge"><title>Node6&#45;&gt;Node5</title>
<path style="fill:none;stroke:midnightblue;" d="M333,-82C362,-92 400,-106 424,-116"/>
<polygon style="fill:midnightblue;stroke:midnightblue;" points="333.584,-78.5212 323,-79 331.573,-85.2259 333.584,-78.5212"/>
</g>
<!-- Node6&#45;&gt;Node7 -->
<g id="edge18" class="edge"><title>Node6&#45;&gt;Node7</title>
<path style="fill:none;stroke:midnightblue;" d="M282,-88C275,-103 264,-122 253,-138 243,-151 230,-165 220,-174"/>
<polygon style="fill:midnightblue;stroke:midnightblue;" points="285.137,-89.5596 286,-79 278.74,-86.7166 285.137,-89.5596"/>
</g>
<!-- Node6&#45;&gt;Node9 -->
<g id="edge26" class="edge"><title>Node6&#45;&gt;Node9</title>
<path style="fill:none;stroke:midnightblue;" d="M235,-56C192,-45 133,-30 93,-21"/>
<polygon style="fill:midnightblue;stroke:midnightblue;" points="234.508,-59.4708 245,-58 235.881,-52.6067 234.508,-59.4708"/>
</g>
<!-- Node10 -->
<g id="node24" class="node"><title>Node10</title>
<a xlink:href="_matlab_manager_8cpp.html" target="_top" xlink:title="S2Sim/MatlabManager.cpp">
<polygon style="fill:white;stroke:black;" points="211,-0 211,-21 372,-21 372,-0 211,-0"/>
<text text-anchor="middle" x="291" y="-7" style="font-family:Arial;font-size:10.00;">S2Sim/MatlabManager.cpp</text>
</a>
</g>
<!-- Node6&#45;&gt;Node10 -->
<g id="edge28" class="edge"><title>Node6&#45;&gt;Node10</title>
<path style="fill:none;stroke:midnightblue;" d="M291,-48C291,-38 291,-28 291,-21"/>
<polygon style="fill:midnightblue;stroke:midnightblue;" points="287.5,-48 291,-58 294.5,-48 287.5,-48"/>
</g>
<!-- Node7&#45;&gt;Node5 -->
<g id="edge20" class="edge"><title>Node7&#45;&gt;Node5</title>
<path style="fill:none;stroke:midnightblue;" d="M258,-171C300,-161 360,-146 402,-137"/>
<polygon style="fill:midnightblue;stroke:midnightblue;" points="256.573,-167.774 248,-174 258.584,-174.479 256.573,-167.774"/>
</g>
<!-- Node8 -->
<g id="node19" class="node"><title>Node8</title>
<a xlink:href="_control_manager_8cpp.html" target="_top" xlink:title="S2Sim/ControlManager.cpp">
<polygon style="fill:white;stroke:black;" points="80,-116 80,-137 244,-137 244,-116 80,-116"/>
<text text-anchor="middle" x="162" y="-123" style="font-family:Arial;font-size:10.00;">S2Sim/ControlManager.cpp</text>
</a>
</g>
<!-- Node7&#45;&gt;Node8 -->
<g id="edge22" class="edge"><title>Node7&#45;&gt;Node8</title>
<path style="fill:none;stroke:midnightblue;" d="M192,-166C185,-156 176,-145 170,-137"/>
<polygon style="fill:midnightblue;stroke:midnightblue;" points="189.2,-168.1 198,-174 194.8,-163.9 189.2,-168.1"/>
</g>
<!-- Node7&#45;&gt;Node9 -->
<g id="edge24" class="edge"><title>Node7&#45;&gt;Node9</title>
<path style="fill:none;stroke:midnightblue;" d="M150,-171C117,-163 82,-151 71,-138 43,-103 47,-45 50,-21"/>
<polygon style="fill:midnightblue;stroke:midnightblue;" points="149.416,-174.479 160,-174 151.427,-167.774 149.416,-174.479"/>
</g>
</g>
</svg>
