<?xml version="1.0" encoding="UTF-8" standalone="no"?>
<!DOCTYPE svg PUBLIC "-//W3C//DTD SVG 1.0//EN"
 "http://www.w3.org/TR/2001/REC-SVG-20010904/DTD/svg10.dtd" [
 <!ATTLIST svg xmlns:xlink CDATA #FIXED "http://www.w3.org/1999/xlink">
]>
<!-- Generated by Graphviz version 2.14.1 (Fri Nov  9 08:19:38 GMT 2007)
     For user: (asakyurek) Alper Sinan Akyurek -->
<!-- Title: S2Sim/MatlabManager.h Pages: 1 -->
<svg width="756pt" height="320pt"
 viewBox="0.00 0.00 756.00 320.00" xmlns="http://www.w3.org/2000/svg" xmlns:xlink="http://www.w3.org/1999/xlink">
<g id="graph0" class="graph" transform="scale(1 1) rotate(0) translate(4 316)">
<title>S2Sim/MatlabManager.h</title>
<polygon style="fill:white;stroke:white;" points="-4,4 -4,-316 752,-316 752,4 -4,4"/>
<!-- Node1 -->
<g id="node1" class="node"><title>Node1</title>
<polygon style="fill:#bfbfbf;stroke:black;" points="453,-290 453,-311 601,-311 601,-290 453,-290"/>
<text text-anchor="middle" x="527" y="-297" style="font-family:Arial;font-size:10.00;">S2Sim/MatlabManager.h</text>
</g>
<!-- Node2 -->
<g id="node3" class="node"><title>Node2</title>
<a xlink:href="_client_manager_8h.html" target="_top" xlink:title="Header file for the ClientManager class. ">
<polygon style="fill:white;stroke:black;" points="271,-232 271,-253 414,-253 414,-232 271,-232"/>
<text text-anchor="middle" x="342" y="-239" style="font-family:Arial;font-size:10.00;">S2Sim/ClientManager.h</text>
</a>
</g>
<!-- Node1&#45;&gt;Node2 -->
<g id="edge2" class="edge"><title>Node1&#45;&gt;Node2</title>
<path style="fill:none;stroke:midnightblue;" d="M482,-287C449,-276 404,-262 374,-253"/>
<polygon style="fill:midnightblue;stroke:midnightblue;" points="481.416,-290.479 492,-290 483.427,-283.774 481.416,-290.479"/>
</g>
<!-- Node5 -->
<g id="node10" class="node"><title>Node5</title>
<a xlink:href="_control_manager_8h.html" target="_top" xlink:title="This file defines the ControlManager class. ">
<polygon style="fill:white;stroke:black;" points="270,-116 270,-137 421,-137 421,-116 270,-116"/>
<text text-anchor="middle" x="345" y="-123" style="font-family:Arial;font-size:10.00;">S2Sim/ControlManager.h</text>
</a>
</g>
<!-- Node1&#45;&gt;Node5 -->
<g id="edge38" class="edge"><title>Node1&#45;&gt;Node5</title>
<path style="fill:none;stroke:midnightblue;" d="M516,-281C498,-254 466,-206 429,-174 410,-158 386,-145 369,-137"/>
<polygon style="fill:midnightblue;stroke:midnightblue;" points="513.084,-282.958 521,-290 519.203,-279.559 513.084,-282.958"/>
</g>
<!-- Node6 -->
<g id="node12" class="node"><title>Node6</title>
<a xlink:href="_system_manager_8h.html" target="_top" xlink:title="Defines the SystemManager class. ">
<polygon style="fill:white;stroke:black;" points="382,-58 382,-79 533,-79 533,-58 382,-58"/>
<text text-anchor="middle" x="457" y="-65" style="font-family:Arial;font-size:10.00;">S2Sim/SystemManager.h</text>
</a>
</g>
<!-- Node1&#45;&gt;Node6 -->
<g id="edge36" class="edge"><title>Node1&#45;&gt;Node6</title>
<path style="fill:none;stroke:midnightblue;" d="M516,-280C504,-245 485,-175 466,-116 461,-103 456,-88 454,-79"/>
<polygon style="fill:midnightblue;stroke:midnightblue;" points="513.036,-282.015 520,-290 519.536,-279.415 513.036,-282.015"/>
</g>
<!-- Node7 -->
<g id="node17" class="node"><title>Node7</title>
<a xlink:href="main_8cpp.html" target="_top" xlink:title="Main file that starts an infinite running loop on the SystemManager::AdvanceTimeStep method...">
<polygon style="fill:white;stroke:black;" points="29,-0 29,-21 133,-21 133,-0 29,-0"/>
<text text-anchor="middle" x="81" y="-7" style="font-family:Arial;font-size:10.00;">S2Sim/main.cpp</text>
</a>
</g>
<!-- Node1&#45;&gt;Node7 -->
<g id="edge40" class="edge"><title>Node1&#45;&gt;Node7</title>
<path style="fill:none;stroke:midnightblue;" d="M443,-291C294,-272 1,-229 0,-185 0,-185 0,-185 0,-127 1,-80 45,-39 67,-21"/>
<polygon style="fill:midnightblue;stroke:midnightblue;" points="442.701,-294.488 453,-292 443.398,-287.522 442.701,-294.488"/>
</g>
<!-- Node11 -->
<g id="node32" class="node"><title>Node11</title>
<a xlink:href="_matlab_manager_8cpp.html" target="_top" xlink:title="Implements the MatlabManager class. ">
<polygon style="fill:white;stroke:black;" points="588,-232 588,-253 749,-253 749,-232 588,-232"/>
<text text-anchor="middle" x="668" y="-239" style="font-family:Arial;font-size:10.00;">S2Sim/MatlabManager.cpp</text>
</a>
</g>
<!-- Node1&#45;&gt;Node11 -->
<g id="edge42" class="edge"><title>Node1&#45;&gt;Node11</title>
<path style="fill:none;stroke:midnightblue;" d="M563,-286C589,-275 622,-262 644,-253"/>
<polygon style="fill:midnightblue;stroke:midnightblue;" points="561.717,-282.74 554,-290 564.56,-289.137 561.717,-282.74"/>
</g>
<!-- Node3 -->
<g id="node5" class="node"><title>Node3</title>
<a xlink:href="_client_manager_8cpp.html" target="_top" xlink:title="Source file for the ClientManager class. ">
<polygon style="fill:white;stroke:black;" points="264,-174 264,-195 420,-195 420,-174 264,-174"/>
<text text-anchor="middle" x="342" y="-181" style="font-family:Arial;font-size:10.00;">S2Sim/ClientManager.cpp</text>
</a>
</g>
<!-- Node2&#45;&gt;Node3 -->
<g id="edge4" class="edge"><title>Node2&#45;&gt;Node3</title>
<path style="fill:none;stroke:midnightblue;" d="M342,-222C342,-212 342,-202 342,-195"/>
<polygon style="fill:midnightblue;stroke:midnightblue;" points="338.5,-222 342,-232 345.5,-222 338.5,-222"/>
</g>
<!-- Node4 -->
<g id="node7" class="node"><title>Node4</title>
<a xlink:href="_connection_manager_8h.html" target="_top" xlink:title="This file defines the ConnectionManager class. ">
<polygon style="fill:white;stroke:black;" points="34,-174 34,-195 208,-195 208,-174 34,-174"/>
<text text-anchor="middle" x="121" y="-181" style="font-family:Arial;font-size:10.00;">S2Sim/ConnectionManager.h</text>
</a>
</g>
<!-- Node2&#45;&gt;Node4 -->
<g id="edge6" class="edge"><title>Node2&#45;&gt;Node4</title>
<path style="fill:none;stroke:midnightblue;" d="M284,-229C243,-219 188,-204 154,-195"/>
<polygon style="fill:midnightblue;stroke:midnightblue;" points="283.416,-232.479 294,-232 285.427,-225.774 283.416,-232.479"/>
</g>
<!-- Node2&#45;&gt;Node5 -->
<g id="edge34" class="edge"><title>Node2&#45;&gt;Node5</title>
<path style="fill:none;stroke:midnightblue;" d="M297,-228C269,-216 241,-197 255,-174 266,-156 287,-144 305,-137"/>
<polygon style="fill:midnightblue;stroke:midnightblue;" points="296.415,-231.536 307,-232 299.015,-225.036 296.415,-231.536"/>
</g>
<!-- Node2&#45;&gt;Node6 -->
<g id="edge32" class="edge"><title>Node2&#45;&gt;Node6</title>
<path style="fill:none;stroke:midnightblue;" d="M378,-228C393,-221 409,-210 420,-196 447,-159 449,-102 453,-79"/>
<polygon style="fill:midnightblue;stroke:midnightblue;" points="376.717,-224.74 369,-232 379.56,-231.137 376.717,-224.74"/>
</g>
<!-- Node4&#45;&gt;Node2 -->
<g id="edge8" class="edge"><title>Node4&#45;&gt;Node2</title>
<path style="fill:none;stroke:midnightblue;" d="M174,-197C214,-207 269,-222 305,-232"/>
<polygon style="fill:midnightblue;stroke:midnightblue;" points="174.492,-193.529 164,-195 173.119,-200.393 174.492,-193.529"/>
</g>
<!-- Node4&#45;&gt;Node5 -->
<g id="edge10" class="edge"><title>Node4&#45;&gt;Node5</title>
<path style="fill:none;stroke:midnightblue;" d="M174,-171C214,-161 270,-146 306,-137"/>
<polygon style="fill:midnightblue;stroke:midnightblue;" points="172.573,-167.774 164,-174 174.584,-174.479 172.573,-167.774"/>
</g>
<!-- Node4&#45;&gt;Node7 -->
<g id="edge30" class="edge"><title>Node4&#45;&gt;Node7</title>
<path style="fill:none;stroke:midnightblue;" d="M87,-169C75,-161 63,-151 57,-138 37,-98 63,-43 75,-21"/>
<polygon style="fill:midnightblue;stroke:midnightblue;" points="85.5586,-172.203 96,-174 88.9582,-166.084 85.5586,-172.203"/>
</g>
<!-- Node10 -->
<g id="node24" class="node"><title>Node10</title>
<a xlink:href="_connection_manager_8cpp.html" target="_top" xlink:title="This file implements the ConnectionManager class. ">
<polygon style="fill:white;stroke:black;" points="66,-116 66,-137 253,-137 253,-116 66,-116"/>
<text text-anchor="middle" x="159" y="-123" style="font-family:Arial;font-size:10.00;">S2Sim/ConnectionManager.cpp</text>
</a>
</g>
<!-- Node4&#45;&gt;Node10 -->
<g id="edge28" class="edge"><title>Node4&#45;&gt;Node10</title>
<path style="fill:none;stroke:midnightblue;" d="M133,-166C140,-156 147,-145 152,-137"/>
<polygon style="fill:midnightblue;stroke:midnightblue;" points="130.332,-163.665 128,-174 136.268,-167.375 130.332,-163.665"/>
</g>
<!-- Node5&#45;&gt;Node6 -->
<g id="edge12" class="edge"><title>Node5&#45;&gt;Node6</title>
<path style="fill:none;stroke:midnightblue;" d="M370,-111C389,-101 414,-88 433,-79"/>
<polygon style="fill:midnightblue;stroke:midnightblue;" points="368.042,-108.084 361,-116 371.441,-114.203 368.042,-108.084"/>
</g>
<!-- Node5&#45;&gt;Node7 -->
<g id="edge26" class="edge"><title>Node5&#45;&gt;Node7</title>
<path style="fill:none;stroke:midnightblue;" d="M288,-113C259,-105 222,-93 191,-80 154,-63 114,-36 94,-21"/>
<polygon style="fill:midnightblue;stroke:midnightblue;" points="287.416,-116.479 298,-116 289.427,-109.774 287.416,-116.479"/>
</g>
<!-- Node9 -->
<g id="node21" class="node"><title>Node9</title>
<a xlink:href="_control_manager_8cpp.html" target="_top" xlink:title="This file implements the ControlManager class. ">
<polygon style="fill:white;stroke:black;" points="200,-58 200,-79 364,-79 364,-58 200,-58"/>
<text text-anchor="middle" x="282" y="-65" style="font-family:Arial;font-size:10.00;">S2Sim/ControlManager.cpp</text>
</a>
</g>
<!-- Node5&#45;&gt;Node9 -->
<g id="edge24" class="edge"><title>Node5&#45;&gt;Node9</title>
<path style="fill:none;stroke:midnightblue;" d="M326,-109C315,-99 302,-87 293,-79"/>
<polygon style="fill:midnightblue;stroke:midnightblue;" points="323.454,-111.404 333,-116 328.404,-106.454 323.454,-111.404"/>
</g>
<!-- Node6&#45;&gt;Node1 -->
<g id="edge14" class="edge"><title>Node6&#45;&gt;Node1</title>
<path style="fill:none;stroke:midnightblue;" d="M473,-88C477,-96 480,-107 484,-116 505,-181 526,-260 528,-290"/>
<polygon style="fill:midnightblue;stroke:midnightblue;" points="475.916,-86.0418 468,-79 469.797,-89.4414 475.916,-86.0418"/>
</g>
<!-- Node6&#45;&gt;Node2 -->
<g id="edge18" class="edge"><title>Node6&#45;&gt;Node2</title>
<path style="fill:none;stroke:midnightblue;" d="M464,-89C466,-116 462,-164 438,-196 425,-213 404,-225 385,-232"/>
<polygon style="fill:midnightblue;stroke:midnightblue;" points="467.393,-88.1194 462,-79 460.529,-89.4922 467.393,-88.1194"/>
</g>
<!-- Node6&#45;&gt;Node5 -->
<g id="edge16" class="edge"><title>Node6&#45;&gt;Node5</title>
<path style="fill:none;stroke:midnightblue;" d="M434,-84C416,-94 391,-107 372,-116"/>
<polygon style="fill:midnightblue;stroke:midnightblue;" points="435.958,-86.916 443,-79 432.559,-80.7969 435.958,-86.916"/>
</g>
<!-- Node6&#45;&gt;Node7 -->
<g id="edge20" class="edge"><title>Node6&#45;&gt;Node7</title>
<path style="fill:none;stroke:midnightblue;" d="M375,-56C301,-45 196,-29 133,-19"/>
<polygon style="fill:midnightblue;stroke:midnightblue;" points="374.508,-59.4708 385,-58 375.881,-52.6067 374.508,-59.4708"/>
</g>
<!-- Node8 -->
<g id="node19" class="node"><title>Node8</title>
<a xlink:href="_system_manager_8cpp.html" target="_top" xlink:title="Implements the SystemManager class. ">
<polygon style="fill:white;stroke:black;" points="375,-0 375,-21 539,-21 539,-0 375,-0"/>
<text text-anchor="middle" x="457" y="-7" style="font-family:Arial;font-size:10.00;">S2Sim/SystemManager.cpp</text>
</a>
</g>
<!-- Node6&#45;&gt;Node8 -->
<g id="edge22" class="edge"><title>Node6&#45;&gt;Node8</title>
<path style="fill:none;stroke:midnightblue;" d="M457,-48C457,-38 457,-28 457,-21"/>
<polygon style="fill:midnightblue;stroke:midnightblue;" points="453.5,-48 457,-58 460.5,-48 453.5,-48"/>
</g>
</g>
</svg>
