<?xml version="1.0" encoding="UTF-8" standalone="no"?>
<!DOCTYPE svg PUBLIC "-//W3C//DTD SVG 1.0//EN"
 "http://www.w3.org/TR/2001/REC-SVG-20010904/DTD/svg10.dtd" [
 <!ATTLIST svg xmlns:xlink CDATA #FIXED "http://www.w3.org/1999/xlink">
]>
<!-- Generated by Graphviz version 2.14.1 (Fri Nov  9 08:19:38 GMT 2007)
     For user: (asakyurek) Alper Sinan Akyurek -->
<!-- Title: GetMatlabManager Pages: 1 -->
<svg width="1020pt" height="232pt"
 viewBox="0.00 0.00 1020.00 232.00" xmlns="http://www.w3.org/2000/svg" xmlns:xlink="http://www.w3.org/1999/xlink">
<g id="graph0" class="graph" transform="scale(1 1) rotate(0) translate(4 228)">
<title>GetMatlabManager</title>
<polygon style="fill:white;stroke:white;" points="-4,4 -4,-228 1016,-228 1016,4 -4,4"/>
<!-- Node1 -->
<g id="node1" class="node"><title>Node1</title>
<polygon style="fill:#bfbfbf;stroke:black;" points="0,-94 0,-115 120,-115 120,-94 0,-94"/>
<text text-anchor="middle" x="60" y="-101" style="font-family:Arial;font-size:10.00;">GetMatlabManager</text>
</g>
<!-- Node2 -->
<g id="node3" class="node"><title>Node2</title>
<a xlink:href="class_client_manager.html#a6d544b4d20cd3b906b6a033c8d70e4a5" target="_top" xlink:title="Processes an asynchronous client connection request. ">
<polygon style="fill:white;stroke:black;" points="162,-190 162,-224 336,-224 336,-190 162,-190"/>
<text text-anchor="start" x="170" y="-210" style="font-family:Arial;font-size:10.00;">ClientManager::ProcessClient</text>
<text text-anchor="middle" x="249" y="-197" style="font-family:Arial;font-size:10.00;">ConnectionRequest</text>
</a>
</g>
<!-- Node1&#45;&gt;Node2 -->
<g id="edge2" class="edge"><title>Node1&#45;&gt;Node2</title>
<path style="fill:none;stroke:midnightblue;" d="M77,-122C96,-139 126,-165 156,-181 163,-184 170,-187 178,-190"/>
<polygon style="fill:midnightblue;stroke:midnightblue;" points="79.546,-119.596 70,-115 74.5962,-124.546 79.546,-119.596"/>
</g>
<!-- Node4 -->
<g id="node7" class="node"><title>Node4</title>
<a xlink:href="class_control_manager.html#a0d5212df17307aef87d42add3aa6cc7a" target="_top" xlink:title="Starts the decision process by sending necessary information to External Controller. ">
<polygon style="fill:white;stroke:black;" points="157,-151 157,-172 342,-172 342,-151 157,-151"/>
<text text-anchor="middle" x="249" y="-158" style="font-family:Arial;font-size:10.00;">ControlManager::MakeDecision</text>
</a>
</g>
<!-- Node1&#45;&gt;Node4 -->
<g id="edge6" class="edge"><title>Node1&#45;&gt;Node4</title>
<path style="fill:none;stroke:midnightblue;" d="M98,-119C115,-125 137,-132 156,-138 172,-143 189,-147 204,-151"/>
<polygon style="fill:midnightblue;stroke:midnightblue;" points="98.5847,-115.464 88,-115 95.9849,-121.964 98.5847,-115.464"/>
</g>
<!-- Node5 -->
<g id="node9" class="node"><title>Node5</title>
<a xlink:href="class_system_manager.html#a87443d7e75b0f170535d315c27237253" target="_top" xlink:title="SystemManager::AdvanceTimeStep">
<polygon style="fill:white;stroke:black;" points="378,-113 378,-134 588,-134 588,-113 378,-113"/>
<text text-anchor="middle" x="483" y="-120" style="font-family:Arial;font-size:10.00;">SystemManager::AdvanceTimeStep</text>
</a>
</g>
<!-- Node1&#45;&gt;Node5 -->
<g id="edge24" class="edge"><title>Node1&#45;&gt;Node5</title>
<path style="fill:none;stroke:midnightblue;" d="M130,-108C198,-111 301,-116 378,-119"/>
<polygon style="fill:midnightblue;stroke:midnightblue;" points="130,-104.5 120,-108 130,-111.5 130,-104.5"/>
</g>
<!-- Node6 -->
<g id="node11" class="node"><title>Node6</title>
<a xlink:href="main_8cpp.html#a3c04138a5bfe5d72780bb7e82a18e627" target="_top" xlink:title="main">
<polygon style="fill:white;stroke:black;" points="682,-84 682,-105 726,-105 726,-84 682,-84"/>
<text text-anchor="middle" x="704" y="-91" style="font-family:Arial;font-size:10.00;">main</text>
</a>
</g>
<!-- Node1&#45;&gt;Node6 -->
<g id="edge12" class="edge"><title>Node1&#45;&gt;Node6</title>
<path style="fill:none;stroke:midnightblue;" d="M130,-104C274,-102 595,-97 682,-95"/>
<polygon style="fill:midnightblue;stroke:midnightblue;" points="130,-100.5 120,-104 130,-107.5 130,-100.5"/>
</g>
<!-- Node7 -->
<g id="node14" class="node"><title>Node7</title>
<a xlink:href="_matlab_manager_8cpp.html#aa340f269e04280ce987b3a8325f27580" target="_top" xlink:title="MatlabNotificationHandler">
<polygon style="fill:white;stroke:black;" points="625,-27 625,-48 784,-48 784,-27 625,-27"/>
<text text-anchor="middle" x="704" y="-34" style="font-family:Arial;font-size:10.00;">MatlabNotificationHandler</text>
</a>
</g>
<!-- Node1&#45;&gt;Node7 -->
<g id="edge14" class="edge"><title>Node1&#45;&gt;Node7</title>
<path style="fill:none;stroke:midnightblue;" d="M130,-98C139,-96 148,-96 156,-95 323,-77 518,-57 625,-46"/>
<polygon style="fill:midnightblue;stroke:midnightblue;" points="129.602,-94.5222 120,-99 130.299,-101.488 129.602,-94.5222"/>
</g>
<!-- Node9 -->
<g id="node18" class="node"><title>Node9</title>
<a xlink:href="_matlab_manager_8h.html#adde5ef25c1ac7d9ccf067e4bc4894675" target="_top" xlink:title="MatlabReceiveHandler">
<polygon style="fill:white;stroke:black;" points="180,1 180,-20 319,-20 319,1 180,1"/>
<text text-anchor="middle" x="249" y="-6" style="font-family:Arial;font-size:10.00;">MatlabReceiveHandler</text>
</a>
</g>
<!-- Node1&#45;&gt;Node9 -->
<g id="edge18" class="edge"><title>Node1&#45;&gt;Node9</title>
<path style="fill:none;stroke:midnightblue;" d="M80,-87C98,-71 127,-47 156,-34 168,-28 182,-23 195,-20"/>
<polygon style="fill:midnightblue;stroke:midnightblue;" points="77.221,-84.7809 72,-94 81.8306,-90.0489 77.221,-84.7809"/>
</g>
<!-- Node3 -->
<g id="node5" class="node"><title>Node3</title>
<a xlink:href="class_client_manager.html#abf05d2ac88337dfd02e0b7986ee1e18c" target="_top" xlink:title="Called when a message is received. ">
<polygon style="fill:white;stroke:black;" points="384,-196 384,-217 583,-217 583,-196 384,-196"/>
<text text-anchor="middle" x="483" y="-203" style="font-family:Arial;font-size:10.00;">ClientManager::MessageReceived</text>
</a>
</g>
<!-- Node2&#45;&gt;Node3 -->
<g id="edge4" class="edge"><title>Node2&#45;&gt;Node3</title>
<path style="fill:none;stroke:midnightblue;" d="M346,-207C359,-207 371,-207 384,-207"/>
<polygon style="fill:midnightblue;stroke:midnightblue;" points="346,-203.5 336,-207 346,-210.5 346,-203.5"/>
</g>
<!-- Node4&#45;&gt;Node5 -->
<g id="edge8" class="edge"><title>Node4&#45;&gt;Node5</title>
<path style="fill:none;stroke:midnightblue;" d="M327,-149C358,-145 393,-138 422,-134"/>
<polygon style="fill:midnightblue;stroke:midnightblue;" points="326.119,-145.607 317,-151 327.492,-152.471 326.119,-145.607"/>
</g>
<!-- Node5&#45;&gt;Node6 -->
<g id="edge10" class="edge"><title>Node5&#45;&gt;Node6</title>
<path style="fill:none;stroke:midnightblue;" d="M577,-112C616,-107 657,-101 682,-98"/>
<polygon style="fill:midnightblue;stroke:midnightblue;" points="576.602,-108.522 567,-113 577.299,-115.488 576.602,-108.522"/>
</g>
<!-- Node8 -->
<g id="node16" class="node"><title>Node8</title>
<a xlink:href="class_matlab_manager.html#a319d996a8872d9cdba8cf335520af258" target="_top" xlink:title="MatlabManager::MatlabManager">
<polygon style="fill:white;stroke:black;" points="820,-27 820,-48 1012,-48 1012,-27 820,-27"/>
<text text-anchor="middle" x="916" y="-34" style="font-family:Arial;font-size:10.00;">MatlabManager::MatlabManager</text>
</a>
</g>
<!-- Node7&#45;&gt;Node8 -->
<g id="edge16" class="edge"><title>Node7&#45;&gt;Node8</title>
<path style="fill:none;stroke:midnightblue;" d="M794,-38C803,-38 811,-38 820,-38"/>
<polygon style="fill:midnightblue;stroke:midnightblue;" points="794,-34.5001 784,-38 794,-41.5001 794,-34.5001"/>
</g>
<!-- Node10 -->
<g id="node20" class="node"><title>Node10</title>
<a xlink:href="class_matlab_manager.html#ad5ff9f0aacdecada53a107e83b9e3712" target="_top" xlink:title="MatlabManager::SetClient">
<polygon style="fill:white;stroke:black;" points="405,1 405,-20 562,-20 562,1 405,1"/>
<text text-anchor="middle" x="483" y="-6" style="font-family:Arial;font-size:10.00;">MatlabManager::SetClient</text>
</a>
</g>
<!-- Node9&#45;&gt;Node10 -->
<g id="edge20" class="edge"><title>Node9&#45;&gt;Node10</title>
<path style="fill:none;stroke:midnightblue;" d="M329,-10C354,-10 380,-10 405,-10"/>
<polygon style="fill:midnightblue;stroke:midnightblue;" points="329,-6.5001 319,-10 329,-13.5001 329,-6.5001"/>
</g>
<!-- Node10&#45;&gt;Node7 -->
<g id="edge22" class="edge"><title>Node10&#45;&gt;Node7</title>
<path style="fill:none;stroke:midnightblue;" d="M572,-21C589,-24 607,-25 625,-28"/>
<polygon style="fill:midnightblue;stroke:midnightblue;" points="572.299,-17.5125 562,-20 571.602,-24.4778 572.299,-17.5125"/>
</g>
</g>
</svg>
