<?xml version="1.0" encoding="UTF-8" standalone="no"?>
<!DOCTYPE svg PUBLIC "-//W3C//DTD SVG 1.0//EN"
 "http://www.w3.org/TR/2001/REC-SVG-20010904/DTD/svg10.dtd" [
 <!ATTLIST svg xmlns:xlink CDATA #FIXED "http://www.w3.org/1999/xlink">
]>
<!-- Generated by Graphviz version 2.14.1 (Fri Nov  9 08:19:38 GMT 2007)
     For user: (asakyurek) Alper Sinan Akyurek -->
<!-- Title: MatlabNotificationHandler Pages: 1 -->
<svg width="912pt" height="243pt"
 viewBox="0.00 0.00 912.00 243.00" xmlns="http://www.w3.org/2000/svg" xmlns:xlink="http://www.w3.org/1999/xlink">
<g id="graph0" class="graph" transform="scale(1 1) rotate(0) translate(4 239)">
<title>MatlabNotificationHandler</title>
<polygon style="fill:white;stroke:white;" points="-4,4 -4,-239 908,-239 908,4 -4,4"/>
<!-- Node1 -->
<g id="node1" class="node"><title>Node1</title>
<polygon style="fill:#bfbfbf;stroke:black;" points="1,-127 1,-148 160,-148 160,-127 1,-127"/>
<text text-anchor="middle" x="80" y="-134" style="font-family:Arial;font-size:10.00;">MatlabNotificationHandler</text>
</g>
<!-- Node2 -->
<g id="node3" class="node"><title>Node2</title>
<a xlink:href="_log_print_8h.html#a7e0c5f42cad5bc3a44134fb9c9a7a052" target="_top" xlink:title="8 parameter log message ">
<polygon style="fill:white;stroke:black;" points="831,-75 831,-96 891,-96 891,-75 831,-75"/>
<text text-anchor="middle" x="861" y="-82" style="font-family:Arial;font-size:10.00;">LogPrint</text>
</a>
</g>
<!-- Node1&#45;&gt;Node2 -->
<g id="edge2" class="edge"><title>Node1&#45;&gt;Node2</title>
<path style="fill:none;stroke:midnightblue;" d="M120,-148C229,-174 543,-235 782,-150 808,-141 832,-119 846,-103"/>
<polygon style="fill:midnightblue;stroke:midnightblue;" points="848.404,-105.546 853,-96 843.454,-100.596 848.404,-105.546"/>
</g>
<!-- Node3 -->
<g id="node5" class="node"><title>Node3</title>
<a xlink:href="_matlab_manager_8cpp.html#adf11a697c41ba15207a66f8d2b567b75" target="_top" xlink:title="This function returns the only instance of MatlabManager. ">
<polygon style="fill:white;stroke:black;" points="635,-120 635,-141 755,-141 755,-120 635,-120"/>
<text text-anchor="middle" x="695" y="-127" style="font-family:Arial;font-size:10.00;">GetMatlabManager</text>
</a>
</g>
<!-- Node1&#45;&gt;Node3 -->
<g id="edge4" class="edge"><title>Node1&#45;&gt;Node3</title>
<path style="fill:none;stroke:midnightblue;" d="M160,-137C281,-136 510,-133 625,-132"/>
<polygon style="fill:midnightblue;stroke:midnightblue;" points="625,-135.5 635,-132 625,-128.5 625,-135.5"/>
</g>
<!-- Node4 -->
<g id="node7" class="node"><title>Node4</title>
<a xlink:href="class_matlab_manager.html#ad5ff9f0aacdecada53a107e83b9e3712" target="_top" xlink:title="Sets the OpenDSS controller connection information. ">
<polygon style="fill:white;stroke:black;" points="197,-82 197,-103 354,-103 354,-82 197,-82"/>
<text text-anchor="middle" x="275" y="-89" style="font-family:Arial;font-size:10.00;">MatlabManager::SetClient</text>
</a>
</g>
<!-- Node1&#45;&gt;Node4 -->
<g id="edge6" class="edge"><title>Node1&#45;&gt;Node4</title>
<path style="fill:none;stroke:midnightblue;" d="M128,-127C157,-121 192,-112 222,-105"/>
<polygon style="fill:midnightblue;stroke:midnightblue;" points="222.881,-108.393 232,-103 221.508,-101.529 222.881,-108.393"/>
</g>
<!-- Node5 -->
<g id="node9" class="node"><title>Node5</title>
<a xlink:href="class_threaded_t_c_p_connected_client.html#ae8f981925319c228443e0ef78ef0ae67" target="_top" xlink:title="Sets the notification callback function. ">
<polygon style="fill:white;stroke:black;" points="390,-76 390,-110 572,-110 572,-76 390,-76"/>
<text text-anchor="start" x="398" y="-96" style="font-family:Arial;font-size:10.00;">ThreadedTCPConnectedClient</text>
<text text-anchor="middle" x="481" y="-83" style="font-family:Arial;font-size:10.00;">::SetNotificationCallback</text>
</a>
</g>
<!-- Node4&#45;&gt;Node5 -->
<g id="edge8" class="edge"><title>Node4&#45;&gt;Node5</title>
<path style="fill:none;stroke:midnightblue;" d="M354,-93C363,-93 371,-93 380,-93"/>
<polygon style="fill:midnightblue;stroke:midnightblue;" points="380,-96.5001 390,-93 380,-89.5001 380,-96.5001"/>
</g>
<!-- Node6 -->
<g id="node11" class="node"><title>Node6</title>
<a xlink:href="_matlab_manager_8h.html#adde5ef25c1ac7d9ccf067e4bc4894675" target="_top" xlink:title="Wrapper callback function that forwards the received data to MatlabManager. ">
<polygon style="fill:white;stroke:black;" points="412,-37 412,-58 551,-58 551,-37 412,-37"/>
<text text-anchor="middle" x="481" y="-44" style="font-family:Arial;font-size:10.00;">MatlabReceiveHandler</text>
</a>
</g>
<!-- Node4&#45;&gt;Node6 -->
<g id="edge10" class="edge"><title>Node4&#45;&gt;Node6</title>
<path style="fill:none;stroke:midnightblue;" d="M323,-82C344,-77 368,-72 390,-67 400,-65 412,-63 422,-60"/>
<polygon style="fill:midnightblue;stroke:midnightblue;" points="422.881,-63.3933 432,-58 421.508,-56.5292 422.881,-63.3933"/>
</g>
<!-- Node6&#45;&gt;Node2 -->
<g id="edge12" class="edge"><title>Node6&#45;&gt;Node2</title>
<path style="fill:none;stroke:midnightblue;" d="M544,-58C564,-61 587,-64 608,-67 684,-75 771,-81 821,-84"/>
<polygon style="fill:midnightblue;stroke:midnightblue;" points="821,-87.5001 831,-84 821,-80.5001 821,-87.5001"/>
</g>
<!-- Node6&#45;&gt;Node3 -->
<g id="edge14" class="edge"><title>Node6&#45;&gt;Node3</title>
<path style="fill:none;stroke:midnightblue;" d="M550,-58C558,-60 565,-63 572,-67 592,-76 590,-88 608,-100 619,-106 632,-112 644,-117"/>
<polygon style="fill:midnightblue;stroke:midnightblue;" points="643.416,-120.479 654,-120 645.427,-113.774 643.416,-120.479"/>
</g>
<!-- Node7 -->
<g id="node15" class="node"><title>Node7</title>
<a xlink:href="class_matlab_manager.html#a7219113b7bc0744fe8faa94d599fe826" target="_top" xlink:title="Processes the received message from OpenDSS controller. ">
<polygon style="fill:white;stroke:black;" points="609,-37 609,-58 782,-58 782,-37 609,-37"/>
<text text-anchor="middle" x="695" y="-44" style="font-family:Arial;font-size:10.00;">MatlabManager::ProcessData</text>
</a>
</g>
<!-- Node6&#45;&gt;Node7 -->
<g id="edge16" class="edge"><title>Node6&#45;&gt;Node7</title>
<path style="fill:none;stroke:midnightblue;" d="M551,-48C566,-48 583,-48 599,-48"/>
<polygon style="fill:midnightblue;stroke:midnightblue;" points="599,-51.5001 609,-48 599,-44.5001 599,-51.5001"/>
</g>
<!-- Node7&#45;&gt;Node2 -->
<g id="edge18" class="edge"><title>Node7&#45;&gt;Node2</title>
<path style="fill:none;stroke:midnightblue;" d="M739,-58C764,-63 796,-71 821,-77"/>
<polygon style="fill:midnightblue;stroke:midnightblue;" points="820.508,-80.4708 831,-79 821.881,-73.6067 820.508,-80.4708"/>
</g>
<!-- Node8 -->
<g id="node18" class="node"><title>Node8</title>
<a xlink:href="_log_print_8h.html#a46ea30a62534f8ce32cd39454e459b23" target="_top" xlink:title="6 parameter warning message ">
<polygon style="fill:white;stroke:black;" points="819,-37 819,-58 904,-58 904,-37 819,-37"/>
<text text-anchor="middle" x="861" y="-44" style="font-family:Arial;font-size:10.00;">WarningPrint</text>
</a>
</g>
<!-- Node7&#45;&gt;Node8 -->
<g id="edge20" class="edge"><title>Node7&#45;&gt;Node8</title>
<path style="fill:none;stroke:midnightblue;" d="M782,-48C791,-48 800,-48 809,-48"/>
<polygon style="fill:midnightblue;stroke:midnightblue;" points="809,-51.5001 819,-48 809,-44.5001 809,-51.5001"/>
</g>
<!-- Node9 -->
<g id="node20" class="node"><title>Node9</title>
<a xlink:href="_log_print_8h.html#af783a2ea2c57c5f51f905a24f3f5a835" target="_top" xlink:title="6 parameter error message ">
<polygon style="fill:white;stroke:black;" points="829,1 829,-20 894,-20 894,1 829,1"/>
<text text-anchor="middle" x="861" y="-6" style="font-family:Arial;font-size:10.00;">ErrorPrint</text>
</a>
</g>
<!-- Node7&#45;&gt;Node9 -->
<g id="edge22" class="edge"><title>Node7&#45;&gt;Node9</title>
<path style="fill:none;stroke:midnightblue;" d="M743,-37C767,-32 796,-25 819,-19"/>
<polygon style="fill:midnightblue;stroke:midnightblue;" points="819.881,-22.3933 829,-17 818.508,-15.5292 819.881,-22.3933"/>
</g>
</g>
</svg>
