<?xml version="1.0" encoding="UTF-8" standalone="no"?>
<!DOCTYPE svg PUBLIC "-//W3C//DTD SVG 1.0//EN"
 "http://www.w3.org/TR/2001/REC-SVG-20010904/DTD/svg10.dtd" [
 <!ATTLIST svg xmlns:xlink CDATA #FIXED "http://www.w3.org/1999/xlink">
]>
<!-- Generated by Graphviz version 2.14.1 (Fri Nov  9 08:19:38 GMT 2007)
     For user: (asakyurek) Alper Sinan Akyurek -->
<!-- Title: S2Sim/TerraswarmLibrary/MessageHeader.h Pages: 1 -->
<svg width="262pt" height="158pt"
 viewBox="0.00 0.00 262.00 158.00" xmlns="http://www.w3.org/2000/svg" xmlns:xlink="http://www.w3.org/1999/xlink">
<g id="graph0" class="graph" transform="scale(1 1) rotate(0) translate(4 154)">
<title>S2Sim/TerraswarmLibrary/MessageHeader.h</title>
<polygon style="fill:white;stroke:white;" points="-4,4 -4,-154 258,-154 258,4 -4,4"/>
<!-- Node1 -->
<g id="node1" class="node"><title>Node1</title>
<polygon style="fill:#bfbfbf;stroke:black;" points="74,-116 74,-150 227,-150 227,-116 74,-116"/>
<text text-anchor="start" x="82" y="-136" style="font-family:Arial;font-size:10.00;">S2Sim/TerraswarmLibrary</text>
<text text-anchor="middle" x="150" y="-123" style="font-family:Arial;font-size:10.00;">/MessageHeader.h</text>
</g>
<!-- Node2 -->
<g id="node3" class="node"><title>Node2</title>
<a xlink:href="_network_byte_accessor_8h.html" target="_top" xlink:title="Defines the NetworkByteAccessor class for byte order conversion and easier data access. ">
<polygon style="fill:white;stroke:black;" points="26,-58 26,-79 167,-79 167,-58 26,-58"/>
<text text-anchor="middle" x="96" y="-65" style="font-family:Arial;font-size:10.00;">NetworkByteAccessor.h</text>
</a>
</g>
<!-- Node1&#45;&gt;Node2 -->
<g id="edge2" class="edge"><title>Node1&#45;&gt;Node2</title>
<path style="fill:none;stroke:midnightblue;" d="M136,-116C128,-107 119,-96 111,-87"/>
<polygon style="fill:midnightblue;stroke:midnightblue;" points="113.8,-84.9 105,-79 108.2,-89.1 113.8,-84.9"/>
</g>
<!-- Node5 -->
<g id="node9" class="node"><title>Node5</title>
<polygon style="fill:white;stroke:#bfbfbf;" points="184,-58 184,-79 225,-79 225,-58 184,-58"/>
<text text-anchor="middle" x="204" y="-65" style="font-family:Arial;font-size:10.00;">map</text>
</g>
<!-- Node1&#45;&gt;Node5 -->
<g id="edge8" class="edge"><title>Node1&#45;&gt;Node5</title>
<path style="fill:none;stroke:midnightblue;" d="M164,-116C172,-107 181,-96 189,-87"/>
<polygon style="fill:midnightblue;stroke:midnightblue;" points="191.8,-89.1 195,-79 186.2,-84.9 191.8,-89.1"/>
</g>
<!-- Node3 -->
<g id="node5" class="node"><title>Node3</title>
<polygon style="fill:white;stroke:#bfbfbf;" points="0,-0 0,-21 56,-21 56,-0 0,-0"/>
<text text-anchor="middle" x="28" y="-7" style="font-family:Arial;font-size:10.00;">string.h</text>
</g>
<!-- Node2&#45;&gt;Node3 -->
<g id="edge4" class="edge"><title>Node2&#45;&gt;Node3</title>
<path style="fill:none;stroke:midnightblue;" d="M83,-58C73,-49 59,-37 48,-27"/>
<polygon style="fill:midnightblue;stroke:midnightblue;" points="50.1,-24.2 40,-21 45.9,-29.8 50.1,-24.2"/>
</g>
<!-- Node4 -->
<g id="node7" class="node"><title>Node4</title>
<a xlink:href="_compile_time_checker_library_8h.html" target="_top" xlink:title="This file contains template classes to do compile time checking. ">
<polygon style="fill:white;stroke:black;" points="74,-0 74,-21 255,-21 255,-0 74,-0"/>
<text text-anchor="middle" x="164" y="-7" style="font-family:Arial;font-size:10.00;">CompileTimeCheckerLibrary.h</text>
</a>
</g>
<!-- Node2&#45;&gt;Node4 -->
<g id="edge6" class="edge"><title>Node2&#45;&gt;Node4</title>
<path style="fill:none;stroke:midnightblue;" d="M109,-58C119,-49 133,-37 144,-27"/>
<polygon style="fill:midnightblue;stroke:midnightblue;" points="146.1,-29.8 152,-21 141.9,-24.2 146.1,-29.8"/>
</g>
</g>
</svg>
