<?xml version="1.0" encoding="UTF-8" standalone="no"?>
<!DOCTYPE svg PUBLIC "-//W3C//DTD SVG 1.0//EN"
 "http://www.w3.org/TR/2001/REC-SVG-20010904/DTD/svg10.dtd" [
 <!ATTLIST svg xmlns:xlink CDATA #FIXED "http://www.w3.org/1999/xlink">
]>
<!-- Generated by Graphviz version 2.14.1 (Fri Nov  9 08:19:38 GMT 2007)
     For user: (asakyurek) Alper Sinan Akyurek -->
<!-- Title: S2Sim/TerraswarmLibrary/MessageHeader.h Pages: 1 -->
<svg width="1449pt" height="542pt"
 viewBox="0.00 0.00 1449.00 542.00" xmlns="http://www.w3.org/2000/svg" xmlns:xlink="http://www.w3.org/1999/xlink">
<g id="graph0" class="graph" transform="scale(1 1) rotate(0) translate(4 538)">
<title>S2Sim/TerraswarmLibrary/MessageHeader.h</title>
<polygon style="fill:white;stroke:white;" points="-4,4 -4,-538 1445,-538 1445,4 -4,4"/>
<!-- Node1 -->
<g id="node1" class="node"><title>Node1</title>
<polygon style="fill:#bfbfbf;stroke:black;" points="628,-500 628,-534 781,-534 781,-500 628,-500"/>
<text text-anchor="start" x="636" y="-520" style="font-family:Arial;font-size:10.00;">S2Sim/TerraswarmLibrary</text>
<text text-anchor="middle" x="704" y="-507" style="font-family:Arial;font-size:10.00;">/MessageHeader.h</text>
</g>
<!-- Node2 -->
<g id="node3" class="node"><title>Node2</title>
<a xlink:href="_client_manager_8h.html" target="_top" xlink:title="Header file for the ClientManager class. ">
<polygon style="fill:white;stroke:black;" points="574,-296 574,-317 717,-317 717,-296 574,-296"/>
<text text-anchor="middle" x="645" y="-303" style="font-family:Arial;font-size:10.00;">S2Sim/ClientManager.h</text>
</a>
</g>
<!-- Node1&#45;&gt;Node2 -->
<g id="edge2" class="edge"><title>Node1&#45;&gt;Node2</title>
<path style="fill:none;stroke:midnightblue;" d="M674,-493C649,-470 615,-434 600,-394 595,-379 595,-374 600,-360 607,-342 621,-327 632,-317"/>
<polygon style="fill:midnightblue;stroke:midnightblue;" points="672.169,-496.049 682,-500 676.779,-490.781 672.169,-496.049"/>
</g>
<!-- Node13 -->
<g id="node36" class="node"><title>Node13</title>
<a xlink:href="_client_connection_request_8h.html" target="_top" xlink:title="Defines the ClientConnectionRequest classes. ">
<polygon style="fill:white;stroke:black;" points="21,-360 21,-394 189,-394 189,-360 21,-360"/>
<text text-anchor="start" x="29" y="-380" style="font-family:Arial;font-size:10.00;">S2Sim/TerraswarmLibrary</text>
<text text-anchor="middle" x="105" y="-367" style="font-family:Arial;font-size:10.00;">/ClientConnectionRequest.h</text>
</a>
</g>
<!-- Node1&#45;&gt;Node13 -->
<g id="edge46" class="edge"><title>Node1&#45;&gt;Node13</title>
<path style="fill:none;stroke:midnightblue;" d="M618,-501C565,-491 495,-478 434,-464 340,-442 231,-412 165,-394"/>
<polygon style="fill:midnightblue;stroke:midnightblue;" points="617.508,-504.471 628,-503 618.881,-497.607 617.508,-504.471"/>
</g>
<!-- Node15 -->
<g id="node41" class="node"><title>Node15</title>
<a xlink:href="_message_ender_8h.html" target="_top" xlink:title="Defines a MessageEnder class. ">
<polygon style="fill:white;stroke:black;" points="680,-430 680,-464 833,-464 833,-430 680,-430"/>
<text text-anchor="start" x="688" y="-450" style="font-family:Arial;font-size:10.00;">S2Sim/TerraswarmLibrary</text>
<text text-anchor="middle" x="756" y="-437" style="font-family:Arial;font-size:10.00;">/MessageEnder.h</text>
</a>
</g>
<!-- Node1&#45;&gt;Node15 -->
<g id="edge52" class="edge"><title>Node1&#45;&gt;Node15</title>
<path style="fill:none;stroke:midnightblue;" d="M723,-492C730,-483 737,-472 743,-464"/>
<polygon style="fill:midnightblue;stroke:midnightblue;" points="720.2,-489.9 717,-500 725.8,-494.1 720.2,-489.9"/>
</g>
<!-- Node16 -->
<g id="node44" class="node"><title>Node16</title>
<a xlink:href="_client_connection_response_8h.html" target="_top" xlink:title="Defines the Asnyc and Synchronous ClientConnectionResponse messages and classes. ">
<polygon style="fill:white;stroke:black;" points="207,-360 207,-394 383,-394 383,-360 207,-360"/>
<text text-anchor="start" x="215" y="-380" style="font-family:Arial;font-size:10.00;">S2Sim/TerraswarmLibrary</text>
<text text-anchor="middle" x="295" y="-367" style="font-family:Arial;font-size:10.00;">/ClientConnectionResponse.h</text>
</a>
</g>
<!-- Node1&#45;&gt;Node16 -->
<g id="edge94" class="edge"><title>Node1&#45;&gt;Node16</title>
<path style="fill:none;stroke:midnightblue;" d="M633,-497C600,-488 560,-476 525,-464 459,-442 384,-412 338,-394"/>
<polygon style="fill:midnightblue;stroke:midnightblue;" points="632.416,-500.479 643,-500 634.427,-493.774 632.416,-500.479"/>
</g>
<!-- Node18 -->
<g id="node49" class="node"><title>Node18</title>
<a xlink:href="_client_data_8h.html" target="_top" xlink:title="Defines the Aysnchronous and Synchronous ClientData class and messages. ">
<polygon style="fill:white;stroke:black;" points="401,-360 401,-394 554,-394 554,-360 401,-360"/>
<text text-anchor="start" x="409" y="-380" style="font-family:Arial;font-size:10.00;">S2Sim/TerraswarmLibrary</text>
<text text-anchor="middle" x="477" y="-367" style="font-family:Arial;font-size:10.00;">/ClientData.h</text>
</a>
</g>
<!-- Node1&#45;&gt;Node18 -->
<g id="edge96" class="edge"><title>Node1&#45;&gt;Node18</title>
<path style="fill:none;stroke:midnightblue;" d="M636,-496C614,-488 588,-477 567,-464 537,-444 508,-413 491,-394"/>
<polygon style="fill:midnightblue;stroke:midnightblue;" points="635.415,-499.536 646,-500 638.015,-493.036 635.415,-499.536"/>
</g>
<!-- Node20 -->
<g id="node54" class="node"><title>Node20</title>
<a xlink:href="_demand_negotiation_8h.html" target="_top" xlink:title="Defines the DemandNegotiation class and message. ">
<polygon style="fill:white;stroke:black;" points="609,-360 609,-394 762,-394 762,-360 609,-360"/>
<text text-anchor="start" x="617" y="-380" style="font-family:Arial;font-size:10.00;">S2Sim/TerraswarmLibrary</text>
<text text-anchor="middle" x="685" y="-367" style="font-family:Arial;font-size:10.00;">/DemandNegotiation.h</text>
</a>
</g>
<!-- Node1&#45;&gt;Node20 -->
<g id="edge98" class="edge"><title>Node1&#45;&gt;Node20</title>
<path style="fill:none;stroke:midnightblue;" d="M684,-492C678,-483 673,-474 671,-464 664,-440 671,-412 678,-394"/>
<polygon style="fill:midnightblue;stroke:midnightblue;" points="681.2,-494.1 690,-500 686.8,-489.9 681.2,-494.1"/>
</g>
<!-- Node22 -->
<g id="node59" class="node"><title>Node22</title>
<a xlink:href="_get_price_8h.html" target="_top" xlink:title="Defines the GetPrice class and message. ">
<polygon style="fill:white;stroke:black;" points="949,-360 949,-394 1102,-394 1102,-360 949,-360"/>
<text text-anchor="start" x="957" y="-380" style="font-family:Arial;font-size:10.00;">S2Sim/TerraswarmLibrary</text>
<text text-anchor="middle" x="1025" y="-367" style="font-family:Arial;font-size:10.00;">/GetPrice.h</text>
</a>
</g>
<!-- Node1&#45;&gt;Node22 -->
<g id="edge100" class="edge"><title>Node1&#45;&gt;Node22</title>
<path style="fill:none;stroke:midnightblue;" d="M769,-496C792,-488 818,-477 841,-464 862,-451 862,-441 884,-430 910,-415 941,-403 968,-394"/>
<polygon style="fill:midnightblue;stroke:midnightblue;" points="766.985,-493.036 759,-500 769.585,-499.536 766.985,-493.036"/>
</g>
<!-- Node25 -->
<g id="node66" class="node"><title>Node25</title>
<a xlink:href="_price_proposal_8h.html" target="_top" xlink:title="Defines the PriceProposal class. ">
<polygon style="fill:white;stroke:black;" points="1119,-360 1119,-394 1272,-394 1272,-360 1119,-360"/>
<text text-anchor="start" x="1127" y="-380" style="font-family:Arial;font-size:10.00;">S2Sim/TerraswarmLibrary</text>
<text text-anchor="middle" x="1195" y="-367" style="font-family:Arial;font-size:10.00;">/PriceProposal.h</text>
</a>
</g>
<!-- Node1&#45;&gt;Node25 -->
<g id="edge104" class="edge"><title>Node1&#45;&gt;Node25</title>
<path style="fill:none;stroke:midnightblue;" d="M784,-497C812,-489 845,-477 873,-464 896,-452 897,-440 922,-430 1000,-397 1026,-410 1110,-394 1113,-393 1116,-393 1119,-392"/>
<polygon style="fill:midnightblue;stroke:midnightblue;" points="782.573,-493.774 774,-500 784.584,-500.479 782.573,-493.774"/>
</g>
<!-- Node27 -->
<g id="node71" class="node"><title>Node27</title>
<a xlink:href="_set_current_price_8h.html" target="_top" xlink:title="Defines the SetCurrentPrice class. ">
<polygon style="fill:white;stroke:black;" points="1289,-360 1289,-394 1442,-394 1442,-360 1289,-360"/>
<text text-anchor="start" x="1297" y="-380" style="font-family:Arial;font-size:10.00;">S2Sim/TerraswarmLibrary</text>
<text text-anchor="middle" x="1365" y="-367" style="font-family:Arial;font-size:10.00;">/SetCurrentPrice.h</text>
</a>
</g>
<!-- Node1&#45;&gt;Node27 -->
<g id="edge106" class="edge"><title>Node1&#45;&gt;Node27</title>
<path style="fill:none;stroke:midnightblue;" d="M791,-502C828,-493 871,-481 908,-464 931,-453 930,-439 955,-430 1090,-377 1136,-416 1280,-394 1283,-394 1286,-393 1289,-393"/>
<polygon style="fill:midnightblue;stroke:midnightblue;" points="790.119,-498.607 781,-504 791.492,-505.471 790.119,-498.607"/>
</g>
<!-- Node29 -->
<g id="node80" class="node"><title>Node29</title>
<a xlink:href="_message_header_8cpp.html" target="_top" xlink:title="Implements the MessageHeader class. ">
<polygon style="fill:white;stroke:black;" points="964,-430 964,-464 1117,-464 1117,-430 964,-430"/>
<text text-anchor="start" x="972" y="-450" style="font-family:Arial;font-size:10.00;">S2Sim/TerraswarmLibrary</text>
<text text-anchor="middle" x="1040" y="-437" style="font-family:Arial;font-size:10.00;">/MessageHeader.cpp</text>
</a>
</g>
<!-- Node1&#45;&gt;Node29 -->
<g id="edge102" class="edge"><title>Node1&#45;&gt;Node29</title>
<path style="fill:none;stroke:midnightblue;" d="M791,-499C844,-487 912,-473 964,-463"/>
<polygon style="fill:midnightblue;stroke:midnightblue;" points="790.119,-495.607 781,-501 791.492,-502.471 790.119,-495.607"/>
</g>
<!-- Node3 -->
<g id="node5" class="node"><title>Node3</title>
<a xlink:href="_client_manager_8cpp.html" target="_top" xlink:title="Source file for the ClientManager class. ">
<polygon style="fill:white;stroke:black;" points="269,-232 269,-253 425,-253 425,-232 269,-232"/>
<text text-anchor="middle" x="347" y="-239" style="font-family:Arial;font-size:10.00;">S2Sim/ClientManager.cpp</text>
</a>
</g>
<!-- Node2&#45;&gt;Node3 -->
<g id="edge4" class="edge"><title>Node2&#45;&gt;Node3</title>
<path style="fill:none;stroke:midnightblue;" d="M584,-294C528,-282 445,-264 394,-253"/>
<polygon style="fill:midnightblue;stroke:midnightblue;" points="583.508,-297.471 594,-296 584.881,-290.607 583.508,-297.471"/>
</g>
<!-- Node4 -->
<g id="node7" class="node"><title>Node4</title>
<a xlink:href="_connection_manager_8h.html" target="_top" xlink:title="This file defines the ConnectionManager class. ">
<polygon style="fill:white;stroke:black;" points="443,-232 443,-253 617,-253 617,-232 443,-232"/>
<text text-anchor="middle" x="530" y="-239" style="font-family:Arial;font-size:10.00;">S2Sim/ConnectionManager.h</text>
</a>
</g>
<!-- Node2&#45;&gt;Node4 -->
<g id="edge6" class="edge"><title>Node2&#45;&gt;Node4</title>
<path style="fill:none;stroke:midnightblue;" d="M611,-291C588,-280 560,-264 543,-253"/>
<polygon style="fill:midnightblue;stroke:midnightblue;" points="609.559,-294.203 620,-296 612.958,-288.084 609.559,-294.203"/>
</g>
<!-- Node5 -->
<g id="node10" class="node"><title>Node5</title>
<a xlink:href="_control_manager_8h.html" target="_top" xlink:title="This file defines the ControlManager class. ">
<polygon style="fill:white;stroke:black;" points="505,-174 505,-195 656,-195 656,-174 505,-174"/>
<text text-anchor="middle" x="580" y="-181" style="font-family:Arial;font-size:10.00;">S2Sim/ControlManager.h</text>
</a>
</g>
<!-- Node2&#45;&gt;Node5 -->
<g id="edge44" class="edge"><title>Node2&#45;&gt;Node5</title>
<path style="fill:none;stroke:midnightblue;" d="M643,-286C640,-270 636,-248 626,-232 618,-217 604,-204 593,-195"/>
<polygon style="fill:midnightblue;stroke:midnightblue;" points="639.522,-286.398 644,-296 646.488,-285.701 639.522,-286.398"/>
</g>
<!-- Node6 -->
<g id="node12" class="node"><title>Node6</title>
<a xlink:href="_system_manager_8h.html" target="_top" xlink:title="Defines the SystemManager class. ">
<polygon style="fill:white;stroke:black;" points="617,-116 617,-137 768,-137 768,-116 617,-116"/>
<text text-anchor="middle" x="692" y="-123" style="font-family:Arial;font-size:10.00;">S2Sim/SystemManager.h</text>
</a>
</g>
<!-- Node2&#45;&gt;Node6 -->
<g id="edge42" class="edge"><title>Node2&#45;&gt;Node6</title>
<path style="fill:none;stroke:midnightblue;" d="M646,-286C652,-247 674,-166 686,-137"/>
<polygon style="fill:midnightblue;stroke:midnightblue;" points="642.529,-285.508 644,-296 649.393,-286.881 642.529,-285.508"/>
</g>
<!-- Node4&#45;&gt;Node2 -->
<g id="edge8" class="edge"><title>Node4&#45;&gt;Node2</title>
<path style="fill:none;stroke:midnightblue;" d="M562,-258C584,-270 612,-286 630,-296"/>
<polygon style="fill:midnightblue;stroke:midnightblue;" points="563.441,-254.797 553,-253 560.042,-260.916 563.441,-254.797"/>
</g>
<!-- Node4&#45;&gt;Node5 -->
<g id="edge10" class="edge"><title>Node4&#45;&gt;Node5</title>
<path style="fill:none;stroke:midnightblue;" d="M547,-224C555,-214 565,-203 571,-195"/>
<polygon style="fill:midnightblue;stroke:midnightblue;" points="543.951,-222.169 540,-232 549.219,-226.779 543.951,-222.169"/>
</g>
<!-- Node8 -->
<g id="node19" class="node"><title>Node8</title>
<a xlink:href="main_8cpp.html" target="_top" xlink:title="Main file that starts an infinite running loop on the SystemManager::AdvanceTimeStep method...">
<polygon style="fill:white;stroke:black;" points="377,-0 377,-21 481,-21 481,-0 377,-0"/>
<text text-anchor="middle" x="429" y="-7" style="font-family:Arial;font-size:10.00;">S2Sim/main.cpp</text>
</a>
</g>
<!-- Node4&#45;&gt;Node8 -->
<g id="edge40" class="edge"><title>Node4&#45;&gt;Node8</title>
<path style="fill:none;stroke:midnightblue;" d="M490,-228C453,-212 401,-182 377,-138 370,-124 371,-81 382,-58 389,-43 404,-29 415,-21"/>
<polygon style="fill:midnightblue;stroke:midnightblue;" points="489.415,-231.536 500,-232 492.015,-225.036 489.415,-231.536"/>
</g>
<!-- Node12 -->
<g id="node31" class="node"><title>Node12</title>
<a xlink:href="_connection_manager_8cpp.html" target="_top" xlink:title="This file implements the ConnectionManager class. ">
<polygon style="fill:white;stroke:black;" points="117,-174 117,-195 304,-195 304,-174 117,-174"/>
<text text-anchor="middle" x="210" y="-181" style="font-family:Arial;font-size:10.00;">S2Sim/ConnectionManager.cpp</text>
</a>
</g>
<!-- Node4&#45;&gt;Node12 -->
<g id="edge38" class="edge"><title>Node4&#45;&gt;Node12</title>
<path style="fill:none;stroke:midnightblue;" d="M459,-230C400,-219 319,-204 265,-195"/>
<polygon style="fill:midnightblue;stroke:midnightblue;" points="458.508,-233.471 469,-232 459.881,-226.607 458.508,-233.471"/>
</g>
<!-- Node5&#45;&gt;Node6 -->
<g id="edge12" class="edge"><title>Node5&#45;&gt;Node6</title>
<path style="fill:none;stroke:midnightblue;" d="M605,-169C624,-159 649,-146 668,-137"/>
<polygon style="fill:midnightblue;stroke:midnightblue;" points="603.042,-166.084 596,-174 606.441,-172.203 603.042,-166.084"/>
</g>
<!-- Node5&#45;&gt;Node8 -->
<g id="edge36" class="edge"><title>Node5&#45;&gt;Node8</title>
<path style="fill:none;stroke:midnightblue;" d="M495,-174C450,-167 402,-155 388,-138 360,-101 401,-44 420,-21"/>
<polygon style="fill:midnightblue;stroke:midnightblue;" points="494.508,-177.471 505,-176 495.881,-170.607 494.508,-177.471"/>
</g>
<!-- Node11 -->
<g id="node28" class="node"><title>Node11</title>
<a xlink:href="_control_manager_8cpp.html" target="_top" xlink:title="This file implements the ControlManager class. ">
<polygon style="fill:white;stroke:black;" points="397,-116 397,-137 561,-137 561,-116 397,-116"/>
<text text-anchor="middle" x="479" y="-123" style="font-family:Arial;font-size:10.00;">S2Sim/ControlManager.cpp</text>
</a>
</g>
<!-- Node5&#45;&gt;Node11 -->
<g id="edge34" class="edge"><title>Node5&#45;&gt;Node11</title>
<path style="fill:none;stroke:midnightblue;" d="M552,-169C534,-158 511,-146 496,-137"/>
<polygon style="fill:midnightblue;stroke:midnightblue;" points="550.559,-172.203 561,-174 553.958,-166.084 550.559,-172.203"/>
</g>
<!-- Node6&#45;&gt;Node2 -->
<g id="edge28" class="edge"><title>Node6&#45;&gt;Node2</title>
<path style="fill:none;stroke:midnightblue;" d="M691,-147C685,-185 663,-266 651,-296"/>
<polygon style="fill:midnightblue;stroke:midnightblue;" points="694.471,-147.492 693,-137 687.607,-146.119 694.471,-147.492"/>
</g>
<!-- Node6&#45;&gt;Node5 -->
<g id="edge26" class="edge"><title>Node6&#45;&gt;Node5</title>
<path style="fill:none;stroke:midnightblue;" d="M669,-142C651,-152 626,-165 607,-174"/>
<polygon style="fill:midnightblue;stroke:midnightblue;" points="670.958,-144.916 678,-137 667.559,-138.797 670.958,-144.916"/>
</g>
<!-- Node7 -->
<g id="node14" class="node"><title>Node7</title>
<a xlink:href="_matlab_manager_8h.html" target="_top" xlink:title="Defines the MatlabManager class. ">
<polygon style="fill:white;stroke:black;" points="566,-58 566,-79 714,-79 714,-58 566,-58"/>
<text text-anchor="middle" x="640" y="-65" style="font-family:Arial;font-size:10.00;">S2Sim/MatlabManager.h</text>
</a>
</g>
<!-- Node6&#45;&gt;Node7 -->
<g id="edge14" class="edge"><title>Node6&#45;&gt;Node7</title>
<path style="fill:none;stroke:midnightblue;" d="M670,-109C660,-99 650,-87 644,-79"/>
<polygon style="fill:midnightblue;stroke:midnightblue;" points="667.454,-111.404 677,-116 672.404,-106.454 667.454,-111.404"/>
</g>
<!-- Node6&#45;&gt;Node8 -->
<g id="edge30" class="edge"><title>Node6&#45;&gt;Node8</title>
<path style="fill:none;stroke:midnightblue;" d="M646,-113C620,-104 586,-92 557,-80 516,-61 470,-35 446,-21"/>
<polygon style="fill:midnightblue;stroke:midnightblue;" points="645.416,-116.479 656,-116 647.427,-109.774 645.416,-116.479"/>
</g>
<!-- Node10 -->
<g id="node26" class="node"><title>Node10</title>
<a xlink:href="_system_manager_8cpp.html" target="_top" xlink:title="Implements the SystemManager class. ">
<polygon style="fill:white;stroke:black;" points="732,-58 732,-79 896,-79 896,-58 732,-58"/>
<text text-anchor="middle" x="814" y="-65" style="font-family:Arial;font-size:10.00;">S2Sim/SystemManager.cpp</text>
</a>
</g>
<!-- Node6&#45;&gt;Node10 -->
<g id="edge32" class="edge"><title>Node6&#45;&gt;Node10</title>
<path style="fill:none;stroke:midnightblue;" d="M724,-112C746,-101 774,-88 793,-79"/>
<polygon style="fill:midnightblue;stroke:midnightblue;" points="722.717,-108.74 715,-116 725.56,-115.137 722.717,-108.74"/>
</g>
<!-- Node7&#45;&gt;Node2 -->
<g id="edge16" class="edge"><title>Node7&#45;&gt;Node2</title>
<path style="fill:none;stroke:midnightblue;" d="M698,-81C730,-90 766,-102 776,-116 824,-183 709,-266 663,-296"/>
<polygon style="fill:midnightblue;stroke:midnightblue;" points="698.492,-77.5292 688,-79 697.119,-84.3933 698.492,-77.5292"/>
</g>
<!-- Node7&#45;&gt;Node5 -->
<g id="edge20" class="edge"><title>Node7&#45;&gt;Node5</title>
<path style="fill:none;stroke:midnightblue;" d="M626,-87C620,-95 613,-106 608,-116 598,-135 589,-160 584,-174"/>
<polygon style="fill:midnightblue;stroke:midnightblue;" points="628.8,-89.1 632,-79 623.2,-84.9 628.8,-89.1"/>
</g>
<!-- Node7&#45;&gt;Node6 -->
<g id="edge18" class="edge"><title>Node7&#45;&gt;Node6</title>
<path style="fill:none;stroke:midnightblue;" d="M661,-86C671,-96 681,-107 687,-116"/>
<polygon style="fill:midnightblue;stroke:midnightblue;" points="663.546,-83.5962 654,-79 658.596,-88.546 663.546,-83.5962"/>
</g>
<!-- Node7&#45;&gt;Node8 -->
<g id="edge22" class="edge"><title>Node7&#45;&gt;Node8</title>
<path style="fill:none;stroke:midnightblue;" d="M590,-55C552,-44 500,-30 466,-21"/>
<polygon style="fill:midnightblue;stroke:midnightblue;" points="589.416,-58.4788 600,-58 591.427,-51.7741 589.416,-58.4788"/>
</g>
<!-- Node9 -->
<g id="node21" class="node"><title>Node9</title>
<a xlink:href="_matlab_manager_8cpp.html" target="_top" xlink:title="Implements the MatlabManager class. ">
<polygon style="fill:white;stroke:black;" points="560,-0 560,-21 721,-21 721,-0 560,-0"/>
<text text-anchor="middle" x="640" y="-7" style="font-family:Arial;font-size:10.00;">S2Sim/MatlabManager.cpp</text>
</a>
</g>
<!-- Node7&#45;&gt;Node9 -->
<g id="edge24" class="edge"><title>Node7&#45;&gt;Node9</title>
<path style="fill:none;stroke:midnightblue;" d="M640,-48C640,-38 640,-28 640,-21"/>
<polygon style="fill:midnightblue;stroke:midnightblue;" points="636.5,-48 640,-58 643.5,-48 636.5,-48"/>
</g>
<!-- Node13&#45;&gt;Node2 -->
<g id="edge48" class="edge"><title>Node13&#45;&gt;Node2</title>
<path style="fill:none;stroke:midnightblue;" d="M199,-360C363,-337 407,-349 565,-324 577,-322 589,-320 601,-317"/>
<polygon style="fill:midnightblue;stroke:midnightblue;" points="198.602,-356.522 189,-361 199.299,-363.488 198.602,-356.522"/>
</g>
<!-- Node14 -->
<g id="node39" class="node"><title>Node14</title>
<a xlink:href="_client_connection_request_8cpp.html" target="_top" xlink:title="Implements the ClientConnectionRequest class. ">
<polygon style="fill:white;stroke:black;" points="0,-290 0,-324 181,-324 181,-290 0,-290"/>
<text text-anchor="start" x="8" y="-310" style="font-family:Arial;font-size:10.00;">S2Sim/TerraswarmLibrary</text>
<text text-anchor="middle" x="90" y="-297" style="font-family:Arial;font-size:10.00;">/ClientConnectionRequest.cpp</text>
</a>
</g>
<!-- Node13&#45;&gt;Node14 -->
<g id="edge50" class="edge"><title>Node13&#45;&gt;Node14</title>
<path style="fill:none;stroke:midnightblue;" d="M99,-350C97,-341 95,-332 94,-324"/>
<polygon style="fill:midnightblue;stroke:midnightblue;" points="95.6067,-350.881 101,-360 102.471,-349.508 95.6067,-350.881"/>
</g>
<!-- Node15&#45;&gt;Node13 -->
<g id="edge54" class="edge"><title>Node15&#45;&gt;Node13</title>
<path style="fill:none;stroke:midnightblue;" d="M670,-441C560,-433 365,-417 198,-394 195,-394 192,-393 189,-393"/>
<polygon style="fill:midnightblue;stroke:midnightblue;" points="669.701,-444.488 680,-442 670.398,-437.522 669.701,-444.488"/>
</g>
<!-- Node15&#45;&gt;Node16 -->
<g id="edge56" class="edge"><title>Node15&#45;&gt;Node16</title>
<path style="fill:none;stroke:midnightblue;" d="M670,-435C596,-424 488,-408 392,-394 389,-394 386,-393 383,-393"/>
<polygon style="fill:midnightblue;stroke:midnightblue;" points="669.701,-438.488 680,-436 670.398,-431.522 669.701,-438.488"/>
</g>
<!-- Node15&#45;&gt;Node18 -->
<g id="edge62" class="edge"><title>Node15&#45;&gt;Node18</title>
<path style="fill:none;stroke:midnightblue;" d="M678,-428C637,-417 586,-404 545,-394"/>
<polygon style="fill:midnightblue;stroke:midnightblue;" points="677.508,-431.471 688,-430 678.881,-424.607 677.508,-431.471"/>
</g>
<!-- Node15&#45;&gt;Node20 -->
<g id="edge68" class="edge"><title>Node15&#45;&gt;Node20</title>
<path style="fill:none;stroke:midnightblue;" d="M731,-423C721,-413 711,-403 702,-394"/>
<polygon style="fill:midnightblue;stroke:midnightblue;" points="728.454,-425.404 738,-430 733.404,-420.454 728.454,-425.404"/>
</g>
<!-- Node15&#45;&gt;Node22 -->
<g id="edge74" class="edge"><title>Node15&#45;&gt;Node22</title>
<path style="fill:none;stroke:midnightblue;" d="M831,-427C871,-417 920,-404 959,-394"/>
<polygon style="fill:midnightblue;stroke:midnightblue;" points="829.573,-423.774 821,-430 831.584,-430.479 829.573,-423.774"/>
</g>
<!-- Node24 -->
<g id="node64" class="node"><title>Node24</title>
<a xlink:href="_message_ender_8cpp.html" target="_top" xlink:title="Implements a MessageEnder class. ">
<polygon style="fill:white;stroke:black;" points="779,-360 779,-394 932,-394 932,-360 779,-360"/>
<text text-anchor="start" x="787" y="-380" style="font-family:Arial;font-size:10.00;">S2Sim/TerraswarmLibrary</text>
<text text-anchor="middle" x="855" y="-367" style="font-family:Arial;font-size:10.00;">/MessageEnder.cpp</text>
</a>
</g>
<!-- Node15&#45;&gt;Node24 -->
<g id="edge80" class="edge"><title>Node15&#45;&gt;Node24</title>
<path style="fill:none;stroke:midnightblue;" d="M789,-424C803,-414 819,-403 831,-394"/>
<polygon style="fill:midnightblue;stroke:midnightblue;" points="786.379,-421.541 780,-430 790.262,-427.365 786.379,-421.541"/>
</g>
<!-- Node15&#45;&gt;Node25 -->
<g id="edge82" class="edge"><title>Node15&#45;&gt;Node25</title>
<path style="fill:none;stroke:midnightblue;" d="M843,-435C915,-425 1019,-409 1110,-394 1113,-393 1116,-393 1119,-392"/>
<polygon style="fill:midnightblue;stroke:midnightblue;" points="842.602,-431.522 833,-436 843.299,-438.488 842.602,-431.522"/>
</g>
<!-- Node15&#45;&gt;Node27 -->
<g id="edge88" class="edge"><title>Node15&#45;&gt;Node27</title>
<path style="fill:none;stroke:midnightblue;" d="M843,-438C868,-435 896,-433 922,-430 1081,-413 1121,-417 1280,-394 1283,-394 1286,-393 1289,-393"/>
<polygon style="fill:midnightblue;stroke:midnightblue;" points="842.602,-434.522 833,-439 843.299,-441.488 842.602,-434.522"/>
</g>
<!-- Node16&#45;&gt;Node2 -->
<g id="edge58" class="edge"><title>Node16&#45;&gt;Node2</title>
<path style="fill:none;stroke:midnightblue;" d="M393,-358C445,-348 509,-335 565,-324 575,-322 586,-319 597,-317"/>
<polygon style="fill:midnightblue;stroke:midnightblue;" points="392.119,-354.607 383,-360 393.492,-361.471 392.119,-354.607"/>
</g>
<!-- Node17 -->
<g id="node47" class="node"><title>Node17</title>
<a xlink:href="_client_connection_response_8cpp.html" target="_top" xlink:title="Implements the Async and Synchronous ClientConnectionResponse message and classes. ">
<polygon style="fill:white;stroke:black;" points="198,-290 198,-324 387,-324 387,-290 198,-290"/>
<text text-anchor="start" x="206" y="-310" style="font-family:Arial;font-size:10.00;">S2Sim/TerraswarmLibrary</text>
<text text-anchor="middle" x="292" y="-297" style="font-family:Arial;font-size:10.00;">/ClientConnectionResponse.cpp</text>
</a>
</g>
<!-- Node16&#45;&gt;Node17 -->
<g id="edge60" class="edge"><title>Node16&#45;&gt;Node17</title>
<path style="fill:none;stroke:midnightblue;" d="M293,-350C293,-341 293,-332 293,-324"/>
<polygon style="fill:midnightblue;stroke:midnightblue;" points="289.522,-350.398 294,-360 296.488,-349.701 289.522,-350.398"/>
</g>
<!-- Node18&#45;&gt;Node2 -->
<g id="edge64" class="edge"><title>Node18&#45;&gt;Node2</title>
<path style="fill:none;stroke:midnightblue;" d="M527,-356C558,-343 596,-327 620,-317"/>
<polygon style="fill:midnightblue;stroke:midnightblue;" points="525.717,-352.74 518,-360 528.56,-359.137 525.717,-352.74"/>
</g>
<!-- Node19 -->
<g id="node52" class="node"><title>Node19</title>
<a xlink:href="_client_data_8cpp.html" target="_top" xlink:title="Implements the Async and Synchronous ClientData classes and messages. ">
<polygon style="fill:white;stroke:black;" points="404,-290 404,-324 557,-324 557,-290 404,-290"/>
<text text-anchor="start" x="412" y="-310" style="font-family:Arial;font-size:10.00;">S2Sim/TerraswarmLibrary</text>
<text text-anchor="middle" x="480" y="-297" style="font-family:Arial;font-size:10.00;">/ClientData.cpp</text>
</a>
</g>
<!-- Node18&#45;&gt;Node19 -->
<g id="edge66" class="edge"><title>Node18&#45;&gt;Node19</title>
<path style="fill:none;stroke:midnightblue;" d="M479,-350C479,-341 479,-332 479,-324"/>
<polygon style="fill:midnightblue;stroke:midnightblue;" points="475.512,-349.701 478,-360 482.478,-350.398 475.512,-349.701"/>
</g>
<!-- Node20&#45;&gt;Node2 -->
<g id="edge70" class="edge"><title>Node20&#45;&gt;Node2</title>
<path style="fill:none;stroke:midnightblue;" d="M670,-351C663,-340 656,-326 651,-317"/>
<polygon style="fill:midnightblue;stroke:midnightblue;" points="667.084,-352.958 675,-360 673.203,-349.559 667.084,-352.958"/>
</g>
<!-- Node21 -->
<g id="node57" class="node"><title>Node21</title>
<a xlink:href="_demand_negotiation_8cpp.html" target="_top" xlink:title="Implements the DemandNegotiation class. ">
<polygon style="fill:white;stroke:black;" points="734,-290 734,-324 887,-324 887,-290 734,-290"/>
<text text-anchor="start" x="742" y="-310" style="font-family:Arial;font-size:10.00;">S2Sim/TerraswarmLibrary</text>
<text text-anchor="middle" x="810" y="-297" style="font-family:Arial;font-size:10.00;">/DemandNegotiation.cpp</text>
</a>
</g>
<!-- Node20&#45;&gt;Node21 -->
<g id="edge72" class="edge"><title>Node20&#45;&gt;Node21</title>
<path style="fill:none;stroke:midnightblue;" d="M725,-355C742,-345 763,-333 779,-324"/>
<polygon style="fill:midnightblue;stroke:midnightblue;" points="723.042,-352.084 716,-360 726.441,-358.203 723.042,-352.084"/>
</g>
<!-- Node22&#45;&gt;Node2 -->
<g id="edge76" class="edge"><title>Node22&#45;&gt;Node2</title>
<path style="fill:none;stroke:midnightblue;" d="M939,-359C842,-342 817,-341 725,-324 714,-322 702,-319 691,-317"/>
<polygon style="fill:midnightblue;stroke:midnightblue;" points="938.508,-362.471 949,-361 939.881,-355.607 938.508,-362.471"/>
</g>
<!-- Node23 -->
<g id="node62" class="node"><title>Node23</title>
<a xlink:href="_get_price_8cpp.html" target="_top" xlink:title="Implements the GetPrice class. ">
<polygon style="fill:white;stroke:black;" points="949,-290 949,-324 1102,-324 1102,-290 949,-290"/>
<text text-anchor="start" x="957" y="-310" style="font-family:Arial;font-size:10.00;">S2Sim/TerraswarmLibrary</text>
<text text-anchor="middle" x="1025" y="-297" style="font-family:Arial;font-size:10.00;">/GetPrice.cpp</text>
</a>
</g>
<!-- Node22&#45;&gt;Node23 -->
<g id="edge78" class="edge"><title>Node22&#45;&gt;Node23</title>
<path style="fill:none;stroke:midnightblue;" d="M1025,-350C1025,-341 1025,-332 1025,-324"/>
<polygon style="fill:midnightblue;stroke:midnightblue;" points="1021.5,-350 1025,-360 1028.5,-350 1021.5,-350"/>
</g>
<!-- Node25&#45;&gt;Node2 -->
<g id="edge84" class="edge"><title>Node25&#45;&gt;Node2</title>
<path style="fill:none;stroke:midnightblue;" d="M1109,-360C937,-336 891,-349 725,-324 713,-322 701,-320 689,-317"/>
<polygon style="fill:midnightblue;stroke:midnightblue;" points="1108.7,-363.488 1119,-361 1109.4,-356.522 1108.7,-363.488"/>
</g>
<!-- Node26 -->
<g id="node69" class="node"><title>Node26</title>
<a xlink:href="_price_proposal_8cpp.html" target="_top" xlink:title="Implements the PriceProposal class. ">
<polygon style="fill:white;stroke:black;" points="1119,-290 1119,-324 1272,-324 1272,-290 1119,-290"/>
<text text-anchor="start" x="1127" y="-310" style="font-family:Arial;font-size:10.00;">S2Sim/TerraswarmLibrary</text>
<text text-anchor="middle" x="1195" y="-297" style="font-family:Arial;font-size:10.00;">/PriceProposal.cpp</text>
</a>
</g>
<!-- Node25&#45;&gt;Node26 -->
<g id="edge86" class="edge"><title>Node25&#45;&gt;Node26</title>
<path style="fill:none;stroke:midnightblue;" d="M1195,-350C1195,-341 1195,-332 1195,-324"/>
<polygon style="fill:midnightblue;stroke:midnightblue;" points="1191.5,-350 1195,-360 1198.5,-350 1191.5,-350"/>
</g>
<!-- Node27&#45;&gt;Node2 -->
<g id="edge90" class="edge"><title>Node27&#45;&gt;Node2</title>
<path style="fill:none;stroke:midnightblue;" d="M1279,-360C1032,-328 966,-357 725,-324 712,-322 699,-320 686,-317"/>
<polygon style="fill:midnightblue;stroke:midnightblue;" points="1278.7,-363.488 1289,-361 1279.4,-356.522 1278.7,-363.488"/>
</g>
<!-- Node28 -->
<g id="node74" class="node"><title>Node28</title>
<a xlink:href="_set_current_price_8cpp.html" target="_top" xlink:title="Implements the SetCurrentPrice class. ">
<polygon style="fill:white;stroke:black;" points="1289,-290 1289,-324 1442,-324 1442,-290 1289,-290"/>
<text text-anchor="start" x="1297" y="-310" style="font-family:Arial;font-size:10.00;">S2Sim/TerraswarmLibrary</text>
<text text-anchor="middle" x="1365" y="-297" style="font-family:Arial;font-size:10.00;">/SetCurrentPrice.cpp</text>
</a>
</g>
<!-- Node27&#45;&gt;Node28 -->
<g id="edge92" class="edge"><title>Node27&#45;&gt;Node28</title>
<path style="fill:none;stroke:midnightblue;" d="M1365,-350C1365,-341 1365,-332 1365,-324"/>
<polygon style="fill:midnightblue;stroke:midnightblue;" points="1361.5,-350 1365,-360 1368.5,-350 1361.5,-350"/>
</g>
</g>
</svg>
