<?xml version="1.0" encoding="UTF-8" standalone="no"?>
<!DOCTYPE svg PUBLIC "-//W3C//DTD SVG 1.0//EN"
 "http://www.w3.org/TR/2001/REC-SVG-20010904/DTD/svg10.dtd" [
 <!ATTLIST svg xmlns:xlink CDATA #FIXED "http://www.w3.org/1999/xlink">
]>
<!-- Generated by Graphviz version 2.14.1 (Fri Nov  9 08:19:38 GMT 2007)
     For user: (asakyurek) Alper Sinan Akyurek -->
<!-- Title: S2Sim/TerraswarmLibrary/MessageEnder.cpp Pages: 1 -->
<svg width="262pt" height="274pt"
 viewBox="0.00 0.00 262.00 274.00" xmlns="http://www.w3.org/2000/svg" xmlns:xlink="http://www.w3.org/1999/xlink">
<g id="graph0" class="graph" transform="scale(1 1) rotate(0) translate(4 270)">
<title>S2Sim/TerraswarmLibrary/MessageEnder.cpp</title>
<polygon style="fill:white;stroke:white;" points="-4,4 -4,-270 258,-270 258,4 -4,4"/>
<!-- Node1 -->
<g id="node1" class="node"><title>Node1</title>
<polygon style="fill:#bfbfbf;stroke:black;" points="62,-232 62,-266 215,-266 215,-232 62,-232"/>
<text text-anchor="start" x="70" y="-252" style="font-family:Arial;font-size:10.00;">S2Sim/TerraswarmLibrary</text>
<text text-anchor="middle" x="138" y="-239" style="font-family:Arial;font-size:10.00;">/MessageEnder.cpp</text>
</g>
<!-- Node2 -->
<g id="node3" class="node"><title>Node2</title>
<a xlink:href="_message_ender_8h.html" target="_top" xlink:title="MessageEnder.h">
<polygon style="fill:white;stroke:black;" points="86,-174 86,-195 190,-195 190,-174 86,-174"/>
<text text-anchor="middle" x="138" y="-181" style="font-family:Arial;font-size:10.00;">MessageEnder.h</text>
</a>
</g>
<!-- Node1&#45;&gt;Node2 -->
<g id="edge2" class="edge"><title>Node1&#45;&gt;Node2</title>
<path style="fill:none;stroke:midnightblue;" d="M138,-232C138,-224 138,-214 138,-205"/>
<polygon style="fill:midnightblue;stroke:midnightblue;" points="141.5,-205 138,-195 134.5,-205 141.5,-205"/>
</g>
<!-- Node3 -->
<g id="node5" class="node"><title>Node3</title>
<a xlink:href="_message_header_8h.html" target="_top" xlink:title="MessageHeader.h">
<polygon style="fill:white;stroke:black;" points="124,-116 124,-137 237,-137 237,-116 124,-116"/>
<text text-anchor="middle" x="180" y="-123" style="font-family:Arial;font-size:10.00;">MessageHeader.h</text>
</a>
</g>
<!-- Node2&#45;&gt;Node3 -->
<g id="edge4" class="edge"><title>Node2&#45;&gt;Node3</title>
<path style="fill:none;stroke:midnightblue;" d="M146,-174C152,-166 160,-154 167,-145"/>
<polygon style="fill:midnightblue;stroke:midnightblue;" points="169.8,-147.1 173,-137 164.2,-142.9 169.8,-147.1"/>
</g>
<!-- Node4 -->
<g id="node7" class="node"><title>Node4</title>
<a xlink:href="_network_byte_accessor_8h.html" target="_top" xlink:title="NetworkByteAccessor.h">
<polygon style="fill:white;stroke:black;" points="26,-58 26,-79 167,-79 167,-58 26,-58"/>
<text text-anchor="middle" x="96" y="-65" style="font-family:Arial;font-size:10.00;">NetworkByteAccessor.h</text>
</a>
</g>
<!-- Node2&#45;&gt;Node4 -->
<g id="edge14" class="edge"><title>Node2&#45;&gt;Node4</title>
<path style="fill:none;stroke:midnightblue;" d="M132,-174C127,-164 120,-150 115,-138 109,-122 104,-103 100,-89"/>
<polygon style="fill:midnightblue;stroke:midnightblue;" points="103.393,-88.1194 98,-79 96.5292,-89.4922 103.393,-88.1194"/>
</g>
<!-- Node3&#45;&gt;Node4 -->
<g id="edge6" class="edge"><title>Node3&#45;&gt;Node4</title>
<path style="fill:none;stroke:midnightblue;" d="M164,-116C151,-107 133,-94 118,-85"/>
<polygon style="fill:midnightblue;stroke:midnightblue;" points="120.1,-82.2 110,-79 115.9,-87.8 120.1,-82.2"/>
</g>
<!-- Node7 -->
<g id="node13" class="node"><title>Node7</title>
<polygon style="fill:white;stroke:#bfbfbf;" points="184,-58 184,-79 225,-79 225,-58 184,-58"/>
<text text-anchor="middle" x="204" y="-65" style="font-family:Arial;font-size:10.00;">map</text>
</g>
<!-- Node3&#45;&gt;Node7 -->
<g id="edge12" class="edge"><title>Node3&#45;&gt;Node7</title>
<path style="fill:none;stroke:midnightblue;" d="M185,-116C188,-108 192,-97 196,-88"/>
<polygon style="fill:midnightblue;stroke:midnightblue;" points="199.137,-89.5596 200,-79 192.74,-86.7166 199.137,-89.5596"/>
</g>
<!-- Node5 -->
<g id="node9" class="node"><title>Node5</title>
<polygon style="fill:white;stroke:#bfbfbf;" points="0,-0 0,-21 56,-21 56,-0 0,-0"/>
<text text-anchor="middle" x="28" y="-7" style="font-family:Arial;font-size:10.00;">string.h</text>
</g>
<!-- Node4&#45;&gt;Node5 -->
<g id="edge8" class="edge"><title>Node4&#45;&gt;Node5</title>
<path style="fill:none;stroke:midnightblue;" d="M83,-58C73,-49 59,-37 48,-27"/>
<polygon style="fill:midnightblue;stroke:midnightblue;" points="50.1,-24.2 40,-21 45.9,-29.8 50.1,-24.2"/>
</g>
<!-- Node6 -->
<g id="node11" class="node"><title>Node6</title>
<a xlink:href="_compile_time_checker_library_8h.html" target="_top" xlink:title="CompileTimeCheckerLibrary.h">
<polygon style="fill:white;stroke:black;" points="74,-0 74,-21 255,-21 255,-0 74,-0"/>
<text text-anchor="middle" x="164" y="-7" style="font-family:Arial;font-size:10.00;">CompileTimeCheckerLibrary.h</text>
</a>
</g>
<!-- Node4&#45;&gt;Node6 -->
<g id="edge10" class="edge"><title>Node4&#45;&gt;Node6</title>
<path style="fill:none;stroke:midnightblue;" d="M109,-58C119,-49 133,-37 144,-27"/>
<polygon style="fill:midnightblue;stroke:midnightblue;" points="146.1,-29.8 152,-21 141.9,-24.2 146.1,-29.8"/>
</g>
</g>
</svg>
