<?xml version="1.0" encoding="UTF-8" standalone="no"?>
<!DOCTYPE svg PUBLIC "-//W3C//DTD SVG 1.0//EN"
 "http://www.w3.org/TR/2001/REC-SVG-20010904/DTD/svg10.dtd" [
 <!ATTLIST svg xmlns:xlink CDATA #FIXED "http://www.w3.org/1999/xlink">
]>
<!-- Generated by Graphviz version 2.14.1 (Fri Nov  9 08:19:38 GMT 2007)
     For user: (asakyurek) Alper Sinan Akyurek -->
<!-- Title: S2Sim/SemaphoreLibrary/Semaphore.h Pages: 1 -->
<svg width="993pt" height="612pt"
 viewBox="0.00 0.00 993.00 612.00" xmlns="http://www.w3.org/2000/svg" xmlns:xlink="http://www.w3.org/1999/xlink">
<g id="graph0" class="graph" transform="scale(1 1) rotate(0) translate(4 608)">
<title>S2Sim/SemaphoreLibrary/Semaphore.h</title>
<polygon style="fill:white;stroke:white;" points="-4,4 -4,-608 989,-608 989,4 -4,4"/>
<!-- Node1 -->
<g id="node1" class="node"><title>Node1</title>
<polygon style="fill:#bfbfbf;stroke:black;" points="609,-570 609,-604 763,-604 763,-570 609,-570"/>
<text text-anchor="start" x="617" y="-590" style="font-family:Arial;font-size:10.00;">S2Sim/SemaphoreLibrary</text>
<text text-anchor="middle" x="686" y="-577" style="font-family:Arial;font-size:10.00;">/Semaphore.h</text>
</g>
<!-- Node2 -->
<g id="node3" class="node"><title>Node2</title>
<a xlink:href="_log_print_8h.html" target="_top" xlink:title="Defines logging related functions. ">
<polygon style="fill:white;stroke:black;" points="121,-366 121,-387 228,-387 228,-366 121,-366"/>
<text text-anchor="middle" x="174" y="-373" style="font-family:Arial;font-size:10.00;">S2Sim/LogPrint.h</text>
</a>
</g>
<!-- Node1&#45;&gt;Node2 -->
<g id="edge2" class="edge"><title>Node1&#45;&gt;Node2</title>
<path style="fill:none;stroke:midnightblue;" d="M599,-578C514,-569 392,-552 348,-534 270,-500 203,-416 181,-387"/>
<polygon style="fill:midnightblue;stroke:midnightblue;" points="598.701,-581.488 609,-579 599.398,-574.522 598.701,-581.488"/>
</g>
<!-- Node7 -->
<g id="node14" class="node"><title>Node7</title>
<a xlink:href="_matlab_manager_8h.html" target="_top" xlink:title="Defines the MatlabManager class. ">
<polygon style="fill:white;stroke:black;" points="611,-58 611,-79 759,-79 759,-58 611,-58"/>
<text text-anchor="middle" x="685" y="-65" style="font-family:Arial;font-size:10.00;">S2Sim/MatlabManager.h</text>
</a>
</g>
<!-- Node1&#45;&gt;Node7 -->
<g id="edge56" class="edge"><title>Node1&#45;&gt;Node7</title>
<path style="fill:none;stroke:midnightblue;" d="M733,-565C747,-557 761,-546 772,-534 799,-502 809,-489 809,-447 809,-447 809,-447 809,-185 809,-131 747,-95 710,-79"/>
<polygon style="fill:midnightblue;stroke:midnightblue;" points="731.042,-562.084 724,-570 734.441,-568.203 731.042,-562.084"/>
</g>
<!-- Node15 -->
<g id="node44" class="node"><title>Node15</title>
<a xlink:href="_semaphore_8cpp.html" target="_top" xlink:title="Implements the Semaphore class under Windows 32/64bit and POSIX enables OSes. ">
<polygon style="fill:white;stroke:black;" points="609,-500 609,-534 763,-534 763,-500 609,-500"/>
<text text-anchor="start" x="617" y="-520" style="font-family:Arial;font-size:10.00;">S2Sim/SemaphoreLibrary</text>
<text text-anchor="middle" x="686" y="-507" style="font-family:Arial;font-size:10.00;">/Semaphore.cpp</text>
</a>
</g>
<!-- Node1&#45;&gt;Node15 -->
<g id="edge58" class="edge"><title>Node1&#45;&gt;Node15</title>
<path style="fill:none;stroke:midnightblue;" d="M686,-560C686,-551 686,-542 686,-534"/>
<polygon style="fill:midnightblue;stroke:midnightblue;" points="682.5,-560 686,-570 689.5,-560 682.5,-560"/>
</g>
<!-- Node16 -->
<g id="node46" class="node"><title>Node16</title>
<a xlink:href="_threaded_t_c_p_connected_client_8h.html" target="_top" xlink:title="Defeines the ThreadedTCPConnectedClient class. ">
<polygon style="fill:white;stroke:black;" points="357,-500 357,-534 552,-534 552,-500 357,-500"/>
<text text-anchor="start" x="365" y="-520" style="font-family:Arial;font-size:10.00;">S2Sim/SocketLibrary</text>
<text text-anchor="middle" x="454" y="-507" style="font-family:Arial;font-size:10.00;">/ThreadedTCPConnectedClient.h</text>
</a>
</g>
<!-- Node1&#45;&gt;Node16 -->
<g id="edge60" class="edge"><title>Node1&#45;&gt;Node16</title>
<path style="fill:none;stroke:midnightblue;" d="M620,-567C586,-557 544,-544 511,-534"/>
<polygon style="fill:midnightblue;stroke:midnightblue;" points="619.416,-570.479 630,-570 621.427,-563.774 619.416,-570.479"/>
</g>
<!-- Node22 -->
<g id="node66" class="node"><title>Node22</title>
<a xlink:href="_threaded_t_c_p_client_8h.html" target="_top" xlink:title="Defines the ThreadedTCPClient class. ">
<polygon style="fill:white;stroke:black;" points="840,-500 840,-534 975,-534 975,-500 840,-500"/>
<text text-anchor="start" x="848" y="-520" style="font-family:Arial;font-size:10.00;">S2Sim/SocketLibrary</text>
<text text-anchor="middle" x="907" y="-507" style="font-family:Arial;font-size:10.00;">/ThreadedTCPClient.h</text>
</a>
</g>
<!-- Node1&#45;&gt;Node22 -->
<g id="edge88" class="edge"><title>Node1&#45;&gt;Node22</title>
<path style="fill:none;stroke:midnightblue;" d="M750,-567C782,-556 822,-544 853,-534"/>
<polygon style="fill:midnightblue;stroke:midnightblue;" points="748.573,-563.774 740,-570 750.584,-570.479 748.573,-563.774"/>
</g>
<!-- Node3 -->
<g id="node5" class="node"><title>Node3</title>
<a xlink:href="_connection_manager_8h.html" target="_top" xlink:title="This file defines the ConnectionManager class. ">
<polygon style="fill:white;stroke:black;" points="247,-296 247,-317 421,-317 421,-296 247,-296"/>
<text text-anchor="middle" x="334" y="-303" style="font-family:Arial;font-size:10.00;">S2Sim/ConnectionManager.h</text>
</a>
</g>
<!-- Node2&#45;&gt;Node3 -->
<g id="edge4" class="edge"><title>Node2&#45;&gt;Node3</title>
<path style="fill:none;stroke:midnightblue;" d="M208,-362C239,-348 284,-329 311,-317"/>
<polygon style="fill:midnightblue;stroke:midnightblue;" points="206.717,-358.74 199,-366 209.56,-365.137 206.717,-358.74"/>
</g>
<!-- Node4 -->
<g id="node7" class="node"><title>Node4</title>
<a xlink:href="_client_manager_8h.html" target="_top" xlink:title="Header file for the ClientManager class. ">
<polygon style="fill:white;stroke:black;" points="560,-232 560,-253 703,-253 703,-232 560,-232"/>
<text text-anchor="middle" x="631" y="-239" style="font-family:Arial;font-size:10.00;">S2Sim/ClientManager.h</text>
</a>
</g>
<!-- Node2&#45;&gt;Node4 -->
<g id="edge52" class="edge"><title>Node2&#45;&gt;Node4</title>
<path style="fill:none;stroke:midnightblue;" d="M238,-365C302,-353 395,-334 430,-324 466,-312 472,-304 508,-290 540,-276 578,-262 603,-253"/>
<polygon style="fill:midnightblue;stroke:midnightblue;" points="237.119,-361.607 228,-367 238.492,-368.471 237.119,-361.607"/>
</g>
<!-- Node6 -->
<g id="node12" class="node"><title>Node6</title>
<a xlink:href="_system_manager_8h.html" target="_top" xlink:title="Defines the SystemManager class. ">
<polygon style="fill:white;stroke:black;" points="508,-116 508,-137 659,-137 659,-116 508,-116"/>
<text text-anchor="middle" x="583" y="-123" style="font-family:Arial;font-size:10.00;">S2Sim/SystemManager.h</text>
</a>
</g>
<!-- Node2&#45;&gt;Node6 -->
<g id="edge50" class="edge"><title>Node2&#45;&gt;Node6</title>
<path style="fill:none;stroke:midnightblue;" d="M186,-357C198,-338 217,-311 238,-290 267,-260 274,-252 309,-232 347,-210 361,-214 399,-196 417,-187 420,-181 437,-174 472,-158 514,-145 544,-137"/>
<polygon style="fill:midnightblue;stroke:midnightblue;" points="182.797,-355.559 181,-366 188.916,-358.958 182.797,-355.559"/>
</g>
<!-- Node8 -->
<g id="node18" class="node"><title>Node8</title>
<a xlink:href="_control_manager_8h.html" target="_top" xlink:title="This file defines the ControlManager class. ">
<polygon style="fill:white;stroke:black;" points="240,-174 240,-195 391,-195 391,-174 240,-174"/>
<text text-anchor="middle" x="315" y="-181" style="font-family:Arial;font-size:10.00;">S2Sim/ControlManager.h</text>
</a>
</g>
<!-- Node2&#45;&gt;Node8 -->
<g id="edge48" class="edge"><title>Node2&#45;&gt;Node8</title>
<path style="fill:none;stroke:midnightblue;" d="M172,-356C170,-324 171,-267 200,-232 215,-213 239,-202 261,-195"/>
<polygon style="fill:midnightblue;stroke:midnightblue;" points="168.522,-356.398 173,-366 175.488,-355.701 168.522,-356.398"/>
</g>
<!-- Node14 -->
<g id="node41" class="node"><title>Node14</title>
<a xlink:href="_log_print_8cpp.html" target="_top" xlink:title="Defines logging related parameters. ">
<polygon style="fill:white;stroke:black;" points="28,-296 28,-317 148,-317 148,-296 28,-296"/>
<text text-anchor="middle" x="88" y="-303" style="font-family:Arial;font-size:10.00;">S2Sim/LogPrint.cpp</text>
</a>
</g>
<!-- Node2&#45;&gt;Node14 -->
<g id="edge54" class="edge"><title>Node2&#45;&gt;Node14</title>
<path style="fill:none;stroke:midnightblue;" d="M152,-359C136,-346 114,-328 100,-317"/>
<polygon style="fill:midnightblue;stroke:midnightblue;" points="150.169,-362.049 160,-366 154.779,-356.781 150.169,-362.049"/>
</g>
<!-- Node3&#45;&gt;Node4 -->
<g id="edge6" class="edge"><title>Node3&#45;&gt;Node4</title>
<path style="fill:none;stroke:midnightblue;" d="M390,-294C444,-282 526,-264 579,-253"/>
<polygon style="fill:midnightblue;stroke:midnightblue;" points="389.119,-290.607 380,-296 390.492,-297.471 389.119,-290.607"/>
</g>
<!-- Node3&#45;&gt;Node8 -->
<g id="edge42" class="edge"><title>Node3&#45;&gt;Node8</title>
<path style="fill:none;stroke:midnightblue;" d="M322,-287C317,-277 312,-265 309,-254 305,-233 309,-209 312,-195"/>
<polygon style="fill:midnightblue;stroke:midnightblue;" points="319.084,-288.958 327,-296 325.203,-285.559 319.084,-288.958"/>
</g>
<!-- Node10 -->
<g id="node23" class="node"><title>Node10</title>
<a xlink:href="main_8cpp.html" target="_top" xlink:title="Main file that starts an infinite running loop on the SystemManager::AdvanceTimeStep method...">
<polygon style="fill:white;stroke:black;" points="345,-0 345,-21 449,-21 449,-0 345,-0"/>
<text text-anchor="middle" x="397" y="-7" style="font-family:Arial;font-size:10.00;">S2Sim/main.cpp</text>
</a>
</g>
<!-- Node3&#45;&gt;Node10 -->
<g id="edge46" class="edge"><title>Node3&#45;&gt;Node10</title>
<path style="fill:none;stroke:midnightblue;" d="M305,-290C271,-267 218,-224 231,-174 247,-116 255,-98 298,-58 317,-40 342,-29 363,-21"/>
<polygon style="fill:midnightblue;stroke:midnightblue;" points="303.738,-293.365 314,-296 307.621,-287.541 303.738,-293.365"/>
</g>
<!-- Node13 -->
<g id="node35" class="node"><title>Node13</title>
<a xlink:href="_connection_manager_8cpp.html" target="_top" xlink:title="This file implements the ConnectionManager class. ">
<polygon style="fill:white;stroke:black;" points="318,-232 318,-253 505,-253 505,-232 318,-232"/>
<text text-anchor="middle" x="411" y="-239" style="font-family:Arial;font-size:10.00;">S2Sim/ConnectionManager.cpp</text>
</a>
</g>
<!-- Node3&#45;&gt;Node13 -->
<g id="edge44" class="edge"><title>Node3&#45;&gt;Node13</title>
<path style="fill:none;stroke:midnightblue;" d="M355,-289C369,-278 387,-263 399,-253"/>
<polygon style="fill:midnightblue;stroke:midnightblue;" points="352.221,-286.781 347,-296 356.831,-292.049 352.221,-286.781"/>
</g>
<!-- Node4&#45;&gt;Node3 -->
<g id="edge10" class="edge"><title>Node4&#45;&gt;Node3</title>
<path style="fill:none;stroke:midnightblue;" d="M580,-255C527,-267 444,-285 390,-296"/>
<polygon style="fill:midnightblue;stroke:midnightblue;" points="580.881,-258.393 590,-253 579.508,-251.529 580.881,-258.393"/>
</g>
<!-- Node5 -->
<g id="node9" class="node"><title>Node5</title>
<a xlink:href="_client_manager_8cpp.html" target="_top" xlink:title="Source file for the ClientManager class. ">
<polygon style="fill:white;stroke:black;" points="446,-174 446,-195 602,-195 602,-174 446,-174"/>
<text text-anchor="middle" x="524" y="-181" style="font-family:Arial;font-size:10.00;">S2Sim/ClientManager.cpp</text>
</a>
</g>
<!-- Node4&#45;&gt;Node5 -->
<g id="edge8" class="edge"><title>Node4&#45;&gt;Node5</title>
<path style="fill:none;stroke:midnightblue;" d="M602,-227C583,-217 559,-204 543,-195"/>
<polygon style="fill:midnightblue;stroke:midnightblue;" points="600.559,-230.203 611,-232 603.958,-224.084 600.559,-230.203"/>
</g>
<!-- Node4&#45;&gt;Node6 -->
<g id="edge12" class="edge"><title>Node4&#45;&gt;Node6</title>
<path style="fill:none;stroke:midnightblue;" d="M618,-222C613,-208 608,-189 602,-174 596,-160 587,-146 583,-137"/>
<polygon style="fill:midnightblue;stroke:midnightblue;" points="615.036,-224.015 622,-232 621.536,-221.415 615.036,-224.015"/>
</g>
<!-- Node4&#45;&gt;Node8 -->
<g id="edge40" class="edge"><title>Node4&#45;&gt;Node8</title>
<path style="fill:none;stroke:midnightblue;" d="M561,-230C503,-219 423,-204 370,-195"/>
<polygon style="fill:midnightblue;stroke:midnightblue;" points="560.508,-233.471 571,-232 561.881,-226.607 560.508,-233.471"/>
</g>
<!-- Node6&#45;&gt;Node4 -->
<g id="edge34" class="edge"><title>Node6&#45;&gt;Node4</title>
<path style="fill:none;stroke:midnightblue;" d="M603,-145C609,-153 616,-164 620,-174 628,-193 634,-218 635,-232"/>
<polygon style="fill:midnightblue;stroke:midnightblue;" points="605.8,-142.9 597,-137 600.2,-147.1 605.8,-142.9"/>
</g>
<!-- Node6&#45;&gt;Node7 -->
<g id="edge14" class="edge"><title>Node6&#45;&gt;Node7</title>
<path style="fill:none;stroke:midnightblue;" d="M606,-111C623,-100 645,-87 662,-79"/>
<polygon style="fill:midnightblue;stroke:midnightblue;" points="604.042,-108.084 597,-116 607.441,-114.203 604.042,-108.084"/>
</g>
<!-- Node6&#45;&gt;Node8 -->
<g id="edge32" class="edge"><title>Node6&#45;&gt;Node8</title>
<path style="fill:none;stroke:midnightblue;" d="M532,-139C486,-149 419,-164 371,-174"/>
<polygon style="fill:midnightblue;stroke:midnightblue;" points="532.881,-142.393 542,-137 531.508,-135.529 532.881,-142.393"/>
</g>
<!-- Node6&#45;&gt;Node10 -->
<g id="edge36" class="edge"><title>Node6&#45;&gt;Node10</title>
<path style="fill:none;stroke:midnightblue;" d="M582,-106C581,-91 576,-70 564,-58 547,-41 492,-28 449,-20"/>
<polygon style="fill:midnightblue;stroke:midnightblue;" points="578.522,-106.398 583,-116 585.488,-105.701 578.522,-106.398"/>
</g>
<!-- Node12 -->
<g id="node31" class="node"><title>Node12</title>
<a xlink:href="_system_manager_8cpp.html" target="_top" xlink:title="Implements the SystemManager class. ">
<polygon style="fill:white;stroke:black;" points="391,-58 391,-79 555,-79 555,-58 391,-58"/>
<text text-anchor="middle" x="473" y="-65" style="font-family:Arial;font-size:10.00;">S2Sim/SystemManager.cpp</text>
</a>
</g>
<!-- Node6&#45;&gt;Node12 -->
<g id="edge38" class="edge"><title>Node6&#45;&gt;Node12</title>
<path style="fill:none;stroke:midnightblue;" d="M553,-111C534,-101 508,-88 492,-79"/>
<polygon style="fill:midnightblue;stroke:midnightblue;" points="551.559,-114.203 562,-116 554.958,-108.084 551.559,-114.203"/>
</g>
<!-- Node7&#45;&gt;Node4 -->
<g id="edge16" class="edge"><title>Node7&#45;&gt;Node4</title>
<path style="fill:none;stroke:midnightblue;" d="M680,-89C677,-103 672,-121 667,-138 656,-172 642,-213 635,-232"/>
<polygon style="fill:midnightblue;stroke:midnightblue;" points="683.479,-89.584 683,-79 676.774,-87.5725 683.479,-89.584"/>
</g>
<!-- Node7&#45;&gt;Node6 -->
<g id="edge18" class="edge"><title>Node7&#45;&gt;Node6</title>
<path style="fill:none;stroke:midnightblue;" d="M663,-84C647,-94 625,-107 608,-116"/>
<polygon style="fill:midnightblue;stroke:midnightblue;" points="664.958,-86.916 672,-79 661.559,-80.7969 664.958,-86.916"/>
</g>
<!-- Node7&#45;&gt;Node8 -->
<g id="edge20" class="edge"><title>Node7&#45;&gt;Node8</title>
<path style="fill:none;stroke:midnightblue;" d="M616,-81C581,-89 536,-100 499,-116 480,-123 478,-130 461,-138 427,-153 386,-166 357,-174"/>
<polygon style="fill:midnightblue;stroke:midnightblue;" points="616.881,-84.3933 626,-79 615.508,-77.5292 616.881,-84.3933"/>
</g>
<!-- Node7&#45;&gt;Node10 -->
<g id="edge28" class="edge"><title>Node7&#45;&gt;Node10</title>
<path style="fill:none;stroke:midnightblue;" d="M620,-56C568,-45 495,-30 447,-21"/>
<polygon style="fill:midnightblue;stroke:midnightblue;" points="619.508,-59.4708 630,-58 620.881,-52.6067 619.508,-59.4708"/>
</g>
<!-- Node11 -->
<g id="node26" class="node"><title>Node11</title>
<a xlink:href="_matlab_manager_8cpp.html" target="_top" xlink:title="Implements the MatlabManager class. ">
<polygon style="fill:white;stroke:black;" points="605,-0 605,-21 766,-21 766,-0 605,-0"/>
<text text-anchor="middle" x="685" y="-7" style="font-family:Arial;font-size:10.00;">S2Sim/MatlabManager.cpp</text>
</a>
</g>
<!-- Node7&#45;&gt;Node11 -->
<g id="edge30" class="edge"><title>Node7&#45;&gt;Node11</title>
<path style="fill:none;stroke:midnightblue;" d="M685,-48C685,-38 685,-28 685,-21"/>
<polygon style="fill:midnightblue;stroke:midnightblue;" points="681.5,-48 685,-58 688.5,-48 681.5,-48"/>
</g>
<!-- Node8&#45;&gt;Node6 -->
<g id="edge22" class="edge"><title>Node8&#45;&gt;Node6</title>
<path style="fill:none;stroke:midnightblue;" d="M371,-172C418,-161 485,-146 531,-137"/>
<polygon style="fill:midnightblue;stroke:midnightblue;" points="370.119,-168.607 361,-174 371.492,-175.471 370.119,-168.607"/>
</g>
<!-- Node9 -->
<g id="node21" class="node"><title>Node9</title>
<a xlink:href="_control_manager_8cpp.html" target="_top" xlink:title="This file implements the ControlManager class. ">
<polygon style="fill:white;stroke:black;" points="288,-116 288,-137 452,-137 452,-116 288,-116"/>
<text text-anchor="middle" x="370" y="-123" style="font-family:Arial;font-size:10.00;">S2Sim/ControlManager.cpp</text>
</a>
</g>
<!-- Node8&#45;&gt;Node9 -->
<g id="edge24" class="edge"><title>Node8&#45;&gt;Node9</title>
<path style="fill:none;stroke:midnightblue;" d="M333,-166C342,-157 353,-145 361,-137"/>
<polygon style="fill:midnightblue;stroke:midnightblue;" points="329.951,-164.169 326,-174 335.219,-168.779 329.951,-164.169"/>
</g>
<!-- Node8&#45;&gt;Node10 -->
<g id="edge26" class="edge"><title>Node8&#45;&gt;Node10</title>
<path style="fill:none;stroke:midnightblue;" d="M295,-166C284,-153 271,-134 279,-116 299,-70 349,-37 377,-21"/>
<polygon style="fill:midnightblue;stroke:midnightblue;" points="292.781,-168.779 302,-174 298.049,-164.169 292.781,-168.779"/>
</g>
<!-- Node16&#45;&gt;Node3 -->
<g id="edge62" class="edge"><title>Node16&#45;&gt;Node3</title>
<path style="fill:none;stroke:midnightblue;" d="M351,-498C317,-489 284,-478 274,-464 247,-426 255,-402 274,-360 283,-341 301,-326 316,-317"/>
<polygon style="fill:midnightblue;stroke:midnightblue;" points="350.508,-501.471 361,-500 351.881,-494.607 350.508,-501.471"/>
</g>
<!-- Node16&#45;&gt;Node4 -->
<g id="edge68" class="edge"><title>Node16&#45;&gt;Node4</title>
<path style="fill:none;stroke:midnightblue;" d="M562,-504C613,-496 666,-483 682,-464 699,-441 740,-440 676,-290 669,-275 655,-261 645,-253"/>
<polygon style="fill:midnightblue;stroke:midnightblue;" points="561.119,-500.607 552,-506 562.492,-507.471 561.119,-500.607"/>
</g>
<!-- Node16&#45;&gt;Node7 -->
<g id="edge64" class="edge"><title>Node16&#45;&gt;Node7</title>
<path style="fill:none;stroke:midnightblue;" d="M562,-501C619,-492 681,-479 706,-464 746,-438 771,-425 771,-377 771,-377 771,-377 771,-185 771,-137 725,-97 700,-79"/>
<polygon style="fill:midnightblue;stroke:midnightblue;" points="561.119,-497.607 552,-503 562.492,-504.471 561.119,-497.607"/>
</g>
<!-- Node16&#45;&gt;Node8 -->
<g id="edge66" class="edge"><title>Node16&#45;&gt;Node8</title>
<path style="fill:none;stroke:midnightblue;" d="M347,-506C213,-488 0,-449 0,-377 0,-377 0,-377 0,-307 0,-252 166,-213 257,-195"/>
<polygon style="fill:midnightblue;stroke:midnightblue;" points="346.701,-509.488 357,-507 347.398,-502.522 346.701,-509.488"/>
</g>
<!-- Node17 -->
<g id="node52" class="node"><title>Node17</title>
<a xlink:href="_t_c_p_server_8h.html" target="_top" xlink:title="Defines the TCPServer class. ">
<polygon style="fill:white;stroke:black;" points="283,-430 283,-464 410,-464 410,-430 283,-430"/>
<text text-anchor="start" x="291" y="-450" style="font-family:Arial;font-size:10.00;">S2Sim/SocketLibrary</text>
<text text-anchor="middle" x="346" y="-437" style="font-family:Arial;font-size:10.00;">/TCPServer.h</text>
</a>
</g>
<!-- Node16&#45;&gt;Node17 -->
<g id="edge70" class="edge"><title>Node16&#45;&gt;Node17</title>
<path style="fill:none;stroke:midnightblue;" d="M419,-494C404,-484 387,-473 373,-464"/>
<polygon style="fill:midnightblue;stroke:midnightblue;" points="417.738,-497.365 428,-500 421.621,-491.541 417.738,-497.365"/>
</g>
<!-- Node19 -->
<g id="node56" class="node"><title>Node19</title>
<a xlink:href="_threaded_t_c_p_server_8h.html" target="_top" xlink:title="Defines the ThreadedTCPServer class. ">
<polygon style="fill:white;stroke:black;" points="427,-360 427,-394 565,-394 565,-360 427,-360"/>
<text text-anchor="start" x="435" y="-380" style="font-family:Arial;font-size:10.00;">S2Sim/SocketLibrary</text>
<text text-anchor="middle" x="496" y="-367" style="font-family:Arial;font-size:10.00;">/ThreadedTCPServer.h</text>
</a>
</g>
<!-- Node16&#45;&gt;Node19 -->
<g id="edge86" class="edge"><title>Node16&#45;&gt;Node19</title>
<path style="fill:none;stroke:midnightblue;" d="M450,-490C449,-472 449,-449 456,-430 460,-417 470,-404 478,-394"/>
<polygon style="fill:midnightblue;stroke:midnightblue;" points="446.522,-490.398 451,-500 453.488,-489.701 446.522,-490.398"/>
</g>
<!-- Node21 -->
<g id="node63" class="node"><title>Node21</title>
<a xlink:href="_threaded_t_c_p_connected_client_8cpp.html" target="_top" xlink:title="Implements the ThreadedTCPConnectedClient class. ">
<polygon style="fill:white;stroke:black;" points="465,-430 465,-464 673,-464 673,-430 465,-430"/>
<text text-anchor="start" x="473" y="-450" style="font-family:Arial;font-size:10.00;">S2Sim/SocketLibrary</text>
<text text-anchor="middle" x="569" y="-437" style="font-family:Arial;font-size:10.00;">/ThreadedTCPConnectedClient.cpp</text>
</a>
</g>
<!-- Node16&#45;&gt;Node21 -->
<g id="edge84" class="edge"><title>Node16&#45;&gt;Node21</title>
<path style="fill:none;stroke:midnightblue;" d="M491,-495C507,-485 526,-473 541,-464"/>
<polygon style="fill:midnightblue;stroke:midnightblue;" points="489.042,-492.084 482,-500 492.441,-498.203 489.042,-492.084"/>
</g>
<!-- Node18 -->
<g id="node54" class="node"><title>Node18</title>
<a xlink:href="_t_c_p_server_8cpp.html" target="_top" xlink:title="Implements the TCPServer class. ">
<polygon style="fill:white;stroke:black;" points="283,-360 283,-394 410,-394 410,-360 283,-360"/>
<text text-anchor="start" x="291" y="-380" style="font-family:Arial;font-size:10.00;">S2Sim/SocketLibrary</text>
<text text-anchor="middle" x="346" y="-367" style="font-family:Arial;font-size:10.00;">/TCPServer.cpp</text>
</a>
</g>
<!-- Node17&#45;&gt;Node18 -->
<g id="edge72" class="edge"><title>Node17&#45;&gt;Node18</title>
<path style="fill:none;stroke:midnightblue;" d="M346,-420C346,-411 346,-402 346,-394"/>
<polygon style="fill:midnightblue;stroke:midnightblue;" points="342.5,-420 346,-430 349.5,-420 342.5,-420"/>
</g>
<!-- Node17&#45;&gt;Node19 -->
<g id="edge74" class="edge"><title>Node17&#45;&gt;Node19</title>
<path style="fill:none;stroke:midnightblue;" d="M392,-426C414,-415 439,-404 459,-394"/>
<polygon style="fill:midnightblue;stroke:midnightblue;" points="390.717,-422.74 383,-430 393.56,-429.137 390.717,-422.74"/>
</g>
<!-- Node19&#45;&gt;Node3 -->
<g id="edge76" class="edge"><title>Node19&#45;&gt;Node3</title>
<path style="fill:none;stroke:midnightblue;" d="M447,-356C417,-343 381,-327 358,-317"/>
<polygon style="fill:midnightblue;stroke:midnightblue;" points="445.44,-359.137 456,-360 448.283,-352.74 445.44,-359.137"/>
</g>
<!-- Node19&#45;&gt;Node7 -->
<g id="edge78" class="edge"><title>Node19&#45;&gt;Node7</title>
<path style="fill:none;stroke:midnightblue;" d="M575,-366C644,-351 733,-317 733,-243 733,-243 733,-243 733,-185 733,-143 706,-99 693,-79"/>
<polygon style="fill:midnightblue;stroke:midnightblue;" points="574.119,-362.607 565,-368 575.492,-369.471 574.119,-362.607"/>
</g>
<!-- Node19&#45;&gt;Node8 -->
<g id="edge80" class="edge"><title>Node19&#45;&gt;Node8</title>
<path style="fill:none;stroke:midnightblue;" d="M499,-350C501,-332 505,-310 508,-290 510,-273 511,-270 513,-254 513,-244 519,-239 513,-232 497,-212 440,-200 391,-193"/>
<polygon style="fill:midnightblue;stroke:midnightblue;" points="495.512,-349.701 498,-360 502.478,-350.398 495.512,-349.701"/>
</g>
<!-- Node20 -->
<g id="node61" class="node"><title>Node20</title>
<a xlink:href="_threaded_t_c_p_server_8cpp.html" target="_top" xlink:title="Implements the ThreadedTCPServer class. ">
<polygon style="fill:white;stroke:black;" points="517,-290 517,-324 668,-324 668,-290 517,-290"/>
<text text-anchor="start" x="525" y="-310" style="font-family:Arial;font-size:10.00;">S2Sim/SocketLibrary</text>
<text text-anchor="middle" x="592" y="-297" style="font-family:Arial;font-size:10.00;">/ThreadedTCPServer.cpp</text>
</a>
</g>
<!-- Node19&#45;&gt;Node20 -->
<g id="edge82" class="edge"><title>Node19&#45;&gt;Node20</title>
<path style="fill:none;stroke:midnightblue;" d="M528,-354C542,-344 557,-333 569,-324"/>
<polygon style="fill:midnightblue;stroke:midnightblue;" points="525.9,-351.2 520,-360 530.1,-356.8 525.9,-351.2"/>
</g>
<!-- Node23 -->
<g id="node68" class="node"><title>Node23</title>
<a xlink:href="_threaded_t_c_p_client_8cpp.html" target="_top" xlink:title="Implements the ThreadedTCPClient class. ">
<polygon style="fill:white;stroke:black;" points="837,-430 837,-464 985,-464 985,-430 837,-430"/>
<text text-anchor="start" x="845" y="-450" style="font-family:Arial;font-size:10.00;">S2Sim/SocketLibrary</text>
<text text-anchor="middle" x="911" y="-437" style="font-family:Arial;font-size:10.00;">/ThreadedTCPClient.cpp</text>
</a>
</g>
<!-- Node22&#45;&gt;Node23 -->
<g id="edge90" class="edge"><title>Node22&#45;&gt;Node23</title>
<path style="fill:none;stroke:midnightblue;" d="M909,-490C909,-481 909,-472 910,-464"/>
<polygon style="fill:midnightblue;stroke:midnightblue;" points="905.512,-489.701 908,-500 912.478,-490.398 905.512,-489.701"/>
</g>
</g>
</svg>
