<?xml version="1.0" encoding="UTF-8" standalone="no"?>
<!DOCTYPE svg PUBLIC "-//W3C//DTD SVG 1.0//EN"
 "http://www.w3.org/TR/2001/REC-SVG-20010904/DTD/svg10.dtd" [
 <!ATTLIST svg xmlns:xlink CDATA #FIXED "http://www.w3.org/1999/xlink">
]>
<!-- Generated by Graphviz version 2.14.1 (Fri Nov  9 08:19:38 GMT 2007)
     For user: (asakyurek) Alper Sinan Akyurek -->
<!-- Title: S2Sim/SemaphoreLibrary/Semaphore.h Pages: 1 -->
<svg width="1275pt" height="612pt"
 viewBox="0.00 0.00 1275.00 612.00" xmlns="http://www.w3.org/2000/svg" xmlns:xlink="http://www.w3.org/1999/xlink">
<g id="graph0" class="graph" transform="scale(1 1) rotate(0) translate(4 608)">
<title>S2Sim/SemaphoreLibrary/Semaphore.h</title>
<polygon style="fill:white;stroke:white;" points="-4,4 -4,-608 1271,-608 1271,4 -4,4"/>
<!-- Node1 -->
<g id="node1" class="node"><title>Node1</title>
<polygon style="fill:#bfbfbf;stroke:black;" points="849,-570 849,-604 1003,-604 1003,-570 849,-570"/>
<text text-anchor="start" x="857" y="-590" style="font-family:Arial;font-size:10.00;">S2Sim/SemaphoreLibrary</text>
<text text-anchor="middle" x="926" y="-577" style="font-family:Arial;font-size:10.00;">/Semaphore.h</text>
</g>
<!-- Node2 -->
<g id="node3" class="node"><title>Node2</title>
<a xlink:href="_log_print_8h.html" target="_top" xlink:title="S2Sim/LogPrint.h">
<polygon style="fill:white;stroke:black;" points="164,-366 164,-387 271,-387 271,-366 164,-366"/>
<text text-anchor="middle" x="217" y="-373" style="font-family:Arial;font-size:10.00;">S2Sim/LogPrint.h</text>
</a>
</g>
<!-- Node1&#45;&gt;Node2 -->
<g id="edge2" class="edge"><title>Node1&#45;&gt;Node2</title>
<path style="fill:none;stroke:midnightblue;" d="M839,-579C684,-563 369,-526 279,-464 250,-444 230,-405 221,-387"/>
<polygon style="fill:midnightblue;stroke:midnightblue;" points="838.701,-582.488 849,-580 839.398,-575.522 838.701,-582.488"/>
</g>
<!-- Node7 -->
<g id="node14" class="node"><title>Node7</title>
<a xlink:href="_matlab_manager_8h.html" target="_top" xlink:title="S2Sim/MatlabManager.h">
<polygon style="fill:white;stroke:black;" points="592,-58 592,-79 740,-79 740,-58 592,-58"/>
<text text-anchor="middle" x="666" y="-65" style="font-family:Arial;font-size:10.00;">S2Sim/MatlabManager.h</text>
</a>
</g>
<!-- Node1&#45;&gt;Node7 -->
<g id="edge54" class="edge"><title>Node1&#45;&gt;Node7</title>
<path style="fill:none;stroke:midnightblue;" d="M926,-560C926,-531 926,-486 926,-447 926,-447 926,-447 926,-185 926,-146 906,-136 874,-116 851,-101 785,-88 733,-79"/>
<polygon style="fill:midnightblue;stroke:midnightblue;" points="922.5,-560 926,-570 929.5,-560 922.5,-560"/>
</g>
<!-- Node15 -->
<g id="node43" class="node"><title>Node15</title>
<a xlink:href="_semaphore_8cpp.html" target="_top" xlink:title="S2Sim/SemaphoreLibrary\l/Semaphore.cpp">
<polygon style="fill:white;stroke:black;" points="954,-500 954,-534 1108,-534 1108,-500 954,-500"/>
<text text-anchor="start" x="962" y="-520" style="font-family:Arial;font-size:10.00;">S2Sim/SemaphoreLibrary</text>
<text text-anchor="middle" x="1031" y="-507" style="font-family:Arial;font-size:10.00;">/Semaphore.cpp</text>
</a>
</g>
<!-- Node1&#45;&gt;Node15 -->
<g id="edge56" class="edge"><title>Node1&#45;&gt;Node15</title>
<path style="fill:none;stroke:midnightblue;" d="M961,-564C975,-554 992,-543 1005,-534"/>
<polygon style="fill:midnightblue;stroke:midnightblue;" points="958.379,-561.541 952,-570 962.262,-567.365 958.379,-561.541"/>
</g>
<!-- Node16 -->
<g id="node45" class="node"><title>Node16</title>
<a xlink:href="_threaded_t_c_p_connected_client_8h.html" target="_top" xlink:title="S2Sim/SocketLibrary\l/ThreadedTCPConnectedClient.h">
<polygon style="fill:white;stroke:black;" points="555,-500 555,-534 750,-534 750,-500 555,-500"/>
<text text-anchor="start" x="563" y="-520" style="font-family:Arial;font-size:10.00;">S2Sim/SocketLibrary</text>
<text text-anchor="middle" x="652" y="-507" style="font-family:Arial;font-size:10.00;">/ThreadedTCPConnectedClient.h</text>
</a>
</g>
<!-- Node1&#45;&gt;Node16 -->
<g id="edge58" class="edge"><title>Node1&#45;&gt;Node16</title>
<path style="fill:none;stroke:midnightblue;" d="M849,-568C808,-557 758,-544 719,-534"/>
<polygon style="fill:midnightblue;stroke:midnightblue;" points="848.508,-571.471 859,-570 849.881,-564.607 848.508,-571.471"/>
</g>
<!-- Node22 -->
<g id="node66" class="node"><title>Node22</title>
<a xlink:href="_threaded_t_c_p_client_8h.html" target="_top" xlink:title="S2Sim/SocketLibrary\l/ThreadedTCPClient.h">
<polygon style="fill:white;stroke:black;" points="1126,-500 1126,-534 1261,-534 1261,-500 1126,-500"/>
<text text-anchor="start" x="1134" y="-520" style="font-family:Arial;font-size:10.00;">S2Sim/SocketLibrary</text>
<text text-anchor="middle" x="1193" y="-507" style="font-family:Arial;font-size:10.00;">/ThreadedTCPClient.h</text>
</a>
</g>
<!-- Node1&#45;&gt;Node22 -->
<g id="edge88" class="edge"><title>Node1&#45;&gt;Node22</title>
<path style="fill:none;stroke:midnightblue;" d="M1001,-567C1041,-557 1089,-544 1128,-534"/>
<polygon style="fill:midnightblue;stroke:midnightblue;" points="999.573,-563.774 991,-570 1001.58,-570.479 999.573,-563.774"/>
</g>
<!-- Node3 -->
<g id="node5" class="node"><title>Node3</title>
<a xlink:href="_connection_manager_8h.html" target="_top" xlink:title="S2Sim/ConnectionManager.h">
<polygon style="fill:white;stroke:black;" points="404,-296 404,-317 578,-317 578,-296 404,-296"/>
<text text-anchor="middle" x="491" y="-303" style="font-family:Arial;font-size:10.00;">S2Sim/ConnectionManager.h</text>
</a>
</g>
<!-- Node2&#45;&gt;Node3 -->
<g id="edge4" class="edge"><title>Node2&#45;&gt;Node3</title>
<path style="fill:none;stroke:midnightblue;" d="M267,-363C271,-362 275,-361 279,-360 338,-344 406,-327 449,-317"/>
<polygon style="fill:midnightblue;stroke:midnightblue;" points="265.573,-359.774 257,-366 267.584,-366.479 265.573,-359.774"/>
</g>
<!-- Node4 -->
<g id="node7" class="node"><title>Node4</title>
<a xlink:href="_client_manager_8h.html" target="_top" xlink:title="S2Sim/ClientManager.h">
<polygon style="fill:white;stroke:black;" points="232,-232 232,-253 375,-253 375,-232 232,-232"/>
<text text-anchor="middle" x="303" y="-239" style="font-family:Arial;font-size:10.00;">S2Sim/ClientManager.h</text>
</a>
</g>
<!-- Node2&#45;&gt;Node4 -->
<g id="edge50" class="edge"><title>Node2&#45;&gt;Node4</title>
<path style="fill:none;stroke:midnightblue;" d="M230,-357C249,-328 282,-276 296,-253"/>
<polygon style="fill:midnightblue;stroke:midnightblue;" points="226.635,-355.738 224,-366 232.459,-359.621 226.635,-355.738"/>
</g>
<!-- Node6 -->
<g id="node12" class="node"><title>Node6</title>
<a xlink:href="_system_manager_8h.html" target="_top" xlink:title="S2Sim/SystemManager.h">
<polygon style="fill:white;stroke:black;" points="304,-116 304,-137 455,-137 455,-116 304,-116"/>
<text text-anchor="middle" x="379" y="-123" style="font-family:Arial;font-size:10.00;">S2Sim/SystemManager.h</text>
</a>
</g>
<!-- Node2&#45;&gt;Node6 -->
<g id="edge48" class="edge"><title>Node2&#45;&gt;Node6</title>
<path style="fill:none;stroke:midnightblue;" d="M212,-356C207,-326 202,-271 223,-232 251,-182 313,-152 350,-137"/>
<polygon style="fill:midnightblue;stroke:midnightblue;" points="208.607,-356.881 214,-366 215.471,-355.508 208.607,-356.881"/>
</g>
<!-- Node8 -->
<g id="node18" class="node"><title>Node8</title>
<a xlink:href="_control_manager_8h.html" target="_top" xlink:title="S2Sim/ControlManager.h">
<polygon style="fill:white;stroke:black;" points="556,-174 556,-195 707,-195 707,-174 556,-174"/>
<text text-anchor="middle" x="631" y="-181" style="font-family:Arial;font-size:10.00;">S2Sim/ControlManager.h</text>
</a>
</g>
<!-- Node2&#45;&gt;Node8 -->
<g id="edge46" class="edge"><title>Node2&#45;&gt;Node8</title>
<path style="fill:none;stroke:midnightblue;" d="M239,-360C283,-325 383,-249 421,-232 464,-213 515,-201 556,-194"/>
<polygon style="fill:midnightblue;stroke:midnightblue;" points="236.9,-357.2 231,-366 241.1,-362.8 236.9,-357.2"/>
</g>
<!-- Node14 -->
<g id="node40" class="node"><title>Node14</title>
<a xlink:href="_log_print_8cpp.html" target="_top" xlink:title="S2Sim/LogPrint.cpp">
<polygon style="fill:white;stroke:black;" points="28,-296 28,-317 148,-317 148,-296 28,-296"/>
<text text-anchor="middle" x="88" y="-303" style="font-family:Arial;font-size:10.00;">S2Sim/LogPrint.cpp</text>
</a>
</g>
<!-- Node2&#45;&gt;Node14 -->
<g id="edge52" class="edge"><title>Node2&#45;&gt;Node14</title>
<path style="fill:none;stroke:midnightblue;" d="M188,-361C163,-347 128,-329 107,-317"/>
<polygon style="fill:midnightblue;stroke:midnightblue;" points="186.559,-364.203 197,-366 189.958,-358.084 186.559,-364.203"/>
</g>
<!-- Node3&#45;&gt;Node4 -->
<g id="edge6" class="edge"><title>Node3&#45;&gt;Node4</title>
<path style="fill:none;stroke:midnightblue;" d="M443,-293C406,-281 356,-264 327,-253"/>
<polygon style="fill:midnightblue;stroke:midnightblue;" points="442.416,-296.479 453,-296 444.427,-289.774 442.416,-296.479"/>
</g>
<!-- Node3&#45;&gt;Node8 -->
<g id="edge40" class="edge"><title>Node3&#45;&gt;Node8</title>
<path style="fill:none;stroke:midnightblue;" d="M568,-293C590,-285 611,-273 625,-254 638,-237 636,-210 633,-195"/>
<polygon style="fill:midnightblue;stroke:midnightblue;" points="566.573,-289.774 558,-296 568.584,-296.479 566.573,-289.774"/>
</g>
<!-- Node10 -->
<g id="node23" class="node"><title>Node10</title>
<a xlink:href="main_8cpp.html" target="_top" xlink:title="S2Sim/main.cpp">
<polygon style="fill:white;stroke:black;" points="293,-0 293,-21 397,-21 397,-0 293,-0"/>
<text text-anchor="middle" x="345" y="-7" style="font-family:Arial;font-size:10.00;">S2Sim/main.cpp</text>
</a>
</g>
<!-- Node3&#45;&gt;Node10 -->
<g id="edge44" class="edge"><title>Node3&#45;&gt;Node10</title>
<path style="fill:none;stroke:midnightblue;" d="M394,-299C328,-291 248,-277 223,-254 200,-232 204,-216 204,-185 204,-185 204,-185 204,-127 204,-70 271,-37 313,-21"/>
<polygon style="fill:midnightblue;stroke:midnightblue;" points="393.701,-302.488 404,-300 394.398,-295.522 393.701,-302.488"/>
</g>
<!-- Node13 -->
<g id="node34" class="node"><title>Node13</title>
<a xlink:href="_connection_manager_8cpp.html" target="_top" xlink:title="S2Sim/ConnectionManager.cpp">
<polygon style="fill:white;stroke:black;" points="430,-232 430,-253 617,-253 617,-232 430,-232"/>
<text text-anchor="middle" x="523" y="-239" style="font-family:Arial;font-size:10.00;">S2Sim/ConnectionManager.cpp</text>
</a>
</g>
<!-- Node3&#45;&gt;Node13 -->
<g id="edge42" class="edge"><title>Node3&#45;&gt;Node13</title>
<path style="fill:none;stroke:midnightblue;" d="M501,-287C507,-276 513,-262 518,-253"/>
<polygon style="fill:midnightblue;stroke:midnightblue;" points="497.863,-285.44 497,-296 504.26,-288.283 497.863,-285.44"/>
</g>
<!-- Node4&#45;&gt;Node3 -->
<g id="edge10" class="edge"><title>Node4&#45;&gt;Node3</title>
<path style="fill:none;stroke:midnightblue;" d="M348,-256C383,-268 433,-285 464,-296"/>
<polygon style="fill:midnightblue;stroke:midnightblue;" points="348.584,-252.521 338,-253 346.573,-259.226 348.584,-252.521"/>
</g>
<!-- Node5 -->
<g id="node9" class="node"><title>Node5</title>
<a xlink:href="_client_manager_8cpp.html" target="_top" xlink:title="S2Sim/ClientManager.cpp">
<polygon style="fill:white;stroke:black;" points="340,-174 340,-195 496,-195 496,-174 340,-174"/>
<text text-anchor="middle" x="418" y="-181" style="font-family:Arial;font-size:10.00;">S2Sim/ClientManager.cpp</text>
</a>
</g>
<!-- Node4&#45;&gt;Node5 -->
<g id="edge8" class="edge"><title>Node4&#45;&gt;Node5</title>
<path style="fill:none;stroke:midnightblue;" d="M334,-227C354,-217 381,-204 398,-195"/>
<polygon style="fill:midnightblue;stroke:midnightblue;" points="332.042,-224.084 325,-232 335.441,-230.203 332.042,-224.084"/>
</g>
<!-- Node4&#45;&gt;Node6 -->
<g id="edge12" class="edge"><title>Node4&#45;&gt;Node6</title>
<path style="fill:none;stroke:midnightblue;" d="M302,-222C305,-207 313,-188 322,-174 332,-160 346,-146 359,-137"/>
<polygon style="fill:midnightblue;stroke:midnightblue;" points="298.529,-221.508 300,-232 305.393,-222.881 298.529,-221.508"/>
</g>
<!-- Node4&#45;&gt;Node8 -->
<g id="edge38" class="edge"><title>Node4&#45;&gt;Node8</title>
<path style="fill:none;stroke:midnightblue;" d="M375,-230C435,-219 519,-204 574,-195"/>
<polygon style="fill:midnightblue;stroke:midnightblue;" points="374.119,-226.607 365,-232 375.492,-233.471 374.119,-226.607"/>
</g>
<!-- Node6&#45;&gt;Node4 -->
<g id="edge34" class="edge"><title>Node6&#45;&gt;Node4</title>
<path style="fill:none;stroke:midnightblue;" d="M366,-144C357,-153 348,-163 340,-174 328,-192 319,-218 312,-232"/>
<polygon style="fill:midnightblue;stroke:midnightblue;" points="368.404,-146.546 373,-137 363.454,-141.596 368.404,-146.546"/>
</g>
<!-- Node6&#45;&gt;Node7 -->
<g id="edge14" class="edge"><title>Node6&#45;&gt;Node7</title>
<path style="fill:none;stroke:midnightblue;" d="M438,-114C489,-103 562,-88 611,-79"/>
<polygon style="fill:midnightblue;stroke:midnightblue;" points="437.119,-110.607 428,-116 438.492,-117.471 437.119,-110.607"/>
</g>
<!-- Node6&#45;&gt;Node8 -->
<g id="edge32" class="edge"><title>Node6&#45;&gt;Node8</title>
<path style="fill:none;stroke:midnightblue;" d="M438,-139C484,-149 547,-164 588,-174"/>
<polygon style="fill:midnightblue;stroke:midnightblue;" points="438.492,-135.529 428,-137 437.119,-142.393 438.492,-135.529"/>
</g>
<!-- Node12 -->
<g id="node30" class="node"><title>Node12</title>
<a xlink:href="_system_manager_8cpp.html" target="_top" xlink:title="S2Sim/SystemManager.cpp">
<polygon style="fill:white;stroke:black;" points="294,-58 294,-79 458,-79 458,-58 294,-58"/>
<text text-anchor="middle" x="376" y="-65" style="font-family:Arial;font-size:10.00;">S2Sim/SystemManager.cpp</text>
</a>
</g>
<!-- Node6&#45;&gt;Node12 -->
<g id="edge36" class="edge"><title>Node6&#45;&gt;Node12</title>
<path style="fill:none;stroke:midnightblue;" d="M378,-106C378,-96 377,-86 377,-79"/>
<polygon style="fill:midnightblue;stroke:midnightblue;" points="374.5,-106 378,-116 381.5,-106 374.5,-106"/>
</g>
<!-- Node7&#45;&gt;Node4 -->
<g id="edge16" class="edge"><title>Node7&#45;&gt;Node4</title>
<path style="fill:none;stroke:midnightblue;" d="M605,-82C584,-89 560,-100 543,-116 515,-142 536,-171 505,-196 485,-212 425,-224 375,-233"/>
<polygon style="fill:midnightblue;stroke:midnightblue;" points="606.427,-85.2259 615,-79 604.416,-78.5212 606.427,-85.2259"/>
</g>
<!-- Node7&#45;&gt;Node6 -->
<g id="edge18" class="edge"><title>Node7&#45;&gt;Node6</title>
<path style="fill:none;stroke:midnightblue;" d="M611,-81C562,-91 490,-106 439,-116"/>
<polygon style="fill:midnightblue;stroke:midnightblue;" points="611.881,-84.3933 621,-79 610.508,-77.5292 611.881,-84.3933"/>
</g>
<!-- Node7&#45;&gt;Node8 -->
<g id="edge20" class="edge"><title>Node7&#45;&gt;Node8</title>
<path style="fill:none;stroke:midnightblue;" d="M695,-84C715,-98 737,-118 725,-138 714,-156 694,-167 675,-174"/>
<polygon style="fill:midnightblue;stroke:midnightblue;" points="696.441,-80.7969 686,-79 693.042,-86.916 696.441,-80.7969"/>
</g>
<!-- Node7&#45;&gt;Node10 -->
<g id="edge28" class="edge"><title>Node7&#45;&gt;Node10</title>
<path style="fill:none;stroke:midnightblue;" d="M595,-56C535,-45 451,-30 397,-20"/>
<polygon style="fill:midnightblue;stroke:midnightblue;" points="594.508,-59.4708 605,-58 595.881,-52.6067 594.508,-59.4708"/>
</g>
<!-- Node11 -->
<g id="node26" class="node"><title>Node11</title>
<a xlink:href="_matlab_manager_8cpp.html" target="_top" xlink:title="S2Sim/MatlabManager.cpp">
<polygon style="fill:white;stroke:black;" points="586,-0 586,-21 747,-21 747,-0 586,-0"/>
<text text-anchor="middle" x="666" y="-7" style="font-family:Arial;font-size:10.00;">S2Sim/MatlabManager.cpp</text>
</a>
</g>
<!-- Node7&#45;&gt;Node11 -->
<g id="edge30" class="edge"><title>Node7&#45;&gt;Node11</title>
<path style="fill:none;stroke:midnightblue;" d="M666,-48C666,-38 666,-28 666,-21"/>
<polygon style="fill:midnightblue;stroke:midnightblue;" points="662.5,-48 666,-58 669.5,-48 662.5,-48"/>
</g>
<!-- Node8&#45;&gt;Node6 -->
<g id="edge22" class="edge"><title>Node8&#45;&gt;Node6</title>
<path style="fill:none;stroke:midnightblue;" d="M568,-172C521,-161 458,-146 418,-137"/>
<polygon style="fill:midnightblue;stroke:midnightblue;" points="567.508,-175.471 578,-174 568.881,-168.607 567.508,-175.471"/>
</g>
<!-- Node9 -->
<g id="node21" class="node"><title>Node9</title>
<a xlink:href="_control_manager_8cpp.html" target="_top" xlink:title="S2Sim/ControlManager.cpp">
<polygon style="fill:white;stroke:black;" points="552,-116 552,-137 716,-137 716,-116 552,-116"/>
<text text-anchor="middle" x="634" y="-123" style="font-family:Arial;font-size:10.00;">S2Sim/ControlManager.cpp</text>
</a>
</g>
<!-- Node8&#45;&gt;Node9 -->
<g id="edge24" class="edge"><title>Node8&#45;&gt;Node9</title>
<path style="fill:none;stroke:midnightblue;" d="M632,-164C632,-154 633,-144 633,-137"/>
<polygon style="fill:midnightblue;stroke:midnightblue;" points="628.5,-164 632,-174 635.5,-164 628.5,-164"/>
</g>
<!-- Node8&#45;&gt;Node10 -->
<g id="edge26" class="edge"><title>Node8&#45;&gt;Node10</title>
<path style="fill:none;stroke:midnightblue;" d="M597,-169C580,-161 560,-150 543,-138 504,-108 508,-85 467,-58 442,-41 410,-29 385,-21"/>
<polygon style="fill:midnightblue;stroke:midnightblue;" points="595.559,-172.203 606,-174 598.958,-166.084 595.559,-172.203"/>
</g>
<!-- Node16&#45;&gt;Node3 -->
<g id="edge60" class="edge"><title>Node16&#45;&gt;Node3</title>
<path style="fill:none;stroke:midnightblue;" d="M621,-494C593,-471 550,-433 524,-394 508,-369 498,-334 493,-317"/>
<polygon style="fill:midnightblue;stroke:midnightblue;" points="618.9,-496.8 629,-500 623.1,-491.2 618.9,-496.8"/>
</g>
<!-- Node16&#45;&gt;Node4 -->
<g id="edge66" class="edge"><title>Node16&#45;&gt;Node4</title>
<path style="fill:none;stroke:midnightblue;" d="M606,-495C588,-486 568,-475 551,-464 500,-427 355,-292 314,-253"/>
<polygon style="fill:midnightblue;stroke:midnightblue;" points="604.559,-498.203 615,-500 607.958,-492.084 604.559,-498.203"/>
</g>
<!-- Node16&#45;&gt;Node7 -->
<g id="edge62" class="edge"><title>Node16&#45;&gt;Node7</title>
<path style="fill:none;stroke:midnightblue;" d="M750,-498C790,-488 829,-477 845,-464 878,-436 888,-420 888,-377 888,-377 888,-377 888,-185 888,-116 805,-88 740,-77"/>
<polygon style="fill:midnightblue;stroke:midnightblue;" points="749.119,-494.607 740,-500 750.492,-501.471 749.119,-494.607"/>
</g>
<!-- Node16&#45;&gt;Node8 -->
<g id="edge64" class="edge"><title>Node16&#45;&gt;Node8</title>
<path style="fill:none;stroke:midnightblue;" d="M755,-498C789,-489 821,-478 831,-464 840,-451 832,-444 831,-430 822,-366 831,-342 793,-290 758,-242 694,-210 658,-195"/>
<polygon style="fill:midnightblue;stroke:midnightblue;" points="754.119,-494.607 745,-500 755.492,-501.471 754.119,-494.607"/>
</g>
<!-- Node17 -->
<g id="node51" class="node"><title>Node17</title>
<a xlink:href="_t_c_p_server_8h.html" target="_top" xlink:title="S2Sim/SocketLibrary\l/TCPServer.h">
<polygon style="fill:white;stroke:black;" points="288,-430 288,-464 415,-464 415,-430 288,-430"/>
<text text-anchor="start" x="296" y="-450" style="font-family:Arial;font-size:10.00;">S2Sim/SocketLibrary</text>
<text text-anchor="middle" x="351" y="-437" style="font-family:Arial;font-size:10.00;">/TCPServer.h</text>
</a>
</g>
<!-- Node16&#45;&gt;Node17 -->
<g id="edge68" class="edge"><title>Node16&#45;&gt;Node17</title>
<path style="fill:none;stroke:midnightblue;" d="M569,-498C521,-486 460,-472 415,-462"/>
<polygon style="fill:midnightblue;stroke:midnightblue;" points="568.508,-501.471 579,-500 569.881,-494.607 568.508,-501.471"/>
</g>
<!-- Node19 -->
<g id="node56" class="node"><title>Node19</title>
<a xlink:href="_threaded_t_c_p_server_8h.html" target="_top" xlink:title="S2Sim/SocketLibrary\l/ThreadedTCPServer.h">
<polygon style="fill:white;stroke:black;" points="533,-360 533,-394 671,-394 671,-360 533,-360"/>
<text text-anchor="start" x="541" y="-380" style="font-family:Arial;font-size:10.00;">S2Sim/SocketLibrary</text>
<text text-anchor="middle" x="602" y="-367" style="font-family:Arial;font-size:10.00;">/ThreadedTCPServer.h</text>
</a>
</g>
<!-- Node16&#45;&gt;Node19 -->
<g id="edge86" class="edge"><title>Node16&#45;&gt;Node19</title>
<path style="fill:none;stroke:midnightblue;" d="M624,-493C617,-484 609,-475 605,-464 596,-441 597,-412 599,-394"/>
<polygon style="fill:midnightblue;stroke:midnightblue;" points="622.169,-496.049 632,-500 626.779,-490.781 622.169,-496.049"/>
</g>
<!-- Node21 -->
<g id="node63" class="node"><title>Node21</title>
<a xlink:href="_threaded_t_c_p_connected_client_8cpp.html" target="_top" xlink:title="S2Sim/SocketLibrary\l/ThreadedTCPConnectedClient.cpp">
<polygon style="fill:white;stroke:black;" points="614,-430 614,-464 822,-464 822,-430 614,-430"/>
<text text-anchor="start" x="622" y="-450" style="font-family:Arial;font-size:10.00;">S2Sim/SocketLibrary</text>
<text text-anchor="middle" x="718" y="-437" style="font-family:Arial;font-size:10.00;">/ThreadedTCPConnectedClient.cpp</text>
</a>
</g>
<!-- Node16&#45;&gt;Node21 -->
<g id="edge84" class="edge"><title>Node16&#45;&gt;Node21</title>
<path style="fill:none;stroke:midnightblue;" d="M675,-492C684,-483 694,-473 702,-464"/>
<polygon style="fill:midnightblue;stroke:midnightblue;" points="671.951,-490.169 668,-500 677.219,-494.779 671.951,-490.169"/>
</g>
<!-- Node17&#45;&gt;Node10 -->
<g id="edge70" class="edge"><title>Node17&#45;&gt;Node10</title>
<path style="fill:none;stroke:midnightblue;" d="M278,-433C175,-411 0,-366 0,-307 0,-307 0,-307 0,-127 0,-66 197,-31 293,-17"/>
<polygon style="fill:midnightblue;stroke:midnightblue;" points="277.508,-436.471 288,-435 278.881,-429.607 277.508,-436.471"/>
</g>
<!-- Node18 -->
<g id="node54" class="node"><title>Node18</title>
<a xlink:href="_t_c_p_server_8cpp.html" target="_top" xlink:title="S2Sim/SocketLibrary\l/TCPServer.cpp">
<polygon style="fill:white;stroke:black;" points="288,-360 288,-394 415,-394 415,-360 288,-360"/>
<text text-anchor="start" x="296" y="-380" style="font-family:Arial;font-size:10.00;">S2Sim/SocketLibrary</text>
<text text-anchor="middle" x="351" y="-367" style="font-family:Arial;font-size:10.00;">/TCPServer.cpp</text>
</a>
</g>
<!-- Node17&#45;&gt;Node18 -->
<g id="edge72" class="edge"><title>Node17&#45;&gt;Node18</title>
<path style="fill:none;stroke:midnightblue;" d="M351,-420C351,-411 351,-402 351,-394"/>
<polygon style="fill:midnightblue;stroke:midnightblue;" points="347.5,-420 351,-430 354.5,-420 347.5,-420"/>
</g>
<!-- Node17&#45;&gt;Node19 -->
<g id="edge74" class="edge"><title>Node17&#45;&gt;Node19</title>
<path style="fill:none;stroke:midnightblue;" d="M422,-427C459,-417 504,-404 541,-394"/>
<polygon style="fill:midnightblue;stroke:midnightblue;" points="420.573,-423.774 412,-430 422.584,-430.479 420.573,-423.774"/>
</g>
<!-- Node19&#45;&gt;Node3 -->
<g id="edge76" class="edge"><title>Node19&#45;&gt;Node3</title>
<path style="fill:none;stroke:midnightblue;" d="M567,-354C547,-341 523,-327 507,-317"/>
<polygon style="fill:midnightblue;stroke:midnightblue;" points="564.9,-356.8 575,-360 569.1,-351.2 564.9,-356.8"/>
</g>
<!-- Node19&#45;&gt;Node7 -->
<g id="edge78" class="edge"><title>Node19&#45;&gt;Node7</title>
<path style="fill:none;stroke:midnightblue;" d="M681,-363C727,-354 777,-340 793,-324 818,-297 812,-279 812,-243 812,-243 812,-243 812,-185 812,-128 743,-94 699,-79"/>
<polygon style="fill:midnightblue;stroke:midnightblue;" points="680.119,-359.607 671,-365 681.492,-366.471 680.119,-359.607"/>
</g>
<!-- Node19&#45;&gt;Node8 -->
<g id="edge80" class="edge"><title>Node19&#45;&gt;Node8</title>
<path style="fill:none;stroke:midnightblue;" d="M607,-350C611,-332 618,-309 625,-290 632,-273 640,-271 644,-254 649,-233 641,-209 636,-195"/>
<polygon style="fill:midnightblue;stroke:midnightblue;" points="603.529,-349.508 605,-360 610.393,-350.881 603.529,-349.508"/>
</g>
<!-- Node20 -->
<g id="node61" class="node"><title>Node20</title>
<a xlink:href="_threaded_t_c_p_server_8cpp.html" target="_top" xlink:title="S2Sim/SocketLibrary\l/ThreadedTCPServer.cpp">
<polygon style="fill:white;stroke:black;" points="634,-290 634,-324 785,-324 785,-290 634,-290"/>
<text text-anchor="start" x="642" y="-310" style="font-family:Arial;font-size:10.00;">S2Sim/SocketLibrary</text>
<text text-anchor="middle" x="709" y="-297" style="font-family:Arial;font-size:10.00;">/ThreadedTCPServer.cpp</text>
</a>
</g>
<!-- Node19&#45;&gt;Node20 -->
<g id="edge82" class="edge"><title>Node19&#45;&gt;Node20</title>
<path style="fill:none;stroke:midnightblue;" d="M637,-354C652,-344 669,-333 683,-324"/>
<polygon style="fill:midnightblue;stroke:midnightblue;" points="634.379,-351.541 628,-360 638.262,-357.365 634.379,-351.541"/>
</g>
<!-- Node23 -->
<g id="node68" class="node"><title>Node23</title>
<a xlink:href="_threaded_t_c_p_client_8cpp.html" target="_top" xlink:title="S2Sim/SocketLibrary\l/ThreadedTCPClient.cpp">
<polygon style="fill:white;stroke:black;" points="1119,-430 1119,-464 1267,-464 1267,-430 1119,-430"/>
<text text-anchor="start" x="1127" y="-450" style="font-family:Arial;font-size:10.00;">S2Sim/SocketLibrary</text>
<text text-anchor="middle" x="1193" y="-437" style="font-family:Arial;font-size:10.00;">/ThreadedTCPClient.cpp</text>
</a>
</g>
<!-- Node22&#45;&gt;Node23 -->
<g id="edge90" class="edge"><title>Node22&#45;&gt;Node23</title>
<path style="fill:none;stroke:midnightblue;" d="M1193,-490C1193,-481 1193,-472 1193,-464"/>
<polygon style="fill:midnightblue;stroke:midnightblue;" points="1189.5,-490 1193,-500 1196.5,-490 1189.5,-490"/>
</g>
</g>
</svg>
