<?xml version="1.0" encoding="UTF-8" standalone="no"?>
<!DOCTYPE svg PUBLIC "-//W3C//DTD SVG 1.0//EN"
 "http://www.w3.org/TR/2001/REC-SVG-20010904/DTD/svg10.dtd" [
 <!ATTLIST svg xmlns:xlink CDATA #FIXED "http://www.w3.org/1999/xlink">
]>
<!-- Generated by Graphviz version 2.14.1 (Fri Nov  9 08:19:38 GMT 2007)
     For user: (asakyurek) Alper Sinan Akyurek -->
<!-- Title: S2Sim/SocketLibrary/SocketBase.h Pages: 1 -->
<svg width="991pt" height="682pt"
 viewBox="0.00 0.00 991.00 682.00" xmlns="http://www.w3.org/2000/svg" xmlns:xlink="http://www.w3.org/1999/xlink">
<g id="graph0" class="graph" transform="scale(1 1) rotate(0) translate(4 678)">
<title>S2Sim/SocketLibrary/SocketBase.h</title>
<polygon style="fill:white;stroke:white;" points="-4,4 -4,-678 987,-678 987,4 -4,4"/>
<!-- Node1 -->
<g id="node1" class="node"><title>Node1</title>
<polygon style="fill:#bfbfbf;stroke:black;" points="570,-640 570,-674 697,-674 697,-640 570,-640"/>
<text text-anchor="start" x="578" y="-660" style="font-family:Arial;font-size:10.00;">S2Sim/SocketLibrary</text>
<text text-anchor="middle" x="633" y="-647" style="font-family:Arial;font-size:10.00;">/SocketBase.h</text>
</g>
<!-- Node2 -->
<g id="node3" class="node"><title>Node2</title>
<a xlink:href="_t_c_p_client_8h.html" target="_top" xlink:title="Defines the TCPClient class. ">
<polygon style="fill:white;stroke:black;" points="148,-570 148,-604 275,-604 275,-570 148,-570"/>
<text text-anchor="start" x="156" y="-590" style="font-family:Arial;font-size:10.00;">S2Sim/SocketLibrary</text>
<text text-anchor="middle" x="211" y="-577" style="font-family:Arial;font-size:10.00;">/TCPClient.h</text>
</a>
</g>
<!-- Node1&#45;&gt;Node2 -->
<g id="edge2" class="edge"><title>Node1&#45;&gt;Node2</title>
<path style="fill:none;stroke:midnightblue;" d="M560,-645C479,-632 352,-610 275,-598"/>
<polygon style="fill:midnightblue;stroke:midnightblue;" points="559.508,-648.471 570,-647 560.881,-641.607 559.508,-648.471"/>
</g>
<!-- Node6 -->
<g id="node11" class="node"><title>Node6</title>
<a xlink:href="_t_c_p_connected_client_8h.html" target="_top" xlink:title="Defines the TCPConnectedClient class. ">
<polygon style="fill:white;stroke:black;" points="500,-570 500,-604 642,-604 642,-570 500,-570"/>
<text text-anchor="start" x="508" y="-590" style="font-family:Arial;font-size:10.00;">S2Sim/SocketLibrary</text>
<text text-anchor="middle" x="571" y="-577" style="font-family:Arial;font-size:10.00;">/TCPConnectedClient.h</text>
</a>
</g>
<!-- Node1&#45;&gt;Node6 -->
<g id="edge10" class="edge"><title>Node1&#45;&gt;Node6</title>
<path style="fill:none;stroke:midnightblue;" d="M611,-632C603,-623 594,-613 586,-604"/>
<polygon style="fill:midnightblue;stroke:midnightblue;" points="608.781,-634.779 618,-640 614.049,-630.169 608.781,-634.779"/>
</g>
<!-- Node20 -->
<g id="node53" class="node"><title>Node20</title>
<a xlink:href="_t_c_p_server_8h.html" target="_top" xlink:title="Defines the TCPServer class. ">
<polygon style="fill:white;stroke:black;" points="807,-430 807,-464 934,-464 934,-430 807,-430"/>
<text text-anchor="start" x="815" y="-450" style="font-family:Arial;font-size:10.00;">S2Sim/SocketLibrary</text>
<text text-anchor="middle" x="870" y="-437" style="font-family:Arial;font-size:10.00;">/TCPServer.h</text>
</a>
</g>
<!-- Node1&#45;&gt;Node20 -->
<g id="edge84" class="edge"><title>Node1&#45;&gt;Node20</title>
<path style="fill:none;stroke:midnightblue;" d="M644,-631C661,-590 694,-518 715,-500 729,-488 770,-474 807,-463"/>
<polygon style="fill:midnightblue;stroke:midnightblue;" points="640.863,-629.44 640,-640 647.26,-632.283 640.863,-629.44"/>
</g>
<!-- Node25 -->
<g id="node68" class="node"><title>Node25</title>
<a xlink:href="_u_d_p_socket_8h.html" target="_top" xlink:title="Defines the UDPSocket class. ">
<polygon style="fill:white;stroke:black;" points="724,-570 724,-604 851,-604 851,-570 724,-570"/>
<text text-anchor="start" x="732" y="-590" style="font-family:Arial;font-size:10.00;">S2Sim/SocketLibrary</text>
<text text-anchor="middle" x="787" y="-577" style="font-family:Arial;font-size:10.00;">/UDPSocket.h</text>
</a>
</g>
<!-- Node1&#45;&gt;Node25 -->
<g id="edge86" class="edge"><title>Node1&#45;&gt;Node25</title>
<path style="fill:none;stroke:midnightblue;" d="M680,-636C702,-626 728,-614 749,-604"/>
<polygon style="fill:midnightblue;stroke:midnightblue;" points="678.717,-632.74 671,-640 681.56,-639.137 678.717,-632.74"/>
</g>
<!-- Node3 -->
<g id="node5" class="node"><title>Node3</title>
<a xlink:href="_t_c_p_client_8cpp.html" target="_top" xlink:title="Implements the TCPClient class. ">
<polygon style="fill:white;stroke:black;" points="0,-500 0,-534 127,-534 127,-500 0,-500"/>
<text text-anchor="start" x="8" y="-520" style="font-family:Arial;font-size:10.00;">S2Sim/SocketLibrary</text>
<text text-anchor="middle" x="63" y="-507" style="font-family:Arial;font-size:10.00;">/TCPClient.cpp</text>
</a>
</g>
<!-- Node2&#45;&gt;Node3 -->
<g id="edge4" class="edge"><title>Node2&#45;&gt;Node3</title>
<path style="fill:none;stroke:midnightblue;" d="M166,-566C144,-555 119,-544 99,-534"/>
<polygon style="fill:midnightblue;stroke:midnightblue;" points="164.44,-569.137 175,-570 167.283,-562.74 164.44,-569.137"/>
</g>
<!-- Node4 -->
<g id="node7" class="node"><title>Node4</title>
<a xlink:href="_threaded_t_c_p_client_8h.html" target="_top" xlink:title="Defines the ThreadedTCPClient class. ">
<polygon style="fill:white;stroke:black;" points="144,-500 144,-534 279,-534 279,-500 144,-500"/>
<text text-anchor="start" x="152" y="-520" style="font-family:Arial;font-size:10.00;">S2Sim/SocketLibrary</text>
<text text-anchor="middle" x="211" y="-507" style="font-family:Arial;font-size:10.00;">/ThreadedTCPClient.h</text>
</a>
</g>
<!-- Node2&#45;&gt;Node4 -->
<g id="edge6" class="edge"><title>Node2&#45;&gt;Node4</title>
<path style="fill:none;stroke:midnightblue;" d="M211,-560C211,-551 211,-542 211,-534"/>
<polygon style="fill:midnightblue;stroke:midnightblue;" points="207.5,-560 211,-570 214.5,-560 207.5,-560"/>
</g>
<!-- Node5 -->
<g id="node9" class="node"><title>Node5</title>
<a xlink:href="_threaded_t_c_p_client_8cpp.html" target="_top" xlink:title="Implements the ThreadedTCPClient class. ">
<polygon style="fill:white;stroke:black;" points="111,-430 111,-464 259,-464 259,-430 111,-430"/>
<text text-anchor="start" x="119" y="-450" style="font-family:Arial;font-size:10.00;">S2Sim/SocketLibrary</text>
<text text-anchor="middle" x="185" y="-437" style="font-family:Arial;font-size:10.00;">/ThreadedTCPClient.cpp</text>
</a>
</g>
<!-- Node4&#45;&gt;Node5 -->
<g id="edge8" class="edge"><title>Node4&#45;&gt;Node5</title>
<path style="fill:none;stroke:midnightblue;" d="M202,-490C198,-482 195,-472 191,-464"/>
<polygon style="fill:midnightblue;stroke:midnightblue;" points="198.774,-491.427 205,-500 205.479,-489.416 198.774,-491.427"/>
</g>
<!-- Node7 -->
<g id="node13" class="node"><title>Node7</title>
<a xlink:href="_t_c_p_connected_client_8cpp.html" target="_top" xlink:title="Implements the TCPConnectedClient class. ">
<polygon style="fill:white;stroke:black;" points="302,-500 302,-534 457,-534 457,-500 302,-500"/>
<text text-anchor="start" x="310" y="-520" style="font-family:Arial;font-size:10.00;">S2Sim/SocketLibrary</text>
<text text-anchor="middle" x="379" y="-507" style="font-family:Arial;font-size:10.00;">/TCPConnectedClient.cpp</text>
</a>
</g>
<!-- Node6&#45;&gt;Node7 -->
<g id="edge12" class="edge"><title>Node6&#45;&gt;Node7</title>
<path style="fill:none;stroke:midnightblue;" d="M514,-566C486,-556 453,-544 426,-534"/>
<polygon style="fill:midnightblue;stroke:midnightblue;" points="513.415,-569.536 524,-570 516.015,-563.036 513.415,-569.536"/>
</g>
<!-- Node8 -->
<g id="node15" class="node"><title>Node8</title>
<a xlink:href="_threaded_t_c_p_connected_client_8h.html" target="_top" xlink:title="Defeines the ThreadedTCPConnectedClient class. ">
<polygon style="fill:white;stroke:black;" points="474,-500 474,-534 669,-534 669,-500 474,-500"/>
<text text-anchor="start" x="482" y="-520" style="font-family:Arial;font-size:10.00;">S2Sim/SocketLibrary</text>
<text text-anchor="middle" x="571" y="-507" style="font-family:Arial;font-size:10.00;">/ThreadedTCPConnectedClient.h</text>
</a>
</g>
<!-- Node6&#45;&gt;Node8 -->
<g id="edge14" class="edge"><title>Node6&#45;&gt;Node8</title>
<path style="fill:none;stroke:midnightblue;" d="M571,-560C571,-551 571,-542 571,-534"/>
<polygon style="fill:midnightblue;stroke:midnightblue;" points="567.5,-560 571,-570 574.5,-560 567.5,-560"/>
</g>
<!-- Node9 -->
<g id="node17" class="node"><title>Node9</title>
<a xlink:href="_connection_manager_8h.html" target="_top" xlink:title="This file defines the ConnectionManager class. ">
<polygon style="fill:white;stroke:black;" points="597,-296 597,-317 771,-317 771,-296 597,-296"/>
<text text-anchor="middle" x="684" y="-303" style="font-family:Arial;font-size:10.00;">S2Sim/ConnectionManager.h</text>
</a>
</g>
<!-- Node8&#45;&gt;Node9 -->
<g id="edge16" class="edge"><title>Node8&#45;&gt;Node9</title>
<path style="fill:none;stroke:midnightblue;" d="M646,-496C661,-488 675,-478 684,-464 714,-417 696,-344 687,-317"/>
<polygon style="fill:midnightblue;stroke:midnightblue;" points="644.717,-492.74 637,-500 647.56,-499.137 644.717,-492.74"/>
</g>
<!-- Node10 -->
<g id="node19" class="node"><title>Node10</title>
<a xlink:href="_client_manager_8h.html" target="_top" xlink:title="Header file for the ClientManager class. ">
<polygon style="fill:white;stroke:black;" points="769,-232 769,-253 912,-253 912,-232 769,-232"/>
<text text-anchor="middle" x="840" y="-239" style="font-family:Arial;font-size:10.00;">S2Sim/ClientManager.h</text>
</a>
</g>
<!-- Node8&#45;&gt;Node10 -->
<g id="edge64" class="edge"><title>Node8&#45;&gt;Node10</title>
<path style="fill:none;stroke:midnightblue;" d="M644,-496C664,-489 685,-478 702,-464 776,-401 823,-288 836,-253"/>
<polygon style="fill:midnightblue;stroke:midnightblue;" points="642.717,-492.74 635,-500 645.56,-499.137 642.717,-492.74"/>
</g>
<!-- Node13 -->
<g id="node26" class="node"><title>Node13</title>
<a xlink:href="_matlab_manager_8h.html" target="_top" xlink:title="Defines the MatlabManager class. ">
<polygon style="fill:white;stroke:black;" points="483,-58 483,-79 631,-79 631,-58 483,-58"/>
<text text-anchor="middle" x="557" y="-65" style="font-family:Arial;font-size:10.00;">S2Sim/MatlabManager.h</text>
</a>
</g>
<!-- Node8&#45;&gt;Node13 -->
<g id="edge60" class="edge"><title>Node8&#45;&gt;Node13</title>
<path style="fill:none;stroke:midnightblue;" d="M499,-497C416,-471 287,-424 287,-377 287,-377 287,-377 287,-185 287,-134 332,-138 377,-116 414,-98 458,-86 493,-79"/>
<polygon style="fill:midnightblue;stroke:midnightblue;" points="498.416,-500.479 509,-500 500.427,-493.774 498.416,-500.479"/>
</g>
<!-- Node14 -->
<g id="node30" class="node"><title>Node14</title>
<a xlink:href="_control_manager_8h.html" target="_top" xlink:title="This file defines the ControlManager class. ">
<polygon style="fill:white;stroke:black;" points="443,-174 443,-195 594,-195 594,-174 443,-174"/>
<text text-anchor="middle" x="518" y="-181" style="font-family:Arial;font-size:10.00;">S2Sim/ControlManager.h</text>
</a>
</g>
<!-- Node8&#45;&gt;Node14 -->
<g id="edge62" class="edge"><title>Node8&#45;&gt;Node14</title>
<path style="fill:none;stroke:midnightblue;" d="M500,-496C482,-488 463,-478 449,-464 400,-416 398,-391 382,-324 379,-309 376,-303 382,-290 406,-242 462,-210 494,-195"/>
<polygon style="fill:midnightblue;stroke:midnightblue;" points="498.44,-499.137 509,-500 501.283,-492.74 498.44,-499.137"/>
</g>
<!-- Node8&#45;&gt;Node20 -->
<g id="edge66" class="edge"><title>Node8&#45;&gt;Node20</title>
<path style="fill:none;stroke:midnightblue;" d="M654,-498C702,-486 762,-472 807,-462"/>
<polygon style="fill:midnightblue;stroke:midnightblue;" points="653.119,-494.607 644,-500 654.492,-501.471 653.119,-494.607"/>
</g>
<!-- Node22 -->
<g id="node57" class="node"><title>Node22</title>
<a xlink:href="_threaded_t_c_p_server_8h.html" target="_top" xlink:title="Defines the ThreadedTCPServer class. ">
<polygon style="fill:white;stroke:black;" points="448,-360 448,-394 586,-394 586,-360 448,-360"/>
<text text-anchor="start" x="456" y="-380" style="font-family:Arial;font-size:10.00;">S2Sim/SocketLibrary</text>
<text text-anchor="middle" x="517" y="-367" style="font-family:Arial;font-size:10.00;">/ThreadedTCPServer.h</text>
</a>
</g>
<!-- Node8&#45;&gt;Node22 -->
<g id="edge82" class="edge"><title>Node8&#45;&gt;Node22</title>
<path style="fill:none;stroke:midnightblue;" d="M496,-496C481,-488 467,-478 458,-464 450,-451 452,-443 458,-430 465,-415 477,-403 489,-394"/>
<polygon style="fill:midnightblue;stroke:midnightblue;" points="494.44,-499.137 505,-500 497.283,-492.74 494.44,-499.137"/>
</g>
<!-- Node24 -->
<g id="node64" class="node"><title>Node24</title>
<a xlink:href="_threaded_t_c_p_connected_client_8cpp.html" target="_top" xlink:title="Implements the ThreadedTCPConnectedClient class. ">
<polygon style="fill:white;stroke:black;" points="467,-430 467,-464 675,-464 675,-430 467,-430"/>
<text text-anchor="start" x="475" y="-450" style="font-family:Arial;font-size:10.00;">S2Sim/SocketLibrary</text>
<text text-anchor="middle" x="571" y="-437" style="font-family:Arial;font-size:10.00;">/ThreadedTCPConnectedClient.cpp</text>
</a>
</g>
<!-- Node8&#45;&gt;Node24 -->
<g id="edge80" class="edge"><title>Node8&#45;&gt;Node24</title>
<path style="fill:none;stroke:midnightblue;" d="M571,-490C571,-481 571,-472 571,-464"/>
<polygon style="fill:midnightblue;stroke:midnightblue;" points="567.5,-490 571,-500 574.5,-490 567.5,-490"/>
</g>
<!-- Node9&#45;&gt;Node10 -->
<g id="edge18" class="edge"><title>Node9&#45;&gt;Node10</title>
<path style="fill:none;stroke:midnightblue;" d="M715,-292C743,-280 783,-264 810,-253"/>
<polygon style="fill:midnightblue;stroke:midnightblue;" points="713.717,-288.74 706,-296 716.56,-295.137 713.717,-288.74"/>
</g>
<!-- Node9&#45;&gt;Node14 -->
<g id="edge54" class="edge"><title>Node9&#45;&gt;Node14</title>
<path style="fill:none;stroke:midnightblue;" d="M627,-293C603,-285 576,-272 556,-254 537,-237 526,-210 521,-195"/>
<polygon style="fill:midnightblue;stroke:midnightblue;" points="626.416,-296.479 637,-296 628.427,-289.774 626.416,-296.479"/>
</g>
<!-- Node16 -->
<g id="node35" class="node"><title>Node16</title>
<a xlink:href="main_8cpp.html" target="_top" xlink:title="Main file that starts an infinite running loop on the SystemManager::AdvanceTimeStep method...">
<polygon style="fill:white;stroke:black;" points="741,-0 741,-21 845,-21 845,-0 741,-0"/>
<text text-anchor="middle" x="793" y="-7" style="font-family:Arial;font-size:10.00;">S2Sim/main.cpp</text>
</a>
</g>
<!-- Node9&#45;&gt;Node16 -->
<g id="edge58" class="edge"><title>Node9&#45;&gt;Node16</title>
<path style="fill:none;stroke:midnightblue;" d="M763,-294C821,-284 894,-269 920,-254 955,-233 983,-226 983,-185 983,-185 983,-185 983,-127 983,-62 901,-32 845,-20"/>
<polygon style="fill:midnightblue;stroke:midnightblue;" points="762.119,-290.607 753,-296 763.492,-297.471 762.119,-290.607"/>
</g>
<!-- Node19 -->
<g id="node47" class="node"><title>Node19</title>
<a xlink:href="_connection_manager_8cpp.html" target="_top" xlink:title="This file implements the ConnectionManager class. ">
<polygon style="fill:white;stroke:black;" points="565,-232 565,-253 752,-253 752,-232 565,-232"/>
<text text-anchor="middle" x="658" y="-239" style="font-family:Arial;font-size:10.00;">S2Sim/ConnectionManager.cpp</text>
</a>
</g>
<!-- Node9&#45;&gt;Node19 -->
<g id="edge56" class="edge"><title>Node9&#45;&gt;Node19</title>
<path style="fill:none;stroke:midnightblue;" d="M675,-287C671,-275 666,-262 662,-253"/>
<polygon style="fill:midnightblue;stroke:midnightblue;" points="671.74,-288.283 679,-296 678.137,-285.44 671.74,-288.283"/>
</g>
<!-- Node10&#45;&gt;Node9 -->
<g id="edge22" class="edge"><title>Node10&#45;&gt;Node9</title>
<path style="fill:none;stroke:midnightblue;" d="M812,-257C785,-269 745,-285 716,-296"/>
<polygon style="fill:midnightblue;stroke:midnightblue;" points="813.283,-260.26 821,-253 810.44,-253.863 813.283,-260.26"/>
</g>
<!-- Node11 -->
<g id="node21" class="node"><title>Node11</title>
<a xlink:href="_client_manager_8cpp.html" target="_top" xlink:title="Source file for the ClientManager class. ">
<polygon style="fill:white;stroke:black;" points="799,-174 799,-195 955,-195 955,-174 799,-174"/>
<text text-anchor="middle" x="877" y="-181" style="font-family:Arial;font-size:10.00;">S2Sim/ClientManager.cpp</text>
</a>
</g>
<!-- Node10&#45;&gt;Node11 -->
<g id="edge20" class="edge"><title>Node10&#45;&gt;Node11</title>
<path style="fill:none;stroke:midnightblue;" d="M853,-223C859,-214 866,-203 871,-195"/>
<polygon style="fill:midnightblue;stroke:midnightblue;" points="849.635,-221.738 847,-232 855.459,-225.621 849.635,-221.738"/>
</g>
<!-- Node12 -->
<g id="node24" class="node"><title>Node12</title>
<a xlink:href="_system_manager_8h.html" target="_top" xlink:title="Defines the SystemManager class. ">
<polygon style="fill:white;stroke:black;" points="687,-116 687,-137 838,-137 838,-116 687,-116"/>
<text text-anchor="middle" x="762" y="-123" style="font-family:Arial;font-size:10.00;">S2Sim/SystemManager.h</text>
</a>
</g>
<!-- Node10&#45;&gt;Node12 -->
<g id="edge24" class="edge"><title>Node10&#45;&gt;Node12</title>
<path style="fill:none;stroke:midnightblue;" d="M810,-226C799,-217 789,-207 781,-196 768,-177 760,-151 759,-137"/>
<polygon style="fill:midnightblue;stroke:midnightblue;" points="807.9,-228.8 818,-232 812.1,-223.2 807.9,-228.8"/>
</g>
<!-- Node10&#45;&gt;Node14 -->
<g id="edge52" class="edge"><title>Node10&#45;&gt;Node14</title>
<path style="fill:none;stroke:midnightblue;" d="M769,-230C710,-219 628,-204 574,-195"/>
<polygon style="fill:midnightblue;stroke:midnightblue;" points="768.508,-233.471 779,-232 769.881,-226.607 768.508,-233.471"/>
</g>
<!-- Node12&#45;&gt;Node10 -->
<g id="edge46" class="edge"><title>Node12&#45;&gt;Node10</title>
<path style="fill:none;stroke:midnightblue;" d="M775,-146C781,-161 789,-181 799,-196 809,-210 823,-223 833,-232"/>
<polygon style="fill:midnightblue;stroke:midnightblue;" points="778.26,-144.717 771,-137 771.863,-147.56 778.26,-144.717"/>
</g>
<!-- Node12&#45;&gt;Node13 -->
<g id="edge26" class="edge"><title>Node12&#45;&gt;Node13</title>
<path style="fill:none;stroke:midnightblue;" d="M708,-113C669,-103 619,-88 587,-79"/>
<polygon style="fill:midnightblue;stroke:midnightblue;" points="707.416,-116.479 718,-116 709.427,-109.774 707.416,-116.479"/>
</g>
<!-- Node12&#45;&gt;Node14 -->
<g id="edge44" class="edge"><title>Node12&#45;&gt;Node14</title>
<path style="fill:none;stroke:midnightblue;" d="M715,-139C674,-149 613,-164 570,-174"/>
<polygon style="fill:midnightblue;stroke:midnightblue;" points="715.881,-142.393 725,-137 714.508,-135.529 715.881,-142.393"/>
</g>
<!-- Node12&#45;&gt;Node16 -->
<g id="edge48" class="edge"><title>Node12&#45;&gt;Node16</title>
<path style="fill:none;stroke:midnightblue;" d="M818,-112C835,-105 851,-95 860,-80 875,-56 841,-33 816,-21"/>
<polygon style="fill:midnightblue;stroke:midnightblue;" points="816.717,-108.74 809,-116 819.56,-115.137 816.717,-108.74"/>
</g>
<!-- Node18 -->
<g id="node43" class="node"><title>Node18</title>
<a xlink:href="_system_manager_8cpp.html" target="_top" xlink:title="Implements the SystemManager class. ">
<polygon style="fill:white;stroke:black;" points="687,-58 687,-79 851,-79 851,-58 687,-58"/>
<text text-anchor="middle" x="769" y="-65" style="font-family:Arial;font-size:10.00;">S2Sim/SystemManager.cpp</text>
</a>
</g>
<!-- Node12&#45;&gt;Node18 -->
<g id="edge50" class="edge"><title>Node12&#45;&gt;Node18</title>
<path style="fill:none;stroke:midnightblue;" d="M764,-106C765,-96 767,-86 768,-79"/>
<polygon style="fill:midnightblue;stroke:midnightblue;" points="760.512,-105.701 763,-116 767.478,-106.398 760.512,-105.701"/>
</g>
<!-- Node13&#45;&gt;Node10 -->
<g id="edge28" class="edge"><title>Node13&#45;&gt;Node10</title>
<path style="fill:none;stroke:midnightblue;" d="M583,-84C638,-119 773,-202 822,-232"/>
<polygon style="fill:midnightblue;stroke:midnightblue;" points="584.441,-80.7969 574,-79 581.042,-86.916 584.441,-80.7969"/>
</g>
<!-- Node13&#45;&gt;Node12 -->
<g id="edge30" class="edge"><title>Node13&#45;&gt;Node12</title>
<path style="fill:none;stroke:midnightblue;" d="M608,-82C645,-92 696,-106 728,-116"/>
<polygon style="fill:midnightblue;stroke:midnightblue;" points="608.584,-78.5212 598,-79 606.573,-85.2259 608.584,-78.5212"/>
</g>
<!-- Node13&#45;&gt;Node14 -->
<g id="edge32" class="edge"><title>Node13&#45;&gt;Node14</title>
<path style="fill:none;stroke:midnightblue;" d="M499,-81C466,-90 430,-102 420,-116 402,-142 443,-162 477,-174"/>
<polygon style="fill:midnightblue;stroke:midnightblue;" points="499.881,-84.3933 509,-79 498.508,-77.5292 499.881,-84.3933"/>
</g>
<!-- Node13&#45;&gt;Node16 -->
<g id="edge40" class="edge"><title>Node13&#45;&gt;Node16</title>
<path style="fill:none;stroke:midnightblue;" d="M612,-55C655,-45 713,-30 752,-21"/>
<polygon style="fill:midnightblue;stroke:midnightblue;" points="610.573,-51.7741 602,-58 612.584,-58.4788 610.573,-51.7741"/>
</g>
<!-- Node17 -->
<g id="node38" class="node"><title>Node17</title>
<a xlink:href="_matlab_manager_8cpp.html" target="_top" xlink:title="Implements the MatlabManager class. ">
<polygon style="fill:white;stroke:black;" points="477,-0 477,-21 638,-21 638,-0 477,-0"/>
<text text-anchor="middle" x="557" y="-7" style="font-family:Arial;font-size:10.00;">S2Sim/MatlabManager.cpp</text>
</a>
</g>
<!-- Node13&#45;&gt;Node17 -->
<g id="edge42" class="edge"><title>Node13&#45;&gt;Node17</title>
<path style="fill:none;stroke:midnightblue;" d="M557,-48C557,-38 557,-28 557,-21"/>
<polygon style="fill:midnightblue;stroke:midnightblue;" points="553.5,-48 557,-58 560.5,-48 553.5,-48"/>
</g>
<!-- Node14&#45;&gt;Node12 -->
<g id="edge34" class="edge"><title>Node14&#45;&gt;Node12</title>
<path style="fill:none;stroke:midnightblue;" d="M569,-171C612,-161 672,-146 715,-137"/>
<polygon style="fill:midnightblue;stroke:midnightblue;" points="567.573,-167.774 559,-174 569.584,-174.479 567.573,-167.774"/>
</g>
<!-- Node15 -->
<g id="node33" class="node"><title>Node15</title>
<a xlink:href="_control_manager_8cpp.html" target="_top" xlink:title="This file implements the ControlManager class. ">
<polygon style="fill:white;stroke:black;" points="429,-116 429,-137 593,-137 593,-116 429,-116"/>
<text text-anchor="middle" x="511" y="-123" style="font-family:Arial;font-size:10.00;">S2Sim/ControlManager.cpp</text>
</a>
</g>
<!-- Node14&#45;&gt;Node15 -->
<g id="edge36" class="edge"><title>Node14&#45;&gt;Node15</title>
<path style="fill:none;stroke:midnightblue;" d="M516,-164C515,-154 513,-144 512,-137"/>
<polygon style="fill:midnightblue;stroke:midnightblue;" points="512.522,-164.398 517,-174 519.488,-163.701 512.522,-164.398"/>
</g>
<!-- Node14&#45;&gt;Node16 -->
<g id="edge38" class="edge"><title>Node14&#45;&gt;Node16</title>
<path style="fill:none;stroke:midnightblue;" d="M551,-169C567,-161 586,-150 602,-138 640,-107 637,-85 678,-58 702,-41 733,-29 757,-21"/>
<polygon style="fill:midnightblue;stroke:midnightblue;" points="549.042,-166.084 542,-174 552.441,-172.203 549.042,-166.084"/>
</g>
<!-- Node21 -->
<g id="node55" class="node"><title>Node21</title>
<a xlink:href="_t_c_p_server_8cpp.html" target="_top" xlink:title="Implements the TCPServer class. ">
<polygon style="fill:white;stroke:black;" points="807,-360 807,-394 934,-394 934,-360 807,-360"/>
<text text-anchor="start" x="815" y="-380" style="font-family:Arial;font-size:10.00;">S2Sim/SocketLibrary</text>
<text text-anchor="middle" x="870" y="-367" style="font-family:Arial;font-size:10.00;">/TCPServer.cpp</text>
</a>
</g>
<!-- Node20&#45;&gt;Node21 -->
<g id="edge68" class="edge"><title>Node20&#45;&gt;Node21</title>
<path style="fill:none;stroke:midnightblue;" d="M870,-420C870,-411 870,-402 870,-394"/>
<polygon style="fill:midnightblue;stroke:midnightblue;" points="866.5,-420 870,-430 873.5,-420 866.5,-420"/>
</g>
<!-- Node20&#45;&gt;Node22 -->
<g id="edge70" class="edge"><title>Node20&#45;&gt;Node22</title>
<path style="fill:none;stroke:midnightblue;" d="M797,-432C735,-420 647,-402 586,-391"/>
<polygon style="fill:midnightblue;stroke:midnightblue;" points="796.508,-435.471 807,-434 797.881,-428.607 796.508,-435.471"/>
</g>
<!-- Node22&#45;&gt;Node9 -->
<g id="edge72" class="edge"><title>Node22&#45;&gt;Node9</title>
<path style="fill:none;stroke:midnightblue;" d="M567,-356C598,-343 636,-327 660,-317"/>
<polygon style="fill:midnightblue;stroke:midnightblue;" points="565.717,-352.74 558,-360 568.56,-359.137 565.717,-352.74"/>
</g>
<!-- Node22&#45;&gt;Node13 -->
<g id="edge74" class="edge"><title>Node22&#45;&gt;Node13</title>
<path style="fill:none;stroke:midnightblue;" d="M438,-360C418,-352 397,-340 382,-324 358,-296 363,-279 363,-243 363,-243 363,-243 363,-185 363,-122 439,-92 496,-79"/>
<polygon style="fill:midnightblue;stroke:midnightblue;" points="437.416,-363.479 448,-363 439.427,-356.774 437.416,-363.479"/>
</g>
<!-- Node22&#45;&gt;Node14 -->
<g id="edge76" class="edge"><title>Node22&#45;&gt;Node14</title>
<path style="fill:none;stroke:midnightblue;" d="M537,-351C542,-343 547,-334 550,-324 554,-309 553,-304 550,-290 546,-272 539,-270 534,-254 527,-234 522,-209 520,-195"/>
<polygon style="fill:midnightblue;stroke:midnightblue;" points="533.635,-349.738 531,-360 539.459,-353.621 533.635,-349.738"/>
</g>
<!-- Node23 -->
<g id="node62" class="node"><title>Node23</title>
<a xlink:href="_threaded_t_c_p_server_8cpp.html" target="_top" xlink:title="Implements the ThreadedTCPServer class. ">
<polygon style="fill:white;stroke:black;" points="391,-290 391,-324 542,-324 542,-290 391,-290"/>
<text text-anchor="start" x="399" y="-310" style="font-family:Arial;font-size:10.00;">S2Sim/SocketLibrary</text>
<text text-anchor="middle" x="466" y="-297" style="font-family:Arial;font-size:10.00;">/ThreadedTCPServer.cpp</text>
</a>
</g>
<!-- Node22&#45;&gt;Node23 -->
<g id="edge78" class="edge"><title>Node22&#45;&gt;Node23</title>
<path style="fill:none;stroke:midnightblue;" d="M498,-352C491,-343 484,-332 478,-324"/>
<polygon style="fill:midnightblue;stroke:midnightblue;" points="495.2,-354.1 504,-360 500.8,-349.9 495.2,-354.1"/>
</g>
<!-- Node26 -->
<g id="node70" class="node"><title>Node26</title>
<a xlink:href="_u_d_p_socket_8cpp.html" target="_top" xlink:title="Implements the UDPSocket class. ">
<polygon style="fill:white;stroke:black;" points="724,-500 724,-534 851,-534 851,-500 724,-500"/>
<text text-anchor="start" x="732" y="-520" style="font-family:Arial;font-size:10.00;">S2Sim/SocketLibrary</text>
<text text-anchor="middle" x="787" y="-507" style="font-family:Arial;font-size:10.00;">/UDPSocket.cpp</text>
</a>
</g>
<!-- Node25&#45;&gt;Node26 -->
<g id="edge88" class="edge"><title>Node25&#45;&gt;Node26</title>
<path style="fill:none;stroke:midnightblue;" d="M787,-560C787,-551 787,-542 787,-534"/>
<polygon style="fill:midnightblue;stroke:midnightblue;" points="783.5,-560 787,-570 790.5,-560 783.5,-560"/>
</g>
</g>
</svg>
