<?xml version="1.0" encoding="UTF-8" standalone="no"?>
<!DOCTYPE svg PUBLIC "-//W3C//DTD SVG 1.0//EN"
 "http://www.w3.org/TR/2001/REC-SVG-20010904/DTD/svg10.dtd" [
 <!ATTLIST svg xmlns:xlink CDATA #FIXED "http://www.w3.org/1999/xlink">
]>
<!-- Generated by Graphviz version 2.14.1 (Fri Nov  9 08:19:38 GMT 2007)
     For user: (asakyurek) Alper Sinan Akyurek -->
<!-- Title: S2Sim/SystemManager.h Pages: 1 -->
<svg width="827pt" height="320pt"
 viewBox="0.00 0.00 827.00 320.00" xmlns="http://www.w3.org/2000/svg" xmlns:xlink="http://www.w3.org/1999/xlink">
<g id="graph0" class="graph" transform="scale(1 1) rotate(0) translate(4 316)">
<title>S2Sim/SystemManager.h</title>
<polygon style="fill:white;stroke:white;" points="-4,4 -4,-316 823,-316 823,4 -4,4"/>
<!-- Node1 -->
<g id="node1" class="node"><title>Node1</title>
<polygon style="fill:#bfbfbf;stroke:black;" points="266,-290 266,-311 417,-311 417,-290 266,-290"/>
<text text-anchor="middle" x="341" y="-297" style="font-family:Arial;font-size:10.00;">S2Sim/SystemManager.h</text>
</g>
<!-- Node2 -->
<g id="node3" class="node"><title>Node2</title>
<a xlink:href="_matlab_manager_8h.html" target="_top" xlink:title="Defines the MatlabManager class. ">
<polygon style="fill:white;stroke:black;" points="212,-232 212,-253 360,-253 360,-232 212,-232"/>
<text text-anchor="middle" x="286" y="-239" style="font-family:Arial;font-size:10.00;">S2Sim/MatlabManager.h</text>
</a>
</g>
<!-- Node1&#45;&gt;Node2 -->
<g id="edge2" class="edge"><title>Node1&#45;&gt;Node2</title>
<path style="fill:none;stroke:midnightblue;" d="M318,-283C307,-273 296,-261 290,-253"/>
<polygon style="fill:midnightblue;stroke:midnightblue;" points="315.454,-285.404 325,-290 320.404,-280.454 315.454,-285.404"/>
</g>
<!-- Node3 -->
<g id="node5" class="node"><title>Node3</title>
<a xlink:href="_client_manager_8h.html" target="_top" xlink:title="Header file for the ClientManager class. ">
<polygon style="fill:white;stroke:black;" points="326,-174 326,-195 469,-195 469,-174 326,-174"/>
<text text-anchor="middle" x="397" y="-181" style="font-family:Arial;font-size:10.00;">S2Sim/ClientManager.h</text>
</a>
</g>
<!-- Node1&#45;&gt;Node3 -->
<g id="edge38" class="edge"><title>Node1&#45;&gt;Node3</title>
<path style="fill:none;stroke:midnightblue;" d="M345,-281C350,-272 356,-263 360,-254 370,-234 379,-209 387,-195"/>
<polygon style="fill:midnightblue;stroke:midnightblue;" points="341.863,-279.44 341,-290 348.26,-282.283 341.863,-279.44"/>
</g>
<!-- Node6 -->
<g id="node12" class="node"><title>Node6</title>
<a xlink:href="_control_manager_8h.html" target="_top" xlink:title="This file defines the ControlManager class. ">
<polygon style="fill:white;stroke:black;" points="7,-58 7,-79 158,-79 158,-58 7,-58"/>
<text text-anchor="middle" x="82" y="-65" style="font-family:Arial;font-size:10.00;">S2Sim/ControlManager.h</text>
</a>
</g>
<!-- Node1&#45;&gt;Node6 -->
<g id="edge36" class="edge"><title>Node1&#45;&gt;Node6</title>
<path style="fill:none;stroke:midnightblue;" d="M256,-290C196,-277 119,-251 76,-196 49,-161 63,-103 74,-79"/>
<polygon style="fill:midnightblue;stroke:midnightblue;" points="255.508,-293.471 266,-292 256.881,-286.607 255.508,-293.471"/>
</g>
<!-- Node8 -->
<g id="node17" class="node"><title>Node8</title>
<a xlink:href="main_8cpp.html" target="_top" xlink:title="Main file that starts an infinite running loop on the SystemManager::AdvanceTimeStep method...">
<polygon style="fill:white;stroke:black;" points="321,-0 321,-21 425,-21 425,-0 321,-0"/>
<text text-anchor="middle" x="373" y="-7" style="font-family:Arial;font-size:10.00;">S2Sim/main.cpp</text>
</a>
</g>
<!-- Node1&#45;&gt;Node8 -->
<g id="edge40" class="edge"><title>Node1&#45;&gt;Node8</title>
<path style="fill:none;stroke:midnightblue;" d="M408,-288C492,-269 627,-232 627,-185 627,-185 627,-185 627,-127 627,-80 488,-39 416,-21"/>
<polygon style="fill:midnightblue;stroke:midnightblue;" points="407.119,-284.607 398,-290 408.492,-291.471 407.119,-284.607"/>
</g>
<!-- Node11 -->
<g id="node32" class="node"><title>Node11</title>
<a xlink:href="_system_manager_8cpp.html" target="_top" xlink:title="Implements the SystemManager class. ">
<polygon style="fill:white;stroke:black;" points="655,-232 655,-253 819,-253 819,-232 655,-232"/>
<text text-anchor="middle" x="737" y="-239" style="font-family:Arial;font-size:10.00;">S2Sim/SystemManager.cpp</text>
</a>
</g>
<!-- Node1&#45;&gt;Node11 -->
<g id="edge42" class="edge"><title>Node1&#45;&gt;Node11</title>
<path style="fill:none;stroke:midnightblue;" d="M426,-288C499,-278 601,-263 668,-253"/>
<polygon style="fill:midnightblue;stroke:midnightblue;" points="425.119,-284.607 416,-290 426.492,-291.471 425.119,-284.607"/>
</g>
<!-- Node2&#45;&gt;Node1 -->
<g id="edge28" class="edge"><title>Node2&#45;&gt;Node1</title>
<path style="fill:none;stroke:midnightblue;" d="M309,-260C318,-270 330,-281 336,-290"/>
<polygon style="fill:midnightblue;stroke:midnightblue;" points="310.831,-256.951 301,-253 306.221,-262.219 310.831,-256.951"/>
</g>
<!-- Node2&#45;&gt;Node3 -->
<g id="edge4" class="edge"><title>Node2&#45;&gt;Node3</title>
<path style="fill:none;stroke:midnightblue;" d="M316,-227C336,-217 361,-204 378,-195"/>
<polygon style="fill:midnightblue;stroke:midnightblue;" points="314.042,-224.084 307,-232 317.441,-230.203 314.042,-224.084"/>
</g>
<!-- Node2&#45;&gt;Node6 -->
<g id="edge30" class="edge"><title>Node2&#45;&gt;Node6</title>
<path style="fill:none;stroke:midnightblue;" d="M202,-230C160,-223 115,-211 101,-196 71,-162 77,-103 80,-79"/>
<polygon style="fill:midnightblue;stroke:midnightblue;" points="201.508,-233.471 212,-232 202.881,-226.607 201.508,-233.471"/>
</g>
<!-- Node2&#45;&gt;Node8 -->
<g id="edge32" class="edge"><title>Node2&#45;&gt;Node8</title>
<path style="fill:none;stroke:midnightblue;" d="M287,-222C288,-207 286,-188 279,-174 269,-153 250,-159 242,-138 238,-128 238,-125 242,-116 259,-67 314,-36 347,-21"/>
<polygon style="fill:midnightblue;stroke:midnightblue;" points="283.5,-222 287,-232 290.5,-222 283.5,-222"/>
</g>
<!-- Node10 -->
<g id="node27" class="node"><title>Node10</title>
<a xlink:href="_matlab_manager_8cpp.html" target="_top" xlink:title="Implements the MatlabManager class. ">
<polygon style="fill:white;stroke:black;" points="110,-174 110,-195 271,-195 271,-174 110,-174"/>
<text text-anchor="middle" x="190" y="-181" style="font-family:Arial;font-size:10.00;">S2Sim/MatlabManager.cpp</text>
</a>
</g>
<!-- Node2&#45;&gt;Node10 -->
<g id="edge34" class="edge"><title>Node2&#45;&gt;Node10</title>
<path style="fill:none;stroke:midnightblue;" d="M258,-227C242,-216 221,-203 207,-195"/>
<polygon style="fill:midnightblue;stroke:midnightblue;" points="256.559,-230.203 267,-232 259.958,-224.084 256.559,-230.203"/>
</g>
<!-- Node3&#45;&gt;Node1 -->
<g id="edge24" class="edge"><title>Node3&#45;&gt;Node1</title>
<path style="fill:none;stroke:midnightblue;" d="M397,-205C393,-219 386,-238 378,-254 372,-266 363,-280 355,-290"/>
<polygon style="fill:midnightblue;stroke:midnightblue;" points="400.471,-205.492 399,-195 393.607,-204.119 400.471,-205.492"/>
</g>
<!-- Node4 -->
<g id="node7" class="node"><title>Node4</title>
<a xlink:href="_client_manager_8cpp.html" target="_top" xlink:title="Source file for the ClientManager class. ">
<polygon style="fill:white;stroke:black;" points="251,-116 251,-137 407,-137 407,-116 251,-116"/>
<text text-anchor="middle" x="329" y="-123" style="font-family:Arial;font-size:10.00;">S2Sim/ClientManager.cpp</text>
</a>
</g>
<!-- Node3&#45;&gt;Node4 -->
<g id="edge6" class="edge"><title>Node3&#45;&gt;Node4</title>
<path style="fill:none;stroke:midnightblue;" d="M376,-167C364,-157 351,-145 341,-137"/>
<polygon style="fill:midnightblue;stroke:midnightblue;" points="374.169,-170.049 384,-174 378.779,-164.781 374.169,-170.049"/>
</g>
<!-- Node5 -->
<g id="node9" class="node"><title>Node5</title>
<a xlink:href="_connection_manager_8h.html" target="_top" xlink:title="This file defines the ConnectionManager class. ">
<polygon style="fill:white;stroke:black;" points="425,-116 425,-137 599,-137 599,-116 425,-116"/>
<text text-anchor="middle" x="512" y="-123" style="font-family:Arial;font-size:10.00;">S2Sim/ConnectionManager.h</text>
</a>
</g>
<!-- Node3&#45;&gt;Node5 -->
<g id="edge8" class="edge"><title>Node3&#45;&gt;Node5</title>
<path style="fill:none;stroke:midnightblue;" d="M423,-169C442,-159 468,-146 487,-137"/>
<polygon style="fill:midnightblue;stroke:midnightblue;" points="421.042,-166.084 414,-174 424.441,-172.203 421.042,-166.084"/>
</g>
<!-- Node3&#45;&gt;Node6 -->
<g id="edge26" class="edge"><title>Node3&#45;&gt;Node6</title>
<path style="fill:none;stroke:midnightblue;" d="M347,-171C316,-162 276,-151 242,-138 192,-119 134,-93 104,-79"/>
<polygon style="fill:midnightblue;stroke:midnightblue;" points="346.416,-174.479 357,-174 348.427,-167.774 346.416,-174.479"/>
</g>
<!-- Node5&#45;&gt;Node3 -->
<g id="edge10" class="edge"><title>Node5&#45;&gt;Node3</title>
<path style="fill:none;stroke:midnightblue;" d="M488,-142C470,-152 444,-165 424,-174"/>
<polygon style="fill:midnightblue;stroke:midnightblue;" points="489.958,-144.916 497,-137 486.559,-138.797 489.958,-144.916"/>
</g>
<!-- Node5&#45;&gt;Node6 -->
<g id="edge12" class="edge"><title>Node5&#45;&gt;Node6</title>
<path style="fill:none;stroke:midnightblue;" d="M420,-115C342,-104 230,-89 157,-79"/>
<polygon style="fill:midnightblue;stroke:midnightblue;" points="419.701,-118.488 430,-116 420.398,-111.522 419.701,-118.488"/>
</g>
<!-- Node5&#45;&gt;Node8 -->
<g id="edge22" class="edge"><title>Node5&#45;&gt;Node8</title>
<path style="fill:none;stroke:midnightblue;" d="M511,-106C509,-91 505,-71 493,-58 475,-38 449,-27 425,-20"/>
<polygon style="fill:midnightblue;stroke:midnightblue;" points="507.522,-106.398 512,-116 514.488,-105.701 507.522,-106.398"/>
</g>
<!-- Node9 -->
<g id="node19" class="node"><title>Node9</title>
<a xlink:href="_connection_manager_8cpp.html" target="_top" xlink:title="This file implements the ConnectionManager class. ">
<polygon style="fill:white;stroke:black;" points="298,-58 298,-79 485,-79 485,-58 298,-58"/>
<text text-anchor="middle" x="391" y="-65" style="font-family:Arial;font-size:10.00;">S2Sim/ConnectionManager.cpp</text>
</a>
</g>
<!-- Node5&#45;&gt;Node9 -->
<g id="edge20" class="edge"><title>Node5&#45;&gt;Node9</title>
<path style="fill:none;stroke:midnightblue;" d="M480,-112C458,-101 430,-88 412,-79"/>
<polygon style="fill:midnightblue;stroke:midnightblue;" points="478.44,-115.137 489,-116 481.283,-108.74 478.44,-115.137"/>
</g>
<!-- Node6&#45;&gt;Node1 -->
<g id="edge14" class="edge"><title>Node6&#45;&gt;Node1</title>
<path style="fill:none;stroke:midnightblue;" d="M82,-89C78,-117 70,-165 94,-196 137,-251 213,-277 270,-290"/>
<polygon style="fill:midnightblue;stroke:midnightblue;" points="85.4875,-89.2987 83,-79 78.5222,-88.6021 85.4875,-89.2987"/>
</g>
<!-- Node7 -->
<g id="node15" class="node"><title>Node7</title>
<a xlink:href="_control_manager_8cpp.html" target="_top" xlink:title="This file implements the ControlManager class. ">
<polygon style="fill:white;stroke:black;" points="0,-0 0,-21 164,-21 164,-0 0,-0"/>
<text text-anchor="middle" x="82" y="-7" style="font-family:Arial;font-size:10.00;">S2Sim/ControlManager.cpp</text>
</a>
</g>
<!-- Node6&#45;&gt;Node7 -->
<g id="edge16" class="edge"><title>Node6&#45;&gt;Node7</title>
<path style="fill:none;stroke:midnightblue;" d="M82,-48C82,-38 82,-28 82,-21"/>
<polygon style="fill:midnightblue;stroke:midnightblue;" points="78.5001,-48 82,-58 85.5001,-48 78.5001,-48"/>
</g>
<!-- Node6&#45;&gt;Node8 -->
<g id="edge18" class="edge"><title>Node6&#45;&gt;Node8</title>
<path style="fill:none;stroke:midnightblue;" d="M147,-56C201,-45 274,-30 323,-21"/>
<polygon style="fill:midnightblue;stroke:midnightblue;" points="146.119,-52.6067 137,-58 147.492,-59.4708 146.119,-52.6067"/>
</g>
</g>
</svg>
