<?xml version="1.0" encoding="UTF-8" standalone="no"?>
<!DOCTYPE svg PUBLIC "-//W3C//DTD SVG 1.0//EN"
 "http://www.w3.org/TR/2001/REC-SVG-20010904/DTD/svg10.dtd" [
 <!ATTLIST svg xmlns:xlink CDATA #FIXED "http://www.w3.org/1999/xlink">
]>
<!-- Generated by Graphviz version 2.14.1 (Fri Nov  9 08:19:38 GMT 2007)
     For user: (asakyurek) Alper Sinan Akyurek -->
<!-- Title: GetSystemManager Pages: 1 -->
<svg width="1242pt" height="220pt"
 viewBox="0.00 0.00 1242.00 220.00" xmlns="http://www.w3.org/2000/svg" xmlns:xlink="http://www.w3.org/1999/xlink">
<g id="graph0" class="graph" transform="scale(1 1) rotate(0) translate(4 216)">
<title>GetSystemManager</title>
<polygon style="fill:white;stroke:white;" points="-4,4 -4,-216 1238,-216 1238,4 -4,4"/>
<!-- Node1 -->
<g id="node1" class="node"><title>Node1</title>
<polygon style="fill:#bfbfbf;stroke:black;" points="1,-101 1,-122 124,-122 124,-101 1,-101"/>
<text text-anchor="middle" x="62" y="-108" style="font-family:Arial;font-size:10.00;">GetSystemManager</text>
</g>
<!-- Node2 -->
<g id="node3" class="node"><title>Node2</title>
<a xlink:href="class_client_manager.html#a6d544b4d20cd3b906b6a033c8d70e4a5" target="_top" xlink:title="Processes an asynchronous client connection request. ">
<polygon style="fill:white;stroke:black;" points="173,-178 173,-212 347,-212 347,-178 173,-178"/>
<text text-anchor="start" x="181" y="-198" style="font-family:Arial;font-size:10.00;">ClientManager::ProcessClient</text>
<text text-anchor="middle" x="260" y="-185" style="font-family:Arial;font-size:10.00;">ConnectionRequest</text>
</a>
</g>
<!-- Node1&#45;&gt;Node2 -->
<g id="edge2" class="edge"><title>Node1&#45;&gt;Node2</title>
<path style="fill:none;stroke:midnightblue;" d="M85,-128C105,-140 133,-158 160,-169 168,-172 177,-175 186,-178"/>
<polygon style="fill:midnightblue;stroke:midnightblue;" points="87.1,-125.2 77,-122 82.9,-130.8 87.1,-125.2"/>
</g>
<!-- Node4 -->
<g id="node7" class="node"><title>Node4</title>
<a xlink:href="class_client_manager.html#a1dd815fe845945ae8966b3a3f449ba0e" target="_top" xlink:title="Processes the consumption information. ">
<polygon style="fill:white;stroke:black;" points="160,-139 160,-160 360,-160 360,-139 160,-139"/>
<text text-anchor="middle" x="260" y="-146" style="font-family:Arial;font-size:10.00;">ClientManager::ProcessClientData</text>
</a>
</g>
<!-- Node1&#45;&gt;Node4 -->
<g id="edge6" class="edge"><title>Node1&#45;&gt;Node4</title>
<path style="fill:none;stroke:midnightblue;" d="M125,-124C137,-126 149,-129 160,-131 174,-134 189,-136 203,-139"/>
<polygon style="fill:midnightblue;stroke:midnightblue;" points="125.492,-120.529 115,-122 124.119,-127.393 125.492,-120.529"/>
</g>
<!-- Node5 -->
<g id="node10" class="node"><title>Node5</title>
<a xlink:href="class_control_manager.html#a2dc55da1b01fd175b3d885c68b8a7524" target="_top" xlink:title="Processes the received message from the External Controller. ">
<polygon style="fill:white;stroke:black;" points="172,-101 172,-122 348,-122 348,-101 172,-101"/>
<text text-anchor="middle" x="260" y="-108" style="font-family:Arial;font-size:10.00;">ControlManager::ProcessData</text>
</a>
</g>
<!-- Node1&#45;&gt;Node5 -->
<g id="edge10" class="edge"><title>Node1&#45;&gt;Node5</title>
<path style="fill:none;stroke:midnightblue;" d="M134,-112C146,-112 159,-112 172,-112"/>
<polygon style="fill:midnightblue;stroke:midnightblue;" points="134,-108.5 124,-112 134,-115.5 134,-108.5"/>
</g>
<!-- Node10 -->
<g id="node20" class="node"><title>Node10</title>
<a xlink:href="class_control_manager.html#a0d5212df17307aef87d42add3aa6cc7a" target="_top" xlink:title="Starts the decision process by sending necessary information to External Controller. ">
<polygon style="fill:white;stroke:black;" points="168,-63 168,-84 353,-84 353,-63 168,-63"/>
<text text-anchor="middle" x="260" y="-70" style="font-family:Arial;font-size:10.00;">ControlManager::MakeDecision</text>
</a>
</g>
<!-- Node1&#45;&gt;Node10 -->
<g id="edge20" class="edge"><title>Node1&#45;&gt;Node10</title>
<path style="fill:none;stroke:midnightblue;" d="M128,-99C139,-97 150,-95 160,-93 175,-90 191,-87 206,-84"/>
<polygon style="fill:midnightblue;stroke:midnightblue;" points="127.119,-95.6067 118,-101 128.492,-102.471 127.119,-95.6067"/>
</g>
<!-- Node12 -->
<g id="node24" class="node"><title>Node12</title>
<a xlink:href="main_8cpp.html#a3c04138a5bfe5d72780bb7e82a18e627" target="_top" xlink:title="main">
<polygon style="fill:white;stroke:black;" points="700,-44 700,-65 744,-65 744,-44 700,-44"/>
<text text-anchor="middle" x="722" y="-51" style="font-family:Arial;font-size:10.00;">main</text>
</a>
</g>
<!-- Node1&#45;&gt;Node12 -->
<g id="edge26" class="edge"><title>Node1&#45;&gt;Node12</title>
<path style="fill:none;stroke:midnightblue;" d="M84,-95C103,-81 132,-63 160,-55 364,-0 623,-38 700,-51"/>
<polygon style="fill:midnightblue;stroke:midnightblue;" points="81.9,-92.2 76,-101 86.1,-97.8 81.9,-92.2"/>
</g>
<!-- Node3 -->
<g id="node5" class="node"><title>Node3</title>
<a xlink:href="class_client_manager.html#abf05d2ac88337dfd02e0b7986ee1e18c" target="_top" xlink:title="Called when a message is received. ">
<polygon style="fill:white;stroke:black;" points="402,-161 402,-182 601,-182 601,-161 402,-161"/>
<text text-anchor="middle" x="501" y="-168" style="font-family:Arial;font-size:10.00;">ClientManager::MessageReceived</text>
</a>
</g>
<!-- Node2&#45;&gt;Node3 -->
<g id="edge4" class="edge"><title>Node2&#45;&gt;Node3</title>
<path style="fill:none;stroke:midnightblue;" d="M357,-186C372,-184 387,-183 402,-182"/>
<polygon style="fill:midnightblue;stroke:midnightblue;" points="356.602,-182.522 347,-187 357.299,-189.488 356.602,-182.522"/>
</g>
<!-- Node4&#45;&gt;Node3 -->
<g id="edge8" class="edge"><title>Node4&#45;&gt;Node3</title>
<path style="fill:none;stroke:midnightblue;" d="M370,-160C381,-161 391,-162 402,-163"/>
<polygon style="fill:midnightblue;stroke:midnightblue;" points="370.299,-156.512 360,-159 369.602,-163.478 370.299,-156.512"/>
</g>
<!-- Node6 -->
<g id="node12" class="node"><title>Node6</title>
<a xlink:href="_control_manager_8h.html#a295ee31280dd699294f5787580750ce4" target="_top" xlink:title="Wrapper callback method for reception notification. ">
<polygon style="fill:white;stroke:black;" points="430,-101 430,-122 572,-122 572,-101 430,-101"/>
<text text-anchor="middle" x="501" y="-108" style="font-family:Arial;font-size:10.00;">ControlReceiveHandler</text>
</a>
</g>
<!-- Node5&#45;&gt;Node6 -->
<g id="edge12" class="edge"><title>Node5&#45;&gt;Node6</title>
<path style="fill:none;stroke:midnightblue;" d="M358,-112C382,-112 407,-112 430,-112"/>
<polygon style="fill:midnightblue;stroke:midnightblue;" points="358,-108.5 348,-112 358,-115.5 358,-108.5"/>
</g>
<!-- Node7 -->
<g id="node14" class="node"><title>Node7</title>
<a xlink:href="class_control_manager.html#a67d548535b36a78e315a0aa5f9f8e6c8" target="_top" xlink:title="Sets the connection information to the accepted External Controller. ">
<polygon style="fill:white;stroke:black;" points="642,-101 642,-122 802,-122 802,-101 642,-101"/>
<text text-anchor="middle" x="722" y="-108" style="font-family:Arial;font-size:10.00;">ControlManager::SetClient</text>
</a>
</g>
<!-- Node6&#45;&gt;Node7 -->
<g id="edge14" class="edge"><title>Node6&#45;&gt;Node7</title>
<path style="fill:none;stroke:midnightblue;" d="M582,-112C602,-112 623,-112 642,-112"/>
<polygon style="fill:midnightblue;stroke:midnightblue;" points="582,-108.5 572,-112 582,-115.5 582,-108.5"/>
</g>
<!-- Node8 -->
<g id="node16" class="node"><title>Node8</title>
<a xlink:href="_control_manager_8cpp.html#a5f09b25cf454170e17d1aa3c2707273a" target="_top" xlink:title="ControlNotificationHandler">
<polygon style="fill:white;stroke:black;" points="838,-101 838,-122 1000,-122 1000,-101 838,-101"/>
<text text-anchor="middle" x="919" y="-108" style="font-family:Arial;font-size:10.00;">ControlNotificationHandler</text>
</a>
</g>
<!-- Node7&#45;&gt;Node8 -->
<g id="edge16" class="edge"><title>Node7&#45;&gt;Node8</title>
<path style="fill:none;stroke:midnightblue;" d="M812,-112C821,-112 829,-112 838,-112"/>
<polygon style="fill:midnightblue;stroke:midnightblue;" points="812,-108.5 802,-112 812,-115.5 812,-108.5"/>
</g>
<!-- Node9 -->
<g id="node18" class="node"><title>Node9</title>
<a xlink:href="class_control_manager.html#ab81bac3e592705b7ca4b23ce473fe26e" target="_top" xlink:title="Private constructor for singleton implementation. ">
<polygon style="fill:white;stroke:black;" points="1036,-101 1036,-122 1234,-122 1234,-101 1036,-101"/>
<text text-anchor="middle" x="1135" y="-108" style="font-family:Arial;font-size:10.00;">ControlManager::ControlManager</text>
</a>
</g>
<!-- Node8&#45;&gt;Node9 -->
<g id="edge18" class="edge"><title>Node8&#45;&gt;Node9</title>
<path style="fill:none;stroke:midnightblue;" d="M1010,-112C1019,-112 1027,-112 1036,-112"/>
<polygon style="fill:midnightblue;stroke:midnightblue;" points="1010,-108.5 1000,-112 1010,-115.5 1010,-108.5"/>
</g>
<!-- Node11 -->
<g id="node22" class="node"><title>Node11</title>
<a xlink:href="class_system_manager.html#a87443d7e75b0f170535d315c27237253" target="_top" xlink:title="Main time iteration of the system. ">
<polygon style="fill:white;stroke:black;" points="396,-63 396,-84 606,-84 606,-63 396,-63"/>
<text text-anchor="middle" x="501" y="-70" style="font-family:Arial;font-size:10.00;">SystemManager::AdvanceTimeStep</text>
</a>
</g>
<!-- Node10&#45;&gt;Node11 -->
<g id="edge22" class="edge"><title>Node10&#45;&gt;Node11</title>
<path style="fill:none;stroke:midnightblue;" d="M363,-74C374,-74 385,-74 396,-74"/>
<polygon style="fill:midnightblue;stroke:midnightblue;" points="363,-70.5001 353,-74 363,-77.5001 363,-70.5001"/>
</g>
<!-- Node11&#45;&gt;Node12 -->
<g id="edge24" class="edge"><title>Node11&#45;&gt;Node12</title>
<path style="fill:none;stroke:midnightblue;" d="M616,-64C648,-61 680,-59 700,-57"/>
<polygon style="fill:midnightblue;stroke:midnightblue;" points="615.602,-60.5222 606,-65 616.299,-67.4875 615.602,-60.5222"/>
</g>
</g>
</svg>
