<?xml version="1.0" encoding="UTF-8" standalone="no"?>
<!DOCTYPE svg PUBLIC "-//W3C//DTD SVG 1.0//EN"
 "http://www.w3.org/TR/2001/REC-SVG-20010904/DTD/svg10.dtd" [
 <!ATTLIST svg xmlns:xlink CDATA #FIXED "http://www.w3.org/1999/xlink">
]>
<!-- Generated by Graphviz version 2.14.1 (Fri Nov  9 08:19:38 GMT 2007)
     For user: (asakyurek) Alper Sinan Akyurek -->
<!-- Title: S2Sim/SystemManager.cpp Pages: 1 -->
<svg width="1560pt" height="610pt"
 viewBox="0.00 0.00 1560.00 610.00" xmlns="http://www.w3.org/2000/svg" xmlns:xlink="http://www.w3.org/1999/xlink">
<g id="graph0" class="graph" transform="scale(1 1) rotate(0) translate(4 606)">
<title>S2Sim/SystemManager.cpp</title>
<polygon style="fill:white;stroke:white;" points="-4,4 -4,-606 1556,-606 1556,4 -4,4"/>
<!-- Node1 -->
<g id="node1" class="node"><title>Node1</title>
<polygon style="fill:#bfbfbf;stroke:black;" points="1155,-580 1155,-601 1319,-601 1319,-580 1155,-580"/>
<text text-anchor="middle" x="1237" y="-587" style="font-family:Arial;font-size:10.00;">S2Sim/SystemManager.cpp</text>
</g>
<!-- Node2 -->
<g id="node3" class="node"><title>Node2</title>
<a xlink:href="_system_manager_8h.html" target="_top" xlink:title="Defines the SystemManager class. ">
<polygon style="fill:white;stroke:black;" points="1180,-522 1180,-543 1294,-543 1294,-522 1180,-522"/>
<text text-anchor="middle" x="1237" y="-529" style="font-family:Arial;font-size:10.00;">SystemManager.h</text>
</a>
</g>
<!-- Node1&#45;&gt;Node2 -->
<g id="edge2" class="edge"><title>Node1&#45;&gt;Node2</title>
<path style="fill:none;stroke:midnightblue;" d="M1237,-580C1237,-572 1237,-562 1237,-553"/>
<polygon style="fill:midnightblue;stroke:midnightblue;" points="1240.5,-553 1237,-543 1233.5,-553 1240.5,-553"/>
</g>
<!-- Node3 -->
<g id="node5" class="node"><title>Node3</title>
<polygon style="fill:white;stroke:#bfbfbf;" points="471,-174 471,-195 512,-195 512,-174 471,-174"/>
<text text-anchor="middle" x="491" y="-181" style="font-family:Arial;font-size:10.00;">map</text>
</g>
<!-- Node2&#45;&gt;Node3 -->
<g id="edge4" class="edge"><title>Node2&#45;&gt;Node3</title>
<path style="fill:none;stroke:midnightblue;" d="M1180,-531C937,-520 0,-477 0,-417 0,-417 0,-417 0,-301 0,-205 353,-188 461,-185"/>
<polygon style="fill:midnightblue;stroke:midnightblue;" points="461,-188.5 471,-185 461,-181.5 461,-188.5"/>
</g>
<!-- Node4 -->
<g id="node7" class="node"><title>Node4</title>
<a xlink:href="_client_manager_8h.html" target="_top" xlink:title="Header file for the ClientManager class. ">
<polygon style="fill:white;stroke:black;" points="914,-406 914,-427 1020,-427 1020,-406 914,-406"/>
<text text-anchor="middle" x="967" y="-413" style="font-family:Arial;font-size:10.00;">ClientManager.h</text>
</a>
</g>
<!-- Node2&#45;&gt;Node4 -->
<g id="edge6" class="edge"><title>Node2&#45;&gt;Node4</title>
<path style="fill:none;stroke:midnightblue;" d="M1207,-522C1154,-501 1047,-455 996,-431"/>
<polygon style="fill:midnightblue;stroke:midnightblue;" points="997.56,-427.863 987,-427 994.717,-434.26 997.56,-427.863"/>
</g>
<!-- Node28 -->
<g id="node81" class="node"><title>Node28</title>
<a xlink:href="_log_print_8h.html" target="_top" xlink:title="Defines logging related functions. ">
<polygon style="fill:white;stroke:black;" points="1378,-290 1378,-311 1448,-311 1448,-290 1378,-290"/>
<text text-anchor="middle" x="1413" y="-297" style="font-family:Arial;font-size:10.00;">LogPrint.h</text>
</a>
</g>
<!-- Node2&#45;&gt;Node28 -->
<g id="edge152" class="edge"><title>Node2&#45;&gt;Node28</title>
<path style="fill:none;stroke:midnightblue;" d="M1276,-522C1336,-502 1448,-456 1490,-370 1501,-346 1475,-328 1450,-315"/>
<polygon style="fill:midnightblue;stroke:midnightblue;" points="1451.56,-311.863 1441,-311 1448.72,-318.26 1451.56,-311.863"/>
</g>
<!-- Node30 -->
<g id="node88" class="node"><title>Node30</title>
<a xlink:href="_matlab_manager_8h.html" target="_top" xlink:title="Defines the MatlabManager class. ">
<polygon style="fill:white;stroke:black;" points="1371,-348 1371,-369 1482,-369 1482,-348 1371,-348"/>
<text text-anchor="middle" x="1426" y="-355" style="font-family:Arial;font-size:10.00;">MatlabManager.h</text>
</a>
</g>
<!-- Node2&#45;&gt;Node30 -->
<g id="edge134" class="edge"><title>Node2&#45;&gt;Node30</title>
<path style="fill:none;stroke:midnightblue;" d="M1250,-522C1276,-504 1332,-469 1371,-428 1385,-412 1398,-392 1409,-377"/>
<polygon style="fill:midnightblue;stroke:midnightblue;" points="1411.8,-379.1 1415,-369 1406.2,-374.9 1411.8,-379.1"/>
</g>
<!-- Node31 -->
<g id="node99" class="node"><title>Node31</title>
<a xlink:href="_control_manager_8h.html" target="_top" xlink:title="This file defines the ControlManager class. ">
<polygon style="fill:white;stroke:black;" points="1180,-464 1180,-485 1294,-485 1294,-464 1180,-464"/>
<text text-anchor="middle" x="1237" y="-471" style="font-family:Arial;font-size:10.00;">ControlManager.h</text>
</a>
</g>
<!-- Node2&#45;&gt;Node31 -->
<g id="edge136" class="edge"><title>Node2&#45;&gt;Node31</title>
<path style="fill:none;stroke:midnightblue;" d="M1232,-522C1231,-514 1230,-504 1231,-495"/>
<polygon style="fill:midnightblue;stroke:midnightblue;" points="1234.49,-495.299 1232,-485 1227.52,-494.602 1234.49,-495.299"/>
</g>
<!-- Node4&#45;&gt;Node2 -->
<g id="edge128" class="edge"><title>Node4&#45;&gt;Node2</title>
<path style="fill:none;stroke:midnightblue;" d="M994,-427C1045,-448 1152,-494 1206,-518"/>
<polygon style="fill:midnightblue;stroke:midnightblue;" points="1204.44,-521.137 1215,-522 1207.28,-514.74 1204.44,-521.137"/>
</g>
<!-- Node5 -->
<g id="node9" class="node"><title>Node5</title>
<a xlink:href="_message_header_8h.html" target="_top" xlink:title="Defines the MessageHeader class. ">
<polygon style="fill:white;stroke:black;" points="447,-232 447,-253 560,-253 560,-232 447,-232"/>
<text text-anchor="middle" x="503" y="-239" style="font-family:Arial;font-size:10.00;">MessageHeader.h</text>
</a>
</g>
<!-- Node4&#45;&gt;Node5 -->
<g id="edge8" class="edge"><title>Node4&#45;&gt;Node5</title>
<path style="fill:none;stroke:midnightblue;" d="M914,-416C724,-413 87,-401 57,-370 3,-313 16,-338 159,-290 210,-273 352,-257 437,-249"/>
<polygon style="fill:midnightblue;stroke:midnightblue;" points="437.398,-252.478 447,-248 436.701,-245.512 437.398,-252.478"/>
</g>
<!-- Node9 -->
<g id="node18" class="node"><title>Node9</title>
<a xlink:href="_client_connection_request_8h.html" target="_top" xlink:title="Defines the ClientConnectionRequest classes. ">
<polygon style="fill:white;stroke:black;" points="154,-348 154,-369 319,-369 319,-348 154,-348"/>
<text text-anchor="middle" x="236" y="-355" style="font-family:Arial;font-size:10.00;">ClientConnectionRequest.h</text>
</a>
</g>
<!-- Node4&#45;&gt;Node9 -->
<g id="edge18" class="edge"><title>Node4&#45;&gt;Node9</title>
<path style="fill:none;stroke:midnightblue;" d="M914,-414C804,-407 544,-391 327,-370 327,-370 327,-370 327,-370"/>
<polygon style="fill:midnightblue;stroke:midnightblue;" points="327.299,-366.512 317,-369 326.602,-373.478 327.299,-366.512"/>
</g>
<!-- Node12 -->
<g id="node27" class="node"><title>Node12</title>
<a xlink:href="_client_connection_response_8h.html" target="_top" xlink:title="Defines the Asnyc and Synchronous ClientConnectionResponse messages and classes. ">
<polygon style="fill:white;stroke:black;" points="336,-348 336,-369 509,-369 509,-348 336,-348"/>
<text text-anchor="middle" x="422" y="-355" style="font-family:Arial;font-size:10.00;">ClientConnectionResponse.h</text>
</a>
</g>
<!-- Node4&#45;&gt;Node12 -->
<g id="edge30" class="edge"><title>Node4&#45;&gt;Node12</title>
<path style="fill:none;stroke:midnightblue;" d="M914,-412C831,-403 668,-387 519,-370"/>
<polygon style="fill:midnightblue;stroke:midnightblue;" points="519.299,-366.512 509,-369 518.602,-373.478 519.299,-366.512"/>
</g>
<!-- Node13 -->
<g id="node31" class="node"><title>Node13</title>
<a xlink:href="_set_current_price_8h.html" target="_top" xlink:title="Defines the SetCurrentPrice class. ">
<polygon style="fill:white;stroke:black;" points="526,-348 526,-369 637,-369 637,-348 526,-348"/>
<text text-anchor="middle" x="581" y="-355" style="font-family:Arial;font-size:10.00;">SetCurrentPrice.h</text>
</a>
</g>
<!-- Node4&#45;&gt;Node13 -->
<g id="edge36" class="edge"><title>Node4&#45;&gt;Node13</title>
<path style="fill:none;stroke:midnightblue;" d="M914,-410C852,-400 747,-386 647,-371"/>
<polygon style="fill:midnightblue;stroke:midnightblue;" points="647.492,-367.529 637,-369 646.119,-374.393 647.492,-367.529"/>
</g>
<!-- Node14 -->
<g id="node35" class="node"><title>Node14</title>
<a xlink:href="_price_proposal_8h.html" target="_top" xlink:title="Defines the PriceProposal class. ">
<polygon style="fill:white;stroke:black;" points="654,-348 654,-369 752,-369 752,-348 654,-348"/>
<text text-anchor="middle" x="703" y="-355" style="font-family:Arial;font-size:10.00;">PriceProposal.h</text>
</a>
</g>
<!-- Node4&#45;&gt;Node14 -->
<g id="edge42" class="edge"><title>Node4&#45;&gt;Node14</title>
<path style="fill:none;stroke:midnightblue;" d="M917,-406C871,-396 806,-381 759,-371"/>
<polygon style="fill:midnightblue;stroke:midnightblue;" points="759.492,-367.529 749,-369 758.119,-374.393 759.492,-367.529"/>
</g>
<!-- Node15 -->
<g id="node39" class="node"><title>Node15</title>
<a xlink:href="_client_data_8h.html" target="_top" xlink:title="Defines the Aysnchronous and Synchronous ClientData class and messages. ">
<polygon style="fill:white;stroke:black;" points="770,-348 770,-369 854,-369 854,-348 770,-348"/>
<text text-anchor="middle" x="812" y="-355" style="font-family:Arial;font-size:10.00;">ClientData.h</text>
</a>
</g>
<!-- Node4&#45;&gt;Node15 -->
<g id="edge48" class="edge"><title>Node4&#45;&gt;Node15</title>
<path style="fill:none;stroke:midnightblue;" d="M937,-406C912,-396 875,-382 848,-372"/>
<polygon style="fill:midnightblue;stroke:midnightblue;" points="849.594,-368.842 839,-369 847.38,-375.483 849.594,-368.842"/>
</g>
<!-- Node16 -->
<g id="node44" class="node"><title>Node16</title>
<a xlink:href="_get_price_8h.html" target="_top" xlink:title="Defines the GetPrice class and message. ">
<polygon style="fill:white;stroke:black;" points="66,-348 66,-369 137,-369 137,-348 66,-348"/>
<text text-anchor="middle" x="101" y="-355" style="font-family:Arial;font-size:10.00;">GetPrice.h</text>
</a>
</g>
<!-- Node4&#45;&gt;Node16 -->
<g id="edge56" class="edge"><title>Node4&#45;&gt;Node16</title>
<path style="fill:none;stroke:midnightblue;" d="M914,-415C759,-410 313,-393 147,-369"/>
<polygon style="fill:midnightblue;stroke:midnightblue;" points="147.299,-365.512 137,-368 146.602,-372.478 147.299,-365.512"/>
</g>
<!-- Node17 -->
<g id="node48" class="node"><title>Node17</title>
<a xlink:href="_demand_negotiation_8h.html" target="_top" xlink:title="Defines the DemandNegotiation class and message. ">
<polygon style="fill:white;stroke:black;" points="872,-348 872,-369 1009,-369 1009,-348 872,-348"/>
<text text-anchor="middle" x="940" y="-355" style="font-family:Arial;font-size:10.00;">DemandNegotiation.h</text>
</a>
</g>
<!-- Node4&#45;&gt;Node17 -->
<g id="edge62" class="edge"><title>Node4&#45;&gt;Node17</title>
<path style="fill:none;stroke:midnightblue;" d="M962,-406C958,-398 953,-387 949,-378"/>
<polygon style="fill:midnightblue;stroke:midnightblue;" points="952.26,-376.717 945,-369 945.863,-379.56 952.26,-376.717"/>
</g>
<!-- Node18 -->
<g id="node53" class="node"><title>Node18</title>
<a xlink:href="_connection_manager_8h.html" target="_top" xlink:title="This file defines the ConnectionManager class. ">
<polygon style="fill:white;stroke:black;" points="1102,-348 1102,-369 1239,-369 1239,-348 1102,-348"/>
<text text-anchor="middle" x="1170" y="-355" style="font-family:Arial;font-size:10.00;">ConnectionManager.h</text>
</a>
</g>
<!-- Node4&#45;&gt;Node18 -->
<g id="edge70" class="edge"><title>Node4&#45;&gt;Node18</title>
<path style="fill:none;stroke:midnightblue;" d="M1000,-406C1032,-396 1083,-382 1120,-372"/>
<polygon style="fill:midnightblue;stroke:midnightblue;" points="1121.43,-375.226 1130,-369 1119.42,-368.521 1121.43,-375.226"/>
</g>
<!-- Node25 -->
<g id="node69" class="node"><title>Node25</title>
<a xlink:href="_threaded_t_c_p_connected_client_8h.html" target="_top" xlink:title="Defeines the ThreadedTCPConnectedClient class. ">
<polygon style="fill:white;stroke:black;" points="1073,-174 1073,-195 1265,-195 1265,-174 1073,-174"/>
<text text-anchor="middle" x="1169" y="-181" style="font-family:Arial;font-size:10.00;">ThreadedTCPConnectedClient.h</text>
</a>
</g>
<!-- Node4&#45;&gt;Node25 -->
<g id="edge130" class="edge"><title>Node4&#45;&gt;Node25</title>
<path style="fill:none;stroke:midnightblue;" d="M982,-406C993,-397 1007,-384 1017,-370 1051,-315 1017,-279 1060,-232 1074,-216 1094,-205 1112,-198"/>
<polygon style="fill:midnightblue;stroke:midnightblue;" points="1113.43,-201.226 1122,-195 1111.42,-194.521 1113.43,-201.226"/>
</g>
<!-- Node4&#45;&gt;Node28 -->
<g id="edge132" class="edge"><title>Node4&#45;&gt;Node28</title>
<path style="fill:none;stroke:midnightblue;" d="M1020,-411C1077,-405 1169,-392 1247,-370 1296,-355 1350,-331 1383,-315"/>
<polygon style="fill:midnightblue;stroke:midnightblue;" points="1384.28,-318.26 1392,-311 1381.44,-311.863 1384.28,-318.26"/>
</g>
<!-- Node4&#45;&gt;Node30 -->
<g id="edge116" class="edge"><title>Node4&#45;&gt;Node30</title>
<path style="fill:none;stroke:midnightblue;" d="M1020,-410C1105,-399 1270,-379 1361,-367"/>
<polygon style="fill:midnightblue;stroke:midnightblue;" points="1361.4,-370.478 1371,-366 1360.7,-363.512 1361.4,-370.478"/>
</g>
<!-- Node5&#45;&gt;Node3 -->
<g id="edge16" class="edge"><title>Node5&#45;&gt;Node3</title>
<path style="fill:none;stroke:midnightblue;" d="M501,-232C499,-224 497,-214 495,-205"/>
<polygon style="fill:midnightblue;stroke:midnightblue;" points="498.393,-204.119 493,-195 491.529,-205.492 498.393,-204.119"/>
</g>
<!-- Node6 -->
<g id="node11" class="node"><title>Node6</title>
<a xlink:href="_network_byte_accessor_8h.html" target="_top" xlink:title="Defines the NetworkByteAccessor class for byte order conversion and easier data access. ">
<polygon style="fill:white;stroke:black;" points="529,-174 529,-195 670,-195 670,-174 529,-174"/>
<text text-anchor="middle" x="599" y="-181" style="font-family:Arial;font-size:10.00;">NetworkByteAccessor.h</text>
</a>
</g>
<!-- Node5&#45;&gt;Node6 -->
<g id="edge10" class="edge"><title>Node5&#45;&gt;Node6</title>
<path style="fill:none;stroke:midnightblue;" d="M522,-232C536,-223 557,-210 573,-200"/>
<polygon style="fill:midnightblue;stroke:midnightblue;" points="574.958,-202.916 582,-195 571.559,-196.797 574.958,-202.916"/>
</g>
<!-- Node7 -->
<g id="node13" class="node"><title>Node7</title>
<polygon style="fill:white;stroke:#bfbfbf;" points="850,-0 850,-21 906,-21 906,-0 850,-0"/>
<text text-anchor="middle" x="878" y="-7" style="font-family:Arial;font-size:10.00;">string.h</text>
</g>
<!-- Node6&#45;&gt;Node7 -->
<g id="edge12" class="edge"><title>Node6&#45;&gt;Node7</title>
<path style="fill:none;stroke:midnightblue;" d="M625,-174C646,-165 674,-152 698,-138 759,-102 824,-53 857,-27"/>
<polygon style="fill:midnightblue;stroke:midnightblue;" points="859.1,-29.8 865,-21 854.9,-24.2 859.1,-29.8"/>
</g>
<!-- Node8 -->
<g id="node15" class="node"><title>Node8</title>
<a xlink:href="_compile_time_checker_library_8h.html" target="_top" xlink:title="This file contains template classes to do compile time checking. ">
<polygon style="fill:white;stroke:black;" points="509,-116 509,-137 690,-137 690,-116 509,-116"/>
<text text-anchor="middle" x="599" y="-123" style="font-family:Arial;font-size:10.00;">CompileTimeCheckerLibrary.h</text>
</a>
</g>
<!-- Node6&#45;&gt;Node8 -->
<g id="edge14" class="edge"><title>Node6&#45;&gt;Node8</title>
<path style="fill:none;stroke:midnightblue;" d="M599,-174C599,-166 599,-156 599,-147"/>
<polygon style="fill:midnightblue;stroke:midnightblue;" points="602.5,-147 599,-137 595.5,-147 602.5,-147"/>
</g>
<!-- Node9&#45;&gt;Node5 -->
<g id="edge20" class="edge"><title>Node9&#45;&gt;Node5</title>
<path style="fill:none;stroke:midnightblue;" d="M262,-348C310,-327 417,-281 471,-257"/>
<polygon style="fill:midnightblue;stroke:midnightblue;" points="472.283,-260.26 480,-253 469.44,-253.863 472.283,-260.26"/>
</g>
<!-- Node10 -->
<g id="node21" class="node"><title>Node10</title>
<a xlink:href="_message_ender_8h.html" target="_top" xlink:title="Defines a MessageEnder class. ">
<polygon style="fill:white;stroke:black;" points="531,-290 531,-311 635,-311 635,-290 531,-290"/>
<text text-anchor="middle" x="583" y="-297" style="font-family:Arial;font-size:10.00;">MessageEnder.h</text>
</a>
</g>
<!-- Node9&#45;&gt;Node10 -->
<g id="edge22" class="edge"><title>Node9&#45;&gt;Node10</title>
<path style="fill:none;stroke:midnightblue;" d="M302,-348C365,-338 459,-322 521,-312"/>
<polygon style="fill:midnightblue;stroke:midnightblue;" points="521.881,-315.393 531,-310 520.508,-308.529 521.881,-315.393"/>
</g>
<!-- Node11 -->
<g id="node25" class="node"><title>Node11</title>
<polygon style="fill:white;stroke:#bfbfbf;" points="213,-290 213,-311 259,-311 259,-290 213,-290"/>
<text text-anchor="middle" x="236" y="-297" style="font-family:Arial;font-size:10.00;">string</text>
</g>
<!-- Node9&#45;&gt;Node11 -->
<g id="edge28" class="edge"><title>Node9&#45;&gt;Node11</title>
<path style="fill:none;stroke:midnightblue;" d="M236,-348C236,-340 236,-330 236,-321"/>
<polygon style="fill:midnightblue;stroke:midnightblue;" points="239.5,-321 236,-311 232.5,-321 239.5,-321"/>
</g>
<!-- Node10&#45;&gt;Node5 -->
<g id="edge24" class="edge"><title>Node10&#45;&gt;Node5</title>
<path style="fill:none;stroke:midnightblue;" d="M568,-290C556,-281 539,-269 525,-259"/>
<polygon style="fill:midnightblue;stroke:midnightblue;" points="527.1,-256.2 517,-253 522.9,-261.8 527.1,-256.2"/>
</g>
<!-- Node10&#45;&gt;Node6 -->
<g id="edge26" class="edge"><title>Node10&#45;&gt;Node6</title>
<path style="fill:none;stroke:midnightblue;" d="M585,-290C588,-271 593,-230 597,-205"/>
<polygon style="fill:midnightblue;stroke:midnightblue;" points="600.488,-205.299 598,-195 593.522,-204.602 600.488,-205.299"/>
</g>
<!-- Node12&#45;&gt;Node5 -->
<g id="edge32" class="edge"><title>Node12&#45;&gt;Node5</title>
<path style="fill:none;stroke:midnightblue;" d="M430,-348C443,-328 473,-286 490,-262"/>
<polygon style="fill:midnightblue;stroke:midnightblue;" points="493.365,-263.262 496,-253 487.541,-259.379 493.365,-263.262"/>
</g>
<!-- Node12&#45;&gt;Node10 -->
<g id="edge34" class="edge"><title>Node12&#45;&gt;Node10</title>
<path style="fill:none;stroke:midnightblue;" d="M453,-348C479,-338 517,-324 545,-314"/>
<polygon style="fill:midnightblue;stroke:midnightblue;" points="546.427,-317.226 555,-311 544.416,-310.521 546.427,-317.226"/>
</g>
<!-- Node13&#45;&gt;Node5 -->
<g id="edge38" class="edge"><title>Node13&#45;&gt;Node5</title>
<path style="fill:none;stroke:midnightblue;" d="M562,-348C549,-339 532,-327 522,-312 513,-297 508,-278 506,-263"/>
<polygon style="fill:midnightblue;stroke:midnightblue;" points="509.393,-262.119 504,-253 502.529,-263.492 509.393,-262.119"/>
</g>
<!-- Node13&#45;&gt;Node10 -->
<g id="edge40" class="edge"><title>Node13&#45;&gt;Node10</title>
<path style="fill:none;stroke:midnightblue;" d="M581,-348C582,-340 582,-330 582,-321"/>
<polygon style="fill:midnightblue;stroke:midnightblue;" points="585.488,-321.299 583,-311 578.522,-320.602 585.488,-321.299"/>
</g>
<!-- Node14&#45;&gt;Node5 -->
<g id="edge44" class="edge"><title>Node14&#45;&gt;Node5</title>
<path style="fill:none;stroke:midnightblue;" d="M696,-348C687,-333 668,-305 644,-290 621,-274 591,-263 565,-256"/>
<polygon style="fill:midnightblue;stroke:midnightblue;" points="565.584,-252.521 555,-253 563.573,-259.226 565.584,-252.521"/>
</g>
<!-- Node14&#45;&gt;Node10 -->
<g id="edge46" class="edge"><title>Node14&#45;&gt;Node10</title>
<path style="fill:none;stroke:midnightblue;" d="M680,-348C661,-339 634,-325 613,-315"/>
<polygon style="fill:midnightblue;stroke:midnightblue;" points="614.56,-311.863 604,-311 611.717,-318.26 614.56,-311.863"/>
</g>
<!-- Node15&#45;&gt;Node5 -->
<g id="edge50" class="edge"><title>Node15&#45;&gt;Node5</title>
<path style="fill:none;stroke:midnightblue;" d="M793,-348C766,-333 717,-307 672,-290 635,-276 592,-263 558,-255"/>
<polygon style="fill:midnightblue;stroke:midnightblue;" points="558.492,-251.529 548,-253 557.119,-258.393 558.492,-251.529"/>
</g>
<!-- Node15&#45;&gt;Node7 -->
<g id="edge54" class="edge"><title>Node15&#45;&gt;Node7</title>
<path style="fill:none;stroke:midnightblue;" d="M820,-348C833,-328 859,-284 859,-243 859,-243 859,-243 859,-127 859,-93 867,-54 873,-31"/>
<polygon style="fill:midnightblue;stroke:midnightblue;" points="876.471,-31.4922 875,-21 869.607,-30.1194 876.471,-31.4922"/>
</g>
<!-- Node15&#45;&gt;Node10 -->
<g id="edge52" class="edge"><title>Node15&#45;&gt;Node10</title>
<path style="fill:none;stroke:midnightblue;" d="M770,-348C731,-339 673,-324 632,-314"/>
<polygon style="fill:midnightblue;stroke:midnightblue;" points="632.584,-310.521 622,-311 630.573,-317.226 632.584,-310.521"/>
</g>
<!-- Node16&#45;&gt;Node5 -->
<g id="edge58" class="edge"><title>Node16&#45;&gt;Node5</title>
<path style="fill:none;stroke:midnightblue;" d="M114,-348C132,-332 168,-304 204,-290 245,-274 362,-258 437,-250"/>
<polygon style="fill:midnightblue;stroke:midnightblue;" points="437.398,-253.478 447,-249 436.701,-246.512 437.398,-253.478"/>
</g>
<!-- Node16&#45;&gt;Node10 -->
<g id="edge60" class="edge"><title>Node16&#45;&gt;Node10</title>
<path style="fill:none;stroke:midnightblue;" d="M137,-349C140,-349 142,-348 145,-348 278,-324 435,-311 521,-305"/>
<polygon style="fill:midnightblue;stroke:midnightblue;" points="521.398,-308.478 531,-304 520.701,-301.512 521.398,-308.478"/>
</g>
<!-- Node17&#45;&gt;Node5 -->
<g id="edge64" class="edge"><title>Node17&#45;&gt;Node5</title>
<path style="fill:none;stroke:midnightblue;" d="M907,-348C864,-333 784,-308 714,-290 664,-276 606,-264 564,-255"/>
<polygon style="fill:midnightblue;stroke:midnightblue;" points="564.492,-251.529 554,-253 563.119,-258.393 564.492,-251.529"/>
</g>
<!-- Node17&#45;&gt;Node7 -->
<g id="edge68" class="edge"><title>Node17&#45;&gt;Node7</title>
<path style="fill:none;stroke:midnightblue;" d="M933,-348C921,-328 897,-283 897,-243 897,-243 897,-243 897,-127 897,-93 889,-54 883,-31"/>
<polygon style="fill:midnightblue;stroke:midnightblue;" points="886.393,-30.1194 881,-21 879.529,-31.4922 886.393,-30.1194"/>
</g>
<!-- Node17&#45;&gt;Node10 -->
<g id="edge66" class="edge"><title>Node17&#45;&gt;Node10</title>
<path style="fill:none;stroke:midnightblue;" d="M872,-348C807,-338 709,-322 645,-311"/>
<polygon style="fill:midnightblue;stroke:midnightblue;" points="645.492,-307.529 635,-309 644.119,-314.393 645.492,-307.529"/>
</g>
<!-- Node18&#45;&gt;Node3 -->
<g id="edge112" class="edge"><title>Node18&#45;&gt;Node3</title>
<path style="fill:none;stroke:midnightblue;" d="M1117,-348C1008,-324 747,-266 522,-196"/>
<polygon style="fill:midnightblue;stroke:midnightblue;" points="522.584,-192.521 512,-193 520.573,-199.226 522.584,-192.521"/>
</g>
<!-- Node18&#45;&gt;Node4 -->
<g id="edge72" class="edge"><title>Node18&#45;&gt;Node4</title>
<path style="fill:none;stroke:midnightblue;" d="M1140,-369C1109,-378 1059,-392 1021,-403"/>
<polygon style="fill:midnightblue;stroke:midnightblue;" points="1019.57,-399.774 1011,-406 1021.58,-406.479 1019.57,-399.774"/>
</g>
<!-- Node19 -->
<g id="node56" class="node"><title>Node19</title>
<a xlink:href="_threaded_t_c_p_server_8h.html" target="_top" xlink:title="Defines the ThreadedTCPServer class. ">
<polygon style="fill:white;stroke:black;" points="1226,-290 1226,-311 1361,-311 1361,-290 1226,-290"/>
<text text-anchor="middle" x="1293" y="-297" style="font-family:Arial;font-size:10.00;">ThreadedTCPServer.h</text>
</a>
</g>
<!-- Node18&#45;&gt;Node19 -->
<g id="edge74" class="edge"><title>Node18&#45;&gt;Node19</title>
<path style="fill:none;stroke:midnightblue;" d="M1193,-348C1213,-338 1241,-325 1263,-315"/>
<polygon style="fill:midnightblue;stroke:midnightblue;" points="1264.28,-318.26 1272,-311 1261.44,-311.863 1264.28,-318.26"/>
</g>
<!-- Node18&#45;&gt;Node25 -->
<g id="edge104" class="edge"><title>Node18&#45;&gt;Node25</title>
<path style="fill:none;stroke:midnightblue;" d="M1172,-348C1174,-338 1177,-324 1179,-312 1182,-274 1177,-230 1173,-205"/>
<polygon style="fill:midnightblue;stroke:midnightblue;" points="1176.39,-204.119 1171,-195 1169.53,-205.492 1176.39,-204.119"/>
</g>
<!-- Node18&#45;&gt;Node28 -->
<g id="edge106" class="edge"><title>Node18&#45;&gt;Node28</title>
<path style="fill:none;stroke:midnightblue;" d="M1217,-348C1255,-339 1310,-326 1368,-312"/>
<polygon style="fill:midnightblue;stroke:midnightblue;" points="1368.88,-315.393 1378,-310 1367.51,-308.529 1368.88,-315.393"/>
</g>
<!-- Node29 -->
<g id="node86" class="node"><title>Node29</title>
<polygon style="fill:white;stroke:#bfbfbf;" points="1102,-290 1102,-311 1171,-311 1171,-290 1102,-290"/>
<text text-anchor="middle" x="1136" y="-297" style="font-family:Arial;font-size:10.00;">algorithm</text>
</g>
<!-- Node18&#45;&gt;Node29 -->
<g id="edge114" class="edge"><title>Node18&#45;&gt;Node29</title>
<path style="fill:none;stroke:midnightblue;" d="M1163,-348C1159,-340 1152,-329 1147,-320"/>
<polygon style="fill:midnightblue;stroke:midnightblue;" points="1149.92,-318.042 1142,-311 1143.8,-321.441 1149.92,-318.042"/>
</g>
<!-- Node20 -->
<g id="node58" class="node"><title>Node20</title>
<a xlink:href="_thread_base_8h.html" target="_top" xlink:title="This file selects the right implementation according to the current OS. ">
<polygon style="fill:white;stroke:black;" points="1238,-116 1238,-137 1329,-137 1329,-116 1238,-116"/>
<text text-anchor="middle" x="1283" y="-123" style="font-family:Arial;font-size:10.00;">ThreadBase.h</text>
</a>
</g>
<!-- Node19&#45;&gt;Node20 -->
<g id="edge76" class="edge"><title>Node19&#45;&gt;Node20</title>
<path style="fill:none;stroke:midnightblue;" d="M1292,-290C1290,-261 1286,-184 1284,-147"/>
<polygon style="fill:midnightblue;stroke:midnightblue;" points="1287.5,-147 1284,-137 1280.5,-147 1287.5,-147"/>
</g>
<!-- Node21 -->
<g id="node60" class="node"><title>Node21</title>
<a xlink:href="_t_c_p_server_8h.html" target="_top" xlink:title="Defines the TCPServer class. ">
<polygon style="fill:white;stroke:black;" points="926,-232 926,-253 1008,-253 1008,-232 926,-232"/>
<text text-anchor="middle" x="967" y="-239" style="font-family:Arial;font-size:10.00;">TCPServer.h</text>
</a>
</g>
<!-- Node19&#45;&gt;Node21 -->
<g id="edge78" class="edge"><title>Node19&#45;&gt;Node21</title>
<path style="fill:none;stroke:midnightblue;" d="M1231,-290C1169,-279 1075,-262 1018,-252"/>
<polygon style="fill:midnightblue;stroke:midnightblue;" points="1018.49,-248.529 1008,-250 1017.12,-255.393 1018.49,-248.529"/>
</g>
<!-- Node19&#45;&gt;Node25 -->
<g id="edge102" class="edge"><title>Node19&#45;&gt;Node25</title>
<path style="fill:none;stroke:midnightblue;" d="M1281,-290C1259,-270 1213,-226 1187,-202"/>
<polygon style="fill:midnightblue;stroke:midnightblue;" points="1189.55,-199.596 1180,-195 1184.6,-204.546 1189.55,-199.596"/>
</g>
<!-- Node22 -->
<g id="node62" class="node"><title>Node22</title>
<a xlink:href="_socket_base_8h.html" target="_top" xlink:title="Defines the SocketBase template class. ">
<polygon style="fill:white;stroke:black;" points="1088,-58 1088,-79 1177,-79 1177,-58 1088,-58"/>
<text text-anchor="middle" x="1132" y="-65" style="font-family:Arial;font-size:10.00;">SocketBase.h</text>
</a>
</g>
<!-- Node21&#45;&gt;Node22 -->
<g id="edge80" class="edge"><title>Node21&#45;&gt;Node22</title>
<path style="fill:none;stroke:midnightblue;" d="M972,-232C984,-208 1015,-152 1054,-116 1067,-103 1085,-92 1101,-84"/>
<polygon style="fill:midnightblue;stroke:midnightblue;" points="1102.96,-86.916 1110,-79 1099.56,-80.7969 1102.96,-86.916"/>
</g>
<!-- Node24 -->
<g id="node66" class="node"><title>Node24</title>
<a xlink:href="_i_p_address_8h.html" target="_top" xlink:title="Defines the IPAddress class. ">
<polygon style="fill:white;stroke:black;" points="929,-58 929,-79 1006,-79 1006,-58 929,-58"/>
<text text-anchor="middle" x="967" y="-65" style="font-family:Arial;font-size:10.00;">IPAddress.h</text>
</a>
</g>
<!-- Node21&#45;&gt;Node24 -->
<g id="edge84" class="edge"><title>Node21&#45;&gt;Node24</title>
<path style="fill:none;stroke:midnightblue;" d="M967,-232C967,-203 967,-126 967,-89"/>
<polygon style="fill:midnightblue;stroke:midnightblue;" points="970.5,-89 967,-79 963.5,-89 970.5,-89"/>
</g>
<!-- Node21&#45;&gt;Node25 -->
<g id="edge88" class="edge"><title>Node21&#45;&gt;Node25</title>
<path style="fill:none;stroke:midnightblue;" d="M1005,-232C1039,-222 1089,-208 1124,-198"/>
<polygon style="fill:midnightblue;stroke:midnightblue;" points="1125.43,-201.226 1134,-195 1123.42,-194.521 1125.43,-201.226"/>
</g>
<!-- Node23 -->
<g id="node64" class="node"><title>Node23</title>
<polygon style="fill:white;stroke:#bfbfbf;" points="1453,-0 1453,-21 1517,-21 1517,-0 1453,-0"/>
<text text-anchor="middle" x="1485" y="-7" style="font-family:Arial;font-size:10.00;">iostream</text>
</g>
<!-- Node22&#45;&gt;Node23 -->
<g id="edge82" class="edge"><title>Node22&#45;&gt;Node23</title>
<path style="fill:none;stroke:midnightblue;" d="M1177,-62C1245,-51 1375,-29 1443,-18"/>
<polygon style="fill:midnightblue;stroke:midnightblue;" points="1443.88,-21.3933 1453,-16 1442.51,-14.5292 1443.88,-21.3933"/>
</g>
<!-- Node24&#45;&gt;Node7 -->
<g id="edge86" class="edge"><title>Node24&#45;&gt;Node7</title>
<path style="fill:none;stroke:midnightblue;" d="M950,-58C937,-49 917,-36 902,-26"/>
<polygon style="fill:midnightblue;stroke:midnightblue;" points="903.441,-22.7969 893,-21 900.042,-28.916 903.441,-22.7969"/>
</g>
<!-- Node25&#45;&gt;Node20 -->
<g id="edge96" class="edge"><title>Node25&#45;&gt;Node20</title>
<path style="fill:none;stroke:midnightblue;" d="M1191,-174C1209,-165 1234,-151 1254,-142"/>
<polygon style="fill:midnightblue;stroke:midnightblue;" points="1255.96,-144.916 1263,-137 1252.56,-138.797 1255.96,-144.916"/>
</g>
<!-- Node26 -->
<g id="node71" class="node"><title>Node26</title>
<a xlink:href="_t_c_p_connected_client_8h.html" target="_top" xlink:title="Defines the TCPConnectedClient class. ">
<polygon style="fill:white;stroke:black;" points="1063,-116 1063,-137 1202,-137 1202,-116 1063,-116"/>
<text text-anchor="middle" x="1132" y="-123" style="font-family:Arial;font-size:10.00;">TCPConnectedClient.h</text>
</a>
</g>
<!-- Node25&#45;&gt;Node26 -->
<g id="edge90" class="edge"><title>Node25&#45;&gt;Node26</title>
<path style="fill:none;stroke:midnightblue;" d="M1162,-174C1157,-166 1150,-155 1144,-145"/>
<polygon style="fill:midnightblue;stroke:midnightblue;" points="1146.8,-142.9 1138,-137 1141.2,-147.1 1146.8,-142.9"/>
</g>
<!-- Node27 -->
<g id="node76" class="node"><title>Node27</title>
<a xlink:href="_semaphore_8h.html" target="_top" xlink:title="Defines the Semaphore class under Windows 32/64bit and POSIX enables OSes. ">
<polygon style="fill:white;stroke:black;" points="1394,-116 1394,-137 1484,-137 1484,-116 1394,-116"/>
<text text-anchor="middle" x="1439" y="-123" style="font-family:Arial;font-size:10.00;">Semaphore.h</text>
</a>
</g>
<!-- Node25&#45;&gt;Node27 -->
<g id="edge98" class="edge"><title>Node25&#45;&gt;Node27</title>
<path style="fill:none;stroke:midnightblue;" d="M1220,-174C1267,-164 1336,-149 1384,-139"/>
<polygon style="fill:midnightblue;stroke:midnightblue;" points="1384.88,-142.393 1394,-137 1383.51,-135.529 1384.88,-142.393"/>
</g>
<!-- Node26&#45;&gt;Node22 -->
<g id="edge92" class="edge"><title>Node26&#45;&gt;Node22</title>
<path style="fill:none;stroke:midnightblue;" d="M1132,-116C1132,-108 1132,-98 1132,-89"/>
<polygon style="fill:midnightblue;stroke:midnightblue;" points="1135.5,-89 1132,-79 1128.5,-89 1135.5,-89"/>
</g>
<!-- Node26&#45;&gt;Node24 -->
<g id="edge94" class="edge"><title>Node26&#45;&gt;Node24</title>
<path style="fill:none;stroke:midnightblue;" d="M1101,-116C1074,-106 1035,-92 1006,-82"/>
<polygon style="fill:midnightblue;stroke:midnightblue;" points="1006.58,-78.5212 996,-79 1004.57,-85.2259 1006.58,-78.5212"/>
</g>
<!-- Node27&#45;&gt;Node23 -->
<g id="edge100" class="edge"><title>Node27&#45;&gt;Node23</title>
<path style="fill:none;stroke:midnightblue;" d="M1443,-116C1451,-97 1467,-55 1477,-30"/>
<polygon style="fill:midnightblue;stroke:midnightblue;" points="1480.14,-31.5596 1481,-21 1473.74,-28.7166 1480.14,-31.5596"/>
</g>
<!-- Node28&#45;&gt;Node23 -->
<g id="edge108" class="edge"><title>Node28&#45;&gt;Node23</title>
<path style="fill:none;stroke:midnightblue;" d="M1421,-290C1438,-264 1478,-199 1493,-138 1501,-101 1495,-56 1490,-31"/>
<polygon style="fill:midnightblue;stroke:midnightblue;" points="1493.39,-30.1194 1488,-21 1486.53,-31.4922 1493.39,-30.1194"/>
</g>
<!-- Node28&#45;&gt;Node27 -->
<g id="edge110" class="edge"><title>Node28&#45;&gt;Node27</title>
<path style="fill:none;stroke:midnightblue;" d="M1415,-290C1419,-261 1430,-184 1436,-147"/>
<polygon style="fill:midnightblue;stroke:midnightblue;" points="1439.49,-147.299 1437,-137 1432.52,-146.602 1439.49,-147.299"/>
</g>
<!-- Node30&#45;&gt;Node2 -->
<g id="edge126" class="edge"><title>Node30&#45;&gt;Node2</title>
<path style="fill:none;stroke:midnightblue;" d="M1427,-369C1422,-383 1406,-409 1389,-428 1353,-465 1303,-498 1271,-517"/>
<polygon style="fill:midnightblue;stroke:midnightblue;" points="1269.04,-514.084 1262,-522 1272.44,-520.203 1269.04,-514.084"/>
</g>
<!-- Node30&#45;&gt;Node19 -->
<g id="edge122" class="edge"><title>Node30&#45;&gt;Node19</title>
<path style="fill:none;stroke:midnightblue;" d="M1401,-348C1379,-338 1349,-325 1326,-315"/>
<polygon style="fill:midnightblue;stroke:midnightblue;" points="1326.58,-311.464 1316,-311 1323.98,-317.964 1326.58,-311.464"/>
</g>
<!-- Node30&#45;&gt;Node23 -->
<g id="edge118" class="edge"><title>Node30&#45;&gt;Node23</title>
<path style="fill:none;stroke:midnightblue;" d="M1454,-348C1491,-331 1552,-296 1552,-243 1552,-243 1552,-243 1552,-127 1552,-87 1523,-50 1503,-28"/>
<polygon style="fill:midnightblue;stroke:midnightblue;" points="1505.55,-25.5962 1496,-21 1500.6,-30.546 1505.55,-25.5962"/>
</g>
<!-- Node30&#45;&gt;Node25 -->
<g id="edge124" class="edge"><title>Node30&#45;&gt;Node25</title>
<path style="fill:none;stroke:midnightblue;" d="M1437,-348C1451,-334 1470,-308 1457,-290 1429,-251 1301,-215 1225,-197"/>
<polygon style="fill:midnightblue;stroke:midnightblue;" points="1225.49,-193.529 1215,-195 1224.12,-200.393 1225.49,-193.529"/>
</g>
<!-- Node30&#45;&gt;Node27 -->
<g id="edge120" class="edge"><title>Node30&#45;&gt;Node27</title>
<path style="fill:none;stroke:midnightblue;" d="M1442,-348C1452,-339 1465,-327 1472,-312 1495,-255 1466,-181 1450,-146"/>
<polygon style="fill:midnightblue;stroke:midnightblue;" points="1452.92,-144.042 1445,-137 1446.8,-147.441 1452.92,-144.042"/>
</g>
<!-- Node31&#45;&gt;Node2 -->
<g id="edge138" class="edge"><title>Node31&#45;&gt;Node2</title>
<path style="fill:none;stroke:midnightblue;" d="M1242,-485C1243,-492 1244,-502 1243,-512"/>
<polygon style="fill:midnightblue;stroke:midnightblue;" points="1239.51,-511.701 1242,-522 1246.48,-512.398 1239.51,-511.701"/>
</g>
<!-- Node31&#45;&gt;Node4 -->
<g id="edge148" class="edge"><title>Node31&#45;&gt;Node4</title>
<path style="fill:none;stroke:midnightblue;" d="M1186,-464C1139,-454 1072,-439 1024,-429"/>
<polygon style="fill:midnightblue;stroke:midnightblue;" points="1024.49,-425.529 1014,-427 1023.12,-432.393 1024.49,-425.529"/>
</g>
<!-- Node31&#45;&gt;Node18 -->
<g id="edge146" class="edge"><title>Node31&#45;&gt;Node18</title>
<path style="fill:none;stroke:midnightblue;" d="M1231,-464C1220,-445 1196,-403 1181,-378"/>
<polygon style="fill:midnightblue;stroke:midnightblue;" points="1183.92,-376.042 1176,-369 1177.8,-379.441 1183.92,-376.042"/>
</g>
<!-- Node31&#45;&gt;Node19 -->
<g id="edge140" class="edge"><title>Node31&#45;&gt;Node19</title>
<path style="fill:none;stroke:midnightblue;" d="M1241,-464C1250,-435 1275,-358 1287,-321"/>
<polygon style="fill:midnightblue;stroke:midnightblue;" points="1290.48,-321.584 1290,-311 1283.77,-319.573 1290.48,-321.584"/>
</g>
<!-- Node31&#45;&gt;Node25 -->
<g id="edge144" class="edge"><title>Node31&#45;&gt;Node25</title>
<path style="fill:none;stroke:midnightblue;" d="M1193,-464C1145,-449 1074,-417 1074,-359 1074,-359 1074,-359 1074,-301 1074,-257 1116,-221 1143,-201"/>
<polygon style="fill:midnightblue;stroke:midnightblue;" points="1145.62,-203.459 1152,-195 1141.74,-197.635 1145.62,-203.459"/>
</g>
<!-- Node31&#45;&gt;Node28 -->
<g id="edge150" class="edge"><title>Node31&#45;&gt;Node28</title>
<path style="fill:none;stroke:midnightblue;" d="M1248,-464C1269,-442 1319,-390 1362,-348 1372,-338 1384,-327 1393,-318"/>
<polygon style="fill:midnightblue;stroke:midnightblue;" points="1395.78,-320.219 1401,-311 1391.17,-314.951 1395.78,-320.219"/>
</g>
<!-- Node31&#45;&gt;Node30 -->
<g id="edge142" class="edge"><title>Node31&#45;&gt;Node30</title>
<path style="fill:none;stroke:midnightblue;" d="M1276,-464C1300,-456 1331,-444 1356,-428 1377,-414 1398,-392 1411,-377"/>
<polygon style="fill:midnightblue;stroke:midnightblue;" points="1414.05,-378.831 1418,-369 1408.78,-374.221 1414.05,-378.831"/>
</g>
</g>
</svg>
