<?xml version="1.0" encoding="UTF-8" standalone="no"?>
<!DOCTYPE svg PUBLIC "-//W3C//DTD SVG 1.0//EN"
 "http://www.w3.org/TR/2001/REC-SVG-20010904/DTD/svg10.dtd" [
 <!ATTLIST svg xmlns:xlink CDATA #FIXED "http://www.w3.org/1999/xlink">
]>
<!-- Generated by Graphviz version 2.14.1 (Fri Nov  9 08:19:38 GMT 2007)
     For user: (asakyurek) Alper Sinan Akyurek -->
<!-- Title: S2Sim/SystemManager.h Pages: 1 -->
<svg width="666pt" height="320pt"
 viewBox="0.00 0.00 666.00 320.00" xmlns="http://www.w3.org/2000/svg" xmlns:xlink="http://www.w3.org/1999/xlink">
<g id="graph0" class="graph" transform="scale(1 1) rotate(0) translate(4 316)">
<title>S2Sim/SystemManager.h</title>
<polygon style="fill:white;stroke:white;" points="-4,4 -4,-316 662,-316 662,4 -4,4"/>
<!-- Node1 -->
<g id="node1" class="node"><title>Node1</title>
<polygon style="fill:#bfbfbf;stroke:black;" points="154,-290 154,-311 305,-311 305,-290 154,-290"/>
<text text-anchor="middle" x="229" y="-297" style="font-family:Arial;font-size:10.00;">S2Sim/SystemManager.h</text>
</g>
<!-- Node2 -->
<g id="node3" class="node"><title>Node2</title>
<a xlink:href="_matlab_manager_8h.html" target="_top" xlink:title="S2Sim/MatlabManager.h">
<polygon style="fill:white;stroke:black;" points="155,-232 155,-253 303,-253 303,-232 155,-232"/>
<text text-anchor="middle" x="229" y="-239" style="font-family:Arial;font-size:10.00;">S2Sim/MatlabManager.h</text>
</a>
</g>
<!-- Node1&#45;&gt;Node2 -->
<g id="edge2" class="edge"><title>Node1&#45;&gt;Node2</title>
<path style="fill:none;stroke:midnightblue;" d="M223,-280C222,-270 223,-260 224,-253"/>
<polygon style="fill:midnightblue;stroke:midnightblue;" points="219.522,-280.398 224,-290 226.488,-279.701 219.522,-280.398"/>
</g>
<!-- Node3 -->
<g id="node5" class="node"><title>Node3</title>
<a xlink:href="_client_manager_8h.html" target="_top" xlink:title="S2Sim/ClientManager.h">
<polygon style="fill:white;stroke:black;" points="317,-174 317,-195 460,-195 460,-174 317,-174"/>
<text text-anchor="middle" x="388" y="-181" style="font-family:Arial;font-size:10.00;">S2Sim/ClientManager.h</text>
</a>
</g>
<!-- Node1&#45;&gt;Node3 -->
<g id="edge38" class="edge"><title>Node1&#45;&gt;Node3</title>
<path style="fill:none;stroke:midnightblue;" d="M253,-285C267,-276 287,-265 303,-254 328,-235 355,-209 372,-195"/>
<polygon style="fill:midnightblue;stroke:midnightblue;" points="251.042,-282.084 244,-290 254.441,-288.203 251.042,-282.084"/>
</g>
<!-- Node6 -->
<g id="node12" class="node"><title>Node6</title>
<a xlink:href="_control_manager_8h.html" target="_top" xlink:title="S2Sim/ControlManager.h">
<polygon style="fill:white;stroke:black;" points="7,-58 7,-79 158,-79 158,-58 7,-58"/>
<text text-anchor="middle" x="82" y="-65" style="font-family:Arial;font-size:10.00;">S2Sim/ControlManager.h</text>
</a>
</g>
<!-- Node1&#45;&gt;Node6 -->
<g id="edge36" class="edge"><title>Node1&#45;&gt;Node6</title>
<path style="fill:none;stroke:midnightblue;" d="M184,-286C146,-270 94,-240 70,-196 49,-157 62,-102 74,-79"/>
<polygon style="fill:midnightblue;stroke:midnightblue;" points="182.44,-289.137 193,-290 185.283,-282.74 182.44,-289.137"/>
</g>
<!-- Node11 -->
<g id="node31" class="node"><title>Node11</title>
<a xlink:href="_system_manager_8cpp.html" target="_top" xlink:title="S2Sim/SystemManager.cpp">
<polygon style="fill:white;stroke:black;" points="377,-232 377,-253 541,-253 541,-232 377,-232"/>
<text text-anchor="middle" x="459" y="-239" style="font-family:Arial;font-size:10.00;">S2Sim/SystemManager.cpp</text>
</a>
</g>
<!-- Node1&#45;&gt;Node11 -->
<g id="edge40" class="edge"><title>Node1&#45;&gt;Node11</title>
<path style="fill:none;stroke:midnightblue;" d="M283,-287C324,-277 382,-262 419,-253"/>
<polygon style="fill:midnightblue;stroke:midnightblue;" points="281.573,-283.774 273,-290 283.584,-290.479 281.573,-283.774"/>
</g>
<!-- Node2&#45;&gt;Node1 -->
<g id="edge28" class="edge"><title>Node2&#45;&gt;Node1</title>
<path style="fill:none;stroke:midnightblue;" d="M235,-263C236,-272 235,-282 234,-290"/>
<polygon style="fill:midnightblue;stroke:midnightblue;" points="238.478,-262.602 234,-253 231.512,-263.299 238.478,-262.602"/>
</g>
<!-- Node2&#45;&gt;Node3 -->
<g id="edge4" class="edge"><title>Node2&#45;&gt;Node3</title>
<path style="fill:none;stroke:midnightblue;" d="M269,-228C297,-218 335,-204 360,-195"/>
<polygon style="fill:midnightblue;stroke:midnightblue;" points="266.985,-225.036 259,-232 269.585,-231.536 266.985,-225.036"/>
</g>
<!-- Node2&#45;&gt;Node6 -->
<g id="edge30" class="edge"><title>Node2&#45;&gt;Node6</title>
<path style="fill:none;stroke:midnightblue;" d="M170,-229C137,-221 102,-209 92,-196 65,-161 74,-103 79,-79"/>
<polygon style="fill:midnightblue;stroke:midnightblue;" points="169.416,-232.479 180,-232 171.427,-225.774 169.416,-232.479"/>
</g>
<!-- Node8 -->
<g id="node17" class="node"><title>Node8</title>
<a xlink:href="main_8cpp.html" target="_top" xlink:title="S2Sim/main.cpp">
<polygon style="fill:white;stroke:black;" points="192,-0 192,-21 296,-21 296,-0 192,-0"/>
<text text-anchor="middle" x="244" y="-7" style="font-family:Arial;font-size:10.00;">S2Sim/main.cpp</text>
</a>
</g>
<!-- Node2&#45;&gt;Node8 -->
<g id="edge32" class="edge"><title>Node2&#45;&gt;Node8</title>
<path style="fill:none;stroke:midnightblue;" d="M249,-225C257,-217 265,-207 270,-196 294,-133 262,-50 249,-21"/>
<polygon style="fill:midnightblue;stroke:midnightblue;" points="246.596,-222.454 242,-232 251.546,-227.404 246.596,-222.454"/>
</g>
<!-- Node10 -->
<g id="node27" class="node"><title>Node10</title>
<a xlink:href="_matlab_manager_8cpp.html" target="_top" xlink:title="S2Sim/MatlabManager.cpp">
<polygon style="fill:white;stroke:black;" points="101,-174 101,-195 262,-195 262,-174 101,-174"/>
<text text-anchor="middle" x="181" y="-181" style="font-family:Arial;font-size:10.00;">S2Sim/MatlabManager.cpp</text>
</a>
</g>
<!-- Node2&#45;&gt;Node10 -->
<g id="edge34" class="edge"><title>Node2&#45;&gt;Node10</title>
<path style="fill:none;stroke:midnightblue;" d="M214,-224C206,-214 196,-203 189,-195"/>
<polygon style="fill:midnightblue;stroke:midnightblue;" points="211.2,-226.1 220,-232 216.8,-221.9 211.2,-226.1"/>
</g>
<!-- Node3&#45;&gt;Node1 -->
<g id="edge24" class="edge"><title>Node3&#45;&gt;Node1</title>
<path style="fill:none;stroke:midnightblue;" d="M377,-203C364,-217 342,-238 321,-254 301,-268 277,-281 258,-290"/>
<polygon style="fill:midnightblue;stroke:midnightblue;" points="380.049,-204.831 384,-195 374.781,-200.221 380.049,-204.831"/>
</g>
<!-- Node4 -->
<g id="node7" class="node"><title>Node4</title>
<a xlink:href="_client_manager_8cpp.html" target="_top" xlink:title="S2Sim/ClientManager.cpp">
<polygon style="fill:white;stroke:black;" points="310,-116 310,-137 466,-137 466,-116 310,-116"/>
<text text-anchor="middle" x="388" y="-123" style="font-family:Arial;font-size:10.00;">S2Sim/ClientManager.cpp</text>
</a>
</g>
<!-- Node3&#45;&gt;Node4 -->
<g id="edge6" class="edge"><title>Node3&#45;&gt;Node4</title>
<path style="fill:none;stroke:midnightblue;" d="M388,-164C388,-154 388,-144 388,-137"/>
<polygon style="fill:midnightblue;stroke:midnightblue;" points="384.5,-164 388,-174 391.5,-164 384.5,-164"/>
</g>
<!-- Node5 -->
<g id="node9" class="node"><title>Node5</title>
<a xlink:href="_connection_manager_8h.html" target="_top" xlink:title="S2Sim/ConnectionManager.h">
<polygon style="fill:white;stroke:black;" points="484,-116 484,-137 658,-137 658,-116 484,-116"/>
<text text-anchor="middle" x="571" y="-123" style="font-family:Arial;font-size:10.00;">S2Sim/ConnectionManager.h</text>
</a>
</g>
<!-- Node3&#45;&gt;Node5 -->
<g id="edge8" class="edge"><title>Node3&#45;&gt;Node5</title>
<path style="fill:none;stroke:midnightblue;" d="M426,-171C458,-160 503,-146 534,-137"/>
<polygon style="fill:midnightblue;stroke:midnightblue;" points="425.38,-167.517 417,-174 427.594,-174.158 425.38,-167.517"/>
</g>
<!-- Node3&#45;&gt;Node6 -->
<g id="edge26" class="edge"><title>Node3&#45;&gt;Node6</title>
<path style="fill:none;stroke:midnightblue;" d="M349,-170C287,-147 163,-100 109,-79"/>
<polygon style="fill:midnightblue;stroke:midnightblue;" points="348.415,-173.536 359,-174 351.015,-167.036 348.415,-173.536"/>
</g>
<!-- Node5&#45;&gt;Node3 -->
<g id="edge10" class="edge"><title>Node5&#45;&gt;Node3</title>
<path style="fill:none;stroke:midnightblue;" d="M534,-140C504,-150 459,-164 428,-174"/>
<polygon style="fill:midnightblue;stroke:midnightblue;" points="535.427,-143.226 544,-137 533.416,-136.521 535.427,-143.226"/>
</g>
<!-- Node5&#45;&gt;Node6 -->
<g id="edge12" class="edge"><title>Node5&#45;&gt;Node6</title>
<path style="fill:none;stroke:midnightblue;" d="M474,-116C381,-105 243,-89 158,-78"/>
<polygon style="fill:midnightblue;stroke:midnightblue;" points="473.701,-119.488 484,-117 474.398,-112.522 473.701,-119.488"/>
</g>
<!-- Node5&#45;&gt;Node8 -->
<g id="edge22" class="edge"><title>Node5&#45;&gt;Node8</title>
<path style="fill:none;stroke:midnightblue;" d="M571,-106C569,-90 565,-70 552,-58 515,-24 374,-15 296,-12"/>
<polygon style="fill:midnightblue;stroke:midnightblue;" points="567.5,-106 571,-116 574.5,-106 567.5,-106"/>
</g>
<!-- Node9 -->
<g id="node19" class="node"><title>Node9</title>
<a xlink:href="_connection_manager_8cpp.html" target="_top" xlink:title="S2Sim/ConnectionManager.cpp">
<polygon style="fill:white;stroke:black;" points="357,-58 357,-79 544,-79 544,-58 357,-58"/>
<text text-anchor="middle" x="450" y="-65" style="font-family:Arial;font-size:10.00;">S2Sim/ConnectionManager.cpp</text>
</a>
</g>
<!-- Node5&#45;&gt;Node9 -->
<g id="edge20" class="edge"><title>Node5&#45;&gt;Node9</title>
<path style="fill:none;stroke:midnightblue;" d="M539,-112C517,-101 489,-88 471,-79"/>
<polygon style="fill:midnightblue;stroke:midnightblue;" points="537.44,-115.137 548,-116 540.283,-108.74 537.44,-115.137"/>
</g>
<!-- Node6&#45;&gt;Node1 -->
<g id="edge14" class="edge"><title>Node6&#45;&gt;Node1</title>
<path style="fill:none;stroke:midnightblue;" d="M81,-89C77,-116 70,-162 88,-196 114,-244 173,-275 206,-290"/>
<polygon style="fill:midnightblue;stroke:midnightblue;" points="84.4708,-89.4922 83,-79 77.6067,-88.1194 84.4708,-89.4922"/>
</g>
<!-- Node7 -->
<g id="node15" class="node"><title>Node7</title>
<a xlink:href="_control_manager_8cpp.html" target="_top" xlink:title="S2Sim/ControlManager.cpp">
<polygon style="fill:white;stroke:black;" points="0,-0 0,-21 164,-21 164,-0 0,-0"/>
<text text-anchor="middle" x="82" y="-7" style="font-family:Arial;font-size:10.00;">S2Sim/ControlManager.cpp</text>
</a>
</g>
<!-- Node6&#45;&gt;Node7 -->
<g id="edge16" class="edge"><title>Node6&#45;&gt;Node7</title>
<path style="fill:none;stroke:midnightblue;" d="M82,-48C82,-38 82,-28 82,-21"/>
<polygon style="fill:midnightblue;stroke:midnightblue;" points="78.5001,-48 82,-58 85.5001,-48 78.5001,-48"/>
</g>
<!-- Node6&#45;&gt;Node8 -->
<g id="edge18" class="edge"><title>Node6&#45;&gt;Node8</title>
<path style="fill:none;stroke:midnightblue;" d="M123,-55C152,-44 190,-30 216,-21"/>
<polygon style="fill:midnightblue;stroke:midnightblue;" points="121.573,-51.7741 113,-58 123.584,-58.4788 121.573,-51.7741"/>
</g>
</g>
</svg>
