<?xml version="1.0" encoding="UTF-8" standalone="no"?>
<!DOCTYPE svg PUBLIC "-//W3C//DTD SVG 1.0//EN"
 "http://www.w3.org/TR/2001/REC-SVG-20010904/DTD/svg10.dtd" [
 <!ATTLIST svg xmlns:xlink CDATA #FIXED "http://www.w3.org/1999/xlink">
]>
<!-- Generated by Graphviz version 2.14.1 (Fri Nov  9 08:19:38 GMT 2007)
     For user: (asakyurek) Alper Sinan Akyurek -->
<!-- Title: S2Sim/SocketLibrary/TCPServer.cpp Pages: 1 -->
<svg width="369pt" height="332pt"
 viewBox="0.00 0.00 369.00 332.00" xmlns="http://www.w3.org/2000/svg" xmlns:xlink="http://www.w3.org/1999/xlink">
<g id="graph0" class="graph" transform="scale(1 1) rotate(0) translate(4 328)">
<title>S2Sim/SocketLibrary/TCPServer.cpp</title>
<polygon style="fill:white;stroke:white;" points="-4,4 -4,-328 365,-328 365,4 -4,4"/>
<!-- Node1 -->
<g id="node1" class="node"><title>Node1</title>
<polygon style="fill:#bfbfbf;stroke:black;" points="0,-290 0,-324 127,-324 127,-290 0,-290"/>
<text text-anchor="start" x="8" y="-310" style="font-family:Arial;font-size:10.00;">S2Sim/SocketLibrary</text>
<text text-anchor="middle" x="63" y="-297" style="font-family:Arial;font-size:10.00;">/TCPServer.cpp</text>
</g>
<!-- Node2 -->
<g id="node3" class="node"><title>Node2</title>
<a xlink:href="_t_c_p_server_8h.html" target="_top" xlink:title="Defines the TCPServer class. ">
<polygon style="fill:white;stroke:black;" points="22,-232 22,-253 104,-253 104,-232 22,-232"/>
<text text-anchor="middle" x="63" y="-239" style="font-family:Arial;font-size:10.00;">TCPServer.h</text>
</a>
</g>
<!-- Node1&#45;&gt;Node2 -->
<g id="edge2" class="edge"><title>Node1&#45;&gt;Node2</title>
<path style="fill:none;stroke:midnightblue;" d="M63,-290C63,-282 63,-272 63,-263"/>
<polygon style="fill:midnightblue;stroke:midnightblue;" points="66.5001,-263 63,-253 59.5001,-263 66.5001,-263"/>
</g>
<!-- Node3 -->
<g id="node5" class="node"><title>Node3</title>
<a xlink:href="_socket_base_8h.html" target="_top" xlink:title="Defines the SocketBase template class. ">
<polygon style="fill:white;stroke:black;" points="116,-58 116,-79 205,-79 205,-58 116,-58"/>
<text text-anchor="middle" x="160" y="-65" style="font-family:Arial;font-size:10.00;">SocketBase.h</text>
</a>
</g>
<!-- Node2&#45;&gt;Node3 -->
<g id="edge4" class="edge"><title>Node2&#45;&gt;Node3</title>
<path style="fill:none;stroke:midnightblue;" d="M62,-232C59,-208 57,-152 82,-116 91,-101 107,-91 122,-83"/>
<polygon style="fill:midnightblue;stroke:midnightblue;" points="123.283,-86.2598 131,-79 120.44,-79.8631 123.283,-86.2598"/>
</g>
<!-- Node5 -->
<g id="node9" class="node"><title>Node5</title>
<a xlink:href="_i_p_address_8h.html" target="_top" xlink:title="Defines the IPAddress class. ">
<polygon style="fill:white;stroke:black;" points="5,-58 5,-79 82,-79 82,-58 5,-58"/>
<text text-anchor="middle" x="43" y="-65" style="font-family:Arial;font-size:10.00;">IPAddress.h</text>
</a>
</g>
<!-- Node2&#45;&gt;Node5 -->
<g id="edge8" class="edge"><title>Node2&#45;&gt;Node5</title>
<path style="fill:none;stroke:midnightblue;" d="M59,-232C55,-222 51,-208 49,-196 42,-159 42,-115 43,-89"/>
<polygon style="fill:midnightblue;stroke:midnightblue;" points="46.5001,-89 43,-79 39.5001,-89 46.5001,-89"/>
</g>
<!-- Node7 -->
<g id="node13" class="node"><title>Node7</title>
<a xlink:href="_threaded_t_c_p_connected_client_8h.html" target="_top" xlink:title="Defeines the ThreadedTCPConnectedClient class. ">
<polygon style="fill:white;stroke:black;" points="143,-174 143,-195 335,-195 335,-174 143,-174"/>
<text text-anchor="middle" x="239" y="-181" style="font-family:Arial;font-size:10.00;">ThreadedTCPConnectedClient.h</text>
</a>
</g>
<!-- Node2&#45;&gt;Node7 -->
<g id="edge12" class="edge"><title>Node2&#45;&gt;Node7</title>
<path style="fill:none;stroke:midnightblue;" d="M97,-232C126,-222 169,-208 199,-198"/>
<polygon style="fill:midnightblue;stroke:midnightblue;" points="200.427,-201.226 209,-195 198.416,-194.521 200.427,-201.226"/>
</g>
<!-- Node4 -->
<g id="node7" class="node"><title>Node4</title>
<polygon style="fill:white;stroke:#bfbfbf;" points="206,-0 206,-21 270,-21 270,-0 206,-0"/>
<text text-anchor="middle" x="238" y="-7" style="font-family:Arial;font-size:10.00;">iostream</text>
</g>
<!-- Node3&#45;&gt;Node4 -->
<g id="edge6" class="edge"><title>Node3&#45;&gt;Node4</title>
<path style="fill:none;stroke:midnightblue;" d="M175,-58C187,-49 204,-37 217,-27"/>
<polygon style="fill:midnightblue;stroke:midnightblue;" points="219.1,-29.8 225,-21 214.9,-24.2 219.1,-29.8"/>
</g>
<!-- Node6 -->
<g id="node11" class="node"><title>Node6</title>
<polygon style="fill:white;stroke:#bfbfbf;" points="15,-0 15,-21 71,-21 71,-0 15,-0"/>
<text text-anchor="middle" x="43" y="-7" style="font-family:Arial;font-size:10.00;">string.h</text>
</g>
<!-- Node5&#45;&gt;Node6 -->
<g id="edge10" class="edge"><title>Node5&#45;&gt;Node6</title>
<path style="fill:none;stroke:midnightblue;" d="M43,-58C43,-50 43,-40 43,-31"/>
<polygon style="fill:midnightblue;stroke:midnightblue;" points="46.5001,-31 43,-21 39.5001,-31 46.5001,-31"/>
</g>
<!-- Node8 -->
<g id="node15" class="node"><title>Node8</title>
<a xlink:href="_t_c_p_connected_client_8h.html" target="_top" xlink:title="Defines the TCPConnectedClient class. ">
<polygon style="fill:white;stroke:black;" points="91,-116 91,-137 230,-137 230,-116 91,-116"/>
<text text-anchor="middle" x="160" y="-123" style="font-family:Arial;font-size:10.00;">TCPConnectedClient.h</text>
</a>
</g>
<!-- Node7&#45;&gt;Node8 -->
<g id="edge14" class="edge"><title>Node7&#45;&gt;Node8</title>
<path style="fill:none;stroke:midnightblue;" d="M224,-174C212,-165 195,-153 182,-143"/>
<polygon style="fill:midnightblue;stroke:midnightblue;" points="184.1,-140.2 174,-137 179.9,-145.8 184.1,-140.2"/>
</g>
<!-- Node9 -->
<g id="node19" class="node"><title>Node9</title>
<a xlink:href="_thread_base_8h.html" target="_top" xlink:title="This file selects the right implementation according to the current OS. ">
<polygon style="fill:white;stroke:black;" points="247,-116 247,-137 338,-137 338,-116 247,-116"/>
<text text-anchor="middle" x="292" y="-123" style="font-family:Arial;font-size:10.00;">ThreadBase.h</text>
</a>
</g>
<!-- Node7&#45;&gt;Node9 -->
<g id="edge20" class="edge"><title>Node7&#45;&gt;Node9</title>
<path style="fill:none;stroke:midnightblue;" d="M249,-174C257,-165 267,-154 276,-145"/>
<polygon style="fill:midnightblue;stroke:midnightblue;" points="279.049,-146.831 283,-137 273.781,-142.221 279.049,-146.831"/>
</g>
<!-- Node10 -->
<g id="node21" class="node"><title>Node10</title>
<a xlink:href="_semaphore_8h.html" target="_top" xlink:title="Defines the Semaphore class under Windows 32/64bit and POSIX enables OSes. ">
<polygon style="fill:white;stroke:black;" points="271,-58 271,-79 361,-79 361,-58 271,-58"/>
<text text-anchor="middle" x="316" y="-65" style="font-family:Arial;font-size:10.00;">Semaphore.h</text>
</a>
</g>
<!-- Node7&#45;&gt;Node10 -->
<g id="edge22" class="edge"><title>Node7&#45;&gt;Node10</title>
<path style="fill:none;stroke:midnightblue;" d="M294,-174C313,-167 334,-156 346,-138 356,-122 345,-101 334,-87"/>
<polygon style="fill:midnightblue;stroke:midnightblue;" points="336.219,-84.221 327,-79 330.951,-88.8306 336.219,-84.221"/>
</g>
<!-- Node8&#45;&gt;Node3 -->
<g id="edge16" class="edge"><title>Node8&#45;&gt;Node3</title>
<path style="fill:none;stroke:midnightblue;" d="M160,-116C160,-108 160,-98 160,-89"/>
<polygon style="fill:midnightblue;stroke:midnightblue;" points="163.5,-89 160,-79 156.5,-89 163.5,-89"/>
</g>
<!-- Node8&#45;&gt;Node5 -->
<g id="edge18" class="edge"><title>Node8&#45;&gt;Node5</title>
<path style="fill:none;stroke:midnightblue;" d="M138,-116C119,-107 93,-93 72,-83"/>
<polygon style="fill:midnightblue;stroke:midnightblue;" points="73.5596,-79.8631 63,-79 70.7166,-86.2598 73.5596,-79.8631"/>
</g>
<!-- Node10&#45;&gt;Node4 -->
<g id="edge24" class="edge"><title>Node10&#45;&gt;Node4</title>
<path style="fill:none;stroke:midnightblue;" d="M301,-58C289,-49 272,-37 259,-27"/>
<polygon style="fill:midnightblue;stroke:midnightblue;" points="261.1,-24.2 251,-21 256.9,-29.8 261.1,-24.2"/>
</g>
</g>
</svg>
