<?xml version="1.0" encoding="UTF-8" standalone="no"?>
<!DOCTYPE svg PUBLIC "-//W3C//DTD SVG 1.0//EN"
 "http://www.w3.org/TR/2001/REC-SVG-20010904/DTD/svg10.dtd" [
 <!ATTLIST svg xmlns:xlink CDATA #FIXED "http://www.w3.org/1999/xlink">
]>
<!-- Generated by Graphviz version 2.14.1 (Fri Nov  9 08:19:38 GMT 2007)
     For user: (asakyurek) Alper Sinan Akyurek -->
<!-- Title: S2Sim/SocketLibrary/TCPClient.h Pages: 1 -->
<svg width="293pt" height="182pt"
 viewBox="0.00 0.00 293.00 182.00" xmlns="http://www.w3.org/2000/svg" xmlns:xlink="http://www.w3.org/1999/xlink">
<g id="graph0" class="graph" transform="scale(1 1) rotate(0) translate(4 178)">
<title>S2Sim/SocketLibrary/TCPClient.h</title>
<polygon style="fill:white;stroke:white;" points="-4,4 -4,-178 289,-178 289,4 -4,4"/>
<!-- Node1 -->
<g id="node1" class="node"><title>Node1</title>
<polygon style="fill:#bfbfbf;stroke:black;" points="74,-140 74,-174 201,-174 201,-140 74,-140"/>
<text text-anchor="start" x="82" y="-160" style="font-family:Arial;font-size:10.00;">S2Sim/SocketLibrary</text>
<text text-anchor="middle" x="137" y="-147" style="font-family:Arial;font-size:10.00;">/TCPClient.h</text>
</g>
<!-- Node2 -->
<g id="node3" class="node"><title>Node2</title>
<a xlink:href="_t_c_p_client_8cpp.html" target="_top" xlink:title="Implements the TCPClient class. ">
<polygon style="fill:white;stroke:black;" points="0,-70 0,-104 127,-104 127,-70 0,-70"/>
<text text-anchor="start" x="8" y="-90" style="font-family:Arial;font-size:10.00;">S2Sim/SocketLibrary</text>
<text text-anchor="middle" x="63" y="-77" style="font-family:Arial;font-size:10.00;">/TCPClient.cpp</text>
</a>
</g>
<!-- Node1&#45;&gt;Node2 -->
<g id="edge2" class="edge"><title>Node1&#45;&gt;Node2</title>
<path style="fill:none;stroke:midnightblue;" d="M111,-133C101,-123 91,-113 81,-104"/>
<polygon style="fill:midnightblue;stroke:midnightblue;" points="109.169,-136.049 119,-140 113.779,-130.781 109.169,-136.049"/>
</g>
<!-- Node3 -->
<g id="node5" class="node"><title>Node3</title>
<a xlink:href="_threaded_t_c_p_client_8h.html" target="_top" xlink:title="Defines the ThreadedTCPClient class. ">
<polygon style="fill:white;stroke:black;" points="144,-70 144,-104 279,-104 279,-70 144,-70"/>
<text text-anchor="start" x="152" y="-90" style="font-family:Arial;font-size:10.00;">S2Sim/SocketLibrary</text>
<text text-anchor="middle" x="211" y="-77" style="font-family:Arial;font-size:10.00;">/ThreadedTCPClient.h</text>
</a>
</g>
<!-- Node1&#45;&gt;Node3 -->
<g id="edge4" class="edge"><title>Node1&#45;&gt;Node3</title>
<path style="fill:none;stroke:midnightblue;" d="M163,-133C173,-123 183,-113 193,-104"/>
<polygon style="fill:midnightblue;stroke:midnightblue;" points="160.221,-130.781 155,-140 164.831,-136.049 160.221,-130.781"/>
</g>
<!-- Node4 -->
<g id="node7" class="node"><title>Node4</title>
<a xlink:href="_threaded_t_c_p_client_8cpp.html" target="_top" xlink:title="Implements the ThreadedTCPClient class. ">
<polygon style="fill:white;stroke:black;" points="137,-0 137,-34 285,-34 285,-0 137,-0"/>
<text text-anchor="start" x="145" y="-20" style="font-family:Arial;font-size:10.00;">S2Sim/SocketLibrary</text>
<text text-anchor="middle" x="211" y="-7" style="font-family:Arial;font-size:10.00;">/ThreadedTCPClient.cpp</text>
</a>
</g>
<!-- Node3&#45;&gt;Node4 -->
<g id="edge6" class="edge"><title>Node3&#45;&gt;Node4</title>
<path style="fill:none;stroke:midnightblue;" d="M211,-60C211,-51 211,-42 211,-34"/>
<polygon style="fill:midnightblue;stroke:midnightblue;" points="207.5,-60 211,-70 214.5,-60 207.5,-60"/>
</g>
</g>
</svg>
