<?xml version="1.0" encoding="UTF-8" standalone="no"?>
<!DOCTYPE svg PUBLIC "-//W3C//DTD SVG 1.0//EN"
 "http://www.w3.org/TR/2001/REC-SVG-20010904/DTD/svg10.dtd" [
 <!ATTLIST svg xmlns:xlink CDATA #FIXED "http://www.w3.org/1999/xlink">
]>
<!-- Generated by Graphviz version 2.14.1 (Fri Nov  9 08:19:38 GMT 2007)
     For user: (asakyurek) Alper Sinan Akyurek -->
<!-- Title: S2Sim/SocketLibrary/TCPConnectedClient.cpp Pages: 1 -->
<svg width="190pt" height="216pt"
 viewBox="0.00 0.00 190.00 216.00" xmlns="http://www.w3.org/2000/svg" xmlns:xlink="http://www.w3.org/1999/xlink">
<g id="graph0" class="graph" transform="scale(1 1) rotate(0) translate(4 212)">
<title>S2Sim/SocketLibrary/TCPConnectedClient.cpp</title>
<polygon style="fill:white;stroke:white;" points="-4,4 -4,-212 186,-212 186,4 -4,4"/>
<!-- Node1 -->
<g id="node1" class="node"><title>Node1</title>
<polygon style="fill:#bfbfbf;stroke:black;" points="17,-174 17,-208 172,-208 172,-174 17,-174"/>
<text text-anchor="start" x="25" y="-194" style="font-family:Arial;font-size:10.00;">S2Sim/SocketLibrary</text>
<text text-anchor="middle" x="94" y="-181" style="font-family:Arial;font-size:10.00;">/TCPConnectedClient.cpp</text>
</g>
<!-- Node2 -->
<g id="node3" class="node"><title>Node2</title>
<a xlink:href="_t_c_p_connected_client_8h.html" target="_top" xlink:title="TCPConnectedClient.h">
<polygon style="fill:white;stroke:black;" points="25,-116 25,-137 164,-137 164,-116 25,-116"/>
<text text-anchor="middle" x="94" y="-123" style="font-family:Arial;font-size:10.00;">TCPConnectedClient.h</text>
</a>
</g>
<!-- Node1&#45;&gt;Node2 -->
<g id="edge2" class="edge"><title>Node1&#45;&gt;Node2</title>
<path style="fill:none;stroke:midnightblue;" d="M94,-174C94,-166 94,-156 94,-147"/>
<polygon style="fill:midnightblue;stroke:midnightblue;" points="97.5001,-147 94,-137 90.5001,-147 97.5001,-147"/>
</g>
<!-- Node3 -->
<g id="node5" class="node"><title>Node3</title>
<a xlink:href="_socket_base_8h.html" target="_top" xlink:title="SocketBase.h">
<polygon style="fill:white;stroke:black;" points="0,-58 0,-79 89,-79 89,-58 0,-58"/>
<text text-anchor="middle" x="44" y="-65" style="font-family:Arial;font-size:10.00;">SocketBase.h</text>
</a>
</g>
<!-- Node2&#45;&gt;Node3 -->
<g id="edge4" class="edge"><title>Node2&#45;&gt;Node3</title>
<path style="fill:none;stroke:midnightblue;" d="M84,-116C77,-108 67,-96 59,-87"/>
<polygon style="fill:midnightblue;stroke:midnightblue;" points="61.8,-84.9 53,-79 56.2,-89.1 61.8,-84.9"/>
</g>
<!-- Node5 -->
<g id="node9" class="node"><title>Node5</title>
<a xlink:href="_i_p_address_8h.html" target="_top" xlink:title="IPAddress.h">
<polygon style="fill:white;stroke:black;" points="106,-58 106,-79 183,-79 183,-58 106,-58"/>
<text text-anchor="middle" x="144" y="-65" style="font-family:Arial;font-size:10.00;">IPAddress.h</text>
</a>
</g>
<!-- Node2&#45;&gt;Node5 -->
<g id="edge8" class="edge"><title>Node2&#45;&gt;Node5</title>
<path style="fill:none;stroke:midnightblue;" d="M104,-116C111,-108 121,-96 129,-87"/>
<polygon style="fill:midnightblue;stroke:midnightblue;" points="131.8,-89.1 135,-79 126.2,-84.9 131.8,-89.1"/>
</g>
<!-- Node4 -->
<g id="node7" class="node"><title>Node4</title>
<polygon style="fill:white;stroke:#bfbfbf;" points="12,-0 12,-21 76,-21 76,-0 12,-0"/>
<text text-anchor="middle" x="44" y="-7" style="font-family:Arial;font-size:10.00;">iostream</text>
</g>
<!-- Node3&#45;&gt;Node4 -->
<g id="edge6" class="edge"><title>Node3&#45;&gt;Node4</title>
<path style="fill:none;stroke:midnightblue;" d="M44,-58C44,-50 44,-40 44,-31"/>
<polygon style="fill:midnightblue;stroke:midnightblue;" points="47.5001,-31 44,-21 40.5001,-31 47.5001,-31"/>
</g>
<!-- Node6 -->
<g id="node11" class="node"><title>Node6</title>
<polygon style="fill:white;stroke:#bfbfbf;" points="116,-0 116,-21 172,-21 172,-0 116,-0"/>
<text text-anchor="middle" x="144" y="-7" style="font-family:Arial;font-size:10.00;">string.h</text>
</g>
<!-- Node5&#45;&gt;Node6 -->
<g id="edge10" class="edge"><title>Node5&#45;&gt;Node6</title>
<path style="fill:none;stroke:midnightblue;" d="M144,-58C144,-50 144,-40 144,-31"/>
<polygon style="fill:midnightblue;stroke:midnightblue;" points="147.5,-31 144,-21 140.5,-31 147.5,-31"/>
</g>
</g>
</svg>
