<?xml version="1.0" encoding="UTF-8" standalone="no"?>
<!DOCTYPE svg PUBLIC "-//W3C//DTD SVG 1.0//EN"
 "http://www.w3.org/TR/2001/REC-SVG-20010904/DTD/svg10.dtd" [
 <!ATTLIST svg xmlns:xlink CDATA #FIXED "http://www.w3.org/1999/xlink">
]>
<!-- Generated by Graphviz version 2.14.1 (Fri Nov  9 08:19:38 GMT 2007)
     For user: (asakyurek) Alper Sinan Akyurek -->
<!-- Title: S2Sim/SocketLibrary/TCPConnectedClient.h Pages: 1 -->
<svg width="190pt" height="158pt"
 viewBox="0.00 0.00 190.00 158.00" xmlns="http://www.w3.org/2000/svg" xmlns:xlink="http://www.w3.org/1999/xlink">
<g id="graph0" class="graph" transform="scale(1 1) rotate(0) translate(4 154)">
<title>S2Sim/SocketLibrary/TCPConnectedClient.h</title>
<polygon style="fill:white;stroke:white;" points="-4,4 -4,-154 186,-154 186,4 -4,4"/>
<!-- Node1 -->
<g id="node1" class="node"><title>Node1</title>
<polygon style="fill:#bfbfbf;stroke:black;" points="23,-116 23,-150 165,-150 165,-116 23,-116"/>
<text text-anchor="start" x="31" y="-136" style="font-family:Arial;font-size:10.00;">S2Sim/SocketLibrary</text>
<text text-anchor="middle" x="94" y="-123" style="font-family:Arial;font-size:10.00;">/TCPConnectedClient.h</text>
</g>
<!-- Node2 -->
<g id="node3" class="node"><title>Node2</title>
<a xlink:href="_socket_base_8h.html" target="_top" xlink:title="Defines the SocketBase template class. ">
<polygon style="fill:white;stroke:black;" points="0,-58 0,-79 89,-79 89,-58 0,-58"/>
<text text-anchor="middle" x="44" y="-65" style="font-family:Arial;font-size:10.00;">SocketBase.h</text>
</a>
</g>
<!-- Node1&#45;&gt;Node2 -->
<g id="edge2" class="edge"><title>Node1&#45;&gt;Node2</title>
<path style="fill:none;stroke:midnightblue;" d="M81,-116C74,-107 66,-96 58,-87"/>
<polygon style="fill:midnightblue;stroke:midnightblue;" points="60.8,-84.9 52,-79 55.2,-89.1 60.8,-84.9"/>
</g>
<!-- Node4 -->
<g id="node7" class="node"><title>Node4</title>
<a xlink:href="_i_p_address_8h.html" target="_top" xlink:title="Defines the IPAddress class. ">
<polygon style="fill:white;stroke:black;" points="106,-58 106,-79 183,-79 183,-58 106,-58"/>
<text text-anchor="middle" x="144" y="-65" style="font-family:Arial;font-size:10.00;">IPAddress.h</text>
</a>
</g>
<!-- Node1&#45;&gt;Node4 -->
<g id="edge6" class="edge"><title>Node1&#45;&gt;Node4</title>
<path style="fill:none;stroke:midnightblue;" d="M107,-116C114,-107 122,-96 130,-87"/>
<polygon style="fill:midnightblue;stroke:midnightblue;" points="132.8,-89.1 136,-79 127.2,-84.9 132.8,-89.1"/>
</g>
<!-- Node3 -->
<g id="node5" class="node"><title>Node3</title>
<polygon style="fill:white;stroke:#bfbfbf;" points="12,-0 12,-21 76,-21 76,-0 12,-0"/>
<text text-anchor="middle" x="44" y="-7" style="font-family:Arial;font-size:10.00;">iostream</text>
</g>
<!-- Node2&#45;&gt;Node3 -->
<g id="edge4" class="edge"><title>Node2&#45;&gt;Node3</title>
<path style="fill:none;stroke:midnightblue;" d="M44,-58C44,-50 44,-40 44,-31"/>
<polygon style="fill:midnightblue;stroke:midnightblue;" points="47.5001,-31 44,-21 40.5001,-31 47.5001,-31"/>
</g>
<!-- Node5 -->
<g id="node9" class="node"><title>Node5</title>
<polygon style="fill:white;stroke:#bfbfbf;" points="116,-0 116,-21 172,-21 172,-0 116,-0"/>
<text text-anchor="middle" x="144" y="-7" style="font-family:Arial;font-size:10.00;">string.h</text>
</g>
<!-- Node4&#45;&gt;Node5 -->
<g id="edge8" class="edge"><title>Node4&#45;&gt;Node5</title>
<path style="fill:none;stroke:midnightblue;" d="M144,-58C144,-50 144,-40 144,-31"/>
<polygon style="fill:midnightblue;stroke:midnightblue;" points="147.5,-31 144,-21 140.5,-31 147.5,-31"/>
</g>
</g>
</svg>
