<?xml version="1.0" encoding="UTF-8" standalone="no"?>
<!DOCTYPE svg PUBLIC "-//W3C//DTD SVG 1.0//EN"
 "http://www.w3.org/TR/2001/REC-SVG-20010904/DTD/svg10.dtd" [
 <!ATTLIST svg xmlns:xlink CDATA #FIXED "http://www.w3.org/1999/xlink">
]>
<!-- Generated by Graphviz version 2.14.1 (Fri Nov  9 08:19:38 GMT 2007)
     For user: (asakyurek) Alper Sinan Akyurek -->
<!-- Title: S2Sim/TerraswarmLibrary/main.cpp Pages: 1 -->
<svg width="266pt" height="158pt"
 viewBox="0.00 0.00 266.00 158.00" xmlns="http://www.w3.org/2000/svg" xmlns:xlink="http://www.w3.org/1999/xlink">
<g id="graph0" class="graph" transform="scale(1 1) rotate(0) translate(4 154)">
<title>S2Sim/TerraswarmLibrary/main.cpp</title>
<polygon style="fill:white;stroke:white;" points="-4,4 -4,-154 262,-154 262,4 -4,4"/>
<!-- Node1 -->
<g id="node1" class="node"><title>Node1</title>
<polygon style="fill:#bfbfbf;stroke:black;" points="43,-116 43,-150 196,-150 196,-116 43,-116"/>
<text text-anchor="start" x="51" y="-136" style="font-family:Arial;font-size:10.00;">S2Sim/TerraswarmLibrary</text>
<text text-anchor="middle" x="119" y="-123" style="font-family:Arial;font-size:10.00;">/main.cpp</text>
</g>
<!-- Node2 -->
<g id="node3" class="node"><title>Node2</title>
<a xlink:href="_network_byte_accessor_8h.html" target="_top" xlink:title="NetworkByteAccessor.h">
<polygon style="fill:white;stroke:black;" points="0,-58 0,-79 141,-79 141,-58 0,-58"/>
<text text-anchor="middle" x="70" y="-65" style="font-family:Arial;font-size:10.00;">NetworkByteAccessor.h</text>
</a>
</g>
<!-- Node1&#45;&gt;Node2 -->
<g id="edge2" class="edge"><title>Node1&#45;&gt;Node2</title>
<path style="fill:none;stroke:midnightblue;" d="M106,-116C99,-107 91,-96 84,-87"/>
<polygon style="fill:midnightblue;stroke:midnightblue;" points="86.8,-84.9 78,-79 81.2,-89.1 86.8,-84.9"/>
</g>
<!-- Node4 -->
<g id="node7" class="node"><title>Node4</title>
<a xlink:href="_compile_time_checker_library_8h.html" target="_top" xlink:title="CompileTimeCheckerLibrary.h">
<polygon style="fill:white;stroke:black;" points="78,-0 78,-21 259,-21 259,-0 78,-0"/>
<text text-anchor="middle" x="168" y="-7" style="font-family:Arial;font-size:10.00;">CompileTimeCheckerLibrary.h</text>
</a>
</g>
<!-- Node1&#45;&gt;Node4 -->
<g id="edge8" class="edge"><title>Node1&#45;&gt;Node4</title>
<path style="fill:none;stroke:midnightblue;" d="M130,-116C136,-106 144,-93 149,-80 155,-64 160,-45 164,-31"/>
<polygon style="fill:midnightblue;stroke:midnightblue;" points="167.471,-31.4922 166,-21 160.607,-30.1194 167.471,-31.4922"/>
</g>
<!-- Node3 -->
<g id="node5" class="node"><title>Node3</title>
<polygon style="fill:white;stroke:#bfbfbf;" points="4,-0 4,-21 60,-21 60,-0 4,-0"/>
<text text-anchor="middle" x="32" y="-7" style="font-family:Arial;font-size:10.00;">string.h</text>
</g>
<!-- Node2&#45;&gt;Node3 -->
<g id="edge4" class="edge"><title>Node2&#45;&gt;Node3</title>
<path style="fill:none;stroke:midnightblue;" d="M63,-58C58,-50 50,-39 44,-30"/>
<polygon style="fill:midnightblue;stroke:midnightblue;" points="46.916,-28.0418 39,-21 40.7969,-31.4414 46.916,-28.0418"/>
</g>
<!-- Node2&#45;&gt;Node4 -->
<g id="edge6" class="edge"><title>Node2&#45;&gt;Node4</title>
<path style="fill:none;stroke:midnightblue;" d="M89,-58C104,-49 126,-36 142,-26"/>
<polygon style="fill:midnightblue;stroke:midnightblue;" points="143.958,-28.916 151,-21 140.559,-22.7969 143.958,-28.916"/>
</g>
</g>
</svg>
