<?xml version="1.0" encoding="UTF-8" standalone="no"?>
<!DOCTYPE svg PUBLIC "-//W3C//DTD SVG 1.0//EN"
 "http://www.w3.org/TR/2001/REC-SVG-20010904/DTD/svg10.dtd" [
 <!ATTLIST svg xmlns:xlink CDATA #FIXED "http://www.w3.org/1999/xlink">
]>
<!-- Generated by Graphviz version 2.14.1 (Fri Nov  9 08:19:38 GMT 2007)
     For user: (asakyurek) Alper Sinan Akyurek -->
<!-- Title: S2Sim/SocketLibrary/ThreadedTCPClient.h Pages: 1 -->
<svg width="298pt" height="216pt"
 viewBox="0.00 0.00 298.00 216.00" xmlns="http://www.w3.org/2000/svg" xmlns:xlink="http://www.w3.org/1999/xlink">
<g id="graph0" class="graph" transform="scale(1 1) rotate(0) translate(4 212)">
<title>S2Sim/SocketLibrary/ThreadedTCPClient.h</title>
<polygon style="fill:white;stroke:white;" points="-4,4 -4,-212 294,-212 294,4 -4,4"/>
<!-- Node1 -->
<g id="node1" class="node"><title>Node1</title>
<polygon style="fill:#bfbfbf;stroke:black;" points="105,-174 105,-208 240,-208 240,-174 105,-174"/>
<text text-anchor="start" x="113" y="-194" style="font-family:Arial;font-size:10.00;">S2Sim/SocketLibrary</text>
<text text-anchor="middle" x="172" y="-181" style="font-family:Arial;font-size:10.00;">/ThreadedTCPClient.h</text>
</g>
<!-- Node2 -->
<g id="node3" class="node"><title>Node2</title>
<a xlink:href="_t_c_p_client_8h.html" target="_top" xlink:title="TCPClient.h">
<polygon style="fill:white;stroke:black;" points="31,-116 31,-137 110,-137 110,-116 31,-116"/>
<text text-anchor="middle" x="70" y="-123" style="font-family:Arial;font-size:10.00;">TCPClient.h</text>
</a>
</g>
<!-- Node1&#45;&gt;Node2 -->
<g id="edge2" class="edge"><title>Node1&#45;&gt;Node2</title>
<path style="fill:none;stroke:midnightblue;" d="M145,-174C129,-164 109,-152 95,-143"/>
<polygon style="fill:midnightblue;stroke:midnightblue;" points="96.262,-139.635 86,-137 92.3791,-145.459 96.262,-139.635"/>
</g>
<!-- Node7 -->
<g id="node13" class="node"><title>Node7</title>
<a xlink:href="_thread_base_8h.html" target="_top" xlink:title="ThreadBase.h">
<polygon style="fill:white;stroke:black;" points="127,-116 127,-137 218,-137 218,-116 127,-116"/>
<text text-anchor="middle" x="172" y="-123" style="font-family:Arial;font-size:10.00;">ThreadBase.h</text>
</a>
</g>
<!-- Node1&#45;&gt;Node7 -->
<g id="edge12" class="edge"><title>Node1&#45;&gt;Node7</title>
<path style="fill:none;stroke:midnightblue;" d="M172,-174C172,-166 172,-156 172,-147"/>
<polygon style="fill:midnightblue;stroke:midnightblue;" points="175.5,-147 172,-137 168.5,-147 175.5,-147"/>
</g>
<!-- Node8 -->
<g id="node15" class="node"><title>Node8</title>
<a xlink:href="_semaphore_8h.html" target="_top" xlink:title="Semaphore.h">
<polygon style="fill:white;stroke:black;" points="200,-58 200,-79 290,-79 290,-58 200,-58"/>
<text text-anchor="middle" x="245" y="-65" style="font-family:Arial;font-size:10.00;">Semaphore.h</text>
</a>
</g>
<!-- Node1&#45;&gt;Node8 -->
<g id="edge14" class="edge"><title>Node1&#45;&gt;Node8</title>
<path style="fill:none;stroke:midnightblue;" d="M194,-174C205,-164 217,-151 226,-138 235,-123 240,-104 242,-89"/>
<polygon style="fill:midnightblue;stroke:midnightblue;" points="245.471,-89.4922 244,-79 238.607,-88.1194 245.471,-89.4922"/>
</g>
<!-- Node3 -->
<g id="node5" class="node"><title>Node3</title>
<a xlink:href="_socket_base_8h.html" target="_top" xlink:title="SocketBase.h">
<polygon style="fill:white;stroke:black;" points="94,-58 94,-79 183,-79 183,-58 94,-58"/>
<text text-anchor="middle" x="138" y="-65" style="font-family:Arial;font-size:10.00;">SocketBase.h</text>
</a>
</g>
<!-- Node2&#45;&gt;Node3 -->
<g id="edge4" class="edge"><title>Node2&#45;&gt;Node3</title>
<path style="fill:none;stroke:midnightblue;" d="M83,-116C93,-107 107,-95 118,-85"/>
<polygon style="fill:midnightblue;stroke:midnightblue;" points="120.1,-87.8 126,-79 115.9,-82.2 120.1,-87.8"/>
</g>
<!-- Node5 -->
<g id="node9" class="node"><title>Node5</title>
<a xlink:href="_i_p_address_8h.html" target="_top" xlink:title="IPAddress.h">
<polygon style="fill:white;stroke:black;" points="0,-58 0,-79 77,-79 77,-58 0,-58"/>
<text text-anchor="middle" x="38" y="-65" style="font-family:Arial;font-size:10.00;">IPAddress.h</text>
</a>
</g>
<!-- Node2&#45;&gt;Node5 -->
<g id="edge8" class="edge"><title>Node2&#45;&gt;Node5</title>
<path style="fill:none;stroke:midnightblue;" d="M64,-116C60,-108 54,-97 49,-88"/>
<polygon style="fill:midnightblue;stroke:midnightblue;" points="51.916,-86.0418 44,-79 45.7969,-89.4414 51.916,-86.0418"/>
</g>
<!-- Node4 -->
<g id="node7" class="node"><title>Node4</title>
<polygon style="fill:white;stroke:#bfbfbf;" points="159,-0 159,-21 223,-21 223,-0 159,-0"/>
<text text-anchor="middle" x="191" y="-7" style="font-family:Arial;font-size:10.00;">iostream</text>
</g>
<!-- Node3&#45;&gt;Node4 -->
<g id="edge6" class="edge"><title>Node3&#45;&gt;Node4</title>
<path style="fill:none;stroke:midnightblue;" d="M148,-58C156,-49 166,-38 175,-29"/>
<polygon style="fill:midnightblue;stroke:midnightblue;" points="178.049,-30.8306 182,-21 172.781,-26.221 178.049,-30.8306"/>
</g>
<!-- Node6 -->
<g id="node11" class="node"><title>Node6</title>
<polygon style="fill:white;stroke:#bfbfbf;" points="10,-0 10,-21 66,-21 66,-0 10,-0"/>
<text text-anchor="middle" x="38" y="-7" style="font-family:Arial;font-size:10.00;">string.h</text>
</g>
<!-- Node5&#45;&gt;Node6 -->
<g id="edge10" class="edge"><title>Node5&#45;&gt;Node6</title>
<path style="fill:none;stroke:midnightblue;" d="M38,-58C38,-50 38,-40 38,-31"/>
<polygon style="fill:midnightblue;stroke:midnightblue;" points="41.5001,-31 38,-21 34.5001,-31 41.5001,-31"/>
</g>
<!-- Node8&#45;&gt;Node4 -->
<g id="edge16" class="edge"><title>Node8&#45;&gt;Node4</title>
<path style="fill:none;stroke:midnightblue;" d="M235,-58C227,-49 216,-38 207,-28"/>
<polygon style="fill:midnightblue;stroke:midnightblue;" points="209.546,-25.5962 200,-21 204.596,-30.546 209.546,-25.5962"/>
</g>
</g>
</svg>
