<?xml version="1.0" encoding="UTF-8" standalone="no"?>
<!DOCTYPE svg PUBLIC "-//W3C//DTD SVG 1.0//EN"
 "http://www.w3.org/TR/2001/REC-SVG-20010904/DTD/svg10.dtd" [
 <!ATTLIST svg xmlns:xlink CDATA #FIXED "http://www.w3.org/1999/xlink">
]>
<!-- Generated by Graphviz version 2.14.1 (Fri Nov  9 08:19:38 GMT 2007)
     For user: (asakyurek) Alper Sinan Akyurek -->
<!-- Title: S2Sim/SocketLibrary/ThreadedTCPServer.cpp Pages: 1 -->
<svg width="383pt" height="390pt"
 viewBox="0.00 0.00 383.00 390.00" xmlns="http://www.w3.org/2000/svg" xmlns:xlink="http://www.w3.org/1999/xlink">
<g id="graph0" class="graph" transform="scale(1 1) rotate(0) translate(4 386)">
<title>S2Sim/SocketLibrary/ThreadedTCPServer.cpp</title>
<polygon style="fill:white;stroke:white;" points="-4,4 -4,-386 379,-386 379,4 -4,4"/>
<!-- Node1 -->
<g id="node1" class="node"><title>Node1</title>
<polygon style="fill:#bfbfbf;stroke:black;" points="108,-348 108,-382 259,-382 259,-348 108,-348"/>
<text text-anchor="start" x="116" y="-368" style="font-family:Arial;font-size:10.00;">S2Sim/SocketLibrary</text>
<text text-anchor="middle" x="183" y="-355" style="font-family:Arial;font-size:10.00;">/ThreadedTCPServer.cpp</text>
</g>
<!-- Node2 -->
<g id="node3" class="node"><title>Node2</title>
<a xlink:href="_threaded_t_c_p_server_8h.html" target="_top" xlink:title="Defines the ThreadedTCPServer class. ">
<polygon style="fill:white;stroke:black;" points="116,-290 116,-311 251,-311 251,-290 116,-290"/>
<text text-anchor="middle" x="183" y="-297" style="font-family:Arial;font-size:10.00;">ThreadedTCPServer.h</text>
</a>
</g>
<!-- Node1&#45;&gt;Node2 -->
<g id="edge2" class="edge"><title>Node1&#45;&gt;Node2</title>
<path style="fill:none;stroke:midnightblue;" d="M183,-348C183,-340 183,-330 183,-321"/>
<polygon style="fill:midnightblue;stroke:midnightblue;" points="186.5,-321 183,-311 179.5,-321 186.5,-321"/>
</g>
<!-- Node3 -->
<g id="node5" class="node"><title>Node3</title>
<a xlink:href="_thread_base_8h.html" target="_top" xlink:title="This file selects the right implementation according to the current OS. ">
<polygon style="fill:white;stroke:black;" points="0,-116 0,-137 91,-137 91,-116 0,-116"/>
<text text-anchor="middle" x="45" y="-123" style="font-family:Arial;font-size:10.00;">ThreadBase.h</text>
</a>
</g>
<!-- Node2&#45;&gt;Node3 -->
<g id="edge4" class="edge"><title>Node2&#45;&gt;Node3</title>
<path style="fill:none;stroke:midnightblue;" d="M169,-290C148,-272 105,-234 78,-196 68,-181 58,-161 53,-146"/>
<polygon style="fill:midnightblue;stroke:midnightblue;" points="56.2598,-144.717 49,-137 49.8631,-147.56 56.2598,-144.717"/>
</g>
<!-- Node4 -->
<g id="node7" class="node"><title>Node4</title>
<a xlink:href="_t_c_p_server_8h.html" target="_top" xlink:title="Defines the TCPServer class. ">
<polygon style="fill:white;stroke:black;" points="248,-232 248,-253 330,-253 330,-232 248,-232"/>
<text text-anchor="middle" x="289" y="-239" style="font-family:Arial;font-size:10.00;">TCPServer.h</text>
</a>
</g>
<!-- Node2&#45;&gt;Node4 -->
<g id="edge6" class="edge"><title>Node2&#45;&gt;Node4</title>
<path style="fill:none;stroke:midnightblue;" d="M203,-290C220,-281 244,-268 262,-258"/>
<polygon style="fill:midnightblue;stroke:midnightblue;" points="263.958,-260.916 271,-253 260.559,-254.797 263.958,-260.916"/>
</g>
<!-- Node9 -->
<g id="node17" class="node"><title>Node9</title>
<a xlink:href="_threaded_t_c_p_connected_client_8h.html" target="_top" xlink:title="Defeines the ThreadedTCPConnectedClient class. ">
<polygon style="fill:white;stroke:black;" points="87,-174 87,-195 279,-195 279,-174 87,-174"/>
<text text-anchor="middle" x="183" y="-181" style="font-family:Arial;font-size:10.00;">ThreadedTCPConnectedClient.h</text>
</a>
</g>
<!-- Node2&#45;&gt;Node9 -->
<g id="edge30" class="edge"><title>Node2&#45;&gt;Node9</title>
<path style="fill:none;stroke:midnightblue;" d="M183,-290C183,-271 183,-230 183,-205"/>
<polygon style="fill:midnightblue;stroke:midnightblue;" points="186.5,-205 183,-195 179.5,-205 186.5,-205"/>
</g>
<!-- Node5 -->
<g id="node9" class="node"><title>Node5</title>
<a xlink:href="_socket_base_8h.html" target="_top" xlink:title="Defines the SocketBase template class. ">
<polygon style="fill:white;stroke:black;" points="181,-58 181,-79 270,-79 270,-58 181,-58"/>
<text text-anchor="middle" x="225" y="-65" style="font-family:Arial;font-size:10.00;">SocketBase.h</text>
</a>
</g>
<!-- Node4&#45;&gt;Node5 -->
<g id="edge8" class="edge"><title>Node4&#45;&gt;Node5</title>
<path style="fill:none;stroke:midnightblue;" d="M293,-232C300,-208 313,-154 293,-116 286,-102 272,-92 259,-84"/>
<polygon style="fill:midnightblue;stroke:midnightblue;" points="260.441,-80.7969 250,-79 257.042,-86.916 260.441,-80.7969"/>
</g>
<!-- Node7 -->
<g id="node13" class="node"><title>Node7</title>
<a xlink:href="_i_p_address_8h.html" target="_top" xlink:title="Defines the IPAddress class. ">
<polygon style="fill:white;stroke:black;" points="299,-58 299,-79 376,-79 376,-58 299,-58"/>
<text text-anchor="middle" x="337" y="-65" style="font-family:Arial;font-size:10.00;">IPAddress.h</text>
</a>
</g>
<!-- Node4&#45;&gt;Node7 -->
<g id="edge12" class="edge"><title>Node4&#45;&gt;Node7</title>
<path style="fill:none;stroke:midnightblue;" d="M301,-232C309,-223 320,-210 326,-196 339,-160 340,-115 339,-89"/>
<polygon style="fill:midnightblue;stroke:midnightblue;" points="342.478,-88.6021 338,-79 335.512,-89.2987 342.478,-88.6021"/>
</g>
<!-- Node4&#45;&gt;Node9 -->
<g id="edge16" class="edge"><title>Node4&#45;&gt;Node9</title>
<path style="fill:none;stroke:midnightblue;" d="M269,-232C252,-223 228,-210 210,-200"/>
<polygon style="fill:midnightblue;stroke:midnightblue;" points="211.441,-196.797 201,-195 208.042,-202.916 211.441,-196.797"/>
</g>
<!-- Node6 -->
<g id="node11" class="node"><title>Node6</title>
<polygon style="fill:white;stroke:#bfbfbf;" points="140,-0 140,-21 204,-21 204,-0 140,-0"/>
<text text-anchor="middle" x="172" y="-7" style="font-family:Arial;font-size:10.00;">iostream</text>
</g>
<!-- Node5&#45;&gt;Node6 -->
<g id="edge10" class="edge"><title>Node5&#45;&gt;Node6</title>
<path style="fill:none;stroke:midnightblue;" d="M215,-58C207,-49 197,-38 188,-29"/>
<polygon style="fill:midnightblue;stroke:midnightblue;" points="190.219,-26.221 181,-21 184.951,-30.8306 190.219,-26.221"/>
</g>
<!-- Node8 -->
<g id="node15" class="node"><title>Node8</title>
<polygon style="fill:white;stroke:#bfbfbf;" points="309,-0 309,-21 365,-21 365,-0 309,-0"/>
<text text-anchor="middle" x="337" y="-7" style="font-family:Arial;font-size:10.00;">string.h</text>
</g>
<!-- Node7&#45;&gt;Node8 -->
<g id="edge14" class="edge"><title>Node7&#45;&gt;Node8</title>
<path style="fill:none;stroke:midnightblue;" d="M337,-58C337,-50 337,-40 337,-31"/>
<polygon style="fill:midnightblue;stroke:midnightblue;" points="340.5,-31 337,-21 333.5,-31 340.5,-31"/>
</g>
<!-- Node9&#45;&gt;Node3 -->
<g id="edge24" class="edge"><title>Node9&#45;&gt;Node3</title>
<path style="fill:none;stroke:midnightblue;" d="M157,-174C135,-164 103,-151 78,-141"/>
<polygon style="fill:midnightblue;stroke:midnightblue;" points="79.5596,-137.863 69,-137 76.7166,-144.26 79.5596,-137.863"/>
</g>
<!-- Node10 -->
<g id="node19" class="node"><title>Node10</title>
<a xlink:href="_t_c_p_connected_client_8h.html" target="_top" xlink:title="Defines the TCPConnectedClient class. ">
<polygon style="fill:white;stroke:black;" points="146,-116 146,-137 285,-137 285,-116 146,-116"/>
<text text-anchor="middle" x="215" y="-123" style="font-family:Arial;font-size:10.00;">TCPConnectedClient.h</text>
</a>
</g>
<!-- Node9&#45;&gt;Node10 -->
<g id="edge18" class="edge"><title>Node9&#45;&gt;Node10</title>
<path style="fill:none;stroke:midnightblue;" d="M189,-174C193,-166 199,-155 204,-146"/>
<polygon style="fill:midnightblue;stroke:midnightblue;" points="207.203,-147.441 209,-137 201.084,-144.042 207.203,-147.441"/>
</g>
<!-- Node11 -->
<g id="node24" class="node"><title>Node11</title>
<a xlink:href="_semaphore_8h.html" target="_top" xlink:title="Defines the Semaphore class under Windows 32/64bit and POSIX enables OSes. ">
<polygon style="fill:white;stroke:black;" points="73,-58 73,-79 163,-79 163,-58 73,-58"/>
<text text-anchor="middle" x="118" y="-65" style="font-family:Arial;font-size:10.00;">Semaphore.h</text>
</a>
</g>
<!-- Node9&#45;&gt;Node11 -->
<g id="edge26" class="edge"><title>Node9&#45;&gt;Node11</title>
<path style="fill:none;stroke:midnightblue;" d="M169,-174C158,-165 145,-152 137,-138 128,-123 123,-104 121,-89"/>
<polygon style="fill:midnightblue;stroke:midnightblue;" points="124.393,-88.1194 119,-79 117.529,-89.4922 124.393,-88.1194"/>
</g>
<!-- Node10&#45;&gt;Node5 -->
<g id="edge20" class="edge"><title>Node10&#45;&gt;Node5</title>
<path style="fill:none;stroke:midnightblue;" d="M217,-116C218,-108 220,-98 222,-89"/>
<polygon style="fill:midnightblue;stroke:midnightblue;" points="225.488,-89.2987 223,-79 218.522,-88.6021 225.488,-89.2987"/>
</g>
<!-- Node10&#45;&gt;Node7 -->
<g id="edge22" class="edge"><title>Node10&#45;&gt;Node7</title>
<path style="fill:none;stroke:midnightblue;" d="M238,-116C258,-106 285,-93 307,-83"/>
<polygon style="fill:midnightblue;stroke:midnightblue;" points="308.283,-86.2598 316,-79 305.44,-79.8631 308.283,-86.2598"/>
</g>
<!-- Node11&#45;&gt;Node6 -->
<g id="edge28" class="edge"><title>Node11&#45;&gt;Node6</title>
<path style="fill:none;stroke:midnightblue;" d="M128,-58C136,-49 147,-38 156,-28"/>
<polygon style="fill:midnightblue;stroke:midnightblue;" points="158.404,-30.546 163,-21 153.454,-25.5962 158.404,-30.546"/>
</g>
</g>
</svg>
