<?xml version="1.0" encoding="UTF-8" standalone="no"?>
<!DOCTYPE svg PUBLIC "-//W3C//DTD SVG 1.0//EN"
 "http://www.w3.org/TR/2001/REC-SVG-20010904/DTD/svg10.dtd" [
 <!ATTLIST svg xmlns:xlink CDATA #FIXED "http://www.w3.org/1999/xlink">
]>
<!-- Generated by Graphviz version 2.14.1 (Fri Nov  9 08:19:38 GMT 2007)
     For user: (asakyurek) Alper Sinan Akyurek -->
<!-- Title: S2Sim/SocketLibrary/ThreadedTCPConnectedClient.h Pages: 1 -->
<svg width="327pt" height="216pt"
 viewBox="0.00 0.00 327.00 216.00" xmlns="http://www.w3.org/2000/svg" xmlns:xlink="http://www.w3.org/1999/xlink">
<g id="graph0" class="graph" transform="scale(1 1) rotate(0) translate(4 212)">
<title>S2Sim/SocketLibrary/ThreadedTCPConnectedClient.h</title>
<polygon style="fill:white;stroke:white;" points="-4,4 -4,-212 323,-212 323,4 -4,4"/>
<!-- Node1 -->
<g id="node1" class="node"><title>Node1</title>
<polygon style="fill:#bfbfbf;stroke:black;" points="104,-174 104,-208 299,-208 299,-174 104,-174"/>
<text text-anchor="start" x="112" y="-194" style="font-family:Arial;font-size:10.00;">S2Sim/SocketLibrary</text>
<text text-anchor="middle" x="201" y="-181" style="font-family:Arial;font-size:10.00;">/ThreadedTCPConnectedClient.h</text>
</g>
<!-- Node2 -->
<g id="node3" class="node"><title>Node2</title>
<a xlink:href="_t_c_p_connected_client_8h.html" target="_top" xlink:title="Defines the TCPConnectedClient class. ">
<polygon style="fill:white;stroke:black;" points="0,-116 0,-137 139,-137 139,-116 0,-116"/>
<text text-anchor="middle" x="69" y="-123" style="font-family:Arial;font-size:10.00;">TCPConnectedClient.h</text>
</a>
</g>
<!-- Node1&#45;&gt;Node2 -->
<g id="edge2" class="edge"><title>Node1&#45;&gt;Node2</title>
<path style="fill:none;stroke:midnightblue;" d="M166,-174C145,-164 119,-151 99,-141"/>
<polygon style="fill:midnightblue;stroke:midnightblue;" points="100.56,-137.863 90,-137 97.7166,-144.26 100.56,-137.863"/>
</g>
<!-- Node7 -->
<g id="node13" class="node"><title>Node7</title>
<a xlink:href="_thread_base_8h.html" target="_top" xlink:title="This file selects the right implementation according to the current OS. ">
<polygon style="fill:white;stroke:black;" points="156,-116 156,-137 247,-137 247,-116 156,-116"/>
<text text-anchor="middle" x="201" y="-123" style="font-family:Arial;font-size:10.00;">ThreadBase.h</text>
</a>
</g>
<!-- Node1&#45;&gt;Node7 -->
<g id="edge12" class="edge"><title>Node1&#45;&gt;Node7</title>
<path style="fill:none;stroke:midnightblue;" d="M201,-174C201,-166 201,-156 201,-147"/>
<polygon style="fill:midnightblue;stroke:midnightblue;" points="204.5,-147 201,-137 197.5,-147 204.5,-147"/>
</g>
<!-- Node8 -->
<g id="node15" class="node"><title>Node8</title>
<a xlink:href="_semaphore_8h.html" target="_top" xlink:title="Defines the Semaphore class under Windows 32/64bit and POSIX enables OSes. ">
<polygon style="fill:white;stroke:black;" points="229,-58 229,-79 319,-79 319,-58 229,-58"/>
<text text-anchor="middle" x="274" y="-65" style="font-family:Arial;font-size:10.00;">Semaphore.h</text>
</a>
</g>
<!-- Node1&#45;&gt;Node8 -->
<g id="edge14" class="edge"><title>Node1&#45;&gt;Node8</title>
<path style="fill:none;stroke:midnightblue;" d="M223,-174C234,-164 246,-151 255,-138 264,-123 269,-104 271,-89"/>
<polygon style="fill:midnightblue;stroke:midnightblue;" points="274.471,-89.4922 273,-79 267.607,-88.1194 274.471,-89.4922"/>
</g>
<!-- Node3 -->
<g id="node5" class="node"><title>Node3</title>
<a xlink:href="_socket_base_8h.html" target="_top" xlink:title="Defines the SocketBase template class. ">
<polygon style="fill:white;stroke:black;" points="123,-58 123,-79 212,-79 212,-58 123,-58"/>
<text text-anchor="middle" x="167" y="-65" style="font-family:Arial;font-size:10.00;">SocketBase.h</text>
</a>
</g>
<!-- Node2&#45;&gt;Node3 -->
<g id="edge4" class="edge"><title>Node2&#45;&gt;Node3</title>
<path style="fill:none;stroke:midnightblue;" d="M88,-116C103,-107 125,-94 141,-84"/>
<polygon style="fill:midnightblue;stroke:midnightblue;" points="142.958,-86.916 150,-79 139.559,-80.7969 142.958,-86.916"/>
</g>
<!-- Node5 -->
<g id="node9" class="node"><title>Node5</title>
<a xlink:href="_i_p_address_8h.html" target="_top" xlink:title="Defines the IPAddress class. ">
<polygon style="fill:white;stroke:black;" points="29,-58 29,-79 106,-79 106,-58 29,-58"/>
<text text-anchor="middle" x="67" y="-65" style="font-family:Arial;font-size:10.00;">IPAddress.h</text>
</a>
</g>
<!-- Node2&#45;&gt;Node5 -->
<g id="edge8" class="edge"><title>Node2&#45;&gt;Node5</title>
<path style="fill:none;stroke:midnightblue;" d="M69,-116C68,-108 68,-98 68,-89"/>
<polygon style="fill:midnightblue;stroke:midnightblue;" points="71.4778,-88.6021 67,-79 64.5125,-89.2987 71.4778,-88.6021"/>
</g>
<!-- Node4 -->
<g id="node7" class="node"><title>Node4</title>
<polygon style="fill:white;stroke:#bfbfbf;" points="188,-0 188,-21 252,-21 252,-0 188,-0"/>
<text text-anchor="middle" x="220" y="-7" style="font-family:Arial;font-size:10.00;">iostream</text>
</g>
<!-- Node3&#45;&gt;Node4 -->
<g id="edge6" class="edge"><title>Node3&#45;&gt;Node4</title>
<path style="fill:none;stroke:midnightblue;" d="M177,-58C185,-49 195,-38 204,-29"/>
<polygon style="fill:midnightblue;stroke:midnightblue;" points="207.049,-30.8306 211,-21 201.781,-26.221 207.049,-30.8306"/>
</g>
<!-- Node6 -->
<g id="node11" class="node"><title>Node6</title>
<polygon style="fill:white;stroke:#bfbfbf;" points="39,-0 39,-21 95,-21 95,-0 39,-0"/>
<text text-anchor="middle" x="67" y="-7" style="font-family:Arial;font-size:10.00;">string.h</text>
</g>
<!-- Node5&#45;&gt;Node6 -->
<g id="edge10" class="edge"><title>Node5&#45;&gt;Node6</title>
<path style="fill:none;stroke:midnightblue;" d="M67,-58C67,-50 67,-40 67,-31"/>
<polygon style="fill:midnightblue;stroke:midnightblue;" points="70.5001,-31 67,-21 63.5001,-31 70.5001,-31"/>
</g>
<!-- Node8&#45;&gt;Node4 -->
<g id="edge16" class="edge"><title>Node8&#45;&gt;Node4</title>
<path style="fill:none;stroke:midnightblue;" d="M264,-58C256,-49 245,-38 236,-28"/>
<polygon style="fill:midnightblue;stroke:midnightblue;" points="238.546,-25.5962 229,-21 233.596,-30.546 238.546,-25.5962"/>
</g>
</g>
</svg>
