<?xml version="1.0" encoding="UTF-8" standalone="no"?>
<!DOCTYPE svg PUBLIC "-//W3C//DTD SVG 1.0//EN"
 "http://www.w3.org/TR/2001/REC-SVG-20010904/DTD/svg10.dtd" [
 <!ATTLIST svg xmlns:xlink CDATA #FIXED "http://www.w3.org/1999/xlink">
]>
<!-- Generated by Graphviz version 2.14.1 (Fri Nov  9 08:19:38 GMT 2007)
     For user: (asakyurek) Alper Sinan Akyurek -->
<!-- Title: S2Sim/SocketLibrary/ThreadedTCPConnectedClient.h Pages: 1 -->
<svg width="798pt" height="542pt"
 viewBox="0.00 0.00 798.00 542.00" xmlns="http://www.w3.org/2000/svg" xmlns:xlink="http://www.w3.org/1999/xlink">
<g id="graph0" class="graph" transform="scale(1 1) rotate(0) translate(4 538)">
<title>S2Sim/SocketLibrary/ThreadedTCPConnectedClient.h</title>
<polygon style="fill:white;stroke:white;" points="-4,4 -4,-538 794,-538 794,4 -4,4"/>
<!-- Node1 -->
<g id="node1" class="node"><title>Node1</title>
<polygon style="fill:#bfbfbf;stroke:black;" points="186,-500 186,-534 381,-534 381,-500 186,-500"/>
<text text-anchor="start" x="194" y="-520" style="font-family:Arial;font-size:10.00;">S2Sim/SocketLibrary</text>
<text text-anchor="middle" x="283" y="-507" style="font-family:Arial;font-size:10.00;">/ThreadedTCPConnectedClient.h</text>
</g>
<!-- Node2 -->
<g id="node3" class="node"><title>Node2</title>
<a xlink:href="_connection_manager_8h.html" target="_top" xlink:title="This file defines the ConnectionManager class. ">
<polygon style="fill:white;stroke:black;" points="146,-296 146,-317 320,-317 320,-296 146,-296"/>
<text text-anchor="middle" x="233" y="-303" style="font-family:Arial;font-size:10.00;">S2Sim/ConnectionManager.h</text>
</a>
</g>
<!-- Node1&#45;&gt;Node2 -->
<g id="edge2" class="edge"><title>Node1&#45;&gt;Node2</title>
<path style="fill:none;stroke:midnightblue;" d="M269,-491C258,-466 242,-428 235,-394 229,-367 231,-333 232,-317"/>
<polygon style="fill:midnightblue;stroke:midnightblue;" points="266.084,-492.958 274,-500 272.203,-489.559 266.084,-492.958"/>
</g>
<!-- Node3 -->
<g id="node5" class="node"><title>Node3</title>
<a xlink:href="_client_manager_8h.html" target="_top" xlink:title="Header file for the ClientManager class. ">
<polygon style="fill:white;stroke:black;" points="66,-232 66,-253 209,-253 209,-232 66,-232"/>
<text text-anchor="middle" x="137" y="-239" style="font-family:Arial;font-size:10.00;">S2Sim/ClientManager.h</text>
</a>
</g>
<!-- Node1&#45;&gt;Node3 -->
<g id="edge50" class="edge"><title>Node1&#45;&gt;Node3</title>
<path style="fill:none;stroke:midnightblue;" d="M256,-493C221,-459 159,-395 137,-324 128,-299 132,-269 135,-253"/>
<polygon style="fill:midnightblue;stroke:midnightblue;" points="254.169,-496.049 264,-500 258.779,-490.781 254.169,-496.049"/>
</g>
<!-- Node6 -->
<g id="node12" class="node"><title>Node6</title>
<a xlink:href="_matlab_manager_8h.html" target="_top" xlink:title="Defines the MatlabManager class. ">
<polygon style="fill:white;stroke:black;" points="17,-58 17,-79 165,-79 165,-58 17,-58"/>
<text text-anchor="middle" x="91" y="-65" style="font-family:Arial;font-size:10.00;">S2Sim/MatlabManager.h</text>
</a>
</g>
<!-- Node1&#45;&gt;Node6 -->
<g id="edge46" class="edge"><title>Node1&#45;&gt;Node6</title>
<path style="fill:none;stroke:midnightblue;" d="M212,-497C128,-471 0,-424 0,-377 0,-377 0,-377 0,-185 0,-137 49,-97 75,-79"/>
<polygon style="fill:midnightblue;stroke:midnightblue;" points="211.416,-500.479 222,-500 213.427,-493.774 211.416,-500.479"/>
</g>
<!-- Node7 -->
<g id="node16" class="node"><title>Node7</title>
<a xlink:href="_control_manager_8h.html" target="_top" xlink:title="This file defines the ControlManager class. ">
<polygon style="fill:white;stroke:black;" points="441,-174 441,-195 592,-195 592,-174 441,-174"/>
<text text-anchor="middle" x="516" y="-181" style="font-family:Arial;font-size:10.00;">S2Sim/ControlManager.h</text>
</a>
</g>
<!-- Node1&#45;&gt;Node7 -->
<g id="edge48" class="edge"><title>Node1&#45;&gt;Node7</title>
<path style="fill:none;stroke:midnightblue;" d="M391,-504C467,-488 554,-454 554,-377 554,-377 554,-377 554,-307 554,-264 532,-216 521,-195"/>
<polygon style="fill:midnightblue;stroke:midnightblue;" points="390.119,-500.607 381,-506 391.492,-507.471 390.119,-500.607"/>
</g>
<!-- Node13 -->
<g id="node39" class="node"><title>Node13</title>
<a xlink:href="_t_c_p_server_8h.html" target="_top" xlink:title="Defines the TCPServer class. ">
<polygon style="fill:white;stroke:black;" points="311,-430 311,-464 438,-464 438,-430 311,-430"/>
<text text-anchor="start" x="319" y="-450" style="font-family:Arial;font-size:10.00;">S2Sim/SocketLibrary</text>
<text text-anchor="middle" x="374" y="-437" style="font-family:Arial;font-size:10.00;">/TCPServer.h</text>
</a>
</g>
<!-- Node1&#45;&gt;Node13 -->
<g id="edge52" class="edge"><title>Node1&#45;&gt;Node13</title>
<path style="fill:none;stroke:midnightblue;" d="M313,-494C325,-484 340,-473 352,-464"/>
<polygon style="fill:midnightblue;stroke:midnightblue;" points="310.9,-491.2 305,-500 315.1,-496.8 310.9,-491.2"/>
</g>
<!-- Node15 -->
<g id="node43" class="node"><title>Node15</title>
<a xlink:href="_threaded_t_c_p_server_8h.html" target="_top" xlink:title="Defines the ThreadedTCPServer class. ">
<polygon style="fill:white;stroke:black;" points="244,-360 244,-394 382,-394 382,-360 244,-360"/>
<text text-anchor="start" x="252" y="-380" style="font-family:Arial;font-size:10.00;">S2Sim/SocketLibrary</text>
<text text-anchor="middle" x="313" y="-367" style="font-family:Arial;font-size:10.00;">/ThreadedTCPServer.h</text>
</a>
</g>
<!-- Node1&#45;&gt;Node15 -->
<g id="edge68" class="edge"><title>Node1&#45;&gt;Node15</title>
<path style="fill:none;stroke:midnightblue;" d="M289,-490C295,-462 305,-418 309,-394"/>
<polygon style="fill:midnightblue;stroke:midnightblue;" points="285.529,-489.508 287,-500 292.393,-490.881 285.529,-489.508"/>
</g>
<!-- Node17 -->
<g id="node50" class="node"><title>Node17</title>
<a xlink:href="_threaded_t_c_p_connected_client_8cpp.html" target="_top" xlink:title="Implements the ThreadedTCPConnectedClient class. ">
<polygon style="fill:white;stroke:black;" points="582,-430 582,-464 790,-464 790,-430 582,-430"/>
<text text-anchor="start" x="590" y="-450" style="font-family:Arial;font-size:10.00;">S2Sim/SocketLibrary</text>
<text text-anchor="middle" x="686" y="-437" style="font-family:Arial;font-size:10.00;">/ThreadedTCPConnectedClient.cpp</text>
</a>
</g>
<!-- Node1&#45;&gt;Node17 -->
<g id="edge66" class="edge"><title>Node1&#45;&gt;Node17</title>
<path style="fill:none;stroke:midnightblue;" d="M391,-498C452,-488 528,-474 587,-464"/>
<polygon style="fill:midnightblue;stroke:midnightblue;" points="390.119,-494.607 381,-500 391.492,-501.471 390.119,-494.607"/>
</g>
<!-- Node2&#45;&gt;Node3 -->
<g id="edge4" class="edge"><title>Node2&#45;&gt;Node3</title>
<path style="fill:none;stroke:midnightblue;" d="M202,-291C183,-279 160,-263 147,-253"/>
<polygon style="fill:midnightblue;stroke:midnightblue;" points="200.559,-294.203 211,-296 203.958,-288.084 200.559,-294.203"/>
</g>
<!-- Node2&#45;&gt;Node7 -->
<g id="edge40" class="edge"><title>Node2&#45;&gt;Node7</title>
<path style="fill:none;stroke:midnightblue;" d="M306,-294C360,-284 429,-268 454,-254 479,-238 500,-210 510,-195"/>
<polygon style="fill:midnightblue;stroke:midnightblue;" points="305.119,-290.607 296,-296 306.492,-297.471 305.119,-290.607"/>
</g>
<!-- Node9 -->
<g id="node21" class="node"><title>Node9</title>
<a xlink:href="main_8cpp.html" target="_top" xlink:title="Main file that starts an infinite running loop on the SystemManager::AdvanceTimeStep method...">
<polygon style="fill:white;stroke:black;" points="342,-0 342,-21 446,-21 446,-0 342,-0"/>
<text text-anchor="middle" x="394" y="-7" style="font-family:Arial;font-size:10.00;">S2Sim/main.cpp</text>
</a>
</g>
<!-- Node2&#45;&gt;Node9 -->
<g id="edge44" class="edge"><title>Node2&#45;&gt;Node9</title>
<path style="fill:none;stroke:midnightblue;" d="M293,-294C345,-282 413,-264 421,-254 449,-216 408,-63 397,-21"/>
<polygon style="fill:midnightblue;stroke:midnightblue;" points="292.119,-290.607 283,-296 293.492,-297.471 292.119,-290.607"/>
</g>
<!-- Node12 -->
<g id="node33" class="node"><title>Node12</title>
<a xlink:href="_connection_manager_8cpp.html" target="_top" xlink:title="This file implements the ConnectionManager class. ">
<polygon style="fill:white;stroke:black;" points="226,-232 226,-253 413,-253 413,-232 226,-232"/>
<text text-anchor="middle" x="319" y="-239" style="font-family:Arial;font-size:10.00;">S2Sim/ConnectionManager.cpp</text>
</a>
</g>
<!-- Node2&#45;&gt;Node12 -->
<g id="edge42" class="edge"><title>Node2&#45;&gt;Node12</title>
<path style="fill:none;stroke:midnightblue;" d="M256,-290C273,-278 293,-263 306,-253"/>
<polygon style="fill:midnightblue;stroke:midnightblue;" points="253.9,-287.2 248,-296 258.1,-292.8 253.9,-287.2"/>
</g>
<!-- Node3&#45;&gt;Node2 -->
<g id="edge8" class="edge"><title>Node3&#45;&gt;Node2</title>
<path style="fill:none;stroke:midnightblue;" d="M166,-258C184,-270 207,-286 222,-296"/>
<polygon style="fill:midnightblue;stroke:midnightblue;" points="167.441,-254.797 157,-253 164.042,-260.916 167.441,-254.797"/>
</g>
<!-- Node4 -->
<g id="node7" class="node"><title>Node4</title>
<a xlink:href="_client_manager_8cpp.html" target="_top" xlink:title="Source file for the ClientManager class. ">
<polygon style="fill:white;stroke:black;" points="104,-174 104,-195 260,-195 260,-174 104,-174"/>
<text text-anchor="middle" x="182" y="-181" style="font-family:Arial;font-size:10.00;">S2Sim/ClientManager.cpp</text>
</a>
</g>
<!-- Node3&#45;&gt;Node4 -->
<g id="edge6" class="edge"><title>Node3&#45;&gt;Node4</title>
<path style="fill:none;stroke:midnightblue;" d="M152,-224C159,-214 168,-203 174,-195"/>
<polygon style="fill:midnightblue;stroke:midnightblue;" points="149.2,-221.9 146,-232 154.8,-226.1 149.2,-221.9"/>
</g>
<!-- Node5 -->
<g id="node10" class="node"><title>Node5</title>
<a xlink:href="_system_manager_8h.html" target="_top" xlink:title="Defines the SystemManager class. ">
<polygon style="fill:white;stroke:black;" points="222,-116 222,-137 373,-137 373,-116 222,-116"/>
<text text-anchor="middle" x="297" y="-123" style="font-family:Arial;font-size:10.00;">S2Sim/SystemManager.h</text>
</a>
</g>
<!-- Node3&#45;&gt;Node5 -->
<g id="edge10" class="edge"><title>Node3&#45;&gt;Node5</title>
<path style="fill:none;stroke:midnightblue;" d="M202,-229C222,-222 244,-212 260,-196 276,-180 283,-152 289,-137"/>
<polygon style="fill:midnightblue;stroke:midnightblue;" points="200.573,-225.774 192,-232 202.584,-232.479 200.573,-225.774"/>
</g>
<!-- Node3&#45;&gt;Node7 -->
<g id="edge38" class="edge"><title>Node3&#45;&gt;Node7</title>
<path style="fill:none;stroke:midnightblue;" d="M219,-230C289,-220 386,-205 450,-195"/>
<polygon style="fill:midnightblue;stroke:midnightblue;" points="218.119,-226.607 209,-232 219.492,-233.471 218.119,-226.607"/>
</g>
<!-- Node5&#45;&gt;Node3 -->
<g id="edge32" class="edge"><title>Node5&#45;&gt;Node3</title>
<path style="fill:none;stroke:midnightblue;" d="M300,-147C298,-162 291,-183 278,-196 259,-214 233,-225 209,-232"/>
<polygon style="fill:midnightblue;stroke:midnightblue;" points="303.488,-147.299 301,-137 296.522,-146.602 303.488,-147.299"/>
</g>
<!-- Node5&#45;&gt;Node6 -->
<g id="edge12" class="edge"><title>Node5&#45;&gt;Node6</title>
<path style="fill:none;stroke:midnightblue;" d="M242,-113C204,-102 153,-88 122,-79"/>
<polygon style="fill:midnightblue;stroke:midnightblue;" points="241.416,-116.479 252,-116 243.427,-109.774 241.416,-116.479"/>
</g>
<!-- Node5&#45;&gt;Node7 -->
<g id="edge30" class="edge"><title>Node5&#45;&gt;Node7</title>
<path style="fill:none;stroke:midnightblue;" d="M350,-139C390,-149 444,-164 480,-174"/>
<polygon style="fill:midnightblue;stroke:midnightblue;" points="350.492,-135.529 340,-137 349.119,-142.393 350.492,-135.529"/>
</g>
<!-- Node5&#45;&gt;Node9 -->
<g id="edge34" class="edge"><title>Node5&#45;&gt;Node9</title>
<path style="fill:none;stroke:midnightblue;" d="M322,-110C334,-102 346,-91 356,-80 371,-61 384,-35 390,-21"/>
<polygon style="fill:midnightblue;stroke:midnightblue;" points="319.9,-107.2 314,-116 324.1,-112.8 319.9,-107.2"/>
</g>
<!-- Node11 -->
<g id="node29" class="node"><title>Node11</title>
<a xlink:href="_system_manager_8cpp.html" target="_top" xlink:title="Implements the SystemManager class. ">
<polygon style="fill:white;stroke:black;" points="183,-58 183,-79 347,-79 347,-58 183,-58"/>
<text text-anchor="middle" x="265" y="-65" style="font-family:Arial;font-size:10.00;">S2Sim/SystemManager.cpp</text>
</a>
</g>
<!-- Node5&#45;&gt;Node11 -->
<g id="edge36" class="edge"><title>Node5&#45;&gt;Node11</title>
<path style="fill:none;stroke:midnightblue;" d="M286,-107C281,-97 275,-87 271,-79"/>
<polygon style="fill:midnightblue;stroke:midnightblue;" points="283.084,-108.958 291,-116 289.203,-105.559 283.084,-108.958"/>
</g>
<!-- Node6&#45;&gt;Node3 -->
<g id="edge14" class="edge"><title>Node6&#45;&gt;Node3</title>
<path style="fill:none;stroke:midnightblue;" d="M88,-89C85,-115 82,-160 95,-196 101,-210 113,-223 123,-232"/>
<polygon style="fill:midnightblue;stroke:midnightblue;" points="91.4875,-89.2987 89,-79 84.5222,-88.6021 91.4875,-89.2987"/>
</g>
<!-- Node6&#45;&gt;Node5 -->
<g id="edge16" class="edge"><title>Node6&#45;&gt;Node5</title>
<path style="fill:none;stroke:midnightblue;" d="M142,-82C179,-92 230,-106 263,-116"/>
<polygon style="fill:midnightblue;stroke:midnightblue;" points="142.584,-78.5212 132,-79 140.573,-85.2259 142.584,-78.5212"/>
</g>
<!-- Node6&#45;&gt;Node7 -->
<g id="edge18" class="edge"><title>Node6&#45;&gt;Node7</title>
<path style="fill:none;stroke:midnightblue;" d="M171,-81C250,-92 361,-109 381,-116 426,-130 474,-158 499,-174"/>
<polygon style="fill:midnightblue;stroke:midnightblue;" points="171.492,-77.5292 161,-79 170.119,-84.3933 171.492,-77.5292"/>
</g>
<!-- Node6&#45;&gt;Node9 -->
<g id="edge26" class="edge"><title>Node6&#45;&gt;Node9</title>
<path style="fill:none;stroke:midnightblue;" d="M159,-56C215,-45 291,-30 342,-21"/>
<polygon style="fill:midnightblue;stroke:midnightblue;" points="158.119,-52.6067 149,-58 159.492,-59.4708 158.119,-52.6067"/>
</g>
<!-- Node10 -->
<g id="node24" class="node"><title>Node10</title>
<a xlink:href="_matlab_manager_8cpp.html" target="_top" xlink:title="Implements the MatlabManager class. ">
<polygon style="fill:white;stroke:black;" points="11,-0 11,-21 172,-21 172,-0 11,-0"/>
<text text-anchor="middle" x="91" y="-7" style="font-family:Arial;font-size:10.00;">S2Sim/MatlabManager.cpp</text>
</a>
</g>
<!-- Node6&#45;&gt;Node10 -->
<g id="edge28" class="edge"><title>Node6&#45;&gt;Node10</title>
<path style="fill:none;stroke:midnightblue;" d="M91,-48C91,-38 91,-28 91,-21"/>
<polygon style="fill:midnightblue;stroke:midnightblue;" points="87.5001,-48 91,-58 94.5001,-48 87.5001,-48"/>
</g>
<!-- Node7&#45;&gt;Node5 -->
<g id="edge20" class="edge"><title>Node7&#45;&gt;Node5</title>
<path style="fill:none;stroke:midnightblue;" d="M459,-171C418,-161 364,-146 330,-137"/>
<polygon style="fill:midnightblue;stroke:midnightblue;" points="458.416,-174.479 469,-174 460.427,-167.774 458.416,-174.479"/>
</g>
<!-- Node8 -->
<g id="node19" class="node"><title>Node8</title>
<a xlink:href="_control_manager_8cpp.html" target="_top" xlink:title="This file implements the ControlManager class. ">
<polygon style="fill:white;stroke:black;" points="479,-116 479,-137 643,-137 643,-116 479,-116"/>
<text text-anchor="middle" x="561" y="-123" style="font-family:Arial;font-size:10.00;">S2Sim/ControlManager.cpp</text>
</a>
</g>
<!-- Node7&#45;&gt;Node8 -->
<g id="edge22" class="edge"><title>Node7&#45;&gt;Node8</title>
<path style="fill:none;stroke:midnightblue;" d="M531,-166C538,-156 547,-145 553,-137"/>
<polygon style="fill:midnightblue;stroke:midnightblue;" points="528.2,-163.9 525,-174 533.8,-168.1 528.2,-163.9"/>
</g>
<!-- Node7&#45;&gt;Node9 -->
<g id="edge24" class="edge"><title>Node7&#45;&gt;Node9</title>
<path style="fill:none;stroke:midnightblue;" d="M598,-172C636,-161 670,-144 652,-116 606,-48 507,-24 446,-15"/>
<polygon style="fill:midnightblue;stroke:midnightblue;" points="597.119,-168.607 588,-174 598.492,-175.471 597.119,-168.607"/>
</g>
<!-- Node14 -->
<g id="node41" class="node"><title>Node14</title>
<a xlink:href="_t_c_p_server_8cpp.html" target="_top" xlink:title="Implements the TCPServer class. ">
<polygon style="fill:white;stroke:black;" points="400,-360 400,-394 527,-394 527,-360 400,-360"/>
<text text-anchor="start" x="408" y="-380" style="font-family:Arial;font-size:10.00;">S2Sim/SocketLibrary</text>
<text text-anchor="middle" x="463" y="-367" style="font-family:Arial;font-size:10.00;">/TCPServer.cpp</text>
</a>
</g>
<!-- Node13&#45;&gt;Node14 -->
<g id="edge54" class="edge"><title>Node13&#45;&gt;Node14</title>
<path style="fill:none;stroke:midnightblue;" d="M404,-424C416,-414 430,-403 441,-394"/>
<polygon style="fill:midnightblue;stroke:midnightblue;" points="401.9,-421.2 396,-430 406.1,-426.8 401.9,-421.2"/>
</g>
<!-- Node13&#45;&gt;Node15 -->
<g id="edge56" class="edge"><title>Node13&#45;&gt;Node15</title>
<path style="fill:none;stroke:midnightblue;" d="M352,-422C344,-413 335,-403 328,-394"/>
<polygon style="fill:midnightblue;stroke:midnightblue;" points="349.781,-424.779 359,-430 355.049,-420.169 349.781,-424.779"/>
</g>
<!-- Node15&#45;&gt;Node2 -->
<g id="edge58" class="edge"><title>Node15&#45;&gt;Node2</title>
<path style="fill:none;stroke:midnightblue;" d="M285,-353C272,-341 256,-327 245,-317"/>
<polygon style="fill:midnightblue;stroke:midnightblue;" points="283.169,-356.049 293,-360 287.779,-350.781 283.169,-356.049"/>
</g>
<!-- Node15&#45;&gt;Node6 -->
<g id="edge60" class="edge"><title>Node15&#45;&gt;Node6</title>
<path style="fill:none;stroke:midnightblue;" d="M234,-360C203,-352 167,-340 137,-324 86,-297 38,-299 38,-243 38,-243 38,-243 38,-185 38,-142 68,-98 83,-79"/>
<polygon style="fill:midnightblue;stroke:midnightblue;" points="233.416,-363.479 244,-363 235.427,-356.774 233.416,-363.479"/>
</g>
<!-- Node15&#45;&gt;Node7 -->
<g id="edge62" class="edge"><title>Node15&#45;&gt;Node7</title>
<path style="fill:none;stroke:midnightblue;" d="M392,-359C438,-347 490,-332 497,-324 529,-286 522,-220 518,-195"/>
<polygon style="fill:midnightblue;stroke:midnightblue;" points="391.119,-355.607 382,-361 392.492,-362.471 391.119,-355.607"/>
</g>
<!-- Node16 -->
<g id="node48" class="node"><title>Node16</title>
<a xlink:href="_threaded_t_c_p_server_8cpp.html" target="_top" xlink:title="Implements the ThreadedTCPServer class. ">
<polygon style="fill:white;stroke:black;" points="338,-290 338,-324 489,-324 489,-290 338,-290"/>
<text text-anchor="start" x="346" y="-310" style="font-family:Arial;font-size:10.00;">S2Sim/SocketLibrary</text>
<text text-anchor="middle" x="413" y="-297" style="font-family:Arial;font-size:10.00;">/ThreadedTCPServer.cpp</text>
</a>
</g>
<!-- Node15&#45;&gt;Node16 -->
<g id="edge64" class="edge"><title>Node15&#45;&gt;Node16</title>
<path style="fill:none;stroke:midnightblue;" d="M346,-354C360,-344 376,-333 388,-324"/>
<polygon style="fill:midnightblue;stroke:midnightblue;" points="343.379,-351.541 337,-360 347.262,-357.365 343.379,-351.541"/>
</g>
</g>
</svg>
