<?xml version="1.0" encoding="UTF-8" standalone="no"?>
<!DOCTYPE svg PUBLIC "-//W3C//DTD SVG 1.0//EN"
 "http://www.w3.org/TR/2001/REC-SVG-20010904/DTD/svg10.dtd" [
 <!ATTLIST svg xmlns:xlink CDATA #FIXED "http://www.w3.org/1999/xlink">
]>
<!-- Generated by Graphviz version 2.14.1 (Fri Nov  9 08:19:38 GMT 2007)
     For user: (asakyurek) Alper Sinan Akyurek -->
<!-- Title: S2Sim/SocketLibrary/ThreadedTCPServer.h Pages: 1 -->
<svg width="799pt" height="402pt"
 viewBox="0.00 0.00 799.00 402.00" xmlns="http://www.w3.org/2000/svg" xmlns:xlink="http://www.w3.org/1999/xlink">
<g id="graph0" class="graph" transform="scale(1 1) rotate(0) translate(4 398)">
<title>S2Sim/SocketLibrary/ThreadedTCPServer.h</title>
<polygon style="fill:white;stroke:white;" points="-4,4 -4,-398 795,-398 795,4 -4,4"/>
<!-- Node1 -->
<g id="node1" class="node"><title>Node1</title>
<polygon style="fill:#bfbfbf;stroke:black;" points="392,-360 392,-394 530,-394 530,-360 392,-360"/>
<text text-anchor="start" x="400" y="-380" style="font-family:Arial;font-size:10.00;">S2Sim/SocketLibrary</text>
<text text-anchor="middle" x="461" y="-367" style="font-family:Arial;font-size:10.00;">/ThreadedTCPServer.h</text>
</g>
<!-- Node2 -->
<g id="node3" class="node"><title>Node2</title>
<a xlink:href="_connection_manager_8h.html" target="_top" xlink:title="This file defines the ConnectionManager class. ">
<polygon style="fill:white;stroke:black;" points="223,-296 223,-317 397,-317 397,-296 223,-296"/>
<text text-anchor="middle" x="310" y="-303" style="font-family:Arial;font-size:10.00;">S2Sim/ConnectionManager.h</text>
</a>
</g>
<!-- Node1&#45;&gt;Node2 -->
<g id="edge2" class="edge"><title>Node1&#45;&gt;Node2</title>
<path style="fill:none;stroke:midnightblue;" d="M415,-356C387,-342 354,-327 332,-317"/>
<polygon style="fill:midnightblue;stroke:midnightblue;" points="413.44,-359.137 424,-360 416.283,-352.74 413.44,-359.137"/>
</g>
<!-- Node6 -->
<g id="node12" class="node"><title>Node6</title>
<a xlink:href="_matlab_manager_8h.html" target="_top" xlink:title="Defines the MatlabManager class. ">
<polygon style="fill:white;stroke:black;" points="287,-58 287,-79 435,-79 435,-58 287,-58"/>
<text text-anchor="middle" x="361" y="-65" style="font-family:Arial;font-size:10.00;">S2Sim/MatlabManager.h</text>
</a>
</g>
<!-- Node1&#45;&gt;Node6 -->
<g id="edge46" class="edge"><title>Node1&#45;&gt;Node6</title>
<path style="fill:none;stroke:midnightblue;" d="M515,-356C559,-334 613,-297 613,-243 613,-243 613,-243 613,-185 613,-139 475,-97 403,-79"/>
<polygon style="fill:midnightblue;stroke:midnightblue;" points="513.717,-352.74 506,-360 516.56,-359.137 513.717,-352.74"/>
</g>
<!-- Node7 -->
<g id="node16" class="node"><title>Node7</title>
<a xlink:href="_control_manager_8h.html" target="_top" xlink:title="This file defines the ControlManager class. ">
<polygon style="fill:white;stroke:black;" points="123,-174 123,-195 274,-195 274,-174 123,-174"/>
<text text-anchor="middle" x="198" y="-181" style="font-family:Arial;font-size:10.00;">S2Sim/ControlManager.h</text>
</a>
</g>
<!-- Node1&#45;&gt;Node7 -->
<g id="edge48" class="edge"><title>Node1&#45;&gt;Node7</title>
<path style="fill:none;stroke:midnightblue;" d="M382,-370C318,-363 236,-349 214,-324 181,-287 190,-221 196,-195"/>
<polygon style="fill:midnightblue;stroke:midnightblue;" points="381.701,-373.488 392,-371 382.398,-366.522 381.701,-373.488"/>
</g>
<!-- Node13 -->
<g id="node38" class="node"><title>Node13</title>
<a xlink:href="_threaded_t_c_p_server_8cpp.html" target="_top" xlink:title="Implements the ThreadedTCPServer class. ">
<polygon style="fill:white;stroke:black;" points="641,-290 641,-324 792,-324 792,-290 641,-290"/>
<text text-anchor="start" x="649" y="-310" style="font-family:Arial;font-size:10.00;">S2Sim/SocketLibrary</text>
<text text-anchor="middle" x="716" y="-297" style="font-family:Arial;font-size:10.00;">/ThreadedTCPServer.cpp</text>
</a>
</g>
<!-- Node1&#45;&gt;Node13 -->
<g id="edge50" class="edge"><title>Node1&#45;&gt;Node13</title>
<path style="fill:none;stroke:midnightblue;" d="M533,-357C571,-347 617,-334 654,-324"/>
<polygon style="fill:midnightblue;stroke:midnightblue;" points="531.573,-353.774 523,-360 533.584,-360.479 531.573,-353.774"/>
</g>
<!-- Node3 -->
<g id="node5" class="node"><title>Node3</title>
<a xlink:href="_client_manager_8h.html" target="_top" xlink:title="Header file for the ClientManager class. ">
<polygon style="fill:white;stroke:black;" points="239,-232 239,-253 382,-253 382,-232 239,-232"/>
<text text-anchor="middle" x="310" y="-239" style="font-family:Arial;font-size:10.00;">S2Sim/ClientManager.h</text>
</a>
</g>
<!-- Node2&#45;&gt;Node3 -->
<g id="edge4" class="edge"><title>Node2&#45;&gt;Node3</title>
<path style="fill:none;stroke:midnightblue;" d="M304,-286C303,-275 304,-262 305,-253"/>
<polygon style="fill:midnightblue;stroke:midnightblue;" points="300.522,-286.398 305,-296 307.488,-285.701 300.522,-286.398"/>
</g>
<!-- Node2&#45;&gt;Node7 -->
<g id="edge40" class="edge"><title>Node2&#45;&gt;Node7</title>
<path style="fill:none;stroke:midnightblue;" d="M278,-291C261,-282 243,-269 230,-254 214,-236 205,-210 201,-195"/>
<polygon style="fill:midnightblue;stroke:midnightblue;" points="276.559,-294.203 287,-296 279.958,-288.084 276.559,-294.203"/>
</g>
<!-- Node9 -->
<g id="node21" class="node"><title>Node9</title>
<a xlink:href="main_8cpp.html" target="_top" xlink:title="Main file that starts an infinite running loop on the SystemManager::AdvanceTimeStep method...">
<polygon style="fill:white;stroke:black;" points="72,-0 72,-21 176,-21 176,-0 72,-0"/>
<text text-anchor="middle" x="124" y="-7" style="font-family:Arial;font-size:10.00;">S2Sim/main.cpp</text>
</a>
</g>
<!-- Node2&#45;&gt;Node9 -->
<g id="edge44" class="edge"><title>Node2&#45;&gt;Node9</title>
<path style="fill:none;stroke:midnightblue;" d="M239,-294C148,-275 0,-236 0,-185 0,-185 0,-185 0,-127 0,-73 62,-37 99,-21"/>
<polygon style="fill:midnightblue;stroke:midnightblue;" points="238.508,-297.471 249,-296 239.881,-290.607 238.508,-297.471"/>
</g>
<!-- Node12 -->
<g id="node33" class="node"><title>Node12</title>
<a xlink:href="_connection_manager_8cpp.html" target="_top" xlink:title="This file implements the ConnectionManager class. ">
<polygon style="fill:white;stroke:black;" points="399,-232 399,-253 586,-253 586,-232 399,-232"/>
<text text-anchor="middle" x="492" y="-239" style="font-family:Arial;font-size:10.00;">S2Sim/ConnectionManager.cpp</text>
</a>
</g>
<!-- Node2&#45;&gt;Node12 -->
<g id="edge42" class="edge"><title>Node2&#45;&gt;Node12</title>
<path style="fill:none;stroke:midnightblue;" d="M351,-293C385,-281 433,-264 463,-253"/>
<polygon style="fill:midnightblue;stroke:midnightblue;" points="349.573,-289.774 341,-296 351.584,-296.479 349.573,-289.774"/>
</g>
<!-- Node3&#45;&gt;Node2 -->
<g id="edge8" class="edge"><title>Node3&#45;&gt;Node2</title>
<path style="fill:none;stroke:midnightblue;" d="M316,-263C317,-274 317,-287 315,-296"/>
<polygon style="fill:midnightblue;stroke:midnightblue;" points="319.478,-262.602 315,-253 312.512,-263.299 319.478,-262.602"/>
</g>
<!-- Node4 -->
<g id="node7" class="node"><title>Node4</title>
<a xlink:href="_client_manager_8cpp.html" target="_top" xlink:title="Source file for the ClientManager class. ">
<polygon style="fill:white;stroke:black;" points="347,-174 347,-195 503,-195 503,-174 347,-174"/>
<text text-anchor="middle" x="425" y="-181" style="font-family:Arial;font-size:10.00;">S2Sim/ClientManager.cpp</text>
</a>
</g>
<!-- Node3&#45;&gt;Node4 -->
<g id="edge6" class="edge"><title>Node3&#45;&gt;Node4</title>
<path style="fill:none;stroke:midnightblue;" d="M341,-227C361,-217 388,-204 405,-195"/>
<polygon style="fill:midnightblue;stroke:midnightblue;" points="339.042,-224.084 332,-232 342.441,-230.203 339.042,-224.084"/>
</g>
<!-- Node5 -->
<g id="node10" class="node"><title>Node5</title>
<a xlink:href="_system_manager_8h.html" target="_top" xlink:title="Defines the SystemManager class. ">
<polygon style="fill:white;stroke:black;" points="286,-116 286,-137 437,-137 437,-116 286,-116"/>
<text text-anchor="middle" x="361" y="-123" style="font-family:Arial;font-size:10.00;">S2Sim/SystemManager.h</text>
</a>
</g>
<!-- Node3&#45;&gt;Node5 -->
<g id="edge10" class="edge"><title>Node3&#45;&gt;Node5</title>
<path style="fill:none;stroke:midnightblue;" d="M310,-222C314,-208 322,-190 329,-174 334,-161 342,-146 348,-137"/>
<polygon style="fill:midnightblue;stroke:midnightblue;" points="306.529,-221.508 308,-232 313.393,-222.881 306.529,-221.508"/>
</g>
<!-- Node3&#45;&gt;Node7 -->
<g id="edge38" class="edge"><title>Node3&#45;&gt;Node7</title>
<path style="fill:none;stroke:midnightblue;" d="M280,-227C260,-217 234,-204 217,-195"/>
<polygon style="fill:midnightblue;stroke:midnightblue;" points="278.559,-230.203 289,-232 281.958,-224.084 278.559,-230.203"/>
</g>
<!-- Node5&#45;&gt;Node3 -->
<g id="edge32" class="edge"><title>Node5&#45;&gt;Node3</title>
<path style="fill:none;stroke:midnightblue;" d="M359,-146C356,-155 351,-165 347,-174 338,-194 328,-218 321,-232"/>
<polygon style="fill:midnightblue;stroke:midnightblue;" points="362.137,-147.56 363,-137 355.74,-144.717 362.137,-147.56"/>
</g>
<!-- Node5&#45;&gt;Node6 -->
<g id="edge12" class="edge"><title>Node5&#45;&gt;Node6</title>
<path style="fill:none;stroke:midnightblue;" d="M355,-106C354,-96 355,-86 356,-79"/>
<polygon style="fill:midnightblue;stroke:midnightblue;" points="351.522,-106.398 356,-116 358.488,-105.701 351.522,-106.398"/>
</g>
<!-- Node5&#45;&gt;Node7 -->
<g id="edge30" class="edge"><title>Node5&#45;&gt;Node7</title>
<path style="fill:none;stroke:midnightblue;" d="M329,-140C301,-150 263,-164 234,-174"/>
<polygon style="fill:midnightblue;stroke:midnightblue;" points="329.62,-143.483 338,-137 327.406,-136.842 329.62,-143.483"/>
</g>
<!-- Node5&#45;&gt;Node9 -->
<g id="edge34" class="edge"><title>Node5&#45;&gt;Node9</title>
<path style="fill:none;stroke:midnightblue;" d="M332,-111C316,-101 296,-90 278,-80 261,-70 257,-66 240,-58 211,-43 176,-30 153,-21"/>
<polygon style="fill:midnightblue;stroke:midnightblue;" points="330.559,-114.203 341,-116 333.958,-108.084 330.559,-114.203"/>
</g>
<!-- Node11 -->
<g id="node29" class="node"><title>Node11</title>
<a xlink:href="_system_manager_8cpp.html" target="_top" xlink:title="Implements the SystemManager class. ">
<polygon style="fill:white;stroke:black;" points="67,-58 67,-79 231,-79 231,-58 67,-58"/>
<text text-anchor="middle" x="149" y="-65" style="font-family:Arial;font-size:10.00;">S2Sim/SystemManager.cpp</text>
</a>
</g>
<!-- Node5&#45;&gt;Node11 -->
<g id="edge36" class="edge"><title>Node5&#45;&gt;Node11</title>
<path style="fill:none;stroke:midnightblue;" d="M311,-113C272,-102 220,-88 186,-79"/>
<polygon style="fill:midnightblue;stroke:midnightblue;" points="310.416,-116.479 321,-116 312.427,-109.774 310.416,-116.479"/>
</g>
<!-- Node6&#45;&gt;Node3 -->
<g id="edge14" class="edge"><title>Node6&#45;&gt;Node3</title>
<path style="fill:none;stroke:midnightblue;" d="M401,-83C458,-104 551,-147 512,-196 503,-207 431,-222 375,-232"/>
<polygon style="fill:midnightblue;stroke:midnightblue;" points="402.56,-79.8631 392,-79 399.717,-86.2598 402.56,-79.8631"/>
</g>
<!-- Node6&#45;&gt;Node5 -->
<g id="edge16" class="edge"><title>Node6&#45;&gt;Node5</title>
<path style="fill:none;stroke:midnightblue;" d="M367,-89C368,-98 367,-108 366,-116"/>
<polygon style="fill:midnightblue;stroke:midnightblue;" points="370.478,-88.6021 366,-79 363.512,-89.2987 370.478,-88.6021"/>
</g>
<!-- Node6&#45;&gt;Node7 -->
<g id="edge18" class="edge"><title>Node6&#45;&gt;Node7</title>
<path style="fill:none;stroke:midnightblue;" d="M331,-84C314,-92 294,-103 277,-116 250,-134 223,-159 209,-174"/>
<polygon style="fill:midnightblue;stroke:midnightblue;" points="332.958,-86.916 340,-79 329.559,-80.7969 332.958,-86.916"/>
</g>
<!-- Node6&#45;&gt;Node9 -->
<g id="edge26" class="edge"><title>Node6&#45;&gt;Node9</title>
<path style="fill:none;stroke:midnightblue;" d="M306,-56C263,-45 204,-30 165,-21"/>
<polygon style="fill:midnightblue;stroke:midnightblue;" points="305.508,-59.4708 316,-58 306.881,-52.6067 305.508,-59.4708"/>
</g>
<!-- Node10 -->
<g id="node24" class="node"><title>Node10</title>
<a xlink:href="_matlab_manager_8cpp.html" target="_top" xlink:title="Implements the MatlabManager class. ">
<polygon style="fill:white;stroke:black;" points="281,-0 281,-21 442,-21 442,-0 281,-0"/>
<text text-anchor="middle" x="361" y="-7" style="font-family:Arial;font-size:10.00;">S2Sim/MatlabManager.cpp</text>
</a>
</g>
<!-- Node6&#45;&gt;Node10 -->
<g id="edge28" class="edge"><title>Node6&#45;&gt;Node10</title>
<path style="fill:none;stroke:midnightblue;" d="M361,-48C361,-38 361,-28 361,-21"/>
<polygon style="fill:midnightblue;stroke:midnightblue;" points="357.5,-48 361,-58 364.5,-48 357.5,-48"/>
</g>
<!-- Node7&#45;&gt;Node5 -->
<g id="edge20" class="edge"><title>Node7&#45;&gt;Node5</title>
<path style="fill:none;stroke:midnightblue;" d="M233,-170C261,-160 300,-146 328,-137"/>
<polygon style="fill:midnightblue;stroke:midnightblue;" points="231.717,-166.74 224,-174 234.56,-173.137 231.717,-166.74"/>
</g>
<!-- Node8 -->
<g id="node19" class="node"><title>Node8</title>
<a xlink:href="_control_manager_8cpp.html" target="_top" xlink:title="This file implements the ControlManager class. ">
<polygon style="fill:white;stroke:black;" points="66,-116 66,-137 230,-137 230,-116 66,-116"/>
<text text-anchor="middle" x="148" y="-123" style="font-family:Arial;font-size:10.00;">S2Sim/ControlManager.cpp</text>
</a>
</g>
<!-- Node7&#45;&gt;Node8 -->
<g id="edge22" class="edge"><title>Node7&#45;&gt;Node8</title>
<path style="fill:none;stroke:midnightblue;" d="M181,-166C173,-156 163,-145 157,-137"/>
<polygon style="fill:midnightblue;stroke:midnightblue;" points="178.781,-168.779 188,-174 184.049,-164.169 178.781,-168.779"/>
</g>
<!-- Node7&#45;&gt;Node9 -->
<g id="edge24" class="edge"><title>Node7&#45;&gt;Node9</title>
<path style="fill:none;stroke:midnightblue;" d="M136,-171C103,-163 67,-151 57,-138 50,-128 41,-90 58,-58 67,-41 85,-29 100,-21"/>
<polygon style="fill:midnightblue;stroke:midnightblue;" points="135.416,-174.479 146,-174 137.427,-167.774 135.416,-174.479"/>
</g>
</g>
</svg>
