<?xml version="1.0" encoding="UTF-8" standalone="no"?>
<!DOCTYPE svg PUBLIC "-//W3C//DTD SVG 1.0//EN"
 "http://www.w3.org/TR/2001/REC-SVG-20010904/DTD/svg10.dtd" [
 <!ATTLIST svg xmlns:xlink CDATA #FIXED "http://www.w3.org/1999/xlink">
]>
<!-- Generated by Graphviz version 2.14.1 (Fri Nov  9 08:19:38 GMT 2007)
     For user: (asakyurek) Alper Sinan Akyurek -->
<!-- Title: S2Sim/ThreadLibrary/ThreadBase.h Pages: 1 -->
<svg width="1026pt" height="612pt"
 viewBox="0.00 0.00 1026.00 612.00" xmlns="http://www.w3.org/2000/svg" xmlns:xlink="http://www.w3.org/1999/xlink">
<g id="graph0" class="graph" transform="scale(1 1) rotate(0) translate(4 608)">
<title>S2Sim/ThreadLibrary/ThreadBase.h</title>
<polygon style="fill:white;stroke:white;" points="-4,4 -4,-608 1022,-608 1022,4 -4,4"/>
<!-- Node1 -->
<g id="node1" class="node"><title>Node1</title>
<polygon style="fill:#bfbfbf;stroke:black;" points="653,-570 653,-604 782,-604 782,-570 653,-570"/>
<text text-anchor="start" x="661" y="-590" style="font-family:Arial;font-size:10.00;">S2Sim/ThreadLibrary</text>
<text text-anchor="middle" x="717" y="-577" style="font-family:Arial;font-size:10.00;">/ThreadBase.h</text>
</g>
<!-- Node2 -->
<g id="node3" class="node"><title>Node2</title>
<a xlink:href="_threaded_t_c_p_connected_client_8h.html" target="_top" xlink:title="Defeines the ThreadedTCPConnectedClient class. ">
<polygon style="fill:white;stroke:black;" points="388,-500 388,-534 583,-534 583,-500 388,-500"/>
<text text-anchor="start" x="396" y="-520" style="font-family:Arial;font-size:10.00;">S2Sim/SocketLibrary</text>
<text text-anchor="middle" x="485" y="-507" style="font-family:Arial;font-size:10.00;">/ThreadedTCPConnectedClient.h</text>
</a>
</g>
<!-- Node1&#45;&gt;Node2 -->
<g id="edge2" class="edge"><title>Node1&#45;&gt;Node2</title>
<path style="fill:none;stroke:midnightblue;" d="M651,-567C617,-557 575,-544 542,-534"/>
<polygon style="fill:midnightblue;stroke:midnightblue;" points="650.416,-570.479 661,-570 652.427,-563.774 650.416,-570.479"/>
</g>
<!-- Node16 -->
<g id="node45" class="node"><title>Node16</title>
<a xlink:href="_threaded_t_c_p_server_8h.html" target="_top" xlink:title="Defines the ThreadedTCPServer class. ">
<polygon style="fill:white;stroke:black;" points="367,-360 367,-394 505,-394 505,-360 367,-360"/>
<text text-anchor="start" x="375" y="-380" style="font-family:Arial;font-size:10.00;">S2Sim/SocketLibrary</text>
<text text-anchor="middle" x="436" y="-367" style="font-family:Arial;font-size:10.00;">/ThreadedTCPServer.h</text>
</a>
</g>
<!-- Node1&#45;&gt;Node16 -->
<g id="edge76" class="edge"><title>Node1&#45;&gt;Node16</title>
<path style="fill:none;stroke:midnightblue;" d="M695,-562C665,-529 609,-469 551,-430 530,-415 504,-403 483,-394"/>
<polygon style="fill:midnightblue;stroke:midnightblue;" points="692.781,-564.779 702,-570 698.049,-560.169 692.781,-564.779"/>
</g>
<!-- Node19 -->
<g id="node55" class="node"><title>Node19</title>
<a xlink:href="_threaded_t_c_p_client_8h.html" target="_top" xlink:title="Defines the ThreadedTCPClient class. ">
<polygon style="fill:white;stroke:black;" points="698,-500 698,-534 833,-534 833,-500 698,-500"/>
<text text-anchor="start" x="706" y="-520" style="font-family:Arial;font-size:10.00;">S2Sim/SocketLibrary</text>
<text text-anchor="middle" x="765" y="-507" style="font-family:Arial;font-size:10.00;">/ThreadedTCPClient.h</text>
</a>
</g>
<!-- Node1&#45;&gt;Node19 -->
<g id="edge72" class="edge"><title>Node1&#45;&gt;Node19</title>
<path style="fill:none;stroke:midnightblue;" d="M735,-562C741,-552 748,-542 753,-534"/>
<polygon style="fill:midnightblue;stroke:midnightblue;" points="732.2,-559.9 729,-570 737.8,-564.1 732.2,-559.9"/>
</g>
<!-- Node21 -->
<g id="node60" class="node"><title>Node21</title>
<a xlink:href="_thread_implementation_8cpp.html" target="_top" xlink:title="Implements the Thread Wrapper functions. ">
<polygon style="fill:white;stroke:black;" points="850,-500 850,-534 1019,-534 1019,-500 850,-500"/>
<text text-anchor="start" x="858" y="-520" style="font-family:Arial;font-size:10.00;">S2Sim/ThreadLibrary</text>
<text text-anchor="middle" x="934" y="-507" style="font-family:Arial;font-size:10.00;">/ThreadImplementation.cpp</text>
</a>
</g>
<!-- Node1&#45;&gt;Node21 -->
<g id="edge78" class="edge"><title>Node1&#45;&gt;Node21</title>
<path style="fill:none;stroke:midnightblue;" d="M780,-567C812,-556 850,-544 881,-534"/>
<polygon style="fill:midnightblue;stroke:midnightblue;" points="778.573,-563.774 770,-570 780.584,-570.479 778.573,-563.774"/>
</g>
<!-- Node3 -->
<g id="node5" class="node"><title>Node3</title>
<a xlink:href="_connection_manager_8h.html" target="_top" xlink:title="This file defines the ConnectionManager class. ">
<polygon style="fill:white;stroke:black;" points="66,-296 66,-317 240,-317 240,-296 66,-296"/>
<text text-anchor="middle" x="153" y="-303" style="font-family:Arial;font-size:10.00;">S2Sim/ConnectionManager.h</text>
</a>
</g>
<!-- Node2&#45;&gt;Node3 -->
<g id="edge4" class="edge"><title>Node2&#45;&gt;Node3</title>
<path style="fill:none;stroke:midnightblue;" d="M378,-512C297,-507 195,-494 167,-464 129,-422 143,-345 150,-317"/>
<polygon style="fill:midnightblue;stroke:midnightblue;" points="377.701,-515.488 388,-513 378.398,-508.522 377.701,-515.488"/>
</g>
<!-- Node4 -->
<g id="node7" class="node"><title>Node4</title>
<a xlink:href="_client_manager_8h.html" target="_top" xlink:title="Header file for the ClientManager class. ">
<polygon style="fill:white;stroke:black;" points="368,-232 368,-253 511,-253 511,-232 368,-232"/>
<text text-anchor="middle" x="439" y="-239" style="font-family:Arial;font-size:10.00;">S2Sim/ClientManager.h</text>
</a>
</g>
<!-- Node2&#45;&gt;Node4 -->
<g id="edge52" class="edge"><title>Node2&#45;&gt;Node4</title>
<path style="fill:none;stroke:midnightblue;" d="M524,-494C535,-486 545,-476 551,-464 557,-450 554,-444 551,-430 532,-354 472,-280 448,-253"/>
<polygon style="fill:midnightblue;stroke:midnightblue;" points="521.9,-491.2 516,-500 526.1,-496.8 521.9,-491.2"/>
</g>
<!-- Node7 -->
<g id="node14" class="node"><title>Node7</title>
<a xlink:href="_matlab_manager_8h.html" target="_top" xlink:title="Defines the MatlabManager class. ">
<polygon style="fill:white;stroke:black;" points="376,-58 376,-79 524,-79 524,-58 376,-58"/>
<text text-anchor="middle" x="450" y="-65" style="font-family:Arial;font-size:10.00;">S2Sim/MatlabManager.h</text>
</a>
</g>
<!-- Node2&#45;&gt;Node7 -->
<g id="edge48" class="edge"><title>Node2&#45;&gt;Node7</title>
<path style="fill:none;stroke:midnightblue;" d="M534,-495C576,-472 632,-432 632,-377 632,-377 632,-377 632,-185 632,-123 556,-93 503,-79"/>
<polygon style="fill:midnightblue;stroke:midnightblue;" points="532.042,-492.084 525,-500 535.441,-498.203 532.042,-492.084"/>
</g>
<!-- Node8 -->
<g id="node18" class="node"><title>Node8</title>
<a xlink:href="_control_manager_8h.html" target="_top" xlink:title="This file defines the ControlManager class. ">
<polygon style="fill:white;stroke:black;" points="137,-174 137,-195 288,-195 288,-174 137,-174"/>
<text text-anchor="middle" x="212" y="-181" style="font-family:Arial;font-size:10.00;">S2Sim/ControlManager.h</text>
</a>
</g>
<!-- Node2&#45;&gt;Node8 -->
<g id="edge50" class="edge"><title>Node2&#45;&gt;Node8</title>
<path style="fill:none;stroke:midnightblue;" d="M378,-508C235,-492 0,-455 0,-377 0,-377 0,-377 0,-307 0,-239 82,-209 144,-195"/>
<polygon style="fill:midnightblue;stroke:midnightblue;" points="377.701,-511.488 388,-509 378.398,-504.522 377.701,-511.488"/>
</g>
<!-- Node14 -->
<g id="node41" class="node"><title>Node14</title>
<a xlink:href="_t_c_p_server_8h.html" target="_top" xlink:title="Defines the TCPServer class. ">
<polygon style="fill:white;stroke:black;" points="176,-430 176,-464 303,-464 303,-430 176,-430"/>
<text text-anchor="start" x="184" y="-450" style="font-family:Arial;font-size:10.00;">S2Sim/SocketLibrary</text>
<text text-anchor="middle" x="239" y="-437" style="font-family:Arial;font-size:10.00;">/TCPServer.h</text>
</a>
</g>
<!-- Node2&#45;&gt;Node14 -->
<g id="edge54" class="edge"><title>Node2&#45;&gt;Node14</title>
<path style="fill:none;stroke:midnightblue;" d="M415,-497C378,-487 334,-474 299,-464"/>
<polygon style="fill:midnightblue;stroke:midnightblue;" points="414.416,-500.479 425,-500 416.427,-493.774 414.416,-500.479"/>
</g>
<!-- Node2&#45;&gt;Node16 -->
<g id="edge70" class="edge"><title>Node2&#45;&gt;Node16</title>
<path style="fill:none;stroke:midnightblue;" d="M517,-493C525,-485 532,-475 537,-464 542,-450 544,-442 537,-430 527,-414 511,-402 494,-394"/>
<polygon style="fill:midnightblue;stroke:midnightblue;" points="514.221,-490.781 509,-500 518.831,-496.049 514.221,-490.781"/>
</g>
<!-- Node18 -->
<g id="node52" class="node"><title>Node18</title>
<a xlink:href="_threaded_t_c_p_connected_client_8cpp.html" target="_top" xlink:title="Implements the ThreadedTCPConnectedClient class. ">
<polygon style="fill:white;stroke:black;" points="320,-430 320,-464 528,-464 528,-430 320,-430"/>
<text text-anchor="start" x="328" y="-450" style="font-family:Arial;font-size:10.00;">S2Sim/SocketLibrary</text>
<text text-anchor="middle" x="424" y="-437" style="font-family:Arial;font-size:10.00;">/ThreadedTCPConnectedClient.cpp</text>
</a>
</g>
<!-- Node2&#45;&gt;Node18 -->
<g id="edge68" class="edge"><title>Node2&#45;&gt;Node18</title>
<path style="fill:none;stroke:midnightblue;" d="M463,-492C455,-483 446,-473 439,-464"/>
<polygon style="fill:midnightblue;stroke:midnightblue;" points="460.781,-494.779 470,-500 466.049,-490.169 460.781,-494.779"/>
</g>
<!-- Node3&#45;&gt;Node4 -->
<g id="edge6" class="edge"><title>Node3&#45;&gt;Node4</title>
<path style="fill:none;stroke:midnightblue;" d="M207,-294C259,-282 338,-264 389,-253"/>
<polygon style="fill:midnightblue;stroke:midnightblue;" points="206.119,-290.607 197,-296 207.492,-297.471 206.119,-290.607"/>
</g>
<!-- Node3&#45;&gt;Node8 -->
<g id="edge42" class="edge"><title>Node3&#45;&gt;Node8</title>
<path style="fill:none;stroke:midnightblue;" d="M210,-292C230,-284 250,-272 261,-254 275,-232 247,-208 228,-195"/>
<polygon style="fill:midnightblue;stroke:midnightblue;" points="208.717,-288.74 201,-296 211.56,-295.137 208.717,-288.74"/>
</g>
<!-- Node10 -->
<g id="node23" class="node"><title>Node10</title>
<a xlink:href="main_8cpp.html" target="_top" xlink:title="Main file that starts an infinite running loop on the SystemManager::AdvanceTimeStep method...">
<polygon style="fill:white;stroke:black;" points="136,-0 136,-21 240,-21 240,-0 136,-0"/>
<text text-anchor="middle" x="188" y="-7" style="font-family:Arial;font-size:10.00;">S2Sim/main.cpp</text>
</a>
</g>
<!-- Node3&#45;&gt;Node10 -->
<g id="edge46" class="edge"><title>Node3&#45;&gt;Node10</title>
<path style="fill:none;stroke:midnightblue;" d="M110,-292C92,-283 71,-271 57,-254 38,-229 38,-216 38,-185 38,-185 38,-185 38,-127 38,-69 108,-36 152,-21"/>
<polygon style="fill:midnightblue;stroke:midnightblue;" points="108.44,-295.137 119,-296 111.283,-288.74 108.44,-295.137"/>
</g>
<!-- Node13 -->
<g id="node35" class="node"><title>Node13</title>
<a xlink:href="_connection_manager_8cpp.html" target="_top" xlink:title="This file implements the ConnectionManager class. ">
<polygon style="fill:white;stroke:black;" points="66,-232 66,-253 253,-253 253,-232 66,-232"/>
<text text-anchor="middle" x="159" y="-239" style="font-family:Arial;font-size:10.00;">S2Sim/ConnectionManager.cpp</text>
</a>
</g>
<!-- Node3&#45;&gt;Node13 -->
<g id="edge44" class="edge"><title>Node3&#45;&gt;Node13</title>
<path style="fill:none;stroke:midnightblue;" d="M155,-286C156,-275 157,-262 158,-253"/>
<polygon style="fill:midnightblue;stroke:midnightblue;" points="151.512,-285.701 154,-296 158.478,-286.398 151.512,-285.701"/>
</g>
<!-- Node4&#45;&gt;Node3 -->
<g id="edge10" class="edge"><title>Node4&#45;&gt;Node3</title>
<path style="fill:none;stroke:midnightblue;" d="M389,-255C338,-267 259,-285 207,-296"/>
<polygon style="fill:midnightblue;stroke:midnightblue;" points="389.881,-258.393 399,-253 388.508,-251.529 389.881,-258.393"/>
</g>
<!-- Node5 -->
<g id="node9" class="node"><title>Node5</title>
<a xlink:href="_client_manager_8cpp.html" target="_top" xlink:title="Source file for the ClientManager class. ">
<polygon style="fill:white;stroke:black;" points="361,-174 361,-195 517,-195 517,-174 361,-174"/>
<text text-anchor="middle" x="439" y="-181" style="font-family:Arial;font-size:10.00;">S2Sim/ClientManager.cpp</text>
</a>
</g>
<!-- Node4&#45;&gt;Node5 -->
<g id="edge8" class="edge"><title>Node4&#45;&gt;Node5</title>
<path style="fill:none;stroke:midnightblue;" d="M439,-222C439,-212 439,-202 439,-195"/>
<polygon style="fill:midnightblue;stroke:midnightblue;" points="435.5,-222 439,-232 442.5,-222 435.5,-222"/>
</g>
<!-- Node6 -->
<g id="node12" class="node"><title>Node6</title>
<a xlink:href="_system_manager_8h.html" target="_top" xlink:title="Defines the SystemManager class. ">
<polygon style="fill:white;stroke:black;" points="324,-116 324,-137 475,-137 475,-116 324,-116"/>
<text text-anchor="middle" x="399" y="-123" style="font-family:Arial;font-size:10.00;">S2Sim/SystemManager.h</text>
</a>
</g>
<!-- Node4&#45;&gt;Node6 -->
<g id="edge12" class="edge"><title>Node4&#45;&gt;Node6</title>
<path style="fill:none;stroke:midnightblue;" d="M383,-228C367,-221 352,-210 343,-196 330,-174 356,-150 377,-137"/>
<polygon style="fill:midnightblue;stroke:midnightblue;" points="381.44,-231.137 392,-232 384.283,-224.74 381.44,-231.137"/>
</g>
<!-- Node4&#45;&gt;Node8 -->
<g id="edge40" class="edge"><title>Node4&#45;&gt;Node8</title>
<path style="fill:none;stroke:midnightblue;" d="M386,-229C345,-219 289,-204 251,-195"/>
<polygon style="fill:midnightblue;stroke:midnightblue;" points="385.416,-232.479 396,-232 387.427,-225.774 385.416,-232.479"/>
</g>
<!-- Node6&#45;&gt;Node4 -->
<g id="edge34" class="edge"><title>Node6&#45;&gt;Node4</title>
<path style="fill:none;stroke:midnightblue;" d="M382,-143C367,-157 350,-177 361,-196 372,-213 392,-225 409,-232"/>
<polygon style="fill:midnightblue;stroke:midnightblue;" points="384.1,-145.8 390,-137 379.9,-140.2 384.1,-145.8"/>
</g>
<!-- Node6&#45;&gt;Node7 -->
<g id="edge14" class="edge"><title>Node6&#45;&gt;Node7</title>
<path style="fill:none;stroke:midnightblue;" d="M409,-108C417,-98 427,-87 436,-79"/>
<polygon style="fill:midnightblue;stroke:midnightblue;" points="406.2,-105.9 403,-116 411.8,-110.1 406.2,-105.9"/>
</g>
<!-- Node6&#45;&gt;Node8 -->
<g id="edge32" class="edge"><title>Node6&#45;&gt;Node8</title>
<path style="fill:none;stroke:midnightblue;" d="M362,-140C330,-150 285,-164 253,-174"/>
<polygon style="fill:midnightblue;stroke:midnightblue;" points="363.427,-143.226 372,-137 361.416,-136.521 363.427,-143.226"/>
</g>
<!-- Node6&#45;&gt;Node10 -->
<g id="edge36" class="edge"><title>Node6&#45;&gt;Node10</title>
<path style="fill:none;stroke:midnightblue;" d="M385,-108C371,-93 351,-71 329,-58 301,-40 265,-28 236,-21"/>
<polygon style="fill:midnightblue;stroke:midnightblue;" points="382.2,-110.1 391,-116 387.8,-105.9 382.2,-110.1"/>
</g>
<!-- Node12 -->
<g id="node31" class="node"><title>Node12</title>
<a xlink:href="_system_manager_8cpp.html" target="_top" xlink:title="Implements the SystemManager class. ">
<polygon style="fill:white;stroke:black;" points="156,-58 156,-79 320,-79 320,-58 156,-58"/>
<text text-anchor="middle" x="238" y="-65" style="font-family:Arial;font-size:10.00;">S2Sim/SystemManager.cpp</text>
</a>
</g>
<!-- Node6&#45;&gt;Node12 -->
<g id="edge38" class="edge"><title>Node6&#45;&gt;Node12</title>
<path style="fill:none;stroke:midnightblue;" d="M358,-112C330,-102 292,-88 266,-79"/>
<polygon style="fill:midnightblue;stroke:midnightblue;" points="357.415,-115.536 368,-116 360.015,-109.036 357.415,-115.536"/>
</g>
<!-- Node7&#45;&gt;Node4 -->
<g id="edge16" class="edge"><title>Node7&#45;&gt;Node4</title>
<path style="fill:none;stroke:midnightblue;" d="M472,-85C502,-110 549,-156 526,-196 516,-213 496,-225 478,-232"/>
<polygon style="fill:midnightblue;stroke:midnightblue;" points="474.1,-82.2 464,-79 469.9,-87.8 474.1,-82.2"/>
</g>
<!-- Node7&#45;&gt;Node6 -->
<g id="edge18" class="edge"><title>Node7&#45;&gt;Node6</title>
<path style="fill:none;stroke:midnightblue;" d="M440,-87C432,-96 422,-108 414,-116"/>
<polygon style="fill:midnightblue;stroke:midnightblue;" points="442.8,-89.1 446,-79 437.2,-84.9 442.8,-89.1"/>
</g>
<!-- Node7&#45;&gt;Node8 -->
<g id="edge20" class="edge"><title>Node7&#45;&gt;Node8</title>
<path style="fill:none;stroke:midnightblue;" d="M403,-82C376,-90 343,-102 315,-116 298,-125 252,-156 228,-174"/>
<polygon style="fill:midnightblue;stroke:midnightblue;" points="404.427,-85.2259 413,-79 402.416,-78.5212 404.427,-85.2259"/>
</g>
<!-- Node7&#45;&gt;Node10 -->
<g id="edge28" class="edge"><title>Node7&#45;&gt;Node10</title>
<path style="fill:none;stroke:midnightblue;" d="M390,-56C343,-45 277,-30 233,-21"/>
<polygon style="fill:midnightblue;stroke:midnightblue;" points="389.508,-59.4708 400,-58 390.881,-52.6067 389.508,-59.4708"/>
</g>
<!-- Node11 -->
<g id="node26" class="node"><title>Node11</title>
<a xlink:href="_matlab_manager_8cpp.html" target="_top" xlink:title="Implements the MatlabManager class. ">
<polygon style="fill:white;stroke:black;" points="370,-0 370,-21 531,-21 531,-0 370,-0"/>
<text text-anchor="middle" x="450" y="-7" style="font-family:Arial;font-size:10.00;">S2Sim/MatlabManager.cpp</text>
</a>
</g>
<!-- Node7&#45;&gt;Node11 -->
<g id="edge30" class="edge"><title>Node7&#45;&gt;Node11</title>
<path style="fill:none;stroke:midnightblue;" d="M450,-48C450,-38 450,-28 450,-21"/>
<polygon style="fill:midnightblue;stroke:midnightblue;" points="446.5,-48 450,-58 453.5,-48 446.5,-48"/>
</g>
<!-- Node8&#45;&gt;Node6 -->
<g id="edge22" class="edge"><title>Node8&#45;&gt;Node6</title>
<path style="fill:none;stroke:midnightblue;" d="M252,-171C285,-160 330,-146 362,-137"/>
<polygon style="fill:midnightblue;stroke:midnightblue;" points="250.573,-167.774 242,-174 252.584,-174.479 250.573,-167.774"/>
</g>
<!-- Node9 -->
<g id="node21" class="node"><title>Node9</title>
<a xlink:href="_control_manager_8cpp.html" target="_top" xlink:title="This file implements the ControlManager class. ">
<polygon style="fill:white;stroke:black;" points="104,-116 104,-137 268,-137 268,-116 104,-116"/>
<text text-anchor="middle" x="186" y="-123" style="font-family:Arial;font-size:10.00;">S2Sim/ControlManager.cpp</text>
</a>
</g>
<!-- Node8&#45;&gt;Node9 -->
<g id="edge24" class="edge"><title>Node8&#45;&gt;Node9</title>
<path style="fill:none;stroke:midnightblue;" d="M203,-165C199,-155 194,-144 190,-137"/>
<polygon style="fill:midnightblue;stroke:midnightblue;" points="199.74,-166.283 207,-174 206.137,-163.44 199.74,-166.283"/>
</g>
<!-- Node8&#45;&gt;Node10 -->
<g id="edge26" class="edge"><title>Node8&#45;&gt;Node10</title>
<path style="fill:none;stroke:midnightblue;" d="M139,-170C122,-163 105,-153 95,-138 65,-93 136,-42 171,-21"/>
<polygon style="fill:midnightblue;stroke:midnightblue;" points="138.415,-173.536 149,-174 141.015,-167.036 138.415,-173.536"/>
</g>
<!-- Node15 -->
<g id="node43" class="node"><title>Node15</title>
<a xlink:href="_t_c_p_server_8cpp.html" target="_top" xlink:title="Implements the TCPServer class. ">
<polygon style="fill:white;stroke:black;" points="176,-360 176,-394 303,-394 303,-360 176,-360"/>
<text text-anchor="start" x="184" y="-380" style="font-family:Arial;font-size:10.00;">S2Sim/SocketLibrary</text>
<text text-anchor="middle" x="239" y="-367" style="font-family:Arial;font-size:10.00;">/TCPServer.cpp</text>
</a>
</g>
<!-- Node14&#45;&gt;Node15 -->
<g id="edge56" class="edge"><title>Node14&#45;&gt;Node15</title>
<path style="fill:none;stroke:midnightblue;" d="M239,-420C239,-411 239,-402 239,-394"/>
<polygon style="fill:midnightblue;stroke:midnightblue;" points="235.5,-420 239,-430 242.5,-420 235.5,-420"/>
</g>
<!-- Node14&#45;&gt;Node16 -->
<g id="edge58" class="edge"><title>Node14&#45;&gt;Node16</title>
<path style="fill:none;stroke:midnightblue;" d="M296,-427C325,-416 360,-404 388,-394"/>
<polygon style="fill:midnightblue;stroke:midnightblue;" points="295.38,-423.517 287,-430 297.594,-430.158 295.38,-423.517"/>
</g>
<!-- Node16&#45;&gt;Node3 -->
<g id="edge60" class="edge"><title>Node16&#45;&gt;Node3</title>
<path style="fill:none;stroke:midnightblue;" d="M357,-358C304,-344 236,-327 194,-317"/>
<polygon style="fill:midnightblue;stroke:midnightblue;" points="356.508,-361.471 367,-360 357.881,-354.607 356.508,-361.471"/>
</g>
<!-- Node16&#45;&gt;Node7 -->
<g id="edge62" class="edge"><title>Node16&#45;&gt;Node7</title>
<path style="fill:none;stroke:midnightblue;" d="M459,-352C486,-319 531,-258 542,-196 548,-160 550,-145 529,-116 517,-98 497,-87 479,-79"/>
<polygon style="fill:midnightblue;stroke:midnightblue;" points="455.951,-350.169 452,-360 461.219,-354.779 455.951,-350.169"/>
</g>
<!-- Node16&#45;&gt;Node8 -->
<g id="edge64" class="edge"><title>Node16&#45;&gt;Node8</title>
<path style="fill:none;stroke:midnightblue;" d="M436,-350C435,-331 430,-307 417,-290 405,-273 285,-218 234,-195"/>
<polygon style="fill:midnightblue;stroke:midnightblue;" points="432.522,-350.398 437,-360 439.488,-349.701 432.522,-350.398"/>
</g>
<!-- Node17 -->
<g id="node50" class="node"><title>Node17</title>
<a xlink:href="_threaded_t_c_p_server_8cpp.html" target="_top" xlink:title="Implements the ThreadedTCPServer class. ">
<polygon style="fill:white;stroke:black;" points="258,-290 258,-324 409,-324 409,-290 258,-290"/>
<text text-anchor="start" x="266" y="-310" style="font-family:Arial;font-size:10.00;">S2Sim/SocketLibrary</text>
<text text-anchor="middle" x="333" y="-297" style="font-family:Arial;font-size:10.00;">/ThreadedTCPServer.cpp</text>
</a>
</g>
<!-- Node16&#45;&gt;Node17 -->
<g id="edge66" class="edge"><title>Node16&#45;&gt;Node17</title>
<path style="fill:none;stroke:midnightblue;" d="M402,-354C388,-344 371,-333 358,-324"/>
<polygon style="fill:midnightblue;stroke:midnightblue;" points="400.738,-357.365 411,-360 404.621,-351.541 400.738,-357.365"/>
</g>
<!-- Node20 -->
<g id="node57" class="node"><title>Node20</title>
<a xlink:href="_threaded_t_c_p_client_8cpp.html" target="_top" xlink:title="Implements the ThreadedTCPClient class. ">
<polygon style="fill:white;stroke:black;" points="698,-430 698,-464 846,-464 846,-430 698,-430"/>
<text text-anchor="start" x="706" y="-450" style="font-family:Arial;font-size:10.00;">S2Sim/SocketLibrary</text>
<text text-anchor="middle" x="772" y="-437" style="font-family:Arial;font-size:10.00;">/ThreadedTCPClient.cpp</text>
</a>
</g>
<!-- Node19&#45;&gt;Node20 -->
<g id="edge74" class="edge"><title>Node19&#45;&gt;Node20</title>
<path style="fill:none;stroke:midnightblue;" d="M768,-490C769,-481 769,-472 770,-464"/>
<polygon style="fill:midnightblue;stroke:midnightblue;" points="764.512,-489.701 767,-500 771.478,-490.398 764.512,-489.701"/>
</g>
</g>
</svg>
