<?xml version="1.0" encoding="UTF-8" standalone="no"?>
<!DOCTYPE svg PUBLIC "-//W3C//DTD SVG 1.0//EN"
 "http://www.w3.org/TR/2001/REC-SVG-20010904/DTD/svg10.dtd" [
 <!ATTLIST svg xmlns:xlink CDATA #FIXED "http://www.w3.org/1999/xlink">
]>
<!-- Generated by Graphviz version 2.14.1 (Fri Nov  9 08:19:38 GMT 2007)
     For user: (asakyurek) Alper Sinan Akyurek -->
<!-- Title: S2Sim/SocketLibrary/ThreadedTCPClient.cpp Pages: 1 -->
<svg width="298pt" height="274pt"
 viewBox="0.00 0.00 298.00 274.00" xmlns="http://www.w3.org/2000/svg" xmlns:xlink="http://www.w3.org/1999/xlink">
<g id="graph0" class="graph" transform="scale(1 1) rotate(0) translate(4 270)">
<title>S2Sim/SocketLibrary/ThreadedTCPClient.cpp</title>
<polygon style="fill:white;stroke:white;" points="-4,4 -4,-270 294,-270 294,4 -4,4"/>
<!-- Node1 -->
<g id="node1" class="node"><title>Node1</title>
<polygon style="fill:#bfbfbf;stroke:black;" points="98,-232 98,-266 246,-266 246,-232 98,-232"/>
<text text-anchor="start" x="106" y="-252" style="font-family:Arial;font-size:10.00;">S2Sim/SocketLibrary</text>
<text text-anchor="middle" x="172" y="-239" style="font-family:Arial;font-size:10.00;">/ThreadedTCPClient.cpp</text>
</g>
<!-- Node2 -->
<g id="node3" class="node"><title>Node2</title>
<a xlink:href="_threaded_t_c_p_client_8h.html" target="_top" xlink:title="Defines the ThreadedTCPClient class. ">
<polygon style="fill:white;stroke:black;" points="106,-174 106,-195 238,-195 238,-174 106,-174"/>
<text text-anchor="middle" x="172" y="-181" style="font-family:Arial;font-size:10.00;">ThreadedTCPClient.h</text>
</a>
</g>
<!-- Node1&#45;&gt;Node2 -->
<g id="edge2" class="edge"><title>Node1&#45;&gt;Node2</title>
<path style="fill:none;stroke:midnightblue;" d="M172,-232C172,-224 172,-214 172,-205"/>
<polygon style="fill:midnightblue;stroke:midnightblue;" points="175.5,-205 172,-195 168.5,-205 175.5,-205"/>
</g>
<!-- Node3 -->
<g id="node5" class="node"><title>Node3</title>
<a xlink:href="_t_c_p_client_8h.html" target="_top" xlink:title="Defines the TCPClient class. ">
<polygon style="fill:white;stroke:black;" points="31,-116 31,-137 110,-137 110,-116 31,-116"/>
<text text-anchor="middle" x="70" y="-123" style="font-family:Arial;font-size:10.00;">TCPClient.h</text>
</a>
</g>
<!-- Node2&#45;&gt;Node3 -->
<g id="edge4" class="edge"><title>Node2&#45;&gt;Node3</title>
<path style="fill:none;stroke:midnightblue;" d="M152,-174C137,-165 115,-152 97,-142"/>
<polygon style="fill:midnightblue;stroke:midnightblue;" points="98.4414,-138.797 88,-137 95.0418,-144.916 98.4414,-138.797"/>
</g>
<!-- Node8 -->
<g id="node15" class="node"><title>Node8</title>
<a xlink:href="_thread_base_8h.html" target="_top" xlink:title="This file selects the right implementation according to the current OS. ">
<polygon style="fill:white;stroke:black;" points="127,-116 127,-137 218,-137 218,-116 127,-116"/>
<text text-anchor="middle" x="172" y="-123" style="font-family:Arial;font-size:10.00;">ThreadBase.h</text>
</a>
</g>
<!-- Node2&#45;&gt;Node8 -->
<g id="edge14" class="edge"><title>Node2&#45;&gt;Node8</title>
<path style="fill:none;stroke:midnightblue;" d="M172,-174C172,-166 172,-156 172,-147"/>
<polygon style="fill:midnightblue;stroke:midnightblue;" points="175.5,-147 172,-137 168.5,-147 175.5,-147"/>
</g>
<!-- Node9 -->
<g id="node17" class="node"><title>Node9</title>
<a xlink:href="_semaphore_8h.html" target="_top" xlink:title="Defines the Semaphore class under Windows 32/64bit and POSIX enables OSes. ">
<polygon style="fill:white;stroke:black;" points="200,-58 200,-79 290,-79 290,-58 200,-58"/>
<text text-anchor="middle" x="245" y="-65" style="font-family:Arial;font-size:10.00;">Semaphore.h</text>
</a>
</g>
<!-- Node2&#45;&gt;Node9 -->
<g id="edge16" class="edge"><title>Node2&#45;&gt;Node9</title>
<path style="fill:none;stroke:midnightblue;" d="M189,-174C201,-165 217,-152 226,-138 235,-123 240,-104 242,-89"/>
<polygon style="fill:midnightblue;stroke:midnightblue;" points="245.471,-89.4922 244,-79 238.607,-88.1194 245.471,-89.4922"/>
</g>
<!-- Node4 -->
<g id="node7" class="node"><title>Node4</title>
<a xlink:href="_socket_base_8h.html" target="_top" xlink:title="Defines the SocketBase template class. ">
<polygon style="fill:white;stroke:black;" points="94,-58 94,-79 183,-79 183,-58 94,-58"/>
<text text-anchor="middle" x="138" y="-65" style="font-family:Arial;font-size:10.00;">SocketBase.h</text>
</a>
</g>
<!-- Node3&#45;&gt;Node4 -->
<g id="edge6" class="edge"><title>Node3&#45;&gt;Node4</title>
<path style="fill:none;stroke:midnightblue;" d="M83,-116C93,-107 107,-95 118,-85"/>
<polygon style="fill:midnightblue;stroke:midnightblue;" points="120.1,-87.8 126,-79 115.9,-82.2 120.1,-87.8"/>
</g>
<!-- Node6 -->
<g id="node11" class="node"><title>Node6</title>
<a xlink:href="_i_p_address_8h.html" target="_top" xlink:title="Defines the IPAddress class. ">
<polygon style="fill:white;stroke:black;" points="0,-58 0,-79 77,-79 77,-58 0,-58"/>
<text text-anchor="middle" x="38" y="-65" style="font-family:Arial;font-size:10.00;">IPAddress.h</text>
</a>
</g>
<!-- Node3&#45;&gt;Node6 -->
<g id="edge10" class="edge"><title>Node3&#45;&gt;Node6</title>
<path style="fill:none;stroke:midnightblue;" d="M64,-116C60,-108 54,-97 49,-88"/>
<polygon style="fill:midnightblue;stroke:midnightblue;" points="51.916,-86.0418 44,-79 45.7969,-89.4414 51.916,-86.0418"/>
</g>
<!-- Node5 -->
<g id="node9" class="node"><title>Node5</title>
<polygon style="fill:white;stroke:#bfbfbf;" points="159,-0 159,-21 223,-21 223,-0 159,-0"/>
<text text-anchor="middle" x="191" y="-7" style="font-family:Arial;font-size:10.00;">iostream</text>
</g>
<!-- Node4&#45;&gt;Node5 -->
<g id="edge8" class="edge"><title>Node4&#45;&gt;Node5</title>
<path style="fill:none;stroke:midnightblue;" d="M148,-58C156,-49 166,-38 175,-29"/>
<polygon style="fill:midnightblue;stroke:midnightblue;" points="178.049,-30.8306 182,-21 172.781,-26.221 178.049,-30.8306"/>
</g>
<!-- Node7 -->
<g id="node13" class="node"><title>Node7</title>
<polygon style="fill:white;stroke:#bfbfbf;" points="10,-0 10,-21 66,-21 66,-0 10,-0"/>
<text text-anchor="middle" x="38" y="-7" style="font-family:Arial;font-size:10.00;">string.h</text>
</g>
<!-- Node6&#45;&gt;Node7 -->
<g id="edge12" class="edge"><title>Node6&#45;&gt;Node7</title>
<path style="fill:none;stroke:midnightblue;" d="M38,-58C38,-50 38,-40 38,-31"/>
<polygon style="fill:midnightblue;stroke:midnightblue;" points="41.5001,-31 38,-21 34.5001,-31 41.5001,-31"/>
</g>
<!-- Node9&#45;&gt;Node5 -->
<g id="edge18" class="edge"><title>Node9&#45;&gt;Node5</title>
<path style="fill:none;stroke:midnightblue;" d="M235,-58C227,-49 216,-38 207,-28"/>
<polygon style="fill:midnightblue;stroke:midnightblue;" points="209.546,-25.5962 200,-21 204.596,-30.546 209.546,-25.5962"/>
</g>
</g>
</svg>
