<?xml version="1.0" encoding="UTF-8" standalone="no"?>
<!DOCTYPE svg PUBLIC "-//W3C//DTD SVG 1.0//EN"
 "http://www.w3.org/TR/2001/REC-SVG-20010904/DTD/svg10.dtd" [
 <!ATTLIST svg xmlns:xlink CDATA #FIXED "http://www.w3.org/1999/xlink">
]>
<!-- Generated by Graphviz version 2.14.1 (Fri Nov  9 08:19:38 GMT 2007)
     For user: (asakyurek) Alper Sinan Akyurek -->
<!-- Title: S2Sim/SocketLibrary/ThreadedTCPServer.h Pages: 1 -->
<svg width="777pt" height="402pt"
 viewBox="0.00 0.00 777.00 402.00" xmlns="http://www.w3.org/2000/svg" xmlns:xlink="http://www.w3.org/1999/xlink">
<g id="graph0" class="graph" transform="scale(1 1) rotate(0) translate(4 398)">
<title>S2Sim/SocketLibrary/ThreadedTCPServer.h</title>
<polygon style="fill:white;stroke:white;" points="-4,4 -4,-398 773,-398 773,4 -4,4"/>
<!-- Node1 -->
<g id="node1" class="node"><title>Node1</title>
<polygon style="fill:#bfbfbf;stroke:black;" points="400,-360 400,-394 538,-394 538,-360 400,-360"/>
<text text-anchor="start" x="408" y="-380" style="font-family:Arial;font-size:10.00;">S2Sim/SocketLibrary</text>
<text text-anchor="middle" x="469" y="-367" style="font-family:Arial;font-size:10.00;">/ThreadedTCPServer.h</text>
</g>
<!-- Node2 -->
<g id="node3" class="node"><title>Node2</title>
<a xlink:href="_connection_manager_8h.html" target="_top" xlink:title="S2Sim/ConnectionManager.h">
<polygon style="fill:white;stroke:black;" points="212,-296 212,-317 386,-317 386,-296 212,-296"/>
<text text-anchor="middle" x="299" y="-303" style="font-family:Arial;font-size:10.00;">S2Sim/ConnectionManager.h</text>
</a>
</g>
<!-- Node1&#45;&gt;Node2 -->
<g id="edge2" class="edge"><title>Node1&#45;&gt;Node2</title>
<path style="fill:none;stroke:midnightblue;" d="M418,-356C387,-343 348,-327 324,-317"/>
<polygon style="fill:midnightblue;stroke:midnightblue;" points="416.44,-359.137 427,-360 419.283,-352.74 416.44,-359.137"/>
</g>
<!-- Node6 -->
<g id="node12" class="node"><title>Node6</title>
<a xlink:href="_matlab_manager_8h.html" target="_top" xlink:title="S2Sim/MatlabManager.h">
<polygon style="fill:white;stroke:black;" points="89,-58 89,-79 237,-79 237,-58 89,-58"/>
<text text-anchor="middle" x="163" y="-65" style="font-family:Arial;font-size:10.00;">S2Sim/MatlabManager.h</text>
</a>
</g>
<!-- Node1&#45;&gt;Node6 -->
<g id="edge44" class="edge"><title>Node1&#45;&gt;Node6</title>
<path style="fill:none;stroke:midnightblue;" d="M390,-369C265,-353 38,-316 38,-243 38,-243 38,-243 38,-185 38,-131 101,-95 137,-79"/>
<polygon style="fill:midnightblue;stroke:midnightblue;" points="389.701,-372.488 400,-370 390.398,-365.522 389.701,-372.488"/>
</g>
<!-- Node7 -->
<g id="node16" class="node"><title>Node7</title>
<a xlink:href="_control_manager_8h.html" target="_top" xlink:title="S2Sim/ControlManager.h">
<polygon style="fill:white;stroke:black;" points="334,-174 334,-195 485,-195 485,-174 334,-174"/>
<text text-anchor="middle" x="409" y="-181" style="font-family:Arial;font-size:10.00;">S2Sim/ControlManager.h</text>
</a>
</g>
<!-- Node1&#45;&gt;Node7 -->
<g id="edge46" class="edge"><title>Node1&#45;&gt;Node7</title>
<path style="fill:none;stroke:midnightblue;" d="M505,-354C546,-325 604,-274 572,-232 560,-215 513,-203 473,-195"/>
<polygon style="fill:midnightblue;stroke:midnightblue;" points="502.9,-351.2 497,-360 507.1,-356.8 502.9,-351.2"/>
</g>
<!-- Node13 -->
<g id="node37" class="node"><title>Node13</title>
<a xlink:href="_threaded_t_c_p_server_8cpp.html" target="_top" xlink:title="S2Sim/SocketLibrary\l/ThreadedTCPServer.cpp">
<polygon style="fill:white;stroke:black;" points="619,-290 619,-324 770,-324 770,-290 619,-290"/>
<text text-anchor="start" x="627" y="-310" style="font-family:Arial;font-size:10.00;">S2Sim/SocketLibrary</text>
<text text-anchor="middle" x="694" y="-297" style="font-family:Arial;font-size:10.00;">/ThreadedTCPServer.cpp</text>
</a>
</g>
<!-- Node1&#45;&gt;Node13 -->
<g id="edge48" class="edge"><title>Node1&#45;&gt;Node13</title>
<path style="fill:none;stroke:midnightblue;" d="M534,-357C567,-347 607,-334 639,-324"/>
<polygon style="fill:midnightblue;stroke:midnightblue;" points="532.573,-353.774 524,-360 534.584,-360.479 532.573,-353.774"/>
</g>
<!-- Node3 -->
<g id="node5" class="node"><title>Node3</title>
<a xlink:href="_client_manager_8h.html" target="_top" xlink:title="S2Sim/ClientManager.h">
<polygon style="fill:white;stroke:black;" points="179,-232 179,-253 322,-253 322,-232 179,-232"/>
<text text-anchor="middle" x="250" y="-239" style="font-family:Arial;font-size:10.00;">S2Sim/ClientManager.h</text>
</a>
</g>
<!-- Node2&#45;&gt;Node3 -->
<g id="edge4" class="edge"><title>Node2&#45;&gt;Node3</title>
<path style="fill:none;stroke:midnightblue;" d="M278,-288C268,-277 258,-263 253,-253"/>
<polygon style="fill:midnightblue;stroke:midnightblue;" points="275.781,-290.779 285,-296 281.049,-286.169 275.781,-290.779"/>
</g>
<!-- Node2&#45;&gt;Node7 -->
<g id="edge38" class="edge"><title>Node2&#45;&gt;Node7</title>
<path style="fill:none;stroke:midnightblue;" d="M316,-288C339,-263 381,-216 400,-195"/>
<polygon style="fill:midnightblue;stroke:midnightblue;" points="312.951,-286.169 309,-296 318.219,-290.779 312.951,-286.169"/>
</g>
<!-- Node9 -->
<g id="node21" class="node"><title>Node9</title>
<a xlink:href="main_8cpp.html" target="_top" xlink:title="S2Sim/main.cpp">
<polygon style="fill:white;stroke:black;" points="36,-0 36,-21 140,-21 140,-0 36,-0"/>
<text text-anchor="middle" x="88" y="-7" style="font-family:Arial;font-size:10.00;">S2Sim/main.cpp</text>
</a>
</g>
<!-- Node2&#45;&gt;Node9 -->
<g id="edge42" class="edge"><title>Node2&#45;&gt;Node9</title>
<path style="fill:none;stroke:midnightblue;" d="M233,-294C146,-274 0,-234 0,-185 0,-185 0,-185 0,-127 0,-79 47,-39 73,-21"/>
<polygon style="fill:midnightblue;stroke:midnightblue;" points="232.508,-297.471 243,-296 233.881,-290.607 232.508,-297.471"/>
</g>
<!-- Node12 -->
<g id="node32" class="node"><title>Node12</title>
<a xlink:href="_connection_manager_8cpp.html" target="_top" xlink:title="S2Sim/ConnectionManager.cpp">
<polygon style="fill:white;stroke:black;" points="377,-232 377,-253 564,-253 564,-232 377,-232"/>
<text text-anchor="middle" x="470" y="-239" style="font-family:Arial;font-size:10.00;">S2Sim/ConnectionManager.cpp</text>
</a>
</g>
<!-- Node2&#45;&gt;Node12 -->
<g id="edge40" class="edge"><title>Node2&#45;&gt;Node12</title>
<path style="fill:none;stroke:midnightblue;" d="M337,-292C370,-280 415,-264 443,-253"/>
<polygon style="fill:midnightblue;stroke:midnightblue;" points="335.717,-288.74 328,-296 338.56,-295.137 335.717,-288.74"/>
</g>
<!-- Node3&#45;&gt;Node2 -->
<g id="edge8" class="edge"><title>Node3&#45;&gt;Node2</title>
<path style="fill:none;stroke:midnightblue;" d="M270,-261C280,-272 290,-286 296,-296"/>
<polygon style="fill:midnightblue;stroke:midnightblue;" points="272.219,-258.221 263,-253 266.951,-262.831 272.219,-258.221"/>
</g>
<!-- Node4 -->
<g id="node7" class="node"><title>Node4</title>
<a xlink:href="_client_manager_8cpp.html" target="_top" xlink:title="S2Sim/ClientManager.cpp">
<polygon style="fill:white;stroke:black;" points="66,-174 66,-195 222,-195 222,-174 66,-174"/>
<text text-anchor="middle" x="144" y="-181" style="font-family:Arial;font-size:10.00;">S2Sim/ClientManager.cpp</text>
</a>
</g>
<!-- Node3&#45;&gt;Node4 -->
<g id="edge6" class="edge"><title>Node3&#45;&gt;Node4</title>
<path style="fill:none;stroke:midnightblue;" d="M221,-227C202,-217 178,-204 162,-195"/>
<polygon style="fill:midnightblue;stroke:midnightblue;" points="219.559,-230.203 230,-232 222.958,-224.084 219.559,-230.203"/>
</g>
<!-- Node5 -->
<g id="node10" class="node"><title>Node5</title>
<a xlink:href="_system_manager_8h.html" target="_top" xlink:title="S2Sim/SystemManager.h">
<polygon style="fill:white;stroke:black;" points="231,-116 231,-137 382,-137 382,-116 231,-116"/>
<text text-anchor="middle" x="306" y="-123" style="font-family:Arial;font-size:10.00;">S2Sim/SystemManager.h</text>
</a>
</g>
<!-- Node3&#45;&gt;Node5 -->
<g id="edge10" class="edge"><title>Node3&#45;&gt;Node5</title>
<path style="fill:none;stroke:midnightblue;" d="M255,-223C265,-198 285,-156 297,-137"/>
<polygon style="fill:midnightblue;stroke:midnightblue;" points="251.863,-221.44 251,-232 258.26,-224.283 251.863,-221.44"/>
</g>
<!-- Node3&#45;&gt;Node7 -->
<g id="edge36" class="edge"><title>Node3&#45;&gt;Node7</title>
<path style="fill:none;stroke:midnightblue;" d="M290,-228C318,-218 356,-204 381,-195"/>
<polygon style="fill:midnightblue;stroke:midnightblue;" points="287.985,-225.036 280,-232 290.585,-231.536 287.985,-225.036"/>
</g>
<!-- Node5&#45;&gt;Node3 -->
<g id="edge32" class="edge"><title>Node5&#45;&gt;Node3</title>
<path style="fill:none;stroke:midnightblue;" d="M302,-146C292,-171 272,-213 260,-232"/>
<polygon style="fill:midnightblue;stroke:midnightblue;" points="305.158,-147.594 305,-137 298.517,-145.38 305.158,-147.594"/>
</g>
<!-- Node5&#45;&gt;Node6 -->
<g id="edge12" class="edge"><title>Node5&#45;&gt;Node6</title>
<path style="fill:none;stroke:midnightblue;" d="M263,-112C237,-102 203,-88 183,-79"/>
<polygon style="fill:midnightblue;stroke:midnightblue;" points="262.415,-115.536 273,-116 265.015,-109.036 262.415,-115.536"/>
</g>
<!-- Node5&#45;&gt;Node7 -->
<g id="edge30" class="edge"><title>Node5&#45;&gt;Node7</title>
<path style="fill:none;stroke:midnightblue;" d="M338,-142C357,-152 380,-165 395,-174"/>
<polygon style="fill:midnightblue;stroke:midnightblue;" points="339.441,-138.797 329,-137 336.042,-144.916 339.441,-138.797"/>
</g>
<!-- Node11 -->
<g id="node28" class="node"><title>Node11</title>
<a xlink:href="_system_manager_8cpp.html" target="_top" xlink:title="S2Sim/SystemManager.cpp">
<polygon style="fill:white;stroke:black;" points="255,-58 255,-79 419,-79 419,-58 255,-58"/>
<text text-anchor="middle" x="337" y="-65" style="font-family:Arial;font-size:10.00;">S2Sim/SystemManager.cpp</text>
</a>
</g>
<!-- Node5&#45;&gt;Node11 -->
<g id="edge34" class="edge"><title>Node5&#45;&gt;Node11</title>
<path style="fill:none;stroke:midnightblue;" d="M317,-107C322,-97 328,-87 332,-79"/>
<polygon style="fill:midnightblue;stroke:midnightblue;" points="313.797,-105.559 312,-116 319.916,-108.958 313.797,-105.559"/>
</g>
<!-- Node6&#45;&gt;Node3 -->
<g id="edge14" class="edge"><title>Node6&#45;&gt;Node3</title>
<path style="fill:none;stroke:midnightblue;" d="M177,-87C192,-107 216,-141 231,-174 240,-193 245,-218 248,-232"/>
<polygon style="fill:midnightblue;stroke:midnightblue;" points="179.8,-84.9 171,-79 174.2,-89.1 179.8,-84.9"/>
</g>
<!-- Node6&#45;&gt;Node5 -->
<g id="edge16" class="edge"><title>Node6&#45;&gt;Node5</title>
<path style="fill:none;stroke:midnightblue;" d="M203,-83C229,-93 263,-106 284,-116"/>
<polygon style="fill:midnightblue;stroke:midnightblue;" points="203.585,-79.4643 193,-79 200.985,-85.9636 203.585,-79.4643"/>
</g>
<!-- Node6&#45;&gt;Node7 -->
<g id="edge18" class="edge"><title>Node6&#45;&gt;Node7</title>
<path style="fill:none;stroke:midnightblue;" d="M239,-81C301,-91 379,-106 390,-116 406,-131 409,-158 409,-174"/>
<polygon style="fill:midnightblue;stroke:midnightblue;" points="239.492,-77.5292 229,-79 238.119,-84.3933 239.492,-77.5292"/>
</g>
<!-- Node6&#45;&gt;Node9 -->
<g id="edge26" class="edge"><title>Node6&#45;&gt;Node9</title>
<path style="fill:none;stroke:midnightblue;" d="M141,-52C128,-41 112,-29 101,-21"/>
<polygon style="fill:midnightblue;stroke:midnightblue;" points="138.9,-54.8 149,-58 143.1,-49.2 138.9,-54.8"/>
</g>
<!-- Node10 -->
<g id="node24" class="node"><title>Node10</title>
<a xlink:href="_matlab_manager_8cpp.html" target="_top" xlink:title="S2Sim/MatlabManager.cpp">
<polygon style="fill:white;stroke:black;" points="158,-0 158,-21 319,-21 319,-0 158,-0"/>
<text text-anchor="middle" x="238" y="-7" style="font-family:Arial;font-size:10.00;">S2Sim/MatlabManager.cpp</text>
</a>
</g>
<!-- Node6&#45;&gt;Node10 -->
<g id="edge28" class="edge"><title>Node6&#45;&gt;Node10</title>
<path style="fill:none;stroke:midnightblue;" d="M185,-52C198,-41 214,-29 225,-21"/>
<polygon style="fill:midnightblue;stroke:midnightblue;" points="182.9,-49.2 177,-58 187.1,-54.8 182.9,-49.2"/>
</g>
<!-- Node7&#45;&gt;Node5 -->
<g id="edge20" class="edge"><title>Node7&#45;&gt;Node5</title>
<path style="fill:none;stroke:midnightblue;" d="M375,-169C356,-159 333,-146 319,-137"/>
<polygon style="fill:midnightblue;stroke:midnightblue;" points="373.559,-172.203 384,-174 376.958,-166.084 373.559,-172.203"/>
</g>
<!-- Node8 -->
<g id="node19" class="node"><title>Node8</title>
<a xlink:href="_control_manager_8cpp.html" target="_top" xlink:title="S2Sim/ControlManager.cpp">
<polygon style="fill:white;stroke:black;" points="475,-116 475,-137 639,-137 639,-116 475,-116"/>
<text text-anchor="middle" x="557" y="-123" style="font-family:Arial;font-size:10.00;">S2Sim/ControlManager.cpp</text>
</a>
</g>
<!-- Node7&#45;&gt;Node8 -->
<g id="edge22" class="edge"><title>Node7&#45;&gt;Node8</title>
<path style="fill:none;stroke:midnightblue;" d="M446,-170C473,-160 508,-146 531,-137"/>
<polygon style="fill:midnightblue;stroke:midnightblue;" points="444.717,-166.74 437,-174 447.56,-173.137 444.717,-166.74"/>
</g>
<!-- Node7&#45;&gt;Node9 -->
<g id="edge24" class="edge"><title>Node7&#45;&gt;Node9</title>
<path style="fill:none;stroke:midnightblue;" d="M421,-165C434,-137 454,-88 428,-58 386,-11 210,-31 149,-22 146,-21 143,-21 140,-20"/>
<polygon style="fill:midnightblue;stroke:midnightblue;" points="417.797,-163.559 416,-174 423.916,-166.958 417.797,-163.559"/>
</g>
</g>
</svg>
