<?xml version="1.0" encoding="UTF-8" standalone="no"?>
<!DOCTYPE svg PUBLIC "-//W3C//DTD SVG 1.0//EN"
 "http://www.w3.org/TR/2001/REC-SVG-20010904/DTD/svg10.dtd" [
 <!ATTLIST svg xmlns:xlink CDATA #FIXED "http://www.w3.org/1999/xlink">
]>
<!-- Generated by Graphviz version 2.14.1 (Fri Nov  9 08:19:38 GMT 2007)
     For user: (asakyurek) Alper Sinan Akyurek -->
<!-- Title: S2Sim/SocketLibrary/UDPSocket.h Pages: 1 -->
<svg width="134pt" height="112pt"
 viewBox="0.00 0.00 134.00 112.00" xmlns="http://www.w3.org/2000/svg" xmlns:xlink="http://www.w3.org/1999/xlink">
<g id="graph0" class="graph" transform="scale(1 1) rotate(0) translate(4 108)">
<title>S2Sim/SocketLibrary/UDPSocket.h</title>
<polygon style="fill:white;stroke:white;" points="-4,4 -4,-108 130,-108 130,4 -4,4"/>
<!-- Node1 -->
<g id="node1" class="node"><title>Node1</title>
<polygon style="fill:#bfbfbf;stroke:black;" points="0,-70 0,-104 127,-104 127,-70 0,-70"/>
<text text-anchor="start" x="8" y="-90" style="font-family:Arial;font-size:10.00;">S2Sim/SocketLibrary</text>
<text text-anchor="middle" x="63" y="-77" style="font-family:Arial;font-size:10.00;">/UDPSocket.h</text>
</g>
<!-- Node2 -->
<g id="node3" class="node"><title>Node2</title>
<a xlink:href="_u_d_p_socket_8cpp.html" target="_top" xlink:title="Implements the UDPSocket class. ">
<polygon style="fill:white;stroke:black;" points="0,-0 0,-34 127,-34 127,-0 0,-0"/>
<text text-anchor="start" x="8" y="-20" style="font-family:Arial;font-size:10.00;">S2Sim/SocketLibrary</text>
<text text-anchor="middle" x="63" y="-7" style="font-family:Arial;font-size:10.00;">/UDPSocket.cpp</text>
</a>
</g>
<!-- Node1&#45;&gt;Node2 -->
<g id="edge2" class="edge"><title>Node1&#45;&gt;Node2</title>
<path style="fill:none;stroke:midnightblue;" d="M63,-60C63,-51 63,-42 63,-34"/>
<polygon style="fill:midnightblue;stroke:midnightblue;" points="59.5001,-60 63,-70 66.5001,-60 59.5001,-60"/>
</g>
</g>
</svg>
