<?xml version="1.0" encoding="UTF-8" standalone="no"?>
<!DOCTYPE svg PUBLIC "-//W3C//DTD SVG 1.0//EN"
 "http://www.w3.org/TR/2001/REC-SVG-20010904/DTD/svg10.dtd" [
 <!ATTLIST svg xmlns:xlink CDATA #FIXED "http://www.w3.org/1999/xlink">
]>
<!-- Generated by Graphviz version 2.14.1 (Fri Nov  9 08:19:38 GMT 2007)
     For user: (asakyurek) Alper Sinan Akyurek -->
<!-- Title: ControlManager::ControlManager Pages: 1 -->
<svg width="1190pt" height="401pt"
 viewBox="0.00 0.00 1190.00 401.00" xmlns="http://www.w3.org/2000/svg" xmlns:xlink="http://www.w3.org/1999/xlink">
<g id="graph0" class="graph" transform="scale(1 1) rotate(0) translate(4 397)">
<title>ControlManager::ControlManager</title>
<polygon style="fill:white;stroke:white;" points="-4,4 -4,-397 1186,-397 1186,4 -4,4"/>
<!-- Node1 -->
<g id="node1" class="node"><title>Node1</title>
<polygon style="fill:#bfbfbf;stroke:black;" points="0,-231 0,-252 198,-252 198,-231 0,-231"/>
<text text-anchor="middle" x="99" y="-238" style="font-family:Arial;font-size:10.00;">ControlManager::ControlManager</text>
</g>
<!-- Node2 -->
<g id="node3" class="node"><title>Node2</title>
<a xlink:href="class_t_c_p_server.html#a8d5ad30ba42960a84973b57f74a853fa" target="_top" xlink:title="TCPServer::SetPort">
<polygon style="fill:white;stroke:black;" points="257,-315 257,-336 374,-336 374,-315 257,-315"/>
<text text-anchor="middle" x="315" y="-322" style="font-family:Arial;font-size:10.00;">TCPServer::SetPort</text>
</a>
</g>
<!-- Node1&#45;&gt;Node2 -->
<g id="edge2" class="edge"><title>Node1&#45;&gt;Node2</title>
<path style="fill:none;stroke:midnightblue;" d="M125,-252C163,-267 234,-294 278,-311"/>
<polygon style="fill:midnightblue;stroke:midnightblue;" points="276.44,-314.137 287,-315 279.283,-307.74 276.44,-314.137"/>
</g>
<!-- Node9 -->
<g id="node17" class="node"><title>Node9</title>
<a xlink:href="class_threaded_t_c_p_server.html#ac201656ab22b4ad07115d78cf8b7dd89" target="_top" xlink:title="ThreadedTCPServer::\lSetNotificationCallback">
<polygon style="fill:white;stroke:black;" points="243,-225 243,-259 387,-259 387,-225 243,-225"/>
<text text-anchor="start" x="251" y="-245" style="font-family:Arial;font-size:10.00;">ThreadedTCPServer::</text>
<text text-anchor="middle" x="315" y="-232" style="font-family:Arial;font-size:10.00;">SetNotificationCallback</text>
</a>
</g>
<!-- Node1&#45;&gt;Node9 -->
<g id="edge16" class="edge"><title>Node1&#45;&gt;Node9</title>
<path style="fill:none;stroke:midnightblue;" d="M198,-242C210,-242 221,-242 233,-242"/>
<polygon style="fill:midnightblue;stroke:midnightblue;" points="233,-245.5 243,-242 233,-238.5 233,-245.5"/>
</g>
<!-- Node12 -->
<g id="node23" class="node"><title>Node12</title>
<a xlink:href="_control_manager_8cpp.html#a5f09b25cf454170e17d1aa3c2707273a" target="_top" xlink:title="ControlNotificationHandler">
<polygon style="fill:white;stroke:black;" points="234,-171 234,-192 396,-192 396,-171 234,-171"/>
<text text-anchor="middle" x="315" y="-178" style="font-family:Arial;font-size:10.00;">ControlNotificationHandler</text>
</a>
</g>
<!-- Node1&#45;&gt;Node12 -->
<g id="edge22" class="edge"><title>Node1&#45;&gt;Node12</title>
<path style="fill:none;stroke:midnightblue;" d="M139,-231C176,-221 231,-206 269,-195"/>
<polygon style="fill:midnightblue;stroke:midnightblue;" points="270.427,-198.226 279,-192 268.416,-191.521 270.427,-198.226"/>
</g>
<!-- Node3 -->
<g id="node5" class="node"><title>Node3</title>
<a xlink:href="class_i_p_address.html#ade47d25d834bfb952fcf7fb2867db21e" target="_top" xlink:title="IPAddress::SetAddress">
<polygon style="fill:white;stroke:black;" points="446,-372 446,-393 579,-393 579,-372 446,-372"/>
<text text-anchor="middle" x="512" y="-379" style="font-family:Arial;font-size:10.00;">IPAddress::SetAddress</text>
</a>
</g>
<!-- Node2&#45;&gt;Node3 -->
<g id="edge4" class="edge"><title>Node2&#45;&gt;Node3</title>
<path style="fill:none;stroke:midnightblue;" d="M344,-336C368,-344 402,-355 432,-364 440,-366 447,-368 455,-370"/>
<polygon style="fill:midnightblue;stroke:midnightblue;" points="454.508,-373.471 465,-372 455.881,-366.607 454.508,-373.471"/>
</g>
<!-- Node5 -->
<g id="node9" class="node"><title>Node5</title>
<a xlink:href="class_i_p_address.html#a5908d6242879f0e45685f8b0734dafa7" target="_top" xlink:title="IPAddress::SetPort">
<polygon style="fill:white;stroke:black;" points="456,-334 456,-355 568,-355 568,-334 456,-334"/>
<text text-anchor="middle" x="512" y="-341" style="font-family:Arial;font-size:10.00;">IPAddress::SetPort</text>
</a>
</g>
<!-- Node2&#45;&gt;Node5 -->
<g id="edge8" class="edge"><title>Node2&#45;&gt;Node5</title>
<path style="fill:none;stroke:midnightblue;" d="M374,-332C397,-334 422,-336 446,-339"/>
<polygon style="fill:midnightblue;stroke:midnightblue;" points="445.701,-342.488 456,-340 446.398,-335.522 445.701,-342.488"/>
</g>
<!-- Node7 -->
<g id="node13" class="node"><title>Node7</title>
<a xlink:href="class_t_c_p_server.html#a85bb8272c9599d98bcb28e4156a755fb" target="_top" xlink:title="TCPServer::SetAddress">
<polygon style="fill:white;stroke:black;" points="443,-296 443,-317 581,-317 581,-296 443,-296"/>
<text text-anchor="middle" x="512" y="-303" style="font-family:Arial;font-size:10.00;">TCPServer::SetAddress</text>
</a>
</g>
<!-- Node2&#45;&gt;Node7 -->
<g id="edge12" class="edge"><title>Node2&#45;&gt;Node7</title>
<path style="fill:none;stroke:midnightblue;" d="M374,-320C393,-318 413,-317 433,-315"/>
<polygon style="fill:midnightblue;stroke:midnightblue;" points="433.398,-318.478 443,-314 432.701,-311.512 433.398,-318.478"/>
</g>
<!-- Node4 -->
<g id="node7" class="node"><title>Node4</title>
<a xlink:href="class_i_p_address.html#a0c90b37a86811781d4422c0dd2d5b6b5" target="_top" xlink:title="IPAddress::GetAddress">
<polygon style="fill:white;stroke:black;" points="652,-372 652,-393 786,-393 786,-372 652,-372"/>
<text text-anchor="middle" x="719" y="-379" style="font-family:Arial;font-size:10.00;">IPAddress::GetAddress</text>
</a>
</g>
<!-- Node3&#45;&gt;Node4 -->
<g id="edge6" class="edge"><title>Node3&#45;&gt;Node4</title>
<path style="fill:none;stroke:midnightblue;" d="M579,-383C599,-383 621,-383 642,-383"/>
<polygon style="fill:midnightblue;stroke:midnightblue;" points="642,-386.5 652,-383 642,-379.5 642,-386.5"/>
</g>
<!-- Node6 -->
<g id="node11" class="node"><title>Node6</title>
<a xlink:href="class_i_p_address.html#a5c8a6aeae1105603538c2661c68fd6bb" target="_top" xlink:title="IPAddress::GetPort">
<polygon style="fill:white;stroke:black;" points="663,-334 663,-355 776,-355 776,-334 663,-334"/>
<text text-anchor="middle" x="719" y="-341" style="font-family:Arial;font-size:10.00;">IPAddress::GetPort</text>
</a>
</g>
<!-- Node5&#45;&gt;Node6 -->
<g id="edge10" class="edge"><title>Node5&#45;&gt;Node6</title>
<path style="fill:none;stroke:midnightblue;" d="M568,-345C594,-345 625,-345 653,-345"/>
<polygon style="fill:midnightblue;stroke:midnightblue;" points="653,-348.5 663,-345 653,-341.5 653,-348.5"/>
</g>
<!-- Node8 -->
<g id="node15" class="node"><title>Node8</title>
<a xlink:href="class_i_p_address.html#abdbc7cc25dc15d9e85ceb2e1d3125e22" target="_top" xlink:title="IPAddress::GetSocketSize">
<polygon style="fill:white;stroke:black;" points="643,-296 643,-317 795,-317 795,-296 643,-296"/>
<text text-anchor="middle" x="719" y="-303" style="font-family:Arial;font-size:10.00;">IPAddress::GetSocketSize</text>
</a>
</g>
<!-- Node7&#45;&gt;Node8 -->
<g id="edge14" class="edge"><title>Node7&#45;&gt;Node8</title>
<path style="fill:none;stroke:midnightblue;" d="M581,-307C598,-307 615,-307 633,-307"/>
<polygon style="fill:midnightblue;stroke:midnightblue;" points="633,-310.5 643,-307 633,-303.5 633,-310.5"/>
</g>
<!-- Node10 -->
<g id="node19" class="node"><title>Node10</title>
<a xlink:href="class_t_c_p_server.html#a2d424428c9107b8b40905f0aefc7d30b" target="_top" xlink:title="TCPServer::Listen">
<polygon style="fill:white;stroke:black;" points="457,-258 457,-279 567,-279 567,-258 457,-258"/>
<text text-anchor="middle" x="512" y="-265" style="font-family:Arial;font-size:10.00;">TCPServer::Listen</text>
</a>
</g>
<!-- Node9&#45;&gt;Node10 -->
<g id="edge18" class="edge"><title>Node9&#45;&gt;Node10</title>
<path style="fill:none;stroke:midnightblue;" d="M387,-252C407,-255 428,-258 447,-261"/>
<polygon style="fill:midnightblue;stroke:midnightblue;" points="446.701,-264.488 457,-262 447.398,-257.522 446.701,-264.488"/>
</g>
<!-- Node11 -->
<g id="node21" class="node"><title>Node11</title>
<a xlink:href="class_thread_base.html#aaea6437d738ac97e3427bbe466f850f8" target="_top" xlink:title="ThreadBase::StartThread">
<polygon style="fill:white;stroke:black;" points="436,-220 436,-241 588,-241 588,-220 436,-220"/>
<text text-anchor="middle" x="512" y="-227" style="font-family:Arial;font-size:10.00;">ThreadBase::StartThread</text>
</a>
</g>
<!-- Node9&#45;&gt;Node11 -->
<g id="edge20" class="edge"><title>Node9&#45;&gt;Node11</title>
<path style="fill:none;stroke:midnightblue;" d="M387,-238C400,-237 413,-236 426,-236"/>
<polygon style="fill:midnightblue;stroke:midnightblue;" points="426.398,-239.478 436,-235 425.701,-232.512 426.398,-239.478"/>
</g>
<!-- Node13 -->
<g id="node25" class="node"><title>Node13</title>
<a xlink:href="_log_print_8h.html#a7e0c5f42cad5bc3a44134fb9c9a7a052" target="_top" xlink:title="LogPrint">
<polygon style="fill:white;stroke:black;" points="1090,-113 1090,-134 1150,-134 1150,-113 1090,-113"/>
<text text-anchor="middle" x="1120" y="-120" style="font-family:Arial;font-size:10.00;">LogPrint</text>
</a>
</g>
<!-- Node12&#45;&gt;Node13 -->
<g id="edge24" class="edge"><title>Node12&#45;&gt;Node13</title>
<path style="fill:none;stroke:midnightblue;" d="M396,-192C529,-206 801,-223 1022,-171 1049,-164 1077,-150 1095,-139"/>
<polygon style="fill:midnightblue;stroke:midnightblue;" points="1096.96,-141.916 1104,-134 1093.56,-135.797 1096.96,-141.916"/>
</g>
<!-- Node14 -->
<g id="node27" class="node"><title>Node14</title>
<a xlink:href="_control_manager_8cpp.html#a63bfd4667c9c70297f25ae5e5176818e" target="_top" xlink:title="Returns the only instance of ControlManager. ">
<polygon style="fill:white;stroke:black;" points="873,-141 873,-162 996,-162 996,-141 873,-141"/>
<text text-anchor="middle" x="934" y="-148" style="font-family:Arial;font-size:10.00;">GetControlManager</text>
</a>
</g>
<!-- Node12&#45;&gt;Node14 -->
<g id="edge26" class="edge"><title>Node12&#45;&gt;Node14</title>
<path style="fill:none;stroke:midnightblue;" d="M396,-178C518,-172 746,-161 863,-155"/>
<polygon style="fill:midnightblue;stroke:midnightblue;" points="863,-158.5 873,-155 863,-151.5 863,-158.5"/>
</g>
<!-- Node15 -->
<g id="node29" class="node"><title>Node15</title>
<a xlink:href="class_control_manager.html#a67d548535b36a78e315a0aa5f9f8e6c8" target="_top" xlink:title="ControlManager::SetClient">
<polygon style="fill:white;stroke:black;" points="432,-99 432,-120 592,-120 592,-99 432,-99"/>
<text text-anchor="middle" x="512" y="-106" style="font-family:Arial;font-size:10.00;">ControlManager::SetClient</text>
</a>
</g>
<!-- Node12&#45;&gt;Node15 -->
<g id="edge28" class="edge"><title>Node12&#45;&gt;Node15</title>
<path style="fill:none;stroke:midnightblue;" d="M345,-171C381,-158 438,-137 475,-123"/>
<polygon style="fill:midnightblue;stroke:midnightblue;" points="476.427,-126.226 485,-120 474.416,-119.521 476.427,-126.226"/>
</g>
<!-- Node16 -->
<g id="node31" class="node"><title>Node16</title>
<a xlink:href="class_threaded_t_c_p_connected_client.html#ae8f981925319c228443e0ef78ef0ae67" target="_top" xlink:title="ThreadedTCPConnectedClient\l::SetNotificationCallback">
<polygon style="fill:white;stroke:black;" points="628,-93 628,-127 810,-127 810,-93 628,-93"/>
<text text-anchor="start" x="636" y="-113" style="font-family:Arial;font-size:10.00;">ThreadedTCPConnectedClient</text>
<text text-anchor="middle" x="719" y="-100" style="font-family:Arial;font-size:10.00;">::SetNotificationCallback</text>
</a>
</g>
<!-- Node15&#45;&gt;Node16 -->
<g id="edge30" class="edge"><title>Node15&#45;&gt;Node16</title>
<path style="fill:none;stroke:midnightblue;" d="M592,-110C601,-110 609,-110 618,-110"/>
<polygon style="fill:midnightblue;stroke:midnightblue;" points="618,-113.5 628,-110 618,-106.5 618,-113.5"/>
</g>
<!-- Node17 -->
<g id="node33" class="node"><title>Node17</title>
<a xlink:href="_control_manager_8h.html#a295ee31280dd699294f5787580750ce4" target="_top" xlink:title="Wrapper callback method for reception notification. ">
<polygon style="fill:white;stroke:black;" points="648,-54 648,-75 790,-75 790,-54 648,-54"/>
<text text-anchor="middle" x="719" y="-61" style="font-family:Arial;font-size:10.00;">ControlReceiveHandler</text>
</a>
</g>
<!-- Node15&#45;&gt;Node17 -->
<g id="edge32" class="edge"><title>Node15&#45;&gt;Node17</title>
<path style="fill:none;stroke:midnightblue;" d="M560,-99C581,-94 606,-89 628,-84 638,-82 650,-80 660,-77"/>
<polygon style="fill:midnightblue;stroke:midnightblue;" points="660.881,-80.3933 670,-75 659.508,-73.5292 660.881,-80.3933"/>
</g>
<!-- Node17&#45;&gt;Node13 -->
<g id="edge34" class="edge"><title>Node17&#45;&gt;Node13</title>
<path style="fill:none;stroke:midnightblue;" d="M788,-75C807,-78 827,-81 846,-84 929,-95 1026,-110 1080,-118"/>
<polygon style="fill:midnightblue;stroke:midnightblue;" points="1079.7,-121.488 1090,-119 1080.4,-114.522 1079.7,-121.488"/>
</g>
<!-- Node17&#45;&gt;Node14 -->
<g id="edge36" class="edge"><title>Node17&#45;&gt;Node14</title>
<path style="fill:none;stroke:midnightblue;" d="M788,-75C796,-77 803,-80 810,-84 831,-95 827,-108 846,-121 857,-128 869,-133 881,-138"/>
<polygon style="fill:midnightblue;stroke:midnightblue;" points="880.416,-141.479 891,-141 882.427,-134.774 880.416,-141.479"/>
</g>
<!-- Node18 -->
<g id="node37" class="node"><title>Node18</title>
<a xlink:href="class_control_manager.html#a2dc55da1b01fd175b3d885c68b8a7524" target="_top" xlink:title="Processes the received message from the External Controller. ">
<polygon style="fill:white;stroke:black;" points="846,-54 846,-75 1022,-75 1022,-54 846,-54"/>
<text text-anchor="middle" x="934" y="-61" style="font-family:Arial;font-size:10.00;">ControlManager::ProcessData</text>
</a>
</g>
<!-- Node17&#45;&gt;Node18 -->
<g id="edge38" class="edge"><title>Node17&#45;&gt;Node18</title>
<path style="fill:none;stroke:midnightblue;" d="M790,-65C805,-65 820,-65 836,-65"/>
<polygon style="fill:midnightblue;stroke:midnightblue;" points="836,-68.5001 846,-65 836,-61.5001 836,-68.5001"/>
</g>
<!-- Node18&#45;&gt;Node13 -->
<g id="edge42" class="edge"><title>Node18&#45;&gt;Node13</title>
<path style="fill:none;stroke:midnightblue;" d="M966,-75C983,-80 1004,-87 1022,-93 1039,-98 1042,-99 1058,-105 1065,-107 1073,-109 1080,-112"/>
<polygon style="fill:midnightblue;stroke:midnightblue;" points="1079.42,-115.479 1090,-115 1081.43,-108.774 1079.42,-115.479"/>
</g>
<!-- Node19 -->
<g id="node39" class="node"><title>Node19</title>
<a xlink:href="_log_print_8h.html#a46ea30a62534f8ce32cd39454e459b23" target="_top" xlink:title="WarningPrint">
<polygon style="fill:white;stroke:black;" points="1078,-75 1078,-96 1163,-96 1163,-75 1078,-75"/>
<text text-anchor="middle" x="1120" y="-82" style="font-family:Arial;font-size:10.00;">WarningPrint</text>
</a>
</g>
<!-- Node18&#45;&gt;Node19 -->
<g id="edge40" class="edge"><title>Node18&#45;&gt;Node19</title>
<path style="fill:none;stroke:midnightblue;" d="M1022,-75C1037,-77 1053,-78 1068,-80"/>
<polygon style="fill:midnightblue;stroke:midnightblue;" points="1067.7,-83.4875 1078,-81 1068.4,-76.5222 1067.7,-83.4875"/>
</g>
<!-- Node20 -->
<g id="node42" class="node"><title>Node20</title>
<a xlink:href="_log_print_8h.html#af783a2ea2c57c5f51f905a24f3f5a835" target="_top" xlink:title="ErrorPrint">
<polygon style="fill:white;stroke:black;" points="1088,-37 1088,-58 1153,-58 1153,-37 1088,-37"/>
<text text-anchor="middle" x="1120" y="-44" style="font-family:Arial;font-size:10.00;">ErrorPrint</text>
</a>
</g>
<!-- Node18&#45;&gt;Node20 -->
<g id="edge44" class="edge"><title>Node18&#45;&gt;Node20</title>
<path style="fill:none;stroke:midnightblue;" d="M1022,-57C1041,-55 1061,-54 1078,-52"/>
<polygon style="fill:midnightblue;stroke:midnightblue;" points="1078.4,-55.4778 1088,-51 1077.7,-48.5125 1078.4,-55.4778"/>
</g>
<!-- Node21 -->
<g id="node44" class="node"><title>Node21</title>
<a xlink:href="_system_manager_8cpp.html#a97e64f74d188d41051488578800d20cd" target="_top" xlink:title="GetSystemManager">
<polygon style="fill:white;stroke:black;" points="1059,1 1059,-20 1182,-20 1182,1 1059,1"/>
<text text-anchor="middle" x="1120" y="-6" style="font-family:Arial;font-size:10.00;">GetSystemManager</text>
</a>
</g>
<!-- Node18&#45;&gt;Node21 -->
<g id="edge46" class="edge"><title>Node18&#45;&gt;Node21</title>
<path style="fill:none;stroke:midnightblue;" d="M972,-54C1002,-45 1045,-33 1076,-23"/>
<polygon style="fill:midnightblue;stroke:midnightblue;" points="1077.43,-26.2259 1086,-20 1075.42,-19.5212 1077.43,-26.2259"/>
</g>
</g>
</svg>
