<?xml version="1.0" encoding="UTF-8" standalone="no"?>
<!DOCTYPE svg PUBLIC "-//W3C//DTD SVG 1.0//EN"
 "http://www.w3.org/TR/2001/REC-SVG-20010904/DTD/svg10.dtd" [
 <!ATTLIST svg xmlns:xlink CDATA #FIXED "http://www.w3.org/1999/xlink">
]>
<!-- Generated by Graphviz version 2.14.1 (Fri Nov  9 08:19:38 GMT 2007)
     For user: (asakyurek) Alper Sinan Akyurek -->
<!-- Title: ControlManager::UnRegisterClient Pages: 1 -->
<svg width="380pt" height="42pt"
 viewBox="0.00 0.00 380.00 42.00" xmlns="http://www.w3.org/2000/svg" xmlns:xlink="http://www.w3.org/1999/xlink">
<g id="graph0" class="graph" transform="scale(1 1) rotate(0) translate(4 38)">
<title>ControlManager::UnRegisterClient</title>
<polygon style="fill:white;stroke:white;" points="-4,4 -4,-38 376,-38 376,4 -4,4"/>
<!-- Node1 -->
<g id="node1" class="node"><title>Node1</title>
<polygon style="fill:#bfbfbf;stroke:black;" points="1,-0 1,-34 170,-34 170,-0 1,-0"/>
<text text-anchor="start" x="9" y="-20" style="font-family:Arial;font-size:10.00;">ControlManager::UnRegister</text>
<text text-anchor="middle" x="85" y="-7" style="font-family:Arial;font-size:10.00;">Client</text>
</g>
<!-- Node2 -->
<g id="node3" class="node"><title>Node2</title>
<a xlink:href="class_client_manager.html#a4fa8fc5731587276f5e6be92563474fa" target="_top" xlink:title="Handles the broken connection case. ">
<polygon style="fill:white;stroke:black;" points="207,-0 207,-34 372,-34 372,-0 207,-0"/>
<text text-anchor="start" x="215" y="-20" style="font-family:Arial;font-size:10.00;">ClientManager::Connection</text>
<text text-anchor="middle" x="289" y="-7" style="font-family:Arial;font-size:10.00;">Broken</text>
</a>
</g>
<!-- Node1&#45;&gt;Node2 -->
<g id="edge2" class="edge"><title>Node1&#45;&gt;Node2</title>
<path style="fill:none;stroke:midnightblue;" d="M180,-17C189,-17 198,-17 207,-17"/>
<polygon style="fill:midnightblue;stroke:midnightblue;" points="180,-13.5001 170,-17 180,-20.5001 180,-13.5001"/>
</g>
</g>
</svg>
