<?xml version="1.0" encoding="UTF-8" standalone="no"?>
<!DOCTYPE svg PUBLIC "-//W3C//DTD SVG 1.0//EN"
 "http://www.w3.org/TR/2001/REC-SVG-20010904/DTD/svg10.dtd" [
 <!ATTLIST svg xmlns:xlink CDATA #FIXED "http://www.w3.org/1999/xlink">
]>
<!-- Generated by Graphviz version 2.14.1 (Fri Nov  9 08:19:38 GMT 2007)
     For user: (asakyurek) Alper Sinan Akyurek -->
<!-- Title: SocketBase&lt; SocketType &gt; Pages: 1 -->
<svg width="536pt" height="222pt"
 viewBox="0.00 0.00 536.00 222.00" xmlns="http://www.w3.org/2000/svg" xmlns:xlink="http://www.w3.org/1999/xlink">
<g id="graph0" class="graph" transform="scale(1 1) rotate(0) translate(4 218)">
<title>SocketBase&lt; SocketType &gt;</title>
<polygon style="fill:white;stroke:white;" points="-4,4 -4,-218 532,-218 532,4 -4,4"/>
<!-- Node1 -->
<g id="node1" class="node"><title>Node1</title>
<polygon style="fill:#bfbfbf;stroke:black;" points="270,-192 270,-213 436,-213 436,-192 270,-192"/>
<text text-anchor="middle" x="353" y="-199" style="font-family:Arial;font-size:10.00;">SocketBase&lt; SocketType &gt;</text>
</g>
<!-- Node2 -->
<g id="node3" class="node"><title>Node2</title>
<a xlink:href="class_socket_base.html" target="_top" xlink:title="SocketBase\&lt; SOCK_STREAM \&gt;">
<polygon style="fill:white;stroke:black;" points="148,-120 148,-141 330,-141 330,-120 148,-120"/>
<text text-anchor="middle" x="239" y="-127" style="font-family:Arial;font-size:10.00;">SocketBase&lt; SOCK_STREAM &gt;</text>
</a>
</g>
<!-- Node1&#45;&gt;Node2 -->
<g id="edge2" class="edge"><title>Node1&#45;&gt;Node2</title>
<path style="fill:none;stroke:orange;stroke-dasharray:5,2;" d="M301,-189C292,-185 282,-180 274,-174 262,-165 251,-151 245,-141"/>
<polygon style="fill:orange;stroke:orange;" points="300.416,-192.479 311,-192 302.427,-185.774 300.416,-192.479"/>
<text text-anchor="middle" x="333" y="-164" style="font-family:Arial;font-size:10.00;"> &lt; SOCK_STREAM &gt;</text>
</g>
<!-- Node9 -->
<g id="node17" class="node"><title>Node9</title>
<a xlink:href="class_socket_base.html" target="_top" xlink:title="SocketBase\&lt; SOCK_DGRAM \&gt;">
<polygon style="fill:white;stroke:black;" points="350,-120 350,-141 528,-141 528,-120 350,-120"/>
<text text-anchor="middle" x="439" y="-127" style="font-family:Arial;font-size:10.00;">SocketBase&lt; SOCK_DGRAM &gt;</text>
</a>
</g>
<!-- Node1&#45;&gt;Node9 -->
<g id="edge16" class="edge"><title>Node1&#45;&gt;Node9</title>
<path style="fill:none;stroke:orange;stroke-dasharray:5,2;" d="M375,-186C380,-182 385,-178 389,-174 402,-163 417,-150 427,-141"/>
<polygon style="fill:orange;stroke:orange;" points="372.9,-183.2 367,-192 377.1,-188.8 372.9,-183.2"/>
<text text-anchor="middle" x="452" y="-164" style="font-family:Arial;font-size:10.00;"> &lt; SOCK_DGRAM &gt;</text>
</g>
<!-- Node3 -->
<g id="node5" class="node"><title>Node3</title>
<a xlink:href="class_t_c_p_client.html" target="_top" xlink:title="This class defines a TCP client that can connect to a TCP server and communicate. ...">
<polygon style="fill:white;stroke:black;" points="54,-60 54,-81 123,-81 123,-60 54,-60"/>
<text text-anchor="middle" x="88" y="-67" style="font-family:Arial;font-size:10.00;">TCPClient</text>
</a>
</g>
<!-- Node2&#45;&gt;Node3 -->
<g id="edge4" class="edge"><title>Node2&#45;&gt;Node3</title>
<path style="fill:none;stroke:midnightblue;" d="M202,-116C174,-105 137,-91 113,-81"/>
<polygon style="fill:midnightblue;stroke:midnightblue;" points="200.44,-119.137 211,-120 203.283,-112.74 200.44,-119.137"/>
</g>
<!-- Node5 -->
<g id="node9" class="node"><title>Node5</title>
<a xlink:href="class_t_c_p_connected_client.html" target="_top" xlink:title="Manages the connection to a connected client on the server side. ">
<polygon style="fill:white;stroke:black;" points="167,-60 167,-81 296,-81 296,-60 167,-60"/>
<text text-anchor="middle" x="231" y="-67" style="font-family:Arial;font-size:10.00;">TCPConnectedClient</text>
</a>
</g>
<!-- Node2&#45;&gt;Node5 -->
<g id="edge8" class="edge"><title>Node2&#45;&gt;Node5</title>
<path style="fill:none;stroke:midnightblue;" d="M236,-110C235,-100 233,-89 232,-81"/>
<polygon style="fill:midnightblue;stroke:midnightblue;" points="232.607,-110.881 238,-120 239.471,-109.508 232.607,-110.881"/>
</g>
<!-- Node7 -->
<g id="node13" class="node"><title>Node7</title>
<a xlink:href="class_t_c_p_server.html" target="_top" xlink:title="Defines a TCP server that can listen to connection attempts and can accept them for communication...">
<polygon style="fill:white;stroke:black;" points="313,-60 313,-81 385,-81 385,-60 313,-60"/>
<text text-anchor="middle" x="349" y="-67" style="font-family:Arial;font-size:10.00;">TCPServer</text>
</a>
</g>
<!-- Node2&#45;&gt;Node7 -->
<g id="edge12" class="edge"><title>Node2&#45;&gt;Node7</title>
<path style="fill:none;stroke:midnightblue;" d="M268,-115C288,-105 314,-91 331,-81"/>
<polygon style="fill:midnightblue;stroke:midnightblue;" points="266.042,-112.084 259,-120 269.441,-118.203 266.042,-112.084"/>
</g>
<!-- Node4 -->
<g id="node7" class="node"><title>Node4</title>
<a xlink:href="class_threaded_t_c_p_client.html" target="_top" xlink:title="This is a TCP client class that receives data in a separate thread in the background. ">
<polygon style="fill:white;stroke:black;" points="0,-0 0,-21 122,-21 122,-0 0,-0"/>
<text text-anchor="middle" x="61" y="-7" style="font-family:Arial;font-size:10.00;">ThreadedTCPClient</text>
</a>
</g>
<!-- Node3&#45;&gt;Node4 -->
<g id="edge6" class="edge"><title>Node3&#45;&gt;Node4</title>
<path style="fill:none;stroke:midnightblue;" d="M79,-51C74,-41 69,-29 65,-21"/>
<polygon style="fill:midnightblue;stroke:midnightblue;" points="75.7402,-52.2834 83,-60 82.1369,-49.4404 75.7402,-52.2834"/>
</g>
<!-- Node6 -->
<g id="node11" class="node"><title>Node6</title>
<a xlink:href="class_threaded_t_c_p_connected_client.html" target="_top" xlink:title="Manages the connection to an accepted client on the server side and receives data in a separate threa...">
<polygon style="fill:white;stroke:black;" points="140,-0 140,-21 322,-21 322,-0 140,-0"/>
<text text-anchor="middle" x="231" y="-7" style="font-family:Arial;font-size:10.00;">ThreadedTCPConnectedClient</text>
</a>
</g>
<!-- Node5&#45;&gt;Node6 -->
<g id="edge10" class="edge"><title>Node5&#45;&gt;Node6</title>
<path style="fill:none;stroke:midnightblue;" d="M231,-50C231,-40 231,-29 231,-21"/>
<polygon style="fill:midnightblue;stroke:midnightblue;" points="227.5,-50 231,-60 234.5,-50 227.5,-50"/>
</g>
<!-- Node8 -->
<g id="node15" class="node"><title>Node8</title>
<a xlink:href="class_threaded_t_c_p_server.html" target="_top" xlink:title="Defines the threaded version of TCPServer that accepts clients in another thread in the background...">
<polygon style="fill:white;stroke:black;" points="340,-0 340,-21 465,-21 465,-0 340,-0"/>
<text text-anchor="middle" x="402" y="-7" style="font-family:Arial;font-size:10.00;">ThreadedTCPServer</text>
</a>
</g>
<!-- Node7&#45;&gt;Node8 -->
<g id="edge14" class="edge"><title>Node7&#45;&gt;Node8</title>
<path style="fill:none;stroke:midnightblue;" d="M366,-52C375,-42 386,-30 393,-21"/>
<polygon style="fill:midnightblue;stroke:midnightblue;" points="362.951,-50.1694 359,-60 368.219,-54.779 362.951,-50.1694"/>
</g>
<!-- Node10 -->
<g id="node19" class="node"><title>Node10</title>
<a xlink:href="class_u_d_p_socket.html" target="_top" xlink:title="Manages a UDP connection. ">
<polygon style="fill:white;stroke:black;" points="403,-60 403,-81 478,-81 478,-60 403,-60"/>
<text text-anchor="middle" x="440" y="-67" style="font-family:Arial;font-size:10.00;">UDPSocket</text>
</a>
</g>
<!-- Node9&#45;&gt;Node10 -->
<g id="edge18" class="edge"><title>Node9&#45;&gt;Node10</title>
<path style="fill:none;stroke:#8b1a1a;" d="M439,-110C439,-100 439,-89 440,-81"/>
<polygon style="fill:#8b1a1a;stroke:#8b1a1a;" points="435.5,-110 439,-120 442.5,-110 435.5,-110"/>
</g>
</g>
</svg>
