<?xml version="1.0" encoding="UTF-8" standalone="no"?>
<!DOCTYPE svg PUBLIC "-//W3C//DTD SVG 1.0//EN"
 "http://www.w3.org/TR/2001/REC-SVG-20010904/DTD/svg10.dtd" [
 <!ATTLIST svg xmlns:xlink CDATA #FIXED "http://www.w3.org/1999/xlink">
]>
<!-- Generated by Graphviz version 2.14.1 (Fri Nov  9 08:19:38 GMT 2007)
     For user: (asakyurek) Alper Sinan Akyurek -->
<!-- Title: TerraSwarm::Synchronous::DemandNegotiation::GetDataPoints Pages: 1 -->
<svg width="654pt" height="54pt"
 viewBox="0.00 0.00 654.00 54.00" xmlns="http://www.w3.org/2000/svg" xmlns:xlink="http://www.w3.org/1999/xlink">
<g id="graph0" class="graph" transform="scale(1 1) rotate(0) translate(4 50)">
<title>TerraSwarm::Synchronous::DemandNegotiation::GetDataPoints</title>
<polygon style="fill:white;stroke:white;" points="-4,4 -4,-50 650,-50 650,4 -4,4"/>
<!-- Node1 -->
<g id="node1" class="node"><title>Node1</title>
<polygon style="fill:#bfbfbf;stroke:black;" points="0,1 0,-46 184,-46 184,1 0,1"/>
<text text-anchor="start" x="8" y="-32" style="font-family:Arial;font-size:10.00;">TerraSwarm::Synchronous</text>
<text text-anchor="start" x="8" y="-19" style="font-family:Arial;font-size:10.00;">::DemandNegotiation::GetData</text>
<text text-anchor="middle" x="92" y="-6" style="font-family:Arial;font-size:10.00;">Points</text>
</g>
<!-- Node2 -->
<g id="node3" class="node"><title>Node2</title>
<a xlink:href="class_client_manager.html#ad8841acd386513f41ab0872c67593ff4" target="_top" xlink:title="Processes the demand negotiation response. ">
<polygon style="fill:white;stroke:black;" points="221,-6 221,-40 410,-40 410,-6 221,-6"/>
<text text-anchor="start" x="229" y="-26" style="font-family:Arial;font-size:10.00;">ClientManager::ProcessDemand</text>
<text text-anchor="middle" x="315" y="-13" style="font-family:Arial;font-size:10.00;">Negotiation</text>
</a>
</g>
<!-- Node1&#45;&gt;Node2 -->
<g id="edge2" class="edge"><title>Node1&#45;&gt;Node2</title>
<path style="fill:none;stroke:midnightblue;" d="M194,-23C203,-23 212,-23 221,-23"/>
<polygon style="fill:midnightblue;stroke:midnightblue;" points="194,-19.5001 184,-23 194,-26.5001 194,-19.5001"/>
</g>
<!-- Node3 -->
<g id="node5" class="node"><title>Node3</title>
<a xlink:href="class_client_manager.html#abf05d2ac88337dfd02e0b7986ee1e18c" target="_top" xlink:title="Called when a message is received. ">
<polygon style="fill:white;stroke:black;" points="447,-12 447,-33 646,-33 646,-12 447,-12"/>
<text text-anchor="middle" x="546" y="-19" style="font-family:Arial;font-size:10.00;">ClientManager::MessageReceived</text>
</a>
</g>
<!-- Node2&#45;&gt;Node3 -->
<g id="edge4" class="edge"><title>Node2&#45;&gt;Node3</title>
<path style="fill:none;stroke:midnightblue;" d="M420,-23C429,-23 438,-23 447,-23"/>
<polygon style="fill:midnightblue;stroke:midnightblue;" points="420,-19.5001 410,-23 420,-26.5001 420,-19.5001"/>
</g>
</g>
</svg>
