<?xml version="1.0" encoding="UTF-8" standalone="no"?>
<!DOCTYPE svg PUBLIC "-//W3C//DTD SVG 1.0//EN"
 "http://www.w3.org/TR/2001/REC-SVG-20010904/DTD/svg10.dtd" [
 <!ATTLIST svg xmlns:xlink CDATA #FIXED "http://www.w3.org/1999/xlink">
]>
<!-- Generated by Graphviz version 2.14.1 (Fri Nov  9 08:19:38 GMT 2007)
     For user: (asakyurek) Alper Sinan Akyurek -->
<!-- Title: ThreadedTCPServer Pages: 1 -->
<svg width="463pt" height="326pt"
 viewBox="0.00 0.00 463.00 326.00" xmlns="http://www.w3.org/2000/svg" xmlns:xlink="http://www.w3.org/1999/xlink">
<g id="graph0" class="graph" transform="scale(1 1) rotate(0) translate(4 322)">
<title>ThreadedTCPServer</title>
<polygon style="fill:white;stroke:white;" points="-4,4 -4,-322 459,-322 459,4 -4,4"/>
<!-- Node1 -->
<g id="node1" class="node"><title>Node1</title>
<polygon style="fill:#bfbfbf;stroke:black;" points="92,-0 92,-21 217,-21 217,-0 92,-0"/>
<text text-anchor="middle" x="154" y="-7" style="font-family:Arial;font-size:10.00;">ThreadedTCPServer</text>
</g>
<!-- Node2 -->
<g id="node2" class="node"><title>Node2</title>
<a xlink:href="class_t_c_p_server.html" target="_top" xlink:title="Defines a TCP server that can listen to connection attempts and can accept them for communication...">
<polygon style="fill:white;stroke:black;" points="333,-112 333,-133 405,-133 405,-112 333,-112"/>
<text text-anchor="middle" x="369" y="-119" style="font-family:Arial;font-size:10.00;">TCPServer</text>
</a>
</g>
<!-- Node2&#45;&gt;Node1 -->
<g id="edge2" class="edge"><title>Node2&#45;&gt;Node1</title>
<path style="fill:none;stroke:midnightblue;" d="M367,-102C365,-91 360,-79 353,-72 332,-51 258,-32 206,-21"/>
<polygon style="fill:midnightblue;stroke:midnightblue;" points="363.522,-102.398 368,-112 370.488,-101.701 363.522,-102.398"/>
</g>
<!-- Node3 -->
<g id="node4" class="node"><title>Node3</title>
<a xlink:href="class_socket_base.html" target="_top" xlink:title="SocketBase\&lt; SOCK_STREAM \&gt;">
<polygon style="fill:white;stroke:black;" points="258,-224 258,-245 440,-245 440,-224 258,-224"/>
<text text-anchor="middle" x="349" y="-231" style="font-family:Arial;font-size:10.00;">SocketBase&lt; SOCK_STREAM &gt;</text>
</a>
</g>
<!-- Node3&#45;&gt;Node2 -->
<g id="edge4" class="edge"><title>Node3&#45;&gt;Node2</title>
<path style="fill:none;stroke:midnightblue;" d="M353,-214C357,-190 364,-151 367,-133"/>
<polygon style="fill:midnightblue;stroke:midnightblue;" points="349.529,-213.508 351,-224 356.393,-214.881 349.529,-213.508"/>
</g>
<!-- Node7 -->
<g id="node12" class="node"><title>Node7</title>
<a xlink:href="class_t_c_p_connected_client.html" target="_top" xlink:title="Manages the connection to a connected client on the server side. ">
<polygon style="fill:white;stroke:black;" points="107,-152 107,-173 236,-173 236,-152 107,-152"/>
<text text-anchor="middle" x="171" y="-159" style="font-family:Arial;font-size:10.00;">TCPConnectedClient</text>
</a>
</g>
<!-- Node3&#45;&gt;Node7 -->
<g id="edge14" class="edge"><title>Node3&#45;&gt;Node7</title>
<path style="fill:none;stroke:midnightblue;" d="M321,-219C305,-210 285,-199 266,-192 248,-184 227,-178 210,-173"/>
<polygon style="fill:midnightblue;stroke:midnightblue;" points="319.559,-222.203 330,-224 322.958,-216.084 319.559,-222.203"/>
</g>
<!-- Node4 -->
<g id="node6" class="node"><title>Node4</title>
<a xlink:href="class_socket_base.html" target="_top" xlink:title="This class is an abstraction over the OS socket and defines a base class for socket opening and closi...">
<polygon style="fill:white;stroke:black;" points="266,-296 266,-317 432,-317 432,-296 266,-296"/>
<text text-anchor="middle" x="349" y="-303" style="font-family:Arial;font-size:10.00;">SocketBase&lt; SocketType &gt;</text>
</a>
</g>
<!-- Node4&#45;&gt;Node3 -->
<g id="edge6" class="edge"><title>Node4&#45;&gt;Node3</title>
<path style="fill:none;stroke:orange;stroke-dasharray:5,2;" d="M349,-286C349,-272 349,-256 349,-245"/>
<polygon style="fill:orange;stroke:orange;" points="345.5,-286 349,-296 352.5,-286 345.5,-286"/>
<text text-anchor="middle" x="402" y="-268" style="font-family:Arial;font-size:10.00;"> &lt; SOCK_STREAM &gt;</text>
</g>
<!-- Node5 -->
<g id="node8" class="node"><title>Node5</title>
<a xlink:href="class_thread_base.html" target="_top" xlink:title="Provides a base class that can be inherited from to gain threading capabilities. ">
<polygon style="fill:white;stroke:black;" points="0,-152 0,-173 81,-173 81,-152 0,-152"/>
<text text-anchor="middle" x="40" y="-159" style="font-family:Arial;font-size:10.00;">ThreadBase</text>
</a>
</g>
<!-- Node5&#45;&gt;Node1 -->
<g id="edge8" class="edge"><title>Node5&#45;&gt;Node1</title>
<path style="fill:none;stroke:#8b1a1a;" d="M39,-142C38,-122 41,-93 54,-72 71,-47 101,-30 124,-21"/>
<polygon style="fill:#8b1a1a;stroke:#8b1a1a;" points="35.5001,-142 39,-152 42.5001,-142 35.5001,-142"/>
</g>
<!-- Node6 -->
<g id="node10" class="node"><title>Node6</title>
<a xlink:href="class_threaded_t_c_p_connected_client.html" target="_top" xlink:title="Manages the connection to an accepted client on the server side and receives data in a separate threa...">
<polygon style="fill:white;stroke:black;" points="63,-72 63,-93 245,-93 245,-72 63,-72"/>
<text text-anchor="middle" x="154" y="-79" style="font-family:Arial;font-size:10.00;">ThreadedTCPConnectedClient</text>
</a>
</g>
<!-- Node5&#45;&gt;Node6 -->
<g id="edge18" class="edge"><title>Node5&#45;&gt;Node6</title>
<path style="fill:none;stroke:#8b1a1a;" d="M64,-146C87,-130 120,-106 140,-93"/>
<polygon style="fill:#8b1a1a;stroke:#8b1a1a;" points="61.9,-143.2 56,-152 66.1,-148.8 61.9,-143.2"/>
</g>
<!-- Node6&#45;&gt;Node1 -->
<g id="edge10" class="edge"><title>Node6&#45;&gt;Node1</title>
<path style="fill:none;stroke:#9a32cd;stroke-dasharray:5,2;" d="M154,-62C154,-48 154,-32 154,-21"/>
<polygon style="fill:#9a32cd;stroke:#9a32cd;" points="150.5,-62 154,-72 157.5,-62 150.5,-62"/>
<text text-anchor="middle" x="194" y="-44" style="font-family:Arial;font-size:10.00;"> m_notification</text>
</g>
<!-- Node6&#45;&gt;Node6 -->
<g id="edge20" class="edge"><title>Node6&#45;&gt;Node6</title>
<path style="fill:none;stroke:#9a32cd;stroke-dasharray:5,2;" d="M255,-88C260,-86 263,-85 263,-83 263,-80 256,-78 245,-77"/>
<polygon style="fill:#9a32cd;stroke:#9a32cd;" points="254.602,-84.5222 245,-89 255.299,-91.4875 254.602,-84.5222"/>
<text text-anchor="middle" x="303" y="-80" style="font-family:Arial;font-size:10.00;"> m_notification</text>
</g>
<!-- Node7&#45;&gt;Node6 -->
<g id="edge12" class="edge"><title>Node7&#45;&gt;Node6</title>
<path style="fill:none;stroke:midnightblue;" d="M167,-142C163,-126 158,-105 156,-93"/>
<polygon style="fill:midnightblue;stroke:midnightblue;" points="163.607,-142.881 169,-152 170.471,-141.508 163.607,-142.881"/>
</g>
<!-- Node8 -->
<g id="node15" class="node"><title>Node8</title>
<a xlink:href="class_i_p_address.html" target="_top" xlink:title="This class is an abstraction of the OS IP Address structure. ">
<polygon style="fill:white;stroke:black;" points="138,-224 138,-245 205,-245 205,-224 138,-224"/>
<text text-anchor="middle" x="171" y="-231" style="font-family:Arial;font-size:10.00;">IPAddress</text>
</a>
</g>
<!-- Node8&#45;&gt;Node7 -->
<g id="edge16" class="edge"><title>Node8&#45;&gt;Node7</title>
<path style="fill:none;stroke:#9a32cd;stroke-dasharray:5,2;" d="M171,-214C171,-200 171,-184 171,-173"/>
<polygon style="fill:#9a32cd;stroke:#9a32cd;" points="167.5,-214 171,-224 174.5,-214 167.5,-214"/>
<text text-anchor="middle" x="216" y="-196" style="font-family:Arial;font-size:10.00;"> m_clientAddress</text>
</g>
</g>
</svg>
