<?xml version="1.0" encoding="UTF-8" standalone="no"?>
<!DOCTYPE svg PUBLIC "-//W3C//DTD SVG 1.0//EN"
 "http://www.w3.org/TR/2001/REC-SVG-20010904/DTD/svg10.dtd" [
 <!ATTLIST svg xmlns:xlink CDATA #FIXED "http://www.w3.org/1999/xlink">
]>
<!-- Generated by Graphviz version 2.14.1 (Fri Nov  9 08:19:38 GMT 2007)
     For user: (asakyurek) Alper Sinan Akyurek -->
<!-- Title: TerraSwarm::MessageEnder::CheckEndOfMessageField Pages: 1 -->
<svg width="384pt" height="42pt"
 viewBox="0.00 0.00 384.00 42.00" xmlns="http://www.w3.org/2000/svg" xmlns:xlink="http://www.w3.org/1999/xlink">
<g id="graph0" class="graph" transform="scale(1 1) rotate(0) translate(4 38)">
<title>TerraSwarm::MessageEnder::CheckEndOfMessageField</title>
<polygon style="fill:white;stroke:white;" points="-4,4 -4,-38 380,-38 380,4 -4,4"/>
<!-- Node1 -->
<g id="node1" class="node"><title>Node1</title>
<polygon style="fill:#bfbfbf;stroke:black;" points="1,-0 1,-34 166,-34 166,-0 1,-0"/>
<text text-anchor="start" x="9" y="-20" style="font-family:Arial;font-size:10.00;">TerraSwarm::MessageEnder</text>
<text text-anchor="middle" x="83" y="-7" style="font-family:Arial;font-size:10.00;">::CheckEndOfMessageField</text>
</g>
<!-- Node2 -->
<g id="node3" class="node"><title>Node2</title>
<a xlink:href="class_terra_swarm_1_1_message_header.html#a77ce27ba8283537c9cbf3c447abbc512" target="_top" xlink:title="Gets the Data Size. ">
<polygon style="fill:white;stroke:black;" points="202,-0 202,-34 376,-34 376,-0 202,-0"/>
<text text-anchor="start" x="210" y="-20" style="font-family:Arial;font-size:10.00;">TerraSwarm::MessageHeader</text>
<text text-anchor="middle" x="289" y="-7" style="font-family:Arial;font-size:10.00;">::GetDataSize</text>
</a>
</g>
<!-- Node1&#45;&gt;Node2 -->
<g id="edge2" class="edge"><title>Node1&#45;&gt;Node2</title>
<path style="fill:none;stroke:midnightblue;" d="M166,-17C175,-17 183,-17 192,-17"/>
<polygon style="fill:midnightblue;stroke:midnightblue;" points="192,-20.5001 202,-17 192,-13.5001 192,-20.5001"/>
</g>
</g>
</svg>
