<?xml version="1.0" encoding="UTF-8" standalone="no"?>
<!DOCTYPE svg PUBLIC "-//W3C//DTD SVG 1.0//EN"
 "http://www.w3.org/TR/2001/REC-SVG-20010904/DTD/svg10.dtd" [
 <!ATTLIST svg xmlns:xlink CDATA #FIXED "http://www.w3.org/1999/xlink">
]>
<!-- Generated by Graphviz version 2.14.1 (Fri Nov  9 08:19:38 GMT 2007)
     For user: (asakyurek) Alper Sinan Akyurek -->
<!-- Title: ThreadedTCPServer Pages: 1 -->
<svg width="233pt" height="222pt"
 viewBox="0.00 0.00 233.00 222.00" xmlns="http://www.w3.org/2000/svg" xmlns:xlink="http://www.w3.org/1999/xlink">
<g id="graph0" class="graph" transform="scale(1 1) rotate(0) translate(4 218)">
<title>ThreadedTCPServer</title>
<polygon style="fill:white;stroke:white;" points="-4,4 -4,-218 229,-218 229,4 -4,4"/>
<!-- Node1 -->
<g id="node1" class="node"><title>Node1</title>
<polygon style="fill:#bfbfbf;stroke:black;" points="99,-0 99,-21 224,-21 224,-0 99,-0"/>
<text text-anchor="middle" x="161" y="-7" style="font-family:Arial;font-size:10.00;">ThreadedTCPServer</text>
</g>
<!-- Node2 -->
<g id="node2" class="node"><title>Node2</title>
<a xlink:href="class_t_c_p_server.html" target="_top" xlink:title="Defines a TCP server that can listen to connection attempts and can accept them for communication...">
<polygon style="fill:white;stroke:black;" points="55,-60 55,-81 127,-81 127,-60 55,-60"/>
<text text-anchor="middle" x="91" y="-67" style="font-family:Arial;font-size:10.00;">TCPServer</text>
</a>
</g>
<!-- Node2&#45;&gt;Node1 -->
<g id="edge2" class="edge"><title>Node2&#45;&gt;Node1</title>
<path style="fill:none;stroke:midnightblue;" d="M112,-53C124,-43 139,-30 149,-21"/>
<polygon style="fill:midnightblue;stroke:midnightblue;" points="109.221,-50.7809 104,-60 113.831,-56.0489 109.221,-50.7809"/>
</g>
<!-- Node3 -->
<g id="node4" class="node"><title>Node3</title>
<a xlink:href="class_socket_base.html" target="_top" xlink:title="SocketBase\&lt; SOCK_STREAM \&gt;">
<polygon style="fill:white;stroke:black;" points="0,-120 0,-141 182,-141 182,-120 0,-120"/>
<text text-anchor="middle" x="91" y="-127" style="font-family:Arial;font-size:10.00;">SocketBase&lt; SOCK_STREAM &gt;</text>
</a>
</g>
<!-- Node3&#45;&gt;Node2 -->
<g id="edge4" class="edge"><title>Node3&#45;&gt;Node2</title>
<path style="fill:none;stroke:midnightblue;" d="M91,-110C91,-100 91,-89 91,-81"/>
<polygon style="fill:midnightblue;stroke:midnightblue;" points="87.5001,-110 91,-120 94.5001,-110 87.5001,-110"/>
</g>
<!-- Node4 -->
<g id="node6" class="node"><title>Node4</title>
<a xlink:href="class_socket_base.html" target="_top" xlink:title="This class is an abstraction over the OS socket and defines a base class for socket opening and closi...">
<polygon style="fill:white;stroke:black;" points="8,-192 8,-213 174,-213 174,-192 8,-192"/>
<text text-anchor="middle" x="91" y="-199" style="font-family:Arial;font-size:10.00;">SocketBase&lt; SocketType &gt;</text>
</a>
</g>
<!-- Node4&#45;&gt;Node3 -->
<g id="edge6" class="edge"><title>Node4&#45;&gt;Node3</title>
<path style="fill:none;stroke:orange;stroke-dasharray:5,2;" d="M91,-182C91,-168 91,-152 91,-141"/>
<polygon style="fill:orange;stroke:orange;" points="87.5001,-182 91,-192 94.5001,-182 87.5001,-182"/>
<text text-anchor="middle" x="144" y="-164" style="font-family:Arial;font-size:10.00;"> &lt; SOCK_STREAM &gt;</text>
</g>
<!-- Node5 -->
<g id="node8" class="node"><title>Node5</title>
<a xlink:href="class_thread_base.html" target="_top" xlink:title="Provides a base class that can be inherited from to gain threading capabilities. ">
<polygon style="fill:white;stroke:black;" points="145,-60 145,-81 226,-81 226,-60 145,-60"/>
<text text-anchor="middle" x="185" y="-67" style="font-family:Arial;font-size:10.00;">ThreadBase</text>
</a>
</g>
<!-- Node5&#45;&gt;Node1 -->
<g id="edge8" class="edge"><title>Node5&#45;&gt;Node1</title>
<path style="fill:none;stroke:#8b1a1a;" d="M177,-51C174,-41 169,-29 165,-21"/>
<polygon style="fill:#8b1a1a;stroke:#8b1a1a;" points="173.74,-52.2834 181,-60 180.137,-49.4404 173.74,-52.2834"/>
</g>
</g>
</svg>
