<?xml version="1.0" encoding="UTF-8" standalone="no"?>
<!DOCTYPE svg PUBLIC "-//W3C//DTD SVG 1.0//EN"
 "http://www.w3.org/TR/2001/REC-SVG-20010904/DTD/svg10.dtd" [
 <!ATTLIST svg xmlns:xlink CDATA #FIXED "http://www.w3.org/1999/xlink">
]>
<!-- Generated by Graphviz version 2.14.1 (Fri Nov  9 08:19:38 GMT 2007)
     For user: (asakyurek) Alper Sinan Akyurek -->
<!-- Title: ThreadedTCPConnectedClient::ExecutionBody Pages: 1 -->
<svg width="356pt" height="42pt"
 viewBox="0.00 0.00 356.00 42.00" xmlns="http://www.w3.org/2000/svg" xmlns:xlink="http://www.w3.org/1999/xlink">
<g id="graph0" class="graph" transform="scale(1 1) rotate(0) translate(4 38)">
<title>ThreadedTCPConnectedClient::ExecutionBody</title>
<polygon style="fill:white;stroke:white;" points="-4,4 -4,-38 352,-38 352,4 -4,4"/>
<!-- Node1 -->
<g id="node1" class="node"><title>Node1</title>
<polygon style="fill:#bfbfbf;stroke:black;" points="0,-0 0,-34 182,-34 182,-0 0,-0"/>
<text text-anchor="start" x="8" y="-20" style="font-family:Arial;font-size:10.00;">ThreadedTCPConnectedClient</text>
<text text-anchor="middle" x="91" y="-7" style="font-family:Arial;font-size:10.00;">::ExecutionBody</text>
</g>
<!-- Node2 -->
<g id="node3" class="node"><title>Node2</title>
<a xlink:href="class_t_c_p_connected_client.html#a6bfa3ec7dc46c17dbccde8383c3253da" target="_top" xlink:title="Receives data from the connected client. ">
<polygon style="fill:white;stroke:black;" points="219,-0 219,-34 348,-34 348,-0 219,-0"/>
<text text-anchor="start" x="227" y="-20" style="font-family:Arial;font-size:10.00;">TCPConnectedClient</text>
<text text-anchor="middle" x="283" y="-7" style="font-family:Arial;font-size:10.00;">::ReceiveData</text>
</a>
</g>
<!-- Node1&#45;&gt;Node2 -->
<g id="edge2" class="edge"><title>Node1&#45;&gt;Node2</title>
<path style="fill:none;stroke:midnightblue;" d="M182,-17C191,-17 200,-17 209,-17"/>
<polygon style="fill:midnightblue;stroke:midnightblue;" points="209,-20.5001 219,-17 209,-13.5001 209,-20.5001"/>
</g>
</g>
</svg>
