<?xml version="1.0" encoding="UTF-8" standalone="no"?>
<!DOCTYPE svg PUBLIC "-//W3C//DTD SVG 1.0//EN"
 "http://www.w3.org/TR/2001/REC-SVG-20010904/DTD/svg10.dtd" [
 <!ATTLIST svg xmlns:xlink CDATA #FIXED "http://www.w3.org/1999/xlink">
]>
<!-- Generated by Graphviz version 2.14.1 (Fri Nov  9 08:19:38 GMT 2007)
     For user: (asakyurek) Alper Sinan Akyurek -->
<!-- Title: ClientManager::PriceProposal Pages: 1 -->
<svg width="348pt" height="80pt"
 viewBox="0.00 0.00 348.00 80.00" xmlns="http://www.w3.org/2000/svg" xmlns:xlink="http://www.w3.org/1999/xlink">
<g id="graph0" class="graph" transform="scale(1 1) rotate(0) translate(4 76)">
<title>ClientManager::PriceProposal</title>
<polygon style="fill:white;stroke:white;" points="-4,4 -4,-76 344,-76 344,4 -4,4"/>
<!-- Node1 -->
<g id="node1" class="node"><title>Node1</title>
<polygon style="fill:#bfbfbf;stroke:black;" points="0,-28 0,-49 174,-49 174,-28 0,-28"/>
<text text-anchor="middle" x="87" y="-35" style="font-family:Arial;font-size:10.00;">ClientManager::PriceProposal</text>
</g>
<!-- Node2 -->
<g id="node3" class="node"><title>Node2</title>
<a xlink:href="_log_print_8h.html#a7e0c5f42cad5bc3a44134fb9c9a7a052" target="_top" xlink:title="8 parameter log message ">
<polygon style="fill:white;stroke:black;" points="245,-51 245,-72 305,-72 305,-51 245,-51"/>
<text text-anchor="middle" x="275" y="-58" style="font-family:Arial;font-size:10.00;">LogPrint</text>
</a>
</g>
<!-- Node1&#45;&gt;Node2 -->
<g id="edge2" class="edge"><title>Node1&#45;&gt;Node2</title>
<path style="fill:none;stroke:midnightblue;" d="M169,-49C192,-52 215,-55 235,-57"/>
<polygon style="fill:midnightblue;stroke:midnightblue;" points="234.701,-60.4875 245,-58 235.398,-53.5222 234.701,-60.4875"/>
</g>
<!-- Node3 -->
<g id="node5" class="node"><title>Node3</title>
<a xlink:href="class_t_c_p_connected_client.html#a7c3a1d1172f3880b48d35ffbf255712d" target="_top" xlink:title="Sends data to the connected client. ">
<polygon style="fill:white;stroke:black;" points="211,-0 211,-34 340,-34 340,-0 211,-0"/>
<text text-anchor="start" x="219" y="-20" style="font-family:Arial;font-size:10.00;">TCPConnectedClient</text>
<text text-anchor="middle" x="275" y="-7" style="font-family:Arial;font-size:10.00;">::SendData</text>
</a>
</g>
<!-- Node1&#45;&gt;Node3 -->
<g id="edge4" class="edge"><title>Node1&#45;&gt;Node3</title>
<path style="fill:none;stroke:midnightblue;" d="M174,-29C183,-28 192,-27 201,-26"/>
<polygon style="fill:midnightblue;stroke:midnightblue;" points="201.398,-29.4778 211,-25 200.701,-22.5125 201.398,-29.4778"/>
</g>
</g>
</svg>
