<?xml version="1.0" encoding="UTF-8" standalone="no"?>
<!DOCTYPE svg PUBLIC "-//W3C//DTD SVG 1.0//EN"
 "http://www.w3.org/TR/2001/REC-SVG-20010904/DTD/svg10.dtd" [
 <!ATTLIST svg xmlns:xlink CDATA #FIXED "http://www.w3.org/1999/xlink">
]>
<!-- Generated by Graphviz version 2.14.1 (Fri Nov  9 08:19:38 GMT 2007)
     For user: (asakyurek) Alper Sinan Akyurek -->
<!-- Title: TCPServer::Listen Pages: 1 -->
<svg width="532pt" height="118pt"
 viewBox="0.00 0.00 532.00 118.00" xmlns="http://www.w3.org/2000/svg" xmlns:xlink="http://www.w3.org/1999/xlink">
<g id="graph0" class="graph" transform="scale(1 1) rotate(0) translate(4 114)">
<title>TCPServer::Listen</title>
<polygon style="fill:white;stroke:white;" points="-4,4 -4,-114 528,-114 528,4 -4,4"/>
<!-- Node1 -->
<g id="node1" class="node"><title>Node1</title>
<polygon style="fill:#bfbfbf;stroke:black;" points="0,-37 0,-58 110,-58 110,-37 0,-37"/>
<text text-anchor="middle" x="55" y="-44" style="font-family:Arial;font-size:10.00;">TCPServer::Listen</text>
</g>
<!-- Node2 -->
<g id="node3" class="node"><title>Node2</title>
<a xlink:href="class_threaded_t_c_p_server.html#ac201656ab22b4ad07115d78cf8b7dd89" target="_top" xlink:title="Sets the notification callback. ">
<polygon style="fill:white;stroke:black;" points="146,-31 146,-65 290,-65 290,-31 146,-31"/>
<text text-anchor="start" x="154" y="-51" style="font-family:Arial;font-size:10.00;">ThreadedTCPServer::</text>
<text text-anchor="middle" x="218" y="-38" style="font-family:Arial;font-size:10.00;">SetNotificationCallback</text>
</a>
</g>
<!-- Node1&#45;&gt;Node2 -->
<g id="edge2" class="edge"><title>Node1&#45;&gt;Node2</title>
<path style="fill:none;stroke:midnightblue;" d="M120,-48C129,-48 138,-48 146,-48"/>
<polygon style="fill:midnightblue;stroke:midnightblue;" points="120,-44.5001 110,-48 120,-51.5001 120,-44.5001"/>
</g>
<!-- Node3 -->
<g id="node5" class="node"><title>Node3</title>
<a xlink:href="class_connection_manager.html#a7928f3e95b4e88b01c11eaf3e8089ee7" target="_top" xlink:title="Private constructor for singleton implementation. ">
<polygon style="fill:white;stroke:black;" points="359,-76 359,-110 492,-110 492,-76 359,-76"/>
<text text-anchor="start" x="367" y="-96" style="font-family:Arial;font-size:10.00;">ConnectionManager::</text>
<text text-anchor="middle" x="425" y="-83" style="font-family:Arial;font-size:10.00;">ConnectionManager</text>
</a>
</g>
<!-- Node2&#45;&gt;Node3 -->
<g id="edge4" class="edge"><title>Node2&#45;&gt;Node3</title>
<path style="fill:none;stroke:midnightblue;" d="M300,-66C319,-70 340,-75 359,-79"/>
<polygon style="fill:midnightblue;stroke:midnightblue;" points="300.492,-62.5292 290,-64 299.119,-69.3933 300.492,-62.5292"/>
</g>
<!-- Node4 -->
<g id="node7" class="node"><title>Node4</title>
<a xlink:href="class_control_manager.html#ab81bac3e592705b7ca4b23ce473fe26e" target="_top" xlink:title="Private constructor for singleton implementation. ">
<polygon style="fill:white;stroke:black;" points="326,-37 326,-58 524,-58 524,-37 326,-37"/>
<text text-anchor="middle" x="425" y="-44" style="font-family:Arial;font-size:10.00;">ControlManager::ControlManager</text>
</a>
</g>
<!-- Node2&#45;&gt;Node4 -->
<g id="edge6" class="edge"><title>Node2&#45;&gt;Node4</title>
<path style="fill:none;stroke:midnightblue;" d="M300,-48C309,-48 317,-48 326,-48"/>
<polygon style="fill:midnightblue;stroke:midnightblue;" points="300,-44.5001 290,-48 300,-51.5001 300,-44.5001"/>
</g>
<!-- Node5 -->
<g id="node9" class="node"><title>Node5</title>
<a xlink:href="class_matlab_manager.html#a319d996a8872d9cdba8cf335520af258" target="_top" xlink:title="Private constructor to implement the singleton. ">
<polygon style="fill:white;stroke:black;" points="329,1 329,-20 521,-20 521,1 329,1"/>
<text text-anchor="middle" x="425" y="-6" style="font-family:Arial;font-size:10.00;">MatlabManager::MatlabManager</text>
</a>
</g>
<!-- Node2&#45;&gt;Node5 -->
<g id="edge8" class="edge"><title>Node2&#45;&gt;Node5</title>
<path style="fill:none;stroke:midnightblue;" d="M300,-33C324,-29 349,-24 371,-20"/>
<polygon style="fill:midnightblue;stroke:midnightblue;" points="299.119,-29.6067 290,-35 300.492,-36.4708 299.119,-29.6067"/>
</g>
</g>
</svg>
