<?xml version="1.0" encoding="UTF-8" standalone="no"?>
<!DOCTYPE svg PUBLIC "-//W3C//DTD SVG 1.0//EN"
 "http://www.w3.org/TR/2001/REC-SVG-20010904/DTD/svg10.dtd" [
 <!ATTLIST svg xmlns:xlink CDATA #FIXED "http://www.w3.org/1999/xlink">
]>
<!-- Generated by Graphviz version 2.14.1 (Fri Nov  9 08:19:38 GMT 2007)
     For user: (asakyurek) Alper Sinan Akyurek -->
<!-- Title: MatlabManager::SetClient Pages: 1 -->
<svg width="590pt" height="28pt"
 viewBox="0.00 0.00 590.00 28.00" xmlns="http://www.w3.org/2000/svg" xmlns:xlink="http://www.w3.org/1999/xlink">
<g id="graph0" class="graph" transform="scale(1 1) rotate(0) translate(4 24)">
<title>MatlabManager::SetClient</title>
<polygon style="fill:white;stroke:white;" points="-4,4 -4,-24 586,-24 586,4 -4,4"/>
<!-- Node1 -->
<g id="node1" class="node"><title>Node1</title>
<polygon style="fill:#bfbfbf;stroke:black;" points="1,1 1,-20 158,-20 158,1 1,1"/>
<text text-anchor="middle" x="79" y="-6" style="font-family:Arial;font-size:10.00;">MatlabManager::SetClient</text>
</g>
<!-- Node2 -->
<g id="node3" class="node"><title>Node2</title>
<a xlink:href="_matlab_manager_8cpp.html#aa340f269e04280ce987b3a8325f27580" target="_top" xlink:title="MatlabNotificationHandler">
<polygon style="fill:white;stroke:black;" points="195,1 195,-20 354,-20 354,1 195,1"/>
<text text-anchor="middle" x="274" y="-6" style="font-family:Arial;font-size:10.00;">MatlabNotificationHandler</text>
</a>
</g>
<!-- Node1&#45;&gt;Node2 -->
<g id="edge2" class="edge"><title>Node1&#45;&gt;Node2</title>
<path style="fill:none;stroke:midnightblue;" d="M168,-10C177,-10 186,-10 195,-10"/>
<polygon style="fill:midnightblue;stroke:midnightblue;" points="168,-6.5001 158,-10 168,-13.5001 168,-6.5001"/>
</g>
<!-- Node3 -->
<g id="node5" class="node"><title>Node3</title>
<a xlink:href="class_matlab_manager.html#a319d996a8872d9cdba8cf335520af258" target="_top" xlink:title="MatlabManager::MatlabManager">
<polygon style="fill:white;stroke:black;" points="390,1 390,-20 582,-20 582,1 390,1"/>
<text text-anchor="middle" x="486" y="-6" style="font-family:Arial;font-size:10.00;">MatlabManager::MatlabManager</text>
</a>
</g>
<!-- Node2&#45;&gt;Node3 -->
<g id="edge4" class="edge"><title>Node2&#45;&gt;Node3</title>
<path style="fill:none;stroke:midnightblue;" d="M364,-10C373,-10 381,-10 390,-10"/>
<polygon style="fill:midnightblue;stroke:midnightblue;" points="364,-6.5001 354,-10 364,-13.5001 364,-6.5001"/>
</g>
</g>
</svg>
