<?xml version="1.0" encoding="UTF-8" standalone="no"?>
<!DOCTYPE svg PUBLIC "-//W3C//DTD SVG 1.0//EN"
 "http://www.w3.org/TR/2001/REC-SVG-20010904/DTD/svg10.dtd" [
 <!ATTLIST svg xmlns:xlink CDATA #FIXED "http://www.w3.org/1999/xlink">
]>
<!-- Generated by Graphviz version 2.14.1 (Fri Nov  9 08:19:38 GMT 2007)
     For user: (asakyurek) Alper Sinan Akyurek -->
<!-- Title: ClientManager::ProcessClientConnectionRequest Pages: 1 -->
<svg width="514pt" height="586pt"
 viewBox="0.00 0.00 514.00 586.00" xmlns="http://www.w3.org/2000/svg" xmlns:xlink="http://www.w3.org/1999/xlink">
<g id="graph0" class="graph" transform="scale(1 1) rotate(0) translate(4 582)">
<title>ClientManager::ProcessClientConnectionRequest</title>
<polygon style="fill:white;stroke:white;" points="-4,4 -4,-582 510,-582 510,4 -4,4"/>
<!-- Node1 -->
<g id="node1" class="node"><title>Node1</title>
<polygon style="fill:#bfbfbf;stroke:black;" points="0,-263 0,-297 174,-297 174,-263 0,-263"/>
<text text-anchor="start" x="8" y="-283" style="font-family:Arial;font-size:10.00;">ClientManager::ProcessClient</text>
<text text-anchor="middle" x="87" y="-270" style="font-family:Arial;font-size:10.00;">ConnectionRequest</text>
</g>
<!-- Node2 -->
<g id="node3" class="node"><title>Node2</title>
<a xlink:href="_log_print_8h.html#a7e0c5f42cad5bc3a44134fb9c9a7a052" target="_top" xlink:title="LogPrint">
<polygon style="fill:white;stroke:black;" points="446,-352 446,-373 506,-373 506,-352 446,-352"/>
<text text-anchor="middle" x="476" y="-359" style="font-family:Arial;font-size:10.00;">LogPrint</text>
</a>
</g>
<!-- Node1&#45;&gt;Node2 -->
<g id="edge2" class="edge"><title>Node1&#45;&gt;Node2</title>
<path style="fill:none;stroke:midnightblue;" d="M89,-297C97,-345 125,-475 210,-529 286,-575 337,-578 410,-529 459,-496 472,-420 475,-383"/>
<polygon style="fill:midnightblue;stroke:midnightblue;" points="478.488,-383.299 476,-373 471.522,-382.602 478.488,-383.299"/>
</g>
<!-- Node3 -->
<g id="node5" class="node"><title>Node3</title>
<a xlink:href="_matlab_manager_8cpp.html#adf11a697c41ba15207a66f8d2b567b75" target="_top" xlink:title="GetMatlabManager">
<polygon style="fill:white;stroke:black;" points="250,-499 250,-520 370,-520 370,-499 250,-499"/>
<text text-anchor="middle" x="310" y="-506" style="font-family:Arial;font-size:10.00;">GetMatlabManager</text>
</a>
</g>
<!-- Node1&#45;&gt;Node3 -->
<g id="edge4" class="edge"><title>Node1&#45;&gt;Node3</title>
<path style="fill:none;stroke:midnightblue;" d="M92,-297C104,-338 140,-441 210,-491 219,-497 230,-501 240,-505"/>
<polygon style="fill:midnightblue;stroke:midnightblue;" points="239.508,-508.471 250,-507 240.881,-501.607 239.508,-508.471"/>
</g>
<!-- Node4 -->
<g id="node7" class="node"><title>Node4</title>
<a xlink:href="class_terra_swarm_1_1_synchronous_1_1_client_connection_request.html#a94838790aca6aa864fd95b85bddfeaeb" target="_top" xlink:title="TerraSwarm::Synchronous\l::ClientConnectionRequest\l::GetClientName">
<polygon style="fill:white;stroke:black;" points="230,-435 230,-482 391,-482 391,-435 230,-435"/>
<text text-anchor="start" x="238" y="-468" style="font-family:Arial;font-size:10.00;">TerraSwarm::Synchronous</text>
<text text-anchor="start" x="238" y="-455" style="font-family:Arial;font-size:10.00;">::ClientConnectionRequest</text>
<text text-anchor="middle" x="310" y="-442" style="font-family:Arial;font-size:10.00;">::GetClientName</text>
</a>
</g>
<!-- Node1&#45;&gt;Node4 -->
<g id="edge6" class="edge"><title>Node1&#45;&gt;Node4</title>
<path style="fill:none;stroke:midnightblue;" d="M97,-297C115,-328 158,-391 210,-427 213,-429 217,-432 221,-434"/>
<polygon style="fill:midnightblue;stroke:midnightblue;" points="219.44,-437.137 230,-438 222.283,-430.74 219.44,-437.137"/>
</g>
<!-- Node5 -->
<g id="node9" class="node"><title>Node5</title>
<a xlink:href="_control_manager_8cpp.html#a63bfd4667c9c70297f25ae5e5176818e" target="_top" xlink:title="Returns the only instance of ControlManager. ">
<polygon style="fill:white;stroke:black;" points="249,-397 249,-418 372,-418 372,-397 249,-397"/>
<text text-anchor="middle" x="310" y="-404" style="font-family:Arial;font-size:10.00;">GetControlManager</text>
</a>
</g>
<!-- Node1&#45;&gt;Node5 -->
<g id="edge8" class="edge"><title>Node1&#45;&gt;Node5</title>
<path style="fill:none;stroke:midnightblue;" d="M101,-297C123,-322 165,-366 210,-389 219,-394 229,-397 239,-399"/>
<polygon style="fill:midnightblue;stroke:midnightblue;" points="238.508,-402.471 249,-401 239.881,-395.607 238.508,-402.471"/>
</g>
<!-- Node6 -->
<g id="node11" class="node"><title>Node6</title>
<a xlink:href="class_control_manager.html#a56df538a5380c9091123a5a8a5e0fe86" target="_top" xlink:title="ControlManager::Register\lClient">
<polygon style="fill:white;stroke:black;" points="233,-346 233,-380 387,-380 387,-346 233,-346"/>
<text text-anchor="start" x="241" y="-366" style="font-family:Arial;font-size:10.00;">ControlManager::Register</text>
<text text-anchor="middle" x="310" y="-353" style="font-family:Arial;font-size:10.00;">Client</text>
</a>
</g>
<!-- Node1&#45;&gt;Node6 -->
<g id="edge10" class="edge"><title>Node1&#45;&gt;Node6</title>
<path style="fill:none;stroke:midnightblue;" d="M120,-297C145,-309 179,-325 210,-337 216,-339 223,-341 229,-343"/>
<polygon style="fill:midnightblue;stroke:midnightblue;" points="228.416,-346.479 239,-346 230.427,-339.774 228.416,-346.479"/>
</g>
<!-- Node7 -->
<g id="node14" class="node"><title>Node7</title>
<a xlink:href="_log_print_8h.html#a46ea30a62534f8ce32cd39454e459b23" target="_top" xlink:title="WarningPrint">
<polygon style="fill:white;stroke:black;" points="268,-307 268,-328 353,-328 353,-307 268,-307"/>
<text text-anchor="middle" x="310" y="-314" style="font-family:Arial;font-size:10.00;">WarningPrint</text>
</a>
</g>
<!-- Node1&#45;&gt;Node7 -->
<g id="edge14" class="edge"><title>Node1&#45;&gt;Node7</title>
<path style="fill:none;stroke:midnightblue;" d="M174,-295C202,-300 233,-306 258,-309"/>
<polygon style="fill:midnightblue;stroke:midnightblue;" points="257.508,-312.471 268,-311 258.881,-305.607 257.508,-312.471"/>
</g>
<!-- Node8 -->
<g id="node16" class="node"><title>Node8</title>
<a xlink:href="_system_manager_8cpp.html#a97e64f74d188d41051488578800d20cd" target="_top" xlink:title="GetSystemManager">
<polygon style="fill:white;stroke:black;" points="249,-269 249,-290 372,-290 372,-269 249,-269"/>
<text text-anchor="middle" x="310" y="-276" style="font-family:Arial;font-size:10.00;">GetSystemManager</text>
</a>
</g>
<!-- Node1&#45;&gt;Node8 -->
<g id="edge16" class="edge"><title>Node1&#45;&gt;Node8</title>
<path style="fill:none;stroke:midnightblue;" d="M174,-280C195,-280 218,-280 239,-280"/>
<polygon style="fill:midnightblue;stroke:midnightblue;" points="239,-283.5 249,-280 239,-276.5 239,-283.5"/>
</g>
<!-- Node9 -->
<g id="node18" class="node"><title>Node9</title>
<a xlink:href="class_system_manager.html#ab9f52e613fdbdc4690be79179b7357e6" target="_top" xlink:title="SystemManager::GetSystemMode">
<polygon style="fill:white;stroke:black;" points="211,-231 211,-252 410,-252 410,-231 211,-231"/>
<text text-anchor="middle" x="310" y="-238" style="font-family:Arial;font-size:10.00;">SystemManager::GetSystemMode</text>
</a>
</g>
<!-- Node1&#45;&gt;Node9 -->
<g id="edge18" class="edge"><title>Node1&#45;&gt;Node9</title>
<path style="fill:none;stroke:midnightblue;" d="M174,-265C195,-262 219,-257 240,-254"/>
<polygon style="fill:midnightblue;stroke:midnightblue;" points="240.881,-257.393 250,-252 239.508,-250.529 240.881,-257.393"/>
</g>
<!-- Node10 -->
<g id="node20" class="node"><title>Node10</title>
<a xlink:href="class_system_manager.html#aebfc7fab136f01836e07228474e4326f" target="_top" xlink:title="SystemManager::GetSystemTime">
<polygon style="fill:white;stroke:black;" points="212,-193 212,-214 409,-214 409,-193 212,-193"/>
<text text-anchor="middle" x="310" y="-200" style="font-family:Arial;font-size:10.00;">SystemManager::GetSystemTime</text>
</a>
</g>
<!-- Node1&#45;&gt;Node10 -->
<g id="edge20" class="edge"><title>Node1&#45;&gt;Node10</title>
<path style="fill:none;stroke:midnightblue;" d="M118,-263C143,-250 178,-233 210,-223 218,-220 226,-218 235,-216"/>
<polygon style="fill:midnightblue;stroke:midnightblue;" points="235.881,-219.393 245,-214 234.508,-212.529 235.881,-219.393"/>
</g>
<!-- Node11 -->
<g id="node22" class="node"><title>Node11</title>
<a xlink:href="_connection_manager_8cpp.html#ab88124ce7a3bf1d2892d0e9763d1af30" target="_top" xlink:title="GetConnectionManager">
<polygon style="fill:white;stroke:black;" points="237,-155 237,-176 383,-176 383,-155 237,-155"/>
<text text-anchor="middle" x="310" y="-162" style="font-family:Arial;font-size:10.00;">GetConnectionManager</text>
</a>
</g>
<!-- Node1&#45;&gt;Node11 -->
<g id="edge22" class="edge"><title>Node1&#45;&gt;Node11</title>
<path style="fill:none;stroke:midnightblue;" d="M104,-263C126,-241 168,-204 210,-185 216,-182 222,-180 227,-179"/>
<polygon style="fill:midnightblue;stroke:midnightblue;" points="228.427,-182.226 237,-176 226.416,-175.521 228.427,-182.226"/>
</g>
<!-- Node12 -->
<g id="node24" class="node"><title>Node12</title>
<a xlink:href="class_connection_manager.html#adf13721cde7ae4615aadbb5262f67274" target="_top" xlink:title="ConnectionManager::\lGetNumberOfClients">
<polygon style="fill:white;stroke:black;" points="244,-104 244,-138 377,-138 377,-104 244,-104"/>
<text text-anchor="start" x="252" y="-124" style="font-family:Arial;font-size:10.00;">ConnectionManager::</text>
<text text-anchor="middle" x="310" y="-111" style="font-family:Arial;font-size:10.00;">GetNumberOfClients</text>
</a>
</g>
<!-- Node1&#45;&gt;Node12 -->
<g id="edge24" class="edge"><title>Node1&#45;&gt;Node12</title>
<path style="fill:none;stroke:midnightblue;" d="M98,-263C117,-234 160,-177 210,-147 217,-143 226,-139 234,-135"/>
<polygon style="fill:midnightblue;stroke:midnightblue;" points="235.427,-138.226 244,-132 233.416,-131.521 235.427,-138.226"/>
</g>
<!-- Node13 -->
<g id="node26" class="node"><title>Node13</title>
<a xlink:href="class_t_c_p_connected_client.html#a7c3a1d1172f3880b48d35ffbf255712d" target="_top" xlink:title="TCPConnectedClient\l::SendData">
<polygon style="fill:white;stroke:black;" points="246,-52 246,-86 375,-86 375,-52 246,-52"/>
<text text-anchor="start" x="254" y="-72" style="font-family:Arial;font-size:10.00;">TCPConnectedClient</text>
<text text-anchor="middle" x="310" y="-59" style="font-family:Arial;font-size:10.00;">::SendData</text>
</a>
</g>
<!-- Node1&#45;&gt;Node13 -->
<g id="edge26" class="edge"><title>Node1&#45;&gt;Node13</title>
<path style="fill:none;stroke:midnightblue;" d="M93,-263C108,-226 148,-139 210,-95 218,-89 227,-85 236,-81"/>
<polygon style="fill:midnightblue;stroke:midnightblue;" points="237.427,-84.2259 246,-78 235.416,-77.5212 237.427,-84.2259"/>
</g>
<!-- Node14 -->
<g id="node28" class="node"><title>Node14</title>
<a xlink:href="class_connection_manager.html#afc67553cf1eff6ab251a5dd2a313e863" target="_top" xlink:title="ConnectionManager::\lDeleteClient">
<polygon style="fill:white;stroke:black;" points="244,-0 244,-34 377,-34 377,-0 244,-0"/>
<text text-anchor="start" x="252" y="-20" style="font-family:Arial;font-size:10.00;">ConnectionManager::</text>
<text text-anchor="middle" x="310" y="-7" style="font-family:Arial;font-size:10.00;">DeleteClient</text>
</a>
</g>
<!-- Node1&#45;&gt;Node14 -->
<g id="edge28" class="edge"><title>Node1&#45;&gt;Node14</title>
<path style="fill:none;stroke:midnightblue;" d="M91,-263C102,-219 136,-102 210,-43 217,-37 226,-33 234,-29"/>
<polygon style="fill:midnightblue;stroke:midnightblue;" points="235.427,-32.2259 244,-26 233.416,-25.5212 235.427,-32.2259"/>
</g>
<!-- Node6&#45;&gt;Node2 -->
<g id="edge12" class="edge"><title>Node6&#45;&gt;Node2</title>
<path style="fill:none;stroke:midnightblue;" d="M387,-363C404,-363 421,-363 436,-363"/>
<polygon style="fill:midnightblue;stroke:midnightblue;" points="436,-366.5 446,-363 436,-359.5 436,-366.5"/>
</g>
<!-- Node14&#45;&gt;Node2 -->
<g id="edge30" class="edge"><title>Node14&#45;&gt;Node2</title>
<path style="fill:none;stroke:midnightblue;" d="M377,-24C390,-28 401,-34 410,-43 452,-86 470,-277 474,-342"/>
<polygon style="fill:midnightblue;stroke:midnightblue;" points="470.522,-342.398 475,-352 477.488,-341.701 470.522,-342.398"/>
</g>
</g>
</svg>
