<?xml version="1.0" encoding="UTF-8" standalone="no"?>
<!DOCTYPE svg PUBLIC "-//W3C//DTD SVG 1.0//EN"
 "http://www.w3.org/TR/2001/REC-SVG-20010904/DTD/svg10.dtd" [
 <!ATTLIST svg xmlns:xlink CDATA #FIXED "http://www.w3.org/1999/xlink">
]>
<!-- Generated by Graphviz version 2.14.1 (Fri Nov  9 08:19:38 GMT 2007)
     For user: (asakyurek) Alper Sinan Akyurek -->
<!-- Title: IPAddress::GetSocketSize Pages: 1 -->
<svg width="748pt" height="235pt"
 viewBox="0.00 0.00 748.00 235.00" xmlns="http://www.w3.org/2000/svg" xmlns:xlink="http://www.w3.org/1999/xlink">
<g id="graph0" class="graph" transform="scale(1 1) rotate(0) translate(4 231)">
<title>IPAddress::GetSocketSize</title>
<polygon style="fill:white;stroke:white;" points="-4,4 -4,-231 744,-231 744,4 -4,4"/>
<!-- Node1 -->
<g id="node1" class="node"><title>Node1</title>
<polygon style="fill:#bfbfbf;stroke:black;" points="0,-94 0,-115 152,-115 152,-94 0,-94"/>
<text text-anchor="middle" x="76" y="-101" style="font-family:Arial;font-size:10.00;">IPAddress::GetSocketSize</text>
</g>
<!-- Node2 -->
<g id="node3" class="node"><title>Node2</title>
<a xlink:href="class_t_c_p_client.html#af093afaf101502080174a55518070c8b" target="_top" xlink:title="Starts a TCP connection to a server. ">
<polygon style="fill:white;stroke:black;" points="203,-189 203,-210 324,-210 324,-189 203,-189"/>
<text text-anchor="middle" x="263" y="-196" style="font-family:Arial;font-size:10.00;">TCPClient::Connect</text>
</a>
</g>
<!-- Node1&#45;&gt;Node2 -->
<g id="edge2" class="edge"><title>Node1&#45;&gt;Node2</title>
<path style="fill:none;stroke:midnightblue;" d="M96,-121C118,-138 154,-165 188,-181 195,-184 203,-187 210,-189"/>
<polygon style="fill:midnightblue;stroke:midnightblue;" points="98.1,-118.2 88,-115 93.9,-123.8 98.1,-118.2"/>
</g>
<!-- Node3 -->
<g id="node5" class="node"><title>Node3</title>
<a xlink:href="class_t_c_p_server.html#a85bb8272c9599d98bcb28e4156a755fb" target="_top" xlink:title="Sets the IP address of the server. ">
<polygon style="fill:white;stroke:black;" points="194,-151 194,-172 332,-172 332,-151 194,-151"/>
<text text-anchor="middle" x="263" y="-158" style="font-family:Arial;font-size:10.00;">TCPServer::SetAddress</text>
</a>
</g>
<!-- Node1&#45;&gt;Node3 -->
<g id="edge4" class="edge"><title>Node1&#45;&gt;Node3</title>
<path style="fill:none;stroke:midnightblue;" d="M114,-118C135,-126 163,-135 188,-143 198,-146 208,-148 218,-151"/>
<polygon style="fill:midnightblue;stroke:midnightblue;" points="114.584,-114.521 104,-115 112.573,-121.226 114.584,-114.521"/>
</g>
<!-- Node8 -->
<g id="node15" class="node"><title>Node8</title>
<a xlink:href="class_t_c_p_server.html#ae53980fd5e4791bc6e5e15c97a1a796a" target="_top" xlink:title="This method makes the TCP server accept any incoming connection attempt. ">
<polygon style="fill:white;stroke:black;" points="206,-113 206,-134 321,-134 321,-113 206,-113"/>
<text text-anchor="middle" x="263" y="-120" style="font-family:Arial;font-size:10.00;">TCPServer::Accept</text>
</a>
</g>
<!-- Node1&#45;&gt;Node8 -->
<g id="edge14" class="edge"><title>Node1&#45;&gt;Node8</title>
<path style="fill:none;stroke:midnightblue;" d="M162,-114C177,-116 192,-117 206,-118"/>
<polygon style="fill:midnightblue;stroke:midnightblue;" points="162.299,-110.512 152,-113 161.602,-117.478 162.299,-110.512"/>
</g>
<!-- Node10 -->
<g id="node19" class="node"><title>Node10</title>
<a xlink:href="class_u_d_p_socket.html#ab78ab0104e1fafc5feb1b3459e537e32" target="_top" xlink:title="Sends a data to another UDP socket. ">
<polygon style="fill:white;stroke:black;" points="196,-75 196,-96 331,-96 331,-75 196,-75"/>
<text text-anchor="middle" x="263" y="-82" style="font-family:Arial;font-size:10.00;">UDPSocket::SendData</text>
</a>
</g>
<!-- Node1&#45;&gt;Node10 -->
<g id="edge18" class="edge"><title>Node1&#45;&gt;Node10</title>
<path style="fill:none;stroke:midnightblue;" d="M162,-96C174,-95 185,-94 196,-93"/>
<polygon style="fill:midnightblue;stroke:midnightblue;" points="161.602,-92.5222 152,-97 162.299,-99.4875 161.602,-92.5222"/>
</g>
<!-- Node11 -->
<g id="node21" class="node"><title>Node11</title>
<a xlink:href="class_u_d_p_socket.html#a4f70d5a5bf2bb16fdd897355bb80741b" target="_top" xlink:title="Receives data from another UDP Socket. ">
<polygon style="fill:white;stroke:black;" points="188,-37 188,-58 338,-58 338,-37 188,-37"/>
<text text-anchor="middle" x="263" y="-44" style="font-family:Arial;font-size:10.00;">UDPSocket::ReceiveData</text>
</a>
</g>
<!-- Node1&#45;&gt;Node11 -->
<g id="edge20" class="edge"><title>Node1&#45;&gt;Node11</title>
<path style="fill:none;stroke:midnightblue;" d="M116,-91C137,-83 164,-74 188,-67 198,-64 210,-61 220,-58"/>
<polygon style="fill:midnightblue;stroke:midnightblue;" points="114.573,-87.7741 106,-94 116.584,-94.4788 114.573,-87.7741"/>
</g>
<!-- Node12 -->
<g id="node23" class="node"><title>Node12</title>
<a xlink:href="class_u_d_p_socket.html#a28960551bca2099a03ad6fa39ef28065" target="_top" xlink:title="Sets the IP Address of the socket. ">
<polygon style="fill:white;stroke:black;" points="188,1 188,-20 338,-20 338,1 188,1"/>
<text text-anchor="middle" x="263" y="-6" style="font-family:Arial;font-size:10.00;">UDPSocket::SetIPAddress</text>
</a>
</g>
<!-- Node1&#45;&gt;Node12 -->
<g id="edge22" class="edge"><title>Node1&#45;&gt;Node12</title>
<path style="fill:none;stroke:midnightblue;" d="M97,-87C119,-70 154,-44 188,-29 196,-25 205,-22 214,-20"/>
<polygon style="fill:midnightblue;stroke:midnightblue;" points="94.221,-84.7809 89,-94 98.8306,-90.0489 94.221,-84.7809"/>
</g>
<!-- Node4 -->
<g id="node7" class="node"><title>Node4</title>
<a xlink:href="class_t_c_p_server.html#a8d5ad30ba42960a84973b57f74a853fa" target="_top" xlink:title="Sets the listening port of the server. ">
<polygon style="fill:white;stroke:black;" points="382,-154 382,-175 499,-175 499,-154 382,-154"/>
<text text-anchor="middle" x="440" y="-161" style="font-family:Arial;font-size:10.00;">TCPServer::SetPort</text>
</a>
</g>
<!-- Node3&#45;&gt;Node4 -->
<g id="edge6" class="edge"><title>Node3&#45;&gt;Node4</title>
<path style="fill:none;stroke:midnightblue;" d="M342,-163C356,-163 369,-164 382,-164"/>
<polygon style="fill:midnightblue;stroke:midnightblue;" points="342,-159.5 332,-163 342,-166.5 342,-159.5"/>
</g>
<!-- Node5 -->
<g id="node9" class="node"><title>Node5</title>
<a xlink:href="class_connection_manager.html#a7928f3e95b4e88b01c11eaf3e8089ee7" target="_top" xlink:title="Private constructor for singleton implementation. ">
<polygon style="fill:white;stroke:black;" points="575,-193 575,-227 708,-227 708,-193 575,-193"/>
<text text-anchor="start" x="583" y="-213" style="font-family:Arial;font-size:10.00;">ConnectionManager::</text>
<text text-anchor="middle" x="641" y="-200" style="font-family:Arial;font-size:10.00;">ConnectionManager</text>
</a>
</g>
<!-- Node4&#45;&gt;Node5 -->
<g id="edge8" class="edge"><title>Node4&#45;&gt;Node5</title>
<path style="fill:none;stroke:midnightblue;" d="M495,-177C519,-183 549,-189 575,-195"/>
<polygon style="fill:midnightblue;stroke:midnightblue;" points="495.492,-173.529 485,-175 494.119,-180.393 495.492,-173.529"/>
</g>
<!-- Node6 -->
<g id="node11" class="node"><title>Node6</title>
<a xlink:href="class_control_manager.html#ab81bac3e592705b7ca4b23ce473fe26e" target="_top" xlink:title="Private constructor for singleton implementation. ">
<polygon style="fill:white;stroke:black;" points="542,-154 542,-175 740,-175 740,-154 542,-154"/>
<text text-anchor="middle" x="641" y="-161" style="font-family:Arial;font-size:10.00;">ControlManager::ControlManager</text>
</a>
</g>
<!-- Node4&#45;&gt;Node6 -->
<g id="edge10" class="edge"><title>Node4&#45;&gt;Node6</title>
<path style="fill:none;stroke:midnightblue;" d="M509,-165C520,-165 531,-165 542,-165"/>
<polygon style="fill:midnightblue;stroke:midnightblue;" points="509,-161.5 499,-165 509,-168.5 509,-161.5"/>
</g>
<!-- Node7 -->
<g id="node13" class="node"><title>Node7</title>
<a xlink:href="class_matlab_manager.html#a319d996a8872d9cdba8cf335520af258" target="_top" xlink:title="Private constructor to implement the singleton. ">
<polygon style="fill:white;stroke:black;" points="545,-116 545,-137 737,-137 737,-116 545,-116"/>
<text text-anchor="middle" x="641" y="-123" style="font-family:Arial;font-size:10.00;">MatlabManager::MatlabManager</text>
</a>
</g>
<!-- Node4&#45;&gt;Node7 -->
<g id="edge12" class="edge"><title>Node4&#45;&gt;Node7</title>
<path style="fill:none;stroke:midnightblue;" d="M508,-152C535,-147 564,-141 589,-137"/>
<polygon style="fill:midnightblue;stroke:midnightblue;" points="507.119,-148.607 498,-154 508.492,-155.471 507.119,-148.607"/>
</g>
<!-- Node9 -->
<g id="node17" class="node"><title>Node9</title>
<a xlink:href="class_threaded_t_c_p_server.html#a1e706ece4845443580b2e9c98f178083" target="_top" xlink:title="The execution body of the thread. ">
<polygon style="fill:white;stroke:black;" points="375,-103 375,-137 506,-137 506,-103 375,-103"/>
<text text-anchor="start" x="383" y="-123" style="font-family:Arial;font-size:10.00;">ThreadedTCPServer::</text>
<text text-anchor="middle" x="440" y="-110" style="font-family:Arial;font-size:10.00;">ExecutionBody</text>
</a>
</g>
<!-- Node8&#45;&gt;Node9 -->
<g id="edge16" class="edge"><title>Node8&#45;&gt;Node9</title>
<path style="fill:none;stroke:midnightblue;" d="M331,-123C345,-123 361,-122 375,-122"/>
<polygon style="fill:midnightblue;stroke:midnightblue;" points="331,-119.5 321,-123 331,-126.5 331,-119.5"/>
</g>
<!-- Node13 -->
<g id="node25" class="node"><title>Node13</title>
<a xlink:href="class_u_d_p_socket.html#a13165df1eb017e8ba2eba43a06a083ec" target="_top" xlink:title="Sets the port of the UDP Socket. ">
<polygon style="fill:white;stroke:black;" points="380,1 380,-20 500,-20 500,1 380,1"/>
<text text-anchor="middle" x="440" y="-6" style="font-family:Arial;font-size:10.00;">UDPSocket::SetPort</text>
</a>
</g>
<!-- Node12&#45;&gt;Node13 -->
<g id="edge24" class="edge"><title>Node12&#45;&gt;Node13</title>
<path style="fill:none;stroke:midnightblue;" d="M348,-10C359,-10 369,-10 380,-10"/>
<polygon style="fill:midnightblue;stroke:midnightblue;" points="348,-6.5001 338,-10 348,-13.5001 348,-6.5001"/>
</g>
</g>
</svg>
