<?xml version="1.0" encoding="UTF-8" standalone="no"?>
<!DOCTYPE svg PUBLIC "-//W3C//DTD SVG 1.0//EN"
 "http://www.w3.org/TR/2001/REC-SVG-20010904/DTD/svg10.dtd" [
 <!ATTLIST svg xmlns:xlink CDATA #FIXED "http://www.w3.org/1999/xlink">
]>
<!-- Generated by Graphviz version 2.14.1 (Fri Nov  9 08:19:38 GMT 2007)
     For user: (asakyurek) Alper Sinan Akyurek -->
<!-- Title: ControlManager::SetClient Pages: 1 -->
<svg width="758pt" height="156pt"
 viewBox="0.00 0.00 758.00 156.00" xmlns="http://www.w3.org/2000/svg" xmlns:xlink="http://www.w3.org/1999/xlink">
<g id="graph0" class="graph" transform="scale(1 1) rotate(0) translate(4 152)">
<title>ControlManager::SetClient</title>
<polygon style="fill:white;stroke:white;" points="-4,4 -4,-152 754,-152 754,4 -4,4"/>
<!-- Node1 -->
<g id="node1" class="node"><title>Node1</title>
<polygon style="fill:#bfbfbf;stroke:black;" points="0,-97 0,-118 160,-118 160,-97 0,-97"/>
<text text-anchor="middle" x="80" y="-104" style="font-family:Arial;font-size:10.00;">ControlManager::SetClient</text>
</g>
<!-- Node2 -->
<g id="node3" class="node"><title>Node2</title>
<a xlink:href="class_threaded_t_c_p_connected_client.html#ae8f981925319c228443e0ef78ef0ae67" target="_top" xlink:title="ThreadedTCPConnectedClient\l::SetNotificationCallback">
<polygon style="fill:white;stroke:black;" points="196,-114 196,-148 378,-148 378,-114 196,-114"/>
<text text-anchor="start" x="204" y="-134" style="font-family:Arial;font-size:10.00;">ThreadedTCPConnectedClient</text>
<text text-anchor="middle" x="287" y="-121" style="font-family:Arial;font-size:10.00;">::SetNotificationCallback</text>
</a>
</g>
<!-- Node1&#45;&gt;Node2 -->
<g id="edge2" class="edge"><title>Node1&#45;&gt;Node2</title>
<path style="fill:none;stroke:midnightblue;" d="M160,-117C169,-118 177,-118 186,-120"/>
<polygon style="fill:midnightblue;stroke:midnightblue;" points="185.701,-123.488 196,-121 186.398,-116.522 185.701,-123.488"/>
</g>
<!-- Node3 -->
<g id="node5" class="node"><title>Node3</title>
<a xlink:href="_control_manager_8h.html#a295ee31280dd699294f5787580750ce4" target="_top" xlink:title="Wrapper callback method for reception notification. ">
<polygon style="fill:white;stroke:black;" points="216,-75 216,-96 358,-96 358,-75 216,-75"/>
<text text-anchor="middle" x="287" y="-82" style="font-family:Arial;font-size:10.00;">ControlReceiveHandler</text>
</a>
</g>
<!-- Node1&#45;&gt;Node3 -->
<g id="edge4" class="edge"><title>Node1&#45;&gt;Node3</title>
<path style="fill:none;stroke:midnightblue;" d="M160,-99C175,-97 191,-96 206,-94"/>
<polygon style="fill:midnightblue;stroke:midnightblue;" points="206.398,-97.4778 216,-93 205.701,-90.5125 206.398,-97.4778"/>
</g>
<!-- Node4 -->
<g id="node7" class="node"><title>Node4</title>
<a xlink:href="_log_print_8h.html#a7e0c5f42cad5bc3a44134fb9c9a7a052" target="_top" xlink:title="LogPrint">
<polygon style="fill:white;stroke:black;" points="658,-113 658,-134 718,-134 718,-113 658,-113"/>
<text text-anchor="middle" x="688" y="-120" style="font-family:Arial;font-size:10.00;">LogPrint</text>
</a>
</g>
<!-- Node3&#45;&gt;Node4 -->
<g id="edge6" class="edge"><title>Node3&#45;&gt;Node4</title>
<path style="fill:none;stroke:midnightblue;" d="M350,-96C370,-99 393,-102 414,-105 497,-113 594,-119 648,-122"/>
<polygon style="fill:midnightblue;stroke:midnightblue;" points="647.701,-125.488 658,-123 648.398,-118.522 647.701,-125.488"/>
</g>
<!-- Node5 -->
<g id="node9" class="node"><title>Node5</title>
<a xlink:href="_control_manager_8cpp.html#a63bfd4667c9c70297f25ae5e5176818e" target="_top" xlink:title="Returns the only instance of ControlManager. ">
<polygon style="fill:white;stroke:black;" points="441,-75 441,-96 564,-96 564,-75 441,-75"/>
<text text-anchor="middle" x="502" y="-82" style="font-family:Arial;font-size:10.00;">GetControlManager</text>
</a>
</g>
<!-- Node3&#45;&gt;Node5 -->
<g id="edge8" class="edge"><title>Node3&#45;&gt;Node5</title>
<path style="fill:none;stroke:midnightblue;" d="M358,-86C382,-86 407,-86 431,-86"/>
<polygon style="fill:midnightblue;stroke:midnightblue;" points="431,-89.5001 441,-86 431,-82.5001 431,-89.5001"/>
</g>
<!-- Node6 -->
<g id="node11" class="node"><title>Node6</title>
<a xlink:href="class_control_manager.html#a2dc55da1b01fd175b3d885c68b8a7524" target="_top" xlink:title="Processes the received message from the External Controller. ">
<polygon style="fill:white;stroke:black;" points="414,-37 414,-58 590,-58 590,-37 414,-37"/>
<text text-anchor="middle" x="502" y="-44" style="font-family:Arial;font-size:10.00;">ControlManager::ProcessData</text>
</a>
</g>
<!-- Node3&#45;&gt;Node6 -->
<g id="edge10" class="edge"><title>Node3&#45;&gt;Node6</title>
<path style="fill:none;stroke:midnightblue;" d="M349,-75C377,-71 408,-65 436,-60"/>
<polygon style="fill:midnightblue;stroke:midnightblue;" points="436.881,-63.3933 446,-58 435.508,-56.5292 436.881,-63.3933"/>
</g>
<!-- Node6&#45;&gt;Node4 -->
<g id="edge14" class="edge"><title>Node6&#45;&gt;Node4</title>
<path style="fill:none;stroke:midnightblue;" d="M570,-58C577,-60 584,-63 590,-67 611,-78 607,-92 626,-105 633,-109 641,-112 648,-115"/>
<polygon style="fill:midnightblue;stroke:midnightblue;" points="647.416,-118.479 658,-118 649.427,-111.774 647.416,-118.479"/>
</g>
<!-- Node7 -->
<g id="node13" class="node"><title>Node7</title>
<a xlink:href="_log_print_8h.html#a46ea30a62534f8ce32cd39454e459b23" target="_top" xlink:title="WarningPrint">
<polygon style="fill:white;stroke:black;" points="646,-75 646,-96 731,-96 731,-75 646,-75"/>
<text text-anchor="middle" x="688" y="-82" style="font-family:Arial;font-size:10.00;">WarningPrint</text>
</a>
</g>
<!-- Node6&#45;&gt;Node7 -->
<g id="edge12" class="edge"><title>Node6&#45;&gt;Node7</title>
<path style="fill:none;stroke:midnightblue;" d="M551,-58C577,-63 610,-69 636,-75"/>
<polygon style="fill:midnightblue;stroke:midnightblue;" points="635.508,-78.4708 646,-77 636.881,-71.6067 635.508,-78.4708"/>
</g>
<!-- Node8 -->
<g id="node16" class="node"><title>Node8</title>
<a xlink:href="_log_print_8h.html#af783a2ea2c57c5f51f905a24f3f5a835" target="_top" xlink:title="ErrorPrint">
<polygon style="fill:white;stroke:black;" points="656,-37 656,-58 721,-58 721,-37 656,-37"/>
<text text-anchor="middle" x="688" y="-44" style="font-family:Arial;font-size:10.00;">ErrorPrint</text>
</a>
</g>
<!-- Node6&#45;&gt;Node8 -->
<g id="edge16" class="edge"><title>Node6&#45;&gt;Node8</title>
<path style="fill:none;stroke:midnightblue;" d="M590,-48C609,-48 629,-48 646,-48"/>
<polygon style="fill:midnightblue;stroke:midnightblue;" points="646,-51.5001 656,-48 646,-44.5001 646,-51.5001"/>
</g>
<!-- Node9 -->
<g id="node18" class="node"><title>Node9</title>
<a xlink:href="_system_manager_8cpp.html#a97e64f74d188d41051488578800d20cd" target="_top" xlink:title="GetSystemManager">
<polygon style="fill:white;stroke:black;" points="627,1 627,-20 750,-20 750,1 627,1"/>
<text text-anchor="middle" x="688" y="-6" style="font-family:Arial;font-size:10.00;">GetSystemManager</text>
</a>
</g>
<!-- Node6&#45;&gt;Node9 -->
<g id="edge18" class="edge"><title>Node6&#45;&gt;Node9</title>
<path style="fill:none;stroke:midnightblue;" d="M556,-37C579,-33 606,-27 630,-22"/>
<polygon style="fill:midnightblue;stroke:midnightblue;" points="630.881,-25.3933 640,-20 629.508,-18.5292 630.881,-25.3933"/>
</g>
</g>
</svg>
