<?xml version="1.0" encoding="UTF-8" standalone="no"?>
<!DOCTYPE svg PUBLIC "-//W3C//DTD SVG 1.0//EN"
 "http://www.w3.org/TR/2001/REC-SVG-20010904/DTD/svg10.dtd" [
 <!ATTLIST svg xmlns:xlink CDATA #FIXED "http://www.w3.org/1999/xlink">
]>
<!-- Generated by Graphviz version 2.14.1 (Fri Nov  9 08:19:38 GMT 2007)
     For user: (asakyurek) Alper Sinan Akyurek -->
<!-- Title: ControlManager::ProcessData Pages: 1 -->
<svg width="990pt" height="28pt"
 viewBox="0.00 0.00 990.00 28.00" xmlns="http://www.w3.org/2000/svg" xmlns:xlink="http://www.w3.org/1999/xlink">
<g id="graph0" class="graph" transform="scale(1 1) rotate(0) translate(4 24)">
<title>ControlManager::ProcessData</title>
<polygon style="fill:white;stroke:white;" points="-4,4 -4,-24 986,-24 986,4 -4,4"/>
<!-- Node1 -->
<g id="node1" class="node"><title>Node1</title>
<polygon style="fill:#bfbfbf;stroke:black;" points="0,1 0,-20 176,-20 176,1 0,1"/>
<text text-anchor="middle" x="88" y="-6" style="font-family:Arial;font-size:10.00;">ControlManager::ProcessData</text>
</g>
<!-- Node2 -->
<g id="node3" class="node"><title>Node2</title>
<a xlink:href="_control_manager_8h.html#a295ee31280dd699294f5787580750ce4" target="_top" xlink:title="Wrapper callback method for reception notification. ">
<polygon style="fill:white;stroke:black;" points="212,1 212,-20 354,-20 354,1 212,1"/>
<text text-anchor="middle" x="283" y="-6" style="font-family:Arial;font-size:10.00;">ControlReceiveHandler</text>
</a>
</g>
<!-- Node1&#45;&gt;Node2 -->
<g id="edge2" class="edge"><title>Node1&#45;&gt;Node2</title>
<path style="fill:none;stroke:midnightblue;" d="M186,-10C195,-10 203,-10 212,-10"/>
<polygon style="fill:midnightblue;stroke:midnightblue;" points="186,-6.5001 176,-10 186,-13.5001 186,-6.5001"/>
</g>
<!-- Node3 -->
<g id="node5" class="node"><title>Node3</title>
<a xlink:href="class_control_manager.html#a67d548535b36a78e315a0aa5f9f8e6c8" target="_top" xlink:title="Sets the connection information to the accepted External Controller. ">
<polygon style="fill:white;stroke:black;" points="390,1 390,-20 550,-20 550,1 390,1"/>
<text text-anchor="middle" x="470" y="-6" style="font-family:Arial;font-size:10.00;">ControlManager::SetClient</text>
</a>
</g>
<!-- Node2&#45;&gt;Node3 -->
<g id="edge4" class="edge"><title>Node2&#45;&gt;Node3</title>
<path style="fill:none;stroke:midnightblue;" d="M364,-10C373,-10 381,-10 390,-10"/>
<polygon style="fill:midnightblue;stroke:midnightblue;" points="364,-6.5001 354,-10 364,-13.5001 364,-6.5001"/>
</g>
<!-- Node4 -->
<g id="node7" class="node"><title>Node4</title>
<a xlink:href="_control_manager_8cpp.html#a5f09b25cf454170e17d1aa3c2707273a" target="_top" xlink:title="ControlNotificationHandler">
<polygon style="fill:white;stroke:black;" points="586,1 586,-20 748,-20 748,1 586,1"/>
<text text-anchor="middle" x="667" y="-6" style="font-family:Arial;font-size:10.00;">ControlNotificationHandler</text>
</a>
</g>
<!-- Node3&#45;&gt;Node4 -->
<g id="edge6" class="edge"><title>Node3&#45;&gt;Node4</title>
<path style="fill:none;stroke:midnightblue;" d="M560,-10C569,-10 577,-10 586,-10"/>
<polygon style="fill:midnightblue;stroke:midnightblue;" points="560,-6.5001 550,-10 560,-13.5001 560,-6.5001"/>
</g>
<!-- Node5 -->
<g id="node9" class="node"><title>Node5</title>
<a xlink:href="class_control_manager.html#ab81bac3e592705b7ca4b23ce473fe26e" target="_top" xlink:title="Private constructor for singleton implementation. ">
<polygon style="fill:white;stroke:black;" points="784,1 784,-20 982,-20 982,1 784,1"/>
<text text-anchor="middle" x="883" y="-6" style="font-family:Arial;font-size:10.00;">ControlManager::ControlManager</text>
</a>
</g>
<!-- Node4&#45;&gt;Node5 -->
<g id="edge8" class="edge"><title>Node4&#45;&gt;Node5</title>
<path style="fill:none;stroke:midnightblue;" d="M758,-10C767,-10 775,-10 784,-10"/>
<polygon style="fill:midnightblue;stroke:midnightblue;" points="758,-6.5001 748,-10 758,-13.5001 758,-6.5001"/>
</g>
</g>
</svg>
