<?xml version="1.0" encoding="UTF-8" standalone="no"?>
<!DOCTYPE svg PUBLIC "-//W3C//DTD SVG 1.0//EN"
 "http://www.w3.org/TR/2001/REC-SVG-20010904/DTD/svg10.dtd" [
 <!ATTLIST svg xmlns:xlink CDATA #FIXED "http://www.w3.org/1999/xlink">
]>
<!-- Generated by Graphviz version 2.14.1 (Fri Nov  9 08:19:38 GMT 2007)
     For user: (asakyurek) Alper Sinan Akyurek -->
<!-- Title: ThreadedTCPConnectedClient Pages: 1 -->
<svg width="281pt" height="222pt"
 viewBox="0.00 0.00 281.00 222.00" xmlns="http://www.w3.org/2000/svg" xmlns:xlink="http://www.w3.org/1999/xlink">
<g id="graph0" class="graph" transform="scale(1 1) rotate(0) translate(4 218)">
<title>ThreadedTCPConnectedClient</title>
<polygon style="fill:white;stroke:white;" points="-4,4 -4,-218 277,-218 277,4 -4,4"/>
<!-- Node1 -->
<g id="node1" class="node"><title>Node1</title>
<polygon style="fill:#bfbfbf;stroke:black;" points="91,-0 91,-21 273,-21 273,-0 91,-0"/>
<text text-anchor="middle" x="182" y="-7" style="font-family:Arial;font-size:10.00;">ThreadedTCPConnectedClient</text>
</g>
<!-- Node2 -->
<g id="node2" class="node"><title>Node2</title>
<a xlink:href="class_t_c_p_connected_client.html" target="_top" xlink:title="Manages the connection to a connected client on the server side. ">
<polygon style="fill:white;stroke:black;" points="27,-60 27,-81 156,-81 156,-60 27,-60"/>
<text text-anchor="middle" x="91" y="-67" style="font-family:Arial;font-size:10.00;">TCPConnectedClient</text>
</a>
</g>
<!-- Node2&#45;&gt;Node1 -->
<g id="edge2" class="edge"><title>Node2&#45;&gt;Node1</title>
<path style="fill:none;stroke:midnightblue;" d="M117,-54C133,-44 153,-30 167,-21"/>
<polygon style="fill:midnightblue;stroke:midnightblue;" points="114.379,-51.5408 108,-60 118.262,-57.3651 114.379,-51.5408"/>
</g>
<!-- Node3 -->
<g id="node4" class="node"><title>Node3</title>
<a xlink:href="class_socket_base.html" target="_top" xlink:title="SocketBase\&lt; SOCK_STREAM \&gt;">
<polygon style="fill:white;stroke:black;" points="0,-120 0,-141 182,-141 182,-120 0,-120"/>
<text text-anchor="middle" x="91" y="-127" style="font-family:Arial;font-size:10.00;">SocketBase&lt; SOCK_STREAM &gt;</text>
</a>
</g>
<!-- Node3&#45;&gt;Node2 -->
<g id="edge4" class="edge"><title>Node3&#45;&gt;Node2</title>
<path style="fill:none;stroke:midnightblue;" d="M91,-110C91,-100 91,-89 91,-81"/>
<polygon style="fill:midnightblue;stroke:midnightblue;" points="87.5001,-110 91,-120 94.5001,-110 87.5001,-110"/>
</g>
<!-- Node4 -->
<g id="node6" class="node"><title>Node4</title>
<a xlink:href="class_socket_base.html" target="_top" xlink:title="This class is an abstraction over the OS socket and defines a base class for socket opening and closi...">
<polygon style="fill:white;stroke:black;" points="8,-192 8,-213 174,-213 174,-192 8,-192"/>
<text text-anchor="middle" x="91" y="-199" style="font-family:Arial;font-size:10.00;">SocketBase&lt; SocketType &gt;</text>
</a>
</g>
<!-- Node4&#45;&gt;Node3 -->
<g id="edge6" class="edge"><title>Node4&#45;&gt;Node3</title>
<path style="fill:none;stroke:orange;stroke-dasharray:5,2;" d="M91,-182C91,-168 91,-152 91,-141"/>
<polygon style="fill:orange;stroke:orange;" points="87.5001,-182 91,-192 94.5001,-182 87.5001,-182"/>
<text text-anchor="middle" x="144" y="-164" style="font-family:Arial;font-size:10.00;"> &lt; SOCK_STREAM &gt;</text>
</g>
<!-- Node5 -->
<g id="node8" class="node"><title>Node5</title>
<a xlink:href="class_thread_base.html" target="_top" xlink:title="Provides a base class that can be inherited from to gain threading capabilities. ">
<polygon style="fill:white;stroke:black;" points="173,-60 173,-81 254,-81 254,-60 173,-60"/>
<text text-anchor="middle" x="213" y="-67" style="font-family:Arial;font-size:10.00;">ThreadBase</text>
</a>
</g>
<!-- Node5&#45;&gt;Node1 -->
<g id="edge8" class="edge"><title>Node5&#45;&gt;Node1</title>
<path style="fill:none;stroke:#8b1a1a;" d="M202,-51C197,-41 192,-29 187,-21"/>
<polygon style="fill:#8b1a1a;stroke:#8b1a1a;" points="199.084,-52.9582 207,-60 205.203,-49.5586 199.084,-52.9582"/>
</g>
</g>
</svg>
