<?xml version="1.0" encoding="UTF-8" standalone="no"?>
<!DOCTYPE svg PUBLIC "-//W3C//DTD SVG 1.0//EN"
 "http://www.w3.org/TR/2001/REC-SVG-20010904/DTD/svg10.dtd" [
 <!ATTLIST svg xmlns:xlink CDATA #FIXED "http://www.w3.org/1999/xlink">
]>
<!-- Generated by Graphviz version 2.14.1 (Fri Nov  9 08:19:38 GMT 2007)
     For user: (asakyurek) Alper Sinan Akyurek -->
<!-- Title: ControlManager::WaitUntilReady Pages: 1 -->
<svg width="494pt" height="54pt"
 viewBox="0.00 0.00 494.00 54.00" xmlns="http://www.w3.org/2000/svg" xmlns:xlink="http://www.w3.org/1999/xlink">
<g id="graph0" class="graph" transform="scale(1 1) rotate(0) translate(4 50)">
<title>ControlManager::WaitUntilReady</title>
<polygon style="fill:white;stroke:white;" points="-4,4 -4,-50 490,-50 490,4 -4,4"/>
<!-- Node1 -->
<g id="node1" class="node"><title>Node1</title>
<polygon style="fill:#bfbfbf;stroke:black;" points="1,-12 1,-46 160,-46 160,-12 1,-12"/>
<text text-anchor="start" x="9" y="-32" style="font-family:Arial;font-size:10.00;">ControlManager::WaitUntil</text>
<text text-anchor="middle" x="80" y="-19" style="font-family:Arial;font-size:10.00;">Ready</text>
</g>
<!-- Node2 -->
<g id="node3" class="node"><title>Node2</title>
<a xlink:href="main_8cpp.html#a3c04138a5bfe5d72780bb7e82a18e627" target="_top" xlink:title="main">
<polygon style="fill:white;stroke:black;" points="442,-18 442,-39 486,-39 486,-18 442,-18"/>
<text text-anchor="middle" x="464" y="-25" style="font-family:Arial;font-size:10.00;">main</text>
</a>
</g>
<!-- Node1&#45;&gt;Node2 -->
<g id="edge2" class="edge"><title>Node1&#45;&gt;Node2</title>
<path style="fill:none;stroke:midnightblue;" d="M170,-29C260,-29 390,-29 442,-29"/>
<polygon style="fill:midnightblue;stroke:midnightblue;" points="170,-25.5001 160,-29 170,-32.5001 170,-25.5001"/>
</g>
<!-- Node3 -->
<g id="node5" class="node"><title>Node3</title>
<a xlink:href="class_system_manager.html#a87443d7e75b0f170535d315c27237253" target="_top" xlink:title="Main time iteration of the system. ">
<polygon style="fill:white;stroke:black;" points="196,1 196,-20 406,-20 406,1 196,1"/>
<text text-anchor="middle" x="301" y="-6" style="font-family:Arial;font-size:10.00;">SystemManager::AdvanceTimeStep</text>
</a>
</g>
<!-- Node1&#45;&gt;Node3 -->
<g id="edge4" class="edge"><title>Node1&#45;&gt;Node3</title>
<path style="fill:none;stroke:midnightblue;" d="M170,-21C179,-20 187,-20 196,-19"/>
<polygon style="fill:midnightblue;stroke:midnightblue;" points="169.602,-17.5222 160,-22 170.299,-24.4875 169.602,-17.5222"/>
</g>
<!-- Node3&#45;&gt;Node2 -->
<g id="edge6" class="edge"><title>Node3&#45;&gt;Node2</title>
<path style="fill:none;stroke:midnightblue;" d="M397,-21C414,-24 430,-25 442,-27"/>
<polygon style="fill:midnightblue;stroke:midnightblue;" points="397.299,-17.5125 387,-20 396.602,-24.4778 397.299,-17.5125"/>
</g>
</g>
</svg>
