<?xml version="1.0" encoding="UTF-8" standalone="no"?>
<!DOCTYPE svg PUBLIC "-//W3C//DTD SVG 1.0//EN"
 "http://www.w3.org/TR/2001/REC-SVG-20010904/DTD/svg10.dtd" [
 <!ATTLIST svg xmlns:xlink CDATA #FIXED "http://www.w3.org/1999/xlink">
]>
<!-- Generated by Graphviz version 2.14.1 (Fri Nov  9 08:19:38 GMT 2007)
     For user: (asakyurek) Alper Sinan Akyurek -->
<!-- Title: TerraSwarm::NetworkByteAccessor::operator= Pages: 1 -->
<svg width="686pt" height="80pt"
 viewBox="0.00 0.00 686.00 80.00" xmlns="http://www.w3.org/2000/svg" xmlns:xlink="http://www.w3.org/1999/xlink">
<g id="graph0" class="graph" transform="scale(1 1) rotate(0) translate(4 76)">
<title>TerraSwarm::NetworkByteAccessor::operator=</title>
<polygon style="fill:white;stroke:white;" points="-4,4 -4,-76 682,-76 682,4 -4,4"/>
<!-- Node1 -->
<g id="node1" class="node"><title>Node1</title>
<polygon style="fill:#bfbfbf;stroke:black;" points="0,-22 0,-56 202,-56 202,-22 0,-22"/>
<text text-anchor="start" x="8" y="-42" style="font-family:Arial;font-size:10.00;">TerraSwarm::NetworkByteAccessor</text>
<text text-anchor="middle" x="101" y="-29" style="font-family:Arial;font-size:10.00;">::operator=</text>
</g>
<!-- Node2 -->
<g id="node3" class="node"><title>Node2</title>
<a xlink:href="class_terra_swarm_1_1_network_byte_accessor.html#a7d6e11dd4a5f86e6c036bbcf64bccf25" target="_top" xlink:title="Writes a value to the given address index with correct byte order. ">
<polygon style="fill:white;stroke:black;" points="238,-22 238,-56 440,-56 440,-22 238,-22"/>
<text text-anchor="start" x="246" y="-42" style="font-family:Arial;font-size:10.00;">TerraSwarm::NetworkByteAccessor</text>
<text text-anchor="middle" x="339" y="-29" style="font-family:Arial;font-size:10.00;">::Write</text>
</a>
</g>
<!-- Node1&#45;&gt;Node2 -->
<g id="edge2" class="edge"><title>Node1&#45;&gt;Node2</title>
<path style="fill:none;stroke:midnightblue;" d="M202,-39C211,-39 219,-39 228,-39"/>
<polygon style="fill:midnightblue;stroke:midnightblue;" points="228,-42.5001 238,-39 228,-35.5001 228,-42.5001"/>
</g>
<!-- Node3 -->
<g id="node5" class="node"><title>Node3</title>
<a xlink:href="class_size_check.html#a5e3ffed91b912bc4b3f8b3290dc64351" target="_top" xlink:title="Empty class that will only compile if the check passes. ">
<polygon style="fill:white;stroke:black;" points="521,-51 521,-72 634,-72 634,-51 521,-51"/>
<text text-anchor="middle" x="577" y="-58" style="font-family:Arial;font-size:10.00;">SizeCheck::Check</text>
</a>
</g>
<!-- Node2&#45;&gt;Node3 -->
<g id="edge4" class="edge"><title>Node2&#45;&gt;Node3</title>
<path style="fill:none;stroke:midnightblue;" d="M440,-49C464,-52 489,-53 511,-56"/>
<polygon style="fill:midnightblue;stroke:midnightblue;" points="510.701,-59.4875 521,-57 511.398,-52.5222 510.701,-59.4875"/>
</g>
<!-- Node4 -->
<g id="node7" class="node"><title>Node4</title>
<a xlink:href="class_terra_swarm_1_1_network_byte_accessor_1_1_endian_converter.html#ab43849574a96cddb8f398d93afaf8f91" target="_top" xlink:title="Converts the host byte order to the network byte order. ">
<polygon style="fill:white;stroke:black;" points="476,-0 476,-34 678,-34 678,-0 476,-0"/>
<text text-anchor="start" x="484" y="-20" style="font-family:Arial;font-size:10.00;">TerraSwarm::NetworkByteAccessor</text>
<text text-anchor="middle" x="577" y="-7" style="font-family:Arial;font-size:10.00;">::EndianConverter::HostToNetwork</text>
</a>
</g>
<!-- Node2&#45;&gt;Node4 -->
<g id="edge6" class="edge"><title>Node2&#45;&gt;Node4</title>
<path style="fill:none;stroke:midnightblue;" d="M440,-30C449,-29 457,-29 466,-28"/>
<polygon style="fill:midnightblue;stroke:midnightblue;" points="466.398,-31.4778 476,-27 465.701,-24.5125 466.398,-31.4778"/>
</g>
</g>
</svg>
