<?xml version="1.0" encoding="UTF-8" standalone="no"?>
<!DOCTYPE svg PUBLIC "-//W3C//DTD SVG 1.0//EN"
 "http://www.w3.org/TR/2001/REC-SVG-20010904/DTD/svg10.dtd" [
 <!ATTLIST svg xmlns:xlink CDATA #FIXED "http://www.w3.org/1999/xlink">
]>
<!-- Generated by Graphviz version 2.14.1 (Fri Nov  9 08:19:38 GMT 2007)
     For user: (asakyurek) Alper Sinan Akyurek -->
<!-- Title: ThreadBase Pages: 1 -->
<svg width="472pt" height="88pt"
 viewBox="0.00 0.00 472.00 88.00" xmlns="http://www.w3.org/2000/svg" xmlns:xlink="http://www.w3.org/1999/xlink">
<g id="graph0" class="graph" transform="scale(1 1) rotate(0) translate(4 84)">
<title>ThreadBase</title>
<polygon style="fill:white;stroke:white;" points="-4,4 -4,-84 468,-84 468,4 -4,4"/>
<!-- Node1 -->
<g id="node1" class="node"><title>Node1</title>
<polygon style="fill:#bfbfbf;stroke:black;" points="191,-58 191,-79 272,-79 272,-58 191,-58"/>
<text text-anchor="middle" x="231" y="-65" style="font-family:Arial;font-size:10.00;">ThreadBase</text>
</g>
<!-- Node2 -->
<g id="node3" class="node"><title>Node2</title>
<a xlink:href="class_threaded_t_c_p_client.html" target="_top" xlink:title="This is a TCP client class that receives data in a separate thread in the background. ">
<polygon style="fill:white;stroke:black;" points="0,-0 0,-21 122,-21 122,-0 0,-0"/>
<text text-anchor="middle" x="61" y="-7" style="font-family:Arial;font-size:10.00;">ThreadedTCPClient</text>
</a>
</g>
<!-- Node1&#45;&gt;Node2 -->
<g id="edge2" class="edge"><title>Node1&#45;&gt;Node2</title>
<path style="fill:none;stroke:#8b1a1a;" d="M189,-55C158,-44 118,-30 90,-21"/>
<polygon style="fill:#8b1a1a;stroke:#8b1a1a;" points="188.416,-58.4788 199,-58 190.427,-51.7741 188.416,-58.4788"/>
</g>
<!-- Node3 -->
<g id="node5" class="node"><title>Node3</title>
<a xlink:href="class_threaded_t_c_p_connected_client.html" target="_top" xlink:title="Manages the connection to an accepted client on the server side and receives data in a separate threa...">
<polygon style="fill:white;stroke:black;" points="140,-0 140,-21 322,-21 322,-0 140,-0"/>
<text text-anchor="middle" x="231" y="-7" style="font-family:Arial;font-size:10.00;">ThreadedTCPConnectedClient</text>
</a>
</g>
<!-- Node1&#45;&gt;Node3 -->
<g id="edge4" class="edge"><title>Node1&#45;&gt;Node3</title>
<path style="fill:none;stroke:#8b1a1a;" d="M231,-48C231,-38 231,-28 231,-21"/>
<polygon style="fill:#8b1a1a;stroke:#8b1a1a;" points="227.5,-48 231,-58 234.5,-48 227.5,-48"/>
</g>
<!-- Node4 -->
<g id="node7" class="node"><title>Node4</title>
<a xlink:href="class_threaded_t_c_p_server.html" target="_top" xlink:title="Defines the threaded version of TCPServer that accepts clients in another thread in the background...">
<polygon style="fill:white;stroke:black;" points="340,-0 340,-21 465,-21 465,-0 340,-0"/>
<text text-anchor="middle" x="402" y="-7" style="font-family:Arial;font-size:10.00;">ThreadedTCPServer</text>
</a>
</g>
<!-- Node1&#45;&gt;Node4 -->
<g id="edge6" class="edge"><title>Node1&#45;&gt;Node4</title>
<path style="fill:none;stroke:#8b1a1a;" d="M274,-55C304,-44 345,-30 372,-21"/>
<polygon style="fill:#8b1a1a;stroke:#8b1a1a;" points="272.573,-51.7741 264,-58 274.584,-58.4788 272.573,-51.7741"/>
</g>
</g>
</svg>
