<?xml version="1.0" encoding="UTF-8" standalone="no"?>
<!DOCTYPE svg PUBLIC "-//W3C//DTD SVG 1.0//EN"
 "http://www.w3.org/TR/2001/REC-SVG-20010904/DTD/svg10.dtd" [
 <!ATTLIST svg xmlns:xlink CDATA #FIXED "http://www.w3.org/1999/xlink">
]>
<!-- Generated by Graphviz version 2.14.1 (Fri Nov  9 08:19:38 GMT 2007)
     For user: (asakyurek) Alper Sinan Akyurek -->
<!-- Title: ControlManager::ClientPriceRequest Pages: 1 -->
<svg width="342pt" height="80pt"
 viewBox="0.00 0.00 342.00 80.00" xmlns="http://www.w3.org/2000/svg" xmlns:xlink="http://www.w3.org/1999/xlink">
<g id="graph0" class="graph" transform="scale(1 1) rotate(0) translate(4 76)">
<title>ControlManager::ClientPriceRequest</title>
<polygon style="fill:white;stroke:white;" points="-4,4 -4,-76 338,-76 338,4 -4,4"/>
<!-- Node1 -->
<g id="node1" class="node"><title>Node1</title>
<polygon style="fill:#bfbfbf;stroke:black;" points="0,-22 0,-56 168,-56 168,-22 0,-22"/>
<text text-anchor="start" x="8" y="-42" style="font-family:Arial;font-size:10.00;">ControlManager::ClientPrice</text>
<text text-anchor="middle" x="84" y="-29" style="font-family:Arial;font-size:10.00;">Request</text>
</g>
<!-- Node2 -->
<g id="node3" class="node"><title>Node2</title>
<a xlink:href="_log_print_8h.html#a7e0c5f42cad5bc3a44134fb9c9a7a052" target="_top" xlink:title="8 parameter log message ">
<polygon style="fill:white;stroke:black;" points="239,-51 239,-72 299,-72 299,-51 239,-51"/>
<text text-anchor="middle" x="269" y="-58" style="font-family:Arial;font-size:10.00;">LogPrint</text>
</a>
</g>
<!-- Node1&#45;&gt;Node2 -->
<g id="edge2" class="edge"><title>Node1&#45;&gt;Node2</title>
<path style="fill:none;stroke:midnightblue;" d="M168,-49C189,-52 211,-55 229,-57"/>
<polygon style="fill:midnightblue;stroke:midnightblue;" points="228.701,-60.4875 239,-58 229.398,-53.5222 228.701,-60.4875"/>
</g>
<!-- Node3 -->
<g id="node5" class="node"><title>Node3</title>
<a xlink:href="class_t_c_p_connected_client.html#a7c3a1d1172f3880b48d35ffbf255712d" target="_top" xlink:title="Sends data to the connected client. ">
<polygon style="fill:white;stroke:black;" points="205,-0 205,-34 334,-34 334,-0 205,-0"/>
<text text-anchor="start" x="213" y="-20" style="font-family:Arial;font-size:10.00;">TCPConnectedClient</text>
<text text-anchor="middle" x="269" y="-7" style="font-family:Arial;font-size:10.00;">::SendData</text>
</a>
</g>
<!-- Node1&#45;&gt;Node3 -->
<g id="edge4" class="edge"><title>Node1&#45;&gt;Node3</title>
<path style="fill:none;stroke:midnightblue;" d="M168,-29C177,-28 186,-27 195,-26"/>
<polygon style="fill:midnightblue;stroke:midnightblue;" points="195.398,-29.4778 205,-25 194.701,-22.5125 195.398,-29.4778"/>
</g>
</g>
</svg>
