<?xml version="1.0" encoding="UTF-8" standalone="no"?>
<!DOCTYPE svg PUBLIC "-//W3C//DTD SVG 1.0//EN"
 "http://www.w3.org/TR/2001/REC-SVG-20010904/DTD/svg10.dtd" [
 <!ATTLIST svg xmlns:xlink CDATA #FIXED "http://www.w3.org/1999/xlink">
]>
<!-- Generated by Graphviz version 2.14.1 (Fri Nov  9 08:19:38 GMT 2007)
     For user: (asakyurek) Alper Sinan Akyurek -->
<!-- Title: TCPServer::SetAddress Pages: 1 -->
<svg width="534pt" height="118pt"
 viewBox="0.00 0.00 534.00 118.00" xmlns="http://www.w3.org/2000/svg" xmlns:xlink="http://www.w3.org/1999/xlink">
<g id="graph0" class="graph" transform="scale(1 1) rotate(0) translate(4 114)">
<title>TCPServer::SetAddress</title>
<polygon style="fill:white;stroke:white;" points="-4,4 -4,-114 530,-114 530,4 -4,4"/>
<!-- Node1 -->
<g id="node1" class="node"><title>Node1</title>
<polygon style="fill:#bfbfbf;stroke:black;" points="0,-37 0,-58 138,-58 138,-37 0,-37"/>
<text text-anchor="middle" x="69" y="-44" style="font-family:Arial;font-size:10.00;">TCPServer::SetAddress</text>
</g>
<!-- Node2 -->
<g id="node3" class="node"><title>Node2</title>
<a xlink:href="class_t_c_p_server.html#a8d5ad30ba42960a84973b57f74a853fa" target="_top" xlink:title="TCPServer::SetPort">
<polygon style="fill:white;stroke:black;" points="175,-37 175,-58 292,-58 292,-37 175,-37"/>
<text text-anchor="middle" x="233" y="-44" style="font-family:Arial;font-size:10.00;">TCPServer::SetPort</text>
</a>
</g>
<!-- Node1&#45;&gt;Node2 -->
<g id="edge2" class="edge"><title>Node1&#45;&gt;Node2</title>
<path style="fill:none;stroke:midnightblue;" d="M148,-48C157,-48 166,-48 175,-48"/>
<polygon style="fill:midnightblue;stroke:midnightblue;" points="148,-44.5001 138,-48 148,-51.5001 148,-44.5001"/>
</g>
<!-- Node3 -->
<g id="node5" class="node"><title>Node3</title>
<a xlink:href="class_connection_manager.html#a7928f3e95b4e88b01c11eaf3e8089ee7" target="_top" xlink:title="ConnectionManager::\lConnectionManager">
<polygon style="fill:white;stroke:black;" points="361,-76 361,-110 494,-110 494,-76 361,-76"/>
<text text-anchor="start" x="369" y="-96" style="font-family:Arial;font-size:10.00;">ConnectionManager::</text>
<text text-anchor="middle" x="427" y="-83" style="font-family:Arial;font-size:10.00;">ConnectionManager</text>
</a>
</g>
<!-- Node2&#45;&gt;Node3 -->
<g id="edge4" class="edge"><title>Node2&#45;&gt;Node3</title>
<path style="fill:none;stroke:midnightblue;" d="M287,-60C310,-66 337,-72 361,-77"/>
<polygon style="fill:midnightblue;stroke:midnightblue;" points="287.492,-56.5292 277,-58 286.119,-63.3933 287.492,-56.5292"/>
</g>
<!-- Node4 -->
<g id="node7" class="node"><title>Node4</title>
<a xlink:href="class_control_manager.html#ab81bac3e592705b7ca4b23ce473fe26e" target="_top" xlink:title="ControlManager::ControlManager">
<polygon style="fill:white;stroke:black;" points="328,-37 328,-58 526,-58 526,-37 328,-37"/>
<text text-anchor="middle" x="427" y="-44" style="font-family:Arial;font-size:10.00;">ControlManager::ControlManager</text>
</a>
</g>
<!-- Node2&#45;&gt;Node4 -->
<g id="edge6" class="edge"><title>Node2&#45;&gt;Node4</title>
<path style="fill:none;stroke:midnightblue;" d="M302,-48C311,-48 320,-48 328,-48"/>
<polygon style="fill:midnightblue;stroke:midnightblue;" points="302,-44.5001 292,-48 302,-51.5001 302,-44.5001"/>
</g>
<!-- Node5 -->
<g id="node9" class="node"><title>Node5</title>
<a xlink:href="class_matlab_manager.html#a319d996a8872d9cdba8cf335520af258" target="_top" xlink:title="MatlabManager::MatlabManager">
<polygon style="fill:white;stroke:black;" points="331,1 331,-20 523,-20 523,1 331,1"/>
<text text-anchor="middle" x="427" y="-6" style="font-family:Arial;font-size:10.00;">MatlabManager::MatlabManager</text>
</a>
</g>
<!-- Node2&#45;&gt;Node5 -->
<g id="edge8" class="edge"><title>Node2&#45;&gt;Node5</title>
<path style="fill:none;stroke:midnightblue;" d="M297,-35C308,-33 318,-31 328,-29 343,-26 359,-23 374,-20"/>
<polygon style="fill:midnightblue;stroke:midnightblue;" points="296.119,-31.6067 287,-37 297.492,-38.4708 296.119,-31.6067"/>
</g>
</g>
</svg>
