<?xml version="1.0" encoding="UTF-8" standalone="no"?>
<!DOCTYPE svg PUBLIC "-//W3C//DTD SVG 1.0//EN"
 "http://www.w3.org/TR/2001/REC-SVG-20010904/DTD/svg10.dtd" [
 <!ATTLIST svg xmlns:xlink CDATA #FIXED "http://www.w3.org/1999/xlink">
]>
<!-- Generated by Graphviz version 2.14.1 (Fri Nov  9 08:19:38 GMT 2007)
     For user: (asakyurek) Alper Sinan Akyurek -->
<!-- Title: ClientManager::MessageReceived Pages: 1 -->
<svg width="936pt" height="1142pt"
 viewBox="0.00 0.00 936.00 1142.00" xmlns="http://www.w3.org/2000/svg" xmlns:xlink="http://www.w3.org/1999/xlink">
<g id="graph0" class="graph" transform="scale(1 1) rotate(0) translate(4 1138)">
<title>ClientManager::MessageReceived</title>
<polygon style="fill:white;stroke:white;" points="-4,4 -4,-1138 932,-1138 932,4 -4,4"/>
<!-- Node1 -->
<g id="node1" class="node"><title>Node1</title>
<polygon style="fill:#bfbfbf;stroke:black;" points="1,-575 1,-596 200,-596 200,-575 1,-575"/>
<text text-anchor="middle" x="100" y="-582" style="font-family:Arial;font-size:10.00;">ClientManager::MessageReceived</text>
</g>
<!-- Node2 -->
<g id="node3" class="node"><title>Node2</title>
<a xlink:href="_log_print_8h.html#a7e0c5f42cad5bc3a44134fb9c9a7a052" target="_top" xlink:title="LogPrint">
<polygon style="fill:white;stroke:black;" points="788,-713 788,-734 848,-734 848,-713 788,-713"/>
<text text-anchor="middle" x="818" y="-720" style="font-family:Arial;font-size:10.00;">LogPrint</text>
</a>
</g>
<!-- Node1&#45;&gt;Node2 -->
<g id="edge2" class="edge"><title>Node1&#45;&gt;Node2</title>
<path style="fill:none;stroke:midnightblue;" d="M109,-575C163,-507 463,-149 672,-299 743,-349 799,-623 814,-703"/>
<polygon style="fill:midnightblue;stroke:midnightblue;" points="810.607,-703.881 816,-713 817.471,-702.508 810.607,-703.881"/>
</g>
<!-- Node3 -->
<g id="node5" class="node"><title>Node3</title>
<a xlink:href="class_client_manager.html#a6d544b4d20cd3b906b6a033c8d70e4a5" target="_top" xlink:title="Processes an asynchronous client connection request. ">
<polygon style="fill:white;stroke:black;" points="249,-569 249,-603 423,-603 423,-569 249,-569"/>
<text text-anchor="start" x="257" y="-589" style="font-family:Arial;font-size:10.00;">ClientManager::ProcessClient</text>
<text text-anchor="middle" x="336" y="-576" style="font-family:Arial;font-size:10.00;">ConnectionRequest</text>
</a>
</g>
<!-- Node1&#45;&gt;Node3 -->
<g id="edge4" class="edge"><title>Node1&#45;&gt;Node3</title>
<path style="fill:none;stroke:midnightblue;" d="M200,-586C213,-586 226,-586 239,-586"/>
<polygon style="fill:midnightblue;stroke:midnightblue;" points="239,-589.5 249,-586 239,-582.5 239,-589.5"/>
</g>
<!-- Node16 -->
<g id="node34" class="node"><title>Node16</title>
<a xlink:href="class_client_manager.html#a1dd815fe845945ae8966b3a3f449ba0e" target="_top" xlink:title="Processes the consumption information. ">
<polygon style="fill:white;stroke:black;" points="236,-174 236,-195 436,-195 436,-174 236,-174"/>
<text text-anchor="middle" x="336" y="-181" style="font-family:Arial;font-size:10.00;">ClientManager::ProcessClientData</text>
</a>
</g>
<!-- Node1&#45;&gt;Node16 -->
<g id="edge36" class="edge"><title>Node1&#45;&gt;Node16</title>
<path style="fill:none;stroke:midnightblue;" d="M103,-575C113,-531 156,-371 236,-266 257,-239 288,-215 310,-201"/>
<polygon style="fill:midnightblue;stroke:midnightblue;" points="312.621,-203.459 319,-195 308.738,-197.635 312.621,-203.459"/>
</g>
<!-- Node22 -->
<g id="node51" class="node"><title>Node22</title>
<a xlink:href="class_client_manager.html#a841299387a1dcd268266a3c0cfe2a95c" target="_top" xlink:title="Processes the price signal request. ">
<polygon style="fill:white;stroke:black;" points="256,-828 256,-862 417,-862 417,-828 256,-828"/>
<text text-anchor="start" x="264" y="-848" style="font-family:Arial;font-size:10.00;">ClientManager::ProcessGet</text>
<text text-anchor="middle" x="336" y="-835" style="font-family:Arial;font-size:10.00;">Price</text>
</a>
</g>
<!-- Node1&#45;&gt;Node22 -->
<g id="edge58" class="edge"><title>Node1&#45;&gt;Node22</title>
<path style="fill:none;stroke:midnightblue;" d="M109,-596C143,-633 263,-765 313,-820"/>
<polygon style="fill:midnightblue;stroke:midnightblue;" points="310.781,-822.779 320,-828 316.049,-818.169 310.781,-822.779"/>
</g>
<!-- Node24 -->
<g id="node59" class="node"><title>Node24</title>
<a xlink:href="class_client_manager.html#ad8841acd386513f41ab0872c67593ff4" target="_top" xlink:title="Processes the demand negotiation response. ">
<polygon style="fill:white;stroke:black;" points="242,-975 242,-1009 431,-1009 431,-975 242,-975"/>
<text text-anchor="start" x="250" y="-995" style="font-family:Arial;font-size:10.00;">ClientManager::ProcessDemand</text>
<text text-anchor="middle" x="336" y="-982" style="font-family:Arial;font-size:10.00;">Negotiation</text>
</a>
</g>
<!-- Node1&#45;&gt;Node24 -->
<g id="edge70" class="edge"><title>Node1&#45;&gt;Node24</title>
<path style="fill:none;stroke:midnightblue;" d="M104,-596C118,-634 172,-769 236,-871 259,-906 292,-943 313,-967"/>
<polygon style="fill:midnightblue;stroke:midnightblue;" points="310.781,-969.779 320,-975 316.049,-965.169 310.781,-969.779"/>
</g>
<!-- Node3&#45;&gt;Node2 -->
<g id="edge6" class="edge"><title>Node3&#45;&gt;Node2</title>
<path style="fill:none;stroke:midnightblue;" d="M344,-603C362,-638 408,-716 472,-747 576,-795 716,-759 781,-737"/>
<polygon style="fill:midnightblue;stroke:midnightblue;" points="782.427,-740.226 791,-734 780.416,-733.521 782.427,-740.226"/>
</g>
<!-- Node4 -->
<g id="node8" class="node"><title>Node4</title>
<a xlink:href="_matlab_manager_8cpp.html#adf11a697c41ba15207a66f8d2b567b75" target="_top" xlink:title="GetMatlabManager">
<polygon style="fill:white;stroke:black;" points="512,-447 512,-468 632,-468 632,-447 512,-447"/>
<text text-anchor="middle" x="572" y="-454" style="font-family:Arial;font-size:10.00;">GetMatlabManager</text>
</a>
</g>
<!-- Node3&#45;&gt;Node4 -->
<g id="edge8" class="edge"><title>Node3&#45;&gt;Node4</title>
<path style="fill:none;stroke:midnightblue;" d="M352,-569C376,-544 423,-500 472,-477 482,-473 492,-469 502,-467"/>
<polygon style="fill:midnightblue;stroke:midnightblue;" points="502.881,-470.393 512,-465 501.508,-463.529 502.881,-470.393"/>
</g>
<!-- Node5 -->
<g id="node10" class="node"><title>Node5</title>
<a xlink:href="class_terra_swarm_1_1_asynchronous_1_1_client_connection_request.html#a06ce45d6a43bc6e92437a8f6deb5c09a" target="_top" xlink:title="TerraSwarm::Asynchronous\l::ClientConnectionRequest\l::GetClientName">
<polygon style="fill:white;stroke:black;" points="491,-383 491,-430 653,-430 653,-383 491,-383"/>
<text text-anchor="start" x="499" y="-416" style="font-family:Arial;font-size:10.00;">TerraSwarm::Asynchronous</text>
<text text-anchor="start" x="499" y="-403" style="font-family:Arial;font-size:10.00;">::ClientConnectionRequest</text>
<text text-anchor="middle" x="572" y="-390" style="font-family:Arial;font-size:10.00;">::GetClientName</text>
</a>
</g>
<!-- Node3&#45;&gt;Node5 -->
<g id="edge10" class="edge"><title>Node3&#45;&gt;Node5</title>
<path style="fill:none;stroke:midnightblue;" d="M347,-569C368,-538 416,-474 472,-439 475,-437 478,-435 482,-433"/>
<polygon style="fill:midnightblue;stroke:midnightblue;" points="483.283,-436.26 491,-429 480.44,-429.863 483.283,-436.26"/>
</g>
<!-- Node6 -->
<g id="node12" class="node"><title>Node6</title>
<a xlink:href="_control_manager_8cpp.html#a63bfd4667c9c70297f25ae5e5176818e" target="_top" xlink:title="Returns the only instance of ControlManager. ">
<polygon style="fill:white;stroke:black;" points="511,-921 511,-942 634,-942 634,-921 511,-921"/>
<text text-anchor="middle" x="572" y="-928" style="font-family:Arial;font-size:10.00;">GetControlManager</text>
</a>
</g>
<!-- Node3&#45;&gt;Node6 -->
<g id="edge12" class="edge"><title>Node3&#45;&gt;Node6</title>
<path style="fill:none;stroke:midnightblue;" d="M344,-603C361,-641 403,-737 436,-819 453,-860 438,-884 472,-913 480,-920 491,-924 501,-928"/>
<polygon style="fill:midnightblue;stroke:midnightblue;" points="500.508,-931.471 511,-930 501.881,-924.607 500.508,-931.471"/>
</g>
<!-- Node7 -->
<g id="node14" class="node"><title>Node7</title>
<a xlink:href="class_control_manager.html#a56df538a5380c9091123a5a8a5e0fe86" target="_top" xlink:title="ControlManager::Register\lClient">
<polygon style="fill:white;stroke:black;" points="495,-666 495,-700 649,-700 649,-666 495,-666"/>
<text text-anchor="start" x="503" y="-686" style="font-family:Arial;font-size:10.00;">ControlManager::Register</text>
<text text-anchor="middle" x="572" y="-673" style="font-family:Arial;font-size:10.00;">Client</text>
</a>
</g>
<!-- Node3&#45;&gt;Node7 -->
<g id="edge14" class="edge"><title>Node3&#45;&gt;Node7</title>
<path style="fill:none;stroke:midnightblue;" d="M364,-603C392,-619 434,-642 472,-657 478,-659 484,-661 489,-663"/>
<polygon style="fill:midnightblue;stroke:midnightblue;" points="488.416,-666.479 499,-666 490.427,-659.774 488.416,-666.479"/>
</g>
<!-- Node8 -->
<g id="node17" class="node"><title>Node8</title>
<a xlink:href="_log_print_8h.html#a46ea30a62534f8ce32cd39454e459b23" target="_top" xlink:title="WarningPrint">
<polygon style="fill:white;stroke:black;" points="776,-269 776,-290 861,-290 861,-269 776,-269"/>
<text text-anchor="middle" x="818" y="-276" style="font-family:Arial;font-size:10.00;">WarningPrint</text>
</a>
</g>
<!-- Node3&#45;&gt;Node8 -->
<g id="edge18" class="edge"><title>Node3&#45;&gt;Node8</title>
<path style="fill:none;stroke:midnightblue;" d="M342,-569C356,-528 399,-424 472,-375 548,-325 586,-362 672,-337 712,-325 758,-307 787,-294"/>
<polygon style="fill:midnightblue;stroke:midnightblue;" points="788.283,-297.26 796,-290 785.44,-290.863 788.283,-297.26"/>
</g>
<!-- Node9 -->
<g id="node19" class="node"><title>Node9</title>
<a xlink:href="_system_manager_8cpp.html#a97e64f74d188d41051488578800d20cd" target="_top" xlink:title="GetSystemManager">
<polygon style="fill:white;stroke:black;" points="511,-307 511,-328 634,-328 634,-307 511,-307"/>
<text text-anchor="middle" x="572" y="-314" style="font-family:Arial;font-size:10.00;">GetSystemManager</text>
</a>
</g>
<!-- Node3&#45;&gt;Node9 -->
<g id="edge20" class="edge"><title>Node3&#45;&gt;Node9</title>
<path style="fill:none;stroke:midnightblue;" d="M340,-569C353,-524 393,-402 472,-342 480,-336 491,-331 501,-328"/>
<polygon style="fill:midnightblue;stroke:midnightblue;" points="502.427,-331.226 511,-325 500.416,-324.521 502.427,-331.226"/>
</g>
<!-- Node10 -->
<g id="node21" class="node"><title>Node10</title>
<a xlink:href="class_system_manager.html#ab9f52e613fdbdc4690be79179b7357e6" target="_top" xlink:title="SystemManager::GetSystemMode">
<polygon style="fill:white;stroke:black;" points="473,-575 473,-596 672,-596 672,-575 473,-575"/>
<text text-anchor="middle" x="572" y="-582" style="font-family:Arial;font-size:10.00;">SystemManager::GetSystemMode</text>
</a>
</g>
<!-- Node3&#45;&gt;Node10 -->
<g id="edge22" class="edge"><title>Node3&#45;&gt;Node10</title>
<path style="fill:none;stroke:midnightblue;" d="M423,-586C436,-586 449,-586 463,-586"/>
<polygon style="fill:midnightblue;stroke:midnightblue;" points="463,-589.5 473,-586 463,-582.5 463,-589.5"/>
</g>
<!-- Node11 -->
<g id="node23" class="node"><title>Node11</title>
<a xlink:href="class_system_manager.html#aebfc7fab136f01836e07228474e4326f" target="_top" xlink:title="SystemManager::GetSystemTime">
<polygon style="fill:white;stroke:black;" points="474,-485 474,-506 671,-506 671,-485 474,-485"/>
<text text-anchor="middle" x="572" y="-492" style="font-family:Arial;font-size:10.00;">SystemManager::GetSystemTime</text>
</a>
</g>
<!-- Node3&#45;&gt;Node11 -->
<g id="edge24" class="edge"><title>Node3&#45;&gt;Node11</title>
<path style="fill:none;stroke:midnightblue;" d="M363,-569C390,-553 432,-529 472,-515 479,-512 486,-510 494,-508"/>
<polygon style="fill:midnightblue;stroke:midnightblue;" points="494.881,-511.393 504,-506 493.508,-504.529 494.881,-511.393"/>
</g>
<!-- Node12 -->
<g id="node25" class="node"><title>Node12</title>
<a xlink:href="_connection_manager_8cpp.html#ab88124ce7a3bf1d2892d0e9763d1af30" target="_top" xlink:title="GetConnectionManager">
<polygon style="fill:white;stroke:black;" points="499,-717 499,-738 645,-738 645,-717 499,-717"/>
<text text-anchor="middle" x="572" y="-724" style="font-family:Arial;font-size:10.00;">GetConnectionManager</text>
</a>
</g>
<!-- Node3&#45;&gt;Node12 -->
<g id="edge26" class="edge"><title>Node3&#45;&gt;Node12</title>
<path style="fill:none;stroke:midnightblue;" d="M350,-603C373,-630 420,-682 472,-709 477,-712 483,-714 489,-716"/>
<polygon style="fill:midnightblue;stroke:midnightblue;" points="488.416,-719.479 499,-719 490.427,-712.774 488.416,-719.479"/>
</g>
<!-- Node13 -->
<g id="node27" class="node"><title>Node13</title>
<a xlink:href="class_connection_manager.html#adf13721cde7ae4615aadbb5262f67274" target="_top" xlink:title="ConnectionManager::\lGetNumberOfClients">
<polygon style="fill:white;stroke:black;" points="506,-614 506,-648 639,-648 639,-614 506,-614"/>
<text text-anchor="start" x="514" y="-634" style="font-family:Arial;font-size:10.00;">ConnectionManager::</text>
<text text-anchor="middle" x="572" y="-621" style="font-family:Arial;font-size:10.00;">GetNumberOfClients</text>
</a>
</g>
<!-- Node3&#45;&gt;Node13 -->
<g id="edge28" class="edge"><title>Node3&#45;&gt;Node13</title>
<path style="fill:none;stroke:midnightblue;" d="M423,-603C447,-607 473,-612 496,-616"/>
<polygon style="fill:midnightblue;stroke:midnightblue;" points="495.508,-619.471 506,-618 496.881,-612.607 495.508,-619.471"/>
</g>
<!-- Node14 -->
<g id="node29" class="node"><title>Node14</title>
<a xlink:href="class_t_c_p_connected_client.html#a7c3a1d1172f3880b48d35ffbf255712d" target="_top" xlink:title="TCPConnectedClient\l::SendData">
<polygon style="fill:white;stroke:black;" points="754,-870 754,-904 883,-904 883,-870 754,-870"/>
<text text-anchor="start" x="762" y="-890" style="font-family:Arial;font-size:10.00;">TCPConnectedClient</text>
<text text-anchor="middle" x="818" y="-877" style="font-family:Arial;font-size:10.00;">::SendData</text>
</a>
</g>
<!-- Node3&#45;&gt;Node14 -->
<g id="edge30" class="edge"><title>Node3&#45;&gt;Node14</title>
<path style="fill:none;stroke:midnightblue;" d="M344,-603C362,-639 409,-725 472,-772 554,-831 669,-861 744,-876"/>
<polygon style="fill:midnightblue;stroke:midnightblue;" points="743.508,-879.471 754,-878 744.881,-872.607 743.508,-879.471"/>
</g>
<!-- Node15 -->
<g id="node31" class="node"><title>Node15</title>
<a xlink:href="class_connection_manager.html#afc67553cf1eff6ab251a5dd2a313e863" target="_top" xlink:title="ConnectionManager::\lDeleteClient">
<polygon style="fill:white;stroke:black;" points="506,-524 506,-558 639,-558 639,-524 506,-524"/>
<text text-anchor="start" x="514" y="-544" style="font-family:Arial;font-size:10.00;">ConnectionManager::</text>
<text text-anchor="middle" x="572" y="-531" style="font-family:Arial;font-size:10.00;">DeleteClient</text>
</a>
</g>
<!-- Node3&#45;&gt;Node15 -->
<g id="edge32" class="edge"><title>Node3&#45;&gt;Node15</title>
<path style="fill:none;stroke:midnightblue;" d="M423,-569C447,-565 473,-560 496,-556"/>
<polygon style="fill:midnightblue;stroke:midnightblue;" points="496.881,-559.393 506,-554 495.508,-552.529 496.881,-559.393"/>
</g>
<!-- Node7&#45;&gt;Node2 -->
<g id="edge16" class="edge"><title>Node7&#45;&gt;Node2</title>
<path style="fill:none;stroke:midnightblue;" d="M649,-696C692,-703 743,-711 778,-717"/>
<polygon style="fill:midnightblue;stroke:midnightblue;" points="777.508,-720.471 788,-719 778.881,-713.607 777.508,-720.471"/>
</g>
<!-- Node15&#45;&gt;Node2 -->
<g id="edge34" class="edge"><title>Node15&#45;&gt;Node2</title>
<path style="fill:none;stroke:midnightblue;" d="M639,-553C651,-556 662,-561 672,-567 732,-603 783,-671 805,-704"/>
<polygon style="fill:midnightblue;stroke:midnightblue;" points="802.541,-706.621 811,-713 808.365,-702.738 802.541,-706.621"/>
</g>
<!-- Node16&#45;&gt;Node2 -->
<g id="edge38" class="edge"><title>Node16&#45;&gt;Node2</title>
<path style="fill:none;stroke:midnightblue;" d="M370,-195C398,-203 437,-214 472,-223 561,-245 605,-205 672,-266 741,-328 799,-622 814,-703"/>
<polygon style="fill:midnightblue;stroke:midnightblue;" points="810.607,-703.881 816,-713 817.471,-702.508 810.607,-703.881"/>
</g>
<!-- Node16&#45;&gt;Node9 -->
<g id="edge46" class="edge"><title>Node16&#45;&gt;Node9</title>
<path style="fill:none;stroke:midnightblue;" d="M354,-195C394,-218 494,-275 543,-302"/>
<polygon style="fill:midnightblue;stroke:midnightblue;" points="541.559,-305.203 552,-307 544.958,-299.084 541.559,-305.203"/>
</g>
<!-- Node17 -->
<g id="node37" class="node"><title>Node17</title>
<a xlink:href="class_terra_swarm_1_1_asynchronous_1_1_client_data.html#af78cac737c5197ad17205bab73421b60" target="_top" xlink:title="TerraSwarm::Asynchronous\l::ClientData::GetStartTime">
<polygon style="fill:white;stroke:black;" points="491,-52 491,-86 653,-86 653,-52 491,-52"/>
<text text-anchor="start" x="499" y="-72" style="font-family:Arial;font-size:10.00;">TerraSwarm::Asynchronous</text>
<text text-anchor="middle" x="572" y="-59" style="font-family:Arial;font-size:10.00;">::ClientData::GetStartTime</text>
</a>
</g>
<!-- Node16&#45;&gt;Node17 -->
<g id="edge40" class="edge"><title>Node16&#45;&gt;Node17</title>
<path style="fill:none;stroke:midnightblue;" d="M349,-174C373,-155 424,-117 472,-95 477,-93 482,-91 487,-89"/>
<polygon style="fill:midnightblue;stroke:midnightblue;" points="488.427,-92.2259 497,-86 486.416,-85.5212 488.427,-92.2259"/>
</g>
<!-- Node18 -->
<g id="node39" class="node"><title>Node18</title>
<a xlink:href="class_terra_swarm_1_1_asynchronous_1_1_client_data.html#a6e3ca8aab58e0b40867eee3e3ec281e6" target="_top" xlink:title="TerraSwarm::Asynchronous\l::ClientData::GetTimeResolution">
<polygon style="fill:white;stroke:black;" points="477,-0 477,-34 667,-34 667,-0 477,-0"/>
<text text-anchor="start" x="485" y="-20" style="font-family:Arial;font-size:10.00;">TerraSwarm::Asynchronous</text>
<text text-anchor="middle" x="572" y="-7" style="font-family:Arial;font-size:10.00;">::ClientData::GetTimeResolution</text>
</a>
</g>
<!-- Node16&#45;&gt;Node18 -->
<g id="edge42" class="edge"><title>Node16&#45;&gt;Node18</title>
<path style="fill:none;stroke:midnightblue;" d="M343,-174C362,-147 413,-79 472,-43 475,-41 478,-40 482,-38"/>
<polygon style="fill:midnightblue;stroke:midnightblue;" points="483.283,-41.2598 491,-34 480.44,-34.8631 483.283,-41.2598"/>
</g>
<!-- Node19 -->
<g id="node41" class="node"><title>Node19</title>
<a xlink:href="class_terra_swarm_1_1_asynchronous_1_1_client_data.html#aba73075c35dd912dad8f99dd026b0785" target="_top" xlink:title="TerraSwarm::Asynchronous\l::ClientData::GetNumberOfDataPoints">
<polygon style="fill:white;stroke:black;" points="708,-123 708,-157 928,-157 928,-123 708,-123"/>
<text text-anchor="start" x="716" y="-143" style="font-family:Arial;font-size:10.00;">TerraSwarm::Asynchronous</text>
<text text-anchor="middle" x="818" y="-130" style="font-family:Arial;font-size:10.00;">::ClientData::GetNumberOfDataPoints</text>
</a>
</g>
<!-- Node16&#45;&gt;Node19 -->
<g id="edge44" class="edge"><title>Node16&#45;&gt;Node19</title>
<path style="fill:none;stroke:midnightblue;" d="M436,-176C512,-168 617,-159 698,-151"/>
<polygon style="fill:midnightblue;stroke:midnightblue;" points="698.398,-154.478 708,-150 697.701,-147.512 698.398,-154.478"/>
</g>
<!-- Node20 -->
<g id="node44" class="node"><title>Node20</title>
<a xlink:href="class_system_manager.html#abaf36dbd2e75a773f2ddc40ac82e5f3b" target="_top" xlink:title="SystemManager::RegisterData">
<polygon style="fill:white;stroke:black;" points="482,-193 482,-214 662,-214 662,-193 482,-193"/>
<text text-anchor="middle" x="572" y="-200" style="font-family:Arial;font-size:10.00;">SystemManager::RegisterData</text>
</a>
</g>
<!-- Node16&#45;&gt;Node20 -->
<g id="edge48" class="edge"><title>Node16&#45;&gt;Node20</title>
<path style="fill:none;stroke:midnightblue;" d="M436,-193C448,-194 460,-195 472,-196"/>
<polygon style="fill:midnightblue;stroke:midnightblue;" points="471.701,-199.488 482,-197 472.398,-192.522 471.701,-199.488"/>
</g>
<!-- Node21 -->
<g id="node48" class="node"><title>Node21</title>
<a xlink:href="class_terra_swarm_1_1_asynchronous_1_1_client_data.html#a72ed5a08a0bbe088b3b6f4d79cdbab2d" target="_top" xlink:title="TerraSwarm::Asynchronous\l::ClientData::GetDataPoints">
<polygon style="fill:white;stroke:black;" points="491,-104 491,-138 654,-138 654,-104 491,-104"/>
<text text-anchor="start" x="499" y="-124" style="font-family:Arial;font-size:10.00;">TerraSwarm::Asynchronous</text>
<text text-anchor="middle" x="572" y="-111" style="font-family:Arial;font-size:10.00;">::ClientData::GetDataPoints</text>
</a>
</g>
<!-- Node16&#45;&gt;Node21 -->
<g id="edge54" class="edge"><title>Node16&#45;&gt;Node21</title>
<path style="fill:none;stroke:midnightblue;" d="M377,-174C410,-165 459,-152 499,-141"/>
<polygon style="fill:midnightblue;stroke:midnightblue;" points="500.427,-144.226 509,-138 498.416,-137.521 500.427,-144.226"/>
</g>
<!-- Node20&#45;&gt;Node2 -->
<g id="edge50" class="edge"><title>Node20&#45;&gt;Node2</title>
<path style="fill:none;stroke:midnightblue;" d="M650,-214C658,-218 666,-222 672,-228 708,-263 792,-612 813,-703"/>
<polygon style="fill:midnightblue;stroke:midnightblue;" points="809.607,-703.881 815,-713 816.471,-702.508 809.607,-703.881"/>
</g>
<!-- Node20&#45;&gt;Node8 -->
<g id="edge52" class="edge"><title>Node20&#45;&gt;Node8</title>
<path style="fill:none;stroke:midnightblue;" d="M619,-214C636,-218 655,-223 672,-228 710,-240 752,-255 781,-265"/>
<polygon style="fill:midnightblue;stroke:midnightblue;" points="779.44,-268.137 790,-269 782.283,-261.74 779.44,-268.137"/>
</g>
<!-- Node21&#45;&gt;Node19 -->
<g id="edge56" class="edge"><title>Node21&#45;&gt;Node19</title>
<path style="fill:none;stroke:midnightblue;" d="M654,-127C668,-128 683,-129 698,-130"/>
<polygon style="fill:midnightblue;stroke:midnightblue;" points="697.701,-133.488 708,-131 698.398,-126.522 697.701,-133.488"/>
</g>
<!-- Node22&#45;&gt;Node2 -->
<g id="edge60" class="edge"><title>Node22&#45;&gt;Node2</title>
<path style="fill:none;stroke:midnightblue;" d="M417,-833C486,-822 586,-804 672,-780 712,-768 757,-750 785,-738"/>
<polygon style="fill:midnightblue;stroke:midnightblue;" points="787.015,-740.964 795,-734 784.415,-734.464 787.015,-740.964"/>
</g>
<!-- Node22&#45;&gt;Node6 -->
<g id="edge62" class="edge"><title>Node22&#45;&gt;Node6</title>
<path style="fill:none;stroke:midnightblue;" d="M364,-862C391,-877 433,-900 472,-913 481,-916 491,-918 501,-921"/>
<polygon style="fill:midnightblue;stroke:midnightblue;" points="500.508,-924.471 511,-923 501.881,-917.607 500.508,-924.471"/>
</g>
<!-- Node23 -->
<g id="node55" class="node"><title>Node23</title>
<a xlink:href="class_control_manager.html#aa4398a05586d9b711aa6101334deefe1" target="_top" xlink:title="ControlManager::ClientPrice\lRequest">
<polygon style="fill:white;stroke:black;" points="488,-870 488,-904 656,-904 656,-870 488,-870"/>
<text text-anchor="start" x="496" y="-890" style="font-family:Arial;font-size:10.00;">ControlManager::ClientPrice</text>
<text text-anchor="middle" x="572" y="-877" style="font-family:Arial;font-size:10.00;">Request</text>
</a>
</g>
<!-- Node22&#45;&gt;Node23 -->
<g id="edge64" class="edge"><title>Node22&#45;&gt;Node23</title>
<path style="fill:none;stroke:midnightblue;" d="M417,-859C437,-862 458,-867 478,-870"/>
<polygon style="fill:midnightblue;stroke:midnightblue;" points="477.508,-873.471 488,-872 478.881,-866.607 477.508,-873.471"/>
</g>
<!-- Node23&#45;&gt;Node2 -->
<g id="edge66" class="edge"><title>Node23&#45;&gt;Node2</title>
<path style="fill:none;stroke:midnightblue;" d="M598,-870C646,-838 748,-770 795,-740"/>
<polygon style="fill:midnightblue;stroke:midnightblue;" points="797.1,-742.8 803,-734 792.9,-737.2 797.1,-742.8"/>
</g>
<!-- Node23&#45;&gt;Node14 -->
<g id="edge68" class="edge"><title>Node23&#45;&gt;Node14</title>
<path style="fill:none;stroke:midnightblue;" d="M656,-887C684,-887 716,-887 744,-887"/>
<polygon style="fill:midnightblue;stroke:midnightblue;" points="744,-890.5 754,-887 744,-883.5 744,-890.5"/>
</g>
<!-- Node24&#45;&gt;Node2 -->
<g id="edge72" class="edge"><title>Node24&#45;&gt;Node2</title>
<path style="fill:none;stroke:midnightblue;" d="M431,-985C524,-978 654,-965 672,-951 707,-924 687,-898 708,-861 736,-814 778,-766 801,-741"/>
<polygon style="fill:midnightblue;stroke:midnightblue;" points="803.404,-743.546 808,-734 798.454,-738.596 803.404,-743.546"/>
</g>
<!-- Node24&#45;&gt;Node6 -->
<g id="edge74" class="edge"><title>Node24&#45;&gt;Node6</title>
<path style="fill:none;stroke:midnightblue;" d="M399,-975C422,-969 448,-962 472,-956 487,-952 503,-948 518,-944"/>
<polygon style="fill:midnightblue;stroke:midnightblue;" points="518.881,-947.393 528,-942 517.508,-940.529 518.881,-947.393"/>
</g>
<!-- Node25 -->
<g id="node63" class="node"><title>Node25</title>
<a xlink:href="class_control_manager.html#a5b551f560431d0bb0bcf6c338bac8eb3" target="_top" xlink:title="ControlManager::ClientDemand\lNegotiation">
<polygon style="fill:white;stroke:black;" points="478,-998 478,-1032 667,-1032 667,-998 478,-998"/>
<text text-anchor="start" x="486" y="-1018" style="font-family:Arial;font-size:10.00;">ControlManager::ClientDemand</text>
<text text-anchor="middle" x="572" y="-1005" style="font-family:Arial;font-size:10.00;">Negotiation</text>
</a>
</g>
<!-- Node24&#45;&gt;Node25 -->
<g id="edge76" class="edge"><title>Node24&#45;&gt;Node25</title>
<path style="fill:none;stroke:midnightblue;" d="M431,-1001C443,-1003 455,-1004 468,-1005"/>
<polygon style="fill:midnightblue;stroke:midnightblue;" points="467.701,-1008.49 478,-1006 468.398,-1001.52 467.701,-1008.49"/>
</g>
<!-- Node26 -->
<g id="node67" class="node"><title>Node26</title>
<a xlink:href="class_terra_swarm_1_1_synchronous_1_1_demand_negotiation.html#af0694c36ab00a1dadf8bb8f1b3c7c159" target="_top" xlink:title="TerraSwarm::Synchronous\l::DemandNegotiation::GetNumber\lOfDataPoints">
<polygon style="fill:white;stroke:black;" points="717,-1061 717,-1108 919,-1108 919,-1061 717,-1061"/>
<text text-anchor="start" x="725" y="-1094" style="font-family:Arial;font-size:10.00;">TerraSwarm::Synchronous</text>
<text text-anchor="start" x="725" y="-1081" style="font-family:Arial;font-size:10.00;">::DemandNegotiation::GetNumber</text>
<text text-anchor="middle" x="818" y="-1068" style="font-family:Arial;font-size:10.00;">OfDataPoints</text>
</a>
</g>
<!-- Node24&#45;&gt;Node26 -->
<g id="edge82" class="edge"><title>Node24&#45;&gt;Node26</title>
<path style="fill:none;stroke:midnightblue;" d="M377,-1009C404,-1020 440,-1033 472,-1041 549,-1059 638,-1071 707,-1077"/>
<polygon style="fill:midnightblue;stroke:midnightblue;" points="706.701,-1080.49 717,-1078 707.398,-1073.52 706.701,-1080.49"/>
</g>
<!-- Node27 -->
<g id="node69" class="node"><title>Node27</title>
<a xlink:href="class_terra_swarm_1_1_synchronous_1_1_demand_negotiation.html#ab99ce665f0822299184ff34cf5e674d2" target="_top" xlink:title="TerraSwarm::Synchronous\l::DemandNegotiation::GetData\lPoints">
<polygon style="fill:white;stroke:black;" points="480,-1087 480,-1134 664,-1134 664,-1087 480,-1087"/>
<text text-anchor="start" x="488" y="-1120" style="font-family:Arial;font-size:10.00;">TerraSwarm::Synchronous</text>
<text text-anchor="start" x="488" y="-1107" style="font-family:Arial;font-size:10.00;">::DemandNegotiation::GetData</text>
<text text-anchor="middle" x="572" y="-1094" style="font-family:Arial;font-size:10.00;">Points</text>
</a>
</g>
<!-- Node24&#45;&gt;Node27 -->
<g id="edge84" class="edge"><title>Node24&#45;&gt;Node27</title>
<path style="fill:none;stroke:midnightblue;" d="M361,-1009C388,-1027 432,-1054 472,-1074 479,-1078 486,-1081 493,-1083"/>
<polygon style="fill:midnightblue;stroke:midnightblue;" points="492.415,-1086.54 503,-1087 495.015,-1080.04 492.415,-1086.54"/>
</g>
<!-- Node25&#45;&gt;Node2 -->
<g id="edge78" class="edge"><title>Node25&#45;&gt;Node2</title>
<path style="fill:none;stroke:midnightblue;" d="M653,-998C660,-994 667,-990 672,-984 712,-943 682,-911 708,-861 733,-812 776,-766 800,-741"/>
<polygon style="fill:midnightblue;stroke:midnightblue;" points="802.404,-743.546 807,-734 797.454,-738.596 802.404,-743.546"/>
</g>
<!-- Node25&#45;&gt;Node14 -->
<g id="edge80" class="edge"><title>Node25&#45;&gt;Node14</title>
<path style="fill:none;stroke:midnightblue;" d="M635,-998C648,-994 661,-989 672,-984 716,-963 760,-931 789,-910"/>
<polygon style="fill:midnightblue;stroke:midnightblue;" points="791.1,-912.8 797,-904 786.9,-907.2 791.1,-912.8"/>
</g>
<!-- Node27&#45;&gt;Node26 -->
<g id="edge86" class="edge"><title>Node27&#45;&gt;Node26</title>
<path style="fill:none;stroke:midnightblue;" d="M664,-1101C678,-1099 692,-1098 707,-1097"/>
<polygon style="fill:midnightblue;stroke:midnightblue;" points="707.398,-1100.48 717,-1096 706.701,-1093.51 707.398,-1100.48"/>
</g>
</g>
</svg>
