<?xml version="1.0" encoding="UTF-8" standalone="no"?>
<!DOCTYPE svg PUBLIC "-//W3C//DTD SVG 1.0//EN"
 "http://www.w3.org/TR/2001/REC-SVG-20010904/DTD/svg10.dtd" [
 <!ATTLIST svg xmlns:xlink CDATA #FIXED "http://www.w3.org/1999/xlink">
]>
<!-- Generated by Graphviz version 2.14.1 (Fri Nov  9 08:19:38 GMT 2007)
     For user: (asakyurek) Alper Sinan Akyurek -->
<!-- Title: SystemManager::RegisterData Pages: 1 -->
<svg width="660pt" height="28pt"
 viewBox="0.00 0.00 660.00 28.00" xmlns="http://www.w3.org/2000/svg" xmlns:xlink="http://www.w3.org/1999/xlink">
<g id="graph0" class="graph" transform="scale(1 1) rotate(0) translate(4 24)">
<title>SystemManager::RegisterData</title>
<polygon style="fill:white;stroke:white;" points="-4,4 -4,-24 656,-24 656,4 -4,4"/>
<!-- Node1 -->
<g id="node1" class="node"><title>Node1</title>
<polygon style="fill:#bfbfbf;stroke:black;" points="0,1 0,-20 180,-20 180,1 0,1"/>
<text text-anchor="middle" x="90" y="-6" style="font-family:Arial;font-size:10.00;">SystemManager::RegisterData</text>
</g>
<!-- Node2 -->
<g id="node3" class="node"><title>Node2</title>
<a xlink:href="class_client_manager.html#a1dd815fe845945ae8966b3a3f449ba0e" target="_top" xlink:title="Processes the consumption information. ">
<polygon style="fill:white;stroke:black;" points="216,1 216,-20 416,-20 416,1 216,1"/>
<text text-anchor="middle" x="316" y="-6" style="font-family:Arial;font-size:10.00;">ClientManager::ProcessClientData</text>
</a>
</g>
<!-- Node1&#45;&gt;Node2 -->
<g id="edge2" class="edge"><title>Node1&#45;&gt;Node2</title>
<path style="fill:none;stroke:midnightblue;" d="M190,-10C199,-10 207,-10 216,-10"/>
<polygon style="fill:midnightblue;stroke:midnightblue;" points="190,-6.5001 180,-10 190,-13.5001 190,-6.5001"/>
</g>
<!-- Node3 -->
<g id="node5" class="node"><title>Node3</title>
<a xlink:href="class_client_manager.html#abf05d2ac88337dfd02e0b7986ee1e18c" target="_top" xlink:title="Called when a message is received. ">
<polygon style="fill:white;stroke:black;" points="453,1 453,-20 652,-20 652,1 453,1"/>
<text text-anchor="middle" x="552" y="-6" style="font-family:Arial;font-size:10.00;">ClientManager::MessageReceived</text>
</a>
</g>
<!-- Node2&#45;&gt;Node3 -->
<g id="edge4" class="edge"><title>Node2&#45;&gt;Node3</title>
<path style="fill:none;stroke:midnightblue;" d="M426,-10C435,-10 444,-10 453,-10"/>
<polygon style="fill:midnightblue;stroke:midnightblue;" points="426,-6.5001 416,-10 426,-13.5001 426,-6.5001"/>
</g>
</g>
</svg>
