<?xml version="1.0" encoding="UTF-8" standalone="no"?>
<!DOCTYPE svg PUBLIC "-//W3C//DTD SVG 1.0//EN"
 "http://www.w3.org/TR/2001/REC-SVG-20010904/DTD/svg10.dtd" [
 <!ATTLIST svg xmlns:xlink CDATA #FIXED "http://www.w3.org/1999/xlink">
]>
<!-- Generated by Graphviz version 2.14.1 (Fri Nov  9 08:19:38 GMT 2007)
     For user: (asakyurek) Alper Sinan Akyurek -->
<!-- Title: TerraSwarm::MessageHeader::GetDataSize Pages: 1 -->
<svg width="384pt" height="94pt"
 viewBox="0.00 0.00 384.00 94.00" xmlns="http://www.w3.org/2000/svg" xmlns:xlink="http://www.w3.org/1999/xlink">
<g id="graph0" class="graph" transform="scale(1 1) rotate(0) translate(4 90)">
<title>TerraSwarm::MessageHeader::GetDataSize</title>
<polygon style="fill:white;stroke:white;" points="-4,4 -4,-90 380,-90 380,4 -4,4"/>
<!-- Node1 -->
<g id="node1" class="node"><title>Node1</title>
<polygon style="fill:#bfbfbf;stroke:black;" points="0,-26 0,-60 174,-60 174,-26 0,-26"/>
<text text-anchor="start" x="8" y="-46" style="font-family:Arial;font-size:10.00;">TerraSwarm::MessageHeader</text>
<text text-anchor="middle" x="87" y="-33" style="font-family:Arial;font-size:10.00;">::GetDataSize</text>
</g>
<!-- Node2 -->
<g id="node3" class="node"><title>Node2</title>
<a xlink:href="class_terra_swarm_1_1_message_ender.html#af69030fc95ad65634ce03e0edb5f3bdd" target="_top" xlink:title="Sets the EOM field to its value. ">
<polygon style="fill:white;stroke:black;" points="211,-52 211,-86 376,-86 376,-52 211,-52"/>
<text text-anchor="start" x="219" y="-72" style="font-family:Arial;font-size:10.00;">TerraSwarm::MessageEnder</text>
<text text-anchor="middle" x="293" y="-59" style="font-family:Arial;font-size:10.00;">::SetEndOfMessageField</text>
</a>
</g>
<!-- Node1&#45;&gt;Node2 -->
<g id="edge2" class="edge"><title>Node1&#45;&gt;Node2</title>
<path style="fill:none;stroke:midnightblue;" d="M184,-55C193,-57 202,-58 211,-59"/>
<polygon style="fill:midnightblue;stroke:midnightblue;" points="184.299,-51.5125 174,-54 183.602,-58.4778 184.299,-51.5125"/>
</g>
<!-- Node3 -->
<g id="node5" class="node"><title>Node3</title>
<a xlink:href="class_terra_swarm_1_1_message_ender.html#abc51a9a7a6fb91254ce5cc2ea8edf5bb" target="_top" xlink:title="Checks the EOM field for the correct value. ">
<polygon style="fill:white;stroke:black;" points="211,-0 211,-34 376,-34 376,-0 211,-0"/>
<text text-anchor="start" x="219" y="-20" style="font-family:Arial;font-size:10.00;">TerraSwarm::MessageEnder</text>
<text text-anchor="middle" x="293" y="-7" style="font-family:Arial;font-size:10.00;">::CheckEndOfMessageField</text>
</a>
</g>
<!-- Node1&#45;&gt;Node3 -->
<g id="edge4" class="edge"><title>Node1&#45;&gt;Node3</title>
<path style="fill:none;stroke:midnightblue;" d="M184,-31C193,-29 202,-28 211,-27"/>
<polygon style="fill:midnightblue;stroke:midnightblue;" points="183.602,-27.5222 174,-32 184.299,-34.4875 183.602,-27.5222"/>
</g>
</g>
</svg>
