<?xml version="1.0" encoding="UTF-8" standalone="no"?>
<!DOCTYPE svg PUBLIC "-//W3C//DTD SVG 1.0//EN"
 "http://www.w3.org/TR/2001/REC-SVG-20010904/DTD/svg10.dtd" [
 <!ATTLIST svg xmlns:xlink CDATA #FIXED "http://www.w3.org/1999/xlink">
]>
<!-- Generated by Graphviz version 2.14.1 (Fri Nov  9 08:19:38 GMT 2007)
     For user: (asakyurek) Alper Sinan Akyurek -->
<!-- Title: IPAddress::SetPort Pages: 1 -->
<svg width="510pt" height="118pt"
 viewBox="0.00 0.00 510.00 118.00" xmlns="http://www.w3.org/2000/svg" xmlns:xlink="http://www.w3.org/1999/xlink">
<g id="graph0" class="graph" transform="scale(1 1) rotate(0) translate(4 114)">
<title>IPAddress::SetPort</title>
<polygon style="fill:white;stroke:white;" points="-4,4 -4,-114 506,-114 506,4 -4,4"/>
<!-- Node1 -->
<g id="node1" class="node"><title>Node1</title>
<polygon style="fill:#bfbfbf;stroke:black;" points="0,-18 0,-39 112,-39 112,-18 0,-18"/>
<text text-anchor="middle" x="56" y="-25" style="font-family:Arial;font-size:10.00;">IPAddress::SetPort</text>
</g>
<!-- Node2 -->
<g id="node3" class="node"><title>Node2</title>
<a xlink:href="class_t_c_p_server.html#a8d5ad30ba42960a84973b57f74a853fa" target="_top" xlink:title="Sets the listening port of the server. ">
<polygon style="fill:white;stroke:black;" points="150,-37 150,-58 267,-58 267,-37 150,-37"/>
<text text-anchor="middle" x="208" y="-44" style="font-family:Arial;font-size:10.00;">TCPServer::SetPort</text>
</a>
</g>
<!-- Node1&#45;&gt;Node2 -->
<g id="edge2" class="edge"><title>Node1&#45;&gt;Node2</title>
<path style="fill:none;stroke:midnightblue;" d="M122,-37C131,-38 141,-40 150,-41"/>
<polygon style="fill:midnightblue;stroke:midnightblue;" points="122.299,-33.5125 112,-36 121.602,-40.4778 122.299,-33.5125"/>
</g>
<!-- Node6 -->
<g id="node11" class="node"><title>Node6</title>
<a xlink:href="class_u_d_p_socket.html#a13165df1eb017e8ba2eba43a06a083ec" target="_top" xlink:title="Sets the port of the UDP Socket. ">
<polygon style="fill:white;stroke:black;" points="148,1 148,-20 268,-20 268,1 148,1"/>
<text text-anchor="middle" x="208" y="-6" style="font-family:Arial;font-size:10.00;">UDPSocket::SetPort</text>
</a>
</g>
<!-- Node1&#45;&gt;Node6 -->
<g id="edge10" class="edge"><title>Node1&#45;&gt;Node6</title>
<path style="fill:none;stroke:midnightblue;" d="M122,-21C131,-20 139,-19 148,-18"/>
<polygon style="fill:midnightblue;stroke:midnightblue;" points="121.602,-17.5222 112,-22 122.299,-24.4875 121.602,-17.5222"/>
</g>
<!-- Node3 -->
<g id="node5" class="node"><title>Node3</title>
<a xlink:href="class_connection_manager.html#a7928f3e95b4e88b01c11eaf3e8089ee7" target="_top" xlink:title="Private constructor for singleton implementation. ">
<polygon style="fill:white;stroke:black;" points="337,-76 337,-110 470,-110 470,-76 337,-76"/>
<text text-anchor="start" x="345" y="-96" style="font-family:Arial;font-size:10.00;">ConnectionManager::</text>
<text text-anchor="middle" x="403" y="-83" style="font-family:Arial;font-size:10.00;">ConnectionManager</text>
</a>
</g>
<!-- Node2&#45;&gt;Node3 -->
<g id="edge4" class="edge"><title>Node2&#45;&gt;Node3</title>
<path style="fill:none;stroke:midnightblue;" d="M262,-60C285,-66 313,-72 337,-78"/>
<polygon style="fill:midnightblue;stroke:midnightblue;" points="262.492,-56.5292 252,-58 261.119,-63.3933 262.492,-56.5292"/>
</g>
<!-- Node4 -->
<g id="node7" class="node"><title>Node4</title>
<a xlink:href="class_control_manager.html#ab81bac3e592705b7ca4b23ce473fe26e" target="_top" xlink:title="Private constructor for singleton implementation. ">
<polygon style="fill:white;stroke:black;" points="304,-37 304,-58 502,-58 502,-37 304,-37"/>
<text text-anchor="middle" x="403" y="-44" style="font-family:Arial;font-size:10.00;">ControlManager::ControlManager</text>
</a>
</g>
<!-- Node2&#45;&gt;Node4 -->
<g id="edge6" class="edge"><title>Node2&#45;&gt;Node4</title>
<path style="fill:none;stroke:midnightblue;" d="M277,-48C286,-48 295,-48 304,-48"/>
<polygon style="fill:midnightblue;stroke:midnightblue;" points="277,-44.5001 267,-48 277,-51.5001 277,-44.5001"/>
</g>
<!-- Node5 -->
<g id="node9" class="node"><title>Node5</title>
<a xlink:href="class_matlab_manager.html#a319d996a8872d9cdba8cf335520af258" target="_top" xlink:title="Private constructor to implement the singleton. ">
<polygon style="fill:white;stroke:black;" points="307,1 307,-20 499,-20 499,1 307,1"/>
<text text-anchor="middle" x="403" y="-6" style="font-family:Arial;font-size:10.00;">MatlabManager::MatlabManager</text>
</a>
</g>
<!-- Node2&#45;&gt;Node5 -->
<g id="edge8" class="edge"><title>Node2&#45;&gt;Node5</title>
<path style="fill:none;stroke:midnightblue;" d="M273,-35C284,-33 294,-31 304,-29 319,-26 335,-23 350,-20"/>
<polygon style="fill:midnightblue;stroke:midnightblue;" points="272.119,-31.6067 263,-37 273.492,-38.4708 272.119,-31.6067"/>
</g>
</g>
</svg>
