<?xml version="1.0" encoding="UTF-8" standalone="no"?>
<!DOCTYPE svg PUBLIC "-//W3C//DTD SVG 1.0//EN"
 "http://www.w3.org/TR/2001/REC-SVG-20010904/DTD/svg10.dtd" [
 <!ATTLIST svg xmlns:xlink CDATA #FIXED "http://www.w3.org/1999/xlink">
]>
<!-- Generated by Graphviz version 2.14.1 (Fri Nov  9 08:19:38 GMT 2007)
     For user: (asakyurek) Alper Sinan Akyurek -->
<!-- Title: ControlManager::ClientPriceRequest Pages: 1 -->
<svg width="610pt" height="42pt"
 viewBox="0.00 0.00 610.00 42.00" xmlns="http://www.w3.org/2000/svg" xmlns:xlink="http://www.w3.org/1999/xlink">
<g id="graph0" class="graph" transform="scale(1 1) rotate(0) translate(4 38)">
<title>ControlManager::ClientPriceRequest</title>
<polygon style="fill:white;stroke:white;" points="-4,4 -4,-38 606,-38 606,4 -4,4"/>
<!-- Node1 -->
<g id="node1" class="node"><title>Node1</title>
<polygon style="fill:#bfbfbf;stroke:black;" points="0,-0 0,-34 168,-34 168,-0 0,-0"/>
<text text-anchor="start" x="8" y="-20" style="font-family:Arial;font-size:10.00;">ControlManager::ClientPrice</text>
<text text-anchor="middle" x="84" y="-7" style="font-family:Arial;font-size:10.00;">Request</text>
</g>
<!-- Node2 -->
<g id="node3" class="node"><title>Node2</title>
<a xlink:href="class_client_manager.html#a841299387a1dcd268266a3c0cfe2a95c" target="_top" xlink:title="Processes the price signal request. ">
<polygon style="fill:white;stroke:black;" points="205,-0 205,-34 366,-34 366,-0 205,-0"/>
<text text-anchor="start" x="213" y="-20" style="font-family:Arial;font-size:10.00;">ClientManager::ProcessGet</text>
<text text-anchor="middle" x="285" y="-7" style="font-family:Arial;font-size:10.00;">Price</text>
</a>
</g>
<!-- Node1&#45;&gt;Node2 -->
<g id="edge2" class="edge"><title>Node1&#45;&gt;Node2</title>
<path style="fill:none;stroke:midnightblue;" d="M178,-17C187,-17 196,-17 205,-17"/>
<polygon style="fill:midnightblue;stroke:midnightblue;" points="178,-13.5001 168,-17 178,-20.5001 178,-13.5001"/>
</g>
<!-- Node3 -->
<g id="node5" class="node"><title>Node3</title>
<a xlink:href="class_client_manager.html#abf05d2ac88337dfd02e0b7986ee1e18c" target="_top" xlink:title="Called when a message is received. ">
<polygon style="fill:white;stroke:black;" points="403,-6 403,-27 602,-27 602,-6 403,-6"/>
<text text-anchor="middle" x="502" y="-13" style="font-family:Arial;font-size:10.00;">ClientManager::MessageReceived</text>
</a>
</g>
<!-- Node2&#45;&gt;Node3 -->
<g id="edge4" class="edge"><title>Node2&#45;&gt;Node3</title>
<path style="fill:none;stroke:midnightblue;" d="M376,-17C385,-17 394,-17 403,-17"/>
<polygon style="fill:midnightblue;stroke:midnightblue;" points="376,-13.5001 366,-17 376,-20.5001 376,-13.5001"/>
</g>
</g>
</svg>
