<?xml version="1.0" encoding="UTF-8" standalone="no"?>
<!DOCTYPE svg PUBLIC "-//W3C//DTD SVG 1.0//EN"
 "http://www.w3.org/TR/2001/REC-SVG-20010904/DTD/svg10.dtd" [
 <!ATTLIST svg xmlns:xlink CDATA #FIXED "http://www.w3.org/1999/xlink">
]>
<!-- Generated by Graphviz version 2.14.1 (Fri Nov  9 08:19:38 GMT 2007)
     For user: (asakyurek) Alper Sinan Akyurek -->
<!-- Title: ThreadedTCPConnectedClient::SetNotificationCallback Pages: 1 -->
<svg width="844pt" height="118pt"
 viewBox="0.00 0.00 844.00 118.00" xmlns="http://www.w3.org/2000/svg" xmlns:xlink="http://www.w3.org/1999/xlink">
<g id="graph0" class="graph" transform="scale(1 1) rotate(0) translate(4 114)">
<title>ThreadedTCPConnectedClient::SetNotificationCallback</title>
<polygon style="fill:white;stroke:white;" points="-4,4 -4,-114 840,-114 840,4 -4,4"/>
<!-- Node1 -->
<g id="node1" class="node"><title>Node1</title>
<polygon style="fill:#bfbfbf;stroke:black;" points="0,-31 0,-65 182,-65 182,-31 0,-31"/>
<text text-anchor="start" x="8" y="-51" style="font-family:Arial;font-size:10.00;">ThreadedTCPConnectedClient</text>
<text text-anchor="middle" x="91" y="-38" style="font-family:Arial;font-size:10.00;">::SetNotificationCallback</text>
</g>
<!-- Node2 -->
<g id="node3" class="node"><title>Node2</title>
<a xlink:href="_connection_manager_8cpp.html#a510f5a0926d162b7f546fcf5b8f054e8" target="_top" xlink:title="ConnectionNotificationHandler">
<polygon style="fill:white;stroke:black;" points="219,-78 219,-99 404,-99 404,-78 219,-78"/>
<text text-anchor="middle" x="311" y="-85" style="font-family:Arial;font-size:10.00;">ConnectionNotificationHandler</text>
</a>
</g>
<!-- Node1&#45;&gt;Node2 -->
<g id="edge2" class="edge"><title>Node1&#45;&gt;Node2</title>
<path style="fill:none;stroke:midnightblue;" d="M192,-67C213,-70 234,-75 253,-78"/>
<polygon style="fill:midnightblue;stroke:midnightblue;" points="192.492,-63.5292 182,-65 191.119,-70.3933 192.492,-63.5292"/>
</g>
<!-- Node4 -->
<g id="node7" class="node"><title>Node4</title>
<a xlink:href="class_control_manager.html#a67d548535b36a78e315a0aa5f9f8e6c8" target="_top" xlink:title="ControlManager::SetClient">
<polygon style="fill:white;stroke:black;" points="231,-37 231,-58 391,-58 391,-37 231,-37"/>
<text text-anchor="middle" x="311" y="-44" style="font-family:Arial;font-size:10.00;">ControlManager::SetClient</text>
</a>
</g>
<!-- Node1&#45;&gt;Node4 -->
<g id="edge6" class="edge"><title>Node1&#45;&gt;Node4</title>
<path style="fill:none;stroke:midnightblue;" d="M192,-48C205,-48 218,-48 231,-48"/>
<polygon style="fill:midnightblue;stroke:midnightblue;" points="192,-44.5001 182,-48 192,-51.5001 192,-44.5001"/>
</g>
<!-- Node7 -->
<g id="node13" class="node"><title>Node7</title>
<a xlink:href="class_matlab_manager.html#ad5ff9f0aacdecada53a107e83b9e3712" target="_top" xlink:title="MatlabManager::SetClient">
<polygon style="fill:white;stroke:black;" points="233,1 233,-20 390,-20 390,1 233,1"/>
<text text-anchor="middle" x="311" y="-6" style="font-family:Arial;font-size:10.00;">MatlabManager::SetClient</text>
</a>
</g>
<!-- Node1&#45;&gt;Node7 -->
<g id="edge12" class="edge"><title>Node1&#45;&gt;Node7</title>
<path style="fill:none;stroke:midnightblue;" d="M192,-30C213,-27 234,-23 253,-20"/>
<polygon style="fill:midnightblue;stroke:midnightblue;" points="191.119,-26.6067 182,-32 192.492,-33.4708 191.119,-26.6067"/>
</g>
<!-- Node3 -->
<g id="node5" class="node"><title>Node3</title>
<a xlink:href="class_connection_manager.html#a7928f3e95b4e88b01c11eaf3e8089ee7" target="_top" xlink:title="ConnectionManager::\lConnectionManager">
<polygon style="fill:white;stroke:black;" points="455,-76 455,-110 588,-110 588,-76 455,-76"/>
<text text-anchor="start" x="463" y="-96" style="font-family:Arial;font-size:10.00;">ConnectionManager::</text>
<text text-anchor="middle" x="521" y="-83" style="font-family:Arial;font-size:10.00;">ConnectionManager</text>
</a>
</g>
<!-- Node2&#45;&gt;Node3 -->
<g id="edge4" class="edge"><title>Node2&#45;&gt;Node3</title>
<path style="fill:none;stroke:midnightblue;" d="M414,-91C428,-91 442,-92 455,-92"/>
<polygon style="fill:midnightblue;stroke:midnightblue;" points="414,-87.5001 404,-91 414,-94.5001 414,-87.5001"/>
</g>
<!-- Node5 -->
<g id="node9" class="node"><title>Node5</title>
<a xlink:href="_control_manager_8cpp.html#a5f09b25cf454170e17d1aa3c2707273a" target="_top" xlink:title="ControlNotificationHandler">
<polygon style="fill:white;stroke:black;" points="440,-37 440,-58 602,-58 602,-37 440,-37"/>
<text text-anchor="middle" x="521" y="-44" style="font-family:Arial;font-size:10.00;">ControlNotificationHandler</text>
</a>
</g>
<!-- Node4&#45;&gt;Node5 -->
<g id="edge8" class="edge"><title>Node4&#45;&gt;Node5</title>
<path style="fill:none;stroke:midnightblue;" d="M401,-48C414,-48 427,-48 440,-48"/>
<polygon style="fill:midnightblue;stroke:midnightblue;" points="401,-44.5001 391,-48 401,-51.5001 401,-44.5001"/>
</g>
<!-- Node6 -->
<g id="node11" class="node"><title>Node6</title>
<a xlink:href="class_control_manager.html#ab81bac3e592705b7ca4b23ce473fe26e" target="_top" xlink:title="ControlManager::ControlManager">
<polygon style="fill:white;stroke:black;" points="638,-37 638,-58 836,-58 836,-37 638,-37"/>
<text text-anchor="middle" x="737" y="-44" style="font-family:Arial;font-size:10.00;">ControlManager::ControlManager</text>
</a>
</g>
<!-- Node5&#45;&gt;Node6 -->
<g id="edge10" class="edge"><title>Node5&#45;&gt;Node6</title>
<path style="fill:none;stroke:midnightblue;" d="M612,-48C621,-48 629,-48 638,-48"/>
<polygon style="fill:midnightblue;stroke:midnightblue;" points="612,-44.5001 602,-48 612,-51.5001 612,-44.5001"/>
</g>
<!-- Node8 -->
<g id="node15" class="node"><title>Node8</title>
<a xlink:href="_matlab_manager_8cpp.html#aa340f269e04280ce987b3a8325f27580" target="_top" xlink:title="MatlabNotificationHandler">
<polygon style="fill:white;stroke:black;" points="442,1 442,-20 601,-20 601,1 442,1"/>
<text text-anchor="middle" x="521" y="-6" style="font-family:Arial;font-size:10.00;">MatlabNotificationHandler</text>
</a>
</g>
<!-- Node7&#45;&gt;Node8 -->
<g id="edge14" class="edge"><title>Node7&#45;&gt;Node8</title>
<path style="fill:none;stroke:midnightblue;" d="M400,-10C414,-10 428,-10 442,-10"/>
<polygon style="fill:midnightblue;stroke:midnightblue;" points="400,-6.5001 390,-10 400,-13.5001 400,-6.5001"/>
</g>
<!-- Node9 -->
<g id="node17" class="node"><title>Node9</title>
<a xlink:href="class_matlab_manager.html#a319d996a8872d9cdba8cf335520af258" target="_top" xlink:title="MatlabManager::MatlabManager">
<polygon style="fill:white;stroke:black;" points="641,1 641,-20 833,-20 833,1 641,1"/>
<text text-anchor="middle" x="737" y="-6" style="font-family:Arial;font-size:10.00;">MatlabManager::MatlabManager</text>
</a>
</g>
<!-- Node8&#45;&gt;Node9 -->
<g id="edge16" class="edge"><title>Node8&#45;&gt;Node9</title>
<path style="fill:none;stroke:midnightblue;" d="M611,-10C621,-10 631,-10 641,-10"/>
<polygon style="fill:midnightblue;stroke:midnightblue;" points="611,-6.5001 601,-10 611,-13.5001 611,-6.5001"/>
</g>
</g>
</svg>
