<?xml version="1.0" encoding="UTF-8" standalone="no"?>
<!DOCTYPE svg PUBLIC "-//W3C//DTD SVG 1.0//EN"
 "http://www.w3.org/TR/2001/REC-SVG-20010904/DTD/svg10.dtd" [
 <!ATTLIST svg xmlns:xlink CDATA #FIXED "http://www.w3.org/1999/xlink">
]>
<!-- Generated by Graphviz version 2.14.1 (Fri Nov  9 08:19:38 GMT 2007)
     For user: (asakyurek) Alper Sinan Akyurek -->
<!-- Title: UDPSocket Pages: 1 -->
<svg width="199pt" height="162pt"
 viewBox="0.00 0.00 199.00 162.00" xmlns="http://www.w3.org/2000/svg" xmlns:xlink="http://www.w3.org/1999/xlink">
<g id="graph0" class="graph" transform="scale(1 1) rotate(0) translate(4 158)">
<title>UDPSocket</title>
<polygon style="fill:white;stroke:white;" points="-4,4 -4,-158 195,-158 195,4 -4,4"/>
<!-- Node1 -->
<g id="node1" class="node"><title>Node1</title>
<polygon style="fill:#bfbfbf;stroke:black;" points="52,-0 52,-21 127,-21 127,-0 52,-0"/>
<text text-anchor="middle" x="89" y="-7" style="font-family:Arial;font-size:10.00;">UDPSocket</text>
</g>
<!-- Node2 -->
<g id="node2" class="node"><title>Node2</title>
<a xlink:href="class_socket_base.html" target="_top" xlink:title="SocketBase\&lt; SOCK_DGRAM \&gt;">
<polygon style="fill:white;stroke:black;" points="0,-60 0,-81 178,-81 178,-60 0,-60"/>
<text text-anchor="middle" x="89" y="-67" style="font-family:Arial;font-size:10.00;">SocketBase&lt; SOCK_DGRAM &gt;</text>
</a>
</g>
<!-- Node2&#45;&gt;Node1 -->
<g id="edge2" class="edge"><title>Node2&#45;&gt;Node1</title>
<path style="fill:none;stroke:#8b1a1a;" d="M89,-50C89,-40 89,-29 89,-21"/>
<polygon style="fill:#8b1a1a;stroke:#8b1a1a;" points="85.5001,-50 89,-60 92.5001,-50 85.5001,-50"/>
</g>
<!-- Node3 -->
<g id="node4" class="node"><title>Node3</title>
<a xlink:href="class_socket_base.html" target="_top" xlink:title="SocketBase\&lt; SocketType \&gt;">
<polygon style="fill:white;stroke:black;" points="6,-132 6,-153 172,-153 172,-132 6,-132"/>
<text text-anchor="middle" x="89" y="-139" style="font-family:Arial;font-size:10.00;">SocketBase&lt; SocketType &gt;</text>
</a>
</g>
<!-- Node3&#45;&gt;Node2 -->
<g id="edge4" class="edge"><title>Node3&#45;&gt;Node2</title>
<path style="fill:none;stroke:orange;stroke-dasharray:5,2;" d="M89,-122C89,-108 89,-92 89,-81"/>
<polygon style="fill:orange;stroke:orange;" points="85.5001,-122 89,-132 92.5001,-122 85.5001,-122"/>
<text text-anchor="middle" x="140" y="-104" style="font-family:Arial;font-size:10.00;"> &lt; SOCK_DGRAM &gt;</text>
</g>
</g>
</svg>
