<?xml version="1.0" encoding="UTF-8" standalone="no"?>
<!DOCTYPE svg PUBLIC "-//W3C//DTD SVG 1.0//EN"
 "http://www.w3.org/TR/2001/REC-SVG-20010904/DTD/svg10.dtd" [
 <!ATTLIST svg xmlns:xlink CDATA #FIXED "http://www.w3.org/1999/xlink">
]>
<!-- Generated by Graphviz version 2.14.1 (Fri Nov  9 08:19:38 GMT 2007)
     For user: (asakyurek) Alper Sinan Akyurek -->
<!-- Title: MatlabManager::MatlabManager Pages: 1 -->
<svg width="1140pt" height="387pt"
 viewBox="0.00 0.00 1140.00 387.00" xmlns="http://www.w3.org/2000/svg" xmlns:xlink="http://www.w3.org/1999/xlink">
<g id="graph0" class="graph" transform="scale(1 1) rotate(0) translate(4 383)">
<title>MatlabManager::MatlabManager</title>
<polygon style="fill:white;stroke:white;" points="-4,4 -4,-383 1136,-383 1136,4 -4,4"/>
<!-- Node1 -->
<g id="node1" class="node"><title>Node1</title>
<polygon style="fill:#bfbfbf;stroke:black;" points="0,-246 0,-267 192,-267 192,-246 0,-246"/>
<text text-anchor="middle" x="96" y="-253" style="font-family:Arial;font-size:10.00;">MatlabManager::MatlabManager</text>
</g>
<!-- Node2 -->
<g id="node3" class="node"><title>Node2</title>
<a xlink:href="_log_print_8h.html#a7e0c5f42cad5bc3a44134fb9c9a7a052" target="_top" xlink:title="LogPrint">
<polygon style="fill:white;stroke:black;" points="1059,-107 1059,-128 1119,-128 1119,-107 1059,-107"/>
<text text-anchor="middle" x="1089" y="-114" style="font-family:Arial;font-size:10.00;">LogPrint</text>
</a>
</g>
<!-- Node1&#45;&gt;Node2 -->
<g id="edge2" class="edge"><title>Node1&#45;&gt;Node2</title>
<path style="fill:none;stroke:midnightblue;" d="M115,-267C173,-297 348,-379 503,-379 503,-379 503,-379 709,-379 881,-379 1032,-195 1076,-136"/>
<polygon style="fill:midnightblue;stroke:midnightblue;" points="1078.8,-138.1 1082,-128 1073.2,-133.9 1078.8,-138.1"/>
</g>
<!-- Node3 -->
<g id="node5" class="node"><title>Node3</title>
<a xlink:href="class_t_c_p_server.html#a8d5ad30ba42960a84973b57f74a853fa" target="_top" xlink:title="TCPServer::SetPort">
<polygon style="fill:white;stroke:black;" points="250,-276 250,-297 367,-297 367,-276 250,-276"/>
<text text-anchor="middle" x="308" y="-283" style="font-family:Arial;font-size:10.00;">TCPServer::SetPort</text>
</a>
</g>
<!-- Node1&#45;&gt;Node3 -->
<g id="edge4" class="edge"><title>Node1&#45;&gt;Node3</title>
<path style="fill:none;stroke:midnightblue;" d="M167,-267C191,-271 217,-274 240,-278"/>
<polygon style="fill:midnightblue;stroke:midnightblue;" points="239.701,-281.488 250,-279 240.398,-274.522 239.701,-281.488"/>
</g>
<!-- Node10 -->
<g id="node19" class="node"><title>Node10</title>
<a xlink:href="class_threaded_t_c_p_server.html#ac201656ab22b4ad07115d78cf8b7dd89" target="_top" xlink:title="ThreadedTCPServer::\lSetNotificationCallback">
<polygon style="fill:white;stroke:black;" points="236,-210 236,-244 380,-244 380,-210 236,-210"/>
<text text-anchor="start" x="244" y="-230" style="font-family:Arial;font-size:10.00;">ThreadedTCPServer::</text>
<text text-anchor="middle" x="308" y="-217" style="font-family:Arial;font-size:10.00;">SetNotificationCallback</text>
</a>
</g>
<!-- Node1&#45;&gt;Node10 -->
<g id="edge18" class="edge"><title>Node1&#45;&gt;Node10</title>
<path style="fill:none;stroke:midnightblue;" d="M174,-246C191,-243 209,-241 226,-238"/>
<polygon style="fill:midnightblue;stroke:midnightblue;" points="226.398,-241.478 236,-237 225.701,-234.512 226.398,-241.478"/>
</g>
<!-- Node13 -->
<g id="node25" class="node"><title>Node13</title>
<a xlink:href="_matlab_manager_8cpp.html#aa340f269e04280ce987b3a8325f27580" target="_top" xlink:title="MatlabNotificationHandler">
<polygon style="fill:white;stroke:black;" points="229,-121 229,-142 388,-142 388,-121 229,-121"/>
<text text-anchor="middle" x="308" y="-128" style="font-family:Arial;font-size:10.00;">MatlabNotificationHandler</text>
</a>
</g>
<!-- Node1&#45;&gt;Node13 -->
<g id="edge24" class="edge"><title>Node1&#45;&gt;Node13</title>
<path style="fill:none;stroke:midnightblue;" d="M115,-246C153,-224 239,-173 282,-147"/>
<polygon style="fill:midnightblue;stroke:midnightblue;" points="283.958,-149.916 291,-142 280.559,-143.797 283.958,-149.916"/>
</g>
<!-- Node4 -->
<g id="node7" class="node"><title>Node4</title>
<a xlink:href="class_i_p_address.html#ade47d25d834bfb952fcf7fb2867db21e" target="_top" xlink:title="IPAddress::SetAddress">
<polygon style="fill:white;stroke:black;" points="437,-330 437,-351 570,-351 570,-330 437,-330"/>
<text text-anchor="middle" x="503" y="-337" style="font-family:Arial;font-size:10.00;">IPAddress::SetAddress</text>
</a>
</g>
<!-- Node3&#45;&gt;Node4 -->
<g id="edge6" class="edge"><title>Node3&#45;&gt;Node4</title>
<path style="fill:none;stroke:midnightblue;" d="M341,-297C364,-304 396,-314 424,-322 431,-324 439,-326 446,-327"/>
<polygon style="fill:midnightblue;stroke:midnightblue;" points="445.416,-330.479 456,-330 447.427,-323.774 445.416,-330.479"/>
</g>
<!-- Node6 -->
<g id="node11" class="node"><title>Node6</title>
<a xlink:href="class_i_p_address.html#a5908d6242879f0e45685f8b0734dafa7" target="_top" xlink:title="IPAddress::SetPort">
<polygon style="fill:white;stroke:black;" points="447,-292 447,-313 559,-313 559,-292 447,-292"/>
<text text-anchor="middle" x="503" y="-299" style="font-family:Arial;font-size:10.00;">IPAddress::SetPort</text>
</a>
</g>
<!-- Node3&#45;&gt;Node6 -->
<g id="edge10" class="edge"><title>Node3&#45;&gt;Node6</title>
<path style="fill:none;stroke:midnightblue;" d="M367,-292C389,-294 414,-296 437,-298"/>
<polygon style="fill:midnightblue;stroke:midnightblue;" points="436.701,-301.488 447,-299 437.398,-294.522 436.701,-301.488"/>
</g>
<!-- Node8 -->
<g id="node15" class="node"><title>Node8</title>
<a xlink:href="class_t_c_p_server.html#a85bb8272c9599d98bcb28e4156a755fb" target="_top" xlink:title="TCPServer::SetAddress">
<polygon style="fill:white;stroke:black;" points="434,-254 434,-275 572,-275 572,-254 434,-254"/>
<text text-anchor="middle" x="503" y="-261" style="font-family:Arial;font-size:10.00;">TCPServer::SetAddress</text>
</a>
</g>
<!-- Node3&#45;&gt;Node8 -->
<g id="edge14" class="edge"><title>Node3&#45;&gt;Node8</title>
<path style="fill:none;stroke:midnightblue;" d="M367,-280C385,-278 405,-276 424,-274"/>
<polygon style="fill:midnightblue;stroke:midnightblue;" points="424.398,-277.478 434,-273 423.701,-270.512 424.398,-277.478"/>
</g>
<!-- Node5 -->
<g id="node9" class="node"><title>Node5</title>
<a xlink:href="class_i_p_address.html#a0c90b37a86811781d4422c0dd2d5b6b5" target="_top" xlink:title="IPAddress::GetAddress">
<polygon style="fill:white;stroke:black;" points="642,-330 642,-351 776,-351 776,-330 642,-330"/>
<text text-anchor="middle" x="709" y="-337" style="font-family:Arial;font-size:10.00;">IPAddress::GetAddress</text>
</a>
</g>
<!-- Node4&#45;&gt;Node5 -->
<g id="edge8" class="edge"><title>Node4&#45;&gt;Node5</title>
<path style="fill:none;stroke:midnightblue;" d="M570,-341C590,-341 612,-341 632,-341"/>
<polygon style="fill:midnightblue;stroke:midnightblue;" points="632,-344.5 642,-341 632,-337.5 632,-344.5"/>
</g>
<!-- Node7 -->
<g id="node13" class="node"><title>Node7</title>
<a xlink:href="class_i_p_address.html#a5c8a6aeae1105603538c2661c68fd6bb" target="_top" xlink:title="IPAddress::GetPort">
<polygon style="fill:white;stroke:black;" points="653,-292 653,-313 766,-313 766,-292 653,-292"/>
<text text-anchor="middle" x="709" y="-299" style="font-family:Arial;font-size:10.00;">IPAddress::GetPort</text>
</a>
</g>
<!-- Node6&#45;&gt;Node7 -->
<g id="edge12" class="edge"><title>Node6&#45;&gt;Node7</title>
<path style="fill:none;stroke:midnightblue;" d="M559,-303C585,-303 616,-303 643,-303"/>
<polygon style="fill:midnightblue;stroke:midnightblue;" points="643,-306.5 653,-303 643,-299.5 643,-306.5"/>
</g>
<!-- Node9 -->
<g id="node17" class="node"><title>Node9</title>
<a xlink:href="class_i_p_address.html#abdbc7cc25dc15d9e85ceb2e1d3125e22" target="_top" xlink:title="IPAddress::GetSocketSize">
<polygon style="fill:white;stroke:black;" points="633,-254 633,-275 785,-275 785,-254 633,-254"/>
<text text-anchor="middle" x="709" y="-261" style="font-family:Arial;font-size:10.00;">IPAddress::GetSocketSize</text>
</a>
</g>
<!-- Node8&#45;&gt;Node9 -->
<g id="edge16" class="edge"><title>Node8&#45;&gt;Node9</title>
<path style="fill:none;stroke:midnightblue;" d="M572,-265C589,-265 606,-265 623,-265"/>
<polygon style="fill:midnightblue;stroke:midnightblue;" points="623,-268.5 633,-265 623,-261.5 623,-268.5"/>
</g>
<!-- Node11 -->
<g id="node21" class="node"><title>Node11</title>
<a xlink:href="class_t_c_p_server.html#a2d424428c9107b8b40905f0aefc7d30b" target="_top" xlink:title="TCPServer::Listen">
<polygon style="fill:white;stroke:black;" points="448,-216 448,-237 558,-237 558,-216 448,-216"/>
<text text-anchor="middle" x="503" y="-223" style="font-family:Arial;font-size:10.00;">TCPServer::Listen</text>
</a>
</g>
<!-- Node10&#45;&gt;Node11 -->
<g id="edge20" class="edge"><title>Node10&#45;&gt;Node11</title>
<path style="fill:none;stroke:midnightblue;" d="M380,-227C399,-227 420,-227 438,-227"/>
<polygon style="fill:midnightblue;stroke:midnightblue;" points="438,-230.5 448,-227 438,-223.5 438,-230.5"/>
</g>
<!-- Node12 -->
<g id="node23" class="node"><title>Node12</title>
<a xlink:href="class_thread_base.html#aaea6437d738ac97e3427bbe466f850f8" target="_top" xlink:title="ThreadBase::StartThread">
<polygon style="fill:white;stroke:black;" points="427,-178 427,-199 579,-199 579,-178 427,-178"/>
<text text-anchor="middle" x="503" y="-185" style="font-family:Arial;font-size:10.00;">ThreadBase::StartThread</text>
</a>
</g>
<!-- Node10&#45;&gt;Node12 -->
<g id="edge22" class="edge"><title>Node10&#45;&gt;Node12</title>
<path style="fill:none;stroke:midnightblue;" d="M380,-213C400,-209 422,-205 441,-201"/>
<polygon style="fill:midnightblue;stroke:midnightblue;" points="441.881,-204.393 451,-199 440.508,-197.529 441.881,-204.393"/>
</g>
<!-- Node13&#45;&gt;Node2 -->
<g id="edge26" class="edge"><title>Node13&#45;&gt;Node2</title>
<path style="fill:none;stroke:midnightblue;" d="M388,-136C400,-136 412,-137 424,-137 685,-143 751,-152 1010,-130 1022,-129 1036,-127 1049,-125"/>
<polygon style="fill:midnightblue;stroke:midnightblue;" points="1049.4,-128.478 1059,-124 1048.7,-121.512 1049.4,-128.478"/>
</g>
<!-- Node14 -->
<g id="node28" class="node"><title>Node14</title>
<a xlink:href="_matlab_manager_8cpp.html#adf11a697c41ba15207a66f8d2b567b75" target="_top" xlink:title="GetMatlabManager">
<polygon style="fill:white;stroke:black;" points="863,-100 863,-121 983,-121 983,-100 863,-100"/>
<text text-anchor="middle" x="923" y="-107" style="font-family:Arial;font-size:10.00;">GetMatlabManager</text>
</a>
</g>
<!-- Node13&#45;&gt;Node14 -->
<g id="edge28" class="edge"><title>Node13&#45;&gt;Node14</title>
<path style="fill:none;stroke:midnightblue;" d="M388,-129C509,-125 738,-117 853,-113"/>
<polygon style="fill:midnightblue;stroke:midnightblue;" points="853,-116.5 863,-113 853,-109.5 853,-116.5"/>
</g>
<!-- Node15 -->
<g id="node30" class="node"><title>Node15</title>
<a xlink:href="class_matlab_manager.html#ad5ff9f0aacdecada53a107e83b9e3712" target="_top" xlink:title="MatlabManager::SetClient">
<polygon style="fill:white;stroke:black;" points="425,-57 425,-78 582,-78 582,-57 425,-57"/>
<text text-anchor="middle" x="503" y="-64" style="font-family:Arial;font-size:10.00;">MatlabManager::SetClient</text>
</a>
</g>
<!-- Node13&#45;&gt;Node15 -->
<g id="edge30" class="edge"><title>Node13&#45;&gt;Node15</title>
<path style="fill:none;stroke:midnightblue;" d="M342,-121C375,-110 427,-93 462,-81"/>
<polygon style="fill:midnightblue;stroke:midnightblue;" points="463.427,-84.2259 472,-78 461.416,-77.5212 463.427,-84.2259"/>
</g>
<!-- Node16 -->
<g id="node32" class="node"><title>Node16</title>
<a xlink:href="class_threaded_t_c_p_connected_client.html#ae8f981925319c228443e0ef78ef0ae67" target="_top" xlink:title="ThreadedTCPConnectedClient\l::SetNotificationCallback">
<polygon style="fill:white;stroke:black;" points="618,-51 618,-85 800,-85 800,-51 618,-51"/>
<text text-anchor="start" x="626" y="-71" style="font-family:Arial;font-size:10.00;">ThreadedTCPConnectedClient</text>
<text text-anchor="middle" x="709" y="-58" style="font-family:Arial;font-size:10.00;">::SetNotificationCallback</text>
</a>
</g>
<!-- Node15&#45;&gt;Node16 -->
<g id="edge32" class="edge"><title>Node15&#45;&gt;Node16</title>
<path style="fill:none;stroke:midnightblue;" d="M582,-68C591,-68 599,-68 608,-68"/>
<polygon style="fill:midnightblue;stroke:midnightblue;" points="608,-71.5001 618,-68 608,-64.5001 608,-71.5001"/>
</g>
<!-- Node17 -->
<g id="node34" class="node"><title>Node17</title>
<a xlink:href="_matlab_manager_8h.html#adde5ef25c1ac7d9ccf067e4bc4894675" target="_top" xlink:title="MatlabReceiveHandler">
<polygon style="fill:white;stroke:black;" points="640,-12 640,-33 779,-33 779,-12 640,-12"/>
<text text-anchor="middle" x="709" y="-19" style="font-family:Arial;font-size:10.00;">MatlabReceiveHandler</text>
</a>
</g>
<!-- Node15&#45;&gt;Node17 -->
<g id="edge34" class="edge"><title>Node15&#45;&gt;Node17</title>
<path style="fill:none;stroke:midnightblue;" d="M553,-57C573,-52 597,-47 618,-42 629,-40 641,-37 652,-35"/>
<polygon style="fill:midnightblue;stroke:midnightblue;" points="652.881,-38.3933 662,-33 651.508,-31.5292 652.881,-38.3933"/>
</g>
<!-- Node17&#45;&gt;Node2 -->
<g id="edge36" class="edge"><title>Node17&#45;&gt;Node2</title>
<path style="fill:none;stroke:midnightblue;" d="M759,-33C820,-45 923,-68 1010,-92 1023,-96 1036,-101 1049,-105"/>
<polygon style="fill:midnightblue;stroke:midnightblue;" points="1048.42,-108.479 1059,-108 1050.43,-101.774 1048.42,-108.479"/>
</g>
<!-- Node17&#45;&gt;Node14 -->
<g id="edge38" class="edge"><title>Node17&#45;&gt;Node14</title>
<path style="fill:none;stroke:midnightblue;" d="M779,-33C786,-35 794,-38 800,-42 822,-55 816,-71 836,-84 843,-89 851,-93 860,-96"/>
<polygon style="fill:midnightblue;stroke:midnightblue;" points="858.44,-99.1369 869,-100 861.283,-92.7402 858.44,-99.1369"/>
</g>
<!-- Node18 -->
<g id="node38" class="node"><title>Node18</title>
<a xlink:href="class_matlab_manager.html#a7219113b7bc0744fe8faa94d599fe826" target="_top" xlink:title="MatlabManager::ProcessData">
<polygon style="fill:white;stroke:black;" points="837,-14 837,-35 1010,-35 1010,-14 837,-14"/>
<text text-anchor="middle" x="923" y="-21" style="font-family:Arial;font-size:10.00;">MatlabManager::ProcessData</text>
</a>
</g>
<!-- Node17&#45;&gt;Node18 -->
<g id="edge40" class="edge"><title>Node17&#45;&gt;Node18</title>
<path style="fill:none;stroke:midnightblue;" d="M779,-24C794,-24 811,-24 827,-24"/>
<polygon style="fill:midnightblue;stroke:midnightblue;" points="827,-27.5001 837,-24 827,-20.5001 827,-27.5001"/>
</g>
<!-- Node18&#45;&gt;Node2 -->
<g id="edge42" class="edge"><title>Node18&#45;&gt;Node2</title>
<path style="fill:none;stroke:midnightblue;" d="M959,-35C975,-40 994,-47 1010,-56 1033,-69 1055,-86 1070,-100"/>
<polygon style="fill:midnightblue;stroke:midnightblue;" points="1067.45,-102.404 1077,-107 1072.4,-97.454 1067.45,-102.404"/>
</g>
<!-- Node19 -->
<g id="node41" class="node"><title>Node19</title>
<a xlink:href="_log_print_8h.html#a46ea30a62534f8ce32cd39454e459b23" target="_top" xlink:title="WarningPrint">
<polygon style="fill:white;stroke:black;" points="1047,-37 1047,-58 1132,-58 1132,-37 1047,-37"/>
<text text-anchor="middle" x="1089" y="-44" style="font-family:Arial;font-size:10.00;">WarningPrint</text>
</a>
</g>
<!-- Node18&#45;&gt;Node19 -->
<g id="edge44" class="edge"><title>Node18&#45;&gt;Node19</title>
<path style="fill:none;stroke:midnightblue;" d="M995,-35C1009,-37 1024,-39 1037,-41"/>
<polygon style="fill:midnightblue;stroke:midnightblue;" points="1036.7,-44.4875 1047,-42 1037.4,-37.5222 1036.7,-44.4875"/>
</g>
<!-- Node20 -->
<g id="node43" class="node"><title>Node20</title>
<a xlink:href="_log_print_8h.html#af783a2ea2c57c5f51f905a24f3f5a835" target="_top" xlink:title="ErrorPrint">
<polygon style="fill:white;stroke:black;" points="1057,1 1057,-20 1122,-20 1122,1 1057,1"/>
<text text-anchor="middle" x="1089" y="-6" style="font-family:Arial;font-size:10.00;">ErrorPrint</text>
</a>
</g>
<!-- Node18&#45;&gt;Node20 -->
<g id="edge46" class="edge"><title>Node18&#45;&gt;Node20</title>
<path style="fill:none;stroke:midnightblue;" d="M1010,-17C1023,-15 1035,-15 1047,-14"/>
<polygon style="fill:midnightblue;stroke:midnightblue;" points="1047.4,-17.4778 1057,-13 1046.7,-10.5125 1047.4,-17.4778"/>
</g>
</g>
</svg>
