<?xml version="1.0" encoding="UTF-8" standalone="no"?>
<!DOCTYPE svg PUBLIC "-//W3C//DTD SVG 1.0//EN"
 "http://www.w3.org/TR/2001/REC-SVG-20010904/DTD/svg10.dtd" [
 <!ATTLIST svg xmlns:xlink CDATA #FIXED "http://www.w3.org/1999/xlink">
]>
<!-- Generated by Graphviz version 2.14.1 (Fri Nov  9 08:19:38 GMT 2007)
     For user: (asakyurek) Alper Sinan Akyurek -->
<!-- Title: ControlManager::ProcessData Pages: 1 -->
<svg width="344pt" height="142pt"
 viewBox="0.00 0.00 344.00 142.00" xmlns="http://www.w3.org/2000/svg" xmlns:xlink="http://www.w3.org/1999/xlink">
<g id="graph0" class="graph" transform="scale(1 1) rotate(0) translate(4 138)">
<title>ControlManager::ProcessData</title>
<polygon style="fill:white;stroke:white;" points="-4,4 -4,-138 340,-138 340,4 -4,4"/>
<!-- Node1 -->
<g id="node1" class="node"><title>Node1</title>
<polygon style="fill:#bfbfbf;stroke:black;" points="0,-56 0,-77 176,-77 176,-56 0,-56"/>
<text text-anchor="middle" x="88" y="-63" style="font-family:Arial;font-size:10.00;">ControlManager::ProcessData</text>
</g>
<!-- Node2 -->
<g id="node3" class="node"><title>Node2</title>
<a xlink:href="_log_print_8h.html#a46ea30a62534f8ce32cd39454e459b23" target="_top" xlink:title="6 parameter warning message ">
<polygon style="fill:white;stroke:black;" points="232,-113 232,-134 317,-134 317,-113 232,-113"/>
<text text-anchor="middle" x="274" y="-120" style="font-family:Arial;font-size:10.00;">WarningPrint</text>
</a>
</g>
<!-- Node1&#45;&gt;Node2 -->
<g id="edge2" class="edge"><title>Node1&#45;&gt;Node2</title>
<path style="fill:none;stroke:midnightblue;" d="M121,-77C151,-86 195,-99 228,-110"/>
<polygon style="fill:midnightblue;stroke:midnightblue;" points="227.416,-113.479 238,-113 229.427,-106.774 227.416,-113.479"/>
</g>
<!-- Node3 -->
<g id="node5" class="node"><title>Node3</title>
<a xlink:href="_log_print_8h.html#a7e0c5f42cad5bc3a44134fb9c9a7a052" target="_top" xlink:title="8 parameter log message ">
<polygon style="fill:white;stroke:black;" points="244,-75 244,-96 304,-96 304,-75 244,-75"/>
<text text-anchor="middle" x="274" y="-82" style="font-family:Arial;font-size:10.00;">LogPrint</text>
</a>
</g>
<!-- Node1&#45;&gt;Node3 -->
<g id="edge4" class="edge"><title>Node1&#45;&gt;Node3</title>
<path style="fill:none;stroke:midnightblue;" d="M176,-76C196,-78 216,-80 234,-82"/>
<polygon style="fill:midnightblue;stroke:midnightblue;" points="233.701,-85.4875 244,-83 234.398,-78.5222 233.701,-85.4875"/>
</g>
<!-- Node4 -->
<g id="node7" class="node"><title>Node4</title>
<a xlink:href="_log_print_8h.html#af783a2ea2c57c5f51f905a24f3f5a835" target="_top" xlink:title="6 parameter error message ">
<polygon style="fill:white;stroke:black;" points="242,-37 242,-58 307,-58 307,-37 242,-37"/>
<text text-anchor="middle" x="274" y="-44" style="font-family:Arial;font-size:10.00;">ErrorPrint</text>
</a>
</g>
<!-- Node1&#45;&gt;Node4 -->
<g id="edge6" class="edge"><title>Node1&#45;&gt;Node4</title>
<path style="fill:none;stroke:midnightblue;" d="M176,-58C195,-56 215,-54 232,-52"/>
<polygon style="fill:midnightblue;stroke:midnightblue;" points="232.398,-55.4778 242,-51 231.701,-48.5125 232.398,-55.4778"/>
</g>
<!-- Node5 -->
<g id="node9" class="node"><title>Node5</title>
<a xlink:href="_system_manager_8cpp.html#a97e64f74d188d41051488578800d20cd" target="_top" xlink:title="Singleton function that returns the only instance of SystemManager. ">
<polygon style="fill:white;stroke:black;" points="213,1 213,-20 336,-20 336,1 213,1"/>
<text text-anchor="middle" x="274" y="-6" style="font-family:Arial;font-size:10.00;">GetSystemManager</text>
</a>
</g>
<!-- Node1&#45;&gt;Node5 -->
<g id="edge8" class="edge"><title>Node1&#45;&gt;Node5</title>
<path style="fill:none;stroke:midnightblue;" d="M124,-56C155,-46 199,-33 231,-23"/>
<polygon style="fill:midnightblue;stroke:midnightblue;" points="232.427,-26.2259 241,-20 230.416,-19.5212 232.427,-26.2259"/>
</g>
</g>
</svg>
