<?xml version="1.0" encoding="UTF-8" standalone="no"?>
<!DOCTYPE svg PUBLIC "-//W3C//DTD SVG 1.0//EN"
 "http://www.w3.org/TR/2001/REC-SVG-20010904/DTD/svg10.dtd" [
 <!ATTLIST svg xmlns:xlink CDATA #FIXED "http://www.w3.org/1999/xlink">
]>
<!-- Generated by Graphviz version 2.14.1 (Fri Nov  9 08:19:38 GMT 2007)
     For user: (asakyurek) Alper Sinan Akyurek -->
<!-- Title: ThreadedTCPServer::ExecutionBody Pages: 1 -->
<svg width="480pt" height="42pt"
 viewBox="0.00 0.00 480.00 42.00" xmlns="http://www.w3.org/2000/svg" xmlns:xlink="http://www.w3.org/1999/xlink">
<g id="graph0" class="graph" transform="scale(1 1) rotate(0) translate(4 38)">
<title>ThreadedTCPServer::ExecutionBody</title>
<polygon style="fill:white;stroke:white;" points="-4,4 -4,-38 476,-38 476,4 -4,4"/>
<!-- Node1 -->
<g id="node1" class="node"><title>Node1</title>
<polygon style="fill:#bfbfbf;stroke:black;" points="1,-0 1,-34 132,-34 132,-0 1,-0"/>
<text text-anchor="start" x="9" y="-20" style="font-family:Arial;font-size:10.00;">ThreadedTCPServer::</text>
<text text-anchor="middle" x="66" y="-7" style="font-family:Arial;font-size:10.00;">ExecutionBody</text>
</g>
<!-- Node2 -->
<g id="node3" class="node"><title>Node2</title>
<a xlink:href="class_t_c_p_server.html#ae53980fd5e4791bc6e5e15c97a1a796a" target="_top" xlink:title="This method makes the TCP server accept any incoming connection attempt. ">
<polygon style="fill:white;stroke:black;" points="169,-6 169,-27 284,-27 284,-6 169,-6"/>
<text text-anchor="middle" x="226" y="-13" style="font-family:Arial;font-size:10.00;">TCPServer::Accept</text>
</a>
</g>
<!-- Node1&#45;&gt;Node2 -->
<g id="edge2" class="edge"><title>Node1&#45;&gt;Node2</title>
<path style="fill:none;stroke:midnightblue;" d="M132,-17C141,-17 150,-17 159,-17"/>
<polygon style="fill:midnightblue;stroke:midnightblue;" points="159,-20.5001 169,-17 159,-13.5001 159,-20.5001"/>
</g>
<!-- Node3 -->
<g id="node5" class="node"><title>Node3</title>
<a xlink:href="class_i_p_address.html#abdbc7cc25dc15d9e85ceb2e1d3125e22" target="_top" xlink:title="Returns the size of the socket structure. ">
<polygon style="fill:white;stroke:black;" points="320,-6 320,-27 472,-27 472,-6 320,-6"/>
<text text-anchor="middle" x="396" y="-13" style="font-family:Arial;font-size:10.00;">IPAddress::GetSocketSize</text>
</a>
</g>
<!-- Node2&#45;&gt;Node3 -->
<g id="edge4" class="edge"><title>Node2&#45;&gt;Node3</title>
<path style="fill:none;stroke:midnightblue;" d="M284,-17C292,-17 301,-17 310,-17"/>
<polygon style="fill:midnightblue;stroke:midnightblue;" points="310,-20.5001 320,-17 310,-13.5001 310,-20.5001"/>
</g>
</g>
</svg>
