<?xml version="1.0" encoding="UTF-8" standalone="no"?>
<!DOCTYPE svg PUBLIC "-//W3C//DTD SVG 1.0//EN"
 "http://www.w3.org/TR/2001/REC-SVG-20010904/DTD/svg10.dtd" [
 <!ATTLIST svg xmlns:xlink CDATA #FIXED "http://www.w3.org/1999/xlink">
]>
<!-- Generated by Graphviz version 2.14.1 (Fri Nov  9 08:19:38 GMT 2007)
     For user: (asakyurek) Alper Sinan Akyurek -->
<!-- Title: MatlabManager::ProcessData Pages: 1 -->
<svg width="976pt" height="28pt"
 viewBox="0.00 0.00 976.00 28.00" xmlns="http://www.w3.org/2000/svg" xmlns:xlink="http://www.w3.org/1999/xlink">
<g id="graph0" class="graph" transform="scale(1 1) rotate(0) translate(4 24)">
<title>MatlabManager::ProcessData</title>
<polygon style="fill:white;stroke:white;" points="-4,4 -4,-24 972,-24 972,4 -4,4"/>
<!-- Node1 -->
<g id="node1" class="node"><title>Node1</title>
<polygon style="fill:#bfbfbf;stroke:black;" points="1,1 1,-20 174,-20 174,1 1,1"/>
<text text-anchor="middle" x="87" y="-6" style="font-family:Arial;font-size:10.00;">MatlabManager::ProcessData</text>
</g>
<!-- Node2 -->
<g id="node3" class="node"><title>Node2</title>
<a xlink:href="_matlab_manager_8h.html#adde5ef25c1ac7d9ccf067e4bc4894675" target="_top" xlink:title="MatlabReceiveHandler">
<polygon style="fill:white;stroke:black;" points="211,1 211,-20 350,-20 350,1 211,1"/>
<text text-anchor="middle" x="280" y="-6" style="font-family:Arial;font-size:10.00;">MatlabReceiveHandler</text>
</a>
</g>
<!-- Node1&#45;&gt;Node2 -->
<g id="edge2" class="edge"><title>Node1&#45;&gt;Node2</title>
<path style="fill:none;stroke:midnightblue;" d="M184,-10C193,-10 202,-10 211,-10"/>
<polygon style="fill:midnightblue;stroke:midnightblue;" points="184,-6.5001 174,-10 184,-13.5001 184,-6.5001"/>
</g>
<!-- Node3 -->
<g id="node5" class="node"><title>Node3</title>
<a xlink:href="class_matlab_manager.html#ad5ff9f0aacdecada53a107e83b9e3712" target="_top" xlink:title="MatlabManager::SetClient">
<polygon style="fill:white;stroke:black;" points="387,1 387,-20 544,-20 544,1 387,1"/>
<text text-anchor="middle" x="465" y="-6" style="font-family:Arial;font-size:10.00;">MatlabManager::SetClient</text>
</a>
</g>
<!-- Node2&#45;&gt;Node3 -->
<g id="edge4" class="edge"><title>Node2&#45;&gt;Node3</title>
<path style="fill:none;stroke:midnightblue;" d="M360,-10C369,-10 378,-10 387,-10"/>
<polygon style="fill:midnightblue;stroke:midnightblue;" points="360,-6.5001 350,-10 360,-13.5001 360,-6.5001"/>
</g>
<!-- Node4 -->
<g id="node7" class="node"><title>Node4</title>
<a xlink:href="_matlab_manager_8cpp.html#aa340f269e04280ce987b3a8325f27580" target="_top" xlink:title="MatlabNotificationHandler">
<polygon style="fill:white;stroke:black;" points="581,1 581,-20 740,-20 740,1 581,1"/>
<text text-anchor="middle" x="660" y="-6" style="font-family:Arial;font-size:10.00;">MatlabNotificationHandler</text>
</a>
</g>
<!-- Node3&#45;&gt;Node4 -->
<g id="edge6" class="edge"><title>Node3&#45;&gt;Node4</title>
<path style="fill:none;stroke:midnightblue;" d="M554,-10C563,-10 572,-10 581,-10"/>
<polygon style="fill:midnightblue;stroke:midnightblue;" points="554,-6.5001 544,-10 554,-13.5001 554,-6.5001"/>
</g>
<!-- Node5 -->
<g id="node9" class="node"><title>Node5</title>
<a xlink:href="class_matlab_manager.html#a319d996a8872d9cdba8cf335520af258" target="_top" xlink:title="MatlabManager::MatlabManager">
<polygon style="fill:white;stroke:black;" points="776,1 776,-20 968,-20 968,1 776,1"/>
<text text-anchor="middle" x="872" y="-6" style="font-family:Arial;font-size:10.00;">MatlabManager::MatlabManager</text>
</a>
</g>
<!-- Node4&#45;&gt;Node5 -->
<g id="edge8" class="edge"><title>Node4&#45;&gt;Node5</title>
<path style="fill:none;stroke:midnightblue;" d="M750,-10C759,-10 767,-10 776,-10"/>
<polygon style="fill:midnightblue;stroke:midnightblue;" points="750,-6.5001 740,-10 750,-13.5001 750,-6.5001"/>
</g>
</g>
</svg>
