<?xml version="1.0" encoding="UTF-8" standalone="no"?>
<!DOCTYPE svg PUBLIC "-//W3C//DTD SVG 1.0//EN"
 "http://www.w3.org/TR/2001/REC-SVG-20010904/DTD/svg10.dtd" [
 <!ATTLIST svg xmlns:xlink CDATA #FIXED "http://www.w3.org/1999/xlink">
]>
<!-- Generated by Graphviz version 2.14.1 (Fri Nov  9 08:19:38 GMT 2007)
     For user: (asakyurek) Alper Sinan Akyurek -->
<!-- Title: ThreadBase::StartThread Pages: 1 -->
<svg width="618pt" height="184pt"
 viewBox="0.00 0.00 618.00 184.00" xmlns="http://www.w3.org/2000/svg" xmlns:xlink="http://www.w3.org/1999/xlink">
<g id="graph0" class="graph" transform="scale(1 1) rotate(0) translate(4 180)">
<title>ThreadBase::StartThread</title>
<polygon style="fill:white;stroke:white;" points="-4,4 -4,-180 614,-180 614,4 -4,4"/>
<!-- Node1 -->
<g id="node1" class="node"><title>Node1</title>
<polygon style="fill:#bfbfbf;stroke:black;" points="0,-70 0,-91 152,-91 152,-70 0,-70"/>
<text text-anchor="middle" x="76" y="-77" style="font-family:Arial;font-size:10.00;">ThreadBase::StartThread</text>
</g>
<!-- Node2 -->
<g id="node3" class="node"><title>Node2</title>
<a xlink:href="class_threaded_t_c_p_client.html#aee05df10793942b468883521a5bcc666" target="_top" xlink:title="Starts the thread and initializes the variables. ">
<polygon style="fill:white;stroke:black;" points="218,-142 218,-176 346,-176 346,-142 218,-142"/>
<text text-anchor="start" x="226" y="-162" style="font-family:Arial;font-size:10.00;">ThreadedTCPClient::</text>
<text text-anchor="middle" x="282" y="-149" style="font-family:Arial;font-size:10.00;">ThreadedTCPClient</text>
</a>
</g>
<!-- Node1&#45;&gt;Node2 -->
<g id="edge2" class="edge"><title>Node1&#45;&gt;Node2</title>
<path style="fill:none;stroke:midnightblue;" d="M105,-96C127,-107 159,-123 188,-133 198,-136 208,-139 218,-142"/>
<polygon style="fill:midnightblue;stroke:midnightblue;" points="106.441,-92.7969 96,-91 103.042,-98.916 106.441,-92.7969"/>
</g>
<!-- Node3 -->
<g id="node5" class="node"><title>Node3</title>
<a xlink:href="class_threaded_t_c_p_connected_client.html#ae91cbb1c8769f9495d1f3a37258a4307" target="_top" xlink:title="Initializes the class with a ready socket and address, and starts the reception thread. ">
<polygon style="fill:white;stroke:black;" points="188,-90 188,-124 376,-124 376,-90 188,-90"/>
<text text-anchor="start" x="196" y="-110" style="font-family:Arial;font-size:10.00;">ThreadedTCPConnectedClient</text>
<text text-anchor="middle" x="282" y="-97" style="font-family:Arial;font-size:10.00;">::ThreadedTCPConnectedClient</text>
</a>
</g>
<!-- Node1&#45;&gt;Node3 -->
<g id="edge4" class="edge"><title>Node1&#45;&gt;Node3</title>
<path style="fill:none;stroke:midnightblue;" d="M162,-92C171,-93 179,-94 188,-95"/>
<polygon style="fill:midnightblue;stroke:midnightblue;" points="162.299,-88.5125 152,-91 161.602,-95.4778 162.299,-88.5125"/>
</g>
<!-- Node4 -->
<g id="node7" class="node"><title>Node4</title>
<a xlink:href="class_threaded_t_c_p_server.html#ac201656ab22b4ad07115d78cf8b7dd89" target="_top" xlink:title="Sets the notification callback. ">
<polygon style="fill:white;stroke:black;" points="210,-38 210,-72 354,-72 354,-38 210,-38"/>
<text text-anchor="start" x="218" y="-58" style="font-family:Arial;font-size:10.00;">ThreadedTCPServer::</text>
<text text-anchor="middle" x="282" y="-45" style="font-family:Arial;font-size:10.00;">SetNotificationCallback</text>
</a>
</g>
<!-- Node1&#45;&gt;Node4 -->
<g id="edge6" class="edge"><title>Node1&#45;&gt;Node4</title>
<path style="fill:none;stroke:midnightblue;" d="M162,-70C178,-68 194,-66 210,-64"/>
<polygon style="fill:midnightblue;stroke:midnightblue;" points="161.602,-66.5222 152,-71 162.299,-73.4875 161.602,-66.5222"/>
</g>
<!-- Node8 -->
<g id="node15" class="node"><title>Node8</title>
<a xlink:href="class_thread_base.html#a9e152f859a8ae5a8d76672f0b53da5c7" target="_top" xlink:title="Initializes values and starts the thread with the given input. ">
<polygon style="fill:white;stroke:black;" points="206,1 206,-20 358,-20 358,1 206,1"/>
<text text-anchor="middle" x="282" y="-6" style="font-family:Arial;font-size:10.00;">ThreadBase::ThreadBase</text>
</a>
</g>
<!-- Node1&#45;&gt;Node8 -->
<g id="edge14" class="edge"><title>Node1&#45;&gt;Node8</title>
<path style="fill:none;stroke:midnightblue;" d="M105,-65C127,-54 159,-39 188,-29 198,-25 210,-22 220,-20"/>
<polygon style="fill:midnightblue;stroke:midnightblue;" points="103.042,-62.084 96,-70 106.441,-68.2031 103.042,-62.084"/>
</g>
<!-- Node5 -->
<g id="node9" class="node"><title>Node5</title>
<a xlink:href="class_connection_manager.html#a7928f3e95b4e88b01c11eaf3e8089ee7" target="_top" xlink:title="Private constructor for singleton implementation. ">
<polygon style="fill:white;stroke:black;" points="445,-83 445,-117 578,-117 578,-83 445,-83"/>
<text text-anchor="start" x="453" y="-103" style="font-family:Arial;font-size:10.00;">ConnectionManager::</text>
<text text-anchor="middle" x="511" y="-90" style="font-family:Arial;font-size:10.00;">ConnectionManager</text>
</a>
</g>
<!-- Node4&#45;&gt;Node5 -->
<g id="edge8" class="edge"><title>Node4&#45;&gt;Node5</title>
<path style="fill:none;stroke:midnightblue;" d="M364,-71C390,-76 419,-82 445,-87"/>
<polygon style="fill:midnightblue;stroke:midnightblue;" points="364.492,-67.5292 354,-69 363.119,-74.3933 364.492,-67.5292"/>
</g>
<!-- Node6 -->
<g id="node11" class="node"><title>Node6</title>
<a xlink:href="class_control_manager.html#ab81bac3e592705b7ca4b23ce473fe26e" target="_top" xlink:title="Private constructor for singleton implementation. ">
<polygon style="fill:white;stroke:black;" points="412,-44 412,-65 610,-65 610,-44 412,-44"/>
<text text-anchor="middle" x="511" y="-51" style="font-family:Arial;font-size:10.00;">ControlManager::ControlManager</text>
</a>
</g>
<!-- Node4&#45;&gt;Node6 -->
<g id="edge10" class="edge"><title>Node4&#45;&gt;Node6</title>
<path style="fill:none;stroke:midnightblue;" d="M364,-55C379,-55 396,-55 412,-55"/>
<polygon style="fill:midnightblue;stroke:midnightblue;" points="364,-51.5001 354,-55 364,-58.5001 364,-51.5001"/>
</g>
<!-- Node7 -->
<g id="node13" class="node"><title>Node7</title>
<a xlink:href="class_matlab_manager.html#a319d996a8872d9cdba8cf335520af258" target="_top" xlink:title="Private constructor to implement the singleton. ">
<polygon style="fill:white;stroke:black;" points="415,-6 415,-27 607,-27 607,-6 415,-6"/>
<text text-anchor="middle" x="511" y="-13" style="font-family:Arial;font-size:10.00;">MatlabManager::MatlabManager</text>
</a>
</g>
<!-- Node4&#45;&gt;Node7 -->
<g id="edge12" class="edge"><title>Node4&#45;&gt;Node7</title>
<path style="fill:none;stroke:midnightblue;" d="M364,-41C393,-37 424,-31 451,-27"/>
<polygon style="fill:midnightblue;stroke:midnightblue;" points="363.119,-37.6067 354,-43 364.492,-44.4708 363.119,-37.6067"/>
</g>
</g>
</svg>
