<?xml version="1.0" encoding="UTF-8" standalone="no"?>
<!DOCTYPE svg PUBLIC "-//W3C//DTD SVG 1.0//EN"
 "http://www.w3.org/TR/2001/REC-SVG-20010904/DTD/svg10.dtd" [
 <!ATTLIST svg xmlns:xlink CDATA #FIXED "http://www.w3.org/1999/xlink">
]>
<!-- Generated by Graphviz version 2.14.1 (Fri Nov  9 08:19:38 GMT 2007)
     For user: (asakyurek) Alper Sinan Akyurek -->
<!-- Title: ConnectionManager::ConnectionManager Pages: 1 -->
<svg width="892pt" height="488pt"
 viewBox="0.00 0.00 892.00 488.00" xmlns="http://www.w3.org/2000/svg" xmlns:xlink="http://www.w3.org/1999/xlink">
<g id="graph0" class="graph" transform="scale(1 1) rotate(0) translate(4 484)">
<title>ConnectionManager::ConnectionManager</title>
<polygon style="fill:white;stroke:white;" points="-4,4 -4,-484 888,-484 888,4 -4,4"/>
<!-- Node1 -->
<g id="node1" class="node"><title>Node1</title>
<polygon style="fill:#bfbfbf;stroke:black;" points="1,-320 1,-354 134,-354 134,-320 1,-320"/>
<text text-anchor="start" x="9" y="-340" style="font-family:Arial;font-size:10.00;">ConnectionManager::</text>
<text text-anchor="middle" x="67" y="-327" style="font-family:Arial;font-size:10.00;">ConnectionManager</text>
</g>
<!-- Node2 -->
<g id="node3" class="node"><title>Node2</title>
<a xlink:href="class_t_c_p_server.html#a8d5ad30ba42960a84973b57f74a853fa" target="_top" xlink:title="Sets the listening port of the server. ">
<polygon style="fill:white;stroke:black;" points="205,-402 205,-423 322,-423 322,-402 205,-402"/>
<text text-anchor="middle" x="263" y="-409" style="font-family:Arial;font-size:10.00;">TCPServer::SetPort</text>
</a>
</g>
<!-- Node1&#45;&gt;Node2 -->
<g id="edge2" class="edge"><title>Node1&#45;&gt;Node2</title>
<path style="fill:none;stroke:midnightblue;" d="M111,-354C145,-367 193,-385 225,-398"/>
<polygon style="fill:midnightblue;stroke:midnightblue;" points="224.415,-401.536 235,-402 227.015,-395.036 224.415,-401.536"/>
</g>
<!-- Node9 -->
<g id="node17" class="node"><title>Node9</title>
<a xlink:href="class_threaded_t_c_p_server.html#ac201656ab22b4ad07115d78cf8b7dd89" target="_top" xlink:title="Sets the notification callback. ">
<polygon style="fill:white;stroke:black;" points="191,-320 191,-354 335,-354 335,-320 191,-320"/>
<text text-anchor="start" x="199" y="-340" style="font-family:Arial;font-size:10.00;">ThreadedTCPServer::</text>
<text text-anchor="middle" x="263" y="-327" style="font-family:Arial;font-size:10.00;">SetNotificationCallback</text>
</a>
</g>
<!-- Node1&#45;&gt;Node9 -->
<g id="edge16" class="edge"><title>Node1&#45;&gt;Node9</title>
<path style="fill:none;stroke:midnightblue;" d="M134,-337C149,-337 165,-337 181,-337"/>
<polygon style="fill:midnightblue;stroke:midnightblue;" points="181,-340.5 191,-337 181,-333.5 181,-340.5"/>
</g>
<!-- Node12 -->
<g id="node23" class="node"><title>Node12</title>
<a xlink:href="_connection_manager_8cpp.html#a510f5a0926d162b7f546fcf5b8f054e8" target="_top" xlink:title="ConnectionNotificationHandler">
<polygon style="fill:white;stroke:black;" points="171,-205 171,-226 356,-226 356,-205 171,-205"/>
<text text-anchor="middle" x="263" y="-212" style="font-family:Arial;font-size:10.00;">ConnectionNotificationHandler</text>
</a>
</g>
<!-- Node1&#45;&gt;Node12 -->
<g id="edge22" class="edge"><title>Node1&#45;&gt;Node12</title>
<path style="fill:none;stroke:midnightblue;" d="M95,-320C133,-297 201,-254 238,-231"/>
<polygon style="fill:midnightblue;stroke:midnightblue;" points="239.958,-233.916 247,-226 236.559,-227.797 239.958,-233.916"/>
</g>
<!-- Node3 -->
<g id="node5" class="node"><title>Node3</title>
<a xlink:href="class_i_p_address.html#ade47d25d834bfb952fcf7fb2867db21e" target="_top" xlink:title="Sets the address field of the structure. ">
<polygon style="fill:white;stroke:black;" points="417,-421 417,-442 550,-442 550,-421 417,-421"/>
<text text-anchor="middle" x="483" y="-428" style="font-family:Arial;font-size:10.00;">IPAddress::SetAddress</text>
</a>
</g>
<!-- Node2&#45;&gt;Node3 -->
<g id="edge4" class="edge"><title>Node2&#45;&gt;Node3</title>
<path style="fill:none;stroke:midnightblue;" d="M322,-418C348,-421 379,-423 407,-425"/>
<polygon style="fill:midnightblue;stroke:midnightblue;" points="406.701,-428.488 417,-426 407.398,-421.522 406.701,-428.488"/>
</g>
<!-- Node5 -->
<g id="node9" class="node"><title>Node5</title>
<a xlink:href="class_i_p_address.html#a5908d6242879f0e45685f8b0734dafa7" target="_top" xlink:title="Sets the port field of the structure. ">
<polygon style="fill:white;stroke:black;" points="427,-383 427,-404 539,-404 539,-383 427,-383"/>
<text text-anchor="middle" x="483" y="-390" style="font-family:Arial;font-size:10.00;">IPAddress::SetPort</text>
</a>
</g>
<!-- Node2&#45;&gt;Node5 -->
<g id="edge8" class="edge"><title>Node2&#45;&gt;Node5</title>
<path style="fill:none;stroke:midnightblue;" d="M322,-408C351,-405 387,-403 417,-400"/>
<polygon style="fill:midnightblue;stroke:midnightblue;" points="417.398,-403.478 427,-399 416.701,-396.512 417.398,-403.478"/>
</g>
<!-- Node7 -->
<g id="node13" class="node"><title>Node7</title>
<a xlink:href="class_t_c_p_server.html#a85bb8272c9599d98bcb28e4156a755fb" target="_top" xlink:title="Sets the IP address of the server. ">
<polygon style="fill:white;stroke:black;" points="414,-459 414,-480 552,-480 552,-459 414,-459"/>
<text text-anchor="middle" x="483" y="-466" style="font-family:Arial;font-size:10.00;">TCPServer::SetAddress</text>
</a>
</g>
<!-- Node2&#45;&gt;Node7 -->
<g id="edge12" class="edge"><title>Node2&#45;&gt;Node7</title>
<path style="fill:none;stroke:midnightblue;" d="M295,-423C321,-431 359,-442 392,-451 400,-453 409,-455 417,-457"/>
<polygon style="fill:midnightblue;stroke:midnightblue;" points="416.508,-460.471 427,-459 417.881,-453.607 416.508,-460.471"/>
</g>
<!-- Node4 -->
<g id="node7" class="node"><title>Node4</title>
<a xlink:href="class_i_p_address.html#a0c90b37a86811781d4422c0dd2d5b6b5" target="_top" xlink:title="Returns a reference to the address value. ">
<polygon style="fill:white;stroke:black;" points="619,-421 619,-442 753,-442 753,-421 619,-421"/>
<text text-anchor="middle" x="686" y="-428" style="font-family:Arial;font-size:10.00;">IPAddress::GetAddress</text>
</a>
</g>
<!-- Node3&#45;&gt;Node4 -->
<g id="edge6" class="edge"><title>Node3&#45;&gt;Node4</title>
<path style="fill:none;stroke:midnightblue;" d="M550,-432C569,-432 589,-432 609,-432"/>
<polygon style="fill:midnightblue;stroke:midnightblue;" points="609,-435.5 619,-432 609,-428.5 609,-435.5"/>
</g>
<!-- Node6 -->
<g id="node11" class="node"><title>Node6</title>
<a xlink:href="class_i_p_address.html#a5c8a6aeae1105603538c2661c68fd6bb" target="_top" xlink:title="Return a reference to the port value. ">
<polygon style="fill:white;stroke:black;" points="630,-383 630,-404 743,-404 743,-383 630,-383"/>
<text text-anchor="middle" x="686" y="-390" style="font-family:Arial;font-size:10.00;">IPAddress::GetPort</text>
</a>
</g>
<!-- Node5&#45;&gt;Node6 -->
<g id="edge10" class="edge"><title>Node5&#45;&gt;Node6</title>
<path style="fill:none;stroke:midnightblue;" d="M539,-394C564,-394 593,-394 620,-394"/>
<polygon style="fill:midnightblue;stroke:midnightblue;" points="620,-397.5 630,-394 620,-390.5 620,-397.5"/>
</g>
<!-- Node8 -->
<g id="node15" class="node"><title>Node8</title>
<a xlink:href="class_i_p_address.html#abdbc7cc25dc15d9e85ceb2e1d3125e22" target="_top" xlink:title="Returns the size of the socket structure. ">
<polygon style="fill:white;stroke:black;" points="610,-459 610,-480 762,-480 762,-459 610,-459"/>
<text text-anchor="middle" x="686" y="-466" style="font-family:Arial;font-size:10.00;">IPAddress::GetSocketSize</text>
</a>
</g>
<!-- Node7&#45;&gt;Node8 -->
<g id="edge14" class="edge"><title>Node7&#45;&gt;Node8</title>
<path style="fill:none;stroke:midnightblue;" d="M552,-470C568,-470 584,-470 600,-470"/>
<polygon style="fill:midnightblue;stroke:midnightblue;" points="600,-473.5 610,-470 600,-466.5 600,-473.5"/>
</g>
<!-- Node10 -->
<g id="node19" class="node"><title>Node10</title>
<a xlink:href="class_t_c_p_server.html#a2d424428c9107b8b40905f0aefc7d30b" target="_top" xlink:title="This method makes the server listen to incoming connection attempts. ">
<polygon style="fill:white;stroke:black;" points="428,-345 428,-366 538,-366 538,-345 428,-345"/>
<text text-anchor="middle" x="483" y="-352" style="font-family:Arial;font-size:10.00;">TCPServer::Listen</text>
</a>
</g>
<!-- Node9&#45;&gt;Node10 -->
<g id="edge18" class="edge"><title>Node9&#45;&gt;Node10</title>
<path style="fill:none;stroke:midnightblue;" d="M335,-343C361,-346 392,-348 418,-350"/>
<polygon style="fill:midnightblue;stroke:midnightblue;" points="417.701,-353.488 428,-351 418.398,-346.522 417.701,-353.488"/>
</g>
<!-- Node11 -->
<g id="node21" class="node"><title>Node11</title>
<a xlink:href="class_thread_base.html#aaea6437d738ac97e3427bbe466f850f8" target="_top" xlink:title="Creates a thread and starts executing with the given input. ">
<polygon style="fill:white;stroke:black;" points="407,-307 407,-328 559,-328 559,-307 407,-307"/>
<text text-anchor="middle" x="483" y="-314" style="font-family:Arial;font-size:10.00;">ThreadBase::StartThread</text>
</a>
</g>
<!-- Node9&#45;&gt;Node11 -->
<g id="edge20" class="edge"><title>Node9&#45;&gt;Node11</title>
<path style="fill:none;stroke:midnightblue;" d="M335,-331C355,-329 377,-328 397,-326"/>
<polygon style="fill:midnightblue;stroke:midnightblue;" points="397.398,-329.478 407,-325 396.701,-322.512 397.398,-329.478"/>
</g>
<!-- Node13 -->
<g id="node25" class="node"><title>Node13</title>
<a xlink:href="_log_print_8h.html#a7e0c5f42cad5bc3a44134fb9c9a7a052" target="_top" xlink:title="8 parameter log message ">
<polygon style="fill:white;stroke:black;" points="811,-182 811,-203 871,-203 871,-182 811,-182"/>
<text text-anchor="middle" x="841" y="-189" style="font-family:Arial;font-size:10.00;">LogPrint</text>
</a>
</g>
<!-- Node12&#45;&gt;Node13 -->
<g id="edge24" class="edge"><title>Node12&#45;&gt;Node13</title>
<path style="fill:none;stroke:midnightblue;" d="M289,-226C365,-254 592,-324 762,-261 789,-251 813,-228 827,-211"/>
<polygon style="fill:midnightblue;stroke:midnightblue;" points="829.8,-213.1 833,-203 824.2,-208.9 829.8,-213.1"/>
</g>
<!-- Node14 -->
<g id="node27" class="node"><title>Node14</title>
<a xlink:href="_connection_manager_8cpp.html#ab88124ce7a3bf1d2892d0e9763d1af30" target="_top" xlink:title="GetConnectionManager">
<polygon style="fill:white;stroke:black;" points="613,-179 613,-200 759,-200 759,-179 613,-179"/>
<text text-anchor="middle" x="686" y="-186" style="font-family:Arial;font-size:10.00;">GetConnectionManager</text>
</a>
</g>
<!-- Node12&#45;&gt;Node14 -->
<g id="edge26" class="edge"><title>Node12&#45;&gt;Node14</title>
<path style="fill:none;stroke:midnightblue;" d="M356,-210C430,-206 532,-200 603,-196"/>
<polygon style="fill:midnightblue;stroke:midnightblue;" points="603.398,-199.478 613,-195 602.701,-192.512 603.398,-199.478"/>
</g>
<!-- Node15 -->
<g id="node29" class="node"><title>Node15</title>
<a xlink:href="class_connection_manager.html#a54968c1176475aa513538691b75aedc9" target="_top" xlink:title="Incoming connection handler. ">
<polygon style="fill:white;stroke:black;" points="620,-218 620,-252 753,-252 753,-218 620,-218"/>
<text text-anchor="start" x="628" y="-238" style="font-family:Arial;font-size:10.00;">ConnectionManager::</text>
<text text-anchor="middle" x="686" y="-225" style="font-family:Arial;font-size:10.00;">IncomingConnection</text>
</a>
</g>
<!-- Node12&#45;&gt;Node15 -->
<g id="edge28" class="edge"><title>Node12&#45;&gt;Node15</title>
<path style="fill:none;stroke:midnightblue;" d="M356,-220C432,-224 538,-229 610,-232"/>
<polygon style="fill:midnightblue;stroke:midnightblue;" points="610,-235.5 620,-232 610,-228.5 610,-235.5"/>
</g>
<!-- Node16 -->
<g id="node32" class="node"><title>Node16</title>
<a xlink:href="class_threaded_t_c_p_connected_client.html#ae8f981925319c228443e0ef78ef0ae67" target="_top" xlink:title="Sets the notification callback function. ">
<polygon style="fill:white;stroke:black;" points="392,-135 392,-169 574,-169 574,-135 392,-135"/>
<text text-anchor="start" x="400" y="-155" style="font-family:Arial;font-size:10.00;">ThreadedTCPConnectedClient</text>
<text text-anchor="middle" x="483" y="-142" style="font-family:Arial;font-size:10.00;">::SetNotificationCallback</text>
</a>
</g>
<!-- Node12&#45;&gt;Node16 -->
<g id="edge32" class="edge"><title>Node12&#45;&gt;Node16</title>
<path style="fill:none;stroke:midnightblue;" d="M301,-205C332,-196 378,-183 415,-172"/>
<polygon style="fill:midnightblue;stroke:midnightblue;" points="416.427,-175.226 425,-169 414.416,-168.521 416.427,-175.226"/>
</g>
<!-- Node17 -->
<g id="node34" class="node"><title>Node17</title>
<a xlink:href="_connection_manager_8cpp.html#a2e30244a123626dc9199117c06d257ab" target="_top" xlink:title="Wrapper callback method for reception notification. ">
<polygon style="fill:white;stroke:black;" points="401,-96 401,-117 566,-117 566,-96 401,-96"/>
<text text-anchor="middle" x="483" y="-103" style="font-family:Arial;font-size:10.00;">ConnectionReceiveHandler</text>
</a>
</g>
<!-- Node12&#45;&gt;Node17 -->
<g id="edge34" class="edge"><title>Node12&#45;&gt;Node17</title>
<path style="fill:none;stroke:midnightblue;" d="M275,-205C297,-185 345,-146 392,-126 397,-124 402,-121 407,-120"/>
<polygon style="fill:midnightblue;stroke:midnightblue;" points="408.427,-123.226 417,-117 406.416,-116.521 408.427,-123.226"/>
</g>
<!-- Node15&#45;&gt;Node13 -->
<g id="edge30" class="edge"><title>Node15&#45;&gt;Node13</title>
<path style="fill:none;stroke:midnightblue;" d="M749,-218C766,-213 785,-208 801,-204"/>
<polygon style="fill:midnightblue;stroke:midnightblue;" points="802.427,-207.226 811,-201 800.416,-200.521 802.427,-207.226"/>
</g>
<!-- Node17&#45;&gt;Node13 -->
<g id="edge36" class="edge"><title>Node17&#45;&gt;Node13</title>
<path style="fill:none;stroke:midnightblue;" d="M535,-117C548,-120 561,-123 574,-126 658,-144 679,-149 762,-171 775,-174 788,-178 801,-181"/>
<polygon style="fill:midnightblue;stroke:midnightblue;" points="800.416,-184.479 811,-184 802.427,-177.774 800.416,-184.479"/>
</g>
<!-- Node17&#45;&gt;Node14 -->
<g id="edge40" class="edge"><title>Node17&#45;&gt;Node14</title>
<path style="fill:none;stroke:midnightblue;" d="M554,-117C561,-119 568,-122 574,-126 595,-137 590,-153 610,-166 615,-169 622,-173 628,-175"/>
<polygon style="fill:midnightblue;stroke:midnightblue;" points="627.415,-178.536 638,-179 630.015,-172.036 627.415,-178.536"/>
</g>
<!-- Node18 -->
<g id="node37" class="node"><title>Node18</title>
<a xlink:href="_log_print_8h.html#a46ea30a62534f8ce32cd39454e459b23" target="_top" xlink:title="6 parameter warning message ">
<polygon style="fill:white;stroke:black;" points="799,-28 799,-49 884,-49 884,-28 799,-28"/>
<text text-anchor="middle" x="841" y="-35" style="font-family:Arial;font-size:10.00;">WarningPrint</text>
</a>
</g>
<!-- Node17&#45;&gt;Node18 -->
<g id="edge38" class="edge"><title>Node17&#45;&gt;Node18</title>
<path style="fill:none;stroke:midnightblue;" d="M534,-96C557,-91 585,-85 610,-81 671,-70 743,-57 789,-49"/>
<polygon style="fill:midnightblue;stroke:midnightblue;" points="789.881,-52.3933 799,-47 788.508,-45.5292 789.881,-52.3933"/>
</g>
<!-- Node19 -->
<g id="node40" class="node"><title>Node19</title>
<a xlink:href="class_connection_manager.html#a64473b0369ab91daf3a2da6b8ef576d0" target="_top" xlink:title="Broken connection handler. ">
<polygon style="fill:white;stroke:black;" points="620,-0 620,-34 753,-34 753,-0 620,-0"/>
<text text-anchor="start" x="628" y="-20" style="font-family:Arial;font-size:10.00;">ConnectionManager::</text>
<text text-anchor="middle" x="686" y="-7" style="font-family:Arial;font-size:10.00;">BrokenConnection</text>
</a>
</g>
<!-- Node17&#45;&gt;Node19 -->
<g id="edge42" class="edge"><title>Node17&#45;&gt;Node19</title>
<path style="fill:none;stroke:midnightblue;" d="M506,-96C531,-84 573,-63 610,-48 618,-44 627,-41 635,-38"/>
<polygon style="fill:midnightblue;stroke:midnightblue;" points="636.283,-41.2598 644,-34 633.44,-34.8631 636.283,-41.2598"/>
</g>
<!-- Node20 -->
<g id="node43" class="node"><title>Node20</title>
<a xlink:href="class_connection_manager.html#a4657b51054ad28143f1bddd1f5cc282c" target="_top" xlink:title="New message processor. ">
<polygon style="fill:white;stroke:black;" points="620,-90 620,-124 753,-124 753,-90 620,-90"/>
<text text-anchor="start" x="628" y="-110" style="font-family:Arial;font-size:10.00;">ConnectionManager::</text>
<text text-anchor="middle" x="686" y="-97" style="font-family:Arial;font-size:10.00;">IncomingMessage</text>
</a>
</g>
<!-- Node17&#45;&gt;Node20 -->
<g id="edge46" class="edge"><title>Node17&#45;&gt;Node20</title>
<path style="fill:none;stroke:midnightblue;" d="M566,-107C580,-107 596,-107 610,-107"/>
<polygon style="fill:midnightblue;stroke:midnightblue;" points="610,-110.5 620,-107 610,-103.5 610,-110.5"/>
</g>
<!-- Node19&#45;&gt;Node18 -->
<g id="edge44" class="edge"><title>Node19&#45;&gt;Node18</title>
<path style="fill:none;stroke:midnightblue;" d="M753,-27C765,-29 777,-30 789,-32"/>
<polygon style="fill:midnightblue;stroke:midnightblue;" points="788.701,-35.4875 799,-33 789.398,-28.5222 788.701,-35.4875"/>
</g>
<!-- Node20&#45;&gt;Node13 -->
<g id="edge48" class="edge"><title>Node20&#45;&gt;Node13</title>
<path style="fill:none;stroke:midnightblue;" d="M733,-124C743,-128 753,-133 762,-138 782,-149 804,-164 819,-176"/>
<polygon style="fill:midnightblue;stroke:midnightblue;" points="816.9,-178.8 827,-182 821.1,-173.2 816.9,-178.8"/>
</g>
</g>
</svg>
