<?xml version="1.0" encoding="UTF-8" standalone="no"?>
<!DOCTYPE svg PUBLIC "-//W3C//DTD SVG 1.0//EN"
 "http://www.w3.org/TR/2001/REC-SVG-20010904/DTD/svg10.dtd" [
 <!ATTLIST svg xmlns:xlink CDATA #FIXED "http://www.w3.org/1999/xlink">
]>
<!-- Generated by Graphviz version 2.14.1 (Fri Nov  9 08:19:38 GMT 2007)
     For user: (asakyurek) Alper Sinan Akyurek -->
<!-- Title: ClientManager::ConnectionBroken Pages: 1 -->
<svg width="476pt" height="208pt"
 viewBox="0.00 0.00 476.00 208.00" xmlns="http://www.w3.org/2000/svg" xmlns:xlink="http://www.w3.org/1999/xlink">
<g id="graph0" class="graph" transform="scale(1 1) rotate(0) translate(4 204)">
<title>ClientManager::ConnectionBroken</title>
<polygon style="fill:white;stroke:white;" points="-4,4 -4,-204 472,-204 472,4 -4,4"/>
<!-- Node1 -->
<g id="node1" class="node"><title>Node1</title>
<polygon style="fill:#bfbfbf;stroke:black;" points="1,-90 1,-124 166,-124 166,-90 1,-90"/>
<text text-anchor="start" x="9" y="-110" style="font-family:Arial;font-size:10.00;">ClientManager::Connection</text>
<text text-anchor="middle" x="83" y="-97" style="font-family:Arial;font-size:10.00;">Broken</text>
</g>
<!-- Node2 -->
<g id="node3" class="node"><title>Node2</title>
<a xlink:href="_log_print_8h.html#a46ea30a62534f8ce32cd39454e459b23" target="_top" xlink:title="6 parameter warning message ">
<polygon style="fill:white;stroke:black;" points="245,-179 245,-200 330,-200 330,-179 245,-179"/>
<text text-anchor="middle" x="287" y="-186" style="font-family:Arial;font-size:10.00;">WarningPrint</text>
</a>
</g>
<!-- Node1&#45;&gt;Node2 -->
<g id="edge2" class="edge"><title>Node1&#45;&gt;Node2</title>
<path style="fill:none;stroke:midnightblue;" d="M110,-124C134,-139 169,-159 202,-171 213,-175 224,-178 235,-181"/>
<polygon style="fill:midnightblue;stroke:midnightblue;" points="234.508,-184.471 245,-183 235.881,-177.607 234.508,-184.471"/>
</g>
<!-- Node3 -->
<g id="node5" class="node"><title>Node3</title>
<a xlink:href="_control_manager_8cpp.html#a63bfd4667c9c70297f25ae5e5176818e" target="_top" xlink:title="Returns the only instance of ControlManager. ">
<polygon style="fill:white;stroke:black;" points="226,-141 226,-162 349,-162 349,-141 226,-141"/>
<text text-anchor="middle" x="287" y="-148" style="font-family:Arial;font-size:10.00;">GetControlManager</text>
</a>
</g>
<!-- Node1&#45;&gt;Node3 -->
<g id="edge4" class="edge"><title>Node1&#45;&gt;Node3</title>
<path style="fill:none;stroke:midnightblue;" d="M160,-124C182,-129 206,-134 227,-139"/>
<polygon style="fill:midnightblue;stroke:midnightblue;" points="226.508,-142.471 237,-141 227.881,-135.607 226.508,-142.471"/>
</g>
<!-- Node4 -->
<g id="node7" class="node"><title>Node4</title>
<a xlink:href="class_control_manager.html#ac3c913a01fe2e5e5467ad3d140c8e9a2" target="_top" xlink:title="Deletes a client from the maps when connection is broken. ">
<polygon style="fill:white;stroke:black;" points="203,-90 203,-124 372,-124 372,-90 203,-90"/>
<text text-anchor="start" x="211" y="-110" style="font-family:Arial;font-size:10.00;">ControlManager::UnRegister</text>
<text text-anchor="middle" x="287" y="-97" style="font-family:Arial;font-size:10.00;">Client</text>
</a>
</g>
<!-- Node1&#45;&gt;Node4 -->
<g id="edge6" class="edge"><title>Node1&#45;&gt;Node4</title>
<path style="fill:none;stroke:midnightblue;" d="M166,-107C175,-107 184,-107 193,-107"/>
<polygon style="fill:midnightblue;stroke:midnightblue;" points="193,-110.5 203,-107 193,-103.5 193,-110.5"/>
</g>
<!-- Node6 -->
<g id="node11" class="node"><title>Node6</title>
<a xlink:href="_connection_manager_8cpp.html#ab88124ce7a3bf1d2892d0e9763d1af30" target="_top" xlink:title="GetConnectionManager">
<polygon style="fill:white;stroke:black;" points="214,-51 214,-72 360,-72 360,-51 214,-51"/>
<text text-anchor="middle" x="287" y="-58" style="font-family:Arial;font-size:10.00;">GetConnectionManager</text>
</a>
</g>
<!-- Node1&#45;&gt;Node6 -->
<g id="edge10" class="edge"><title>Node1&#45;&gt;Node6</title>
<path style="fill:none;stroke:midnightblue;" d="M160,-90C183,-85 209,-79 231,-74"/>
<polygon style="fill:midnightblue;stroke:midnightblue;" points="231.881,-77.3933 241,-72 230.508,-70.5292 231.881,-77.3933"/>
</g>
<!-- Node7 -->
<g id="node13" class="node"><title>Node7</title>
<a xlink:href="class_connection_manager.html#afc67553cf1eff6ab251a5dd2a313e863" target="_top" xlink:title="Deletes the ClientManager from all lists and finally deletes itself. ">
<polygon style="fill:white;stroke:black;" points="221,-0 221,-34 354,-34 354,-0 221,-0"/>
<text text-anchor="start" x="229" y="-20" style="font-family:Arial;font-size:10.00;">ConnectionManager::</text>
<text text-anchor="middle" x="287" y="-7" style="font-family:Arial;font-size:10.00;">DeleteClient</text>
</a>
</g>
<!-- Node1&#45;&gt;Node7 -->
<g id="edge12" class="edge"><title>Node1&#45;&gt;Node7</title>
<path style="fill:none;stroke:midnightblue;" d="M111,-90C135,-76 170,-56 202,-43 207,-41 211,-39 216,-38"/>
<polygon style="fill:midnightblue;stroke:midnightblue;" points="217.283,-41.2598 225,-34 214.44,-34.8631 217.283,-41.2598"/>
</g>
<!-- Node5 -->
<g id="node9" class="node"><title>Node5</title>
<a xlink:href="_log_print_8h.html#a7e0c5f42cad5bc3a44134fb9c9a7a052" target="_top" xlink:title="8 parameter log message ">
<polygon style="fill:white;stroke:black;" points="408,-51 408,-72 468,-72 468,-51 408,-51"/>
<text text-anchor="middle" x="438" y="-58" style="font-family:Arial;font-size:10.00;">LogPrint</text>
</a>
</g>
<!-- Node4&#45;&gt;Node5 -->
<g id="edge8" class="edge"><title>Node4&#45;&gt;Node5</title>
<path style="fill:none;stroke:midnightblue;" d="M344,-90C362,-84 382,-78 398,-74"/>
<polygon style="fill:midnightblue;stroke:midnightblue;" points="399.427,-77.2259 408,-71 397.416,-70.5212 399.427,-77.2259"/>
</g>
<!-- Node7&#45;&gt;Node5 -->
<g id="edge14" class="edge"><title>Node7&#45;&gt;Node5</title>
<path style="fill:none;stroke:midnightblue;" d="M344,-34C362,-40 382,-46 398,-50"/>
<polygon style="fill:midnightblue;stroke:midnightblue;" points="397.416,-53.4788 408,-53 399.427,-46.7741 397.416,-53.4788"/>
</g>
</g>
</svg>
