<?xml version="1.0" encoding="UTF-8" standalone="no"?>
<!DOCTYPE svg PUBLIC "-//W3C//DTD SVG 1.0//EN"
 "http://www.w3.org/TR/2001/REC-SVG-20010904/DTD/svg10.dtd" [
 <!ATTLIST svg xmlns:xlink CDATA #FIXED "http://www.w3.org/1999/xlink">
]>
<!-- Generated by Graphviz version 2.14.1 (Fri Nov  9 08:19:38 GMT 2007)
     For user: (asakyurek) Alper Sinan Akyurek -->
<!-- Title: ThreadedTCPServer::SetNotificationCallback Pages: 1 -->
<svg width="340pt" height="66pt"
 viewBox="0.00 0.00 340.00 66.00" xmlns="http://www.w3.org/2000/svg" xmlns:xlink="http://www.w3.org/1999/xlink">
<g id="graph0" class="graph" transform="scale(1 1) rotate(0) translate(4 62)">
<title>ThreadedTCPServer::SetNotificationCallback</title>
<polygon style="fill:white;stroke:white;" points="-4,4 -4,-62 336,-62 336,4 -4,4"/>
<!-- Node1 -->
<g id="node1" class="node"><title>Node1</title>
<polygon style="fill:#bfbfbf;stroke:black;" points="0,-12 0,-46 144,-46 144,-12 0,-12"/>
<text text-anchor="start" x="8" y="-32" style="font-family:Arial;font-size:10.00;">ThreadedTCPServer::</text>
<text text-anchor="middle" x="72" y="-19" style="font-family:Arial;font-size:10.00;">SetNotificationCallback</text>
</g>
<!-- Node2 -->
<g id="node3" class="node"><title>Node2</title>
<a xlink:href="class_t_c_p_server.html#a2d424428c9107b8b40905f0aefc7d30b" target="_top" xlink:title="TCPServer::Listen">
<polygon style="fill:white;stroke:black;" points="201,-37 201,-58 311,-58 311,-37 201,-37"/>
<text text-anchor="middle" x="256" y="-44" style="font-family:Arial;font-size:10.00;">TCPServer::Listen</text>
</a>
</g>
<!-- Node1&#45;&gt;Node2 -->
<g id="edge2" class="edge"><title>Node1&#45;&gt;Node2</title>
<path style="fill:none;stroke:midnightblue;" d="M144,-36C159,-38 176,-39 191,-41"/>
<polygon style="fill:midnightblue;stroke:midnightblue;" points="190.701,-44.4875 201,-42 191.398,-37.5222 190.701,-44.4875"/>
</g>
<!-- Node3 -->
<g id="node5" class="node"><title>Node3</title>
<a xlink:href="class_thread_base.html#aaea6437d738ac97e3427bbe466f850f8" target="_top" xlink:title="ThreadBase::StartThread">
<polygon style="fill:white;stroke:black;" points="180,1 180,-20 332,-20 332,1 180,1"/>
<text text-anchor="middle" x="256" y="-6" style="font-family:Arial;font-size:10.00;">ThreadBase::StartThread</text>
</a>
</g>
<!-- Node1&#45;&gt;Node3 -->
<g id="edge4" class="edge"><title>Node1&#45;&gt;Node3</title>
<path style="fill:none;stroke:midnightblue;" d="M144,-22C153,-21 161,-20 170,-19"/>
<polygon style="fill:midnightblue;stroke:midnightblue;" points="170.398,-22.4778 180,-18 169.701,-15.5125 170.398,-22.4778"/>
</g>
</g>
</svg>
