<?xml version="1.0" encoding="UTF-8" standalone="no"?>
<!DOCTYPE svg PUBLIC "-//W3C//DTD SVG 1.0//EN"
 "http://www.w3.org/TR/2001/REC-SVG-20010904/DTD/svg10.dtd" [
 <!ATTLIST svg xmlns:xlink CDATA #FIXED "http://www.w3.org/1999/xlink">
]>
<!-- Generated by Graphviz version 2.14.1 (Fri Nov  9 08:19:38 GMT 2007)
     For user: (asakyurek) Alper Sinan Akyurek -->
<!-- Title: TerraSwarm::Synchronous::ClientConnectionRequest::GetClientName Pages: 1 -->
<svg width="380pt" height="54pt"
 viewBox="0.00 0.00 380.00 54.00" xmlns="http://www.w3.org/2000/svg" xmlns:xlink="http://www.w3.org/1999/xlink">
<g id="graph0" class="graph" transform="scale(1 1) rotate(0) translate(4 50)">
<title>TerraSwarm::Synchronous::ClientConnectionRequest::GetClientName</title>
<polygon style="fill:white;stroke:white;" points="-4,4 -4,-50 376,-50 376,4 -4,4"/>
<!-- Node1 -->
<g id="node1" class="node"><title>Node1</title>
<polygon style="fill:#bfbfbf;stroke:black;" points="1,1 1,-46 162,-46 162,1 1,1"/>
<text text-anchor="start" x="9" y="-32" style="font-family:Arial;font-size:10.00;">TerraSwarm::Synchronous</text>
<text text-anchor="start" x="9" y="-19" style="font-family:Arial;font-size:10.00;">::ClientConnectionRequest</text>
<text text-anchor="middle" x="81" y="-6" style="font-family:Arial;font-size:10.00;">::GetClientName</text>
</g>
<!-- Node2 -->
<g id="node3" class="node"><title>Node2</title>
<a xlink:href="class_client_manager.html#aeaa1090897b231a37c7e61b4f95067d1" target="_top" xlink:title="Processes an synchronous client connection request. ">
<polygon style="fill:white;stroke:black;" points="198,-6 198,-40 372,-40 372,-6 198,-6"/>
<text text-anchor="start" x="206" y="-26" style="font-family:Arial;font-size:10.00;">ClientManager::ProcessClient</text>
<text text-anchor="middle" x="285" y="-13" style="font-family:Arial;font-size:10.00;">ConnectionRequest</text>
</a>
</g>
<!-- Node1&#45;&gt;Node2 -->
<g id="edge2" class="edge"><title>Node1&#45;&gt;Node2</title>
<path style="fill:none;stroke:midnightblue;" d="M172,-23C181,-23 189,-23 198,-23"/>
<polygon style="fill:midnightblue;stroke:midnightblue;" points="172,-19.5001 162,-23 172,-26.5001 172,-19.5001"/>
</g>
</g>
</svg>
