<?xml version="1.0" encoding="UTF-8" standalone="no"?>
<!DOCTYPE svg PUBLIC "-//W3C//DTD SVG 1.0//EN"
 "http://www.w3.org/TR/2001/REC-SVG-20010904/DTD/svg10.dtd" [
 <!ATTLIST svg xmlns:xlink CDATA #FIXED "http://www.w3.org/1999/xlink">
]>
<!-- Generated by Graphviz version 2.14.1 (Fri Nov  9 08:19:38 GMT 2007)
     For user: (asakyurek) Alper Sinan Akyurek -->
<!-- Title: TerraSwarm::Asynchronous::ClientData::GetDataPoints Pages: 1 -->
<svg width="428pt" height="42pt"
 viewBox="0.00 0.00 428.00 42.00" xmlns="http://www.w3.org/2000/svg" xmlns:xlink="http://www.w3.org/1999/xlink">
<g id="graph0" class="graph" transform="scale(1 1) rotate(0) translate(4 38)">
<title>TerraSwarm::Asynchronous::ClientData::GetDataPoints</title>
<polygon style="fill:white;stroke:white;" points="-4,4 -4,-38 424,-38 424,4 -4,4"/>
<!-- Node1 -->
<g id="node1" class="node"><title>Node1</title>
<polygon style="fill:#bfbfbf;stroke:black;" points="1,-0 1,-34 164,-34 164,-0 1,-0"/>
<text text-anchor="start" x="9" y="-20" style="font-family:Arial;font-size:10.00;">TerraSwarm::Asynchronous</text>
<text text-anchor="middle" x="82" y="-7" style="font-family:Arial;font-size:10.00;">::ClientData::GetDataPoints</text>
</g>
<!-- Node2 -->
<g id="node3" class="node"><title>Node2</title>
<a xlink:href="class_terra_swarm_1_1_asynchronous_1_1_client_data.html#aba73075c35dd912dad8f99dd026b0785" target="_top" xlink:title="Reads the NumberOfDataPoints field. ">
<polygon style="fill:white;stroke:black;" points="200,-0 200,-34 420,-34 420,-0 200,-0"/>
<text text-anchor="start" x="208" y="-20" style="font-family:Arial;font-size:10.00;">TerraSwarm::Asynchronous</text>
<text text-anchor="middle" x="310" y="-7" style="font-family:Arial;font-size:10.00;">::ClientData::GetNumberOfDataPoints</text>
</a>
</g>
<!-- Node1&#45;&gt;Node2 -->
<g id="edge2" class="edge"><title>Node1&#45;&gt;Node2</title>
<path style="fill:none;stroke:midnightblue;" d="M164,-17C173,-17 181,-17 190,-17"/>
<polygon style="fill:midnightblue;stroke:midnightblue;" points="190,-20.5001 200,-17 190,-13.5001 190,-20.5001"/>
</g>
</g>
</svg>
