<?xml version="1.0" encoding="UTF-8" standalone="no"?>
<!DOCTYPE svg PUBLIC "-//W3C//DTD SVG 1.0//EN"
 "http://www.w3.org/TR/2001/REC-SVG-20010904/DTD/svg10.dtd" [
 <!ATTLIST svg xmlns:xlink CDATA #FIXED "http://www.w3.org/1999/xlink">
]>
<!-- Generated by Graphviz version 2.14.1 (Fri Nov  9 08:19:38 GMT 2007)
     For user: (asakyurek) Alper Sinan Akyurek -->
<!-- Title: MatlabManager::SetWattage Pages: 1 -->
<svg width="346pt" height="156pt"
 viewBox="0.00 0.00 346.00 156.00" xmlns="http://www.w3.org/2000/svg" xmlns:xlink="http://www.w3.org/1999/xlink">
<g id="graph0" class="graph" transform="scale(1 1) rotate(0) translate(4 152)">
<title>MatlabManager::SetWattage</title>
<polygon style="fill:white;stroke:white;" points="-4,4 -4,-152 342,-152 342,4 -4,4"/>
<!-- Node1 -->
<g id="node1" class="node"><title>Node1</title>
<polygon style="fill:#bfbfbf;stroke:black;" points="1,-66 1,-87 172,-87 172,-66 1,-66"/>
<text text-anchor="middle" x="86" y="-73" style="font-family:Arial;font-size:10.00;">MatlabManager::SetWattage</text>
</g>
<!-- Node2 -->
<g id="node3" class="node"><title>Node2</title>
<a xlink:href="_log_print_8h.html#a7e0c5f42cad5bc3a44134fb9c9a7a052" target="_top" xlink:title="LogPrint">
<polygon style="fill:white;stroke:black;" points="243,-127 243,-148 303,-148 303,-127 243,-127"/>
<text text-anchor="middle" x="273" y="-134" style="font-family:Arial;font-size:10.00;">LogPrint</text>
</a>
</g>
<!-- Node1&#45;&gt;Node2 -->
<g id="edge2" class="edge"><title>Node1&#45;&gt;Node2</title>
<path style="fill:none;stroke:midnightblue;" d="M115,-87C139,-96 176,-108 208,-119 216,-122 225,-124 233,-126"/>
<polygon style="fill:midnightblue;stroke:midnightblue;" points="232.416,-129.479 243,-129 234.427,-122.774 232.416,-129.479"/>
</g>
<!-- Node3 -->
<g id="node5" class="node"><title>Node3</title>
<a xlink:href="_log_print_8h.html#af783a2ea2c57c5f51f905a24f3f5a835" target="_top" xlink:title="ErrorPrint">
<polygon style="fill:white;stroke:black;" points="241,-89 241,-110 306,-110 306,-89 241,-89"/>
<text text-anchor="middle" x="273" y="-96" style="font-family:Arial;font-size:10.00;">ErrorPrint</text>
</a>
</g>
<!-- Node1&#45;&gt;Node3 -->
<g id="edge4" class="edge"><title>Node1&#45;&gt;Node3</title>
<path style="fill:none;stroke:midnightblue;" d="M167,-87C189,-90 212,-92 231,-95"/>
<polygon style="fill:midnightblue;stroke:midnightblue;" points="230.701,-98.4875 241,-96 231.398,-91.5222 230.701,-98.4875"/>
</g>
<!-- Node4 -->
<g id="node7" class="node"><title>Node4</title>
<a xlink:href="class_t_c_p_connected_client.html#a7c3a1d1172f3880b48d35ffbf255712d" target="_top" xlink:title="TCPConnectedClient\l::SendData">
<polygon style="fill:white;stroke:black;" points="209,-38 209,-72 338,-72 338,-38 209,-38"/>
<text text-anchor="start" x="217" y="-58" style="font-family:Arial;font-size:10.00;">TCPConnectedClient</text>
<text text-anchor="middle" x="273" y="-45" style="font-family:Arial;font-size:10.00;">::SendData</text>
</a>
</g>
<!-- Node1&#45;&gt;Node4 -->
<g id="edge6" class="edge"><title>Node1&#45;&gt;Node4</title>
<path style="fill:none;stroke:midnightblue;" d="M172,-67C181,-66 190,-65 199,-64"/>
<polygon style="fill:midnightblue;stroke:midnightblue;" points="199.398,-67.4778 209,-63 198.701,-60.5125 199.398,-67.4778"/>
</g>
<!-- Node5 -->
<g id="node9" class="node"><title>Node5</title>
<a xlink:href="_log_print_8h.html#a46ea30a62534f8ce32cd39454e459b23" target="_top" xlink:title="WarningPrint">
<polygon style="fill:white;stroke:black;" points="231,1 231,-20 316,-20 316,1 231,1"/>
<text text-anchor="middle" x="273" y="-6" style="font-family:Arial;font-size:10.00;">WarningPrint</text>
</a>
</g>
<!-- Node1&#45;&gt;Node5 -->
<g id="edge8" class="edge"><title>Node1&#45;&gt;Node5</title>
<path style="fill:none;stroke:midnightblue;" d="M111,-66C136,-56 174,-40 208,-29 214,-27 220,-25 226,-23"/>
<polygon style="fill:midnightblue;stroke:midnightblue;" points="227.427,-26.2259 236,-20 225.416,-19.5212 227.427,-26.2259"/>
</g>
</g>
</svg>
