<?xml version="1.0" encoding="UTF-8" standalone="no"?>
<!DOCTYPE svg PUBLIC "-//W3C//DTD SVG 1.0//EN"
 "http://www.w3.org/TR/2001/REC-SVG-20010904/DTD/svg10.dtd" [
 <!ATTLIST svg xmlns:xlink CDATA #FIXED "http://www.w3.org/1999/xlink">
]>
<!-- Generated by Graphviz version 2.14.1 (Fri Nov  9 08:19:38 GMT 2007)
     For user: (asakyurek) Alper Sinan Akyurek -->
<!-- Title: IPAddress::SetAddress Pages: 1 -->
<svg width="532pt" height="118pt"
 viewBox="0.00 0.00 532.00 118.00" xmlns="http://www.w3.org/2000/svg" xmlns:xlink="http://www.w3.org/1999/xlink">
<g id="graph0" class="graph" transform="scale(1 1) rotate(0) translate(4 114)">
<title>IPAddress::SetAddress</title>
<polygon style="fill:white;stroke:white;" points="-4,4 -4,-114 528,-114 528,4 -4,4"/>
<!-- Node1 -->
<g id="node1" class="node"><title>Node1</title>
<polygon style="fill:#bfbfbf;stroke:black;" points="1,-18 1,-39 134,-39 134,-18 1,-18"/>
<text text-anchor="middle" x="67" y="-25" style="font-family:Arial;font-size:10.00;">IPAddress::SetAddress</text>
</g>
<!-- Node2 -->
<g id="node3" class="node"><title>Node2</title>
<a xlink:href="class_t_c_p_server.html#a8d5ad30ba42960a84973b57f74a853fa" target="_top" xlink:title="Sets the listening port of the server. ">
<polygon style="fill:white;stroke:black;" points="172,-37 172,-58 289,-58 289,-37 172,-37"/>
<text text-anchor="middle" x="230" y="-44" style="font-family:Arial;font-size:10.00;">TCPServer::SetPort</text>
</a>
</g>
<!-- Node1&#45;&gt;Node2 -->
<g id="edge2" class="edge"><title>Node1&#45;&gt;Node2</title>
<path style="fill:none;stroke:midnightblue;" d="M144,-38C154,-39 163,-40 172,-41"/>
<polygon style="fill:midnightblue;stroke:midnightblue;" points="144.299,-34.5125 134,-37 143.602,-41.4778 144.299,-34.5125"/>
</g>
<!-- Node6 -->
<g id="node11" class="node"><title>Node6</title>
<a xlink:href="class_u_d_p_socket.html#a13165df1eb017e8ba2eba43a06a083ec" target="_top" xlink:title="Sets the port of the UDP Socket. ">
<polygon style="fill:white;stroke:black;" points="170,1 170,-20 290,-20 290,1 170,1"/>
<text text-anchor="middle" x="230" y="-6" style="font-family:Arial;font-size:10.00;">UDPSocket::SetPort</text>
</a>
</g>
<!-- Node1&#45;&gt;Node6 -->
<g id="edge10" class="edge"><title>Node1&#45;&gt;Node6</title>
<path style="fill:none;stroke:midnightblue;" d="M144,-20C153,-19 161,-18 170,-17"/>
<polygon style="fill:midnightblue;stroke:midnightblue;" points="143.602,-16.5222 134,-21 144.299,-23.4875 143.602,-16.5222"/>
</g>
<!-- Node3 -->
<g id="node5" class="node"><title>Node3</title>
<a xlink:href="class_connection_manager.html#a7928f3e95b4e88b01c11eaf3e8089ee7" target="_top" xlink:title="Private constructor for singleton implementation. ">
<polygon style="fill:white;stroke:black;" points="359,-76 359,-110 492,-110 492,-76 359,-76"/>
<text text-anchor="start" x="367" y="-96" style="font-family:Arial;font-size:10.00;">ConnectionManager::</text>
<text text-anchor="middle" x="425" y="-83" style="font-family:Arial;font-size:10.00;">ConnectionManager</text>
</a>
</g>
<!-- Node2&#45;&gt;Node3 -->
<g id="edge4" class="edge"><title>Node2&#45;&gt;Node3</title>
<path style="fill:none;stroke:midnightblue;" d="M284,-60C307,-66 335,-72 359,-78"/>
<polygon style="fill:midnightblue;stroke:midnightblue;" points="284.492,-56.5292 274,-58 283.119,-63.3933 284.492,-56.5292"/>
</g>
<!-- Node4 -->
<g id="node7" class="node"><title>Node4</title>
<a xlink:href="class_control_manager.html#ab81bac3e592705b7ca4b23ce473fe26e" target="_top" xlink:title="Private constructor for singleton implementation. ">
<polygon style="fill:white;stroke:black;" points="326,-37 326,-58 524,-58 524,-37 326,-37"/>
<text text-anchor="middle" x="425" y="-44" style="font-family:Arial;font-size:10.00;">ControlManager::ControlManager</text>
</a>
</g>
<!-- Node2&#45;&gt;Node4 -->
<g id="edge6" class="edge"><title>Node2&#45;&gt;Node4</title>
<path style="fill:none;stroke:midnightblue;" d="M299,-48C308,-48 317,-48 326,-48"/>
<polygon style="fill:midnightblue;stroke:midnightblue;" points="299,-44.5001 289,-48 299,-51.5001 299,-44.5001"/>
</g>
<!-- Node5 -->
<g id="node9" class="node"><title>Node5</title>
<a xlink:href="class_matlab_manager.html#a319d996a8872d9cdba8cf335520af258" target="_top" xlink:title="Private constructor to implement the singleton. ">
<polygon style="fill:white;stroke:black;" points="329,1 329,-20 521,-20 521,1 329,1"/>
<text text-anchor="middle" x="425" y="-6" style="font-family:Arial;font-size:10.00;">MatlabManager::MatlabManager</text>
</a>
</g>
<!-- Node2&#45;&gt;Node5 -->
<g id="edge8" class="edge"><title>Node2&#45;&gt;Node5</title>
<path style="fill:none;stroke:midnightblue;" d="M295,-35C306,-33 316,-31 326,-29 341,-26 357,-23 372,-20"/>
<polygon style="fill:midnightblue;stroke:midnightblue;" points="294.119,-31.6067 285,-37 295.492,-38.4708 294.119,-31.6067"/>
</g>
</g>
</svg>
