<?xml version="1.0" encoding="UTF-8" standalone="no"?>
<!DOCTYPE svg PUBLIC "-//W3C//DTD SVG 1.0//EN"
 "http://www.w3.org/TR/2001/REC-SVG-20010904/DTD/svg10.dtd" [
 <!ATTLIST svg xmlns:xlink CDATA #FIXED "http://www.w3.org/1999/xlink">
]>
<!-- Generated by Graphviz version 2.14.1 (Fri Nov  9 08:19:38 GMT 2007)
     For user: (asakyurek) Alper Sinan Akyurek -->
<!-- Title: IPAddress::GetAddress Pages: 1 -->
<svg width="704pt" height="118pt"
 viewBox="0.00 0.00 704.00 118.00" xmlns="http://www.w3.org/2000/svg" xmlns:xlink="http://www.w3.org/1999/xlink">
<g id="graph0" class="graph" transform="scale(1 1) rotate(0) translate(4 114)">
<title>IPAddress::GetAddress</title>
<polygon style="fill:white;stroke:white;" points="-4,4 -4,-114 700,-114 700,4 -4,4"/>
<!-- Node1 -->
<g id="node1" class="node"><title>Node1</title>
<polygon style="fill:#bfbfbf;stroke:black;" points="0,-37 0,-58 134,-58 134,-37 0,-37"/>
<text text-anchor="middle" x="67" y="-44" style="font-family:Arial;font-size:10.00;">IPAddress::GetAddress</text>
</g>
<!-- Node2 -->
<g id="node3" class="node"><title>Node2</title>
<a xlink:href="class_i_p_address.html#acaa3d485fedf874453d3fd0ab7e93a64" target="_top" xlink:title="IPAddress::operator==">
<polygon style="fill:white;stroke:black;" points="170,-56 170,-77 306,-77 306,-56 170,-56"/>
<text text-anchor="middle" x="238" y="-63" style="font-family:Arial;font-size:10.00;">IPAddress::operator==</text>
</a>
</g>
<!-- Node1&#45;&gt;Node2 -->
<g id="edge2" class="edge"><title>Node1&#45;&gt;Node2</title>
<path style="fill:none;stroke:midnightblue;" d="M144,-56C153,-57 161,-58 170,-59"/>
<polygon style="fill:midnightblue;stroke:midnightblue;" points="144.299,-52.5125 134,-55 143.602,-59.4778 144.299,-52.5125"/>
</g>
<!-- Node3 -->
<g id="node5" class="node"><title>Node3</title>
<a xlink:href="class_i_p_address.html#ade47d25d834bfb952fcf7fb2867db21e" target="_top" xlink:title="IPAddress::SetAddress">
<polygon style="fill:white;stroke:black;" points="172,-18 172,-39 305,-39 305,-18 172,-18"/>
<text text-anchor="middle" x="238" y="-25" style="font-family:Arial;font-size:10.00;">IPAddress::SetAddress</text>
</a>
</g>
<!-- Node1&#45;&gt;Node3 -->
<g id="edge4" class="edge"><title>Node1&#45;&gt;Node3</title>
<path style="fill:none;stroke:midnightblue;" d="M144,-40C153,-38 163,-37 172,-36"/>
<polygon style="fill:midnightblue;stroke:midnightblue;" points="143.602,-36.5222 134,-41 144.299,-43.4875 143.602,-36.5222"/>
</g>
<!-- Node4 -->
<g id="node7" class="node"><title>Node4</title>
<a xlink:href="class_t_c_p_server.html#a8d5ad30ba42960a84973b57f74a853fa" target="_top" xlink:title="TCPServer::SetPort">
<polygon style="fill:white;stroke:black;" points="344,-37 344,-58 461,-58 461,-37 344,-37"/>
<text text-anchor="middle" x="402" y="-44" style="font-family:Arial;font-size:10.00;">TCPServer::SetPort</text>
</a>
</g>
<!-- Node3&#45;&gt;Node4 -->
<g id="edge6" class="edge"><title>Node3&#45;&gt;Node4</title>
<path style="fill:none;stroke:midnightblue;" d="M315,-38C325,-39 334,-40 344,-41"/>
<polygon style="fill:midnightblue;stroke:midnightblue;" points="315.299,-34.5125 305,-37 314.602,-41.4778 315.299,-34.5125"/>
</g>
<!-- Node8 -->
<g id="node15" class="node"><title>Node8</title>
<a xlink:href="class_u_d_p_socket.html#a13165df1eb017e8ba2eba43a06a083ec" target="_top" xlink:title="UDPSocket::SetPort">
<polygon style="fill:white;stroke:black;" points="342,1 342,-20 462,-20 462,1 342,1"/>
<text text-anchor="middle" x="402" y="-6" style="font-family:Arial;font-size:10.00;">UDPSocket::SetPort</text>
</a>
</g>
<!-- Node3&#45;&gt;Node8 -->
<g id="edge14" class="edge"><title>Node3&#45;&gt;Node8</title>
<path style="fill:none;stroke:midnightblue;" d="M315,-20C324,-19 333,-18 342,-17"/>
<polygon style="fill:midnightblue;stroke:midnightblue;" points="314.602,-16.5222 305,-21 315.299,-23.4875 314.602,-16.5222"/>
</g>
<!-- Node5 -->
<g id="node9" class="node"><title>Node5</title>
<a xlink:href="class_connection_manager.html#a7928f3e95b4e88b01c11eaf3e8089ee7" target="_top" xlink:title="ConnectionManager::\lConnectionManager">
<polygon style="fill:white;stroke:black;" points="531,-76 531,-110 664,-110 664,-76 531,-76"/>
<text text-anchor="start" x="539" y="-96" style="font-family:Arial;font-size:10.00;">ConnectionManager::</text>
<text text-anchor="middle" x="597" y="-83" style="font-family:Arial;font-size:10.00;">ConnectionManager</text>
</a>
</g>
<!-- Node4&#45;&gt;Node5 -->
<g id="edge8" class="edge"><title>Node4&#45;&gt;Node5</title>
<path style="fill:none;stroke:midnightblue;" d="M456,-60C479,-66 507,-72 531,-78"/>
<polygon style="fill:midnightblue;stroke:midnightblue;" points="456.492,-56.5292 446,-58 455.119,-63.3933 456.492,-56.5292"/>
</g>
<!-- Node6 -->
<g id="node11" class="node"><title>Node6</title>
<a xlink:href="class_control_manager.html#ab81bac3e592705b7ca4b23ce473fe26e" target="_top" xlink:title="ControlManager::ControlManager">
<polygon style="fill:white;stroke:black;" points="498,-37 498,-58 696,-58 696,-37 498,-37"/>
<text text-anchor="middle" x="597" y="-44" style="font-family:Arial;font-size:10.00;">ControlManager::ControlManager</text>
</a>
</g>
<!-- Node4&#45;&gt;Node6 -->
<g id="edge10" class="edge"><title>Node4&#45;&gt;Node6</title>
<path style="fill:none;stroke:midnightblue;" d="M471,-48C480,-48 489,-48 498,-48"/>
<polygon style="fill:midnightblue;stroke:midnightblue;" points="471,-44.5001 461,-48 471,-51.5001 471,-44.5001"/>
</g>
<!-- Node7 -->
<g id="node13" class="node"><title>Node7</title>
<a xlink:href="class_matlab_manager.html#a319d996a8872d9cdba8cf335520af258" target="_top" xlink:title="MatlabManager::MatlabManager">
<polygon style="fill:white;stroke:black;" points="501,1 501,-20 693,-20 693,1 501,1"/>
<text text-anchor="middle" x="597" y="-6" style="font-family:Arial;font-size:10.00;">MatlabManager::MatlabManager</text>
</a>
</g>
<!-- Node4&#45;&gt;Node7 -->
<g id="edge12" class="edge"><title>Node4&#45;&gt;Node7</title>
<path style="fill:none;stroke:midnightblue;" d="M467,-35C478,-33 488,-31 498,-29 513,-26 529,-23 544,-20"/>
<polygon style="fill:midnightblue;stroke:midnightblue;" points="466.119,-31.6067 457,-37 467.492,-38.4708 466.119,-31.6067"/>
</g>
</g>
</svg>
