<?xml version="1.0" encoding="UTF-8" standalone="no"?>
<!DOCTYPE svg PUBLIC "-//W3C//DTD SVG 1.0//EN"
 "http://www.w3.org/TR/2001/REC-SVG-20010904/DTD/svg10.dtd" [
 <!ATTLIST svg xmlns:xlink CDATA #FIXED "http://www.w3.org/1999/xlink">
]>
<!-- Generated by Graphviz version 2.14.1 (Fri Nov  9 08:19:38 GMT 2007)
     For user: (asakyurek) Alper Sinan Akyurek -->
<!-- Title: ThreadedTCPConnectedClient Pages: 1 -->
<svg width="486pt" height="234pt"
 viewBox="0.00 0.00 486.00 234.00" xmlns="http://www.w3.org/2000/svg" xmlns:xlink="http://www.w3.org/1999/xlink">
<g id="graph0" class="graph" transform="scale(1 1) rotate(0) translate(4 230)">
<title>ThreadedTCPConnectedClient</title>
<polygon style="fill:white;stroke:white;" points="-4,4 -4,-230 482,-230 482,4 -4,4"/>
<!-- Node1 -->
<g id="node1" class="node"><title>Node1</title>
<polygon style="fill:#bfbfbf;stroke:black;" points="197,-0 197,-21 379,-21 379,-0 197,-0"/>
<text text-anchor="middle" x="288" y="-7" style="font-family:Arial;font-size:10.00;">ThreadedTCPConnectedClient</text>
</g>
<!-- Node1&#45;&gt;Node1 -->
<g id="edge12" class="edge"><title>Node1&#45;&gt;Node1</title>
<path style="fill:none;stroke:#9a32cd;stroke-dasharray:5,2;" d="M389,-14C394,-14 397,-12 397,-11 397,-9 390,-7 379,-7"/>
<polygon style="fill:#9a32cd;stroke:#9a32cd;" points="388.602,-10.5222 379,-15 389.299,-17.4875 388.602,-10.5222"/>
<text text-anchor="middle" x="437" y="-8" style="font-family:Arial;font-size:10.00;"> m_notification</text>
</g>
<!-- Node2 -->
<g id="node2" class="node"><title>Node2</title>
<a xlink:href="class_t_c_p_connected_client.html" target="_top" xlink:title="TCPConnectedClient">
<polygon style="fill:white;stroke:black;" points="133,-60 133,-81 262,-81 262,-60 133,-60"/>
<text text-anchor="middle" x="197" y="-67" style="font-family:Arial;font-size:10.00;">TCPConnectedClient</text>
</a>
</g>
<!-- Node2&#45;&gt;Node1 -->
<g id="edge2" class="edge"><title>Node2&#45;&gt;Node1</title>
<path style="fill:none;stroke:midnightblue;" d="M223,-54C239,-44 259,-30 273,-21"/>
<polygon style="fill:midnightblue;stroke:midnightblue;" points="220.379,-51.5408 214,-60 224.262,-57.3651 220.379,-51.5408"/>
</g>
<!-- Node3 -->
<g id="node4" class="node"><title>Node3</title>
<a xlink:href="class_socket_base.html" target="_top" xlink:title="SocketBase\&lt; SOCK_STREAM \&gt;">
<polygon style="fill:white;stroke:black;" points="0,-132 0,-153 182,-153 182,-132 0,-132"/>
<text text-anchor="middle" x="91" y="-139" style="font-family:Arial;font-size:10.00;">SocketBase&lt; SOCK_STREAM &gt;</text>
</a>
</g>
<!-- Node3&#45;&gt;Node2 -->
<g id="edge4" class="edge"><title>Node3&#45;&gt;Node2</title>
<path style="fill:none;stroke:midnightblue;" d="M116,-126C137,-112 165,-93 182,-81"/>
<polygon style="fill:midnightblue;stroke:midnightblue;" points="113.9,-123.2 108,-132 118.1,-128.8 113.9,-123.2"/>
</g>
<!-- Node4 -->
<g id="node6" class="node"><title>Node4</title>
<a xlink:href="class_socket_base.html" target="_top" xlink:title="SocketBase\&lt; SocketType \&gt;">
<polygon style="fill:white;stroke:black;" points="8,-204 8,-225 174,-225 174,-204 8,-204"/>
<text text-anchor="middle" x="91" y="-211" style="font-family:Arial;font-size:10.00;">SocketBase&lt; SocketType &gt;</text>
</a>
</g>
<!-- Node4&#45;&gt;Node3 -->
<g id="edge6" class="edge"><title>Node4&#45;&gt;Node3</title>
<path style="fill:none;stroke:orange;stroke-dasharray:5,2;" d="M91,-194C91,-180 91,-164 91,-153"/>
<polygon style="fill:orange;stroke:orange;" points="87.5001,-194 91,-204 94.5001,-194 87.5001,-194"/>
<text text-anchor="middle" x="144" y="-176" style="font-family:Arial;font-size:10.00;"> &lt; SOCK_STREAM &gt;</text>
</g>
<!-- Node5 -->
<g id="node8" class="node"><title>Node5</title>
<a xlink:href="class_i_p_address.html" target="_top" xlink:title="IPAddress">
<polygon style="fill:white;stroke:black;" points="200,-132 200,-153 267,-153 267,-132 200,-132"/>
<text text-anchor="middle" x="233" y="-139" style="font-family:Arial;font-size:10.00;">IPAddress</text>
</a>
</g>
<!-- Node5&#45;&gt;Node2 -->
<g id="edge8" class="edge"><title>Node5&#45;&gt;Node2</title>
<path style="fill:none;stroke:#9a32cd;stroke-dasharray:5,2;" d="M223,-123C216,-109 208,-92 202,-81"/>
<polygon style="fill:#9a32cd;stroke:#9a32cd;" points="219.74,-124.283 227,-132 226.137,-121.44 219.74,-124.283"/>
<text text-anchor="middle" x="266" y="-104" style="font-family:Arial;font-size:10.00;"> m_clientAddress</text>
</g>
<!-- Node6 -->
<g id="node10" class="node"><title>Node6</title>
<a xlink:href="class_thread_base.html" target="_top" xlink:title="ThreadBase">
<polygon style="fill:white;stroke:black;" points="279,-60 279,-81 360,-81 360,-60 279,-60"/>
<text text-anchor="middle" x="319" y="-67" style="font-family:Arial;font-size:10.00;">ThreadBase</text>
</a>
</g>
<!-- Node6&#45;&gt;Node1 -->
<g id="edge10" class="edge"><title>Node6&#45;&gt;Node1</title>
<path style="fill:none;stroke:#8b1a1a;" d="M308,-51C303,-41 298,-29 293,-21"/>
<polygon style="fill:#8b1a1a;stroke:#8b1a1a;" points="305.084,-52.9582 313,-60 311.203,-49.5586 305.084,-52.9582"/>
</g>
</g>
</svg>
