<?xml version="1.0" encoding="UTF-8" standalone="no"?>
<!DOCTYPE svg PUBLIC "-//W3C//DTD SVG 1.0//EN"
 "http://www.w3.org/TR/2001/REC-SVG-20010904/DTD/svg10.dtd" [
 <!ATTLIST svg xmlns:xlink CDATA #FIXED "http://www.w3.org/1999/xlink">
]>
<!-- Generated by Graphviz version 2.14.1 (Fri Nov  9 08:19:38 GMT 2007)
     For user: (asakyurek) Alper Sinan Akyurek -->
<!-- Title: TCPServer Pages: 1 -->
<svg width="205pt" height="222pt"
 viewBox="0.00 0.00 205.00 222.00" xmlns="http://www.w3.org/2000/svg" xmlns:xlink="http://www.w3.org/1999/xlink">
<g id="graph0" class="graph" transform="scale(1 1) rotate(0) translate(4 218)">
<title>TCPServer</title>
<polygon style="fill:white;stroke:white;" points="-4,4 -4,-218 201,-218 201,4 -4,4"/>
<!-- Node1 -->
<g id="node1" class="node"><title>Node1</title>
<polygon style="fill:#bfbfbf;stroke:black;" points="55,-60 55,-81 127,-81 127,-60 55,-60"/>
<text text-anchor="middle" x="91" y="-67" style="font-family:Arial;font-size:10.00;">TCPServer</text>
</g>
<!-- Node4 -->
<g id="node7" class="node"><title>Node4</title>
<a xlink:href="class_threaded_t_c_p_server.html" target="_top" xlink:title="Defines the threaded version of TCPServer that accepts clients in another thread in the background...">
<polygon style="fill:white;stroke:black;" points="29,-0 29,-21 154,-21 154,-0 29,-0"/>
<text text-anchor="middle" x="91" y="-7" style="font-family:Arial;font-size:10.00;">ThreadedTCPServer</text>
</a>
</g>
<!-- Node1&#45;&gt;Node4 -->
<g id="edge6" class="edge"><title>Node1&#45;&gt;Node4</title>
<path style="fill:none;stroke:midnightblue;" d="M91,-50C91,-40 91,-29 91,-21"/>
<polygon style="fill:midnightblue;stroke:midnightblue;" points="87.5001,-50 91,-60 94.5001,-50 87.5001,-50"/>
</g>
<!-- Node2 -->
<g id="node2" class="node"><title>Node2</title>
<a xlink:href="class_socket_base.html" target="_top" xlink:title="SocketBase\&lt; SOCK_STREAM \&gt;">
<polygon style="fill:white;stroke:black;" points="0,-120 0,-141 182,-141 182,-120 0,-120"/>
<text text-anchor="middle" x="91" y="-127" style="font-family:Arial;font-size:10.00;">SocketBase&lt; SOCK_STREAM &gt;</text>
</a>
</g>
<!-- Node2&#45;&gt;Node1 -->
<g id="edge2" class="edge"><title>Node2&#45;&gt;Node1</title>
<path style="fill:none;stroke:midnightblue;" d="M91,-110C91,-100 91,-89 91,-81"/>
<polygon style="fill:midnightblue;stroke:midnightblue;" points="87.5001,-110 91,-120 94.5001,-110 87.5001,-110"/>
</g>
<!-- Node3 -->
<g id="node4" class="node"><title>Node3</title>
<a xlink:href="class_socket_base.html" target="_top" xlink:title="This class is an abstraction over the OS socket and defines a base class for socket opening and closi...">
<polygon style="fill:white;stroke:black;" points="8,-192 8,-213 174,-213 174,-192 8,-192"/>
<text text-anchor="middle" x="91" y="-199" style="font-family:Arial;font-size:10.00;">SocketBase&lt; SocketType &gt;</text>
</a>
</g>
<!-- Node3&#45;&gt;Node2 -->
<g id="edge4" class="edge"><title>Node3&#45;&gt;Node2</title>
<path style="fill:none;stroke:orange;stroke-dasharray:5,2;" d="M91,-182C91,-168 91,-152 91,-141"/>
<polygon style="fill:orange;stroke:orange;" points="87.5001,-182 91,-192 94.5001,-182 87.5001,-182"/>
<text text-anchor="middle" x="144" y="-164" style="font-family:Arial;font-size:10.00;"> &lt; SOCK_STREAM &gt;</text>
</g>
</g>
</svg>
