<?xml version="1.0" encoding="UTF-8" standalone="no"?>
<!DOCTYPE svg PUBLIC "-//W3C//DTD SVG 1.0//EN"
 "http://www.w3.org/TR/2001/REC-SVG-20010904/DTD/svg10.dtd" [
 <!ATTLIST svg xmlns:xlink CDATA #FIXED "http://www.w3.org/1999/xlink">
]>
<!-- Generated by Graphviz version 2.14.1 (Fri Nov  9 08:19:38 GMT 2007)
     For user: (asakyurek) Alper Sinan Akyurek -->
<!-- Title: TerraSwarm::NetworkByteAccessor::Write Pages: 1 -->
<svg width="448pt" height="80pt"
 viewBox="0.00 0.00 448.00 80.00" xmlns="http://www.w3.org/2000/svg" xmlns:xlink="http://www.w3.org/1999/xlink">
<g id="graph0" class="graph" transform="scale(1 1) rotate(0) translate(4 76)">
<title>TerraSwarm::NetworkByteAccessor::Write</title>
<polygon style="fill:white;stroke:white;" points="-4,4 -4,-76 444,-76 444,4 -4,4"/>
<!-- Node1 -->
<g id="node1" class="node"><title>Node1</title>
<polygon style="fill:#bfbfbf;stroke:black;" points="0,-22 0,-56 202,-56 202,-22 0,-22"/>
<text text-anchor="start" x="8" y="-42" style="font-family:Arial;font-size:10.00;">TerraSwarm::NetworkByteAccessor</text>
<text text-anchor="middle" x="101" y="-29" style="font-family:Arial;font-size:10.00;">::Write</text>
</g>
<!-- Node2 -->
<g id="node3" class="node"><title>Node2</title>
<a xlink:href="class_size_check.html#a5e3ffed91b912bc4b3f8b3290dc64351" target="_top" xlink:title="Empty class that will only compile if the check passes. ">
<polygon style="fill:white;stroke:black;" points="283,-51 283,-72 396,-72 396,-51 283,-51"/>
<text text-anchor="middle" x="339" y="-58" style="font-family:Arial;font-size:10.00;">SizeCheck::Check</text>
</a>
</g>
<!-- Node1&#45;&gt;Node2 -->
<g id="edge2" class="edge"><title>Node1&#45;&gt;Node2</title>
<path style="fill:none;stroke:midnightblue;" d="M202,-49C226,-52 251,-53 273,-56"/>
<polygon style="fill:midnightblue;stroke:midnightblue;" points="272.701,-59.4875 283,-57 273.398,-52.5222 272.701,-59.4875"/>
</g>
<!-- Node3 -->
<g id="node5" class="node"><title>Node3</title>
<a xlink:href="class_terra_swarm_1_1_network_byte_accessor_1_1_endian_converter.html#ab43849574a96cddb8f398d93afaf8f91" target="_top" xlink:title="Converts the host byte order to the network byte order. ">
<polygon style="fill:white;stroke:black;" points="238,-0 238,-34 440,-34 440,-0 238,-0"/>
<text text-anchor="start" x="246" y="-20" style="font-family:Arial;font-size:10.00;">TerraSwarm::NetworkByteAccessor</text>
<text text-anchor="middle" x="339" y="-7" style="font-family:Arial;font-size:10.00;">::EndianConverter::HostToNetwork</text>
</a>
</g>
<!-- Node1&#45;&gt;Node3 -->
<g id="edge4" class="edge"><title>Node1&#45;&gt;Node3</title>
<path style="fill:none;stroke:midnightblue;" d="M202,-30C211,-29 219,-29 228,-28"/>
<polygon style="fill:midnightblue;stroke:midnightblue;" points="228.398,-31.4778 238,-27 227.701,-24.5125 228.398,-31.4778"/>
</g>
</g>
</svg>
