<?xml version="1.0" encoding="UTF-8" standalone="no"?>
<!DOCTYPE svg PUBLIC "-//W3C//DTD SVG 1.0//EN"
 "http://www.w3.org/TR/2001/REC-SVG-20010904/DTD/svg10.dtd" [
 <!ATTLIST svg xmlns:xlink CDATA #FIXED "http://www.w3.org/1999/xlink">
]>
<!-- Generated by Graphviz version 2.14.1 (Fri Nov  9 08:19:38 GMT 2007)
     For user: (asakyurek) Alper Sinan Akyurek -->
<!-- Title: ControlManager::MakeDecision Pages: 1 -->
<svg width="360pt" height="156pt"
 viewBox="0.00 0.00 360.00 156.00" xmlns="http://www.w3.org/2000/svg" xmlns:xlink="http://www.w3.org/1999/xlink">
<g id="graph0" class="graph" transform="scale(1 1) rotate(0) translate(4 152)">
<title>ControlManager::MakeDecision</title>
<polygon style="fill:white;stroke:white;" points="-4,4 -4,-152 356,-152 356,4 -4,4"/>
<!-- Node1 -->
<g id="node1" class="node"><title>Node1</title>
<polygon style="fill:#bfbfbf;stroke:black;" points="1,-70 1,-91 186,-91 186,-70 1,-70"/>
<text text-anchor="middle" x="93" y="-77" style="font-family:Arial;font-size:10.00;">ControlManager::MakeDecision</text>
</g>
<!-- Node2 -->
<g id="node3" class="node"><title>Node2</title>
<a xlink:href="_log_print_8h.html#a7e0c5f42cad5bc3a44134fb9c9a7a052" target="_top" xlink:title="LogPrint">
<polygon style="fill:white;stroke:black;" points="257,-127 257,-148 317,-148 317,-127 257,-127"/>
<text text-anchor="middle" x="287" y="-134" style="font-family:Arial;font-size:10.00;">LogPrint</text>
</a>
</g>
<!-- Node1&#45;&gt;Node2 -->
<g id="edge2" class="edge"><title>Node1&#45;&gt;Node2</title>
<path style="fill:none;stroke:midnightblue;" d="M127,-91C153,-99 190,-109 222,-119 230,-121 239,-124 247,-126"/>
<polygon style="fill:midnightblue;stroke:midnightblue;" points="246.416,-129.479 257,-129 248.427,-122.774 246.416,-129.479"/>
</g>
<!-- Node3 -->
<g id="node5" class="node"><title>Node3</title>
<a xlink:href="_system_manager_8cpp.html#a97e64f74d188d41051488578800d20cd" target="_top" xlink:title="GetSystemManager">
<polygon style="fill:white;stroke:black;" points="226,-89 226,-110 349,-110 349,-89 226,-89"/>
<text text-anchor="middle" x="287" y="-96" style="font-family:Arial;font-size:10.00;">GetSystemManager</text>
</a>
</g>
<!-- Node1&#45;&gt;Node3 -->
<g id="edge4" class="edge"><title>Node1&#45;&gt;Node3</title>
<path style="fill:none;stroke:midnightblue;" d="M186,-90C196,-91 206,-92 216,-93"/>
<polygon style="fill:midnightblue;stroke:midnightblue;" points="215.701,-96.4875 226,-94 216.398,-89.5222 215.701,-96.4875"/>
</g>
<!-- Node4 -->
<g id="node7" class="node"><title>Node4</title>
<a xlink:href="_matlab_manager_8cpp.html#adf11a697c41ba15207a66f8d2b567b75" target="_top" xlink:title="GetMatlabManager">
<polygon style="fill:white;stroke:black;" points="227,-51 227,-72 347,-72 347,-51 227,-51"/>
<text text-anchor="middle" x="287" y="-58" style="font-family:Arial;font-size:10.00;">GetMatlabManager</text>
</a>
</g>
<!-- Node1&#45;&gt;Node4 -->
<g id="edge6" class="edge"><title>Node1&#45;&gt;Node4</title>
<path style="fill:none;stroke:midnightblue;" d="M186,-72C196,-71 207,-70 217,-69"/>
<polygon style="fill:midnightblue;stroke:midnightblue;" points="217.398,-72.4778 227,-68 216.701,-65.5125 217.398,-72.4778"/>
</g>
<!-- Node5 -->
<g id="node9" class="node"><title>Node5</title>
<a xlink:href="class_t_c_p_connected_client.html#a7c3a1d1172f3880b48d35ffbf255712d" target="_top" xlink:title="TCPConnectedClient\l::SendData">
<polygon style="fill:white;stroke:black;" points="223,-0 223,-34 352,-34 352,-0 223,-0"/>
<text text-anchor="start" x="231" y="-20" style="font-family:Arial;font-size:10.00;">TCPConnectedClient</text>
<text text-anchor="middle" x="287" y="-7" style="font-family:Arial;font-size:10.00;">::SendData</text>
</a>
</g>
<!-- Node1&#45;&gt;Node5 -->
<g id="edge8" class="edge"><title>Node1&#45;&gt;Node5</title>
<path style="fill:none;stroke:midnightblue;" d="M126,-70C153,-61 193,-48 226,-37"/>
<polygon style="fill:midnightblue;stroke:midnightblue;" points="227.427,-40.2259 236,-34 225.416,-33.5212 227.427,-40.2259"/>
</g>
</g>
</svg>
