<?xml version="1.0" encoding="UTF-8" standalone="no"?>
<!DOCTYPE svg PUBLIC "-//W3C//DTD SVG 1.0//EN"
 "http://www.w3.org/TR/2001/REC-SVG-20010904/DTD/svg10.dtd" [
 <!ATTLIST svg xmlns:xlink CDATA #FIXED "http://www.w3.org/1999/xlink">
]>
<!-- Generated by Graphviz version 2.14.1 (Fri Nov  9 08:19:38 GMT 2007)
     For user: (asakyurek) Alper Sinan Akyurek -->
<!-- Title: MatlabManager::AdvanceTimeStep Pages: 1 -->
<svg width="542pt" height="28pt"
 viewBox="0.00 0.00 542.00 28.00" xmlns="http://www.w3.org/2000/svg" xmlns:xlink="http://www.w3.org/1999/xlink">
<g id="graph0" class="graph" transform="scale(1 1) rotate(0) translate(4 24)">
<title>MatlabManager::AdvanceTimeStep</title>
<polygon style="fill:white;stroke:white;" points="-4,4 -4,-24 538,-24 538,4 -4,4"/>
<!-- Node1 -->
<g id="node1" class="node"><title>Node1</title>
<polygon style="fill:#bfbfbf;stroke:black;" points="1,1 1,-20 208,-20 208,1 1,1"/>
<text text-anchor="middle" x="104" y="-6" style="font-family:Arial;font-size:10.00;">MatlabManager::AdvanceTimeStep</text>
</g>
<!-- Node2 -->
<g id="node3" class="node"><title>Node2</title>
<a xlink:href="class_system_manager.html#a87443d7e75b0f170535d315c27237253" target="_top" xlink:title="SystemManager::AdvanceTimeStep">
<polygon style="fill:white;stroke:black;" points="244,1 244,-20 454,-20 454,1 244,1"/>
<text text-anchor="middle" x="349" y="-6" style="font-family:Arial;font-size:10.00;">SystemManager::AdvanceTimeStep</text>
</a>
</g>
<!-- Node1&#45;&gt;Node2 -->
<g id="edge2" class="edge"><title>Node1&#45;&gt;Node2</title>
<path style="fill:none;stroke:midnightblue;" d="M218,-10C227,-10 235,-10 244,-10"/>
<polygon style="fill:midnightblue;stroke:midnightblue;" points="218,-6.5001 208,-10 218,-13.5001 218,-6.5001"/>
</g>
<!-- Node3 -->
<g id="node5" class="node"><title>Node3</title>
<a xlink:href="main_8cpp.html#a3c04138a5bfe5d72780bb7e82a18e627" target="_top" xlink:title="main">
<polygon style="fill:white;stroke:black;" points="490,1 490,-20 534,-20 534,1 490,1"/>
<text text-anchor="middle" x="512" y="-6" style="font-family:Arial;font-size:10.00;">main</text>
</a>
</g>
<!-- Node2&#45;&gt;Node3 -->
<g id="edge4" class="edge"><title>Node2&#45;&gt;Node3</title>
<path style="fill:none;stroke:midnightblue;" d="M464,-10C474,-10 483,-10 490,-10"/>
<polygon style="fill:midnightblue;stroke:midnightblue;" points="464,-6.5001 454,-10 464,-13.5001 464,-6.5001"/>
</g>
</g>
</svg>
