<?xml version="1.0" encoding="UTF-8" standalone="no"?>
<!DOCTYPE svg PUBLIC "-//W3C//DTD SVG 1.0//EN"
 "http://www.w3.org/TR/2001/REC-SVG-20010904/DTD/svg10.dtd" [
 <!ATTLIST svg xmlns:xlink CDATA #FIXED "http://www.w3.org/1999/xlink">
]>
<!-- Generated by Graphviz version 2.14.1 (Fri Nov  9 08:19:38 GMT 2007)
     For user: (asakyurek) Alper Sinan Akyurek -->
<!-- Title: ThreadedTCPClient Pages: 1 -->
<svg width="328pt" height="222pt"
 viewBox="0.00 0.00 328.00 222.00" xmlns="http://www.w3.org/2000/svg" xmlns:xlink="http://www.w3.org/1999/xlink">
<g id="graph0" class="graph" transform="scale(1 1) rotate(0) translate(4 218)">
<title>ThreadedTCPClient</title>
<polygon style="fill:white;stroke:white;" points="-4,4 -4,-218 324,-218 324,4 -4,4"/>
<!-- Node1 -->
<g id="node1" class="node"><title>Node1</title>
<polygon style="fill:#bfbfbf;stroke:black;" points="99,-0 99,-21 221,-21 221,-0 99,-0"/>
<text text-anchor="middle" x="160" y="-7" style="font-family:Arial;font-size:10.00;">ThreadedTCPClient</text>
</g>
<!-- Node1&#45;&gt;Node1 -->
<g id="edge10" class="edge"><title>Node1&#45;&gt;Node1</title>
<path style="fill:none;stroke:#9a32cd;stroke-dasharray:5,2;" d="M231,-15C236,-14 239,-13 239,-11 239,-8 232,-7 221,-6"/>
<polygon style="fill:#9a32cd;stroke:#9a32cd;" points="230.602,-11.5222 221,-16 231.299,-18.4875 230.602,-11.5222"/>
<text text-anchor="middle" x="279" y="-8" style="font-family:Arial;font-size:10.00;"> m_notification</text>
</g>
<!-- Node2 -->
<g id="node2" class="node"><title>Node2</title>
<a xlink:href="class_t_c_p_client.html" target="_top" xlink:title="This class defines a TCP client that can connect to a TCP server and communicate. ...">
<polygon style="fill:white;stroke:black;" points="57,-60 57,-81 126,-81 126,-60 57,-60"/>
<text text-anchor="middle" x="91" y="-67" style="font-family:Arial;font-size:10.00;">TCPClient</text>
</a>
</g>
<!-- Node2&#45;&gt;Node1 -->
<g id="edge2" class="edge"><title>Node2&#45;&gt;Node1</title>
<path style="fill:none;stroke:midnightblue;" d="M112,-53C124,-43 138,-30 148,-21"/>
<polygon style="fill:midnightblue;stroke:midnightblue;" points="109.221,-50.7809 104,-60 113.831,-56.0489 109.221,-50.7809"/>
</g>
<!-- Node3 -->
<g id="node4" class="node"><title>Node3</title>
<a xlink:href="class_socket_base.html" target="_top" xlink:title="SocketBase\&lt; SOCK_STREAM \&gt;">
<polygon style="fill:white;stroke:black;" points="0,-120 0,-141 182,-141 182,-120 0,-120"/>
<text text-anchor="middle" x="91" y="-127" style="font-family:Arial;font-size:10.00;">SocketBase&lt; SOCK_STREAM &gt;</text>
</a>
</g>
<!-- Node3&#45;&gt;Node2 -->
<g id="edge4" class="edge"><title>Node3&#45;&gt;Node2</title>
<path style="fill:none;stroke:midnightblue;" d="M91,-110C91,-100 91,-89 91,-81"/>
<polygon style="fill:midnightblue;stroke:midnightblue;" points="87.5001,-110 91,-120 94.5001,-110 87.5001,-110"/>
</g>
<!-- Node4 -->
<g id="node6" class="node"><title>Node4</title>
<a xlink:href="class_socket_base.html" target="_top" xlink:title="This class is an abstraction over the OS socket and defines a base class for socket opening and closi...">
<polygon style="fill:white;stroke:black;" points="8,-192 8,-213 174,-213 174,-192 8,-192"/>
<text text-anchor="middle" x="91" y="-199" style="font-family:Arial;font-size:10.00;">SocketBase&lt; SocketType &gt;</text>
</a>
</g>
<!-- Node4&#45;&gt;Node3 -->
<g id="edge6" class="edge"><title>Node4&#45;&gt;Node3</title>
<path style="fill:none;stroke:orange;stroke-dasharray:5,2;" d="M91,-182C91,-168 91,-152 91,-141"/>
<polygon style="fill:orange;stroke:orange;" points="87.5001,-182 91,-192 94.5001,-182 87.5001,-182"/>
<text text-anchor="middle" x="144" y="-164" style="font-family:Arial;font-size:10.00;"> &lt; SOCK_STREAM &gt;</text>
</g>
<!-- Node5 -->
<g id="node8" class="node"><title>Node5</title>
<a xlink:href="class_thread_base.html" target="_top" xlink:title="Provides a base class that can be inherited from to gain threading capabilities. ">
<polygon style="fill:white;stroke:black;" points="143,-60 143,-81 224,-81 224,-60 143,-60"/>
<text text-anchor="middle" x="183" y="-67" style="font-family:Arial;font-size:10.00;">ThreadBase</text>
</a>
</g>
<!-- Node5&#45;&gt;Node1 -->
<g id="edge8" class="edge"><title>Node5&#45;&gt;Node1</title>
<path style="fill:none;stroke:#8b1a1a;" d="M175,-51C172,-41 167,-29 164,-21"/>
<polygon style="fill:#8b1a1a;stroke:#8b1a1a;" points="171.74,-52.2834 179,-60 178.137,-49.4404 171.74,-52.2834"/>
</g>
</g>
</svg>
