<?xml version="1.0" encoding="UTF-8" standalone="no"?>
<!DOCTYPE svg PUBLIC "-//W3C//DTD SVG 1.0//EN"
 "http://www.w3.org/TR/2001/REC-SVG-20010904/DTD/svg10.dtd" [
 <!ATTLIST svg xmlns:xlink CDATA #FIXED "http://www.w3.org/1999/xlink">
]>
<!-- Generated by Graphviz version 2.14.1 (Fri Nov  9 08:19:38 GMT 2007)
     For user: (asakyurek) Alper Sinan Akyurek -->
<!-- Title: ThreadBase::StartThread Pages: 1 -->
<svg width="618pt" height="222pt"
 viewBox="0.00 0.00 618.00 222.00" xmlns="http://www.w3.org/2000/svg" xmlns:xlink="http://www.w3.org/1999/xlink">
<g id="graph0" class="graph" transform="scale(1 1) rotate(0) translate(4 218)">
<title>ThreadBase::StartThread</title>
<polygon style="fill:white;stroke:white;" points="-4,4 -4,-218 614,-218 614,4 -4,4"/>
<!-- Node1 -->
<g id="node1" class="node"><title>Node1</title>
<polygon style="fill:#bfbfbf;stroke:black;" points="0,-82 0,-103 152,-103 152,-82 0,-82"/>
<text text-anchor="middle" x="76" y="-89" style="font-family:Arial;font-size:10.00;">ThreadBase::StartThread</text>
</g>
<!-- Node2 -->
<g id="node3" class="node"><title>Node2</title>
<a xlink:href="class_threaded_t_c_p_client.html#aee05df10793942b468883521a5bcc666" target="_top" xlink:title="ThreadedTCPClient::\lThreadedTCPClient">
<polygon style="fill:white;stroke:black;" points="218,-180 218,-214 346,-214 346,-180 218,-180"/>
<text text-anchor="start" x="226" y="-200" style="font-family:Arial;font-size:10.00;">ThreadedTCPClient::</text>
<text text-anchor="middle" x="282" y="-187" style="font-family:Arial;font-size:10.00;">ThreadedTCPClient</text>
</a>
</g>
<!-- Node1&#45;&gt;Node2 -->
<g id="edge2" class="edge"><title>Node1&#45;&gt;Node2</title>
<path style="fill:none;stroke:midnightblue;" d="M96,-110C117,-127 154,-154 188,-171 197,-175 208,-179 218,-182"/>
<polygon style="fill:midnightblue;stroke:midnightblue;" points="97.8306,-106.951 88,-103 93.221,-112.219 97.8306,-106.951"/>
</g>
<!-- Node3 -->
<g id="node5" class="node"><title>Node3</title>
<a xlink:href="class_threaded_t_c_p_connected_client.html#ae91cbb1c8769f9495d1f3a37258a4307" target="_top" xlink:title="ThreadedTCPConnectedClient\l::ThreadedTCPConnectedClient">
<polygon style="fill:white;stroke:black;" points="188,-128 188,-162 376,-162 376,-128 188,-128"/>
<text text-anchor="start" x="196" y="-148" style="font-family:Arial;font-size:10.00;">ThreadedTCPConnectedClient</text>
<text text-anchor="middle" x="282" y="-135" style="font-family:Arial;font-size:10.00;">::ThreadedTCPConnectedClient</text>
</a>
</g>
<!-- Node1&#45;&gt;Node3 -->
<g id="edge4" class="edge"><title>Node1&#45;&gt;Node3</title>
<path style="fill:none;stroke:midnightblue;" d="M126,-105C153,-112 186,-121 215,-128"/>
<polygon style="fill:midnightblue;stroke:midnightblue;" points="126.492,-101.529 116,-103 125.119,-108.393 126.492,-101.529"/>
</g>
<!-- Node4 -->
<g id="node7" class="node"><title>Node4</title>
<a xlink:href="class_threaded_t_c_p_server.html#ac201656ab22b4ad07115d78cf8b7dd89" target="_top" xlink:title="ThreadedTCPServer::\lSetNotificationCallback">
<polygon style="fill:white;stroke:black;" points="210,-76 210,-110 354,-110 354,-76 210,-76"/>
<text text-anchor="start" x="218" y="-96" style="font-family:Arial;font-size:10.00;">ThreadedTCPServer::</text>
<text text-anchor="middle" x="282" y="-83" style="font-family:Arial;font-size:10.00;">SetNotificationCallback</text>
</a>
</g>
<!-- Node1&#45;&gt;Node4 -->
<g id="edge6" class="edge"><title>Node1&#45;&gt;Node4</title>
<path style="fill:none;stroke:midnightblue;" d="M162,-93C178,-93 194,-93 210,-93"/>
<polygon style="fill:midnightblue;stroke:midnightblue;" points="162,-89.5001 152,-93 162,-96.5001 162,-89.5001"/>
</g>
<!-- Node8 -->
<g id="node15" class="node"><title>Node8</title>
<a xlink:href="class_thread_base.html#a9e152f859a8ae5a8d76672f0b53da5c7" target="_top" xlink:title="ThreadBase::ThreadBase">
<polygon style="fill:white;stroke:black;" points="206,-37 206,-58 358,-58 358,-37 206,-37"/>
<text text-anchor="middle" x="282" y="-44" style="font-family:Arial;font-size:10.00;">ThreadBase::ThreadBase</text>
</a>
</g>
<!-- Node1&#45;&gt;Node8 -->
<g id="edge14" class="edge"><title>Node1&#45;&gt;Node8</title>
<path style="fill:none;stroke:midnightblue;" d="M131,-80C149,-75 169,-70 188,-67 201,-64 216,-61 229,-58"/>
<polygon style="fill:midnightblue;stroke:midnightblue;" points="130.119,-76.6067 121,-82 131.492,-83.4708 130.119,-76.6067"/>
</g>
<!-- Node9 -->
<g id="node17" class="node"><title>Node9</title>
<a xlink:href="test_8cpp.html#a3c04138a5bfe5d72780bb7e82a18e627" target="_top" xlink:title="main">
<polygon style="fill:white;stroke:black;" points="260,1 260,-20 304,-20 304,1 260,1"/>
<text text-anchor="middle" x="282" y="-6" style="font-family:Arial;font-size:10.00;">main</text>
</a>
</g>
<!-- Node1&#45;&gt;Node9 -->
<g id="edge16" class="edge"><title>Node1&#45;&gt;Node9</title>
<path style="fill:none;stroke:midnightblue;" d="M100,-76C122,-62 156,-41 188,-29 212,-21 240,-16 260,-13"/>
<polygon style="fill:midnightblue;stroke:midnightblue;" points="97.9,-73.2 92,-82 102.1,-78.8 97.9,-73.2"/>
</g>
<!-- Node5 -->
<g id="node9" class="node"><title>Node5</title>
<a xlink:href="class_connection_manager.html#a7928f3e95b4e88b01c11eaf3e8089ee7" target="_top" xlink:title="ConnectionManager::\lConnectionManager">
<polygon style="fill:white;stroke:black;" points="445,-121 445,-155 578,-155 578,-121 445,-121"/>
<text text-anchor="start" x="453" y="-141" style="font-family:Arial;font-size:10.00;">ConnectionManager::</text>
<text text-anchor="middle" x="511" y="-128" style="font-family:Arial;font-size:10.00;">ConnectionManager</text>
</a>
</g>
<!-- Node4&#45;&gt;Node5 -->
<g id="edge8" class="edge"><title>Node4&#45;&gt;Node5</title>
<path style="fill:none;stroke:midnightblue;" d="M364,-109C390,-114 419,-120 445,-125"/>
<polygon style="fill:midnightblue;stroke:midnightblue;" points="364.492,-105.529 354,-107 363.119,-112.393 364.492,-105.529"/>
</g>
<!-- Node6 -->
<g id="node11" class="node"><title>Node6</title>
<a xlink:href="class_control_manager.html#ab81bac3e592705b7ca4b23ce473fe26e" target="_top" xlink:title="ControlManager::ControlManager">
<polygon style="fill:white;stroke:black;" points="412,-82 412,-103 610,-103 610,-82 412,-82"/>
<text text-anchor="middle" x="511" y="-89" style="font-family:Arial;font-size:10.00;">ControlManager::ControlManager</text>
</a>
</g>
<!-- Node4&#45;&gt;Node6 -->
<g id="edge10" class="edge"><title>Node4&#45;&gt;Node6</title>
<path style="fill:none;stroke:midnightblue;" d="M364,-93C379,-93 396,-93 412,-93"/>
<polygon style="fill:midnightblue;stroke:midnightblue;" points="364,-89.5001 354,-93 364,-96.5001 364,-89.5001"/>
</g>
<!-- Node7 -->
<g id="node13" class="node"><title>Node7</title>
<a xlink:href="class_matlab_manager.html#a319d996a8872d9cdba8cf335520af258" target="_top" xlink:title="MatlabManager::MatlabManager">
<polygon style="fill:white;stroke:black;" points="415,-44 415,-65 607,-65 607,-44 415,-44"/>
<text text-anchor="middle" x="511" y="-51" style="font-family:Arial;font-size:10.00;">MatlabManager::MatlabManager</text>
</a>
</g>
<!-- Node4&#45;&gt;Node7 -->
<g id="edge12" class="edge"><title>Node4&#45;&gt;Node7</title>
<path style="fill:none;stroke:midnightblue;" d="M364,-79C393,-75 424,-69 451,-65"/>
<polygon style="fill:midnightblue;stroke:midnightblue;" points="363.119,-75.6067 354,-81 364.492,-82.4708 363.119,-75.6067"/>
</g>
</g>
</svg>
