<?xml version="1.0" encoding="UTF-8" standalone="no"?>
<!DOCTYPE svg PUBLIC "-//W3C//DTD SVG 1.0//EN"
 "http://www.w3.org/TR/2001/REC-SVG-20010904/DTD/svg10.dtd" [
 <!ATTLIST svg xmlns:xlink CDATA #FIXED "http://www.w3.org/1999/xlink">
]>
<!-- Generated by Graphviz version 2.14.1 (Fri Nov  9 08:19:38 GMT 2007)
     For user: (asakyurek) Alper Sinan Akyurek -->
<!-- Title: ClientManager::ProcessClientData Pages: 1 -->
<svg width="690pt" height="306pt"
 viewBox="0.00 0.00 690.00 306.00" xmlns="http://www.w3.org/2000/svg" xmlns:xlink="http://www.w3.org/1999/xlink">
<g id="graph0" class="graph" transform="scale(1 1) rotate(0) translate(4 302)">
<title>ClientManager::ProcessClientData</title>
<polygon style="fill:white;stroke:white;" points="-4,4 -4,-302 686,-302 686,4 -4,4"/>
<!-- Node1 -->
<g id="node1" class="node"><title>Node1</title>
<polygon style="fill:#bfbfbf;stroke:black;" points="0,-125 0,-146 200,-146 200,-125 0,-125"/>
<text text-anchor="middle" x="100" y="-132" style="font-family:Arial;font-size:10.00;">ClientManager::ProcessClientData</text>
</g>
<!-- Node2 -->
<g id="node3" class="node"><title>Node2</title>
<a xlink:href="_log_print_8h.html#a7e0c5f42cad5bc3a44134fb9c9a7a052" target="_top" xlink:title="8 parameter log message ">
<polygon style="fill:white;stroke:black;" points="542,-215 542,-236 602,-236 602,-215 542,-215"/>
<text text-anchor="middle" x="572" y="-222" style="font-family:Arial;font-size:10.00;">LogPrint</text>
</a>
</g>
<!-- Node1&#45;&gt;Node2 -->
<g id="edge2" class="edge"><title>Node1&#45;&gt;Node2</title>
<path style="fill:none;stroke:midnightblue;" d="M107,-146C125,-171 175,-235 236,-259 340,-298 474,-261 536,-239"/>
<polygon style="fill:midnightblue;stroke:midnightblue;" points="537.427,-242.226 546,-236 535.416,-235.521 537.427,-242.226"/>
</g>
<!-- Node3 -->
<g id="node5" class="node"><title>Node3</title>
<a xlink:href="class_terra_swarm_1_1_asynchronous_1_1_client_data.html#af78cac737c5197ad17205bab73421b60" target="_top" xlink:title="Reads the StartTime field. ">
<polygon style="fill:white;stroke:black;" points="250,-216 250,-250 412,-250 412,-216 250,-216"/>
<text text-anchor="start" x="258" y="-236" style="font-family:Arial;font-size:10.00;">TerraSwarm::Asynchronous</text>
<text text-anchor="middle" x="331" y="-223" style="font-family:Arial;font-size:10.00;">::ClientData::GetStartTime</text>
</a>
</g>
<!-- Node1&#45;&gt;Node3 -->
<g id="edge4" class="edge"><title>Node1&#45;&gt;Node3</title>
<path style="fill:none;stroke:midnightblue;" d="M117,-146C142,-161 191,-189 236,-207 242,-209 248,-211 253,-213"/>
<polygon style="fill:midnightblue;stroke:midnightblue;" points="252.416,-216.479 263,-216 254.427,-209.774 252.416,-216.479"/>
</g>
<!-- Node4 -->
<g id="node7" class="node"><title>Node4</title>
<a xlink:href="class_terra_swarm_1_1_asynchronous_1_1_client_data.html#a6e3ca8aab58e0b40867eee3e3ec281e6" target="_top" xlink:title="Reads the TimeResolution field. ">
<polygon style="fill:white;stroke:black;" points="236,-164 236,-198 426,-198 426,-164 236,-164"/>
<text text-anchor="start" x="244" y="-184" style="font-family:Arial;font-size:10.00;">TerraSwarm::Asynchronous</text>
<text text-anchor="middle" x="331" y="-171" style="font-family:Arial;font-size:10.00;">::ClientData::GetTimeResolution</text>
</a>
</g>
<!-- Node1&#45;&gt;Node4 -->
<g id="edge6" class="edge"><title>Node1&#45;&gt;Node4</title>
<path style="fill:none;stroke:midnightblue;" d="M152,-146C176,-150 206,-157 234,-162"/>
<polygon style="fill:midnightblue;stroke:midnightblue;" points="233.508,-165.471 244,-164 234.881,-158.607 233.508,-165.471"/>
</g>
<!-- Node5 -->
<g id="node9" class="node"><title>Node5</title>
<a xlink:href="class_terra_swarm_1_1_asynchronous_1_1_client_data.html#aba73075c35dd912dad8f99dd026b0785" target="_top" xlink:title="Reads the NumberOfDataPoints field. ">
<polygon style="fill:white;stroke:black;" points="462,-13 462,-47 682,-47 682,-13 462,-13"/>
<text text-anchor="start" x="470" y="-33" style="font-family:Arial;font-size:10.00;">TerraSwarm::Asynchronous</text>
<text text-anchor="middle" x="572" y="-20" style="font-family:Arial;font-size:10.00;">::ClientData::GetNumberOfDataPoints</text>
</a>
</g>
<!-- Node1&#45;&gt;Node5 -->
<g id="edge8" class="edge"><title>Node1&#45;&gt;Node5</title>
<path style="fill:none;stroke:midnightblue;" d="M109,-125C129,-101 180,-46 236,-27 311,-0 403,-4 471,-12"/>
<polygon style="fill:midnightblue;stroke:midnightblue;" points="470.701,-15.4875 481,-13 471.398,-8.52224 470.701,-15.4875"/>
</g>
<!-- Node6 -->
<g id="node11" class="node"><title>Node6</title>
<a xlink:href="_system_manager_8cpp.html#a97e64f74d188d41051488578800d20cd" target="_top" xlink:title="Singleton function that returns the only instance of SystemManager. ">
<polygon style="fill:white;stroke:black;" points="270,-87 270,-108 393,-108 393,-87 270,-87"/>
<text text-anchor="middle" x="331" y="-94" style="font-family:Arial;font-size:10.00;">GetSystemManager</text>
</a>
</g>
<!-- Node1&#45;&gt;Node6 -->
<g id="edge10" class="edge"><title>Node1&#45;&gt;Node6</title>
<path style="fill:none;stroke:midnightblue;" d="M167,-125C197,-121 231,-114 261,-110"/>
<polygon style="fill:midnightblue;stroke:midnightblue;" points="261.881,-113.393 271,-108 260.508,-106.529 261.881,-113.393"/>
</g>
<!-- Node7 -->
<g id="node13" class="node"><title>Node7</title>
<a xlink:href="class_system_manager.html#abaf36dbd2e75a773f2ddc40ac82e5f3b" target="_top" xlink:title="Used to register multiple consumption information. ">
<polygon style="fill:white;stroke:black;" points="241,-125 241,-146 421,-146 421,-125 241,-125"/>
<text text-anchor="middle" x="331" y="-132" style="font-family:Arial;font-size:10.00;">SystemManager::RegisterData</text>
</a>
</g>
<!-- Node1&#45;&gt;Node7 -->
<g id="edge12" class="edge"><title>Node1&#45;&gt;Node7</title>
<path style="fill:none;stroke:midnightblue;" d="M200,-136C210,-136 221,-136 231,-136"/>
<polygon style="fill:midnightblue;stroke:midnightblue;" points="231,-139.5 241,-136 231,-132.5 231,-139.5"/>
</g>
<!-- Node9 -->
<g id="node18" class="node"><title>Node9</title>
<a xlink:href="class_terra_swarm_1_1_asynchronous_1_1_client_data.html#a72ed5a08a0bbe088b3b6f4d79cdbab2d" target="_top" xlink:title="Gets the pointer to the data points in the message. ">
<polygon style="fill:white;stroke:black;" points="250,-36 250,-70 413,-70 413,-36 250,-36"/>
<text text-anchor="start" x="258" y="-56" style="font-family:Arial;font-size:10.00;">TerraSwarm::Asynchronous</text>
<text text-anchor="middle" x="331" y="-43" style="font-family:Arial;font-size:10.00;">::ClientData::GetDataPoints</text>
</a>
</g>
<!-- Node1&#45;&gt;Node9 -->
<g id="edge18" class="edge"><title>Node1&#45;&gt;Node9</title>
<path style="fill:none;stroke:midnightblue;" d="M124,-125C151,-113 196,-93 236,-79 242,-77 248,-75 254,-73"/>
<polygon style="fill:midnightblue;stroke:midnightblue;" points="255.427,-76.2259 264,-70 253.416,-69.5212 255.427,-76.2259"/>
</g>
<!-- Node7&#45;&gt;Node2 -->
<g id="edge14" class="edge"><title>Node7&#45;&gt;Node2</title>
<path style="fill:none;stroke:midnightblue;" d="M394,-146C405,-148 416,-151 426,-155 469,-169 515,-193 544,-210"/>
<polygon style="fill:midnightblue;stroke:midnightblue;" points="542.559,-213.203 553,-215 545.958,-207.084 542.559,-213.203"/>
</g>
<!-- Node8 -->
<g id="node16" class="node"><title>Node8</title>
<a xlink:href="_log_print_8h.html#a46ea30a62534f8ce32cd39454e459b23" target="_top" xlink:title="6 parameter warning message ">
<polygon style="fill:white;stroke:black;" points="530,-125 530,-146 615,-146 615,-125 530,-125"/>
<text text-anchor="middle" x="572" y="-132" style="font-family:Arial;font-size:10.00;">WarningPrint</text>
</a>
</g>
<!-- Node7&#45;&gt;Node8 -->
<g id="edge16" class="edge"><title>Node7&#45;&gt;Node8</title>
<path style="fill:none;stroke:midnightblue;" d="M421,-136C454,-136 491,-136 520,-136"/>
<polygon style="fill:midnightblue;stroke:midnightblue;" points="520,-139.5 530,-136 520,-132.5 520,-139.5"/>
</g>
<!-- Node9&#45;&gt;Node5 -->
<g id="edge20" class="edge"><title>Node9&#45;&gt;Node5</title>
<path style="fill:none;stroke:midnightblue;" d="M413,-45C426,-43 438,-42 452,-41"/>
<polygon style="fill:midnightblue;stroke:midnightblue;" points="452.398,-44.4778 462,-40 451.701,-37.5125 452.398,-44.4778"/>
</g>
</g>
</svg>
