<?xml version="1.0" encoding="UTF-8" standalone="no"?>
<!DOCTYPE svg PUBLIC "-//W3C//DTD SVG 1.0//EN"
 "http://www.w3.org/TR/2001/REC-SVG-20010904/DTD/svg10.dtd" [
 <!ATTLIST svg xmlns:xlink CDATA #FIXED "http://www.w3.org/1999/xlink">
]>
<!-- Generated by Graphviz version 2.14.1 (Fri Nov  9 08:19:38 GMT 2007)
     For user: (asakyurek) Alper Sinan Akyurek -->
<!-- Title: TCPClient Pages: 1 -->
<svg width="205pt" height="162pt"
 viewBox="0.00 0.00 205.00 162.00" xmlns="http://www.w3.org/2000/svg" xmlns:xlink="http://www.w3.org/1999/xlink">
<g id="graph0" class="graph" transform="scale(1 1) rotate(0) translate(4 158)">
<title>TCPClient</title>
<polygon style="fill:white;stroke:white;" points="-4,4 -4,-158 201,-158 201,4 -4,4"/>
<!-- Node1 -->
<g id="node1" class="node"><title>Node1</title>
<polygon style="fill:#bfbfbf;stroke:black;" points="57,-0 57,-21 126,-21 126,-0 57,-0"/>
<text text-anchor="middle" x="91" y="-7" style="font-family:Arial;font-size:10.00;">TCPClient</text>
</g>
<!-- Node2 -->
<g id="node2" class="node"><title>Node2</title>
<a xlink:href="class_socket_base.html" target="_top" xlink:title="SocketBase\&lt; SOCK_STREAM \&gt;">
<polygon style="fill:white;stroke:black;" points="0,-60 0,-81 182,-81 182,-60 0,-60"/>
<text text-anchor="middle" x="91" y="-67" style="font-family:Arial;font-size:10.00;">SocketBase&lt; SOCK_STREAM &gt;</text>
</a>
</g>
<!-- Node2&#45;&gt;Node1 -->
<g id="edge2" class="edge"><title>Node2&#45;&gt;Node1</title>
<path style="fill:none;stroke:midnightblue;" d="M91,-50C91,-40 91,-29 91,-21"/>
<polygon style="fill:midnightblue;stroke:midnightblue;" points="87.5001,-50 91,-60 94.5001,-50 87.5001,-50"/>
</g>
<!-- Node3 -->
<g id="node4" class="node"><title>Node3</title>
<a xlink:href="class_socket_base.html" target="_top" xlink:title="This class is an abstraction over the OS socket and defines a base class for socket opening and closi...">
<polygon style="fill:white;stroke:black;" points="8,-132 8,-153 174,-153 174,-132 8,-132"/>
<text text-anchor="middle" x="91" y="-139" style="font-family:Arial;font-size:10.00;">SocketBase&lt; SocketType &gt;</text>
</a>
</g>
<!-- Node3&#45;&gt;Node2 -->
<g id="edge4" class="edge"><title>Node3&#45;&gt;Node2</title>
<path style="fill:none;stroke:orange;stroke-dasharray:5,2;" d="M91,-122C91,-108 91,-92 91,-81"/>
<polygon style="fill:orange;stroke:orange;" points="87.5001,-122 91,-132 94.5001,-122 87.5001,-122"/>
<text text-anchor="middle" x="144" y="-104" style="font-family:Arial;font-size:10.00;"> &lt; SOCK_STREAM &gt;</text>
</g>
</g>
</svg>
