<?xml version="1.0" encoding="UTF-8" standalone="no"?>
<!DOCTYPE svg PUBLIC "-//W3C//DTD SVG 1.0//EN"
 "http://www.w3.org/TR/2001/REC-SVG-20010904/DTD/svg10.dtd" [
 <!ATTLIST svg xmlns:xlink CDATA #FIXED "http://www.w3.org/1999/xlink">
]>
<!-- Generated by Graphviz version 2.14.1 (Fri Nov  9 08:19:38 GMT 2007)
     For user: (asakyurek) Alper Sinan Akyurek -->
<!-- Title: SystemManager::AdvanceTimeStep Pages: 1 -->
<svg width="628pt" height="308pt"
 viewBox="0.00 0.00 628.00 308.00" xmlns="http://www.w3.org/2000/svg" xmlns:xlink="http://www.w3.org/1999/xlink">
<g id="graph0" class="graph" transform="scale(1 1) rotate(0) translate(4 304)">
<title>SystemManager::AdvanceTimeStep</title>
<polygon style="fill:white;stroke:white;" points="-4,4 -4,-304 624,-304 624,4 -4,4"/>
<!-- Node1 -->
<g id="node1" class="node"><title>Node1</title>
<polygon style="fill:#bfbfbf;stroke:black;" points="0,-127 0,-148 210,-148 210,-127 0,-127"/>
<text text-anchor="middle" x="105" y="-134" style="font-family:Arial;font-size:10.00;">SystemManager::AdvanceTimeStep</text>
</g>
<!-- Node2 -->
<g id="node3" class="node"><title>Node2</title>
<a xlink:href="_log_print_8h.html#a7e0c5f42cad5bc3a44134fb9c9a7a052" target="_top" xlink:title="8 parameter log message ">
<polygon style="fill:white;stroke:black;" points="525,-151 525,-172 585,-172 585,-151 525,-151"/>
<text text-anchor="middle" x="555" y="-158" style="font-family:Arial;font-size:10.00;">LogPrint</text>
</a>
</g>
<!-- Node1&#45;&gt;Node2 -->
<g id="edge2" class="edge"><title>Node1&#45;&gt;Node2</title>
<path style="fill:none;stroke:midnightblue;" d="M168,-148C193,-151 221,-155 246,-157 342,-164 455,-164 515,-163"/>
<polygon style="fill:midnightblue;stroke:midnightblue;" points="515,-166.5 525,-163 515,-159.5 515,-166.5"/>
</g>
<!-- Node3 -->
<g id="node5" class="node"><title>Node3</title>
<a xlink:href="_matlab_manager_8cpp.html#adf11a697c41ba15207a66f8d2b567b75" target="_top" xlink:title="This function returns the only instance of MatlabManager. ">
<polygon style="fill:white;stroke:black;" points="495,-51 495,-72 615,-72 615,-51 495,-51"/>
<text text-anchor="middle" x="555" y="-58" style="font-family:Arial;font-size:10.00;">GetMatlabManager</text>
</a>
</g>
<!-- Node1&#45;&gt;Node3 -->
<g id="edge4" class="edge"><title>Node1&#45;&gt;Node3</title>
<path style="fill:none;stroke:midnightblue;" d="M126,-127C153,-113 202,-90 246,-81 327,-63 421,-59 485,-60"/>
<polygon style="fill:midnightblue;stroke:midnightblue;" points="485,-63.5001 495,-60 485,-56.5001 485,-63.5001"/>
</g>
<!-- Node4 -->
<g id="node7" class="node"><title>Node4</title>
<a xlink:href="class_matlab_manager.html#a2967a226a9c6a9ed22998cad67afed3c" target="_top" xlink:title="Sets the consumption of a client by communicating with OpenDSS controller. ">
<polygon style="fill:white;stroke:black;" points="265,-203 265,-224 436,-224 436,-203 265,-203"/>
<text text-anchor="middle" x="350" y="-210" style="font-family:Arial;font-size:10.00;">MatlabManager::SetWattage</text>
</a>
</g>
<!-- Node1&#45;&gt;Node4 -->
<g id="edge6" class="edge"><title>Node1&#45;&gt;Node4</title>
<path style="fill:none;stroke:midnightblue;" d="M130,-148C158,-159 205,-177 246,-190 260,-194 274,-197 288,-201"/>
<polygon style="fill:midnightblue;stroke:midnightblue;" points="287.508,-204.471 298,-203 288.881,-197.607 287.508,-204.471"/>
</g>
<!-- Node8 -->
<g id="node16" class="node"><title>Node8</title>
<a xlink:href="_control_manager_8cpp.html#a63bfd4667c9c70297f25ae5e5176818e" target="_top" xlink:title="Returns the only instance of ControlManager. ">
<polygon style="fill:white;stroke:black;" points="289,-127 289,-148 412,-148 412,-127 289,-127"/>
<text text-anchor="middle" x="350" y="-134" style="font-family:Arial;font-size:10.00;">GetControlManager</text>
</a>
</g>
<!-- Node1&#45;&gt;Node8 -->
<g id="edge16" class="edge"><title>Node1&#45;&gt;Node8</title>
<path style="fill:none;stroke:midnightblue;" d="M210,-138C233,-138 257,-138 279,-138"/>
<polygon style="fill:midnightblue;stroke:midnightblue;" points="279,-141.5 289,-138 279,-134.5 279,-141.5"/>
</g>
<!-- Node9 -->
<g id="node18" class="node"><title>Node9</title>
<a xlink:href="class_matlab_manager.html#a55151e4e7f68cad7a8b18c93e9f0e0b1" target="_top" xlink:title="Sends a signal to OpenDSS controller to indicate the end of a time step. ">
<polygon style="fill:white;stroke:black;" points="247,-241 247,-262 454,-262 454,-241 247,-241"/>
<text text-anchor="middle" x="350" y="-248" style="font-family:Arial;font-size:10.00;">MatlabManager::AdvanceTimeStep</text>
</a>
</g>
<!-- Node1&#45;&gt;Node9 -->
<g id="edge18" class="edge"><title>Node1&#45;&gt;Node9</title>
<path style="fill:none;stroke:midnightblue;" d="M117,-148C140,-168 194,-211 246,-233 251,-235 256,-237 262,-238"/>
<polygon style="fill:midnightblue;stroke:midnightblue;" points="261.416,-241.479 272,-241 263.427,-234.774 261.416,-241.479"/>
</g>
<!-- Node10 -->
<g id="node24" class="node"><title>Node10</title>
<a xlink:href="class_control_manager.html#a0d5212df17307aef87d42add3aa6cc7a" target="_top" xlink:title="Starts the decision process by sending necessary information to External Controller. ">
<polygon style="fill:white;stroke:black;" points="258,-89 258,-110 443,-110 443,-89 258,-89"/>
<text text-anchor="middle" x="350" y="-96" style="font-family:Arial;font-size:10.00;">ControlManager::MakeDecision</text>
</a>
</g>
<!-- Node1&#45;&gt;Node10 -->
<g id="edge28" class="edge"><title>Node1&#45;&gt;Node10</title>
<path style="fill:none;stroke:midnightblue;" d="M176,-127C208,-122 245,-116 276,-112"/>
<polygon style="fill:midnightblue;stroke:midnightblue;" points="276.881,-115.393 286,-110 275.508,-108.529 276.881,-115.393"/>
</g>
<!-- Node12 -->
<g id="node31" class="node"><title>Node12</title>
<a xlink:href="class_control_manager.html#a4e23ffb481554c26cf99c411dd16ae36" target="_top" xlink:title="Stops the calling thread until a ready signal is received from the External Controller. ">
<polygon style="fill:white;stroke:black;" points="271,-0 271,-34 430,-34 430,-0 271,-0"/>
<text text-anchor="start" x="279" y="-20" style="font-family:Arial;font-size:10.00;">ControlManager::WaitUntil</text>
<text text-anchor="middle" x="350" y="-7" style="font-family:Arial;font-size:10.00;">Ready</text>
</a>
</g>
<!-- Node1&#45;&gt;Node12 -->
<g id="edge38" class="edge"><title>Node1&#45;&gt;Node12</title>
<path style="fill:none;stroke:midnightblue;" d="M119,-127C144,-108 197,-70 246,-48 255,-44 264,-41 273,-37"/>
<polygon style="fill:midnightblue;stroke:midnightblue;" points="274.427,-40.2259 283,-34 272.416,-33.5212 274.427,-40.2259"/>
</g>
<!-- Node4&#45;&gt;Node2 -->
<g id="edge8" class="edge"><title>Node4&#45;&gt;Node2</title>
<path style="fill:none;stroke:midnightblue;" d="M399,-203C417,-199 436,-194 454,-190 474,-185 497,-178 515,-174"/>
<polygon style="fill:midnightblue;stroke:midnightblue;" points="516.427,-177.226 525,-171 514.416,-170.521 516.427,-177.226"/>
</g>
<!-- Node5 -->
<g id="node10" class="node"><title>Node5</title>
<a xlink:href="_log_print_8h.html#af783a2ea2c57c5f51f905a24f3f5a835" target="_top" xlink:title="6 parameter error message ">
<polygon style="fill:white;stroke:black;" points="523,-279 523,-300 588,-300 588,-279 523,-279"/>
<text text-anchor="middle" x="555" y="-286" style="font-family:Arial;font-size:10.00;">ErrorPrint</text>
</a>
</g>
<!-- Node4&#45;&gt;Node5 -->
<g id="edge10" class="edge"><title>Node4&#45;&gt;Node5</title>
<path style="fill:none;stroke:midnightblue;" d="M433,-224C441,-226 448,-229 454,-233 475,-244 471,-258 490,-271 497,-275 505,-279 513,-281"/>
<polygon style="fill:midnightblue;stroke:midnightblue;" points="512.416,-284.479 523,-284 514.427,-277.774 512.416,-284.479"/>
</g>
<!-- Node6 -->
<g id="node12" class="node"><title>Node6</title>
<a xlink:href="class_t_c_p_connected_client.html#a7c3a1d1172f3880b48d35ffbf255712d" target="_top" xlink:title="Sends data to the connected client. ">
<polygon style="fill:white;stroke:black;" points="491,-190 491,-224 620,-224 620,-190 491,-190"/>
<text text-anchor="start" x="499" y="-210" style="font-family:Arial;font-size:10.00;">TCPConnectedClient</text>
<text text-anchor="middle" x="555" y="-197" style="font-family:Arial;font-size:10.00;">::SendData</text>
</a>
</g>
<!-- Node4&#45;&gt;Node6 -->
<g id="edge12" class="edge"><title>Node4&#45;&gt;Node6</title>
<path style="fill:none;stroke:midnightblue;" d="M436,-211C450,-210 466,-210 481,-209"/>
<polygon style="fill:midnightblue;stroke:midnightblue;" points="481,-212.5 491,-209 481,-205.5 481,-212.5"/>
</g>
<!-- Node7 -->
<g id="node14" class="node"><title>Node7</title>
<a xlink:href="_log_print_8h.html#a46ea30a62534f8ce32cd39454e459b23" target="_top" xlink:title="6 parameter warning message ">
<polygon style="fill:white;stroke:black;" points="513,-241 513,-262 598,-262 598,-241 513,-241"/>
<text text-anchor="middle" x="555" y="-248" style="font-family:Arial;font-size:10.00;">WarningPrint</text>
</a>
</g>
<!-- Node4&#45;&gt;Node7 -->
<g id="edge14" class="edge"><title>Node4&#45;&gt;Node7</title>
<path style="fill:none;stroke:midnightblue;" d="M406,-224C422,-227 439,-230 454,-233 470,-235 487,-239 503,-242"/>
<polygon style="fill:midnightblue;stroke:midnightblue;" points="502.508,-245.471 513,-244 503.881,-238.607 502.508,-245.471"/>
</g>
<!-- Node9&#45;&gt;Node2 -->
<g id="edge20" class="edge"><title>Node9&#45;&gt;Node2</title>
<path style="fill:none;stroke:midnightblue;" d="M438,-241C444,-239 449,-236 454,-233 478,-217 468,-197 490,-181 497,-176 506,-172 515,-169"/>
<polygon style="fill:midnightblue;stroke:midnightblue;" points="516.427,-172.226 525,-166 514.416,-165.521 516.427,-172.226"/>
</g>
<!-- Node9&#45;&gt;Node5 -->
<g id="edge22" class="edge"><title>Node9&#45;&gt;Node5</title>
<path style="fill:none;stroke:midnightblue;" d="M404,-262C438,-268 482,-276 513,-282"/>
<polygon style="fill:midnightblue;stroke:midnightblue;" points="512.508,-285.471 523,-284 513.881,-278.607 512.508,-285.471"/>
</g>
<!-- Node9&#45;&gt;Node6 -->
<g id="edge24" class="edge"><title>Node9&#45;&gt;Node6</title>
<path style="fill:none;stroke:midnightblue;" d="M415,-241C428,-239 441,-236 454,-233 463,-231 472,-229 482,-226"/>
<polygon style="fill:midnightblue;stroke:midnightblue;" points="482.881,-229.393 492,-224 481.508,-222.529 482.881,-229.393"/>
</g>
<!-- Node9&#45;&gt;Node7 -->
<g id="edge26" class="edge"><title>Node9&#45;&gt;Node7</title>
<path style="fill:none;stroke:midnightblue;" d="M454,-252C471,-252 488,-252 503,-252"/>
<polygon style="fill:midnightblue;stroke:midnightblue;" points="503,-255.5 513,-252 503,-248.5 503,-255.5"/>
</g>
<!-- Node10&#45;&gt;Node2 -->
<g id="edge30" class="edge"><title>Node10&#45;&gt;Node2</title>
<path style="fill:none;stroke:midnightblue;" d="M418,-110C430,-112 443,-115 454,-119 478,-126 504,-137 524,-147"/>
<polygon style="fill:midnightblue;stroke:midnightblue;" points="522.44,-150.137 533,-151 525.283,-143.74 522.44,-150.137"/>
</g>
<!-- Node10&#45;&gt;Node3 -->
<g id="edge34" class="edge"><title>Node10&#45;&gt;Node3</title>
<path style="fill:none;stroke:midnightblue;" d="M410,-89C436,-85 465,-79 492,-74"/>
<polygon style="fill:midnightblue;stroke:midnightblue;" points="492.881,-77.3933 502,-72 491.508,-70.5292 492.881,-77.3933"/>
</g>
<!-- Node10&#45;&gt;Node6 -->
<g id="edge36" class="edge"><title>Node10&#45;&gt;Node6</title>
<path style="fill:none;stroke:midnightblue;" d="M438,-110C444,-112 449,-115 454,-119 481,-137 466,-160 490,-181 491,-182 493,-183 494,-184"/>
<polygon style="fill:midnightblue;stroke:midnightblue;" points="492.738,-187.365 503,-190 496.621,-181.541 492.738,-187.365"/>
</g>
<!-- Node11 -->
<g id="node27" class="node"><title>Node11</title>
<a xlink:href="_system_manager_8cpp.html#a97e64f74d188d41051488578800d20cd" target="_top" xlink:title="Singleton function that returns the only instance of SystemManager. ">
<polygon style="fill:white;stroke:black;" points="494,-89 494,-110 617,-110 617,-89 494,-89"/>
<text text-anchor="middle" x="555" y="-96" style="font-family:Arial;font-size:10.00;">GetSystemManager</text>
</a>
</g>
<!-- Node10&#45;&gt;Node11 -->
<g id="edge32" class="edge"><title>Node10&#45;&gt;Node11</title>
<path style="fill:none;stroke:midnightblue;" d="M443,-100C456,-100 470,-100 484,-100"/>
<polygon style="fill:midnightblue;stroke:midnightblue;" points="484,-103.5 494,-100 484,-96.5001 484,-103.5"/>
</g>
</g>
</svg>
