<?xml version="1.0" encoding="UTF-8" standalone="no"?>
<!DOCTYPE svg PUBLIC "-//W3C//DTD SVG 1.0//EN"
 "http://www.w3.org/TR/2001/REC-SVG-20010904/DTD/svg10.dtd" [
 <!ATTLIST svg xmlns:xlink CDATA #FIXED "http://www.w3.org/1999/xlink">
]>
<!-- Generated by Graphviz version 2.14.1 (Fri Nov  9 08:19:38 GMT 2007)
     For user: (asakyurek) Alper Sinan Akyurek -->
<!-- Title: TCPServer::SetPort Pages: 1 -->
<svg width="488pt" height="104pt"
 viewBox="0.00 0.00 488.00 104.00" xmlns="http://www.w3.org/2000/svg" xmlns:xlink="http://www.w3.org/1999/xlink">
<g id="graph0" class="graph" transform="scale(1 1) rotate(0) translate(4 100)">
<title>TCPServer::SetPort</title>
<polygon style="fill:white;stroke:white;" points="-4,4 -4,-100 484,-100 484,4 -4,4"/>
<!-- Node1 -->
<g id="node1" class="node"><title>Node1</title>
<polygon style="fill:#bfbfbf;stroke:black;" points="1,-37 1,-58 118,-58 118,-37 1,-37"/>
<text text-anchor="middle" x="59" y="-44" style="font-family:Arial;font-size:10.00;">TCPServer::SetPort</text>
</g>
<!-- Node2 -->
<g id="node3" class="node"><title>Node2</title>
<a xlink:href="class_i_p_address.html#ade47d25d834bfb952fcf7fb2867db21e" target="_top" xlink:title="IPAddress::SetAddress">
<polygon style="fill:white;stroke:black;" points="157,-75 157,-96 290,-96 290,-75 157,-75"/>
<text text-anchor="middle" x="223" y="-82" style="font-family:Arial;font-size:10.00;">IPAddress::SetAddress</text>
</a>
</g>
<!-- Node1&#45;&gt;Node2 -->
<g id="edge2" class="edge"><title>Node1&#45;&gt;Node2</title>
<path style="fill:none;stroke:midnightblue;" d="M103,-58C122,-62 145,-68 166,-73"/>
<polygon style="fill:midnightblue;stroke:midnightblue;" points="165.508,-76.4708 176,-75 166.881,-69.6067 165.508,-76.4708"/>
</g>
<!-- Node4 -->
<g id="node7" class="node"><title>Node4</title>
<a xlink:href="class_i_p_address.html#a5908d6242879f0e45685f8b0734dafa7" target="_top" xlink:title="IPAddress::SetPort">
<polygon style="fill:white;stroke:black;" points="167,-37 167,-58 279,-58 279,-37 167,-37"/>
<text text-anchor="middle" x="223" y="-44" style="font-family:Arial;font-size:10.00;">IPAddress::SetPort</text>
</a>
</g>
<!-- Node1&#45;&gt;Node4 -->
<g id="edge6" class="edge"><title>Node1&#45;&gt;Node4</title>
<path style="fill:none;stroke:midnightblue;" d="M118,-48C131,-48 144,-48 157,-48"/>
<polygon style="fill:midnightblue;stroke:midnightblue;" points="157,-51.5001 167,-48 157,-44.5001 157,-51.5001"/>
</g>
<!-- Node6 -->
<g id="node11" class="node"><title>Node6</title>
<a xlink:href="class_t_c_p_server.html#a85bb8272c9599d98bcb28e4156a755fb" target="_top" xlink:title="TCPServer::SetAddress">
<polygon style="fill:white;stroke:black;" points="154,1 154,-20 292,-20 292,1 154,1"/>
<text text-anchor="middle" x="223" y="-6" style="font-family:Arial;font-size:10.00;">TCPServer::SetAddress</text>
</a>
</g>
<!-- Node1&#45;&gt;Node6 -->
<g id="edge10" class="edge"><title>Node1&#45;&gt;Node6</title>
<path style="fill:none;stroke:midnightblue;" d="M107,-37C127,-33 150,-27 170,-22"/>
<polygon style="fill:midnightblue;stroke:midnightblue;" points="170.881,-25.3933 180,-20 169.508,-18.5292 170.881,-25.3933"/>
</g>
<!-- Node3 -->
<g id="node5" class="node"><title>Node3</title>
<a xlink:href="class_i_p_address.html#a0c90b37a86811781d4422c0dd2d5b6b5" target="_top" xlink:title="IPAddress::GetAddress">
<polygon style="fill:white;stroke:black;" points="337,-75 337,-96 471,-96 471,-75 337,-75"/>
<text text-anchor="middle" x="404" y="-82" style="font-family:Arial;font-size:10.00;">IPAddress::GetAddress</text>
</a>
</g>
<!-- Node2&#45;&gt;Node3 -->
<g id="edge4" class="edge"><title>Node2&#45;&gt;Node3</title>
<path style="fill:none;stroke:midnightblue;" d="M290,-86C302,-86 315,-86 327,-86"/>
<polygon style="fill:midnightblue;stroke:midnightblue;" points="327,-89.5001 337,-86 327,-82.5001 327,-89.5001"/>
</g>
<!-- Node5 -->
<g id="node9" class="node"><title>Node5</title>
<a xlink:href="class_i_p_address.html#a5c8a6aeae1105603538c2661c68fd6bb" target="_top" xlink:title="IPAddress::GetPort">
<polygon style="fill:white;stroke:black;" points="348,-37 348,-58 461,-58 461,-37 348,-37"/>
<text text-anchor="middle" x="404" y="-44" style="font-family:Arial;font-size:10.00;">IPAddress::GetPort</text>
</a>
</g>
<!-- Node4&#45;&gt;Node5 -->
<g id="edge8" class="edge"><title>Node4&#45;&gt;Node5</title>
<path style="fill:none;stroke:midnightblue;" d="M279,-48C298,-48 318,-48 338,-48"/>
<polygon style="fill:midnightblue;stroke:midnightblue;" points="338,-51.5001 348,-48 338,-44.5001 338,-51.5001"/>
</g>
<!-- Node7 -->
<g id="node13" class="node"><title>Node7</title>
<a xlink:href="class_i_p_address.html#abdbc7cc25dc15d9e85ceb2e1d3125e22" target="_top" xlink:title="IPAddress::GetSocketSize">
<polygon style="fill:white;stroke:black;" points="328,1 328,-20 480,-20 480,1 328,1"/>
<text text-anchor="middle" x="404" y="-6" style="font-family:Arial;font-size:10.00;">IPAddress::GetSocketSize</text>
</a>
</g>
<!-- Node6&#45;&gt;Node7 -->
<g id="edge12" class="edge"><title>Node6&#45;&gt;Node7</title>
<path style="fill:none;stroke:midnightblue;" d="M292,-10C301,-10 309,-10 318,-10"/>
<polygon style="fill:midnightblue;stroke:midnightblue;" points="318,-13.5001 328,-10 318,-6.5001 318,-13.5001"/>
</g>
</g>
</svg>
