<?xml version="1.0" encoding="UTF-8" standalone="no"?>
<!DOCTYPE svg PUBLIC "-//W3C//DTD SVG 1.0//EN"
 "http://www.w3.org/TR/2001/REC-SVG-20010904/DTD/svg10.dtd" [
 <!ATTLIST svg xmlns:xlink CDATA #FIXED "http://www.w3.org/1999/xlink">
]>
<!-- Generated by Graphviz version 2.14.1 (Fri Nov  9 08:19:38 GMT 2007)
     For user: (asakyurek) Alper Sinan Akyurek -->
<!-- Title: UDPSocket::SetPort Pages: 1 -->
<svg width="502pt" height="104pt"
 viewBox="0.00 0.00 502.00 104.00" xmlns="http://www.w3.org/2000/svg" xmlns:xlink="http://www.w3.org/1999/xlink">
<g id="graph0" class="graph" transform="scale(1 1) rotate(0) translate(4 100)">
<title>UDPSocket::SetPort</title>
<polygon style="fill:white;stroke:white;" points="-4,4 -4,-100 498,-100 498,4 -4,4"/>
<!-- Node1 -->
<g id="node1" class="node"><title>Node1</title>
<polygon style="fill:#bfbfbf;stroke:black;" points="0,-37 0,-58 120,-58 120,-37 0,-37"/>
<text text-anchor="middle" x="60" y="-44" style="font-family:Arial;font-size:10.00;">UDPSocket::SetPort</text>
</g>
<!-- Node2 -->
<g id="node3" class="node"><title>Node2</title>
<a xlink:href="class_i_p_address.html#ade47d25d834bfb952fcf7fb2867db21e" target="_top" xlink:title="IPAddress::SetAddress">
<polygon style="fill:white;stroke:black;" points="165,-75 165,-96 298,-96 298,-75 165,-75"/>
<text text-anchor="middle" x="231" y="-82" style="font-family:Arial;font-size:10.00;">IPAddress::SetAddress</text>
</a>
</g>
<!-- Node1&#45;&gt;Node2 -->
<g id="edge2" class="edge"><title>Node1&#45;&gt;Node2</title>
<path style="fill:none;stroke:midnightblue;" d="M105,-58C126,-62 150,-68 172,-73"/>
<polygon style="fill:midnightblue;stroke:midnightblue;" points="171.508,-76.4708 182,-75 172.881,-69.6067 171.508,-76.4708"/>
</g>
<!-- Node4 -->
<g id="node7" class="node"><title>Node4</title>
<a xlink:href="class_i_p_address.html#a5908d6242879f0e45685f8b0734dafa7" target="_top" xlink:title="IPAddress::SetPort">
<polygon style="fill:white;stroke:black;" points="175,-37 175,-58 287,-58 287,-37 175,-37"/>
<text text-anchor="middle" x="231" y="-44" style="font-family:Arial;font-size:10.00;">IPAddress::SetPort</text>
</a>
</g>
<!-- Node1&#45;&gt;Node4 -->
<g id="edge6" class="edge"><title>Node1&#45;&gt;Node4</title>
<path style="fill:none;stroke:midnightblue;" d="M120,-48C135,-48 150,-48 165,-48"/>
<polygon style="fill:midnightblue;stroke:midnightblue;" points="165,-51.5001 175,-48 165,-44.5001 165,-51.5001"/>
</g>
<!-- Node6 -->
<g id="node11" class="node"><title>Node6</title>
<a xlink:href="class_u_d_p_socket.html#a28960551bca2099a03ad6fa39ef28065" target="_top" xlink:title="UDPSocket::SetIPAddress">
<polygon style="fill:white;stroke:black;" points="156,1 156,-20 306,-20 306,1 156,1"/>
<text text-anchor="middle" x="231" y="-6" style="font-family:Arial;font-size:10.00;">UDPSocket::SetIPAddress</text>
</a>
</g>
<!-- Node1&#45;&gt;Node6 -->
<g id="edge10" class="edge"><title>Node1&#45;&gt;Node6</title>
<path style="fill:none;stroke:midnightblue;" d="M110,-37C131,-33 155,-27 176,-22"/>
<polygon style="fill:midnightblue;stroke:midnightblue;" points="176.881,-25.3933 186,-20 175.508,-18.5292 176.881,-25.3933"/>
</g>
<!-- Node3 -->
<g id="node5" class="node"><title>Node3</title>
<a xlink:href="class_i_p_address.html#a0c90b37a86811781d4422c0dd2d5b6b5" target="_top" xlink:title="IPAddress::GetAddress">
<polygon style="fill:white;stroke:black;" points="351,-75 351,-96 485,-96 485,-75 351,-75"/>
<text text-anchor="middle" x="418" y="-82" style="font-family:Arial;font-size:10.00;">IPAddress::GetAddress</text>
</a>
</g>
<!-- Node2&#45;&gt;Node3 -->
<g id="edge4" class="edge"><title>Node2&#45;&gt;Node3</title>
<path style="fill:none;stroke:midnightblue;" d="M298,-86C312,-86 327,-86 341,-86"/>
<polygon style="fill:midnightblue;stroke:midnightblue;" points="341,-89.5001 351,-86 341,-82.5001 341,-89.5001"/>
</g>
<!-- Node5 -->
<g id="node9" class="node"><title>Node5</title>
<a xlink:href="class_i_p_address.html#a5c8a6aeae1105603538c2661c68fd6bb" target="_top" xlink:title="IPAddress::GetPort">
<polygon style="fill:white;stroke:black;" points="362,-37 362,-58 475,-58 475,-37 362,-37"/>
<text text-anchor="middle" x="418" y="-44" style="font-family:Arial;font-size:10.00;">IPAddress::GetPort</text>
</a>
</g>
<!-- Node4&#45;&gt;Node5 -->
<g id="edge8" class="edge"><title>Node4&#45;&gt;Node5</title>
<path style="fill:none;stroke:midnightblue;" d="M287,-48C308,-48 330,-48 352,-48"/>
<polygon style="fill:midnightblue;stroke:midnightblue;" points="352,-51.5001 362,-48 352,-44.5001 352,-51.5001"/>
</g>
<!-- Node7 -->
<g id="node13" class="node"><title>Node7</title>
<a xlink:href="class_i_p_address.html#abdbc7cc25dc15d9e85ceb2e1d3125e22" target="_top" xlink:title="IPAddress::GetSocketSize">
<polygon style="fill:white;stroke:black;" points="342,1 342,-20 494,-20 494,1 342,1"/>
<text text-anchor="middle" x="418" y="-6" style="font-family:Arial;font-size:10.00;">IPAddress::GetSocketSize</text>
</a>
</g>
<!-- Node6&#45;&gt;Node7 -->
<g id="edge12" class="edge"><title>Node6&#45;&gt;Node7</title>
<path style="fill:none;stroke:midnightblue;" d="M306,-10C315,-10 323,-10 332,-10"/>
<polygon style="fill:midnightblue;stroke:midnightblue;" points="332,-13.5001 342,-10 332,-6.5001 332,-13.5001"/>
</g>
</g>
</svg>
