<?xml version="1.0" encoding="UTF-8" standalone="no"?>
<!DOCTYPE svg PUBLIC "-//W3C//DTD SVG 1.0//EN"
 "http://www.w3.org/TR/2001/REC-SVG-20010904/DTD/svg10.dtd" [
 <!ATTLIST svg xmlns:xlink CDATA #FIXED "http://www.w3.org/1999/xlink">
]>
<!-- Generated by Graphviz version 2.14.1 (Fri Nov  9 08:19:38 GMT 2007)
     For user: (asakyurek) Alper Sinan Akyurek -->
<!-- Title: TerraSwarm::Asynchronous::ClientData::GetNumberOfDataPoints Pages: 1 -->
<svg width="900pt" height="64pt"
 viewBox="0.00 0.00 900.00 64.00" xmlns="http://www.w3.org/2000/svg" xmlns:xlink="http://www.w3.org/1999/xlink">
<g id="graph0" class="graph" transform="scale(1 1) rotate(0) translate(4 60)">
<title>TerraSwarm::Asynchronous::ClientData::GetNumberOfDataPoints</title>
<polygon style="fill:white;stroke:white;" points="-4,4 -4,-60 896,-60 896,4 -4,4"/>
<!-- Node1 -->
<g id="node1" class="node"><title>Node1</title>
<polygon style="fill:#bfbfbf;stroke:black;" points="0,-22 0,-56 220,-56 220,-22 0,-22"/>
<text text-anchor="start" x="8" y="-42" style="font-family:Arial;font-size:10.00;">TerraSwarm::Asynchronous</text>
<text text-anchor="middle" x="110" y="-29" style="font-family:Arial;font-size:10.00;">::ClientData::GetNumberOfDataPoints</text>
</g>
<!-- Node2 -->
<g id="node3" class="node"><title>Node2</title>
<a xlink:href="class_client_manager.html#a1dd815fe845945ae8966b3a3f449ba0e" target="_top" xlink:title="Processes the consumption information. ">
<polygon style="fill:white;stroke:black;" points="456,-28 456,-49 656,-49 656,-28 456,-28"/>
<text text-anchor="middle" x="556" y="-35" style="font-family:Arial;font-size:10.00;">ClientManager::ProcessClientData</text>
</a>
</g>
<!-- Node1&#45;&gt;Node2 -->
<g id="edge2" class="edge"><title>Node1&#45;&gt;Node2</title>
<path style="fill:none;stroke:midnightblue;" d="M230,-43C239,-43 247,-43 256,-43 329,-43 348,-44 420,-43 432,-43 444,-43 456,-42"/>
<polygon style="fill:midnightblue;stroke:midnightblue;" points="230.299,-39.5125 220,-42 229.602,-46.4778 230.299,-39.5125"/>
</g>
<!-- Node4 -->
<g id="node7" class="node"><title>Node4</title>
<a xlink:href="class_terra_swarm_1_1_asynchronous_1_1_client_data.html#a72ed5a08a0bbe088b3b6f4d79cdbab2d" target="_top" xlink:title="TerraSwarm::Asynchronous\l::ClientData::GetDataPoints">
<polygon style="fill:white;stroke:black;" points="257,-0 257,-34 420,-34 420,-0 257,-0"/>
<text text-anchor="start" x="265" y="-20" style="font-family:Arial;font-size:10.00;">TerraSwarm::Asynchronous</text>
<text text-anchor="middle" x="338" y="-7" style="font-family:Arial;font-size:10.00;">::ClientData::GetDataPoints</text>
</a>
</g>
<!-- Node1&#45;&gt;Node4 -->
<g id="edge6" class="edge"><title>Node1&#45;&gt;Node4</title>
<path style="fill:none;stroke:midnightblue;" d="M230,-27C239,-26 248,-26 257,-25"/>
<polygon style="fill:midnightblue;stroke:midnightblue;" points="229.602,-23.5222 220,-28 230.299,-30.4875 229.602,-23.5222"/>
</g>
<!-- Node3 -->
<g id="node5" class="node"><title>Node3</title>
<a xlink:href="class_client_manager.html#abf05d2ac88337dfd02e0b7986ee1e18c" target="_top" xlink:title="Called when a message is received. ">
<polygon style="fill:white;stroke:black;" points="693,-28 693,-49 892,-49 892,-28 693,-28"/>
<text text-anchor="middle" x="792" y="-35" style="font-family:Arial;font-size:10.00;">ClientManager::MessageReceived</text>
</a>
</g>
<!-- Node2&#45;&gt;Node3 -->
<g id="edge4" class="edge"><title>Node2&#45;&gt;Node3</title>
<path style="fill:none;stroke:midnightblue;" d="M666,-39C675,-39 684,-39 693,-39"/>
<polygon style="fill:midnightblue;stroke:midnightblue;" points="666,-35.5001 656,-39 666,-42.5001 666,-35.5001"/>
</g>
<!-- Node4&#45;&gt;Node2 -->
<g id="edge8" class="edge"><title>Node4&#45;&gt;Node2</title>
<path style="fill:none;stroke:midnightblue;" d="M430,-26C439,-27 447,-28 456,-29"/>
<polygon style="fill:midnightblue;stroke:midnightblue;" points="430.299,-22.5125 420,-25 429.602,-29.4778 430.299,-22.5125"/>
</g>
</g>
</svg>
