<?xml version="1.0" encoding="UTF-8" standalone="no"?>
<!DOCTYPE svg PUBLIC "-//W3C//DTD SVG 1.0//EN"
 "http://www.w3.org/TR/2001/REC-SVG-20010904/DTD/svg10.dtd" [
 <!ATTLIST svg xmlns:xlink CDATA #FIXED "http://www.w3.org/1999/xlink">
]>
<!-- Generated by Graphviz version 2.14.1 (Fri Nov  9 08:19:38 GMT 2007)
     For user: (asakyurek) Alper Sinan Akyurek -->
<!-- Title: TerraSwarm::Asynchronous::ClientData::GetTimeResolution Pages: 1 -->
<svg width="670pt" height="42pt"
 viewBox="0.00 0.00 670.00 42.00" xmlns="http://www.w3.org/2000/svg" xmlns:xlink="http://www.w3.org/1999/xlink">
<g id="graph0" class="graph" transform="scale(1 1) rotate(0) translate(4 38)">
<title>TerraSwarm::Asynchronous::ClientData::GetTimeResolution</title>
<polygon style="fill:white;stroke:white;" points="-4,4 -4,-38 666,-38 666,4 -4,4"/>
<!-- Node1 -->
<g id="node1" class="node"><title>Node1</title>
<polygon style="fill:#bfbfbf;stroke:black;" points="0,-0 0,-34 190,-34 190,-0 0,-0"/>
<text text-anchor="start" x="8" y="-20" style="font-family:Arial;font-size:10.00;">TerraSwarm::Asynchronous</text>
<text text-anchor="middle" x="95" y="-7" style="font-family:Arial;font-size:10.00;">::ClientData::GetTimeResolution</text>
</g>
<!-- Node2 -->
<g id="node3" class="node"><title>Node2</title>
<a xlink:href="class_client_manager.html#a1dd815fe845945ae8966b3a3f449ba0e" target="_top" xlink:title="Processes the consumption information. ">
<polygon style="fill:white;stroke:black;" points="226,-6 226,-27 426,-27 426,-6 226,-6"/>
<text text-anchor="middle" x="326" y="-13" style="font-family:Arial;font-size:10.00;">ClientManager::ProcessClientData</text>
</a>
</g>
<!-- Node1&#45;&gt;Node2 -->
<g id="edge2" class="edge"><title>Node1&#45;&gt;Node2</title>
<path style="fill:none;stroke:midnightblue;" d="M200,-17C209,-17 217,-17 226,-17"/>
<polygon style="fill:midnightblue;stroke:midnightblue;" points="200,-13.5001 190,-17 200,-20.5001 200,-13.5001"/>
</g>
<!-- Node3 -->
<g id="node5" class="node"><title>Node3</title>
<a xlink:href="class_client_manager.html#abf05d2ac88337dfd02e0b7986ee1e18c" target="_top" xlink:title="Called when a message is received. ">
<polygon style="fill:white;stroke:black;" points="463,-6 463,-27 662,-27 662,-6 463,-6"/>
<text text-anchor="middle" x="562" y="-13" style="font-family:Arial;font-size:10.00;">ClientManager::MessageReceived</text>
</a>
</g>
<!-- Node2&#45;&gt;Node3 -->
<g id="edge4" class="edge"><title>Node2&#45;&gt;Node3</title>
<path style="fill:none;stroke:midnightblue;" d="M436,-17C445,-17 454,-17 463,-17"/>
<polygon style="fill:midnightblue;stroke:midnightblue;" points="436,-13.5001 426,-17 436,-20.5001 436,-13.5001"/>
</g>
</g>
</svg>
