<?xml version="1.0" encoding="UTF-8" standalone="no"?>
<!DOCTYPE svg PUBLIC "-//W3C//DTD SVG 1.0//EN"
 "http://www.w3.org/TR/2001/REC-SVG-20010904/DTD/svg10.dtd" [
 <!ATTLIST svg xmlns:xlink CDATA #FIXED "http://www.w3.org/1999/xlink">
]>
<!-- Generated by Graphviz version 2.14.1 (Fri Nov  9 08:19:38 GMT 2007)
     For user: (asakyurek) Alper Sinan Akyurek -->
<!-- Title: MatlabManager::SetClient Pages: 1 -->
<svg width="716pt" height="137pt"
 viewBox="0.00 0.00 716.00 137.00" xmlns="http://www.w3.org/2000/svg" xmlns:xlink="http://www.w3.org/1999/xlink">
<g id="graph0" class="graph" transform="scale(1 1) rotate(0) translate(4 133)">
<title>MatlabManager::SetClient</title>
<polygon style="fill:white;stroke:white;" points="-4,4 -4,-133 712,-133 712,4 -4,4"/>
<!-- Node1 -->
<g id="node1" class="node"><title>Node1</title>
<polygon style="fill:#bfbfbf;stroke:black;" points="1,-78 1,-99 158,-99 158,-78 1,-78"/>
<text text-anchor="middle" x="79" y="-85" style="font-family:Arial;font-size:10.00;">MatlabManager::SetClient</text>
</g>
<!-- Node2 -->
<g id="node3" class="node"><title>Node2</title>
<a xlink:href="class_threaded_t_c_p_connected_client.html#ae8f981925319c228443e0ef78ef0ae67" target="_top" xlink:title="ThreadedTCPConnectedClient\l::SetNotificationCallback">
<polygon style="fill:white;stroke:black;" points="194,-95 194,-129 376,-129 376,-95 194,-95"/>
<text text-anchor="start" x="202" y="-115" style="font-family:Arial;font-size:10.00;">ThreadedTCPConnectedClient</text>
<text text-anchor="middle" x="285" y="-102" style="font-family:Arial;font-size:10.00;">::SetNotificationCallback</text>
</a>
</g>
<!-- Node1&#45;&gt;Node2 -->
<g id="edge2" class="edge"><title>Node1&#45;&gt;Node2</title>
<path style="fill:none;stroke:midnightblue;" d="M158,-98C167,-99 175,-99 184,-101"/>
<polygon style="fill:midnightblue;stroke:midnightblue;" points="183.701,-104.488 194,-102 184.398,-97.5222 183.701,-104.488"/>
</g>
<!-- Node3 -->
<g id="node5" class="node"><title>Node3</title>
<a xlink:href="_matlab_manager_8h.html#adde5ef25c1ac7d9ccf067e4bc4894675" target="_top" xlink:title="MatlabReceiveHandler">
<polygon style="fill:white;stroke:black;" points="216,-56 216,-77 355,-77 355,-56 216,-56"/>
<text text-anchor="middle" x="285" y="-63" style="font-family:Arial;font-size:10.00;">MatlabReceiveHandler</text>
</a>
</g>
<!-- Node1&#45;&gt;Node3 -->
<g id="edge4" class="edge"><title>Node1&#45;&gt;Node3</title>
<path style="fill:none;stroke:midnightblue;" d="M158,-81C174,-79 190,-77 206,-75"/>
<polygon style="fill:midnightblue;stroke:midnightblue;" points="206.398,-78.4778 216,-74 205.701,-71.5125 206.398,-78.4778"/>
</g>
<!-- Node4 -->
<g id="node7" class="node"><title>Node4</title>
<a xlink:href="_log_print_8h.html#a7e0c5f42cad5bc3a44134fb9c9a7a052" target="_top" xlink:title="LogPrint">
<polygon style="fill:white;stroke:black;" points="635,-84 635,-105 695,-105 695,-84 635,-84"/>
<text text-anchor="middle" x="665" y="-91" style="font-family:Arial;font-size:10.00;">LogPrint</text>
</a>
</g>
<!-- Node3&#45;&gt;Node4 -->
<g id="edge6" class="edge"><title>Node3&#45;&gt;Node4</title>
<path style="fill:none;stroke:midnightblue;" d="M345,-77C366,-80 390,-84 412,-86 488,-93 575,-95 625,-95"/>
<polygon style="fill:midnightblue;stroke:midnightblue;" points="625,-98.5001 635,-95 625,-91.5001 625,-98.5001"/>
</g>
<!-- Node5 -->
<g id="node9" class="node"><title>Node5</title>
<a xlink:href="_matlab_manager_8cpp.html#adf11a697c41ba15207a66f8d2b567b75" target="_top" xlink:title="GetMatlabManager">
<polygon style="fill:white;stroke:black;" points="439,-56 439,-77 559,-77 559,-56 439,-56"/>
<text text-anchor="middle" x="499" y="-63" style="font-family:Arial;font-size:10.00;">GetMatlabManager</text>
</a>
</g>
<!-- Node3&#45;&gt;Node5 -->
<g id="edge8" class="edge"><title>Node3&#45;&gt;Node5</title>
<path style="fill:none;stroke:midnightblue;" d="M355,-67C379,-67 405,-67 429,-67"/>
<polygon style="fill:midnightblue;stroke:midnightblue;" points="429,-70.5001 439,-67 429,-63.5001 429,-70.5001"/>
</g>
<!-- Node6 -->
<g id="node11" class="node"><title>Node6</title>
<a xlink:href="class_matlab_manager.html#a7219113b7bc0744fe8faa94d599fe826" target="_top" xlink:title="MatlabManager::ProcessData">
<polygon style="fill:white;stroke:black;" points="413,-18 413,-39 586,-39 586,-18 413,-18"/>
<text text-anchor="middle" x="499" y="-25" style="font-family:Arial;font-size:10.00;">MatlabManager::ProcessData</text>
</a>
</g>
<!-- Node3&#45;&gt;Node6 -->
<g id="edge10" class="edge"><title>Node3&#45;&gt;Node6</title>
<path style="fill:none;stroke:midnightblue;" d="M347,-56C374,-52 406,-46 433,-41"/>
<polygon style="fill:midnightblue;stroke:midnightblue;" points="433.881,-44.3933 443,-39 432.508,-37.5292 433.881,-44.3933"/>
</g>
<!-- Node6&#45;&gt;Node4 -->
<g id="edge12" class="edge"><title>Node6&#45;&gt;Node4</title>
<path style="fill:none;stroke:midnightblue;" d="M559,-39C568,-41 577,-44 586,-48 597,-52 621,-66 640,-78"/>
<polygon style="fill:midnightblue;stroke:midnightblue;" points="637.9,-80.8 648,-84 642.1,-75.2 637.9,-80.8"/>
</g>
<!-- Node7 -->
<g id="node14" class="node"><title>Node7</title>
<a xlink:href="_log_print_8h.html#a46ea30a62534f8ce32cd39454e459b23" target="_top" xlink:title="WarningPrint">
<polygon style="fill:white;stroke:black;" points="623,-37 623,-58 708,-58 708,-37 623,-37"/>
<text text-anchor="middle" x="665" y="-44" style="font-family:Arial;font-size:10.00;">WarningPrint</text>
</a>
</g>
<!-- Node6&#45;&gt;Node7 -->
<g id="edge14" class="edge"><title>Node6&#45;&gt;Node7</title>
<path style="fill:none;stroke:midnightblue;" d="M586,-39C595,-40 604,-41 613,-42"/>
<polygon style="fill:midnightblue;stroke:midnightblue;" points="612.701,-45.4875 623,-43 613.398,-38.5222 612.701,-45.4875"/>
</g>
<!-- Node8 -->
<g id="node16" class="node"><title>Node8</title>
<a xlink:href="_log_print_8h.html#af783a2ea2c57c5f51f905a24f3f5a835" target="_top" xlink:title="ErrorPrint">
<polygon style="fill:white;stroke:black;" points="633,1 633,-20 698,-20 698,1 633,1"/>
<text text-anchor="middle" x="665" y="-6" style="font-family:Arial;font-size:10.00;">ErrorPrint</text>
</a>
</g>
<!-- Node6&#45;&gt;Node8 -->
<g id="edge16" class="edge"><title>Node6&#45;&gt;Node8</title>
<path style="fill:none;stroke:midnightblue;" d="M586,-19C599,-17 611,-16 623,-14"/>
<polygon style="fill:midnightblue;stroke:midnightblue;" points="623.398,-17.4778 633,-13 622.701,-10.5125 623.398,-17.4778"/>
</g>
</g>
</svg>
