<?xml version="1.0" encoding="UTF-8" standalone="no"?>
<!DOCTYPE svg PUBLIC "-//W3C//DTD SVG 1.0//EN"
 "http://www.w3.org/TR/2001/REC-SVG-20010904/DTD/svg10.dtd" [
 <!ATTLIST svg xmlns:xlink CDATA #FIXED "http://www.w3.org/1999/xlink">
]>
<!-- Generated by Graphviz version 2.14.1 (Fri Nov  9 08:19:38 GMT 2007)
     For user: (asakyurek) Alper Sinan Akyurek -->
<!-- Title: IPAddress::GetPort Pages: 1 -->
<svg width="684pt" height="118pt"
 viewBox="0.00 0.00 684.00 118.00" xmlns="http://www.w3.org/2000/svg" xmlns:xlink="http://www.w3.org/1999/xlink">
<g id="graph0" class="graph" transform="scale(1 1) rotate(0) translate(4 114)">
<title>IPAddress::GetPort</title>
<polygon style="fill:white;stroke:white;" points="-4,4 -4,-114 680,-114 680,4 -4,4"/>
<!-- Node1 -->
<g id="node1" class="node"><title>Node1</title>
<polygon style="fill:#bfbfbf;stroke:black;" points="1,-37 1,-58 114,-58 114,-37 1,-37"/>
<text text-anchor="middle" x="57" y="-44" style="font-family:Arial;font-size:10.00;">IPAddress::GetPort</text>
</g>
<!-- Node2 -->
<g id="node3" class="node"><title>Node2</title>
<a xlink:href="class_i_p_address.html#acaa3d485fedf874453d3fd0ab7e93a64" target="_top" xlink:title="Checks whether the addresses and ports are the same. ">
<polygon style="fill:white;stroke:black;" points="150,-56 150,-77 286,-77 286,-56 150,-56"/>
<text text-anchor="middle" x="218" y="-63" style="font-family:Arial;font-size:10.00;">IPAddress::operator==</text>
</a>
</g>
<!-- Node1&#45;&gt;Node2 -->
<g id="edge2" class="edge"><title>Node1&#45;&gt;Node2</title>
<path style="fill:none;stroke:midnightblue;" d="M124,-56C133,-57 141,-58 150,-59"/>
<polygon style="fill:midnightblue;stroke:midnightblue;" points="124.299,-52.5125 114,-55 123.602,-59.4778 124.299,-52.5125"/>
</g>
<!-- Node3 -->
<g id="node5" class="node"><title>Node3</title>
<a xlink:href="class_i_p_address.html#a5908d6242879f0e45685f8b0734dafa7" target="_top" xlink:title="Sets the port field of the structure. ">
<polygon style="fill:white;stroke:black;" points="162,-18 162,-39 274,-39 274,-18 162,-18"/>
<text text-anchor="middle" x="218" y="-25" style="font-family:Arial;font-size:10.00;">IPAddress::SetPort</text>
</a>
</g>
<!-- Node1&#45;&gt;Node3 -->
<g id="edge4" class="edge"><title>Node1&#45;&gt;Node3</title>
<path style="fill:none;stroke:midnightblue;" d="M124,-40C136,-38 149,-37 162,-36"/>
<polygon style="fill:midnightblue;stroke:midnightblue;" points="123.602,-36.5222 114,-41 124.299,-43.4875 123.602,-36.5222"/>
</g>
<!-- Node4 -->
<g id="node7" class="node"><title>Node4</title>
<a xlink:href="class_t_c_p_server.html#a8d5ad30ba42960a84973b57f74a853fa" target="_top" xlink:title="Sets the listening port of the server. ">
<polygon style="fill:white;stroke:black;" points="324,-37 324,-58 441,-58 441,-37 324,-37"/>
<text text-anchor="middle" x="382" y="-44" style="font-family:Arial;font-size:10.00;">TCPServer::SetPort</text>
</a>
</g>
<!-- Node3&#45;&gt;Node4 -->
<g id="edge6" class="edge"><title>Node3&#45;&gt;Node4</title>
<path style="fill:none;stroke:midnightblue;" d="M284,-37C297,-39 311,-40 324,-41"/>
<polygon style="fill:midnightblue;stroke:midnightblue;" points="284.299,-33.5125 274,-36 283.602,-40.4778 284.299,-33.5125"/>
</g>
<!-- Node8 -->
<g id="node15" class="node"><title>Node8</title>
<a xlink:href="class_u_d_p_socket.html#a13165df1eb017e8ba2eba43a06a083ec" target="_top" xlink:title="Sets the port of the UDP Socket. ">
<polygon style="fill:white;stroke:black;" points="322,1 322,-20 442,-20 442,1 322,1"/>
<text text-anchor="middle" x="382" y="-6" style="font-family:Arial;font-size:10.00;">UDPSocket::SetPort</text>
</a>
</g>
<!-- Node3&#45;&gt;Node8 -->
<g id="edge14" class="edge"><title>Node3&#45;&gt;Node8</title>
<path style="fill:none;stroke:midnightblue;" d="M284,-21C296,-20 309,-19 322,-17"/>
<polygon style="fill:midnightblue;stroke:midnightblue;" points="283.602,-17.5222 274,-22 284.299,-24.4875 283.602,-17.5222"/>
</g>
<!-- Node5 -->
<g id="node9" class="node"><title>Node5</title>
<a xlink:href="class_connection_manager.html#a7928f3e95b4e88b01c11eaf3e8089ee7" target="_top" xlink:title="Private constructor for singleton implementation. ">
<polygon style="fill:white;stroke:black;" points="511,-76 511,-110 644,-110 644,-76 511,-76"/>
<text text-anchor="start" x="519" y="-96" style="font-family:Arial;font-size:10.00;">ConnectionManager::</text>
<text text-anchor="middle" x="577" y="-83" style="font-family:Arial;font-size:10.00;">ConnectionManager</text>
</a>
</g>
<!-- Node4&#45;&gt;Node5 -->
<g id="edge8" class="edge"><title>Node4&#45;&gt;Node5</title>
<path style="fill:none;stroke:midnightblue;" d="M436,-60C459,-66 487,-72 511,-78"/>
<polygon style="fill:midnightblue;stroke:midnightblue;" points="436.492,-56.5292 426,-58 435.119,-63.3933 436.492,-56.5292"/>
</g>
<!-- Node6 -->
<g id="node11" class="node"><title>Node6</title>
<a xlink:href="class_control_manager.html#ab81bac3e592705b7ca4b23ce473fe26e" target="_top" xlink:title="Private constructor for singleton implementation. ">
<polygon style="fill:white;stroke:black;" points="478,-37 478,-58 676,-58 676,-37 478,-37"/>
<text text-anchor="middle" x="577" y="-44" style="font-family:Arial;font-size:10.00;">ControlManager::ControlManager</text>
</a>
</g>
<!-- Node4&#45;&gt;Node6 -->
<g id="edge10" class="edge"><title>Node4&#45;&gt;Node6</title>
<path style="fill:none;stroke:midnightblue;" d="M451,-48C460,-48 469,-48 478,-48"/>
<polygon style="fill:midnightblue;stroke:midnightblue;" points="451,-44.5001 441,-48 451,-51.5001 451,-44.5001"/>
</g>
<!-- Node7 -->
<g id="node13" class="node"><title>Node7</title>
<a xlink:href="class_matlab_manager.html#a319d996a8872d9cdba8cf335520af258" target="_top" xlink:title="Private constructor to implement the singleton. ">
<polygon style="fill:white;stroke:black;" points="481,1 481,-20 673,-20 673,1 481,1"/>
<text text-anchor="middle" x="577" y="-6" style="font-family:Arial;font-size:10.00;">MatlabManager::MatlabManager</text>
</a>
</g>
<!-- Node4&#45;&gt;Node7 -->
<g id="edge12" class="edge"><title>Node4&#45;&gt;Node7</title>
<path style="fill:none;stroke:midnightblue;" d="M447,-35C458,-33 468,-31 478,-29 493,-26 509,-23 524,-20"/>
<polygon style="fill:midnightblue;stroke:midnightblue;" points="446.119,-31.6067 437,-37 447.492,-38.4708 446.119,-31.6067"/>
</g>
</g>
</svg>
