<?xml version="1.0" encoding="UTF-8" standalone="no"?>
<!DOCTYPE svg PUBLIC "-//W3C//DTD SVG 1.0//EN"
 "http://www.w3.org/TR/2001/REC-SVG-20010904/DTD/svg10.dtd" [
 <!ATTLIST svg xmlns:xlink CDATA #FIXED "http://www.w3.org/1999/xlink">
]>
<!-- Generated by Graphviz version 2.14.1 (Fri Nov  9 08:19:38 GMT 2007)
     For user: (asakyurek) Alper Sinan Akyurek -->
<!-- Title: IPAddress::operator== Pages: 1 -->
<svg width="314pt" height="66pt"
 viewBox="0.00 0.00 314.00 66.00" xmlns="http://www.w3.org/2000/svg" xmlns:xlink="http://www.w3.org/1999/xlink">
<g id="graph0" class="graph" transform="scale(1 1) rotate(0) translate(4 62)">
<title>IPAddress::operator==</title>
<polygon style="fill:white;stroke:white;" points="-4,4 -4,-62 310,-62 310,4 -4,4"/>
<!-- Node1 -->
<g id="node1" class="node"><title>Node1</title>
<polygon style="fill:#bfbfbf;stroke:black;" points="0,-18 0,-39 136,-39 136,-18 0,-18"/>
<text text-anchor="middle" x="68" y="-25" style="font-family:Arial;font-size:10.00;">IPAddress::operator==</text>
</g>
<!-- Node2 -->
<g id="node3" class="node"><title>Node2</title>
<a xlink:href="class_i_p_address.html#a5c8a6aeae1105603538c2661c68fd6bb" target="_top" xlink:title="Return a reference to the port value. ">
<polygon style="fill:white;stroke:black;" points="183,-37 183,-58 296,-58 296,-37 183,-37"/>
<text text-anchor="middle" x="239" y="-44" style="font-family:Arial;font-size:10.00;">IPAddress::GetPort</text>
</a>
</g>
<!-- Node1&#45;&gt;Node2 -->
<g id="edge2" class="edge"><title>Node1&#45;&gt;Node2</title>
<path style="fill:none;stroke:midnightblue;" d="M136,-37C148,-39 161,-40 173,-41"/>
<polygon style="fill:midnightblue;stroke:midnightblue;" points="172.701,-44.4875 183,-42 173.398,-37.5222 172.701,-44.4875"/>
</g>
<!-- Node3 -->
<g id="node5" class="node"><title>Node3</title>
<a xlink:href="class_i_p_address.html#a0c90b37a86811781d4422c0dd2d5b6b5" target="_top" xlink:title="Returns a reference to the address value. ">
<polygon style="fill:white;stroke:black;" points="172,1 172,-20 306,-20 306,1 172,1"/>
<text text-anchor="middle" x="239" y="-6" style="font-family:Arial;font-size:10.00;">IPAddress::GetAddress</text>
</a>
</g>
<!-- Node1&#45;&gt;Node3 -->
<g id="edge4" class="edge"><title>Node1&#45;&gt;Node3</title>
<path style="fill:none;stroke:midnightblue;" d="M136,-21C145,-20 153,-19 162,-18"/>
<polygon style="fill:midnightblue;stroke:midnightblue;" points="162.398,-21.4778 172,-17 161.701,-14.5125 162.398,-21.4778"/>
</g>
</g>
</svg>
