<?xml version="1.0" encoding="UTF-8" standalone="no"?>
<!DOCTYPE svg PUBLIC "-//W3C//DTD SVG 1.0//EN"
 "http://www.w3.org/TR/2001/REC-SVG-20010904/DTD/svg10.dtd" [
 <!ATTLIST svg xmlns:xlink CDATA #FIXED "http://www.w3.org/1999/xlink">
]>
<!-- Generated by Graphviz version 2.14.1 (Fri Nov  9 08:19:38 GMT 2007)
     For user: (asakyurek) Alper Sinan Akyurek -->
<!-- Title: TCPConnectedClient::ReceiveData Pages: 1 -->
<svg width="356pt" height="42pt"
 viewBox="0.00 0.00 356.00 42.00" xmlns="http://www.w3.org/2000/svg" xmlns:xlink="http://www.w3.org/1999/xlink">
<g id="graph0" class="graph" transform="scale(1 1) rotate(0) translate(4 38)">
<title>TCPConnectedClient::ReceiveData</title>
<polygon style="fill:white;stroke:white;" points="-4,4 -4,-38 352,-38 352,4 -4,4"/>
<!-- Node1 -->
<g id="node1" class="node"><title>Node1</title>
<polygon style="fill:#bfbfbf;stroke:black;" points="1,-0 1,-34 130,-34 130,-0 1,-0"/>
<text text-anchor="start" x="9" y="-20" style="font-family:Arial;font-size:10.00;">TCPConnectedClient</text>
<text text-anchor="middle" x="65" y="-7" style="font-family:Arial;font-size:10.00;">::ReceiveData</text>
</g>
<!-- Node2 -->
<g id="node3" class="node"><title>Node2</title>
<a xlink:href="class_threaded_t_c_p_connected_client.html#a019445fcc5fc83ad40583d3772c88a8b" target="_top" xlink:title="The execution body of the thread. ">
<polygon style="fill:white;stroke:black;" points="166,-0 166,-34 348,-34 348,-0 166,-0"/>
<text text-anchor="start" x="174" y="-20" style="font-family:Arial;font-size:10.00;">ThreadedTCPConnectedClient</text>
<text text-anchor="middle" x="257" y="-7" style="font-family:Arial;font-size:10.00;">::ExecutionBody</text>
</a>
</g>
<!-- Node1&#45;&gt;Node2 -->
<g id="edge2" class="edge"><title>Node1&#45;&gt;Node2</title>
<path style="fill:none;stroke:midnightblue;" d="M140,-17C149,-17 157,-17 166,-17"/>
<polygon style="fill:midnightblue;stroke:midnightblue;" points="140,-13.5001 130,-17 140,-20.5001 140,-13.5001"/>
</g>
</g>
</svg>
