<?xml version="1.0" encoding="UTF-8" standalone="no"?>
<!DOCTYPE svg PUBLIC "-//W3C//DTD SVG 1.0//EN"
 "http://www.w3.org/TR/2001/REC-SVG-20010904/DTD/svg10.dtd" [
 <!ATTLIST svg xmlns:xlink CDATA #FIXED "http://www.w3.org/1999/xlink">
]>
<!-- Generated by Graphviz version 2.14.1 (Fri Nov  9 08:19:38 GMT 2007)
     For user: (asakyurek) Alper Sinan Akyurek -->
<!-- Title: TerraSwarm::Synchronous::DemandNegotiation::GetDataPoints Pages: 1 -->
<svg width="430pt" height="54pt"
 viewBox="0.00 0.00 430.00 54.00" xmlns="http://www.w3.org/2000/svg" xmlns:xlink="http://www.w3.org/1999/xlink">
<g id="graph0" class="graph" transform="scale(1 1) rotate(0) translate(4 50)">
<title>TerraSwarm::Synchronous::DemandNegotiation::GetDataPoints</title>
<polygon style="fill:white;stroke:white;" points="-4,4 -4,-50 426,-50 426,4 -4,4"/>
<!-- Node1 -->
<g id="node1" class="node"><title>Node1</title>
<polygon style="fill:#bfbfbf;stroke:black;" points="0,1 0,-46 184,-46 184,1 0,1"/>
<text text-anchor="start" x="8" y="-32" style="font-family:Arial;font-size:10.00;">TerraSwarm::Synchronous</text>
<text text-anchor="start" x="8" y="-19" style="font-family:Arial;font-size:10.00;">::DemandNegotiation::GetData</text>
<text text-anchor="middle" x="92" y="-6" style="font-family:Arial;font-size:10.00;">Points</text>
</g>
<!-- Node2 -->
<g id="node3" class="node"><title>Node2</title>
<a xlink:href="class_terra_swarm_1_1_synchronous_1_1_demand_negotiation.html#af0694c36ab00a1dadf8bb8f1b3c7c159" target="_top" xlink:title="TerraSwarm::Synchronous\l::DemandNegotiation::GetNumber\lOfDataPoints">
<polygon style="fill:white;stroke:black;" points="220,1 220,-46 422,-46 422,1 220,1"/>
<text text-anchor="start" x="228" y="-32" style="font-family:Arial;font-size:10.00;">TerraSwarm::Synchronous</text>
<text text-anchor="start" x="228" y="-19" style="font-family:Arial;font-size:10.00;">::DemandNegotiation::GetNumber</text>
<text text-anchor="middle" x="321" y="-6" style="font-family:Arial;font-size:10.00;">OfDataPoints</text>
</a>
</g>
<!-- Node1&#45;&gt;Node2 -->
<g id="edge2" class="edge"><title>Node1&#45;&gt;Node2</title>
<path style="fill:none;stroke:midnightblue;" d="M184,-23C193,-23 201,-23 210,-23"/>
<polygon style="fill:midnightblue;stroke:midnightblue;" points="210,-26.5001 220,-23 210,-19.5001 210,-26.5001"/>
</g>
</g>
</svg>
