<?xml version="1.0" encoding="UTF-8" standalone="no"?>
<!DOCTYPE svg PUBLIC "-//W3C//DTD SVG 1.0//EN"
 "http://www.w3.org/TR/2001/REC-SVG-20010904/DTD/svg10.dtd" [
 <!ATTLIST svg xmlns:xlink CDATA #FIXED "http://www.w3.org/1999/xlink">
]>
<!-- Generated by Graphviz version 2.14.1 (Fri Nov  9 08:19:38 GMT 2007)
     For user: (asakyurek) Alper Sinan Akyurek -->
<!-- Title: ControlManager::MakeDecision Pages: 1 -->
<svg width="520pt" height="28pt"
 viewBox="0.00 0.00 520.00 28.00" xmlns="http://www.w3.org/2000/svg" xmlns:xlink="http://www.w3.org/1999/xlink">
<g id="graph0" class="graph" transform="scale(1 1) rotate(0) translate(4 24)">
<title>ControlManager::MakeDecision</title>
<polygon style="fill:white;stroke:white;" points="-4,4 -4,-24 516,-24 516,4 -4,4"/>
<!-- Node1 -->
<g id="node1" class="node"><title>Node1</title>
<polygon style="fill:#bfbfbf;stroke:black;" points="1,1 1,-20 186,-20 186,1 1,1"/>
<text text-anchor="middle" x="93" y="-6" style="font-family:Arial;font-size:10.00;">ControlManager::MakeDecision</text>
</g>
<!-- Node2 -->
<g id="node3" class="node"><title>Node2</title>
<a xlink:href="class_system_manager.html#a87443d7e75b0f170535d315c27237253" target="_top" xlink:title="SystemManager::AdvanceTimeStep">
<polygon style="fill:white;stroke:black;" points="222,1 222,-20 432,-20 432,1 222,1"/>
<text text-anchor="middle" x="327" y="-6" style="font-family:Arial;font-size:10.00;">SystemManager::AdvanceTimeStep</text>
</a>
</g>
<!-- Node1&#45;&gt;Node2 -->
<g id="edge2" class="edge"><title>Node1&#45;&gt;Node2</title>
<path style="fill:none;stroke:midnightblue;" d="M196,-10C205,-10 213,-10 222,-10"/>
<polygon style="fill:midnightblue;stroke:midnightblue;" points="196,-6.5001 186,-10 196,-13.5001 196,-6.5001"/>
</g>
<!-- Node3 -->
<g id="node5" class="node"><title>Node3</title>
<a xlink:href="main_8cpp.html#a3c04138a5bfe5d72780bb7e82a18e627" target="_top" xlink:title="main">
<polygon style="fill:white;stroke:black;" points="468,1 468,-20 512,-20 512,1 468,1"/>
<text text-anchor="middle" x="490" y="-6" style="font-family:Arial;font-size:10.00;">main</text>
</a>
</g>
<!-- Node2&#45;&gt;Node3 -->
<g id="edge4" class="edge"><title>Node2&#45;&gt;Node3</title>
<path style="fill:none;stroke:midnightblue;" d="M442,-10C452,-10 461,-10 468,-10"/>
<polygon style="fill:midnightblue;stroke:midnightblue;" points="442,-6.5001 432,-10 442,-13.5001 442,-6.5001"/>
</g>
</g>
</svg>
