<?xml version="1.0" encoding="UTF-8" standalone="no"?>
<!DOCTYPE svg PUBLIC "-//W3C//DTD SVG 1.0//EN"
 "http://www.w3.org/TR/2001/REC-SVG-20010904/DTD/svg10.dtd" [
 <!ATTLIST svg xmlns:xlink CDATA #FIXED "http://www.w3.org/1999/xlink">
]>
<!-- Generated by Graphviz version 2.14.1 (Fri Nov  9 08:19:38 GMT 2007)
     For user: (asakyurek) Alper Sinan Akyurek -->
<!-- Title: ClientManager::ProcessDemandNegotiation Pages: 1 -->
<svg width="662pt" height="214pt"
 viewBox="0.00 0.00 662.00 214.00" xmlns="http://www.w3.org/2000/svg" xmlns:xlink="http://www.w3.org/1999/xlink">
<g id="graph0" class="graph" transform="scale(1 1) rotate(0) translate(4 210)">
<title>ClientManager::ProcessDemandNegotiation</title>
<polygon style="fill:white;stroke:white;" points="-4,4 -4,-210 658,-210 658,4 -4,4"/>
<!-- Node1 -->
<g id="node1" class="node"><title>Node1</title>
<polygon style="fill:#bfbfbf;stroke:black;" points="1,-102 1,-136 190,-136 190,-102 1,-102"/>
<text text-anchor="start" x="9" y="-122" style="font-family:Arial;font-size:10.00;">ClientManager::ProcessDemand</text>
<text text-anchor="middle" x="95" y="-109" style="font-family:Arial;font-size:10.00;">Negotiation</text>
</g>
<!-- Node2 -->
<g id="node3" class="node"><title>Node2</title>
<a xlink:href="_log_print_8h.html#a7e0c5f42cad5bc3a44134fb9c9a7a052" target="_top" xlink:title="LogPrint">
<polygon style="fill:white;stroke:black;" points="523,-172 523,-193 583,-193 583,-172 523,-172"/>
<text text-anchor="middle" x="553" y="-179" style="font-family:Arial;font-size:10.00;">LogPrint</text>
</a>
</g>
<!-- Node1&#45;&gt;Node2 -->
<g id="edge2" class="edge"><title>Node1&#45;&gt;Node2</title>
<path style="fill:none;stroke:midnightblue;" d="M121,-136C147,-152 187,-174 226,-183 327,-206 451,-196 513,-188"/>
<polygon style="fill:midnightblue;stroke:midnightblue;" points="513.398,-191.478 523,-187 512.701,-184.512 513.398,-191.478"/>
</g>
<!-- Node3 -->
<g id="node5" class="node"><title>Node3</title>
<a xlink:href="_control_manager_8cpp.html#a63bfd4667c9c70297f25ae5e5176818e" target="_top" xlink:title="Returns the only instance of ControlManager. ">
<polygon style="fill:white;stroke:black;" points="260,-153 260,-174 383,-174 383,-153 260,-153"/>
<text text-anchor="middle" x="321" y="-160" style="font-family:Arial;font-size:10.00;">GetControlManager</text>
</a>
</g>
<!-- Node1&#45;&gt;Node3 -->
<g id="edge4" class="edge"><title>Node1&#45;&gt;Node3</title>
<path style="fill:none;stroke:midnightblue;" d="M180,-136C204,-141 231,-147 255,-151"/>
<polygon style="fill:midnightblue;stroke:midnightblue;" points="254.508,-154.471 265,-153 255.881,-147.607 254.508,-154.471"/>
</g>
<!-- Node4 -->
<g id="node7" class="node"><title>Node4</title>
<a xlink:href="class_control_manager.html#a5b551f560431d0bb0bcf6c338bac8eb3" target="_top" xlink:title="ControlManager::ClientDemand\lNegotiation">
<polygon style="fill:white;stroke:black;" points="227,-102 227,-136 416,-136 416,-102 227,-102"/>
<text text-anchor="start" x="235" y="-122" style="font-family:Arial;font-size:10.00;">ControlManager::ClientDemand</text>
<text text-anchor="middle" x="321" y="-109" style="font-family:Arial;font-size:10.00;">Negotiation</text>
</a>
</g>
<!-- Node1&#45;&gt;Node4 -->
<g id="edge6" class="edge"><title>Node1&#45;&gt;Node4</title>
<path style="fill:none;stroke:midnightblue;" d="M190,-119C199,-119 208,-119 217,-119"/>
<polygon style="fill:midnightblue;stroke:midnightblue;" points="217,-122.5 227,-119 217,-115.5 217,-122.5"/>
</g>
<!-- Node6 -->
<g id="node12" class="node"><title>Node6</title>
<a xlink:href="class_terra_swarm_1_1_synchronous_1_1_demand_negotiation.html#af0694c36ab00a1dadf8bb8f1b3c7c159" target="_top" xlink:title="TerraSwarm::Synchronous\l::DemandNegotiation::GetNumber\lOfDataPoints">
<polygon style="fill:white;stroke:black;" points="452,-18 452,-65 654,-65 654,-18 452,-18"/>
<text text-anchor="start" x="460" y="-51" style="font-family:Arial;font-size:10.00;">TerraSwarm::Synchronous</text>
<text text-anchor="start" x="460" y="-38" style="font-family:Arial;font-size:10.00;">::DemandNegotiation::GetNumber</text>
<text text-anchor="middle" x="553" y="-25" style="font-family:Arial;font-size:10.00;">OfDataPoints</text>
</a>
</g>
<!-- Node1&#45;&gt;Node6 -->
<g id="edge12" class="edge"><title>Node1&#45;&gt;Node6</title>
<path style="fill:none;stroke:midnightblue;" d="M178,-102C194,-99 210,-96 226,-93 298,-80 378,-67 442,-58"/>
<polygon style="fill:midnightblue;stroke:midnightblue;" points="442.398,-61.4778 452,-57 441.701,-54.5125 442.398,-61.4778"/>
</g>
<!-- Node7 -->
<g id="node14" class="node"><title>Node7</title>
<a xlink:href="class_terra_swarm_1_1_synchronous_1_1_demand_negotiation.html#ab99ce665f0822299184ff34cf5e674d2" target="_top" xlink:title="TerraSwarm::Synchronous\l::DemandNegotiation::GetData\lPoints">
<polygon style="fill:white;stroke:black;" points="229,1 229,-46 413,-46 413,1 229,1"/>
<text text-anchor="start" x="237" y="-32" style="font-family:Arial;font-size:10.00;">TerraSwarm::Synchronous</text>
<text text-anchor="start" x="237" y="-19" style="font-family:Arial;font-size:10.00;">::DemandNegotiation::GetData</text>
<text text-anchor="middle" x="321" y="-6" style="font-family:Arial;font-size:10.00;">Points</text>
</a>
</g>
<!-- Node1&#45;&gt;Node7 -->
<g id="edge14" class="edge"><title>Node1&#45;&gt;Node7</title>
<path style="fill:none;stroke:midnightblue;" d="M131,-102C158,-90 194,-73 226,-60 234,-56 243,-53 251,-50"/>
<polygon style="fill:midnightblue;stroke:midnightblue;" points="252.283,-53.2598 260,-46 249.44,-46.8631 252.283,-53.2598"/>
</g>
<!-- Node4&#45;&gt;Node2 -->
<g id="edge8" class="edge"><title>Node4&#45;&gt;Node2</title>
<path style="fill:none;stroke:midnightblue;" d="M384,-136C395,-139 406,-142 416,-145 449,-154 486,-164 513,-171"/>
<polygon style="fill:midnightblue;stroke:midnightblue;" points="512.416,-174.479 523,-174 514.427,-167.774 512.416,-174.479"/>
</g>
<!-- Node5 -->
<g id="node10" class="node"><title>Node5</title>
<a xlink:href="class_t_c_p_connected_client.html#a7c3a1d1172f3880b48d35ffbf255712d" target="_top" xlink:title="TCPConnectedClient\l::SendData">
<polygon style="fill:white;stroke:black;" points="489,-102 489,-136 618,-136 618,-102 489,-102"/>
<text text-anchor="start" x="497" y="-122" style="font-family:Arial;font-size:10.00;">TCPConnectedClient</text>
<text text-anchor="middle" x="553" y="-109" style="font-family:Arial;font-size:10.00;">::SendData</text>
</a>
</g>
<!-- Node4&#45;&gt;Node5 -->
<g id="edge10" class="edge"><title>Node4&#45;&gt;Node5</title>
<path style="fill:none;stroke:midnightblue;" d="M416,-119C437,-119 459,-119 479,-119"/>
<polygon style="fill:midnightblue;stroke:midnightblue;" points="479,-122.5 489,-119 479,-115.5 479,-122.5"/>
</g>
<!-- Node7&#45;&gt;Node6 -->
<g id="edge16" class="edge"><title>Node7&#45;&gt;Node6</title>
<path style="fill:none;stroke:midnightblue;" d="M413,-31C423,-32 432,-32 442,-33"/>
<polygon style="fill:midnightblue;stroke:midnightblue;" points="441.701,-36.4875 452,-34 442.398,-29.5222 441.701,-36.4875"/>
</g>
</g>
</svg>
