<?xml version="1.0" encoding="UTF-8" standalone="no"?>
<!DOCTYPE svg PUBLIC "-//W3C//DTD SVG 1.0//EN"
 "http://www.w3.org/TR/2001/REC-SVG-20010904/DTD/svg10.dtd" [
 <!ATTLIST svg xmlns:xlink CDATA #FIXED "http://www.w3.org/1999/xlink">
]>
<!-- Generated by Graphviz version 2.14.1 (Fri Nov  9 08:19:38 GMT 2007)
     For user: (asakyurek) Alper Sinan Akyurek -->
<!-- Title: TCPServer::SetPort Pages: 1 -->
<svg width="360pt" height="118pt"
 viewBox="0.00 0.00 360.00 118.00" xmlns="http://www.w3.org/2000/svg" xmlns:xlink="http://www.w3.org/1999/xlink">
<g id="graph0" class="graph" transform="scale(1 1) rotate(0) translate(4 114)">
<title>TCPServer::SetPort</title>
<polygon style="fill:white;stroke:white;" points="-4,4 -4,-114 356,-114 356,4 -4,4"/>
<!-- Node1 -->
<g id="node1" class="node"><title>Node1</title>
<polygon style="fill:#bfbfbf;stroke:black;" points="1,-37 1,-58 118,-58 118,-37 1,-37"/>
<text text-anchor="middle" x="59" y="-44" style="font-family:Arial;font-size:10.00;">TCPServer::SetPort</text>
</g>
<!-- Node2 -->
<g id="node3" class="node"><title>Node2</title>
<a xlink:href="class_connection_manager.html#a7928f3e95b4e88b01c11eaf3e8089ee7" target="_top" xlink:title="Private constructor for singleton implementation. ">
<polygon style="fill:white;stroke:black;" points="187,-76 187,-110 320,-110 320,-76 187,-76"/>
<text text-anchor="start" x="195" y="-96" style="font-family:Arial;font-size:10.00;">ConnectionManager::</text>
<text text-anchor="middle" x="253" y="-83" style="font-family:Arial;font-size:10.00;">ConnectionManager</text>
</a>
</g>
<!-- Node1&#45;&gt;Node2 -->
<g id="edge2" class="edge"><title>Node1&#45;&gt;Node2</title>
<path style="fill:none;stroke:midnightblue;" d="M113,-60C136,-66 163,-72 187,-77"/>
<polygon style="fill:midnightblue;stroke:midnightblue;" points="113.492,-56.5292 103,-58 112.119,-63.3933 113.492,-56.5292"/>
</g>
<!-- Node3 -->
<g id="node5" class="node"><title>Node3</title>
<a xlink:href="class_control_manager.html#ab81bac3e592705b7ca4b23ce473fe26e" target="_top" xlink:title="Private constructor for singleton implementation. ">
<polygon style="fill:white;stroke:black;" points="154,-37 154,-58 352,-58 352,-37 154,-37"/>
<text text-anchor="middle" x="253" y="-44" style="font-family:Arial;font-size:10.00;">ControlManager::ControlManager</text>
</a>
</g>
<!-- Node1&#45;&gt;Node3 -->
<g id="edge4" class="edge"><title>Node1&#45;&gt;Node3</title>
<path style="fill:none;stroke:midnightblue;" d="M128,-48C137,-48 146,-48 154,-48"/>
<polygon style="fill:midnightblue;stroke:midnightblue;" points="128,-44.5001 118,-48 128,-51.5001 128,-44.5001"/>
</g>
<!-- Node4 -->
<g id="node7" class="node"><title>Node4</title>
<a xlink:href="class_matlab_manager.html#a319d996a8872d9cdba8cf335520af258" target="_top" xlink:title="Private constructor to implement the singleton. ">
<polygon style="fill:white;stroke:black;" points="157,1 157,-20 349,-20 349,1 157,1"/>
<text text-anchor="middle" x="253" y="-6" style="font-family:Arial;font-size:10.00;">MatlabManager::MatlabManager</text>
</a>
</g>
<!-- Node1&#45;&gt;Node4 -->
<g id="edge6" class="edge"><title>Node1&#45;&gt;Node4</title>
<path style="fill:none;stroke:midnightblue;" d="M123,-35C134,-33 144,-31 154,-29 169,-26 185,-23 200,-20"/>
<polygon style="fill:midnightblue;stroke:midnightblue;" points="122.119,-31.6067 113,-37 123.492,-38.4708 122.119,-31.6067"/>
</g>
</g>
</svg>
