<?xml version="1.0" encoding="UTF-8" standalone="no"?>
<!DOCTYPE svg PUBLIC "-//W3C//DTD SVG 1.0//EN"
 "http://www.w3.org/TR/2001/REC-SVG-20010904/DTD/svg10.dtd" [
 <!ATTLIST svg xmlns:xlink CDATA #FIXED "http://www.w3.org/1999/xlink">
]>
<!-- Generated by Graphviz version 2.14.1 (Fri Nov  9 08:19:38 GMT 2007)
     For user: (asakyurek) Alper Sinan Akyurek -->
<!-- Title: SizeCheck::Check Pages: 1 -->
<svg width="598pt" height="94pt"
 viewBox="0.00 0.00 598.00 94.00" xmlns="http://www.w3.org/2000/svg" xmlns:xlink="http://www.w3.org/1999/xlink">
<g id="graph0" class="graph" transform="scale(1 1) rotate(0) translate(4 90)">
<title>SizeCheck::Check</title>
<polygon style="fill:white;stroke:white;" points="-4,4 -4,-90 594,-90 594,4 -4,4"/>
<!-- Node1 -->
<g id="node1" class="node"><title>Node1</title>
<polygon style="fill:#bfbfbf;stroke:black;" points="1,-32 1,-53 114,-53 114,-32 1,-32"/>
<text text-anchor="middle" x="57" y="-39" style="font-family:Arial;font-size:10.00;">SizeCheck::Check</text>
</g>
<!-- Node2 -->
<g id="node3" class="node"><title>Node2</title>
<a xlink:href="class_terra_swarm_1_1_network_byte_accessor.html#a7d6e11dd4a5f86e6c036bbcf64bccf25" target="_top" xlink:title="Writes a value to the given address index with correct byte order. ">
<polygon style="fill:white;stroke:black;" points="150,-52 150,-86 352,-86 352,-52 150,-52"/>
<text text-anchor="start" x="158" y="-72" style="font-family:Arial;font-size:10.00;">TerraSwarm::NetworkByteAccessor</text>
<text text-anchor="middle" x="251" y="-59" style="font-family:Arial;font-size:10.00;">::Write</text>
</a>
</g>
<!-- Node1&#45;&gt;Node2 -->
<g id="edge2" class="edge"><title>Node1&#45;&gt;Node2</title>
<path style="fill:none;stroke:midnightblue;" d="M124,-52C132,-53 141,-55 150,-56"/>
<polygon style="fill:midnightblue;stroke:midnightblue;" points="124.299,-48.5125 114,-51 123.602,-55.4778 124.299,-48.5125"/>
</g>
<!-- Node4 -->
<g id="node7" class="node"><title>Node4</title>
<a xlink:href="class_terra_swarm_1_1_network_byte_accessor.html#a30b72470a765a59f572cc72db86db29a" target="_top" xlink:title="Reads a value from the given address index with correct byte order. ">
<polygon style="fill:white;stroke:black;" points="150,-0 150,-34 352,-34 352,-0 150,-0"/>
<text text-anchor="start" x="158" y="-20" style="font-family:Arial;font-size:10.00;">TerraSwarm::NetworkByteAccessor</text>
<text text-anchor="middle" x="251" y="-7" style="font-family:Arial;font-size:10.00;">::Read</text>
</a>
</g>
<!-- Node1&#45;&gt;Node4 -->
<g id="edge6" class="edge"><title>Node1&#45;&gt;Node4</title>
<path style="fill:none;stroke:midnightblue;" d="M124,-34C132,-33 141,-31 150,-30"/>
<polygon style="fill:midnightblue;stroke:midnightblue;" points="123.602,-30.5222 114,-35 124.299,-37.4875 123.602,-30.5222"/>
</g>
<!-- Node3 -->
<g id="node5" class="node"><title>Node3</title>
<a xlink:href="class_terra_swarm_1_1_network_byte_accessor.html#a860d2c70eadf18eccbcf1488f1a0e5d5" target="_top" xlink:title="Same as Write() to simplify code writing. ">
<polygon style="fill:white;stroke:black;" points="388,-52 388,-86 590,-86 590,-52 388,-52"/>
<text text-anchor="start" x="396" y="-72" style="font-family:Arial;font-size:10.00;">TerraSwarm::NetworkByteAccessor</text>
<text text-anchor="middle" x="489" y="-59" style="font-family:Arial;font-size:10.00;">::operator=</text>
</a>
</g>
<!-- Node2&#45;&gt;Node3 -->
<g id="edge4" class="edge"><title>Node2&#45;&gt;Node3</title>
<path style="fill:none;stroke:midnightblue;" d="M362,-69C371,-69 379,-69 388,-69"/>
<polygon style="fill:midnightblue;stroke:midnightblue;" points="362,-65.5001 352,-69 362,-72.5001 362,-65.5001"/>
</g>
</g>
</svg>
