<?xml version="1.0" encoding="UTF-8" standalone="no"?>
<!DOCTYPE svg PUBLIC "-//W3C//DTD SVG 1.0//EN"
 "http://www.w3.org/TR/2001/REC-SVG-20010904/DTD/svg10.dtd" [
 <!ATTLIST svg xmlns:xlink CDATA #FIXED "http://www.w3.org/1999/xlink">
]>
<!-- Generated by Graphviz version 2.14.1 (Fri Nov  9 08:19:38 GMT 2007)
     For user: (asakyurek) Alper Sinan Akyurek -->
<!-- Title: S2Sim Pages: 1 -->
<svg width="284pt" height="236pt"
 viewBox="0.00 0.00 284.00 236.00" xmlns="http://www.w3.org/2000/svg" xmlns:xlink="http://www.w3.org/1999/xlink">
<g id="graph0" class="graph" transform="scale(1 1) rotate(0) translate(4 232)">
<title>S2Sim</title>
<polygon style="fill:white;stroke:white;" points="-4,4 -4,-232 280,-232 280,4 -4,4"/>
<g id="cluster2" class="cluster"><title>clusterdir_80d13aca5c3a7fbefcf31bfb6d4a9613</title>
<a xlink:href="dir_80d13aca5c3a7fbefcf31bfb6d4a9613.html" target="_top">
<polygon style="fill:none;stroke:black;" points="8,-16 8,-220 268,-220 268,-16 8,-16"/>
</a>
</g>
<!-- dir_80d13aca5c3a7fbefcf31bfb6d4a9613 -->
<g id="node2" class="node"><title>dir_80d13aca5c3a7fbefcf31bfb6d4a9613</title>
<text text-anchor="middle" x="81" y="-183" style="font-family:Arial;font-size:10.00;">S2Sim</text>
</g>
<!-- dir_be64e86445d092dbca7079e13fc3ea4f -->
<g id="node3" class="node"><title>dir_be64e86445d092dbca7079e13fc3ea4f</title>
<a xlink:href="dir_be64e86445d092dbca7079e13fc3ea4f.html" target="_top" xlink:title="SemaphoreLibrary">
<polygon style="fill:white;stroke:black;" points="132,-60 16,-60 16,-24 132,-24 132,-60"/>
<text text-anchor="middle" x="74" y="-39" style="font-family:Arial;font-size:10.00;">SemaphoreLibrary</text>
</a>
</g>
<!-- dir_80d13aca5c3a7fbefcf31bfb6d4a9613&#45;&gt;dir_be64e86445d092dbca7079e13fc3ea4f -->
<g id="edge11" class="edge"><title>dir_80d13aca5c3a7fbefcf31bfb6d4a9613&#45;&gt;dir_be64e86445d092dbca7079e13fc3ea4f</title>
<path style="fill:none;stroke:black;" d="M55,-168C45,-158 33,-146 27,-132 21,-117 22,-110 27,-96 32,-85 39,-76 46,-67"/>
<polygon style="fill:black;stroke:black;" points="48.4038,-69.546 53,-60 43.454,-64.5962 48.4038,-69.546"/>
<a xlink:href="dir_000000_000002.html" target="_top" xlink:title="4">
</a>
<a xlink:href="dir_000000_000002.html" target="_top" xlink:title="4">
<text text-anchor="middle" x="48" y="-71" style="font-family:Arial;font-size:10.00;">4</text>
</a>
</g>
<!-- dir_6b989bf8ba74a24286adf9e324b41c76 -->
<g id="node4" class="node"><title>dir_6b989bf8ba74a24286adf9e324b41c76</title>
<a xlink:href="dir_6b989bf8ba74a24286adf9e324b41c76.html" target="_top" xlink:title="SocketLibrary">
<polygon style="fill:white;stroke:black;" points="126,-132 36,-132 36,-96 126,-96 126,-132"/>
<text text-anchor="middle" x="81" y="-111" style="font-family:Arial;font-size:10.00;">SocketLibrary</text>
</a>
</g>
<!-- dir_80d13aca5c3a7fbefcf31bfb6d4a9613&#45;&gt;dir_6b989bf8ba74a24286adf9e324b41c76 -->
<g id="edge9" class="edge"><title>dir_80d13aca5c3a7fbefcf31bfb6d4a9613&#45;&gt;dir_6b989bf8ba74a24286adf9e324b41c76</title>
<path style="fill:none;stroke:black;" d="M81,-168C81,-160 81,-151 81,-142"/>
<polygon style="fill:black;stroke:black;" points="84.5001,-142 81,-132 77.5001,-142 84.5001,-142"/>
<a xlink:href="dir_000000_000003.html" target="_top" xlink:title="8">
</a>
<a xlink:href="dir_000000_000003.html" target="_top" xlink:title="8">
<text text-anchor="middle" x="87" y="-143" style="font-family:Arial;font-size:10.00;">8</text>
</a>
</g>
<!-- dir_202c07ae6a49a06cb07d2db250fe6de9 -->
<g id="node5" class="node"><title>dir_202c07ae6a49a06cb07d2db250fe6de9</title>
<a xlink:href="dir_202c07ae6a49a06cb07d2db250fe6de9.html" target="_top" xlink:title="TerraswarmLibrary">
<polygon style="fill:white;stroke:black;" points="260,-132 144,-132 144,-96 260,-96 260,-132"/>
<text text-anchor="middle" x="202" y="-111" style="font-family:Arial;font-size:10.00;">TerraswarmLibrary</text>
</a>
</g>
<!-- dir_80d13aca5c3a7fbefcf31bfb6d4a9613&#45;&gt;dir_202c07ae6a49a06cb07d2db250fe6de9 -->
<g id="edge7" class="edge"><title>dir_80d13aca5c3a7fbefcf31bfb6d4a9613&#45;&gt;dir_202c07ae6a49a06cb07d2db250fe6de9</title>
<path style="fill:none;stroke:black;" d="M108,-170C124,-161 145,-148 163,-137"/>
<polygon style="fill:black;stroke:black;" points="164.958,-139.916 172,-132 161.559,-133.797 164.958,-139.916"/>
<a xlink:href="dir_000000_000001.html" target="_top" xlink:title="8">
</a>
<a xlink:href="dir_000000_000001.html" target="_top" xlink:title="8">
<text text-anchor="middle" x="163" y="-141" style="font-family:Arial;font-size:10.00;">8</text>
</a>
</g>
<!-- dir_6b989bf8ba74a24286adf9e324b41c76&#45;&gt;dir_be64e86445d092dbca7079e13fc3ea4f -->
<g id="edge3" class="edge"><title>dir_6b989bf8ba74a24286adf9e324b41c76&#45;&gt;dir_be64e86445d092dbca7079e13fc3ea4f</title>
<path style="fill:none;stroke:black;" d="M79,-96C78,-88 78,-79 77,-70"/>
<polygon style="fill:black;stroke:black;" points="80.4778,-69.6021 76,-60 73.5125,-70.2987 80.4778,-69.6021"/>
<a xlink:href="dir_000003_000002.html" target="_top" xlink:title="2">
</a>
<a xlink:href="dir_000003_000002.html" target="_top" xlink:title="2">
<text text-anchor="middle" x="84" y="-70" style="font-family:Arial;font-size:10.00;">2</text>
</a>
</g>
<!-- dir_a7af9107ec02fcfb2ee8d3bbd2609d89 -->
<g id="node6" class="node"><title>dir_a7af9107ec02fcfb2ee8d3bbd2609d89</title>
<a xlink:href="dir_a7af9107ec02fcfb2ee8d3bbd2609d89.html" target="_top" xlink:title="ThreadLibrary">
<polygon style="fill:white;stroke:black;" points="242,-60 150,-60 150,-24 242,-24 242,-60"/>
<text text-anchor="middle" x="196" y="-39" style="font-family:Arial;font-size:10.00;">ThreadLibrary</text>
</a>
</g>
<!-- dir_6b989bf8ba74a24286adf9e324b41c76&#45;&gt;dir_a7af9107ec02fcfb2ee8d3bbd2609d89 -->
<g id="edge5" class="edge"><title>dir_6b989bf8ba74a24286adf9e324b41c76&#45;&gt;dir_a7af9107ec02fcfb2ee8d3bbd2609d89</title>
<path style="fill:none;stroke:black;" d="M110,-96C125,-87 143,-76 158,-66"/>
<polygon style="fill:black;stroke:black;" points="160.621,-68.4592 167,-60 156.738,-62.6349 160.621,-68.4592"/>
<a xlink:href="dir_000003_000004.html" target="_top" xlink:title="3">
</a>
<a xlink:href="dir_000003_000004.html" target="_top" xlink:title="3">
<text text-anchor="middle" x="159" y="-70" style="font-family:Arial;font-size:10.00;">3</text>
</a>
</g>
</g>
</svg>
