<?xml version="1.0" encoding="UTF-8" standalone="no"?>
<!DOCTYPE svg PUBLIC "-//W3C//DTD SVG 1.0//EN"
 "http://www.w3.org/TR/2001/REC-SVG-20010904/DTD/svg10.dtd" [
 <!ATTLIST svg xmlns:xlink CDATA #FIXED "http://www.w3.org/1999/xlink">
]>
<!-- Generated by Graphviz version 2.14.1 (Fri Nov  9 08:19:38 GMT 2007)
     For user: (asakyurek) Alper Sinan Akyurek -->
<!-- Title: S2Sim/SocketLibrary Pages: 1 -->
<svg width="234pt" height="161pt"
 viewBox="0.00 0.00 234.00 161.00" xmlns="http://www.w3.org/2000/svg" xmlns:xlink="http://www.w3.org/1999/xlink">
<g id="graph0" class="graph" transform="scale(1 1) rotate(0) translate(4 157)">
<title>S2Sim/SocketLibrary</title>
<polygon style="fill:white;stroke:white;" points="-4,4 -4,-157 230,-157 230,4 -4,4"/>
<g id="cluster2" class="cluster"><title>clusterdir_80d13aca5c3a7fbefcf31bfb6d4a9613</title>
<a xlink:href="dir_80d13aca5c3a7fbefcf31bfb6d4a9613.html" target="_top" xlink:title="S2Sim">
<polygon style="fill:none;stroke:black;" points="66,-72 66,-145 172,-145 172,-72 66,-72"/>
<text text-anchor="middle" x="119" y="-132" style="font-family:Arial;font-size:10.00;">S2Sim</text>
</a>
</g>
<!-- dir_6b989bf8ba74a24286adf9e324b41c76 -->
<g id="node2" class="node"><title>dir_6b989bf8ba74a24286adf9e324b41c76</title>
<a xlink:href="dir_6b989bf8ba74a24286adf9e324b41c76.html" target="_top" xlink:title="SocketLibrary">
<polygon style="fill:#eeeeff;stroke:black;" points="164,-116 74,-116 74,-80 164,-80 164,-116"/>
<text text-anchor="middle" x="119" y="-95" style="font-family:Arial;font-size:10.00;">SocketLibrary</text>
</a>
</g>
<!-- dir_be64e86445d092dbca7079e13fc3ea4f -->
<g id="node3" class="node"><title>dir_be64e86445d092dbca7079e13fc3ea4f</title>
<a xlink:href="dir_be64e86445d092dbca7079e13fc3ea4f.html" target="_top" xlink:title="SemaphoreLibrary">
<polygon style="fill:none;stroke:black;" points="116,-44 5.68434e-14,-44 7.10543e-15,-8 116,-8 116,-44"/>
<text text-anchor="middle" x="58" y="-23" style="font-family:Arial;font-size:10.00;">SemaphoreLibrary</text>
</a>
</g>
<!-- dir_6b989bf8ba74a24286adf9e324b41c76&#45;&gt;dir_be64e86445d092dbca7079e13fc3ea4f -->
<g id="edge3" class="edge"><title>dir_6b989bf8ba74a24286adf9e324b41c76&#45;&gt;dir_be64e86445d092dbca7079e13fc3ea4f</title>
<path style="fill:none;stroke:black;" d="M104,-80C97,-71 88,-61 80,-52"/>
<polygon style="fill:black;stroke:black;" points="82.2191,-49.221 73,-44 76.9511,-53.8306 82.2191,-49.221"/>
<a xlink:href="dir_000002_000001.html" target="_top" xlink:title="2">
</a>
<a xlink:href="dir_000002_000001.html" target="_top" xlink:title="2">
<text text-anchor="middle" x="87" y="-47" style="font-family:Arial;font-size:10.00;">2</text>
</a>
</g>
<!-- dir_a7af9107ec02fcfb2ee8d3bbd2609d89 -->
<g id="node4" class="node"><title>dir_a7af9107ec02fcfb2ee8d3bbd2609d89</title>
<a xlink:href="dir_a7af9107ec02fcfb2ee8d3bbd2609d89.html" target="_top" xlink:title="ThreadLibrary">
<polygon style="fill:none;stroke:black;" points="226,-44 134,-44 134,-8 226,-8 226,-44"/>
<text text-anchor="middle" x="180" y="-23" style="font-family:Arial;font-size:10.00;">ThreadLibrary</text>
</a>
</g>
<!-- dir_6b989bf8ba74a24286adf9e324b41c76&#45;&gt;dir_a7af9107ec02fcfb2ee8d3bbd2609d89 -->
<g id="edge5" class="edge"><title>dir_6b989bf8ba74a24286adf9e324b41c76&#45;&gt;dir_a7af9107ec02fcfb2ee8d3bbd2609d89</title>
<path style="fill:none;stroke:black;" d="M134,-80C141,-71 150,-61 158,-52"/>
<polygon style="fill:black;stroke:black;" points="161.049,-53.8306 165,-44 155.781,-49.221 161.049,-53.8306"/>
<a xlink:href="dir_000002_000004.html" target="_top" xlink:title="3">
</a>
<a xlink:href="dir_000002_000004.html" target="_top" xlink:title="3">
<text text-anchor="middle" x="161" y="-55" style="font-family:Arial;font-size:10.00;">3</text>
</a>
</g>
</g>
</svg>
