<?xml version="1.0" encoding="UTF-8" standalone="no"?>
<!DOCTYPE svg PUBLIC "-//W3C//DTD SVG 1.0//EN"
 "http://www.w3.org/TR/2001/REC-SVG-20010904/DTD/svg10.dtd" [
 <!ATTLIST svg xmlns:xlink CDATA #FIXED "http://www.w3.org/1999/xlink">
]>
<!-- Generated by Graphviz version 2.14.1 (Fri Nov  9 08:19:38 GMT 2007)
     For user: (asakyurek) Alper Sinan Akyurek -->
<!-- Title: Graphical Class Hierarchy Pages: 1 -->
<svg width="574pt" height="142pt"
 viewBox="0.00 0.00 574.00 142.00" xmlns="http://www.w3.org/2000/svg" xmlns:xlink="http://www.w3.org/1999/xlink">
<g id="graph0" class="graph" transform="scale(1 1) rotate(0) translate(4 138)">
<title>Graphical Class Hierarchy</title>
<polygon style="fill:white;stroke:white;" points="-4,4 -4,-138 570,-138 570,4 -4,4"/>
<!-- Node1 -->
<g id="node1" class="node"><title>Node1</title>
<a xlink:href="class_socket_base.html" target="_top" xlink:title="SocketBase\&lt; SOCK_STREAM \&gt;">
<polygon style="fill:white;stroke:black;" points="0,-75 0,-96 182,-96 182,-75 0,-75"/>
<text text-anchor="middle" x="91" y="-82" style="font-family:Arial;font-size:10.00;">SocketBase&lt; SOCK_STREAM &gt;</text>
</a>
</g>
<!-- Node2 -->
<g id="node3" class="node"><title>Node2</title>
<a xlink:href="class_t_c_p_client.html" target="_top" xlink:title="TCPClient">
<polygon style="fill:white;stroke:black;" points="249,-113 249,-134 318,-134 318,-113 249,-113"/>
<text text-anchor="middle" x="283" y="-120" style="font-family:Arial;font-size:10.00;">TCPClient</text>
</a>
</g>
<!-- Node1&#45;&gt;Node2 -->
<g id="edge2" class="edge"><title>Node1&#45;&gt;Node2</title>
<path style="fill:none;stroke:midnightblue;" d="M152,-98C184,-105 222,-112 249,-117"/>
<polygon style="fill:midnightblue;stroke:midnightblue;" points="152.492,-94.5292 142,-96 151.119,-101.393 152.492,-94.5292"/>
</g>
<!-- Node4 -->
<g id="node7" class="node"><title>Node4</title>
<a xlink:href="class_t_c_p_connected_client.html" target="_top" xlink:title="TCPConnectedClient">
<polygon style="fill:white;stroke:black;" points="219,-75 219,-96 348,-96 348,-75 219,-75"/>
<text text-anchor="middle" x="283" y="-82" style="font-family:Arial;font-size:10.00;">TCPConnectedClient</text>
</a>
</g>
<!-- Node1&#45;&gt;Node4 -->
<g id="edge6" class="edge"><title>Node1&#45;&gt;Node4</title>
<path style="fill:none;stroke:midnightblue;" d="M192,-86C201,-86 210,-86 219,-86"/>
<polygon style="fill:midnightblue;stroke:midnightblue;" points="192,-82.5001 182,-86 192,-89.5001 192,-82.5001"/>
</g>
<!-- Node6 -->
<g id="node11" class="node"><title>Node6</title>
<a xlink:href="class_t_c_p_server.html" target="_top" xlink:title="TCPServer">
<polygon style="fill:white;stroke:black;" points="247,1 247,-20 319,-20 319,1 247,1"/>
<text text-anchor="middle" x="283" y="-6" style="font-family:Arial;font-size:10.00;">TCPServer</text>
</a>
</g>
<!-- Node1&#45;&gt;Node6 -->
<g id="edge10" class="edge"><title>Node1&#45;&gt;Node6</title>
<path style="fill:none;stroke:midnightblue;" d="M122,-71C147,-59 184,-41 218,-29 227,-25 238,-22 247,-19"/>
<polygon style="fill:midnightblue;stroke:midnightblue;" points="120.717,-67.7402 113,-75 123.56,-74.1369 120.717,-67.7402"/>
</g>
<!-- Node3 -->
<g id="node5" class="node"><title>Node3</title>
<a xlink:href="class_threaded_t_c_p_client.html" target="_top" xlink:title="ThreadedTCPClient">
<polygon style="fill:white;stroke:black;" points="414,-113 414,-134 536,-134 536,-113 414,-113"/>
<text text-anchor="middle" x="475" y="-120" style="font-family:Arial;font-size:10.00;">ThreadedTCPClient</text>
</a>
</g>
<!-- Node2&#45;&gt;Node3 -->
<g id="edge4" class="edge"><title>Node2&#45;&gt;Node3</title>
<path style="fill:none;stroke:midnightblue;" d="M328,-124C354,-124 386,-124 414,-124"/>
<polygon style="fill:midnightblue;stroke:midnightblue;" points="328,-120.5 318,-124 328,-127.5 328,-120.5"/>
</g>
<!-- Node5 -->
<g id="node9" class="node"><title>Node5</title>
<a xlink:href="class_threaded_t_c_p_connected_client.html" target="_top" xlink:title="ThreadedTCPConnectedClient">
<polygon style="fill:white;stroke:black;" points="384,-75 384,-96 566,-96 566,-75 384,-75"/>
<text text-anchor="middle" x="475" y="-82" style="font-family:Arial;font-size:10.00;">ThreadedTCPConnectedClient</text>
</a>
</g>
<!-- Node4&#45;&gt;Node5 -->
<g id="edge8" class="edge"><title>Node4&#45;&gt;Node5</title>
<path style="fill:none;stroke:midnightblue;" d="M358,-86C367,-86 375,-86 384,-86"/>
<polygon style="fill:midnightblue;stroke:midnightblue;" points="358,-82.5001 348,-86 358,-89.5001 358,-82.5001"/>
</g>
<!-- Node7 -->
<g id="node13" class="node"><title>Node7</title>
<a xlink:href="class_threaded_t_c_p_server.html" target="_top" xlink:title="ThreadedTCPServer">
<polygon style="fill:white;stroke:black;" points="413,1 413,-20 538,-20 538,1 413,1"/>
<text text-anchor="middle" x="475" y="-6" style="font-family:Arial;font-size:10.00;">ThreadedTCPServer</text>
</a>
</g>
<!-- Node6&#45;&gt;Node7 -->
<g id="edge12" class="edge"><title>Node6&#45;&gt;Node7</title>
<path style="fill:none;stroke:midnightblue;" d="M329,-10C354,-10 386,-10 413,-10"/>
<polygon style="fill:midnightblue;stroke:midnightblue;" points="329,-6.5001 319,-10 329,-13.5001 329,-6.5001"/>
</g>
<!-- Node8 -->
<g id="node14" class="node"><title>Node8</title>
<a xlink:href="class_thread_base.html" target="_top" xlink:title="ThreadBase">
<polygon style="fill:white;stroke:black;" points="243,-37 243,-58 324,-58 324,-37 243,-37"/>
<text text-anchor="middle" x="283" y="-44" style="font-family:Arial;font-size:10.00;">ThreadBase</text>
</a>
</g>
<!-- Node8&#45;&gt;Node3 -->
<g id="edge16" class="edge"><title>Node8&#45;&gt;Node3</title>
<path style="fill:none;stroke:#8b1a1a;" d="M334,-59C339,-62 344,-64 348,-67 368,-79 364,-93 384,-105 393,-110 404,-114 414,-116"/>
<polygon style="fill:#8b1a1a;stroke:#8b1a1a;" points="334.584,-55.5212 324,-56 332.573,-62.2259 334.584,-55.5212"/>
</g>
<!-- Node8&#45;&gt;Node5 -->
<g id="edge18" class="edge"><title>Node8&#45;&gt;Node5</title>
<path style="fill:none;stroke:#8b1a1a;" d="M334,-58C361,-63 393,-70 420,-75"/>
<polygon style="fill:#8b1a1a;stroke:#8b1a1a;" points="334.492,-54.5292 324,-56 333.119,-61.3933 334.492,-54.5292"/>
</g>
<!-- Node8&#45;&gt;Node7 -->
<g id="edge20" class="edge"><title>Node8&#45;&gt;Node7</title>
<path style="fill:none;stroke:#8b1a1a;" d="M334,-38C363,-32 397,-25 425,-20"/>
<polygon style="fill:#8b1a1a;stroke:#8b1a1a;" points="333.119,-34.6067 324,-40 334.492,-41.4708 333.119,-34.6067"/>
</g>
<!-- Node9 -->
<g id="node16" class="node"><title>Node9</title>
<a xlink:href="class_my_thread.html" target="_top" xlink:title="MyThread">
<polygon style="fill:white;stroke:black;" points="440,-37 440,-58 510,-58 510,-37 440,-37"/>
<text text-anchor="middle" x="475" y="-44" style="font-family:Arial;font-size:10.00;">MyThread</text>
</a>
</g>
<!-- Node8&#45;&gt;Node9 -->
<g id="edge14" class="edge"><title>Node8&#45;&gt;Node9</title>
<path style="fill:none;stroke:midnightblue;" d="M334,-48C368,-48 410,-48 440,-48"/>
<polygon style="fill:midnightblue;stroke:midnightblue;" points="334,-44.5001 324,-48 334,-51.5001 334,-44.5001"/>
</g>
</g>
</svg>
