<?xml version="1.0" encoding="UTF-8" standalone="no"?>
<!DOCTYPE svg PUBLIC "-//W3C//DTD SVG 1.0//EN"
 "http://www.w3.org/TR/2001/REC-SVG-20010904/DTD/svg10.dtd" [
 <!ATTLIST svg xmlns:xlink CDATA #FIXED "http://www.w3.org/1999/xlink">
]>
<!-- Generated by Graphviz version 2.14.1 (Fri Nov  9 08:19:38 GMT 2007)
     For user: (asakyurek) Alper Sinan Akyurek -->
<!-- Title: Graphical Class Hierarchy Pages: 1 -->
<svg width="574pt" height="142pt"
 viewBox="0.00 0.00 574.00 142.00" xmlns="http://www.w3.org/2000/svg" xmlns:xlink="http://www.w3.org/1999/xlink">
<g id="graph0" class="graph" transform="scale(1 1) rotate(0) translate(4 138)">
<title>Graphical Class Hierarchy</title>
<polygon style="fill:white;stroke:white;" points="-4,4 -4,-138 570,-138 570,4 -4,4"/>
<!-- Node1 -->
<g id="node1" class="node"><title>Node1</title>
<a xlink:href="class_socket_base.html" target="_top" xlink:title="SocketBase\&lt; SOCK_STREAM \&gt;">
<polygon style="fill:white;stroke:black;" points="0,-37 0,-58 182,-58 182,-37 0,-37"/>
<text text-anchor="middle" x="91" y="-44" style="font-family:Arial;font-size:10.00;">SocketBase&lt; SOCK_STREAM &gt;</text>
</a>
</g>
<!-- Node2 -->
<g id="node3" class="node"><title>Node2</title>
<a xlink:href="class_t_c_p_client.html" target="_top" xlink:title="This class defines a TCP client that can connect to a TCP server and communicate. ...">
<polygon style="fill:white;stroke:black;" points="249,-113 249,-134 318,-134 318,-113 249,-113"/>
<text text-anchor="middle" x="283" y="-120" style="font-family:Arial;font-size:10.00;">TCPClient</text>
</a>
</g>
<!-- Node1&#45;&gt;Node2 -->
<g id="edge2" class="edge"><title>Node1&#45;&gt;Node2</title>
<path style="fill:none;stroke:midnightblue;" d="M120,-62C146,-74 183,-92 218,-105 228,-108 239,-112 249,-115"/>
<polygon style="fill:midnightblue;stroke:midnightblue;" points="121.56,-58.8631 111,-58 118.717,-65.2598 121.56,-58.8631"/>
</g>
<!-- Node4 -->
<g id="node7" class="node"><title>Node4</title>
<a xlink:href="class_t_c_p_connected_client.html" target="_top" xlink:title="Manages the connection to a connected client on the server side. ">
<polygon style="fill:white;stroke:black;" points="219,-37 219,-58 348,-58 348,-37 219,-37"/>
<text text-anchor="middle" x="283" y="-44" style="font-family:Arial;font-size:10.00;">TCPConnectedClient</text>
</a>
</g>
<!-- Node1&#45;&gt;Node4 -->
<g id="edge6" class="edge"><title>Node1&#45;&gt;Node4</title>
<path style="fill:none;stroke:midnightblue;" d="M192,-48C201,-48 210,-48 219,-48"/>
<polygon style="fill:midnightblue;stroke:midnightblue;" points="192,-44.5001 182,-48 192,-51.5001 192,-44.5001"/>
</g>
<!-- Node6 -->
<g id="node11" class="node"><title>Node6</title>
<a xlink:href="class_t_c_p_server.html" target="_top" xlink:title="Defines a TCP server that can listen to connection attempts and can accept them for communication...">
<polygon style="fill:white;stroke:black;" points="247,1 247,-20 319,-20 319,1 247,1"/>
<text text-anchor="middle" x="283" y="-6" style="font-family:Arial;font-size:10.00;">TCPServer</text>
</a>
</g>
<!-- Node1&#45;&gt;Node6 -->
<g id="edge10" class="edge"><title>Node1&#45;&gt;Node6</title>
<path style="fill:none;stroke:midnightblue;" d="M157,-35C187,-29 222,-22 247,-17"/>
<polygon style="fill:midnightblue;stroke:midnightblue;" points="156.119,-31.6067 147,-37 157.492,-38.4708 156.119,-31.6067"/>
</g>
<!-- Node3 -->
<g id="node5" class="node"><title>Node3</title>
<a xlink:href="class_threaded_t_c_p_client.html" target="_top" xlink:title="This is a TCP client class that receives data in a separate thread in the background. ">
<polygon style="fill:white;stroke:black;" points="414,-103 414,-124 536,-124 536,-103 414,-103"/>
<text text-anchor="middle" x="475" y="-110" style="font-family:Arial;font-size:10.00;">ThreadedTCPClient</text>
</a>
</g>
<!-- Node2&#45;&gt;Node3 -->
<g id="edge4" class="edge"><title>Node2&#45;&gt;Node3</title>
<path style="fill:none;stroke:midnightblue;" d="M328,-122C354,-121 386,-119 414,-117"/>
<polygon style="fill:midnightblue;stroke:midnightblue;" points="328,-118.5 318,-122 328,-125.5 328,-118.5"/>
</g>
<!-- Node5 -->
<g id="node9" class="node"><title>Node5</title>
<a xlink:href="class_threaded_t_c_p_connected_client.html" target="_top" xlink:title="Manages the connection to an accepted client on the server side and receives data in a separate threa...">
<polygon style="fill:white;stroke:black;" points="384,-46 384,-67 566,-67 566,-46 384,-46"/>
<text text-anchor="middle" x="475" y="-53" style="font-family:Arial;font-size:10.00;">ThreadedTCPConnectedClient</text>
</a>
</g>
<!-- Node4&#45;&gt;Node5 -->
<g id="edge8" class="edge"><title>Node4&#45;&gt;Node5</title>
<path style="fill:none;stroke:midnightblue;" d="M358,-52C367,-52 375,-52 384,-53"/>
<polygon style="fill:midnightblue;stroke:midnightblue;" points="358.299,-48.5125 348,-51 357.602,-55.4778 358.299,-48.5125"/>
</g>
<!-- Node7 -->
<g id="node13" class="node"><title>Node7</title>
<a xlink:href="class_threaded_t_c_p_server.html" target="_top" xlink:title="Defines the threaded version of TCPServer that accepts clients in another thread in the background...">
<polygon style="fill:white;stroke:black;" points="413,-8 413,-29 538,-29 538,-8 413,-8"/>
<text text-anchor="middle" x="475" y="-15" style="font-family:Arial;font-size:10.00;">ThreadedTCPServer</text>
</a>
</g>
<!-- Node6&#45;&gt;Node7 -->
<g id="edge12" class="edge"><title>Node6&#45;&gt;Node7</title>
<path style="fill:none;stroke:midnightblue;" d="M329,-12C354,-13 386,-15 413,-16"/>
<polygon style="fill:midnightblue;stroke:midnightblue;" points="329,-8.5001 319,-12 329,-15.5001 329,-8.5001"/>
</g>
<!-- Node8 -->
<g id="node14" class="node"><title>Node8</title>
<a xlink:href="class_thread_base.html" target="_top" xlink:title="Provides a base class that can be inherited from to gain threading capabilities. ">
<polygon style="fill:white;stroke:black;" points="243,-75 243,-96 324,-96 324,-75 243,-75"/>
<text text-anchor="middle" x="283" y="-82" style="font-family:Arial;font-size:10.00;">ThreadBase</text>
</a>
</g>
<!-- Node8&#45;&gt;Node3 -->
<g id="edge14" class="edge"><title>Node8&#45;&gt;Node3</title>
<path style="fill:none;stroke:#8b1a1a;" d="M334,-94C359,-97 389,-102 414,-105"/>
<polygon style="fill:#8b1a1a;stroke:#8b1a1a;" points="334.492,-90.5292 324,-92 333.119,-97.3933 334.492,-90.5292"/>
</g>
<!-- Node8&#45;&gt;Node5 -->
<g id="edge16" class="edge"><title>Node8&#45;&gt;Node5</title>
<path style="fill:none;stroke:#8b1a1a;" d="M334,-78C357,-75 384,-70 408,-67"/>
<polygon style="fill:#8b1a1a;stroke:#8b1a1a;" points="333.119,-74.6067 324,-80 334.492,-81.4708 333.119,-74.6067"/>
</g>
<!-- Node8&#45;&gt;Node7 -->
<g id="edge18" class="edge"><title>Node8&#45;&gt;Node7</title>
<path style="fill:none;stroke:#8b1a1a;" d="M334,-73C339,-72 344,-69 348,-67 367,-57 366,-46 384,-38 393,-34 403,-30 413,-28"/>
<polygon style="fill:#8b1a1a;stroke:#8b1a1a;" points="332.573,-69.7741 324,-76 334.584,-76.4788 332.573,-69.7741"/>
</g>
</g>
</svg>
