<?xml version="1.0" encoding="UTF-8" standalone="no"?>
<!DOCTYPE svg PUBLIC "-//W3C//DTD SVG 1.0//EN"
 "http://www.w3.org/TR/2001/REC-SVG-20010904/DTD/svg10.dtd" [
 <!ATTLIST svg xmlns:xlink CDATA #FIXED "http://www.w3.org/1999/xlink">
]>
<!-- Generated by Graphviz version 2.14.1 (Fri Nov  9 08:19:38 GMT 2007)
     For user: (asakyurek) Alper Sinan Akyurek -->
<!-- Title: S2Sim/main.cpp Pages: 1 -->
<svg width="1617pt" height="610pt"
 viewBox="0.00 0.00 1617.00 610.00" xmlns="http://www.w3.org/2000/svg" xmlns:xlink="http://www.w3.org/1999/xlink">
<g id="graph0" class="graph" transform="scale(1 1) rotate(0) translate(4 606)">
<title>S2Sim/main.cpp</title>
<polygon style="fill:white;stroke:white;" points="-4,4 -4,-606 1613,-606 1613,4 -4,4"/>
<!-- Node1 -->
<g id="node1" class="node"><title>Node1</title>
<polygon style="fill:#bfbfbf;stroke:black;" points="406,-580 406,-601 510,-601 510,-580 406,-580"/>
<text text-anchor="middle" x="458" y="-587" style="font-family:Arial;font-size:10.00;">S2Sim/main.cpp</text>
</g>
<!-- Node2 -->
<g id="node3" class="node"><title>Node2</title>
<a xlink:href="_matlab_manager_8h.html" target="_top" xlink:title="Defines the MatlabManager class. ">
<polygon style="fill:white;stroke:black;" points="280,-522 280,-543 391,-543 391,-522 280,-522"/>
<text text-anchor="middle" x="335" y="-529" style="font-family:Arial;font-size:10.00;">MatlabManager.h</text>
</a>
</g>
<!-- Node1&#45;&gt;Node2 -->
<g id="edge2" class="edge"><title>Node1&#45;&gt;Node2</title>
<path style="fill:none;stroke:midnightblue;" d="M435,-580C415,-570 387,-557 365,-547"/>
<polygon style="fill:midnightblue;stroke:midnightblue;" points="366.56,-543.863 356,-543 363.717,-550.26 366.56,-543.863"/>
</g>
<!-- Node13 -->
<g id="node33" class="node"><title>Node13</title>
<a xlink:href="_system_manager_8h.html" target="_top" xlink:title="Defines the SystemManager class. ">
<polygon style="fill:white;stroke:black;" points="484,-464 484,-485 598,-485 598,-464 484,-464"/>
<text text-anchor="middle" x="541" y="-471" style="font-family:Arial;font-size:10.00;">SystemManager.h</text>
</a>
</g>
<!-- Node1&#45;&gt;Node13 -->
<g id="edge158" class="edge"><title>Node1&#45;&gt;Node13</title>
<path style="fill:none;stroke:midnightblue;" d="M466,-580C480,-560 510,-518 528,-493"/>
<polygon style="fill:midnightblue;stroke:midnightblue;" points="530.8,-495.1 534,-485 525.2,-490.9 530.8,-495.1"/>
</g>
<!-- Node28 -->
<g id="node82" class="node"><title>Node28</title>
<a xlink:href="_connection_manager_8h.html" target="_top" xlink:title="This file defines the ConnectionManager class. ">
<polygon style="fill:white;stroke:black;" points="513,-348 513,-369 650,-369 650,-348 513,-348"/>
<text text-anchor="middle" x="581" y="-355" style="font-family:Arial;font-size:10.00;">ConnectionManager.h</text>
</a>
</g>
<!-- Node1&#45;&gt;Node28 -->
<g id="edge154" class="edge"><title>Node1&#45;&gt;Node28</title>
<path style="fill:none;stroke:midnightblue;" d="M487,-580C523,-565 581,-534 607,-486 625,-451 606,-404 592,-378"/>
<polygon style="fill:midnightblue;stroke:midnightblue;" points="594.916,-376.042 587,-369 588.797,-379.441 594.916,-376.042"/>
</g>
<!-- Node31 -->
<g id="node99" class="node"><title>Node31</title>
<a xlink:href="_control_manager_8h.html" target="_top" xlink:title="This file defines the ControlManager class. ">
<polygon style="fill:white;stroke:black;" points="361,-406 361,-427 475,-427 475,-406 361,-406"/>
<text text-anchor="middle" x="418" y="-413" style="font-family:Arial;font-size:10.00;">ControlManager.h</text>
</a>
</g>
<!-- Node1&#45;&gt;Node31 -->
<g id="edge156" class="edge"><title>Node1&#45;&gt;Node31</title>
<path style="fill:none;stroke:midnightblue;" d="M455,-580C449,-551 432,-474 423,-437"/>
<polygon style="fill:midnightblue;stroke:midnightblue;" points="426.226,-435.573 420,-427 419.521,-437.584 426.226,-435.573"/>
</g>
<!-- Node3 -->
<g id="node5" class="node"><title>Node3</title>
<polygon style="fill:white;stroke:#bfbfbf;" points="257,-0 257,-21 321,-21 321,-0 257,-0"/>
<text text-anchor="middle" x="289" y="-7" style="font-family:Arial;font-size:10.00;">iostream</text>
</g>
<!-- Node2&#45;&gt;Node3 -->
<g id="edge4" class="edge"><title>Node2&#45;&gt;Node3</title>
<path style="fill:none;stroke:midnightblue;" d="M280,-525C185,-511 0,-475 0,-417 0,-417 0,-417 0,-127 0,-73 167,-34 247,-19"/>
<polygon style="fill:midnightblue;stroke:midnightblue;" points="247.881,-22.3933 257,-17 246.508,-15.5292 247.881,-22.3933"/>
</g>
<!-- Node4 -->
<g id="node7" class="node"><title>Node4</title>
<a xlink:href="_semaphore_8h.html" target="_top" xlink:title="Defines the Semaphore class under Windows 32/64bit and POSIX enables OSes. ">
<polygon style="fill:white;stroke:black;" points="368,-116 368,-137 458,-137 458,-116 368,-116"/>
<text text-anchor="middle" x="413" y="-123" style="font-family:Arial;font-size:10.00;">Semaphore.h</text>
</a>
</g>
<!-- Node2&#45;&gt;Node4 -->
<g id="edge6" class="edge"><title>Node2&#45;&gt;Node4</title>
<path style="fill:none;stroke:midnightblue;" d="M336,-522C339,-499 344,-448 352,-406 369,-307 396,-192 408,-147"/>
<polygon style="fill:midnightblue;stroke:midnightblue;" points="411.471,-147.492 410,-137 404.607,-146.119 411.471,-147.492"/>
</g>
<!-- Node5 -->
<g id="node10" class="node"><title>Node5</title>
<a xlink:href="_threaded_t_c_p_server_8h.html" target="_top" xlink:title="Defines the ThreadedTCPServer class. ">
<polygon style="fill:white;stroke:black;" points="209,-290 209,-311 344,-311 344,-290 209,-290"/>
<text text-anchor="middle" x="276" y="-297" style="font-family:Arial;font-size:10.00;">ThreadedTCPServer.h</text>
</a>
</g>
<!-- Node2&#45;&gt;Node5 -->
<g id="edge10" class="edge"><title>Node2&#45;&gt;Node5</title>
<path style="fill:none;stroke:midnightblue;" d="M331,-522C327,-512 323,-498 319,-486 302,-426 286,-355 280,-321"/>
<polygon style="fill:midnightblue;stroke:midnightblue;" points="283.393,-320.119 278,-311 276.529,-321.492 283.393,-320.119"/>
</g>
<!-- Node11 -->
<g id="node23" class="node"><title>Node11</title>
<a xlink:href="_threaded_t_c_p_connected_client_8h.html" target="_top" xlink:title="Defeines the ThreadedTCPConnectedClient class. ">
<polygon style="fill:white;stroke:black;" points="174,-174 174,-195 366,-195 366,-174 174,-174"/>
<text text-anchor="middle" x="270" y="-181" style="font-family:Arial;font-size:10.00;">ThreadedTCPConnectedClient.h</text>
</a>
</g>
<!-- Node2&#45;&gt;Node11 -->
<g id="edge38" class="edge"><title>Node2&#45;&gt;Node11</title>
<path style="fill:none;stroke:midnightblue;" d="M295,-522C250,-506 181,-474 181,-417 181,-417 181,-417 181,-359 181,-296 228,-233 253,-203"/>
<polygon style="fill:midnightblue;stroke:midnightblue;" points="256.049,-204.831 260,-195 250.781,-200.221 256.049,-204.831"/>
</g>
<!-- Node2&#45;&gt;Node13 -->
<g id="edge40" class="edge"><title>Node2&#45;&gt;Node13</title>
<path style="fill:none;stroke:midnightblue;" d="M369,-522C402,-512 453,-498 490,-488"/>
<polygon style="fill:midnightblue;stroke:midnightblue;" points="491.427,-491.226 500,-485 489.416,-484.521 491.427,-491.226"/>
</g>
<!-- Node4&#45;&gt;Node3 -->
<g id="edge8" class="edge"><title>Node4&#45;&gt;Node3</title>
<path style="fill:none;stroke:midnightblue;" d="M403,-116C389,-102 366,-77 345,-58 334,-47 321,-36 310,-27"/>
<polygon style="fill:midnightblue;stroke:midnightblue;" points="312.1,-24.2 302,-21 307.9,-29.8 312.1,-24.2"/>
</g>
<!-- Node6 -->
<g id="node12" class="node"><title>Node6</title>
<a xlink:href="_thread_base_8h.html" target="_top" xlink:title="This file selects the right implementation according to the current OS. ">
<polygon style="fill:white;stroke:black;" points="104,-116 104,-137 195,-137 195,-116 104,-116"/>
<text text-anchor="middle" x="149" y="-123" style="font-family:Arial;font-size:10.00;">ThreadBase.h</text>
</a>
</g>
<!-- Node5&#45;&gt;Node6 -->
<g id="edge12" class="edge"><title>Node5&#45;&gt;Node6</title>
<path style="fill:none;stroke:midnightblue;" d="M259,-290C234,-273 188,-237 165,-196 156,-181 153,-162 150,-147"/>
<polygon style="fill:midnightblue;stroke:midnightblue;" points="153.478,-146.602 149,-137 146.512,-147.299 153.478,-146.602"/>
</g>
<!-- Node7 -->
<g id="node14" class="node"><title>Node7</title>
<a xlink:href="_t_c_p_server_8h.html" target="_top" xlink:title="Defines the TCPServer class. ">
<polygon style="fill:white;stroke:black;" points="35,-232 35,-253 117,-253 117,-232 35,-232"/>
<text text-anchor="middle" x="76" y="-239" style="font-family:Arial;font-size:10.00;">TCPServer.h</text>
</a>
</g>
<!-- Node5&#45;&gt;Node7 -->
<g id="edge14" class="edge"><title>Node5&#45;&gt;Node7</title>
<path style="fill:none;stroke:midnightblue;" d="M238,-290C204,-280 156,-266 121,-256"/>
<polygon style="fill:midnightblue;stroke:midnightblue;" points="121.584,-252.521 111,-253 119.573,-259.226 121.584,-252.521"/>
</g>
<!-- Node5&#45;&gt;Node11 -->
<g id="edge36" class="edge"><title>Node5&#45;&gt;Node11</title>
<path style="fill:none;stroke:midnightblue;" d="M275,-290C274,-271 273,-230 271,-205"/>
<polygon style="fill:midnightblue;stroke:midnightblue;" points="274.5,-205 271,-195 267.5,-205 274.5,-205"/>
</g>
<!-- Node8 -->
<g id="node16" class="node"><title>Node8</title>
<a xlink:href="_socket_base_8h.html" target="_top" xlink:title="Defines the SocketBase template class. ">
<polygon style="fill:white;stroke:black;" points="154,-58 154,-79 243,-79 243,-58 154,-58"/>
<text text-anchor="middle" x="198" y="-65" style="font-family:Arial;font-size:10.00;">SocketBase.h</text>
</a>
</g>
<!-- Node7&#45;&gt;Node8 -->
<g id="edge16" class="edge"><title>Node7&#45;&gt;Node8</title>
<path style="fill:none;stroke:midnightblue;" d="M70,-232C59,-208 37,-152 62,-116 72,-102 111,-89 144,-81"/>
<polygon style="fill:midnightblue;stroke:midnightblue;" points="145.427,-84.2259 154,-78 143.416,-77.5212 145.427,-84.2259"/>
</g>
<!-- Node9 -->
<g id="node19" class="node"><title>Node9</title>
<a xlink:href="_i_p_address_8h.html" target="_top" xlink:title="Defines the IPAddress class. ">
<polygon style="fill:white;stroke:black;" points="260,-58 260,-79 337,-79 337,-58 260,-58"/>
<text text-anchor="middle" x="298" y="-65" style="font-family:Arial;font-size:10.00;">IPAddress.h</text>
</a>
</g>
<!-- Node7&#45;&gt;Node9 -->
<g id="edge20" class="edge"><title>Node7&#45;&gt;Node9</title>
<path style="fill:none;stroke:midnightblue;" d="M74,-232C70,-207 65,-148 95,-116 141,-65 178,-93 250,-80"/>
<polygon style="fill:midnightblue;stroke:midnightblue;" points="250.881,-83.3933 260,-78 249.508,-76.5292 250.881,-83.3933"/>
</g>
<!-- Node7&#45;&gt;Node11 -->
<g id="edge24" class="edge"><title>Node7&#45;&gt;Node11</title>
<path style="fill:none;stroke:midnightblue;" d="M113,-232C145,-222 192,-208 226,-198"/>
<polygon style="fill:midnightblue;stroke:midnightblue;" points="227.427,-201.226 236,-195 225.416,-194.521 227.427,-201.226"/>
</g>
<!-- Node8&#45;&gt;Node3 -->
<g id="edge18" class="edge"><title>Node8&#45;&gt;Node3</title>
<path style="fill:none;stroke:midnightblue;" d="M216,-58C229,-49 249,-36 264,-26"/>
<polygon style="fill:midnightblue;stroke:midnightblue;" points="265.958,-28.916 273,-21 262.559,-22.7969 265.958,-28.916"/>
</g>
<!-- Node10 -->
<g id="node21" class="node"><title>Node10</title>
<polygon style="fill:white;stroke:#bfbfbf;" points="1344,-0 1344,-21 1400,-21 1400,-0 1344,-0"/>
<text text-anchor="middle" x="1372" y="-7" style="font-family:Arial;font-size:10.00;">string.h</text>
</g>
<!-- Node9&#45;&gt;Node10 -->
<g id="edge22" class="edge"><title>Node9&#45;&gt;Node10</title>
<path style="fill:none;stroke:midnightblue;" d="M337,-68C470,-65 915,-53 1282,-22 1299,-20 1318,-18 1334,-16"/>
<polygon style="fill:midnightblue;stroke:midnightblue;" points="1334.4,-19.4778 1344,-15 1333.7,-12.5125 1334.4,-19.4778"/>
</g>
<!-- Node11&#45;&gt;Node4 -->
<g id="edge34" class="edge"><title>Node11&#45;&gt;Node4</title>
<path style="fill:none;stroke:midnightblue;" d="M297,-174C321,-164 354,-151 379,-141"/>
<polygon style="fill:midnightblue;stroke:midnightblue;" points="380.283,-144.26 388,-137 377.44,-137.863 380.283,-144.26"/>
</g>
<!-- Node11&#45;&gt;Node6 -->
<g id="edge32" class="edge"><title>Node11&#45;&gt;Node6</title>
<path style="fill:none;stroke:midnightblue;" d="M247,-174C228,-165 200,-151 179,-141"/>
<polygon style="fill:midnightblue;stroke:midnightblue;" points="180.56,-137.863 170,-137 177.717,-144.26 180.56,-137.863"/>
</g>
<!-- Node12 -->
<g id="node25" class="node"><title>Node12</title>
<a xlink:href="_t_c_p_connected_client_8h.html" target="_top" xlink:title="Defines the TCPConnectedClient class. ">
<polygon style="fill:white;stroke:black;" points="212,-116 212,-137 351,-137 351,-116 212,-116"/>
<text text-anchor="middle" x="281" y="-123" style="font-family:Arial;font-size:10.00;">TCPConnectedClient.h</text>
</a>
</g>
<!-- Node11&#45;&gt;Node12 -->
<g id="edge26" class="edge"><title>Node11&#45;&gt;Node12</title>
<path style="fill:none;stroke:midnightblue;" d="M272,-174C273,-166 275,-156 277,-147"/>
<polygon style="fill:midnightblue;stroke:midnightblue;" points="280.471,-147.492 279,-137 273.607,-146.119 280.471,-147.492"/>
</g>
<!-- Node12&#45;&gt;Node8 -->
<g id="edge28" class="edge"><title>Node12&#45;&gt;Node8</title>
<path style="fill:none;stroke:midnightblue;" d="M265,-116C253,-107 235,-94 220,-85"/>
<polygon style="fill:midnightblue;stroke:midnightblue;" points="222.1,-82.2 212,-79 217.9,-87.8 222.1,-82.2"/>
</g>
<!-- Node12&#45;&gt;Node9 -->
<g id="edge30" class="edge"><title>Node12&#45;&gt;Node9</title>
<path style="fill:none;stroke:midnightblue;" d="M284,-116C286,-108 289,-98 292,-89"/>
<polygon style="fill:midnightblue;stroke:midnightblue;" points="295.479,-89.584 295,-79 288.774,-87.5725 295.479,-89.584"/>
</g>
<!-- Node13&#45;&gt;Node2 -->
<g id="edge134" class="edge"><title>Node13&#45;&gt;Node2</title>
<path style="fill:none;stroke:midnightblue;" d="M510,-485C479,-494 428,-508 390,-519"/>
<polygon style="fill:midnightblue;stroke:midnightblue;" points="388.573,-515.774 380,-522 390.584,-522.479 388.573,-515.774"/>
</g>
<!-- Node14 -->
<g id="node35" class="node"><title>Node14</title>
<polygon style="fill:white;stroke:#bfbfbf;" points="1551,-58 1551,-79 1592,-79 1592,-58 1551,-58"/>
<text text-anchor="middle" x="1571" y="-65" style="font-family:Arial;font-size:10.00;">map</text>
</g>
<!-- Node13&#45;&gt;Node14 -->
<g id="edge42" class="edge"><title>Node13&#45;&gt;Node14</title>
<path style="fill:none;stroke:midnightblue;" d="M598,-472C819,-459 1609,-410 1609,-359 1609,-359 1609,-359 1609,-185 1609,-149 1592,-111 1582,-88"/>
<polygon style="fill:midnightblue;stroke:midnightblue;" points="1584.92,-86.0418 1577,-79 1578.8,-89.4414 1584.92,-86.0418"/>
</g>
<!-- Node15 -->
<g id="node37" class="node"><title>Node15</title>
<a xlink:href="_client_manager_8h.html" target="_top" xlink:title="Header file for the ClientManager class. ">
<polygon style="fill:white;stroke:black;" points="709,-290 709,-311 815,-311 815,-290 709,-290"/>
<text text-anchor="middle" x="762" y="-297" style="font-family:Arial;font-size:10.00;">ClientManager.h</text>
</a>
</g>
<!-- Node13&#45;&gt;Node15 -->
<g id="edge44" class="edge"><title>Node13&#45;&gt;Node15</title>
<path style="fill:none;stroke:midnightblue;" d="M567,-464C605,-448 675,-417 720,-370 733,-356 742,-336 749,-321"/>
<polygon style="fill:midnightblue;stroke:midnightblue;" points="752.536,-321.585 753,-311 746.036,-318.985 752.536,-321.585"/>
</g>
<!-- Node29 -->
<g id="node87" class="node"><title>Node29</title>
<a xlink:href="_log_print_8h.html" target="_top" xlink:title="Defines logging related functions. ">
<polygon style="fill:white;stroke:black;" points="437,-232 437,-253 507,-253 507,-232 437,-232"/>
<text text-anchor="middle" x="472" y="-239" style="font-family:Arial;font-size:10.00;">LogPrint.h</text>
</a>
</g>
<!-- Node13&#45;&gt;Node29 -->
<g id="edge152" class="edge"><title>Node13&#45;&gt;Node29</title>
<path style="fill:none;stroke:midnightblue;" d="M537,-464C529,-445 514,-404 504,-370 493,-333 482,-288 476,-263"/>
<polygon style="fill:midnightblue;stroke:midnightblue;" points="479.393,-262.119 474,-253 472.529,-263.492 479.393,-262.119"/>
</g>
<!-- Node13&#45;&gt;Node31 -->
<g id="edge136" class="edge"><title>Node13&#45;&gt;Node31</title>
<path style="fill:none;stroke:midnightblue;" d="M512,-464C491,-455 463,-441 443,-432"/>
<polygon style="fill:midnightblue;stroke:midnightblue;" points="444.441,-428.797 434,-427 441.042,-434.916 444.441,-428.797"/>
</g>
<!-- Node15&#45;&gt;Node2 -->
<g id="edge126" class="edge"><title>Node15&#45;&gt;Node2</title>
<path style="fill:none;stroke:midnightblue;" d="M753,-311C739,-326 713,-353 687,-370 600,-426 568,-420 475,-464 437,-481 394,-503 366,-517"/>
<polygon style="fill:midnightblue;stroke:midnightblue;" points="364.042,-514.084 357,-522 367.441,-520.203 364.042,-514.084"/>
</g>
<!-- Node15&#45;&gt;Node11 -->
<g id="edge130" class="edge"><title>Node15&#45;&gt;Node11</title>
<path style="fill:none;stroke:midnightblue;" d="M709,-293C666,-286 605,-274 554,-254 535,-246 534,-238 516,-232 470,-215 416,-204 371,-197"/>
<polygon style="fill:midnightblue;stroke:midnightblue;" points="371.492,-193.529 361,-195 370.119,-200.393 371.492,-193.529"/>
</g>
<!-- Node15&#45;&gt;Node13 -->
<g id="edge128" class="edge"><title>Node15&#45;&gt;Node13</title>
<path style="fill:none;stroke:midnightblue;" d="M765,-311C764,-326 754,-353 738,-370 696,-414 632,-444 588,-461"/>
<polygon style="fill:midnightblue;stroke:midnightblue;" points="587.38,-457.517 579,-464 589.594,-464.158 587.38,-457.517"/>
</g>
<!-- Node16 -->
<g id="node39" class="node"><title>Node16</title>
<a xlink:href="_message_header_8h.html" target="_top" xlink:title="Defines the MessageHeader class. ">
<polygon style="fill:white;stroke:black;" points="1127,-116 1127,-137 1240,-137 1240,-116 1127,-116"/>
<text text-anchor="middle" x="1183" y="-123" style="font-family:Arial;font-size:10.00;">MessageHeader.h</text>
</a>
</g>
<!-- Node15&#45;&gt;Node16 -->
<g id="edge46" class="edge"><title>Node15&#45;&gt;Node16</title>
<path style="fill:none;stroke:midnightblue;" d="M815,-299C967,-293 1391,-275 1412,-254 1418,-246 1417,-240 1412,-232 1376,-176 1304,-150 1250,-137"/>
<polygon style="fill:midnightblue;stroke:midnightblue;" points="1250.49,-133.529 1240,-135 1249.12,-140.393 1250.49,-133.529"/>
</g>
<!-- Node19 -->
<g id="node47" class="node"><title>Node19</title>
<a xlink:href="_client_connection_request_8h.html" target="_top" xlink:title="Defines the ClientConnectionRequest classes. ">
<polygon style="fill:white;stroke:black;" points="563,-232 563,-253 728,-253 728,-232 563,-232"/>
<text text-anchor="middle" x="645" y="-239" style="font-family:Arial;font-size:10.00;">ClientConnectionRequest.h</text>
</a>
</g>
<!-- Node15&#45;&gt;Node19 -->
<g id="edge56" class="edge"><title>Node15&#45;&gt;Node19</title>
<path style="fill:none;stroke:midnightblue;" d="M740,-290C721,-281 695,-267 674,-257"/>
<polygon style="fill:midnightblue;stroke:midnightblue;" points="675.56,-253.863 665,-253 672.717,-260.26 675.56,-253.863"/>
</g>
<!-- Node22 -->
<g id="node56" class="node"><title>Node22</title>
<a xlink:href="_client_connection_response_8h.html" target="_top" xlink:title="Defines the Asnyc and Synchronous ClientConnectionResponse messages and classes. ">
<polygon style="fill:white;stroke:black;" points="833,-232 833,-253 1006,-253 1006,-232 833,-232"/>
<text text-anchor="middle" x="919" y="-239" style="font-family:Arial;font-size:10.00;">ClientConnectionResponse.h</text>
</a>
</g>
<!-- Node15&#45;&gt;Node22 -->
<g id="edge68" class="edge"><title>Node15&#45;&gt;Node22</title>
<path style="fill:none;stroke:midnightblue;" d="M792,-290C817,-280 855,-266 882,-256"/>
<polygon style="fill:midnightblue;stroke:midnightblue;" points="883.427,-259.226 892,-253 881.416,-252.521 883.427,-259.226"/>
</g>
<!-- Node23 -->
<g id="node60" class="node"><title>Node23</title>
<a xlink:href="_set_current_price_8h.html" target="_top" xlink:title="Defines the SetCurrentPrice class. ">
<polygon style="fill:white;stroke:black;" points="1023,-232 1023,-253 1134,-253 1134,-232 1023,-232"/>
<text text-anchor="middle" x="1078" y="-239" style="font-family:Arial;font-size:10.00;">SetCurrentPrice.h</text>
</a>
</g>
<!-- Node15&#45;&gt;Node23 -->
<g id="edge74" class="edge"><title>Node15&#45;&gt;Node23</title>
<path style="fill:none;stroke:midnightblue;" d="M815,-291C870,-282 955,-266 1014,-255"/>
<polygon style="fill:midnightblue;stroke:midnightblue;" points="1014.88,-258.393 1024,-253 1013.51,-251.529 1014.88,-258.393"/>
</g>
<!-- Node24 -->
<g id="node64" class="node"><title>Node24</title>
<a xlink:href="_price_proposal_8h.html" target="_top" xlink:title="Defines the PriceProposal class. ">
<polygon style="fill:white;stroke:black;" points="1151,-232 1151,-253 1249,-253 1249,-232 1151,-232"/>
<text text-anchor="middle" x="1200" y="-239" style="font-family:Arial;font-size:10.00;">PriceProposal.h</text>
</a>
</g>
<!-- Node15&#45;&gt;Node24 -->
<g id="edge80" class="edge"><title>Node15&#45;&gt;Node24</title>
<path style="fill:none;stroke:midnightblue;" d="M815,-295C887,-288 1018,-273 1141,-254"/>
<polygon style="fill:midnightblue;stroke:midnightblue;" points="1141.88,-257.393 1151,-252 1140.51,-250.529 1141.88,-257.393"/>
</g>
<!-- Node25 -->
<g id="node68" class="node"><title>Node25</title>
<a xlink:href="_client_data_8h.html" target="_top" xlink:title="Defines the Aysnchronous and Synchronous ClientData class and messages. ">
<polygon style="fill:white;stroke:black;" points="1459,-232 1459,-253 1543,-253 1543,-232 1459,-232"/>
<text text-anchor="middle" x="1501" y="-239" style="font-family:Arial;font-size:10.00;">ClientData.h</text>
</a>
</g>
<!-- Node15&#45;&gt;Node25 -->
<g id="edge86" class="edge"><title>Node15&#45;&gt;Node25</title>
<path style="fill:none;stroke:midnightblue;" d="M815,-300C931,-296 1211,-284 1445,-254 1446,-254 1448,-253 1449,-253"/>
<polygon style="fill:midnightblue;stroke:midnightblue;" points="1449.4,-256.478 1459,-252 1448.7,-249.512 1449.4,-256.478"/>
</g>
<!-- Node26 -->
<g id="node73" class="node"><title>Node26</title>
<a xlink:href="_get_price_8h.html" target="_top" xlink:title="Defines the GetPrice class and message. ">
<polygon style="fill:white;stroke:black;" points="745,-232 745,-253 816,-253 816,-232 745,-232"/>
<text text-anchor="middle" x="780" y="-239" style="font-family:Arial;font-size:10.00;">GetPrice.h</text>
</a>
</g>
<!-- Node15&#45;&gt;Node26 -->
<g id="edge94" class="edge"><title>Node15&#45;&gt;Node26</title>
<path style="fill:none;stroke:midnightblue;" d="M765,-290C768,-282 771,-272 774,-263"/>
<polygon style="fill:midnightblue;stroke:midnightblue;" points="777.479,-263.584 777,-253 770.774,-261.573 777.479,-263.584"/>
</g>
<!-- Node27 -->
<g id="node77" class="node"><title>Node27</title>
<a xlink:href="_demand_negotiation_8h.html" target="_top" xlink:title="Defines the DemandNegotiation class and message. ">
<polygon style="fill:white;stroke:black;" points="1267,-232 1267,-253 1404,-253 1404,-232 1267,-232"/>
<text text-anchor="middle" x="1335" y="-239" style="font-family:Arial;font-size:10.00;">DemandNegotiation.h</text>
</a>
</g>
<!-- Node15&#45;&gt;Node27 -->
<g id="edge100" class="edge"><title>Node15&#45;&gt;Node27</title>
<path style="fill:none;stroke:midnightblue;" d="M815,-297C904,-289 1090,-274 1257,-254"/>
<polygon style="fill:midnightblue;stroke:midnightblue;" points="1257.4,-257.478 1267,-253 1256.7,-250.512 1257.4,-257.478"/>
</g>
<!-- Node15&#45;&gt;Node28 -->
<g id="edge108" class="edge"><title>Node15&#45;&gt;Node28</title>
<path style="fill:none;stroke:midnightblue;" d="M736,-311C708,-320 665,-334 631,-345"/>
<polygon style="fill:midnightblue;stroke:midnightblue;" points="629.573,-341.774 621,-348 631.584,-348.479 629.573,-341.774"/>
</g>
<!-- Node15&#45;&gt;Node29 -->
<g id="edge132" class="edge"><title>Node15&#45;&gt;Node29</title>
<path style="fill:none;stroke:midnightblue;" d="M709,-291C660,-282 585,-267 521,-254 520,-254 518,-253 517,-253"/>
<polygon style="fill:midnightblue;stroke:midnightblue;" points="517.492,-249.529 507,-251 516.119,-256.393 517.492,-249.529"/>
</g>
<!-- Node16&#45;&gt;Node14 -->
<g id="edge54" class="edge"><title>Node16&#45;&gt;Node14</title>
<path style="fill:none;stroke:midnightblue;" d="M1240,-118C1323,-106 1476,-83 1541,-73"/>
<polygon style="fill:midnightblue;stroke:midnightblue;" points="1541.4,-76.4778 1551,-72 1540.7,-69.5125 1541.4,-76.4778"/>
</g>
<!-- Node17 -->
<g id="node41" class="node"><title>Node17</title>
<a xlink:href="_network_byte_accessor_8h.html" target="_top" xlink:title="Defines the NetworkByteAccessor class for byte order conversion and easier data access. ">
<polygon style="fill:white;stroke:black;" points="1113,-58 1113,-79 1254,-79 1254,-58 1113,-58"/>
<text text-anchor="middle" x="1183" y="-65" style="font-family:Arial;font-size:10.00;">NetworkByteAccessor.h</text>
</a>
</g>
<!-- Node16&#45;&gt;Node17 -->
<g id="edge48" class="edge"><title>Node16&#45;&gt;Node17</title>
<path style="fill:none;stroke:midnightblue;" d="M1183,-116C1183,-108 1183,-98 1183,-89"/>
<polygon style="fill:midnightblue;stroke:midnightblue;" points="1186.5,-89 1183,-79 1179.5,-89 1186.5,-89"/>
</g>
<!-- Node17&#45;&gt;Node10 -->
<g id="edge50" class="edge"><title>Node17&#45;&gt;Node10</title>
<path style="fill:none;stroke:midnightblue;" d="M1219,-58C1252,-48 1301,-33 1334,-23"/>
<polygon style="fill:midnightblue;stroke:midnightblue;" points="1335.43,-26.2259 1344,-20 1333.42,-19.5212 1335.43,-26.2259"/>
</g>
<!-- Node18 -->
<g id="node44" class="node"><title>Node18</title>
<a xlink:href="_compile_time_checker_library_8h.html" target="_top" xlink:title="This file contains template classes to do compile time checking. ">
<polygon style="fill:white;stroke:black;" points="1093,-0 1093,-21 1274,-21 1274,-0 1093,-0"/>
<text text-anchor="middle" x="1183" y="-7" style="font-family:Arial;font-size:10.00;">CompileTimeCheckerLibrary.h</text>
</a>
</g>
<!-- Node17&#45;&gt;Node18 -->
<g id="edge52" class="edge"><title>Node17&#45;&gt;Node18</title>
<path style="fill:none;stroke:midnightblue;" d="M1183,-58C1183,-50 1183,-40 1183,-31"/>
<polygon style="fill:midnightblue;stroke:midnightblue;" points="1186.5,-31 1183,-21 1179.5,-31 1186.5,-31"/>
</g>
<!-- Node19&#45;&gt;Node16 -->
<g id="edge58" class="edge"><title>Node19&#45;&gt;Node16</title>
<path style="fill:none;stroke:midnightblue;" d="M680,-232C729,-217 819,-191 898,-174 973,-157 1059,-144 1117,-135"/>
<polygon style="fill:midnightblue;stroke:midnightblue;" points="1117.4,-138.478 1127,-134 1116.7,-131.512 1117.4,-138.478"/>
</g>
<!-- Node20 -->
<g id="node50" class="node"><title>Node20</title>
<a xlink:href="_message_ender_8h.html" target="_top" xlink:title="Defines a MessageEnder class. ">
<polygon style="fill:white;stroke:black;" points="1030,-174 1030,-195 1134,-195 1134,-174 1030,-174"/>
<text text-anchor="middle" x="1082" y="-181" style="font-family:Arial;font-size:10.00;">MessageEnder.h</text>
</a>
</g>
<!-- Node19&#45;&gt;Node20 -->
<g id="edge60" class="edge"><title>Node19&#45;&gt;Node20</title>
<path style="fill:none;stroke:midnightblue;" d="M728,-232C813,-221 943,-204 1020,-193"/>
<polygon style="fill:midnightblue;stroke:midnightblue;" points="1020.4,-196.478 1030,-192 1019.7,-189.512 1020.4,-196.478"/>
</g>
<!-- Node21 -->
<g id="node54" class="node"><title>Node21</title>
<polygon style="fill:white;stroke:#bfbfbf;" points="622,-174 622,-195 668,-195 668,-174 622,-174"/>
<text text-anchor="middle" x="645" y="-181" style="font-family:Arial;font-size:10.00;">string</text>
</g>
<!-- Node19&#45;&gt;Node21 -->
<g id="edge66" class="edge"><title>Node19&#45;&gt;Node21</title>
<path style="fill:none;stroke:midnightblue;" d="M645,-232C645,-224 645,-214 645,-205"/>
<polygon style="fill:midnightblue;stroke:midnightblue;" points="648.5,-205 645,-195 641.5,-205 648.5,-205"/>
</g>
<!-- Node20&#45;&gt;Node16 -->
<g id="edge62" class="edge"><title>Node20&#45;&gt;Node16</title>
<path style="fill:none;stroke:midnightblue;" d="M1101,-174C1117,-165 1139,-152 1157,-142"/>
<polygon style="fill:midnightblue;stroke:midnightblue;" points="1158.96,-144.916 1166,-137 1155.56,-138.797 1158.96,-144.916"/>
</g>
<!-- Node20&#45;&gt;Node17 -->
<g id="edge64" class="edge"><title>Node20&#45;&gt;Node17</title>
<path style="fill:none;stroke:midnightblue;" d="M1086,-174C1091,-159 1102,-134 1118,-116 1129,-104 1143,-92 1156,-84"/>
<polygon style="fill:midnightblue;stroke:midnightblue;" points="1157.96,-86.916 1165,-79 1154.56,-80.7969 1157.96,-86.916"/>
</g>
<!-- Node22&#45;&gt;Node16 -->
<g id="edge70" class="edge"><title>Node22&#45;&gt;Node16</title>
<path style="fill:none;stroke:midnightblue;" d="M932,-232C951,-217 986,-190 1021,-174 1053,-159 1092,-147 1123,-139"/>
<polygon style="fill:midnightblue;stroke:midnightblue;" points="1123.88,-142.393 1133,-137 1122.51,-135.529 1123.88,-142.393"/>
</g>
<!-- Node22&#45;&gt;Node20 -->
<g id="edge72" class="edge"><title>Node22&#45;&gt;Node20</title>
<path style="fill:none;stroke:midnightblue;" d="M950,-232C977,-222 1016,-208 1044,-198"/>
<polygon style="fill:midnightblue;stroke:midnightblue;" points="1045.43,-201.226 1054,-195 1043.42,-194.521 1045.43,-201.226"/>
</g>
<!-- Node23&#45;&gt;Node16 -->
<g id="edge76" class="edge"><title>Node23&#45;&gt;Node16</title>
<path style="fill:none;stroke:midnightblue;" d="M1097,-232C1111,-223 1130,-210 1143,-196 1156,-181 1167,-161 1174,-146"/>
<polygon style="fill:midnightblue;stroke:midnightblue;" points="1177.2,-147.441 1179,-137 1171.08,-144.042 1177.2,-147.441"/>
</g>
<!-- Node23&#45;&gt;Node20 -->
<g id="edge78" class="edge"><title>Node23&#45;&gt;Node20</title>
<path style="fill:none;stroke:midnightblue;" d="M1079,-232C1080,-224 1080,-214 1081,-205"/>
<polygon style="fill:midnightblue;stroke:midnightblue;" points="1084.5,-205 1081,-195 1077.5,-205 1084.5,-205"/>
</g>
<!-- Node24&#45;&gt;Node16 -->
<g id="edge82" class="edge"><title>Node24&#45;&gt;Node16</title>
<path style="fill:none;stroke:midnightblue;" d="M1198,-232C1195,-213 1190,-172 1186,-147"/>
<polygon style="fill:midnightblue;stroke:midnightblue;" points="1189.39,-146.119 1184,-137 1182.53,-147.492 1189.39,-146.119"/>
</g>
<!-- Node24&#45;&gt;Node20 -->
<g id="edge84" class="edge"><title>Node24&#45;&gt;Node20</title>
<path style="fill:none;stroke:midnightblue;" d="M1178,-232C1159,-223 1132,-209 1111,-199"/>
<polygon style="fill:midnightblue;stroke:midnightblue;" points="1112.56,-195.863 1102,-195 1109.72,-202.26 1112.56,-195.863"/>
</g>
<!-- Node25&#45;&gt;Node10 -->
<g id="edge92" class="edge"><title>Node25&#45;&gt;Node10</title>
<path style="fill:none;stroke:midnightblue;" d="M1495,-232C1474,-195 1409,-76 1383,-30"/>
<polygon style="fill:midnightblue;stroke:midnightblue;" points="1385.92,-28.0418 1378,-21 1379.8,-31.4414 1385.92,-28.0418"/>
</g>
<!-- Node25&#45;&gt;Node16 -->
<g id="edge88" class="edge"><title>Node25&#45;&gt;Node16</title>
<path style="fill:none;stroke:midnightblue;" d="M1488,-232C1470,-216 1435,-189 1401,-174 1353,-153 1294,-141 1250,-134"/>
<polygon style="fill:midnightblue;stroke:midnightblue;" points="1250.3,-130.512 1240,-133 1249.6,-137.478 1250.3,-130.512"/>
</g>
<!-- Node25&#45;&gt;Node20 -->
<g id="edge90" class="edge"><title>Node25&#45;&gt;Node20</title>
<path style="fill:none;stroke:midnightblue;" d="M1459,-237C1385,-226 1230,-206 1144,-193"/>
<polygon style="fill:midnightblue;stroke:midnightblue;" points="1144.3,-189.512 1134,-192 1143.6,-196.478 1144.3,-189.512"/>
</g>
<!-- Node26&#45;&gt;Node16 -->
<g id="edge96" class="edge"><title>Node26&#45;&gt;Node16</title>
<path style="fill:none;stroke:midnightblue;" d="M808,-232C845,-217 914,-191 974,-174 1022,-160 1078,-147 1119,-139"/>
<polygon style="fill:midnightblue;stroke:midnightblue;" points="1119.88,-142.393 1129,-137 1118.51,-135.529 1119.88,-142.393"/>
</g>
<!-- Node26&#45;&gt;Node20 -->
<g id="edge98" class="edge"><title>Node26&#45;&gt;Node20</title>
<path style="fill:none;stroke:midnightblue;" d="M816,-234C819,-233 822,-233 824,-232 890,-217 967,-204 1020,-195"/>
<polygon style="fill:midnightblue;stroke:midnightblue;" points="1020.88,-198.393 1030,-193 1019.51,-191.529 1020.88,-198.393"/>
</g>
<!-- Node27&#45;&gt;Node10 -->
<g id="edge106" class="edge"><title>Node27&#45;&gt;Node10</title>
<path style="fill:none;stroke:midnightblue;" d="M1337,-232C1343,-195 1361,-78 1368,-31"/>
<polygon style="fill:midnightblue;stroke:midnightblue;" points="1371.47,-31.4922 1370,-21 1364.61,-30.1194 1371.47,-31.4922"/>
</g>
<!-- Node27&#45;&gt;Node16 -->
<g id="edge102" class="edge"><title>Node27&#45;&gt;Node16</title>
<path style="fill:none;stroke:midnightblue;" d="M1320,-232C1293,-212 1236,-168 1204,-143"/>
<polygon style="fill:midnightblue;stroke:midnightblue;" points="1206.1,-140.2 1196,-137 1201.9,-145.8 1206.1,-140.2"/>
</g>
<!-- Node27&#45;&gt;Node20 -->
<g id="edge104" class="edge"><title>Node27&#45;&gt;Node20</title>
<path style="fill:none;stroke:midnightblue;" d="M1287,-232C1243,-222 1181,-207 1136,-197"/>
<polygon style="fill:midnightblue;stroke:midnightblue;" points="1136.49,-193.529 1126,-195 1135.12,-200.393 1136.49,-193.529"/>
</g>
<!-- Node28&#45;&gt;Node5 -->
<g id="edge112" class="edge"><title>Node28&#45;&gt;Node5</title>
<path style="fill:none;stroke:midnightblue;" d="M523,-348C470,-338 393,-323 339,-313"/>
<polygon style="fill:midnightblue;stroke:midnightblue;" points="339.492,-309.529 329,-311 338.119,-316.393 339.492,-309.529"/>
</g>
<!-- Node28&#45;&gt;Node11 -->
<g id="edge114" class="edge"><title>Node28&#45;&gt;Node11</title>
<path style="fill:none;stroke:midnightblue;" d="M561,-348C507,-318 358,-235 297,-200"/>
<polygon style="fill:midnightblue;stroke:midnightblue;" points="298.441,-196.797 288,-195 295.042,-202.916 298.441,-196.797"/>
</g>
<!-- Node28&#45;&gt;Node14 -->
<g id="edge122" class="edge"><title>Node28&#45;&gt;Node14</title>
<path style="fill:none;stroke:midnightblue;" d="M650,-358C875,-354 1571,-335 1571,-243 1571,-243 1571,-243 1571,-185 1571,-152 1571,-112 1571,-89"/>
<polygon style="fill:midnightblue;stroke:midnightblue;" points="1574.5,-89 1571,-79 1567.5,-89 1574.5,-89"/>
</g>
<!-- Node28&#45;&gt;Node15 -->
<g id="edge110" class="edge"><title>Node28&#45;&gt;Node15</title>
<path style="fill:none;stroke:midnightblue;" d="M610,-348C639,-338 683,-324 716,-314"/>
<polygon style="fill:midnightblue;stroke:midnightblue;" points="717.427,-317.226 726,-311 715.416,-310.521 717.427,-317.226"/>
</g>
<!-- Node28&#45;&gt;Node29 -->
<g id="edge116" class="edge"><title>Node28&#45;&gt;Node29</title>
<path style="fill:none;stroke:midnightblue;" d="M576,-348C568,-333 553,-308 537,-290 526,-278 510,-267 497,-258"/>
<polygon style="fill:midnightblue;stroke:midnightblue;" points="499.335,-255.332 489,-253 495.625,-261.268 499.335,-255.332"/>
</g>
<!-- Node30 -->
<g id="node92" class="node"><title>Node30</title>
<polygon style="fill:white;stroke:#bfbfbf;" points="589,-290 589,-311 658,-311 658,-290 589,-290"/>
<text text-anchor="middle" x="623" y="-297" style="font-family:Arial;font-size:10.00;">algorithm</text>
</g>
<!-- Node28&#45;&gt;Node30 -->
<g id="edge124" class="edge"><title>Node28&#45;&gt;Node30</title>
<path style="fill:none;stroke:midnightblue;" d="M589,-348C595,-340 603,-328 610,-319"/>
<polygon style="fill:midnightblue;stroke:midnightblue;" points="612.8,-321.1 616,-311 607.2,-316.9 612.8,-321.1"/>
</g>
<!-- Node29&#45;&gt;Node3 -->
<g id="edge118" class="edge"><title>Node29&#45;&gt;Node3</title>
<path style="fill:none;stroke:midnightblue;" d="M475,-232C480,-208 489,-153 467,-116 436,-66 373,-37 331,-23"/>
<polygon style="fill:midnightblue;stroke:midnightblue;" points="331.584,-19.5212 321,-20 329.573,-26.2259 331.584,-19.5212"/>
</g>
<!-- Node29&#45;&gt;Node4 -->
<g id="edge120" class="edge"><title>Node29&#45;&gt;Node4</title>
<path style="fill:none;stroke:midnightblue;" d="M466,-232C456,-213 435,-171 423,-146"/>
<polygon style="fill:midnightblue;stroke:midnightblue;" points="425.916,-144.042 418,-137 419.797,-147.441 425.916,-144.042"/>
</g>
<!-- Node31&#45;&gt;Node2 -->
<g id="edge142" class="edge"><title>Node31&#45;&gt;Node2</title>
<path style="fill:none;stroke:midnightblue;" d="M411,-427C397,-447 367,-489 349,-514"/>
<polygon style="fill:midnightblue;stroke:midnightblue;" points="346.2,-511.9 343,-522 351.8,-516.1 346.2,-511.9"/>
</g>
<!-- Node31&#45;&gt;Node5 -->
<g id="edge140" class="edge"><title>Node31&#45;&gt;Node5</title>
<path style="fill:none;stroke:midnightblue;" d="M404,-406C379,-386 326,-342 297,-318"/>
<polygon style="fill:midnightblue;stroke:midnightblue;" points="298.831,-314.951 289,-311 294.221,-320.219 298.831,-314.951"/>
</g>
<!-- Node31&#45;&gt;Node11 -->
<g id="edge144" class="edge"><title>Node31&#45;&gt;Node11</title>
<path style="fill:none;stroke:midnightblue;" d="M413,-406C403,-383 378,-330 352,-290 331,-258 303,-223 286,-203"/>
<polygon style="fill:midnightblue;stroke:midnightblue;" points="288.219,-200.221 279,-195 282.951,-204.831 288.219,-200.221"/>
</g>
<!-- Node31&#45;&gt;Node13 -->
<g id="edge138" class="edge"><title>Node31&#45;&gt;Node13</title>
<path style="fill:none;stroke:midnightblue;" d="M444,-427C465,-436 493,-449 514,-459"/>
<polygon style="fill:midnightblue;stroke:midnightblue;" points="512.559,-462.203 523,-464 515.958,-456.084 512.559,-462.203"/>
</g>
<!-- Node31&#45;&gt;Node15 -->
<g id="edge148" class="edge"><title>Node31&#45;&gt;Node15</title>
<path style="fill:none;stroke:midnightblue;" d="M475,-407C541,-395 641,-377 658,-370 689,-356 722,-333 742,-317"/>
<polygon style="fill:midnightblue;stroke:midnightblue;" points="744.1,-319.8 750,-311 739.9,-314.2 744.1,-319.8"/>
</g>
<!-- Node31&#45;&gt;Node28 -->
<g id="edge146" class="edge"><title>Node31&#45;&gt;Node28</title>
<path style="fill:none;stroke:midnightblue;" d="M449,-406C476,-396 515,-382 543,-372"/>
<polygon style="fill:midnightblue;stroke:midnightblue;" points="544.427,-375.226 553,-369 542.416,-368.521 544.427,-375.226"/>
</g>
<!-- Node31&#45;&gt;Node29 -->
<g id="edge150" class="edge"><title>Node31&#45;&gt;Node29</title>
<path style="fill:none;stroke:midnightblue;" d="M421,-406C430,-377 454,-300 466,-263"/>
<polygon style="fill:midnightblue;stroke:midnightblue;" points="469.479,-263.584 469,-253 462.774,-261.573 469.479,-263.584"/>
</g>
</g>
</svg>
